<svg xmlns="http://www.w3.org/2000/svg" width="245.653" height="223.512" viewBox="0 0 245.653 223.512">
    <defs>
        <style>
            .cls-1{fill:#6a1818}.cls-3{fill:#fff}
        </style>
    </defs>
    <g id="Grupo_650" transform="translate(-60.206 -12.551)">
        <g id="woman" transform="translate(107.08 54.43)">
            <g id="body" transform="translate(5.856 53.087)">
                <path id="shape_5_" d="M22.6 11.495L2.2 8.243 0 1.28C3.818-1.144 16.647-.009 26.666 3.7L22.6 11.495" class="cls-1" transform="translate(41.519)"/>
                <path id="shape" fill="#d12121" d="M97.6 48.959L82.42 13.313a8.292 8.292 0 0 0-5.5-4.509 12.061 12.061 0 0 0-4.061-1.074L67.7 7.3l.458-4.877s-.7 1.749-6.384 2.822C54.1 6.687 41.489 0 41.489 0v7.546l-7.82-.215c-3.36-.092-9.866-.368-13.654 7.148L1.658 60.769C-1.611 66.751.1 75.586 5.506 80.156l10.721 5.951-1.007 11.964 81.128-.271-.458-10.619c24.681-15.368 1.71-38.222 1.71-38.222z" transform="translate(0 1.28)"/>
                <g id="lines_2_" transform="translate(9.935 52.054)">
                    <path id="Path" d="M.383 3.818C4.228 1.052 7.955-.14 11.5.013a14.4 14.4 0 0 1 7.518 2.55 15.923 15.923 0 0 1 2.167 1.755l.145.142a9.2 9.2 0 0 1 .638.692.923.923 0 0 1-.135 1.294.914.914 0 0 1-1.251-.092l-.125-.145-.057-.066c-.135-.15-.3-.318-.486-.5A14.1 14.1 0 0 0 18 4.089a12.6 12.6 0 0 0-6.574-2.238c-3.126-.134-6.455.93-9.976 3.463a.919.919 0 0 1-1.067-1.5z" class="cls-3" transform="translate(0 5.827)"/>
                    <path id="Path-2" d="M.493 2.453C4.537.339 8.118-.358 11.247.167a11.354 11.354 0 0 1 6.321 3.34 13.238 13.238 0 0 1 1.818 2.322c.176.286.327.555.454.8l.064.126c.048.1.084.175.116.248a.917.917 0 1 1-1.675.748 8 8 0 0 0-.517-.955 11.411 11.411 0 0 0-1.565-2 9.539 9.539 0 0 0-5.318-2.817c-2.713-.455-5.9.165-9.605 2.1a.919.919 0 0 1-.847-1.626z" class="cls-3" transform="translate(2.077 2.43)"/>
                    <path id="Path-3" d="M10.924.133c3.644-.519 7.6.47 11.841 3.215a.919.919 0 0 1-.993 1.547c-3.881-2.514-7.4-3.393-10.59-2.939a12.419 12.419 0 0 0-6.647 3.272 16.267 16.267 0 0 0-2.128 2.358c-.177.24-.332.464-.465.668l-.122.192c-.052.084-.087.143-.1.174a.917.917 0 1 1-1.6-.9l.056-.1a13.432 13.432 0 0 1 .759-1.131A18.091 18.091 0 0 1 3.3 3.864 14.22 14.22 0 0 1 10.924.133z" class="cls-3" transform="translate(67.75 3.389)"/>
                    <path id="Path-4" d="M3.086 4.349C6.571.856 11.491-.8 17.972.377a.92.92 0 0 1-.327 1.811C11.77 1.119 7.451 2.575 4.381 5.652a13.216 13.216 0 0 0-2.03 2.618c-.156.265-.289.513-.4.738l-.051.111-.1.216-.029.071a.917.917 0 1 1-1.709-.664l.046-.114a10.989 10.989 0 0 1 .667-1.3 15.044 15.044 0 0 1 2.311-2.979z" class="cls-3" transform="translate(66.833)"/>
                </g>
            </g>
            <g id="head">
                <path id="neck_5_" d="M0 20.584V0l18.022 10.89-.428 11.074z" class="cls-3" transform="translate(50.124 40.471)"/>
                <path id="neck_6_" d="M18.512 23.806h-.073L.845 22.423A.919.919 0 0 1 0 21.505V.922A.921.921 0 0 1 .918 0a.912.912 0 0 1 .471.133l18.021 10.89a.921.921 0 0 1 .443.824l-.428 11.074a.915.915 0 0 1-.913.885zM1.833 2.549v18.1l15.8 1.24L18 12.32z" class="cls-1" transform="translate(49.208 39.549)"/>
                <g id="head_5_">
                    <path id="face_13_" d="M31.582 3.832C24.251-1.26 17.653-3.131 7.3 10.182l-1.407 8.773c-4.337-1.319-6.628.828-5.681 4.632C1.22 27.7 3.6 29.539 7.542 28.465 9.436 32.76 13.01 37.7 19.638 39.14c10.385 2.27 12.768-4.2 13.929-6.718 1.133-2.577 5.346-23.498-1.985-28.59z" class="cls-3" transform="translate(42.399 14.552)"/>
                    <path id="face_14_" d="M24.653 41.471a20.275 20.275 0 0 1-4.291-.505 17.058 17.058 0 0 1-4-1.4 16.363 16.363 0 0 1-3.371-2.25 20.509 20.509 0 0 1-4.971-6.691l-.081-.168a8.193 8.193 0 0 1-1.544.155c-3.044 0-5.16-1.984-6.12-5.737l-.035-.138a6.885 6.885 0 0 1-.185-2.628A4.126 4.126 0 0 1 .86 20.13a3.761 3.761 0 0 1 1.5-1.146 5.33 5.33 0 0 1 2.122-.4 8.045 8.045 0 0 1 1.452.14l.129.025 1.247-7.783a.912.912 0 0 1 .144-.367l.039-.054a52.243 52.243 0 0 1 3.689-4.285 30.08 30.08 0 0 1 3.506-3.129A18.019 18.019 0 0 1 18.064 1.1a12.419 12.419 0 0 1 3.3-.98A11.46 11.46 0 0 1 23 0c2.987 0 5.984 1.2 10.021 4 3.4 2.361 4.933 7.756 4.56 16.037-.241 5.357-1.415 11.761-2.264 13.7l-.361.794-.186.4-.122.249a14.459 14.459 0 0 1-1.055 1.817 10.973 10.973 0 0 1-1.646 1.9 9.489 9.489 0 0 1-2.018 1.403 10.085 10.085 0 0 1-2.421.873 13.041 13.041 0 0 1-2.855.298zM8.46 28.47a.917.917 0 0 1 .838.548c2.478 5.62 6.332 9.035 11.453 10.149a18.581 18.581 0 0 0 3.921.469 11.1 11.1 0 0 0 2.4-.247 8.266 8.266 0 0 0 2.006-.719 8.183 8.183 0 0 0 3.007-2.726 12.688 12.688 0 0 0 .922-1.591c.107-.216.211-.435.347-.735l.291-.642c.733-1.671 1.827-7.7 2.087-12.686l.016-.336a32.376 32.376 0 0 0-.676-9.156c-.636-2.522-1.677-4.3-3.1-5.284-3.705-2.574-6.4-3.672-9-3.672a9.457 9.457 0 0 0-1.352.1 10.622 10.622 0 0 0-2.824.845 16.113 16.113 0 0 0-2.956 1.771 27.478 27.478 0 0 0-3.128 2.757 47.92 47.92 0 0 0-3.338 3.8l-.294.372-1.365 8.54a.914.914 0 0 1-1.117.749l-.053-.014a7.4 7.4 0 0 0-2.114-.36 3.34 3.34 0 0 0-1.258.218 2.036 2.036 0 0 0-.856.635 3.531 3.531 0 0 0-.3 3.038 7.159 7.159 0 0 0 1.633 3.368 3.587 3.587 0 0 0 1.23.834 4.061 4.061 0 0 0 1.524.277 6.841 6.841 0 0 0 1.7-.24l.118-.031a.914.914 0 0 1 .238-.031z" class="cls-1" transform="translate(41.481 13.626)"/>
                    <g id="face_12_" transform="translate(64.633 25.523)">
                        <path id="nose_5_" d="M2.829.006a.917.917 0 0 1 1.006.757l.008.054.886 7.853a.919.919 0 0 1-.877 1.023H3.8L.9 9.632a.92.92 0 0 1-.015-1.84h.051l1.854.039-.768-6.807a.92.92 0 0 1 .754-1.01z" class="cls-1" transform="translate(2.963 7.984)"/>
                        <ellipse id="eye_II_9_" cx=".886" cy="1.35" class="cls-1" rx=".886" ry="1.35" transform="translate(8.4 7.555)"/>
                        <ellipse id="eye_9_" cx=".886" cy="1.35" class="cls-1" rx=".886" ry="1.35" transform="translate(0 7.402)"/>
                        <path id="brow_12_" d="M1.018.063a4.273 4.273 0 0 1 1.7.047A2.807 2.807 0 0 1 4.816 2.1a.917.917 0 0 1-1.734.593l-.017-.051a.988.988 0 0 0-.784-.742 2.524 2.524 0 0 0-.973-.018l-.074.013-.071.015h-.012A.92.92 0 0 1 .681.132L.755.113C.824.1.913.08 1.018.063z" class="cls-1" transform="translate(7.728)"/>
                        <path id="mouth_12_" d="M.011 0a12.073 12.073 0 0 0 5.162.614S4.287 4.693 2 4.2C-.264 3.681.011 0 .011 0z" class="cls-1" transform="translate(.142 18.384)"/>
                    </g>
                    <g id="hair_13_">
                        <path id="Path-5" d="M35.737 8.966C31.064-.206 23.58-1 14.936.745 6.292 2.463 1.466 14.151 1.16 15.224a32.223 32.223 0 0 0 11.516 34.112c1.161.89 2.291 1.779 3.391 2.638 6.109 4.785-7.423 8.9-7.423 8.9 25.872 2.086 20.221-23.927 19.671-26.228 8.308-3.163 11.76-17.152 7.422-25.68z" class="cls-1"/>
                        <path id="Path-6" fill="#d56060" d="M22.917 11.481a4.1 4.1 0 0 1-5.317 2.331l-15-5.859A4.126 4.126 0 0 1 .283 2.616 4.1 4.1 0 0 1 5.6.284l15 5.859a4.126 4.126 0 0 1 2.317 5.338z" transform="translate(26.749 15.646)"/>
                        <path id="hair_14_" d="M43.768 20.3c-.092-6.381-1.619-11.964-5.437-15.645a7.088 7.088 0 0 0-2.169-1.718C33.046.916 28.8-.188 23.15.026a.794.794 0 0 0-.336.092 24.64 24.64 0 0 0-2.627.4 8.462 8.462 0 0 0-1.405.337 28.12 28.12 0 0 0-4.521 1.657C1.615 7.972-3.333 17.819 2.318 31.408c2.9 6.994 6.689 9.264 10.355 9.264v-4.233c-.305-.675-.825-.4-.825-.4-3.94 1.074-5.681-.828-6.72-4.939-.489-1.994-.092-3.5.977-4.325.031-.031.061-.031.092-.061s.092-.061.122-.092.061-.031.092-.061c.061-.031.092-.061.153-.092.031 0 .061-.031.092-.031a.515.515 0 0 1 .153-.061c.031 0 .061-.031.092-.031.061-.031.122-.031.183-.061.031 0 .031 0 .061-.031a4.141 4.141 0 0 1 1.1-.153h.7c.092 0 .214.031.305.031h.031a10.278 10.278 0 0 1 1.5.337c.336.092.092.245.458.4l.916-.061c.305 0 .641-.031.977-.061C21.1 25.794 33.5 20.058 37.9 12.7c3.116 3.8 3.452 11.258 2.871 17.577a17.866 17.866 0 0 0 2.997-9.977z" class="cls-1" transform="translate(37.482 7.038)"/>
                    </g>
                    <path id="brow_11_" d="M1.166.955a4.832 4.832 0 0 1 3.671-.9.92.92 0 0 1-.266 1.825 3.02 3.02 0 0 0-2.321.559 3.141 3.141 0 0 0-.459.412l-.053.059c-.03.035-.051.061-.062.076l-.006.009A.918.918 0 1 1 .162 1.951l.048-.068c.056-.074.131-.167.228-.273a4.967 4.967 0 0 1 .728-.655z" class="cls-3" transform="translate(61.212 24.041)"/>
                </g>
            </g>
            <path id="puzzle_1_" fill="#a7a7a7" d="M60.333 31.4l-1.924-10.243a7.676 7.676 0 0 0-8.919-6.135l-2.932.552A19.024 19.024 0 1 0 9.17 22.629l-2.932.552a7.7 7.7 0 0 0-6.11 8.958l1.925 10.246a19.007 19.007 0 0 1 22.206 15.246A19.125 19.125 0 0 1 9.078 79.963l1.283 6.779a7.675 7.675 0 0 0 8.919 6.135l43.252-8.19a7.7 7.7 0 0 0 6.109-8.957l-1.282-6.78a19.1 19.1 0 0 1-7.026-37.55z" transform="translate(26.323 51.708)"/>
            <g id="handII_1_" transform="translate(23.545 118.765)">
                <path id="Path-7" d="M21.2 17.746c4.124 2.945 4.673.706 3.452-.706-1.5-1.779-8.705-7.454-8.705-7.454s5.773 1.718 7.178-1.534S23 4.157 20.83 5.261s-8.919-2.884-8.919-2.884L9.712.322S2.289-2.07.4 6.181a8.409 8.409 0 0 0 1.619 7.976c.886 1.012 3.94 5 13.623 9.847 0 0 4.551 1.687 1.13-1.6a25.16 25.16 0 0 0-2.688-2.27" class="cls-3" transform="translate(.923 .926)"/>
                <path id="Path_2_" d="M5.448.479a8.834 8.834 0 0 1 4.689-.3l.169.034c.27.057.476.112.609.155a.915.915 0 0 1 .293.158l.051.044 2.124 1.985.132.076.227.128q.179.1.384.211c.649.352 1.339.7 2.041 1.033.619.289 1.217.546 1.782.761l.24.089c1.543.562 2.7.737 3.149.508 1.41-.718 2.681-.849 3.512-.1.9.807.839 2.22.034 4.081-.7 1.624-2.227 2.394-4.218 2.522q-.209.013-.42.017h-.2l.368.3c.389.318.774.634 1.15.946l.587.489.6.507a36.7 36.7 0 0 1 3.466 3.187l.041.048c.931 1.076 1.162 2.572.129 3.332s-2.65.265-4.8-1.273a.919.919 0 0 1 1.062-1.5 8.077 8.077 0 0 0 2.18 1.2 1.877 1.877 0 0 0 .341.072h.044v-.022a1.459 1.459 0 0 0-.288-.55l-.053-.063a38.88 38.88 0 0 0-3.684-3.352l-.42-.351c-.977-.814-2.024-1.668-3.072-2.509l-.6-.481-.794-.63a.92.92 0 0 1 .775-1.62l.189.052.088.023c.2.049.416.1.656.145a10.245 10.245 0 0 0 2.54.2c1.376-.088 2.276-.543 2.654-1.418a4.98 4.98 0 0 0 .465-1.635.913.913 0 0 0-.029-.31l-.012-.032h-.013l-.026-.007a.843.843 0 0 0-.271-.007 3.327 3.327 0 0 0-1.047.341l-.1.051c-1.1.562-2.727.3-4.867-.518-.611-.232-1.25-.506-1.907-.814-.737-.345-1.46-.714-2.139-1.082l-.275-.151-.256-.149-.246-.14-.112-.06a.916.916 0 0 1-.109-.076l-.05-.044-2.036-1.9-.026-.006c-.08-.02-.166-.039-.26-.059l-.1-.019a7.075 7.075 0 0 0-3.719.214c-1.855.671-3.2 2.256-3.858 5.1q-.008.034-.018.067a7.316 7.316 0 0 0 .545 5.793 7.431 7.431 0 0 0 .615.971l.075.1c.07.089.124.153.157.19l.04.044.445.517c.218.251.432.487.671.739a26.219 26.219 0 0 0 2.293 2.127 51.5 51.5 0 0 0 9.661 6.109l.227.114.124.043.141.046.067.021-.117-.116-.084-.075a24.247 24.247 0 0 0-2.589-2.187.919.919 0 0 1 1.075-1.493 26.06 26.06 0 0 1 2.784 2.35l.168.163c1.2 1.176 1.656 1.95 1.27 2.744a1.293 1.293 0 0 1-1.223.705 3.973 3.973 0 0 1-.964-.1c-.191-.04-.389-.09-.591-.148l-.181-.053c-.232-.07-.427-.136-.56-.186a.914.914 0 0 1-.091-.04 53.807 53.807 0 0 1-10.285-6.477A28.048 28.048 0 0 1 3.415 17c-.207-.218-.4-.426-.585-.638l-.574-.662-.012-.013c-.075-.082-.177-.2-.3-.36l-.053-.07a9.264 9.264 0 0 1-.769-1.212A9.131 9.131 0 0 1 .4 6.989l.038-.125.03-.13C1.261 3.443 2.977 1.42 5.33.523z" class="cls-1"/>
                <path id="Path-8" d="M0 0c1.436 1.074 7.484 4.479 8.919 6.657S8.553 9.54 3.391 5.8" class="cls-3" transform="translate(15.675 14.255)"/>
                <path id="Path_2_2" d="M.181.371A.914.914 0 0 1 1.416.149l.127.09c.609.422 3.526 2.282 4.343 2.831l.418.283c.476.326.916.637 1.323.938A12.552 12.552 0 0 1 10.6 7.069a2.875 2.875 0 0 1 .609 1.958 1.519 1.519 0 0 1-1.683 1.261C8.273 10.262 6.3 9.3 3.771 7.464a.919.919 0 0 1 1.072-1.492l.269.193A13.959 13.959 0 0 0 9.21 8.4l.054.012-.026-.048c-.038-.064-.078-.14-.128-.219l-.039-.06A11.352 11.352 0 0 0 6.54 5.773c-.44-.328-.932-.673-1.47-1.036L4.716 4.5C3.714 3.836.769 1.958.369 1.658A.923.923 0 0 1 .181.371z" class="cls-1" transform="translate(14.759 13.335)"/>
                <path id="Path-9" d="M2.413 0c.153.276 10.049 5.644 9.408 7.055C11.3 8.221 9.9 8.283 4.4 4.785L0 1.718" class="cls-3" transform="translate(11.032 16.586)"/>
                <path id="Path_2_3" d="M2.885.116a.914.914 0 0 1 1.041.1l.037.033.107.071.308.193c.161.1.361.22.71.43l1.2.72c.867.524 1.473.9 2.158 1.333l.1.063q.509.324.971.63l.228.152a25.747 25.747 0 0 1 2.644 1.968l.09.08c1.013.916 1.48 1.628 1.1 2.458-.486 1.091-1.484 1.486-2.9 1.131a21.917 21.917 0 0 1-5.532-2.79l-.323-.2-.032-.022L.394 3.394a.919.919 0 0 1 1-1.542l.047.031L5.823 4.94l.135.086a22.174 22.174 0 0 0 5.094 2.654l.063.016a1.443 1.443 0 0 0 .619.082h.012l-.009-.011a4.463 4.463 0 0 0-.422-.438l-.07-.064a22.419 22.419 0 0 0-2.381-1.792l-.142-.1q-.437-.292-.92-.6l-.245-.157c-.713-.454-1.325-.833-2.224-1.376L3.384 2.066l-.214-.133c-.092-.058-.167-.107-.228-.149l-.143-.1a.917.917 0 0 1-.271-.312.922.922 0 0 1 .357-1.256z" class="cls-1" transform="translate(10.116 15.666)"/>
            </g>
            <g id="hand_16_" transform="translate(76.792 114.124)">
                <path id="Path-10" d="M4.08 13.191c-4.827 1.564-4.674-.706-3.086-1.718 1.986-1.258 10.539-4.51 10.539-4.51s-6.017-.092-6.384-3.62S6.432-.337 8.173 1.38s9.377-.092 9.377-.092L20.269 0s7.789-.061 7.178 8.375a8.31 8.31 0 0 1-3.91 7.117c-1.13.706-5.254 3.589-15.945 5.338 0 0-4.857.245-.611-1.871a28.029 28.029 0 0 1 3.238-1.35" class="cls-3" transform="translate(.928 .92)"/>
                <path id="Path_2_4" d="M21.124 0h.159c.083 0 .189.007.315.015.278.02.583.055.909.11a9.355 9.355 0 0 1 2.713.885c2.757 1.414 4.332 4.1 4.08 8.192l-.009.13v.129a9.081 9.081 0 0 1-2.078 5.739l-.094.113a9.421 9.421 0 0 1-1.49 1.42c-.235.179-.435.314-.588.407l-.109.064-.32.2c-.172.109-.325.2-.491.3-.449.27-.921.534-1.452.806a34.209 34.209 0 0 1-5.048 2.046 61.413 61.413 0 0 1-8.953 2.1l-.05.007h-.051l-.137.005a10.33 10.33 0 0 1-1.163-.028 4.367 4.367 0 0 1-.971-.177 1.346 1.346 0 0 1-1.011-.963c-.231-.958.52-1.6 2.215-2.447a28.506 28.506 0 0 1 3.343-1.394.92.92 0 0 1 .61 1.736A26.764 26.764 0 0 0 8.317 20.7l-.2.1-.06.031h.133l.236-.005.291-.048a59.594 59.594 0 0 0 8.083-1.886l.257-.082a32.4 32.4 0 0 0 4.779-1.934c.492-.251.927-.494 1.34-.743.115-.069.224-.137.34-.209l.464-.293.1-.062.055-.035c.113-.072.242-.162.382-.269a7.6 7.6 0 0 0 1.2-1.143 7.249 7.249 0 0 0 1.736-4.666v-.228c.249-3.436-.93-5.478-3.075-6.578a7.553 7.553 0 0 0-2.178-.709c-.221-.037-.429-.063-.62-.08l-.166-.012h-.028L18.87 3.041a.914.914 0 0 1-.119.047l-.062.017-.167.038-.351.076-.1.021c-.477.1-1 .2-1.548.293-.976.165-1.934.292-2.838.364-2.508.2-4.288-.011-5.228-.939a3.529 3.529 0 0 0-.982-.727.847.847 0 0 0-.261-.076h-.04l-.021.027a.91.91 0 0 0-.12.287 4.989 4.989 0 0 0-.046 1.7c.11 1.056 1 1.815 2.548 2.306a10.954 10.954 0 0 0 2.03.42c.2.023.38.04.549.051l.124.008c.1.006.175.009.217.01h.019a.921.921 0 0 1 .362 1.76l-1.378.533-.375.147c-1.118.437-2.236.884-3.3 1.318l-.715.3-.8.337a33.8 33.8 0 0 0-3.854 1.811 1.585 1.585 0 0 0-.509.5l-.01.018a1.621 1.621 0 0 0 .307.038h.077a8.207 8.207 0 0 0 2.448-.49.92.92 0 0 1 .563 1.752c-2.522.818-4.219.795-4.967-.222-.758-1.031-.1-2.381 1.111-3.15l.117-.072a39.509 39.509 0 0 1 4.3-2.009l.79-.329c.6-.249 1.224-.5 1.858-.756l.522-.209-.035-.011c-2.128-.675-3.565-1.878-3.808-3.765l-.012-.106C4.956 2.34 5.324.974 6.422.476c1.017-.46 2.191.053 3.321 1.168.412.406 1.828.574 3.8.417.844-.067 1.751-.187 2.677-.344.525-.089 1.024-.184 1.479-.28l.267-.057.211-.047L20.806.088A.913.913 0 0 1 21.124 0z" class="cls-1"/>
                <path id="Path-11" d="M11.352 0C9.642.583 2.891 2.025.845 3.681c-2.016 1.626-.52 2.884 5.528.859" class="cls-3" transform="translate(1.139 11.81)"/>
                <path id="Path_2_5" d="M11.975.049a.92.92 0 0 1 .639 1.724l-.05.019c-.447.152-4.226 1.167-5.383 1.515l-.481.148a15.106 15.106 0 0 0-4.364 1.864c-.1.08-.183.155-.252.222l-.033.033h.01a13.661 13.661 0 0 0 4.793-.938L7 4.588a.92.92 0 0 1 .58 1.746l-.332.109c-2.792.905-4.848 1.188-6.01.839A1.531 1.531 0 0 1 .019 5.565a2.848 2.848 0 0 1 1.168-1.68A16.846 16.846 0 0 1 6.472 1.6l.387-.116c1.278-.374 4.284-1.185 5-1.4z" class="cls-1" transform="translate(.222 10.89)"/>
                <path id="Path-12" d="M11.09 0C10.846.215-.181 2.362 0 3.9c.153 1.258 1.5 1.749 7.759.061l5.1-1.626" class="cls-3" transform="translate(2.837 14.724)"/>
                <path id="Path_2_6" d="M11.645.076a.919.919 0 0 1 .968 1.537l-.065.056a1.013 1.013 0 0 1-.468.207l-.534.137-2.246.542c-.776.189-1.4.345-2.014.508l-.583.156a31.969 31.969 0 0 0-3.911 1.264A6.136 6.136 0 0 0 2 4.876l-.067.043h.005a1.333 1.333 0 0 0 .556.1h.068a21.209 21.209 0 0 0 5.7-1l.154-.042L13.5 2.375a.915.915 0 0 1 1.133.548l.018.051a.921.921 0 0 1-.545 1.138l-.051.018-5.1 1.626-.04.012-.546.145a21.108 21.108 0 0 1-5.917.958C1 6.781.155 6.108.012 4.926-.1 3.978.6 3.43 1.979 2.831l.1-.042A32.375 32.375 0 0 1 6.028 1.5l.672-.187c.826-.219 1.636-.421 2.781-.7L11.22.2l.252-.066.14-.04z" class="cls-1" transform="translate(1.918 13.804)"/>
            </g>
        </g>
        <path id="Trazado_1082" fill="rgba(210,97,97,0.11)" d="M167.267 2.351c40.254-17.964 36.867 71.725 35.353 109.6s-30.887 55.089-78.4 56.918S.117 130.017 0 89.867 127.012 20.315 167.267 2.351z" transform="rotate(-161.99 145.527 97.947)"/>
    </g>
</svg>
