<svg xmlns="http://www.w3.org/2000/svg" width="305.943" height="240.995" viewBox="0 0 305.943 240.995">
    <defs>
        <style>
            .cls-1{fill:#6a1818}.cls-2{fill:#fff}.cls-3{fill:#d56060}.cls-4{fill:#a7a7a7}
        </style>
    </defs>
    <g id="Grupo_651" transform="translate(-832.03)">
        <g id="team_at_work_solid" transform="translate(832.453 102.236)">
            <g id="team_at_work_solid-2" transform="translate(-.423 .067)">
                <g id="team_at_work_solid-3">
                    <g id="cap_man_1_" transform="translate(40.637 4.163)">
                        <path id="shirt" d="M56.928 53.67c-.57-6.727-5.263-16.422-6.312-25.693 7.066-6.617-.57-25.914-4.784-26.117A86.13 86.13 0 0 0 31.111.053a109.07 109.07 0 0 0-18.788 1.124C1.816 6.375-3.889 36.934 3.03 42.961a22.836 22.836 0 0 0 6 3.354c-.221 2.58-.368 5.161-.368 7.557z" class="cls-1" transform="translate(0 34.036)"/>
                        <path id="neck_12_" d="M.007 9.142L1.534 0l11.409 4.294.423 6.506C11.82 22.136-.325 11.151.007 9.142z" class="cls-2" transform="translate(23.283 26.016)"/>
                        <path id="neck_13_" d="M9.74 16.963a7.915 7.915 0 0 1-3.453-.939 15.434 15.434 0 0 1-2.345-1.46 17.975 17.975 0 0 1-2.065-1.8 10.229 10.229 0 0 1-1.428-1.769A2.222 2.222 0 0 1 .012 9.6L1.539.462a.551.551 0 0 1 .739-.426L13.687 4.33a.553.553 0 0 1 .357.482l.423 6.506a.55.55 0 0 1 0 .111 9.083 9.083 0 0 1-1.084 3.441 4.17 4.17 0 0 1-2.047 1.8 4.322 4.322 0 0 1-1.596.293zM2.517 1.307L1.1 9.785A5.267 5.267 0 0 0 2.572 11.9l.108.111a16.005 16.005 0 0 0 4.1 3.025 6.921 6.921 0 0 0 2.974.842 3.1 3.1 0 0 0 1.314-.273 2.96 2.96 0 0 0 1.052-.838 4.924 4.924 0 0 0 .773-1.431 10.124 10.124 0 0 0 .477-2.054l-.008.054-.4-6.093L2.517 1.307z" class="cls-1" transform="translate(22.734 25.463)"/>
                        <g id="head_12_" transform="translate(10.44)">
                            <path id="hair_back_1_" d="M5.675.2s-8.741 5.488-4.527 10.668c0 0 1.9 2.175 3.441 1.751 0 0-1.141-1.843.184-2.783 0 0 .386 5.511 4.895 4.405a8.261 8.261 0 0 1-1.2-5.364C9.41 2.758 8.012-.91 5.675.2z" class="cls-1" transform="translate(23.037 8.606)"/>
                            <path id="face_14_" d="M.093 12.787S-1.581 2.042 9.275.18c1.012-.166 7.949-1.216 9.219 4.553a47.219 47.219 0 0 1 .9 11.28c0 .018-.11 6.138-2.521 9.529s-7.763 3.078-10.579 1.4c-2.834-1.677-3.349-2.544-4.14-4.534s-2.061-9.6-2.061-9.6z" class="cls-2" transform="translate(10.493 4.695)"/>
                            <path id="face_15_" d="M11.639 29.271a11.038 11.038 0 0 1-2.7-.342 9.1 9.1 0 0 1-2.364-.957 11.648 11.648 0 0 1-2.848-2.12A8.5 8.5 0 0 1 2.2 23.166l-.02-.05a19.867 19.867 0 0 1-.68-2.435l-.084-.372c-.121-.539-.249-1.146-.381-1.8l-.065-.338C.82 17.417.665 16.6.509 15.74l-.128-.71-.139-.786-.129-.75L.1 13.42v-.033l-.016-.117-.01-.088-.016-.157-.015-.173a13.539 13.539 0 0 1 .922-6.163 10.568 10.568 0 0 1 1.32-2.334 9.761 9.761 0 0 1 1.886-1.893 10.99 10.99 0 0 1 2.477-1.4 14.668 14.668 0 0 1 3.1-.869A13.8 13.8 0 0 1 11.5.011C11.685 0 11.869 0 12.049 0a11.441 11.441 0 0 1 2.414.244 6.971 6.971 0 0 1 3.329 1.634 6.187 6.187 0 0 1 1.8 3.289l.049.229a41.224 41.224 0 0 1 .755 5.46 53.079 53.079 0 0 1 .11 5.729v.042c0 .174-.022.543-.051.943l-.021.26c-.065.783-.163 1.566-.291 2.328a15.22 15.22 0 0 1-2.259 6.258 6.342 6.342 0 0 1-2.36 2 8.351 8.351 0 0 1-3.191.829c-.233.018-.462.026-.694.026zm.41-28.165c-.166 0-.336 0-.505.01a12.785 12.785 0 0 0-1.422.132l-.2.031a13.6 13.6 0 0 0-2.822.785 9.9 9.9 0 0 0-2.237 1.259 8.668 8.668 0 0 0-1.694 1.7 9.463 9.463 0 0 0-1.183 2.088 11.7 11.7 0 0 0-.773 2.943 13.065 13.065 0 0 0-.059 2.822l.018.183.012.105.016.119v.023l.172 1 .152.852c.2 1.126.4 2.179.594 3.13.108.534.212 1.032.31 1.48l.1.447a19.858 19.858 0 0 0 .7 2.544 7.509 7.509 0 0 0 1.3 2.331 9.958 9.958 0 0 0 2.437 1.828l.177.105a8 8 0 0 0 2.09.841 9.92 9.92 0 0 0 2.414.3c.208 0 .416-.007.619-.021a7.269 7.269 0 0 0 2.742-.7 5.258 5.258 0 0 0 1.984-1.67 10.234 10.234 0 0 0 1.259-2.538 19.938 19.938 0 0 0 .811-3.263c.134-.795.233-1.612.3-2.43.029-.374.047-.733.052-.909v-.088a51.869 51.869 0 0 0-.116-5.723 39.568 39.568 0 0 0-.784-5.422l-.02-.086a5.706 5.706 0 0 0-.575-1.511A4.633 4.633 0 0 0 17 2.654a5.074 5.074 0 0 0-1.237-.82 7.061 7.061 0 0 0-1.534-.51 10.333 10.333 0 0 0-2.18-.218z" class="cls-1" transform="translate(9.936 4.142)"/>
                            <path id="nose_12_" d="M1.288.011a.552.552 0 0 1 .644.4l.007.032L2.951 5.4a.553.553 0 0 1-.508.663H.552a.553.553 0 0 1-.032-1.1h1.214L.858.664a.553.553 0 0 1 .4-.645z" class="cls-1" transform="translate(24.019 17.759)"/>
                            <ellipse id="eye_II_11_" cx=".848" cy=".552" class="cls-1" rx=".848" ry=".552" transform="rotate(-89.4 23.024 -4.332)"/>
                            <path id="eye_11_" d="M.847 0c.468 0 .848.247.848.552S1.316 1.1.848 1.1 0 .856 0 .551.379 0 .847 0z" class="cls-1" transform="rotate(-78.662 22.26 -3.953)"/>
                            <path id="brow_II_12_" d="M.717.632A2.991 2.991 0 0 1 2.954.024a.553.553 0 0 1-.129 1.1 1.9 1.9 0 0 0-1.434.386 2.019 2.019 0 0 0-.3.278l-.037.045-.016.02-.026.035a.552.552 0 1 1-.927-.6l.03-.044c.037-.05.085-.111.145-.18A3.118 3.118 0 0 1 .717.632z" class="cls-1" transform="translate(19.051 13.076)"/>
                            <path id="brow_14_" d="M.821.174A3.784 3.784 0 0 1 2.134.007 2.018 2.018 0 0 1 3.7.826a.552.552 0 0 1-.872.677l-.018-.028a.936.936 0 0 0-.75-.365 2.731 2.731 0 0 0-.928.125c-.073.022-.142.044-.205.067l-.083.031-.065.027A.553.553 0 0 1 .325.352L.383.326A4.322 4.322 0 0 1 .821.174z" class="cls-1" transform="translate(26.172 12.388)"/>
                            <path id="hair_front_1_" d="M17.279 1.316s4.1 14.413-5.465 15.888c0 0-5.576 1-6.845-.977 0 0 4.03-2.156 3.533-4.46 0 0-4.545 4.995-8.5 1.4 0 0 6.588-1.106 6.017-7.041-.425-4.276 9.788-8.275 11.26-4.81z" class="cls-1" transform="translate(1.827 8.149)"/>
                            <path id="cap_7_" d="M1.606 11.492l5.833-.885C8.047 6.682 10.329 1.042 18.37.12 30.938-1.336 31.325 10.9 31.325 10.9L2.2 15.252a1.9 1.9 0 0 1-.589-3.76z" class="cls-3"/>
                            <path id="mouth_5_" d="M.336.044a.552.552 0 0 1 .711.263l.022.045v.01c.019.036.044.079.074.126A2.122 2.122 0 0 0 1.5.9a2.745 2.745 0 0 0 2.39.563.553.553 0 0 1 .168 1.093 3.833 3.833 0 0 1-3.3-.836 3.222 3.222 0 0 1-.538-.628A2.195 2.195 0 0 1 .044.77.553.553 0 0 1 .336.044z" class="cls-1" transform="translate(20.909 23.989)"/>
                        </g>
                        <path id="puzzle_2_" d="M36.1 10.985V4.663A4.653 4.653 0 0 0 31.448 0h-1.822a11.581 11.581 0 0 1-11.574 11.593A11.57 11.57 0 0 1 6.477 0H4.656A4.653 4.653 0 0 0 0 4.663v33.674A4.653 4.653 0 0 0 4.656 43H31.43a4.653 4.653 0 0 0 4.656-4.663v-4.184a11.584 11.584 0 0 0 .014-23.168z" class="cls-4" transform="translate(24.265 36.154)"/>
                        <g id="handII_2_" transform="translate(45.206 69.316)">
                            <path id="Path" d="M10.137 4.7C10.119 4.628 6.07-.109 5.941 0S.274 2.582.145 2.785a2.954 2.954 0 0 0 .221 2.341c.552 1.032 1.178 3.41 3.68 3.594 2.503.203 6.091-4.02 6.091-4.02z" class="cls-2" transform="translate(1.842 3.551)"/>
                            <path id="Path-2" d="M.15 4.094S-.329.832.426.058s4.968 6.451 6.422 6.949" class="cls-2" transform="translate(4.451 .564)"/>
                            <path id="Path_2_" d="M.583.236c.351-.36.78-.273 1.2.026a5.2 5.2 0 0 1 .808.773l.132.15c.374.432.694.838 1.415 1.794l.872 1.16C6.411 6 7.192 6.9 7.562 7.042l.016.006a.553.553 0 0 1-.357 1.046l-.05-.018c-.664-.255-1.4-1.1-2.988-3.194L3 3.308c-.528-.7-.8-1.042-1.111-1.4l-.07-.08a6.394 6.394 0 0 0-.519-.535l-.05-.043a4.685 4.685 0 0 0-.15 1.24v.071c0 .444.025.924.072 1.4l.029.279.028.232.014.1a.552.552 0 1 1-1.092.161l-.02-.181-.022-.181C.1 4.276.088 4.177.077 4.073.027 3.558 0 3.042 0 2.556A3.36 3.36 0 0 1 .583.236z" class="cls-1" transform="translate(3.899)"/>
                            <path id="Path-3" d="M.366 3.655S-.646 1.277.7.134C2.022-1.009 5.316 5.5 6.751 6.327" class="cls-2" transform="translate(1.99 1.575)"/>
                            <path id="Path_2_2" d="M.889.281C1.495-.241 2.206 0 2.97.7a13.973 13.973 0 0 1 1.674 1.981L4.879 3l.208.289.754 1.05c1.09 1.509 1.408 1.884 1.738 2.075a.553.553 0 0 1-.552.958l-.092-.055C6.43 7 6.1 6.594 4.682 4.621l-.6-.831-.2-.269-.13-.177a13.175 13.175 0 0 0-1.527-1.826 1.823 1.823 0 0 0-.553-.384l-.048-.016h-.016a1.509 1.509 0 0 0-.494 1.084 3.9 3.9 0 0 0 .154 1.322c.029.1.059.2.09.292l.04.113.028.071a.552.552 0 1 1-1.016.437 5.142 5.142 0 0 1-.21-.616 4.96 4.96 0 0 1-.19-1.706A2.591 2.591 0 0 1 .889.281z" class="cls-1" transform="translate(1.437 1.009)"/>
                            <path id="Path-4" d="M.932 5.26S-.761 1 .417.1s3.11 4.625 5.41 5.9" class="cls-2" transform="translate(.835 2.698)"/>
                            <path id="Path_2_3" d="M.639.214a1.031 1.031 0 0 1 1.188-.05 3.069 3.069 0 0 1 .835.784l.082.1c.193.25.4.547.656.938l.9 1.387.119.181a7.646 7.646 0 0 0 2.232 2.513.553.553 0 0 1-.534.968 8.555 8.555 0 0 1-2.678-2.952l-.259-.4c-.234-.363-.567-.88-.648-1l-.1-.15c-.255-.385-.453-.666-.634-.892a2.362 2.362 0 0 0-.492-.5l-.031-.019-.011.012a2.825 2.825 0 0 0-.039 1.837l.014.071c.077.392.183.811.312 1.243.082.277.17.546.258.8l.053.15.063.174.075.2a.552.552 0 1 1-1.026.409l-.041-.112-.086-.232-.023-.065C.712 5.295.6 4.955.495 4.6.357 4.138.242 3.686.158 3.256-.128 1.8-.058.748.639.214z" class="cls-1" transform="translate(.277 2.144)"/>
                            <path id="Path-5" d="M10.452 6.783a4.606 4.606 0 0 0-.276-2.728A11.124 11.124 0 0 1 9.219.867C9.146-.626 11.575.074 11.685 1s.57.866 1.638 1.825.865 4.7.865 4.7.938 1.935-2.079 4.239a5.984 5.984 0 0 1-6.257.516S0 10.119 0 5.9s1.546 1.934 4.472 3.666" class="cls-2" transform="translate(.552 .622)"/>
                            <path id="Path_2_4" d="M9.22 1.447C9.166.36 10.009-.139 11.027.033a2 2 0 0 1 1.758 1.449.665.665 0 0 0 .229.508l.027.024c-.007-.006.818.6 1.2.947a4.089 4.089 0 0 1 .967 2.586 16.1 16.1 0 0 1 .092 2.19V8q.014.041.027.089l.013.049a3.132 3.132 0 0 1-.118 1.853 6.229 6.229 0 0 1-2.229 2.764 6.644 6.644 0 0 1-.632.428 6.27 6.27 0 0 1-5.33.5 5.891 5.891 0 0 1-.827-.335l-.031-.016-.119-.047-.116-.048c-.209-.088-.442-.193-.691-.315a14 14 0 0 1-2.094-1.252C1.2 10.243 0 8.508 0 6.451a3.8 3.8 0 0 1 .2-1.6.691.691 0 0 1 .808-.384 1.036 1.036 0 0 1 .522.369c.246.286 1.42 2.218 1.7 2.624A7.15 7.15 0 0 0 5.3 9.643a.553.553 0 0 1-.562.952A7.934 7.934 0 0 1 2.393 8.2l-.074-.108c-.2-.289-.694-1.093-1.091-1.721l-.121-.191v.268c0 1.636 1 3.085 2.7 4.324a12.909 12.909 0 0 0 1.929 1.153c.2.1.382.181.551.254l.083.035.135.055.094.037a.552.552 0 0 1 .051.022l.067.035c.031.016.075.036.131.062a5.491 5.491 0 0 0 .535.206 5.2 5.2 0 0 0 4.421-.4 5.539 5.539 0 0 0 .527-.357 5.168 5.168 0 0 0 1.858-2.254 2.038 2.038 0 0 0 .091-1.2l-.012-.042a.6.6 0 0 0-.02-.06.554.554 0 0 1-.055-.271l.005-.121v-.062a15.244 15.244 0 0 0-.082-2.184 3.421 3.421 0 0 0-.607-1.892l-.055-.048c-.36-.311-1.092-.851-1.128-.882a1.749 1.749 0 0 1-.635-1.24c-.017-.14-.406-.416-.846-.491-.4-.068-.533.009-.52.272a9.678 9.678 0 0 0 .83 2.8l.081.193a5.159 5.159 0 0 1 .311 3.057.552.552 0 1 1-1.083-.217 4.064 4.064 0 0 0-.21-2.332l-.128-.3a10.3 10.3 0 0 1-.906-3.153z" class="cls-1" transform="translate(0 .069)"/>
                        </g>
                        <g id="hand_15_" transform="translate(21.144 69.316)">
                            <path id="Path-6" d="M0 4.7C.018 4.628 4.067-.109 4.2 0S9.868 2.58 10 2.783a2.955 2.955 0 0 1-.221 2.341c-.552 1.032-1.178 3.41-3.68 3.594C3.588 8.923 0 4.7 0 4.7z" class="cls-2" transform="translate(3.434 3.551)"/>
                            <path id="Path-7" d="M6.7 4.094S7.177.832 6.422.058 1.454 6.509 0 7.007" class="cls-2" transform="translate(4.115 .564)"/>
                            <path id="Path_2_5" d="M6.171.262c.419-.3.847-.386 1.2-.026a3.36 3.36 0 0 1 .583 2.32c0 .486-.027 1-.077 1.517l-.021.2-.011.1-.034.28-.012.088A.552.552 0 1 1 6.7 4.578l.014-.1.008-.063c.017-.135.034-.286.05-.448.047-.48.074-.961.072-1.4A5.062 5.062 0 0 0 6.711 1.3L6.7 1.25l-.015.013a5.682 5.682 0 0 0-.5.512l-.166.19c-.343.4-.664.81-1.367 1.743l-.883 1.173C2.144 7.032 1.408 7.862.731 8.094a.553.553 0 0 1-.388-1.035l.03-.011C.737 6.923 1.52 6.025 2.944 4.14l.778-1.04c.788-1.043 1.119-1.464 1.509-1.915L5.3 1.1a5.472 5.472 0 0 1 .871-.838z" class="cls-1" transform="translate(3.562)"/>
                            <path id="Path-8" d="M6.385 3.655S7.4 1.277 6.054.134C4.729-1.009 1.435 5.5 0 6.327" class="cls-2" transform="translate(6.672 1.575)"/>
                            <path id="Path_2_6" d="M4.886.7C5.649 0 6.361-.241 6.964.279a2.592 2.592 0 0 1 .879 1.837 4.96 4.96 0 0 1-.19 1.706 5.142 5.142 0 0 1-.207.616.552.552 0 0 1-1.027-.4l.04-.1.017-.047c.038-.106.077-.226.113-.357a3.9 3.9 0 0 0 .154-1.322 1.53 1.53 0 0 0-.456-1.051l-.044-.039s-.012 0-.058.018a1.823 1.823 0 0 0-.553.384 13.652 13.652 0 0 0-1.6 1.914l-.261.359-.929 1.286C1.627 6.765 1.346 7.073.828 7.373a.553.553 0 0 1-.552-.958L.3 6.4c.344-.209.7-.645 1.939-2.374l.526-.734L2.976 3l.1-.134A14.937 14.937 0 0 1 4.886.7z" class="cls-1" transform="translate(6.12 1.009)"/>
                            <path id="Path-9" d="M4.895 5.26S6.588 1 5.41.1 2.3 4.725 0 6" class="cls-2" transform="translate(8.752 2.698)"/>
                            <path id="Path_2_7" d="M5.109.164A1.031 1.031 0 0 1 6.3.214c.7.534.767 1.584.481 3.042-.084.43-.2.882-.337 1.346-.09.3-.185.6-.282.871l-.048.136c-.032.088-.061.17-.089.243l-.064.166a.552.552 0 1 1-1.026-.409l.037-.1.059-.158.043-.119c.106-.3.212-.617.311-.95.129-.432.235-.851.312-1.243l.028-.149a2.711 2.711 0 0 0-.055-1.755l-.01-.012h-.007a2.034 2.034 0 0 0-.476.462l-.04.049-.069.087c-.162.21-.342.468-.565.8l-.183.281c-.2.3-.617.959-.757 1.172l-.129.2A8.341 8.341 0 0 1 .819 7.035a.553.553 0 0 1-.534-.968A7.646 7.646 0 0 0 2.52 3.558l.2-.306c.22-.339.661-1.026.759-1.177l.11-.168c.268-.4.481-.706.683-.96a3.069 3.069 0 0 1 .837-.783z" class="cls-1" transform="translate(8.2 2.144)"/>
                            <path id="Path-10" d="M3.873 6.783a4.606 4.606 0 0 1 .277-2.728A11.124 11.124 0 0 0 5.106.867C5.18-.626 2.751.074 2.641 1S2.07 1.862 1 2.82s-.862 4.7-.862 4.7-.938 1.936 2.079 4.239a5.984 5.984 0 0 0 6.257.516s5.852-2.156 5.852-6.377-1.546 1.936-4.472 3.668" class="cls-2" transform="translate(.554 .622)"/>
                            <path id="Path_2_8" d="M4.4.033c1.023-.172 1.865.327 1.812 1.41A10.307 10.307 0 0 1 5.3 4.6l-.094.224a4.052 4.052 0 0 0-.241 2.4.552.552 0 1 1-1.083.217 5.165 5.165 0 0 1 .271-2.961l.12-.286a9.68 9.68 0 0 0 .832-2.805c.013-.26-.117-.337-.52-.268-.44.075-.829.351-.846.491a1.747 1.747 0 0 1-.592 1.2l-.043.038c-.038.032-.849.631-1.183.93a3.422 3.422 0 0 0-.607 1.892A15.035 15.035 0 0 0 1.232 7.7l.006.221c0 .056 0 .1.005.121a.554.554 0 0 1-.038.235l-.016.037a.852.852 0 0 0-.032.1 2.038 2.038 0 0 0 .091 1.2 5.168 5.168 0 0 0 1.858 2.254 5.54 5.54 0 0 0 .527.357 5.2 5.2 0 0 0 4.421.4c.172-.057.328-.116.467-.176l.068-.03c.078-.035.133-.062.162-.077l.011-.006a.552.552 0 0 1 .05-.024l.081-.031.126-.051.048-.02c.191-.08.4-.176.634-.289a12.909 12.909 0 0 0 1.929-1.153c1.7-1.24 2.7-2.688 2.7-4.324v-.269l-.33.519c-.322.513-.664 1.062-.844 1.333l-.041.061a8.113 8.113 0 0 1-2.426 2.512.553.553 0 0 1-.562-.952A7.15 7.15 0 0 0 12.2 7.463l.036-.053c.33-.5 1.425-2.3 1.661-2.57a1.036 1.036 0 0 1 .522-.369.691.691 0 0 1 .808.384 3.8 3.8 0 0 1 .2 1.6c0 2.057-1.2 3.791-3.153 5.218a14 14 0 0 1-2.094 1.253c-.25.122-.482.227-.691.315l-.149.061-.086.034-.031.016-.079.039a6.083 6.083 0 0 1-.677.272l-.071.024a6.27 6.27 0 0 1-5.33-.5 6.643 6.643 0 0 1-.632-.428A6.229 6.229 0 0 1 .208 9.988a3.132 3.132 0 0 1-.119-1.853Q.1 8.084.116 8.04l.019-.06v-.086a16.3 16.3 0 0 1 .087-2.346 4.089 4.089 0 0 1 .967-2.586l.084-.074c.408-.351 1.124-.879 1.117-.873a.666.666 0 0 0 .257-.532A2 2 0 0 1 4.4.033z" class="cls-1" transform="translate(0 .069)"/>
                        </g>
                    </g>
                    <g id="woman" transform="translate(120.677 .555)">
                        <g id="body" transform="translate(3.528 31.897)">
                            <path id="shape_5_" d="M13.617 6.906L1.325 4.953 0 .769C2.3-.687 10.029-.005 16.064 2.225l-2.447 4.681" class="cls-1" transform="translate(25.013)"/>
                            <path id="shape" fill="#d12121" d="M58.8 29.416L49.652 8a4.992 4.992 0 0 0-3.312-2.71 7.281 7.281 0 0 0-2.447-.645l-3.11-.258.276-2.931s-.423 1.051-3.846 1.7C32.594 4.018 24.994 0 24.994 0v4.534l-4.711-.129c-2.024-.055-5.943-.221-8.225 4.295L1 36.512a9.878 9.878 0 0 0 2.317 11.649l6.459 3.576-.607 7.188 48.874-.166-.276-6.377C72.636 43.148 58.8 29.416 58.8 29.416z" transform="translate(0 .769)"/>
                            <g id="lines_2_" transform="translate(5.985 31.276)">
                                <path id="Path-11" d="M.231 2.294A10.665 10.665 0 0 1 6.93.008a8.693 8.693 0 0 1 4.53 1.532 9.587 9.587 0 0 1 1.305 1.055l.087.085a5.536 5.536 0 0 1 .384.416.552.552 0 0 1-.835.722l-.075-.087-.036-.04c-.081-.09-.179-.191-.293-.3a8.489 8.489 0 0 0-1.155-.933 7.6 7.6 0 0 0-3.96-1.344A9.58 9.58 0 0 0 .874 3.193a.553.553 0 0 1-.643-.9z" class="cls-2" transform="translate(0 3.501)"/>
                                <path id="Path-12" d="M.3 1.474A10.352 10.352 0 0 1 6.775.1a6.846 6.846 0 0 1 3.808 2.007 7.957 7.957 0 0 1 1.1 1.4c.106.172.2.333.273.482l.038.076c.029.058.051.1.07.149a.552.552 0 1 1-1.009.449 4.8 4.8 0 0 0-.311-.574 6.859 6.859 0 0 0-.943-1.2 5.751 5.751 0 0 0-3.2-1.693A9.286 9.286 0 0 0 .807 2.455.553.553 0 0 1 .3 1.474z" class="cls-2" transform="translate(1.251 1.46)"/>
                                <path id="Path-13" d="M6.581.08a10.385 10.385 0 0 1 7.133 1.932.553.553 0 0 1-.6.929 9.307 9.307 0 0 0-6.38-1.766 7.489 7.489 0 0 0-4 1.966A9.783 9.783 0 0 0 1.45 4.558c-.107.144-.2.279-.28.4l-.07.117c-.031.05-.052.086-.063.1a.552.552 0 1 1-.963-.541L.1 4.579A8.069 8.069 0 0 1 .563 3.9 10.88 10.88 0 0 1 1.99 2.322 8.575 8.575 0 0 1 6.581.08z" class="cls-2" transform="translate(40.814 2.036)"/>
                                <path id="Path-14" d="M1.859 2.613C3.959.514 6.922-.482 10.827.227a.553.553 0 0 1-.2 1.088C7.09.672 4.489 1.547 2.639 3.4a7.943 7.943 0 0 0-1.222 1.569c-.094.159-.174.308-.241.444l-.032.067-.059.13-.018.043a.552.552 0 1 1-1.03-.4l.027-.068a6.6 6.6 0 0 1 .4-.779 9.042 9.042 0 0 1 1.395-1.793z" class="cls-2" transform="translate(40.262)"/>
                            </g>
                        </g>
                        <g id="head">
                            <path id="neck_5_" d="M0 12.367V0l10.857 6.543L10.6 13.2z" class="cls-2" transform="translate(30.196 24.316)"/>
                            <path id="neck_6_" d="M11.152 14.3h-.044l-10.6-.829a.553.553 0 0 1-.508-.55V.554A.551.551 0 0 1 .837.08l10.856 6.543a.553.553 0 0 1 .267.5l-.26 6.649a.55.55 0 0 1-.548.528zM1.1 1.532V12.41l9.518.745.227-5.755z" class="cls-1" transform="translate(29.644 23.763)"/>
                            <g id="head_5_">
                                <path id="face_13_" d="M19.026 2.3C14.609-.757 10.635-1.881 4.4 6.118l-.85 5.271c-2.613-.793-3.993.5-3.423 2.783.607 2.47 2.043 3.576 4.416 2.931a10.447 10.447 0 0 0 7.287 6.414c6.257 1.364 7.692-2.525 8.391-4.036.679-1.549 3.221-14.119-1.195-17.181z" class="cls-2" transform="translate(25.542 8.743)"/>
                                <path id="face_14_2" d="M14.852 24.917a12.245 12.245 0 0 1-2.585-.3 10.294 10.294 0 0 1-2.409-.839 9.859 9.859 0 0 1-2.031-1.352 12.325 12.325 0 0 1-3-4.022l-.049-.1a4.949 4.949 0 0 1-.93.093C2.018 18.393.744 17.2.166 14.946l-.021-.083a4.126 4.126 0 0 1-.111-1.579 2.476 2.476 0 0 1 .485-1.189 2.265 2.265 0 0 1 .9-.689 3.218 3.218 0 0 1 1.281-.242 4.859 4.859 0 0 1 .875.084l.078.015.747-4.677a.547.547 0 0 1 .087-.22l.023-.032a31.413 31.413 0 0 1 2.226-2.575 18.105 18.105 0 0 1 2.112-1.88A10.861 10.861 0 0 1 10.883.661a7.5 7.5 0 0 1 1.985-.589A6.922 6.922 0 0 1 13.856 0c1.8 0 3.6.719 6.037 2.4 2.047 1.418 2.972 4.66 2.747 9.636a32.362 32.362 0 0 1-1.364 8.23l-.217.477c-.038.084-.075.161-.112.238l-.073.15a8.683 8.683 0 0 1-.636 1.092 6.6 6.6 0 0 1-.991 1.142 5.716 5.716 0 0 1-1.216.845 6.086 6.086 0 0 1-1.459.524 7.876 7.876 0 0 1-1.72.183zM5.1 17.106a.552.552 0 0 1 .5.329c1.493 3.377 3.814 5.428 6.9 6.1a11.221 11.221 0 0 0 2.362.282 6.7 6.7 0 0 0 1.446-.148 4.988 4.988 0 0 0 1.209-.432 4.925 4.925 0 0 0 1.812-1.637 7.618 7.618 0 0 0 .556-.956c.065-.13.127-.262.209-.441l.176-.386a31.855 31.855 0 0 0 1.257-7.622l.01-.2a19.4 19.4 0 0 0-.408-5.5 5.273 5.273 0 0 0-1.865-3.175c-2.232-1.546-3.854-2.206-5.424-2.206a5.712 5.712 0 0 0-.815.059 6.411 6.411 0 0 0-1.7.508 9.712 9.712 0 0 0-1.781 1.057A16.54 16.54 0 0 0 7.66 4.395a28.816 28.816 0 0 0-2.011 2.284l-.177.221-.824 5.13a.551.551 0 0 1-.673.45l-.032-.009a4.468 4.468 0 0 0-1.274-.217 2.017 2.017 0 0 0-.758.131 1.226 1.226 0 0 0-.516.382 2.117 2.117 0 0 0-.18 1.826A4.3 4.3 0 0 0 2.2 16.62a2.161 2.161 0 0 0 .741.5 2.452 2.452 0 0 0 .918.166 4.131 4.131 0 0 0 1.026-.144l.071-.019a.552.552 0 0 1 .144-.017z" class="cls-1" transform="translate(24.989 8.187)"/>
                                <g id="face_12_" transform="translate(38.937 15.335)">
                                    <path id="nose_5_" d="M1.7 0a.552.552 0 0 1 .61.459v.032l.534 4.718a.553.553 0 0 1-.528.615h-.027L.54 5.787a.553.553 0 0 1-.009-1.105h.033l1.117.023-.463-4.09a.553.553 0 0 1 .454-.607z" class="cls-1" transform="translate(1.785 4.797)"/>
                                    <ellipse id="eye_II_9_" cx=".534" cy=".811" class="cls-1" rx=".534" ry=".811" transform="translate(5.06 4.539)"/>
                                    <ellipse id="eye_9_" cx=".534" cy=".811" class="cls-1" rx=".534" ry=".811" transform="translate(0 4.447)"/>
                                    <path id="brow_12_" d="M.614.038a2.581 2.581 0 0 1 1.022.028A1.689 1.689 0 0 1 2.9 1.262a.552.552 0 0 1-1.045.356l-.01-.031a.594.594 0 0 0-.472-.447 1.524 1.524 0 0 0-.585-.01l-.044.008-.044.008H.693A.553.553 0 0 1 .41.079L.455.068C.5.059.55.048.614.038z" class="cls-1" transform="translate(4.655)"/>
                                    <path id="mouth_12_" d="M.006 0a7.291 7.291 0 0 0 3.11.369S2.583 2.82 1.2 2.525C-.159 2.212.006 0 .006 0z" class="cls-1" transform="translate(.086 11.046)"/>
                                </g>
                                <g id="hair_13_">
                                    <path id="Path-15" d="M21.529 5.387C18.714-.124 14.206-.6 9 .448 3.79 1.48.883 8.5.7 9.147a19.332 19.332 0 0 0 6.937 20.5c.7.535 1.38 1.069 2.043 1.585 3.68 2.875-4.472 5.345-4.472 5.345 15.585 1.249 12.181-14.377 11.85-15.763 5.005-1.898 7.084-10.303 4.471-15.427z" class="cls-1"/>
                                    <path id="Path-16" d="M13.806 6.9a2.471 2.471 0 0 1-3.2 1.4L1.569 4.779a2.477 2.477 0 0 1-1.4-3.207 2.471 2.471 0 0 1 3.2-1.4l9.035 3.52A2.477 2.477 0 0 1 13.806 6.9z" class="cls-3" transform="translate(16.114 9.4)"/>
                                    <path id="hair_14_" d="M26.367 12.2c-.055-3.834-.975-7.188-3.275-9.4a4.268 4.268 0 0 0-1.307-1.032A13.218 13.218 0 0 0 13.946.016a.479.479 0 0 0-.2.055 14.881 14.881 0 0 0-1.583.24 5.109 5.109 0 0 0-.846.2 16.969 16.969 0 0 0-2.723 1C.973 4.79-2.008 10.706 1.4 18.871c1.748 4.2 4.03 5.566 6.238 5.566v-2.543c-.184-.405-.5-.24-.5-.24-2.374.645-3.423-.5-4.048-2.967a2.38 2.38 0 0 1 .589-2.6c.018-.018.037-.018.055-.037s.055-.037.074-.055.037-.018.055-.037c.037-.018.055-.037.092-.055.018 0 .037-.018.055-.018a.311.311 0 0 1 .092-.037c.018 0 .037-.018.055-.018.037-.018.074-.018.11-.037.018 0 .018 0 .037-.018a2.5 2.5 0 0 1 .662-.092h.423c.055 0 .129.018.184.018h.018a6.205 6.205 0 0 1 .9.2c.2.055.055.147.276.24l.552-.037c.184 0 .386-.018.589-.037 4.8-.571 12.274-4.018 14.924-8.442 1.877 2.285 2.079 6.764 1.73 10.561a10.714 10.714 0 0 0 1.805-5.986z" class="cls-1" transform="translate(22.58 4.229)"/>
                                </g>
                                <path id="brow_11_" d="M.7.574A2.917 2.917 0 0 1 2.914.035a.553.553 0 0 1-.16 1.094 1.823 1.823 0 0 0-1.4.336 1.89 1.89 0 0 0-.276.247l-.032.036-.037.045v.005A.552.552 0 1 1 .1 1.172l.029-.041c.033-.045.079-.1.137-.164A2.989 2.989 0 0 1 .7.574z" class="cls-2" transform="translate(36.876 14.445)"/>
                            </g>
                        </g>
                        <path id="puzzle_1_" d="M36.347 18.868l-1.159-6.156a4.623 4.623 0 0 0-5.373-3.686l-1.767.332A11.459 11.459 0 1 0 5.524 13.6l-1.767.332a4.63 4.63 0 0 0-3.68 5.378l1.159 6.156a11.448 11.448 0 0 1 13.378 9.16 11.492 11.492 0 0 1-9.145 13.419l.773 4.073a4.623 4.623 0 0 0 5.373 3.682l26.056-4.921a4.63 4.63 0 0 0 3.68-5.382l-.773-4.073a11.477 11.477 0 0 1-4.232-22.56z" class="cls-4" transform="translate(15.858 31.068)"/>
                        <g id="handII_1_" transform="translate(14.184 71.359)">
                            <path id="Path-17" d="M12.77 10.663c2.484 1.769 2.815.424 2.079-.424A68.21 68.21 0 0 0 9.6 5.76s3.478 1.032 4.324-.922-.074-2.341-1.38-1.677-5.369-1.732-5.369-1.732L5.851.194a4.287 4.287 0 0 0-5.613 3.52 5.044 5.044 0 0 0 .975 4.792c.534.608 2.374 3 8.207 5.916 0 0 2.742 1.014.681-.958A15.147 15.147 0 0 0 8.482 12.1" class="cls-2" transform="translate(.556 .556)"/>
                            <path id="Path_2_9" d="M3.282.288A5.335 5.335 0 0 1 6.107.11l.1.02c.163.034.287.067.367.093a.552.552 0 0 1 .177.1l.031.027 1.28 1.193.08.046.137.077.231.127c.391.212.807.423 1.229.621.373.174.733.328 1.074.457l.145.054a3.187 3.187 0 0 0 1.9.305c.849-.431 1.615-.51 2.115-.061.54.485.505 1.334.021 2.452A2.708 2.708 0 0 1 12.45 7.13q-.126.008-.253.01h-.119l.221.18c.235.191.466.381.693.568l.354.294.363.3A22.087 22.087 0 0 1 15.8 10.4l.025.029c.561.646.7 1.545.078 2s-1.6.159-2.894-.765a.553.553 0 0 1 .64-.9 4.87 4.87 0 0 0 1.313.72 1.133 1.133 0 0 0 .205.043h.027v-.013a.876.876 0 0 0-.173-.331l-.032-.038a23.4 23.4 0 0 0-2.219-2.014l-.253-.211c-.588-.489-1.22-1-1.851-1.508L10.3 7.13l-.48-.379a.553.553 0 0 1 .467-.974l.114.031.053.014c.118.029.25.059.4.087a6.188 6.188 0 0 0 1.53.117 1.674 1.674 0 0 0 1.6-.852 2.986 2.986 0 0 0 .28-.982.547.547 0 0 0-.017-.186l-.007-.02h-.024a.509.509 0 0 0-.163 0 2.008 2.008 0 0 0-.631.2l-.062.031c-.665.338-1.643.178-2.932-.311-.368-.14-.753-.3-1.149-.489-.444-.207-.879-.429-1.288-.65L7.82 2.67l-.152-.085L7.52 2.5l-.068-.039a.552.552 0 0 1-.066-.046l-.03-.026-1.227-1.142h-.016c-.048-.012-.1-.024-.156-.035L5.9 1.2a4.273 4.273 0 0 0-2.243.132 3.824 3.824 0 0 0-2.325 3.063q0 .02-.011.04a4.386 4.386 0 0 0 .328 3.48 4.463 4.463 0 0 0 .371.585l.045.059c.042.054.075.092.095.114l.024.026.268.311c.131.151.26.293.4.444a15.779 15.779 0 0 0 1.385 1.276 31.037 31.037 0 0 0 5.82 3.671l.137.069.075.026.085.028.041.013-.071-.07-.05-.048a14.6 14.6 0 0 0-1.56-1.319.553.553 0 0 1 .648-.9 15.689 15.689 0 0 1 1.677 1.412l.1.1c.722.707 1 1.172.765 1.649a.779.779 0 0 1-.737.424 2.4 2.4 0 0 1-.581-.061c-.115-.024-.234-.054-.356-.089l-.109-.032c-.14-.042-.257-.082-.337-.112a.551.551 0 0 1-.055-.024 32.427 32.427 0 0 1-6.2-3.891 16.879 16.879 0 0 1-1.477-1.367c-.125-.131-.239-.256-.352-.384l-.346-.4-.007-.008c-.045-.049-.106-.122-.18-.217l-.027-.034a5.564 5.564 0 0 1-.463-.728A5.473 5.473 0 0 1 .239 4.2l.023-.075.018-.078A4.89 4.89 0 0 1 3.211.314z" class="cls-1"/>
                            <path id="Path-18" d="M0 0c.865.645 4.508 2.691 5.373 4s-.221 1.733-3.331-.516" class="cls-2" transform="translate(9.443 8.565)"/>
                            <path id="Path_2_10" d="M.109.223A.551.551 0 0 1 .853.089L.93.143C1.3.4 3.054 1.515 3.546 1.844l.252.17c.287.2.552.383.8.564a7.553 7.553 0 0 1 1.788 1.669 1.724 1.724 0 0 1 .367 1.176.915.915 0 0 1-1.014.758 7.519 7.519 0 0 1-3.467-1.7.553.553 0 0 1 .646-.9l.162.119a8.417 8.417 0 0 0 2.469 1.346l.033.007-.015-.029c-.022-.04-.047-.083-.077-.131l-.023-.036A6.832 6.832 0 0 0 3.94 3.469c-.268-.2-.562-.4-.886-.623L2.841 2.7C2.237 2.305.463 1.176.222 1A.554.554 0 0 1 .109.223z" class="cls-1" transform="translate(8.891 8.012)"/>
                            <path id="Path-19" d="M1.454 0c.092.166 6.054 3.391 5.668 4.239-.313.7-1.159.737-4.472-1.364L0 1.032" class="cls-2" transform="translate(6.646 9.966)"/>
                            <path id="Path_2_11" d="M1.738.07a.552.552 0 0 1 .627.063l.022.02.064.047.185.116.429.254.72.43c.522.315.887.539 1.3.8l.059.038q.306.195.585.378l.138.091a15.508 15.508 0 0 1 1.592 1.186l.054.048c.611.55.891.978.664 1.477a1.342 1.342 0 0 1-1.748.682A13.218 13.218 0 0 1 3.1 4.018L2.907 3.9l-.02-.013-2.65-1.848a.553.553 0 0 1 .6-.927l.028.018 2.643 1.838.081.052a13.372 13.372 0 0 0 3.069 1.6l.038.01a.871.871 0 0 0 .373.049h.007l-.005-.007a2.685 2.685 0 0 0-.254-.272l-.042-.038A13.5 13.5 0 0 0 5.34 3.288l-.086-.057q-.263-.176-.554-.362l-.147-.094c-.429-.273-.8-.5-1.34-.827l-1.174-.707-.129-.08-.137-.089c-.037-.025-.061-.043-.086-.063a.551.551 0 0 1-.164-.187.553.553 0 0 1 .215-.752z" class="cls-1" transform="translate(6.094 9.413)"/>
                        </g>
                        <g id="hand_16_" transform="translate(46.262 68.57)">
                            <path id="Path-20" d="M2.458 7.925C-.45 8.865-.358 7.5.6 6.893a68.839 68.839 0 0 1 6.348-2.709S3.322 4.129 3.1 2.009 3.875-.2 4.923.829s5.65-.055 5.65-.055L12.21 0a4.305 4.305 0 0 1 4.324 5.032 4.992 4.992 0 0 1-2.355 4.276c-.681.424-3.165 2.156-9.606 3.207 0 0-2.926.147-.368-1.124a16.91 16.91 0 0 1 1.951-.811" class="cls-2" transform="translate(.559 .553)"/>
                            <path id="Path_2_12" d="M12.726 0h.096c.05 0 .114 0 .19.009.167.012.351.033.547.066a5.646 5.646 0 0 1 1.635.532c1.661.85 2.61 2.462 2.458 4.922l-.005.078v.077a5.448 5.448 0 0 1-1.251 3.447l-.056.068a5.669 5.669 0 0 1-.9.853c-.141.107-.262.189-.354.245l-.066.038-.193.122c-.1.065-.2.122-.3.183-.27.162-.555.321-.875.484a20.64 20.64 0 0 1-3.041 1.229 37.079 37.079 0 0 1-5.393 1.259H5.075a6.239 6.239 0 0 1-.7-.017 2.637 2.637 0 0 1-.585-.106.81.81 0 0 1-.609-.581c-.139-.575.313-.963 1.334-1.47a17.2 17.2 0 0 1 2.014-.838.553.553 0 0 1 .371 1.054 16.147 16.147 0 0 0-1.889.785l-.123.062-.036.019H5.077l.175-.029a35.981 35.981 0 0 0 4.871-1.137l.155-.049a19.546 19.546 0 0 0 2.879-1.162c.3-.151.558-.3.807-.447l.2-.125.279-.176.063-.037.033-.021c.068-.044.146-.1.23-.161a4.57 4.57 0 0 0 .722-.687 4.349 4.349 0 0 0 1.046-2.8v-.144c.15-2.064-.56-3.291-1.852-3.952a4.559 4.559 0 0 0-1.316-.426c-.133-.022-.258-.038-.373-.048l-.1-.007h-.017l-1.518.717a.552.552 0 0 1-.072.028l-.037.01-.1.023-.211.046-.059.012c-.288.06-.6.12-.933.176-.588.1-1.165.175-1.709.218-1.511.12-2.583-.007-3.15-.564a2.126 2.126 0 0 0-.59-.438.511.511 0 0 0-.157-.046h-.02l-.013.016a.546.546 0 0 0-.072.172A2.99 2.99 0 0 0 4.21 2.5c.066.634.6 1.091 1.535 1.385a6.614 6.614 0 0 0 1.223.252c.118.014.229.024.331.031h.075l.131.006h.011a.553.553 0 0 1 .218 1.057l-.83.32-.226.088c-.678.273-1.348.541-1.987.803l-.431.177-.484.2a20.384 20.384 0 0 0-2.322 1.094.954.954 0 0 0-.307.3l-.006.011a.979.979 0 0 0 .185.023h.046a4.956 4.956 0 0 0 1.475-.294A.553.553 0 0 1 3.187 9c-1.52.5-2.542.482-2.993-.129s-.058-1.43.67-1.892l.071-.043a23.829 23.829 0 0 1 2.589-1.208L4 5.53c.362-.149.738-.3 1.119-.454l.315-.125-.021-.006a2.865 2.865 0 0 1-2.294-2.262l-.007-.063c-.126-1.214.1-2.034.757-2.333.613-.277 1.32.032 2 .7a3.782 3.782 0 0 0 2.289.251c.509-.04 1.055-.112 1.613-.207.316-.053.617-.111.891-.168l.161-.033.127-.03 1.584-.747A.551.551 0 0 1 12.726 0z" class="cls-1"/>
                            <path id="Path-21" d="M6.839 0c-1.03.35-5.1 1.216-6.33 2.212-1.215.977-.309 1.732 3.331.516" class="cls-2" transform="translate(.686 7.096)"/>
                            <path id="Path_2_13" d="M7.214.029A.553.553 0 0 1 7.6 1.065l-.03.011c-.27.092-2.546.7-3.243.91l-.292.089A9.112 9.112 0 0 0 1.407 3.2c-.06.048-.11.093-.152.133l-.02.02h.006a8.249 8.249 0 0 0 2.887-.564l.089-.03a.553.553 0 0 1 .349 1.049l-.2.066a7.054 7.054 0 0 1-3.62.5.92.92 0 0 1-.734-1.03 1.711 1.711 0 0 1 .7-1.01A10.162 10.162 0 0 1 3.9.961l.233-.07C4.9.667 6.713.18 7.141.052z" class="cls-1" transform="translate(.134 6.543)"/>
                            <path id="Path-22" d="M6.681 0C6.534.129-.109 1.419 0 2.341c.092.756.9 1.051 4.674.037L7.748 1.4" class="cls-2" transform="translate(1.709 8.847)"/>
                            <path id="Path_2_14" d="M7.015.046A.553.553 0 0 1 7.6.969L7.56 1a.611.611 0 0 1-.282.124l-.322.082-1.356.329c-.467.114-.841.207-1.213.305l-.351.094a19.3 19.3 0 0 0-2.357.76 3.7 3.7 0 0 0-.476.236l-.041.026a.805.805 0 0 0 .335.063h.041a12.808 12.808 0 0 0 3.436-.6l.1-.019 3.061-.973a.552.552 0 0 1 .682.329l.011.031a.553.553 0 0 1-.328.683l-.031.011-3.069.977-.024.007-.329.087a12.747 12.747 0 0 1-3.564.576C.6 4.074.094 3.67.007 2.96c-.068-.569.355-.9 1.185-1.259l.059-.025A19.54 19.54 0 0 1 3.631.9l.408-.111c.5-.132.986-.253 1.675-.418L6.759.118l.152-.039L7 .055z" class="cls-1" transform="translate(1.155 8.294)"/>
                        </g>
                    </g>
                    <g id="developer" transform="translate(193.252)">
                        <g id="body_1_" transform="translate(3.423 25.073)">
                            <path id="hoodie" d="M75.078 27.819c.055-10.064-14.611-13.529-14.611-13.529 1.1-4.995.607-17.362-20.3-13.584C29.461 2.568 26.443 8.19 28.725 12.742c-4.159 2.064-14.556 16.994-14.556 16.994l.2 12.828a11.5 11.5 0 0 0-2.411-.258A11.915 11.915 0 0 0 0 54.194a12.876 12.876 0 0 0 12.421 12.515 10.76 10.76 0 0 0 2.319-.24v.24l56.805-.147a195.7 195.7 0 0 0-1.086-23.5c2.374-5.474 4.619-11.593 4.619-15.243z" class="cls-3" transform="translate(0 .381)"/>
                            <path id="t-shirt_2_" d="M16.844 0l3.791 2.1S10.772 6.359 8.987 26.062c-1.159 12.791-.239 32.752-.239 32.752l-6.514-.092S3.982 19.15 1.148 12.7c-2.834-6.433.294-6.838 1.73-8.184C4.331 3.189 16.844 0 16.844 0z" class="cls-2" transform="translate(34.422 8.534)"/>
                            <ellipse id="welt_II" cx="9.458" cy="9.474" class="cls-1" rx="9.458" ry="9.474" transform="translate(.387 44.015)"/>
                            <ellipse id="welt" cx="8.225" cy="8.239" class="cls-1" rx="8.225" ry="8.239" transform="translate(36.104 46.042)"/>
                            <path id="shadow_II_1_" d="M0 11.686C1.638 10.949 6.845 4.977 9.385 0a12.779 12.779 0 0 1 6.5 2.451A19.408 19.408 0 0 1 0 11.686z" class="cls-1" transform="translate(51.083 14.635)"/>
                            <g id="lines" transform="translate(39.416 30.707)">
                                <path id="Path-23" d="M1.289.281a10.27 10.27 0 0 1 3.679-.2 10.557 10.557 0 0 1 5.138 2.139A15.288 15.288 0 0 1 13.7 6.242a.552.552 0 1 1-.931.595A14.192 14.192 0 0 0 9.438 3.1a9.456 9.456 0 0 0-4.606-1.922 9.178 9.178 0 0 0-3.284.178c-.2.047-.373.1-.528.147l-.065.021c-.1.033-.162.057-.19.069A.553.553 0 0 1 .339.573L.406.547a7.136 7.136 0 0 1 .883-.266z" class="cls-1" transform="translate(9.973 11.634)"/>
                                <path id="Path-24" d="M1.8 1.17A8.815 8.815 0 0 1 6.918.031a12.722 12.722 0 0 1 7.554 3.809.553.553 0 0 1-.754.808 11.648 11.648 0 0 0-6.89-3.515 7.724 7.724 0 0 0-4.491 1 7.8 7.8 0 0 0-1.048.7l-.1.08-.129.111-.083.076-.033.032a.552.552 0 1 1-.787-.776L.2 2.324c.086-.084.221-.2.4-.348a8.9 8.9 0 0 1 1.2-.806z" class="cls-1" transform="translate(9.44 10.059)"/>
                                <path id="Path-25" d="M30.935.021a.553.553 0 0 1 .39.65l-.01.04-.054.189-.061.2q-.06.194-.135.422l-.03.092c-.236.712-.523 1.5-.863 2.356a42.872 42.872 0 0 1-3.631 7.148 24.721 24.721 0 0 1-8.249 8.359 16.231 16.231 0 0 1-12.926 1.444l-.144-.041-.073-.019-.134-.038-.04-.012c-.2-.06-.426-.134-.667-.222a11.87 11.87 0 0 1-2.023-.953A7.207 7.207 0 0 1 .1 17.724a.552.552 0 1 1 .9-.649 6.139 6.139 0 0 0 1.852 1.612 10.784 10.784 0 0 0 1.834.863c.188.069.364.127.525.177l.145.043.137.038.033.009a15.162 15.162 0 0 0 12.216-1.3 23.659 23.659 0 0 0 7.869-8 41.781 41.781 0 0 0 3.536-6.962c.31-.776.574-1.5.794-2.154l.046-.139q.09-.271.159-.5l.071-.233.037-.129a.552.552 0 0 1 .681-.379z" class="cls-1" transform="translate(0 12.754)"/>
                                <path id="Path-26" d="M8.56.04a.553.553 0 0 1 .306.719l-.214.529c-.171.419-.363.887-.573 1.39l-.3.719c-.5 1.2-1.013 2.381-1.511 3.5l-.207.462-.2.449-.1.219c-.376.822-.728 1.563-1.05 2.208l-.158.315A38.631 38.631 0 0 1 2.1 14.708c-.293.432-.565.813-.809 1.14l-.122.161-.144.186-.049.061a.552.552 0 0 1-.876-.671l.021-.028.079-.091.1-.13.115-.152.131-.176c.2-.272.417-.58.648-.921a37.531 37.531 0 0 0 2.372-4.037l.077-.15.077-.154c.317-.634.663-1.364 1.035-2.175l.2-.438q.151-.334.306-.682C5.8 5.224 6.364 3.921 6.912 2.61l.332-.8.282-.686.316-.777A.552.552 0 0 1 8.56.04z" class="cls-1" transform="translate(7.379)"/>
                            </g>
                            <path id="neck_6_2" d="M15.972 0L15.7 8.736a3.832 3.832 0 0 1-1.362 3.023 79.614 79.614 0 0 0-8.667 8.589A24.5 24.5 0 0 1 0 7.1z" class="cls-2" transform="translate(35.589 .554)"/>
                            <path id="neck_7_" d="M6.22 21.455a.546.546 0 0 1-.4-.174c-.049-.052-.123-.135-.208-.234l-.124-.147c-.2-.237-.4-.5-.613-.778a25.011 25.011 0 0 1-2.033-3.212A24.755 24.755 0 0 1 0 7.7a.552.552 0 0 1 .325-.561L16.3.048A.549.549 0 0 1 16.525 0a.557.557 0 0 1 .4.17.547.547 0 0 1 .154.4L16.8 9.293v.061a4.391 4.391 0 0 1-1.5 3.332l-.062.054a79.787 79.787 0 0 0-8.6 8.529.552.552 0 0 1-.418.186zm9.725-20.039l-14.8 6.575.021.172a23.721 23.721 0 0 0 2.565 8.065l.085.161a23.907 23.907 0 0 0 1.942 3.071c.155.207.308.4.457.586l.012.014.356-.4a78.963 78.963 0 0 1 7.829-7.675l.117-.1a3.4 3.4 0 0 0 .884-1.172 3.2 3.2 0 0 0 .287-1.405v-.035l.248-7.857z" class="cls-1" transform="translate(35.037)"/>
                        </g>
                        <g id="head_6_" transform="translate(24.057)">
                            <path id="ear_2_" d="M1.8 0s3.849.092 3.15 3.539S0 4.976 0 4.976L.589.074z" class="cls-2" transform="translate(30.301 21.129)"/>
                            <path id="ear_3_" d="M3.029 6.665a6.3 6.3 0 0 1-1.87-.316 7.26 7.26 0 0 1-.771-.286L.316 6.03A.553.553 0 0 1 0 5.463L.593.561a.552.552 0 0 1 .514-.486L2.322 0H2.466l.072.01.082.008c.163.016.329.041.493.072a4.832 4.832 0 0 1 1.393.481A3.018 3.018 0 0 1 5.88 1.995 3.6 3.6 0 0 1 6.043 4.2a3.05 3.05 0 0 1-1.038 1.851 3.062 3.062 0 0 1-1.924.613zm-.667-5.559l-.728.044-.484 4.027.067.025.178.061.093.03a5.218 5.218 0 0 0 1.541.266h.04a1.962 1.962 0 0 0 1.247-.374 1.964 1.964 0 0 0 .645-1.2 2.512 2.512 0 0 0-.077-1.509 1.912 1.912 0 0 0-.9-.928 3.733 3.733 0 0 0-1.075-.368 4.118 4.118 0 0 0-.5-.067h-.043z" class="cls-1" transform="translate(29.749 20.576)"/>
                            <path id="face_6_" d="M9.091.047C8.079-.045 1.123-.506.332 5.3a48.732 48.732 0 0 0 .644 15.169C1.6 23.4 14.942 22.109 15.7 21.851a5.782 5.782 0 0 0 1.656-1.143l1.859-8.921S20 1.005 9.091.047z" class="cls-2" transform="translate(12.083 10.134)"/>
                            <path id="face_7_" d="M9.018 23.462H8.7a21.762 21.762 0 0 1-5.428-.539A4.639 4.639 0 0 1 1.7 22.21a1.818 1.818 0 0 1-.716-1.068 46.351 46.351 0 0 1-.925-7.381 44.327 44.327 0 0 1 .278-7.982 6.15 6.15 0 0 1 1.517-3.4A6.945 6.945 0 0 1 5.02.486 11.746 11.746 0 0 1 7.935.013C8.144 0 8.352 0 8.556 0c.392 0 .774.017 1.136.05l.148.013a14.214 14.214 0 0 1 3.332.708 10.583 10.583 0 0 1 2.668 1.372 10.175 10.175 0 0 1 3.465 4.475 13.716 13.716 0 0 1 .961 3.971c.042.444.062.877.062 1.287 0 .133 0 .255-.007.365v.036l-.006.1a.536.536 0 0 1-.01.072l-1.859 8.921a.552.552 0 0 1-.154.282c-.02.02-.054.052-.1.1l-.122.11c-.182.161-.366.312-.548.447a5.214 5.214 0 0 1-.69.442 2.935 2.935 0 0 1-.4.174 46 46 0 0 1-7.414.537zM8.556 1.106c-.188 0-.381 0-.574.012a10.643 10.643 0 0 0-2.641.426 7.009 7.009 0 0 0-1.493.64 5.031 5.031 0 0 0-1.167.929 4.616 4.616 0 0 0-.814 1.241 5.743 5.743 0 0 0-.436 1.575 43.21 43.21 0 0 0-.264 7.781 45.238 45.238 0 0 0 .9 7.2c.092.431.773.794 1.969 1.05a24.7 24.7 0 0 0 4.8.4h.125c1.275 0 2.892-.064 4.438-.175a19.611 19.611 0 0 0 2.666-.3 1.836 1.836 0 0 0 .247-.109 4.131 4.131 0 0 0 .542-.349c.156-.116.315-.246.474-.387l.067-.06 1.815-8.71v-.07c0-.1.006-.208.006-.322v-.12c0-.34-.022-.7-.057-1.063a12.606 12.606 0 0 0-.882-3.651 9.919 9.919 0 0 0-1.3-2.271A8.574 8.574 0 0 0 15.133 3a9.559 9.559 0 0 0-2.45-1.225 13.355 13.355 0 0 0-3.089-.621c-.33-.033-.679-.048-1.038-.048z" class="cls-1" transform="translate(11.531 9.581)"/>
                            <path id="beard_2_" fill="#b48b8b" d="M18.107 0a22.618 22.618 0 0 0-2.852 6.045A37.907 37.907 0 0 0 4.729 4.46 27.588 27.588 0 0 0 0 4.9s.258 6.1 3 9.274c2.723 3.17 8.52 2.3 11.243.424s3.183-2.783 3.809-4.829c.644-2.027 2.337-9.6 2.337-9.6z" transform="translate(11.9 21.848)"/>
                            <path id="hair_5_" d="M31.773 23.157a21.756 21.756 0 0 0 2.539-5.714 6.011 6.011 0 0 0-3.128-6.856 4.375 4.375 0 0 0-3.7-.24 6.06 6.06 0 0 0-1.1-7.244 6.173 6.173 0 0 0-4.508-1.825 5.935 5.935 0 0 0-5.41 3.594S12.084-3.274 3.012 1.5A7.5 7.5 0 0 0 .564 4.246c-3.018 5.511 6.809 12.091 11.943 12.626 5.631.59 8.943-.332 10.746-1.7-1.361.797.129 9.257 8.52 7.985z" class="cls-1"/>
                            <path id="mouth_6_" d="M2.971.4a.736.736 0 0 1 1.329.642l-.032.058c-.032.063-.076.143-.132.235a3.527 3.527 0 0 1-.446.578 2.75 2.75 0 0 1-3.234.632.737.737 0 0 1 .561-1.365A1.3 1.3 0 0 0 2.626.893a2.065 2.065 0 0 0 .259-.337L2.918.5l.037-.067z" class="cls-1" transform="translate(17.162 29.81)"/>
                            <path id="nose_6_" d="M1.144.562a.736.736 0 0 1 1.438.314l-.008.037-.921 3.766 1.514.154a.737.737 0 0 1 .661.771v.037a.736.736 0 0 1-.77.662h-.037L.662 6.06a.737.737 0 0 1-.648-.873l.008-.036z" class="cls-1" transform="translate(14.807 23.23)"/>
                            <ellipse id="eye_II_10_" cx=".848" cy=".552" class="cls-1" rx=".848" ry=".552" transform="rotate(-89.77 19.01 5.113)"/>
                            <ellipse id="eye_10_" cx=".848" cy=".552" class="cls-1" rx=".848" ry=".552" transform="rotate(-89.77 21.595 2.456)"/>
                            <path id="brow_II_6_" d="M.632.036a3.186 3.186 0 0 1 2.395.591 3.31 3.31 0 0 1 .48.428l.06.067a2.006 2.006 0 0 1 .128.161.736.736 0 0 1-1.184.876l-.03-.041-.056-.065a1.845 1.845 0 0 0-.267-.237 1.719 1.719 0 0 0-1.253-.33L.84 1.5A.737.737 0 0 1 .632.036z" class="cls-1" transform="translate(19.223 18.391)"/>
                            <path id="brow_6_" d="M1.468.071A2.848 2.848 0 0 1 2.592.042l.08.014c.062.012.113.023.15.034a.737.737 0 0 1-.345 1.433l-.057-.014-.064-.009a1.44 1.44 0 0 0-.546.007.447.447 0 0 0-.36.312l-.012.036a.736.736 0 1 1-1.4-.441A1.912 1.912 0 0 1 1.468.071z" class="cls-1" transform="translate(12.341 18.245)"/>
                        </g>
                        <path id="puzzle" d="M43.262.111L16.378 0a4.684 4.684 0 0 0-4.692 4.663L11.667 11a11.639 11.639 0 0 0-.092 23.279l-.018 4.2a4.684 4.684 0 0 0 4.656 4.7L43.1 43.3a4.684 4.684 0 0 0 4.692-4.663l.147-33.821A4.724 4.724 0 0 0 43.262.111z" class="cls-4" transform="translate(0 37.552)"/>
                        <g id="hand" transform="translate(6.209 70.124)">
                            <path id="Path-27" d="M0 4.7C.018 4.628 4.067-.109 4.2 0S9.868 2.58 10 2.783a2.954 2.954 0 0 1-.221 2.341c-.552 1.032-1.178 3.41-3.68 3.594S0 4.7 0 4.7z" class="cls-2" transform="translate(3.434 3.569)"/>
                            <path id="Path-28" d="M6.7 4.094S7.177.832 6.422.058 1.454 6.509 0 7.007" class="cls-2" transform="translate(4.115 .564)"/>
                            <path id="Path_2_15" d="M6.171.262c.419-.3.847-.386 1.2-.026a3.36 3.36 0 0 1 .583 2.32c0 .486-.027 1-.077 1.517l-.021.2-.011.1-.034.28-.012.088A.552.552 0 1 1 6.7 4.578l.014-.1.008-.063c.017-.135.034-.286.05-.448.047-.48.074-.961.072-1.4A5.062 5.062 0 0 0 6.711 1.3L6.7 1.25l-.015.013a5.682 5.682 0 0 0-.5.512l-.166.19c-.343.4-.664.81-1.367 1.743l-.883 1.173C2.144 7.032 1.408 7.862.731 8.094a.553.553 0 0 1-.388-1.035l.03-.011C.737 6.923 1.52 6.025 2.944 4.14l.778-1.04c.788-1.043 1.119-1.464 1.509-1.915L5.3 1.1a5.472 5.472 0 0 1 .871-.838z" class="cls-1" transform="translate(3.562)"/>
                            <path id="Path-29" d="M6.385 3.655S7.4 1.277 6.054.134C4.729-1.009 1.435 5.5 0 6.327" class="cls-2" transform="translate(6.672 1.575)"/>
                            <path id="Path_2_16" d="M4.886.7C5.649 0 6.361-.241 6.964.279a2.592 2.592 0 0 1 .879 1.837 4.96 4.96 0 0 1-.19 1.706 5.142 5.142 0 0 1-.207.616.552.552 0 0 1-1.027-.4l.04-.1.017-.047c.038-.106.077-.226.113-.357a3.9 3.9 0 0 0 .154-1.322 1.53 1.53 0 0 0-.456-1.051l-.044-.039s-.012 0-.058.018a1.823 1.823 0 0 0-.553.384 13.652 13.652 0 0 0-1.6 1.914l-.261.359-.929 1.286C1.627 6.765 1.346 7.073.828 7.373a.553.553 0 0 1-.552-.958L.3 6.4c.344-.209.7-.645 1.939-2.374l.526-.734L2.976 3l.1-.134A14.937 14.937 0 0 1 4.886.7z" class="cls-1" transform="translate(6.12 1.009)"/>
                            <path id="Path-30" d="M4.895 5.26S6.588 1 5.41.1 2.3 4.725 0 6" class="cls-2" transform="translate(8.77 2.698)"/>
                            <path id="Path_2_17" d="M5.109.164A1.031 1.031 0 0 1 6.3.214c.7.534.767 1.584.481 3.042-.084.43-.2.882-.337 1.346-.09.3-.185.6-.282.871l-.048.136c-.032.088-.061.17-.089.243l-.064.166a.552.552 0 1 1-1.026-.409l.037-.1.059-.158.043-.119c.106-.3.212-.617.311-.95.129-.432.235-.851.312-1.243l.028-.149a2.711 2.711 0 0 0-.055-1.755l-.01-.012h-.007a2.034 2.034 0 0 0-.476.462l-.04.049-.069.087c-.162.21-.342.468-.565.8l-.183.281c-.2.3-.617.959-.757 1.172l-.129.2A8.341 8.341 0 0 1 .819 7.035a.553.553 0 0 1-.534-.968A7.646 7.646 0 0 0 2.52 3.558l.2-.306c.22-.339.661-1.026.759-1.177l.11-.168c.268-.4.481-.706.683-.96a3.069 3.069 0 0 1 .837-.783z" class="cls-1" transform="translate(8.218 2.144)"/>
                            <path id="Path-31" d="M3.873 6.783a4.606 4.606 0 0 1 .277-2.728A11.124 11.124 0 0 0 5.106.867C5.18-.626 2.751.074 2.641 1S2.07 1.862 1 2.82c-1.067.94-.865 4.7-.865 4.7S-.8 9.456 2.217 11.759a5.984 5.984 0 0 0 6.257.516s5.852-2.156 5.852-6.377-1.546 1.936-4.472 3.668" class="cls-2" transform="translate(.554 .64)"/>
                            <path id="Path_2_18" d="M4.4.033c1.023-.172 1.865.327 1.812 1.41A10.307 10.307 0 0 1 5.3 4.6l-.094.224a4.052 4.052 0 0 0-.241 2.4.552.552 0 1 1-1.083.217 5.165 5.165 0 0 1 .271-2.961l.12-.286a9.68 9.68 0 0 0 .832-2.805c.013-.26-.117-.337-.52-.268-.44.075-.829.351-.846.491a1.747 1.747 0 0 1-.592 1.2l-.043.038c-.038.032-.849.631-1.187.934a3.4 3.4 0 0 0-.6 1.893A15.149 15.149 0 0 0 1.232 7.7v.159c0 .089.005.152.007.183a.554.554 0 0 1-.039.235l-.016.037a.852.852 0 0 0-.032.1 2.038 2.038 0 0 0 .091 1.2 5.168 5.168 0 0 0 1.858 2.254 5.54 5.54 0 0 0 .527.357 5.2 5.2 0 0 0 4.421.4c.172-.057.328-.116.467-.176l.068-.03c.078-.035.133-.062.162-.077l.011-.006a.552.552 0 0 1 .05-.024l.081-.031.126-.051.048-.02c.191-.08.4-.176.634-.289a12.909 12.909 0 0 0 1.929-1.153c1.7-1.24 2.7-2.688 2.7-4.324v-.269L14 6.694c-.322.513-.664 1.062-.844 1.333l-.041.061a8.113 8.113 0 0 1-2.426 2.512.553.553 0 0 1-.562-.952A7.15 7.15 0 0 0 12.2 7.463l.036-.053c.33-.5 1.425-2.3 1.661-2.57a1.036 1.036 0 0 1 .522-.369.691.691 0 0 1 .808.384 3.8 3.8 0 0 1 .2 1.6c0 2.057-1.2 3.791-3.153 5.218a14 14 0 0 1-2.094 1.253c-.25.122-.482.227-.691.315l-.149.061-.086.034-.031.016-.079.039a6.083 6.083 0 0 1-.677.272l-.071.024a6.27 6.27 0 0 1-5.33-.5 6.643 6.643 0 0 1-.632-.428A6.229 6.229 0 0 1 .208 9.988a3.132 3.132 0 0 1-.119-1.853C.1 8.084.116 8.039.13 8l.006-.02v-.086a16.411 16.411 0 0 1 .084-2.34A4.167 4.167 0 0 1 1.147 3l.041-.037c.384-.344 1.209-.953 1.2-.947a.666.666 0 0 0 .257-.532A2 2 0 0 1 4.4.033z" class="cls-1" transform="translate(0 .087)"/>
                        </g>
                        <g id="handII" transform="translate(35.423 70.659)">
                            <path id="Path-32" d="M10.137 4.7C10.119 4.628 6.07-.109 5.941 0S.274 2.582.145 2.785a2.954 2.954 0 0 0 .221 2.341c.552 1.032 1.178 3.41 3.68 3.594s6.091-4.02 6.091-4.02z" class="cls-2" transform="translate(1.842 3.569)"/>
                            <path id="Path-33" d="M.15 4.094S-.329.832.426.058s4.968 6.451 6.422 6.949" class="cls-2" transform="translate(4.451 .564)"/>
                            <path id="Path_2_19" d="M.583.236c.351-.36.78-.273 1.2.026a5.2 5.2 0 0 1 .808.773l.132.15c.374.432.694.838 1.415 1.794l.872 1.16C6.411 6 7.192 6.9 7.562 7.042l.016.006a.553.553 0 0 1-.357 1.046l-.05-.018c-.664-.255-1.4-1.1-2.988-3.194L3 3.308c-.528-.7-.8-1.042-1.111-1.4l-.07-.08a6.394 6.394 0 0 0-.519-.535l-.05-.043a4.685 4.685 0 0 0-.15 1.24v.071c0 .444.025.924.072 1.4l.029.279.028.232.014.1a.552.552 0 1 1-1.092.161l-.02-.181-.022-.181C.1 4.276.088 4.177.077 4.073.027 3.558 0 3.042 0 2.556A3.36 3.36 0 0 1 .583.236z" class="cls-1" transform="translate(3.899)"/>
                            <path id="Path-34" d="M.366 3.655S-.646 1.277.7.134C2.022-1.009 5.316 5.5 6.751 6.327" class="cls-2" transform="translate(1.99 1.575)"/>
                            <path id="Path_2_20" d="M.889.281C1.495-.241 2.206 0 2.97.7a13.973 13.973 0 0 1 1.674 1.981L4.879 3l.208.289.754 1.05c1.09 1.509 1.408 1.884 1.738 2.075a.553.553 0 0 1-.552.958l-.092-.055C6.43 7 6.1 6.594 4.682 4.621l-.6-.831-.2-.269-.13-.177a13.175 13.175 0 0 0-1.527-1.826 1.823 1.823 0 0 0-.553-.384l-.048-.016h-.016a1.509 1.509 0 0 0-.494 1.084 3.9 3.9 0 0 0 .154 1.322c.029.1.059.2.09.292l.04.113.028.071a.552.552 0 1 1-1.016.437 5.142 5.142 0 0 1-.21-.616 4.96 4.96 0 0 1-.19-1.706A2.591 2.591 0 0 1 .889.281z" class="cls-1" transform="translate(1.437 1.009)"/>
                            <path id="Path-35" d="M.932 5.26S-.761 1 .417.1s3.11 4.625 5.41 5.9" class="cls-2" transform="translate(.835 2.716)"/>
                            <path id="Path_2_21" d="M.639.214a1.031 1.031 0 0 1 1.188-.05 3.069 3.069 0 0 1 .835.784l.082.1c.193.25.4.547.656.938l.9 1.387.119.181a7.646 7.646 0 0 0 2.232 2.513.553.553 0 0 1-.534.968 8.555 8.555 0 0 1-2.678-2.952l-.259-.4c-.234-.363-.567-.88-.648-1l-.1-.15c-.255-.385-.453-.666-.634-.892a2.362 2.362 0 0 0-.492-.5l-.031-.019-.011.012a2.825 2.825 0 0 0-.039 1.837l.014.071c.077.392.183.811.312 1.243.082.277.17.546.258.8l.053.15.063.174.075.2a.552.552 0 1 1-1.026.409l-.041-.112-.086-.232-.023-.065C.712 5.295.6 4.955.495 4.6.357 4.138.242 3.686.158 3.256-.128 1.8-.058.748.639.214z" class="cls-1" transform="translate(.277 2.163)"/>
                            <path id="Path-36" d="M10.452 6.783a4.606 4.606 0 0 0-.276-2.728A11.124 11.124 0 0 1 9.219.867C9.146-.626 11.575.074 11.685 1s.57.866 1.638 1.825.865 4.7.865 4.7.938 1.935-2.079 4.239a5.984 5.984 0 0 1-6.257.516S0 10.119 0 5.9s1.546 1.934 4.472 3.666" class="cls-2" transform="translate(.552 .64)"/>
                            <path id="Path_2_22" d="M9.22 1.447C9.166.36 10.009-.139 11.027.033a2 2 0 0 1 1.758 1.449.665.665 0 0 0 .229.508l.027.024c-.007-.006.818.6 1.2.947a4.089 4.089 0 0 1 .967 2.586 16.1 16.1 0 0 1 .092 2.19V8q.014.041.027.089l.013.049a3.132 3.132 0 0 1-.118 1.853 6.229 6.229 0 0 1-2.229 2.764 6.644 6.644 0 0 1-.632.428 6.27 6.27 0 0 1-5.33.5 5.891 5.891 0 0 1-.827-.335l-.031-.016-.119-.047-.116-.048c-.209-.088-.442-.193-.691-.315a14 14 0 0 1-2.094-1.252C1.2 10.243 0 8.508 0 6.451a3.8 3.8 0 0 1 .2-1.6.691.691 0 0 1 .808-.384 1.036 1.036 0 0 1 .522.369c.246.286 1.42 2.218 1.7 2.624A7.15 7.15 0 0 0 5.3 9.643a.553.553 0 0 1-.562.952A7.934 7.934 0 0 1 2.393 8.2l-.074-.108c-.2-.289-.694-1.093-1.091-1.721l-.121-.191v.268c0 1.636 1 3.085 2.7 4.324a12.909 12.909 0 0 0 1.929 1.153c.2.1.382.181.551.254l.083.035.135.055.094.037a.552.552 0 0 1 .051.022l.067.035c.031.016.075.036.131.062a5.491 5.491 0 0 0 .535.206 5.2 5.2 0 0 0 4.421-.4 5.539 5.539 0 0 0 .527-.357 5.168 5.168 0 0 0 1.858-2.254 2.038 2.038 0 0 0 .091-1.2l-.012-.042a.6.6 0 0 0-.02-.06.554.554 0 0 1-.055-.271l.005-.121v-.062a15.244 15.244 0 0 0-.082-2.184 3.421 3.421 0 0 0-.607-1.892l-.055-.048c-.36-.311-1.092-.851-1.128-.882a1.749 1.749 0 0 1-.635-1.24c-.017-.14-.406-.416-.846-.491-.4-.068-.533.009-.52.272a9.678 9.678 0 0 0 .83 2.8l.081.193a5.159 5.159 0 0 1 .311 3.057.552.552 0 1 1-1.083-.217 4.064 4.064 0 0 0-.21-2.332l-.128-.3a10.3 10.3 0 0 1-.906-3.153z" class="cls-1" transform="translate(0 .087)"/>
                        </g>
                    </g>
                    <path id="line" d="M305.391 0a.553.553 0 0 1 .032 1.1H.552A.553.553 0 0 1 .52 0h304.871z" class="cls-1" transform="translate(0 91.869)"/>
                </g>
            </g>
        </g>
        <path id="Trazado_1083" fill="rgba(210,97,97,0.11)" d="M167.267 2.351c40.254-17.964 36.867 71.725 35.353 109.6s-30.887 55.089-78.4 56.918S.117 130.017 0 89.867 127.012 20.315 167.267 2.351z" transform="rotate(-154.03 552.507 -.528)"/>
    </g>
</svg>
