<svg xmlns="http://www.w3.org/2000/svg" width="2009.092" height="150.365" viewBox="0 0 2009.092 150.365">
    <defs>
        <style>
            .cls-1{fill:#eee}
        </style>
    </defs>
    <g id="Grupo_813" transform="translate(54 -82.908)">
        <g id="Grupo_812" transform="translate(-86 -14)">
            <path id="Polígono_18" d="M79 0l79 101H0z" class="cls-1" transform="translate(32 134)"/>
            <path id="Polígono_19" d="M63 0l63 96H0z" class="cls-1" transform="rotate(-180 162.894 96.161)"/>
            <path id="Polígono_20" d="M47 0l47 77H0z" class="cls-1" transform="scale(-1) rotate(85.99 -37.51 -305.99)"/>
        </g>
        <g id="Grupo_812-2" transform="translate(320 -14)">
            <path id="Polígono_18-2" d="M79 0l79 101H0z" class="cls-1" transform="translate(32 134)"/>
            <path id="Polígono_19-2" d="M63 0l63 96H0z" class="cls-1" transform="rotate(-180 162.894 96.161)"/>
            <path id="Polígono_20-2" d="M47 0l47 77H0z" class="cls-1" transform="scale(-1) rotate(85.99 -37.51 -305.99)"/>
        </g>
        <g id="Grupo_812-3" transform="translate(726 -14)">
            <path id="Polígono_18-3" d="M79 0l79 101H0z" class="cls-1" transform="translate(32 134)"/>
            <path id="Polígono_19-3" d="M63 0l63 96H0z" class="cls-1" transform="rotate(-180 162.894 96.161)"/>
            <path id="Polígono_20-3" d="M47 0l47 77H0z" class="cls-1" transform="scale(-1) rotate(85.99 -37.51 -305.99)"/>
        </g>
        <g id="Grupo_812-4" transform="translate(1132 -14)">
            <path id="Polígono_18-4" d="M79 0l79 101H0z" class="cls-1" transform="translate(32 134)"/>
            <path id="Polígono_19-4" d="M63 0l63 96H0z" class="cls-1" transform="rotate(-180 162.894 96.161)"/>
            <path id="Polígono_20-4" d="M47 0l47 77H0z" class="cls-1" transform="scale(-1) rotate(85.99 -37.51 -305.99)"/>
        </g>
        <g id="Grupo_812-5" transform="translate(1538 -14)">
            <path id="Polígono_18-5" d="M79 0l79 101H0z" class="cls-1" transform="translate(32 134)"/>
            <path id="Polígono_19-5" d="M63 0l63 96H0z" class="cls-1" transform="rotate(-180 162.894 96.161)"/>
            <path id="Polígono_20-5" d="M47 0l47 77H0z" class="cls-1" transform="scale(-1) rotate(85.99 -37.51 -305.99)"/>
        </g>
    </g>
</svg>
