<svg xmlns="http://www.w3.org/2000/svg" width="2077.8" height="204.004" viewBox="0 0 2077.8 204.004">
    <defs>
        <clipPath id="clip-path">
            <path d="M0 0H2077.8V204.004H0z" class="cls-1"/>
        </clipPath>
        <style>
            .cls-1{fill:none}.cls-3,.cls-4{fill:#fff;stroke:rgba(152,152,152,.1)}.cls-3{stroke-width:25px}.cls-4{stroke-width:15px}.cls-5{stroke:none}
        </style>
    </defs>
    <g id="Cuadrícula_de_repetición_3" clip-path="url(#clip-path)" opacity="0.85">
        <g transform="translate(77.738 -73.262)">
            <g id="Rectángulo_835" class="cls-3">
                <path d="M0 0H134V134H0z" class="cls-5" transform="rotate(-44.03 166.848 179.313)"/>
                <path d="M12.5 12.5H121.5V121.5H12.5z" class="cls-1" transform="rotate(-44.03 166.848 179.313)"/>
            </g>
            <g id="Rectángulo_836" class="cls-4">
                <path d="M0 0H77V80H0z" class="cls-5" transform="rotate(-73.98 170.832 1.815)"/>
                <path d="M7.5 7.5H69.5V72.5H7.5z" class="cls-1" transform="rotate(-73.98 170.832 1.815)"/>
            </g>
            <g id="Rectángulo_837" class="cls-4">
                <path d="M0 0H58V60H0z" class="cls-5" transform="rotate(-142 114.775 115.528)"/>
                <path d="M7.5 7.5H50.5V52.5H7.5z" class="cls-1" transform="rotate(-142 114.775 115.528)"/>
            </g>
        </g>
        <g transform="translate(395.738 -73.262)">
            <g id="Rectángulo_835-2" class="cls-3">
                <path d="M0 0H134V134H0z" class="cls-5" transform="rotate(-44.03 166.848 179.313)"/>
                <path d="M12.5 12.5H121.5V121.5H12.5z" class="cls-1" transform="rotate(-44.03 166.848 179.313)"/>
            </g>
            <g id="Rectángulo_836-2" class="cls-4">
                <path d="M0 0H77V80H0z" class="cls-5" transform="rotate(-73.98 170.832 1.815)"/>
                <path d="M7.5 7.5H69.5V72.5H7.5z" class="cls-1" transform="rotate(-73.98 170.832 1.815)"/>
            </g>
            <g id="Rectángulo_837-2" class="cls-4">
                <path d="M0 0H58V60H0z" class="cls-5" transform="rotate(-142 114.775 115.528)"/>
                <path d="M7.5 7.5H50.5V52.5H7.5z" class="cls-1" transform="rotate(-142 114.775 115.528)"/>
            </g>
        </g>
        <g transform="translate(713.738 -73.262)">
            <g id="Rectángulo_835-3" class="cls-3">
                <path d="M0 0H134V134H0z" class="cls-5" transform="rotate(-44.03 166.848 179.313)"/>
                <path d="M12.5 12.5H121.5V121.5H12.5z" class="cls-1" transform="rotate(-44.03 166.848 179.313)"/>
            </g>
            <g id="Rectángulo_836-3" class="cls-4">
                <path d="M0 0H77V80H0z" class="cls-5" transform="rotate(-73.98 170.832 1.815)"/>
                <path d="M7.5 7.5H69.5V72.5H7.5z" class="cls-1" transform="rotate(-73.98 170.832 1.815)"/>
            </g>
            <g id="Rectángulo_837-3" class="cls-4">
                <path d="M0 0H58V60H0z" class="cls-5" transform="rotate(-142 114.775 115.528)"/>
                <path d="M7.5 7.5H50.5V52.5H7.5z" class="cls-1" transform="rotate(-142 114.775 115.528)"/>
            </g>
        </g>
        <g transform="translate(1031.738 -73.262)">
            <g id="Rectángulo_835-4" class="cls-3">
                <path d="M0 0H134V134H0z" class="cls-5" transform="rotate(-44.03 166.848 179.313)"/>
                <path d="M12.5 12.5H121.5V121.5H12.5z" class="cls-1" transform="rotate(-44.03 166.848 179.313)"/>
            </g>
            <g id="Rectángulo_836-4" class="cls-4">
                <path d="M0 0H77V80H0z" class="cls-5" transform="rotate(-73.98 170.832 1.815)"/>
                <path d="M7.5 7.5H69.5V72.5H7.5z" class="cls-1" transform="rotate(-73.98 170.832 1.815)"/>
            </g>
            <g id="Rectángulo_837-4" class="cls-4">
                <path d="M0 0H58V60H0z" class="cls-5" transform="rotate(-142 114.775 115.528)"/>
                <path d="M7.5 7.5H50.5V52.5H7.5z" class="cls-1" transform="rotate(-142 114.775 115.528)"/>
            </g>
        </g>
        <g transform="translate(1349.738 -73.262)">
            <g id="Rectángulo_835-5" class="cls-3">
                <path d="M0 0H134V134H0z" class="cls-5" transform="rotate(-44.03 166.848 179.313)"/>
                <path d="M12.5 12.5H121.5V121.5H12.5z" class="cls-1" transform="rotate(-44.03 166.848 179.313)"/>
            </g>
            <g id="Rectángulo_836-5" class="cls-4">
                <path d="M0 0H77V80H0z" class="cls-5" transform="rotate(-73.98 170.832 1.815)"/>
                <path d="M7.5 7.5H69.5V72.5H7.5z" class="cls-1" transform="rotate(-73.98 170.832 1.815)"/>
            </g>
            <g id="Rectángulo_837-5" class="cls-4">
                <path d="M0 0H58V60H0z" class="cls-5" transform="rotate(-142 114.775 115.528)"/>
                <path d="M7.5 7.5H50.5V52.5H7.5z" class="cls-1" transform="rotate(-142 114.775 115.528)"/>
            </g>
        </g>
        <g transform="translate(1667.738 -73.262)">
            <g id="Rectángulo_835-6" class="cls-3">
                <path d="M0 0H134V134H0z" class="cls-5" transform="rotate(-44.03 166.848 179.313)"/>
                <path d="M12.5 12.5H121.5V121.5H12.5z" class="cls-1" transform="rotate(-44.03 166.848 179.313)"/>
            </g>
            <g id="Rectángulo_836-6" class="cls-4">
                <path d="M0 0H77V80H0z" class="cls-5" transform="rotate(-73.98 170.832 1.815)"/>
                <path d="M7.5 7.5H69.5V72.5H7.5z" class="cls-1" transform="rotate(-73.98 170.832 1.815)"/>
            </g>
            <g id="Rectángulo_837-6" class="cls-4">
                <path d="M0 0H58V60H0z" class="cls-5" transform="rotate(-142 114.775 115.528)"/>
                <path d="M7.5 7.5H50.5V52.5H7.5z" class="cls-1" transform="rotate(-142 114.775 115.528)"/>
            </g>
        </g>
        <g transform="translate(1985.738 -73.262)">
            <g id="Rectángulo_835-7" class="cls-3">
                <path d="M0 0H134V134H0z" class="cls-5" transform="rotate(-44.03 166.848 179.313)"/>
                <path d="M12.5 12.5H121.5V121.5H12.5z" class="cls-1" transform="rotate(-44.03 166.848 179.313)"/>
            </g>
            <g id="Rectángulo_836-7" class="cls-4">
                <path d="M0 0H77V80H0z" class="cls-5" transform="rotate(-73.98 170.832 1.815)"/>
                <path d="M7.5 7.5H69.5V72.5H7.5z" class="cls-1" transform="rotate(-73.98 170.832 1.815)"/>
            </g>
            <g id="Rectángulo_837-7" class="cls-4">
                <path d="M0 0H58V60H0z" class="cls-5" transform="rotate(-142 114.775 115.528)"/>
                <path d="M7.5 7.5H50.5V52.5H7.5z" class="cls-1" transform="rotate(-142 114.775 115.528)"/>
            </g>
        </g>
    </g>
</svg>
