<svg xmlns="http://www.w3.org/2000/svg" width="199.3" height="153.67" viewBox="0 0 199.3 153.67">
    <defs>
        <style>
            .cls-3{fill:#ffd2d2}.cls-4{fill:#b44040}.cls-5{fill:#d76262}.cls-7{fill:#8b1d1d}.cls-8{fill:#311643}.cls-9{fill:#fcbeb7}.cls-10{fill:#f9afab}.cls-11{fill:#f49795}.cls-12{fill:none}.cls-13{fill:#fff}.cls-14{fill:#6c2f2f}.cls-17{fill:#888}.cls-18{fill:#9b3030}
        </style>
    </defs>
    <g id="Grupo_404" transform="translate(-164 -1493.448)">
        <g id="Grupo_401" transform="translate(164 1535.769)">
            <path id="Rectángulo_135" fill="#e28686" d="M4.762 0H20.23v89.118H4.762A4.762 4.762 0 0 1 0 84.356V4.762A4.762 4.762 0 0 1 4.762 0z" transform="translate(0 13.228)"/>
            <path id="Rectángulo_136" fill="#ffaeae" d="M0 0h48.974a4.762 4.762 0 0 1 4.762 4.762v79.594a4.762 4.762 0 0 1-4.762 4.762H0V0z" transform="translate(20.23 13.228)"/>
            <path id="Rectángulo_137" d="M0 0H42.534V20.557H0z" class="cls-3" transform="translate(25.831 20.642)"/>
            <path id="Rectángulo_138" d="M0 0H4.869V8.56H0z" class="cls-3" transform="translate(4.869 102.346)"/>
            <path id="Rectángulo_139" d="M0 0H4.869V8.56H0z" class="cls-3" transform="translate(20.23 102.346)"/>
            <path id="Rectángulo_140" d="M0 0H4.869V8.56H0z" class="cls-3" transform="translate(50.784 102.346)"/>
            <path id="Rectángulo_141" d="M0 0H4.869V8.56H0z" class="cls-3" transform="translate(66.145 102.346)"/>
            <rect id="Rectángulo_142" width="16.495" height="1.36" class="cls-4" rx=".68" transform="translate(39.896 37.003)"/>
            <path id="Rectángulo_143" d="M0 0H42.534V20.557H0z" class="cls-3" transform="translate(25.831 47.508)"/>
            <rect id="Rectángulo_144" width="16.495" height="1.36" class="cls-4" rx=".68" transform="translate(39.896 63.869)"/>
            <path id="Rectángulo_145" d="M0 0H42.534V20.557H0z" class="cls-3" transform="translate(25.831 74.375)"/>
            <rect id="Rectángulo_146" width="16.495" height="1.36" class="cls-4" rx=".68" transform="translate(39.896 90.736)"/>
            <path id="Trazado_347" d="M487.438 2944.257h4.869v2.205l-4.869-.241z" class="cls-4" transform="translate(-482.569 -2841.911)"/>
            <path id="Trazado_348" d="M517.673 2944.257h4.869v2.963l-4.869-.24z" class="cls-4" transform="translate(-497.443 -2841.911)"/>
            <path id="Trazado_349" d="M577.811 2944.257h4.869v4.859l-4.869-.241z" class="cls-4" transform="translate(-527.027 -2841.911)"/>
            <path id="Trazado_350" d="M612.915 2944.257v5.617l-4.869-.241v-5.376z" class="cls-4" transform="translate(-541.901 -2841.911)"/>
            <path id="Trazado_351" d="M580.614 2755.573h7.741a.637.637 0 0 1 .632.713l-.655 5.47a.636.636 0 0 1-.632.561h-6.431a.636.636 0 0 1-.632-.561l-.655-5.47a.637.637 0 0 1 .632-.713z" class="cls-4" transform="translate(-561.625 -2749.09)"/>
            <path id="Trazado_352" d="M586.833 2747.063v-2.487l-1.488 2.827v-4.592l-1.169 2.891-1.169-2.891v4.592l-1.488-2.827v2.487l-2.169-3.487.955 5.718h7.741l.955-5.718z" class="cls-5" transform="translate(-561.316 -2742.811)"/>
        </g>
        <g id="Grupo_785" transform="translate(301.988 1493.448)">
            <g id="Grupo_402">
                <rect id="Rectángulo_121" width="61.312" height="58.646" fill="#af9b9b" rx="7.963"/>
                <rect id="Rectángulo_122" width="28.103" height="1.702" class="cls-3" rx=".851" transform="translate(7.462 6.787)"/>
                <rect id="Rectángulo_123" width="19.615" height="1.702" class="cls-3" rx=".851" transform="translate(7.462 11.032)"/>
                <rect id="Rectángulo_124" width="5.933" height="1.215" class="cls-5" rx=".608" transform="translate(7.462 18.473)"/>
                <g id="Grupo_403" transform="translate(40.761 38.311)">
                    <rect id="Rectángulo_125" width="11.697" height="2.718" class="cls-3" rx="1.359"/>
                    <rect id="Rectángulo_126" width="11.696" height="2.718" class="cls-3" rx="1.359" transform="translate(0 3.886)"/>
                    <rect id="Rectángulo_329" width="2.021" height="1.427" class="cls-7" rx=".714" transform="translate(.649 .6)"/>
                    <rect id="Rectángulo_331" width="6.757" height="1.427" class="cls-5" rx=".714" transform="translate(3.549 .6)"/>
                    <rect id="Rectángulo_332" width="6.757" height="1.427" class="cls-5" rx=".714" transform="translate(3.549 4.554)"/>
                    <rect id="Rectángulo_330" width="2.021" height="1.427" class="cls-7" rx=".714" transform="translate(.649 4.554)"/>
                </g>
            </g>
            <g id="Grupo_29" transform="translate(13.171 30.176)">
                <g id="configuracion-de-la-base-de-datos" transform="translate(7.337)">
                    <g id="Grupo_23">
                        <g id="Grupo_21">
                            <ellipse id="Elipse_4" cx="9.056" cy="4.031" class="cls-3" rx="9.056" ry="4.031"/>
                            <path id="Trazado_1" d="M11.153 21.456a1.674 1.674 0 0 1-1.229-1.312q-.43.019-.869.019c-5 0-9.056-1.8-9.056-4.031v3.082c0 2.227 4.054 4.031 9.056 4.031a19.8 19.8 0 0 0 2.088-.112 1.663 1.663 0 0 1 .01-1.677z" class="cls-3" transform="translate(0 -2.621)"/>
                            <path id="Trazado_2" d="M9.056 18.246c.283 0 .561-.008.838-.018v-.462a1.673 1.673 0 0 1 1.268-1.624 1.673 1.673 0 0 1-.219-1.064c-.609.057-1.239.088-1.886.088-5 0-9.056-1.8-9.056-4.031v3.082C0 16.442 4.054 18.246 9.056 18.246z" class="cls-3" transform="translate(0 -1.809)"/>
                            <path id="Trazado_3" d="M9.056 13.246a19.658 19.658 0 0 0 2.574-.168l.677-.677a1.675 1.675 0 0 1 2.029-.262 1.675 1.675 0 0 1 1.62-1.25h1.256c.023 0 .045.005.067.006a2.368 2.368 0 0 0 .832-1.681V6.133c0 2.227-4.054 4.031-9.056 4.031S0 8.36 0 6.133v3.082c0 2.227 4.054 4.031 9.056 4.031z" class="cls-3" transform="translate(0 -.997)"/>
                        </g>
                        <g id="Grupo_22" transform="translate(11.569 11.569)">
                            <path id="Trazado_4" d="M23.863 19.456V18.2l-1.495-.245a3.641 3.641 0 0 0-.41-.992l.871-1.241-.889-.889-1.226.882a3.583 3.583 0 0 0-1-.415l-.261-1.487H18.2l-.242 1.487a3.618 3.618 0 0 0-1 .41l-1.223-.873-.889.889.86 1.229a3.6 3.6 0 0 0-.417 1l-1.477.245v1.256l1.476.261a3.551 3.551 0 0 0 .417 1l-.872 1.219.889.889 1.231-.862a3.63 3.63 0 0 0 1 .412l.246 1.483h1.256l.264-1.487a3.624 3.624 0 0 0 .995-.416l1.24.87.888-.889-.885-1.229a3.592 3.592 0 0 0 .41-.994zm-5.025 1.134a1.752 1.752 0 1 1 1.752-1.752 1.752 1.752 0 0 1-1.752 1.752z" class="cls-5" transform="translate(-13.813 -13.813)"/>
                        </g>
                    </g>
                </g>
                <path id="Trazado_12" d="M6.1 2.71a1.013 1.013 0 0 0-.954.678h-2.1a.339.339 0 0 1-.339-.339V1.016A1.016 1.016 0 0 0 1.694 0H0v.678h1.694a.339.339 0 0 1 .339.339v2.032a1.016 1.016 0 0 0 1.016 1.017h2.1A1.015 1.015 0 1 0 6.1 2.71zm.339 1.355H5.76v-.677h.678zm0 0" class="cls-5" transform="rotate(-180 3.578 3.85)"/>
                <path id="Trazado_13" d="M2.544 4.452V1.59a.318.318 0 0 1 .318-.318h1.966a.954.954 0 1 0 0-.636H2.862a.954.954 0 0 0-.954.954v2.862a.318.318 0 0 1-.318.318H0v.636h1.59a.954.954 0 0 0 .954-.954zM5.405.636h.636v.636h-.636zm0 0" class="cls-5" transform="rotate(180 3.599 10.537)"/>
                <path id="Trazado_14" d="M6.355 0a1.055 1.055 0 0 0-.994.706H0v.706h5.361A1.057 1.057 0 1 0 6.355 0zm.353 1.412H6V.706h.706zm0 0" class="cls-5" transform="rotate(180 3.707 6.373)"/>
            </g>
        </g>
        <g id="Grupo_400" transform="translate(228.681 1496.198)">
            <g id="Grupo_134" transform="translate(11.946)">
                <path id="Trazado_363" d="M627.946 2646.292c0-4.678-4.126-8.468-10.312-8.468-5.141 0-6.908 2.837-6.908 2.837s-4.86 1.05-4.86 7.089v15.271h20.7v-12.576a6.512 6.512 0 0 0 1.38-4.153zm-9.6 13.676a5.232 5.232 0 0 1-1.4-.218v3.272h-7.065v-8.422q-.072-.2-.142-.432c-3.132-.3-3-5.476-1.141-5.476a.529.529 0 0 1 .074.006c7.824 2.5 13.086-1.6 14.808-4.445 0 1.987 2.2 3.926 2.982 4.1-.116 7.107-5.196 11.615-8.119 11.615z" class="cls-8" transform="translate(-604.347 -2637.824)"/>
                <path id="Trazado_364" d="M614.977 2668.54v-.451a5.223 5.223 0 0 0 1.4.219c2.922 0 8-4.508 8.119-11.61-.783-.176-2.982-2.114-2.982-4.1-1.722 2.848-6.984 6.946-14.808 4.445a.531.531 0 0 0-.074-.006c-1.861 0-1.991 5.177 1.141 5.476.047.152.094.3.142.432v5.663l-5.534 2.609v6.83h18.389v-6.895l-5.79-2.61z" class="cls-9" transform="translate(-602.378 -2646.164)"/>
                <path id="Trazado_365" d="M630.8 2694.73v-6.894l-5.79-2.61v-.451a16.013 16.013 0 0 1-4.864-2.625z" class="cls-10" transform="translate(-612.407 -2662.85)"/>
                <circle id="Elipse_44" cx="1.927" cy="1.927" r="1.927" class="cls-11" transform="translate(6.898 12.675)"/>
                <path id="Trazado_366" d="M648.706 2667.26a13.748 13.748 0 0 1-1.171 3.525 1.927 1.927 0 1 1 1.171-3.525z" class="cls-11" transform="translate(-626.839 -2654.259)"/>
                <g id="Grupo_129" transform="translate(8.276 8.369)">
                    <circle id="Elipse_45" cx="2.374" cy="2.374" r="2.374" class="cls-12" transform="rotate(-22.5 8.181 -17.26)"/>
                    <circle id="Elipse_46" cx="2.374" cy="2.374" r="2.374" class="cls-12" transform="rotate(-22.5 4.567 .909)"/>
                    <path id="Trazado_367" d="M632.2 2657.9a2.736 2.736 0 0 0-2.716 2.439 2.1 2.1 0 0 0-1.8 0 2.735 2.735 0 1 0 .013.394 1.765 1.765 0 0 1 1.77 0 2.731 2.731 0 1 0 2.729-2.835zm-7.232 5.1a2.374 2.374 0 1 1 2.374-2.374 2.377 2.377 0 0 1-2.374 2.374zm7.228 0a2.374 2.374 0 1 1 2.374-2.374 2.377 2.377 0 0 1-2.37 2.374z" class="cls-13" transform="translate(-621.867 -2657.526)"/>
                </g>
                <g id="Grupo_132" transform="translate(11.107 11.921)">
                    <g id="Grupo_130" transform="translate(7.111)">
                        <path id="Trazado_368" d="M644.609 2666.71a.39.39 0 0 1-.39-.39v-.728a.39.39 0 0 1 .78 0v.728a.39.39 0 0 1-.39.39z" class="cls-8" transform="translate(-644.219 -2665.202)"/>
                    </g>
                    <g id="Grupo_131">
                        <path id="Trazado_369" d="M628.277 2666.71a.39.39 0 0 1-.39-.39v-.728a.39.39 0 0 1 .78 0v.728a.39.39 0 0 1-.39.39z" class="cls-8" transform="translate(-627.887 -2665.202)"/>
                    </g>
                </g>
                <g id="Grupo_133" transform="translate(12.289 16.453)">
                    <path id="Trazado_370" d="M632.593 2677.006a2.234 2.234 0 0 1-1.457-.5 1.985 1.985 0 0 1-.518-.642.179.179 0 0 1 .325-.148 1.822 1.822 0 0 0 1.95.915.179.179 0 0 1 .041.355 3.111 3.111 0 0 1-.341.02z" class="cls-8" transform="translate(-630.602 -2675.612)"/>
                </g>
            </g>
            <path id="Trazado_371" d="M662.011 2939.23l.853 3.545 9.3 2.922-1.338-6.467z" class="cls-9" transform="translate(-621.768 -2799.424)"/>
            <path id="Trazado_372" d="M599.632 2939.23l.254 4.38-.58.214-.382 1.875 9.294-2.923.232-3.545z" class="cls-9" transform="translate(-590.733 -2799.424)"/>
            <path id="Trazado_373" d="M680.168 2950.507l-7.562-3.251.388 1.874-9.3-2.921v2.665a2.666 2.666 0 0 0 1.261 2.265l.8 2.287a.493.493 0 0 0 .958-.163v-1.488l6.358 1.981h6.429a1.693 1.693 0 0 0 1.693-1.693 1.694 1.694 0 0 0-1.025-1.556z" class="cls-14" transform="translate(-622.594 -2802.858)"/>
            <path id="Trazado_374" d="M600.294 2948.824l-.008-2.665-9.294 2.948.382-1.875-7.553 3.273a1.694 1.694 0 0 0-1.02 1.559 1.694 1.694 0 0 0 1.7 1.689l6.432-.019 6.575-2.069v1.558a.493.493 0 0 0 .958.16l.868-2.5a2.663 2.663 0 0 0 .96-2.059z" class="cls-14" transform="translate(-582.801 -2802.833)"/>
            <path id="Trazado_375" fill="#b1b1b1" d="M599.878 2759.705l-4.727 16.724a35.092 35.092 0 0 0-1.16 11.219l3.184 54.113h8.818l3.765-56.159 18.761 56.159h8.818l-15.913-82.056z" transform="translate(-588.276 -2701.954)"/>
            <g id="Grupo_135" transform="translate(1.475 23.469)">
                <path id="Trazado_376" d="M620.455 2700.081c1.418 0 2.552-1.365 3.317-2.749h-8.086c1.233 1.379 2.922 2.749 4.769 2.749z" class="cls-13" transform="translate(-600.08 -2694.509)"/>
                <path id="Trazado_377" fill="#c25454" d="M616.078 2697.868a9.721 9.721 0 0 0-4.715-4.521l-4.8-2.152a10.106 10.106 0 0 1-1.106 2.823c-.765 1.383-1.9 2.749-3.317 2.749-1.847 0-3.536-1.369-4.769-2.749a17.436 17.436 0 0 1-2.034-2.809l-5.567 2.579a8.3 8.3 0 0 0-4.563 5.525l-3.254 13.086a6.349 6.349 0 0 0 1.616 5.965c2.562-.9 7.373-2.772 7.373-2.772l.632 8.967h21.035l5.226-23.174z" transform="translate(-581.767 -2691.195)"/>
            </g>
            <g id="Grupo_136" transform="translate(12.528 24.58)">
                <path id="Trazado_378" d="M617.135 2700.161a7.616 7.616 0 0 1-3.906-1.168 13.97 13.97 0 0 1-3.05-2.545 21.127 21.127 0 0 1-2.719-3.7l.345-.16a20.566 20.566 0 0 0 2.657 3.61 13.59 13.59 0 0 0 2.964 2.472 7.239 7.239 0 0 0 3.708 1.113 4.656 4.656 0 0 0 3.085-1.143 7.776 7.776 0 0 0 1.887-2.553 13.5 13.5 0 0 0 1.158-3.589l.357.161a13.037 13.037 0 0 1-1.17 3.586 8.151 8.151 0 0 1-1.983 2.681 5.028 5.028 0 0 1-3.333 1.235z" class="cls-13" transform="translate(-607.46 -2692.497)"/>
            </g>
            <path id="Trazado_1077" d="M4.221 0A4.221 4.221 0 1 1 0 4.221 4.221 4.221 0 0 1 4.221 0z" class="cls-17" transform="translate(31.825 95.554)"/>
            <circle id="Elipse_48" cx="4.221" cy="4.221" r="4.221" class="cls-17" transform="translate(9.71 95.554)"/>
            <path id="Trazado_379" d="M595.08 2698.955a2.7 2.7 0 0 1-4.293 2.171 9.158 9.158 0 0 1 3.75-3.794 2.683 2.683 0 0 1 .543 1.623z" class="cls-18" transform="translate(-585.73 -2670.439)"/>
            <path id="Trazado_380" fill="#a34a4a" d="M629.44 2741.849l17.875-.675a2.2 2.2 0 0 0 2.022-1.565l7.815-26.053a.842.842 0 0 0-.839-1.084l-18.077.683a1.916 1.916 0 0 0-1.762 1.363l-7.873 26.246a.842.842 0 0 0 .839 1.085z" transform="translate(-605.314 -2679.023)"/>
            <path id="Trazado_381" d="M668.2 2743.36l3.128 3.129.533-1.779z" class="cls-14" transform="translate(-624.814 -2694.852)"/>
            <path id="Trazado_382" d="M670.208 2733.825l-4.507.3a.629.629 0 0 0-.587.634l-.448.028a.6.6 0 0 0-.562.531l-.055.469a.6.6 0 0 0-.6.611.6.6 0 0 0 .381.554l1.009.4a1.313 1.313 0 0 0 .763 1.2l3.136 1.45a2.67 2.67 0 0 0 1.46.224 2.661 2.661 0 0 0 2.26-2.084l.195-.912a2.951 2.951 0 0 0-.808-2.713 2.374 2.374 0 0 0-1.637-.692z" class="cls-9" transform="translate(-622.476 -2689.869)"/>
            <path id="Trazado_383" fill="#655c5c" d="M632.583 2698.5l3.076 7.517a3.4 3.4 0 0 0 .74 1.119l.547.546a.173.173 0 0 0 .306-.125l.008-.772a3.411 3.411 0 0 0-.257-1.317l-3.076-7.517a.825.825 0 0 0-1.011-.554.825.825 0 0 0-.333 1.103z" transform="translate(-607.251 -2670.543)"/>
            <path id="Trazado_384" d="M612.681 2705.415l-1.689-2.325a1.281 1.281 0 0 0-.923-.524l-2.831-.257a1.421 1.421 0 0 0-1.061.343l-1.475 1.282a2.549 2.549 0 0 0-.535.648l-1.81 2.872-17.157 13.862a3.694 3.694 0 0 0-.323 5.452 3.694 3.694 0 0 0 5.439-.163l14.489-16.759 3.047-1.873 2.249.078a1.083 1.083 0 0 0 1.094-.852l.123-.147a1.084 1.084 0 0 0 .234-.912l-.129-.635.727.469a.392.392 0 0 0 .53-.56z" class="cls-9" transform="translate(-583.306 -2673.467)"/>
            <path id="Trazado_385" d="M601.712 2737.112l6.349-7.343-6.108 10.767z" class="cls-18" transform="translate(-591.104 -2687.816)"/>
            <path id="Trazado_386" fill="#434343" d="M630.287 2769.931l10.5 2.89-.568-3.265z" transform="translate(-606.161 -2706.735)"/>
            <path id="Trazado_387" d="M650.739 2699.543a2.806 2.806 0 0 1-3.882-2.59 2.847 2.847 0 0 1 .075-.645 10.723 10.723 0 0 1 3.807 3.235z" class="cls-18" transform="translate(-615.313 -2670.207)"/>
            <circle id="Elipse_49" cx="2.608" cy="2.608" r="2.608" class="cls-10" transform="translate(1.687 47.477)"/>
        </g>
    </g>
</svg>
