<svg xmlns="http://www.w3.org/2000/svg" width="180.646" height="152.12" viewBox="0 0 180.646 152.12">
    <defs>
        <style>
            .cls-2{fill:#ffd2d2}.cls-3{fill:#d76262}.cls-5{fill:#f9afab}.cls-6{fill:#fcbeb7}.cls-7{fill:#311643}.cls-11{fill:#b1b1b1}.cls-12{fill:#6c2f2f}.cls-14{fill:#888}
        </style>
    </defs>
    <g id="Grupo_371">
        <g id="Grupo_370" transform="translate(70.847)">
            <rect id="Rectángulo_121" width="89.158" height="85.282" fill="#af9b9b" rx="7.963"/>
            <rect id="Rectángulo_122" width="40.866" height="2.474" class="cls-2" rx="1.237" transform="translate(10.851 9.87)"/>
            <rect id="Rectángulo_123" width="28.524" height="2.474" class="cls-2" rx="1.237" transform="translate(10.851 16.043)"/>
            <rect id="Rectángulo_124" width="8.628" height="1.767" class="cls-3" rx=".884" transform="translate(10.851 26.864)"/>
            <rect id="Rectángulo_125" width="22.97" height="5.338" class="cls-2" rx="1.707" transform="translate(46.849 53.641)"/>
            <rect id="Rectángulo_126" width="31.513" height="5.338" class="cls-2" rx="1.707" transform="translate(46.849 63.344)"/>
            <g id="Grupo_116" transform="translate(10.775 46.232)">
                <path id="Trazado_337" d="M2172.628 2003.7a1.648 1.648 0 0 1 1.648-1.648 11.633 11.633 0 1 1 11.633-11.633 1.648 1.648 0 0 1 3.3 0 14.929 14.929 0 1 0-14.929 14.929 1.648 1.648 0 0 1-1.652-1.648z" class="cls-2" transform="translate(-2159.347 -1975.495)"/>
                <path id="Trazado_338" d="M2199.93 2001.149a1.648 1.648 0 0 0-1.648 1.648 11.646 11.646 0 0 1-11.633 11.633 1.648 1.648 0 0 0 0 3.3 14.946 14.946 0 0 0 14.929-14.929 1.648 1.648 0 0 0-1.648-1.652z" class="cls-3" transform="translate(-2171.72 -1987.868)"/>
            </g>
        </g>
        <g id="Grupo_22" transform="translate(115.219 67.691)">
            <path id="Trazado_4" fill="#d63737" d="M79.24 50.55v-8.178l-9.732-1.592a23.706 23.706 0 0 0-2.672-6.461l5.67-8.08-5.785-5.785-7.982 5.746a23.328 23.328 0 0 0-6.488-2.7l-1.7-9.683h-8.179L40.8 23.469a23.556 23.556 0 0 0-6.51 2.666l-7.96-5.681-5.785 5.785 5.6 8a23.4 23.4 0 0 0-2.715 6.532l-9.612 1.6v8.179l9.607 1.7a23.117 23.117 0 0 0 2.715 6.537l-5.676 7.933 5.785 5.79 8.015-5.61a23.632 23.632 0 0 0 6.51 2.682l1.6 9.656h8.176l1.717-9.683a23.59 23.59 0 0 0 6.477-2.71l8.075 5.665 5.779-5.79-5.763-8a23.385 23.385 0 0 0 2.665-6.469zm-32.714 7.382a11.406 11.406 0 1 1 11.406-11.406 11.409 11.409 0 0 1-11.406 11.406z" transform="translate(-13.813 -13.813)"/>
        </g>
        <g id="Grupo_369" transform="translate(0 49.165)">
            <path id="Trazado_582" d="M1288.711 2845.264a2.978 2.978 0 0 1-1.5 2.584l-.264-.542a5.56 5.56 0 0 1-.042-4.78 2.979 2.979 0 0 1 1.806 2.738z" class="cls-5" transform="translate(-1264.279 -2800.922)"/>
            <g id="Grupo_205" transform="translate(31.731)">
                <path id="Trazado_583" d="M1334.157 2786.835l-.885-1.726a21.321 21.321 0 0 0 .264-4.624q-.028-.561-.084-1.139c-1.848.164-7.269.38-11.258-2.149a10.985 10.985 0 0 1-2.039 7.146c-.176-.424-.812-1.733-1.906-1.733-2.189 0-2.521 3.5-1.3 5.165a8.605 8.605 0 0 1-2.607 1.365l-.009-.01v10.07h8.49v-4.389a9.121 9.121 0 0 0 2.87.66c2.137 0 5.376-2.866 6.947-7.778h.988a.59.59 0 0 0 .525-.86z" class="cls-6" transform="translate(-1309.489 -2769.413)"/>
                <path id="Trazado_584" d="M1312.437 2780.522c-1.224-1.667-.892-5.165 1.3-5.165 1.094 0 1.729 1.31 1.906 1.733a10.986 10.986 0 0 0 2.039-7.146c3.988 2.53 9.409 2.313 11.257 2.149q.057.578.084 1.139a1.808 1.808 0 0 0 .562-1.209v-.081c-.048-3.626-3.368-9.783-11.467-9.783-8.583 0-10.189 5.587-10.189 5.587a5.969 5.969 0 0 0-2.954 4.883c0 4.288 4.623 9.02 4.848 9.248l.009.009a8.6 8.6 0 0 0 2.605-1.364z" class="cls-7" transform="translate(-1304.972 -2762.16)"/>
                <path id="Trazado_585" d="M1324.026 2811.567v-4.389a22.512 22.512 0 0 1-7.2-4.343z" class="cls-5" transform="translate(-1310.688 -2781.778)"/>
                <circle id="Elipse_71" cx="2.301" cy="2.301" r="2.301" fill="#f49795" transform="translate(12.44 14.725)"/>
                <g id="Grupo_203" transform="translate(18.322 19.515)">
                    <path id="Trazado_586" d="M1341.7 2800.927a1.489 1.489 0 0 1-.971-.334 1.331 1.331 0 0 1-.35-.437.212.212 0 0 1 .386-.176 1.041 1.041 0 0 0 1.112.512.212.212 0 1 1 .049.421 1.974 1.974 0 0 1-.226.014z" class="cls-7" transform="translate(-1340.364 -2799.857)"/>
                </g>
                <g id="Grupo_204" transform="translate(20.498 12.418)">
                    <path id="Trazado_587" d="M1345.03 2787.937a.462.462 0 0 1-.463-.462v-.864a.463.463 0 0 1 .925 0v.864a.462.462 0 0 1-.462.462z" class="cls-7" transform="translate(-1344.567 -2786.148)"/>
                </g>
                <path id="Trazado_588" fill="#fff" d="M1349.761 2784.817h-1.428v-2.632a.212.212 0 1 0-.423 0v5.688a.212.212 0 1 0 .423 0v-2.632h1.428a.212.212 0 0 0 0-.424z" transform="translate(-1325.682 -2771.716)"/>
            </g>
            <g id="Grupo_206" transform="translate(34.562 46.585)">
                <path id="Trazado_590" d="M1345.723 2852.712l-23.89 9.3-7.053 9.39a7.971 7.971 0 0 1-4.338 2.918l10.452 7.2 20-10.524-.824 25.553h8.972l7.5-34.605a8.073 8.073 0 0 0-10.819-9.232z" class="cls-11" transform="translate(-1310.442 -2852.148)"/>
                <path id="Trazado_591" d="M1367.676 2944.886v6.34a1.338 1.338 0 0 0 1.339 1.338H1387a.31.31 0 0 0 .31-.31v-1.168a1.442 1.442 0 0 0-.841-1.311l-10.678-4.889z" class="cls-12" transform="translate(-1338.047 -2896.877)"/>
                <path id="Trazado_592" d="M1367.676 2937.918v3.607h8.11l.863-3.607z" class="cls-6" transform="translate(-1338.047 -2893.517)"/>
                <path id="Trazado_593" fill="#727272" d="M1334 2897.682l-11.025 5.8-8.223-5.8z" transform="translate(-1312.519 -2874.11)"/>
                <path id="Trazado_594" d="M1392.849 2857.783a4.3 4.3 0 0 1-6.269-5.4 8.175 8.175 0 0 1 6.269 5.4z" class="cls-14" transform="translate(-1346.968 -2852.261)"/>
            </g>
            <path id="Trazado_595" d="M1289.891 2831.693l-2.848 5.337a5.563 5.563 0 0 0-.093 5.051l.245.5 2.214-9.179q.209-.865.482-1.709z" class="cls-6" transform="translate(-1264.279 -2795.697)"/>
            <path id="Trazado_596" fill="#c25454" d="M1294.532 2852c.056-.014.112-.03.167-.046a7.971 7.971 0 0 0 4.17-2.872l7.053-9.389-.554-19.088 7.11 1.548 2.819-8.9-18.745-7.394a23.6 23.6 0 0 0-10.97 13.371q-.272.843-.482 1.711l-2.214 9.179-5.43 22.513 15.239-.377a7.992 7.992 0 0 0 1.837-.256z" transform="translate(-1259.97 -2783.239)"/>
            <path id="Trazado_597" fill="#a42828" d="M1322.891 2835.305l-9.306-5.857 9.21 2.536z" transform="translate(-1277.395 -2794.614)"/>
            <g id="Grupo_207" transform="translate(0 68.715)">
                <path id="Trazado_598" d="M1263.944 2940.1l-3.345-3.264a1.881 1.881 0 0 0-2.41-.182l-14.338 10.279a.41.41 0 0 0-.095.572l.63.879a1.734 1.734 0 0 0 1.444.724l5.757-.111z" class="cls-12" transform="translate(-1243.679 -2914.864)"/>
                <path id="Trazado_599" d="M1271.312 2952.532h-12.356l12.356-8.9z" class="cls-6" transform="translate(-1251.047 -2918.404)"/>
                <path id="Trazado_600" d="M1320.989 2913.289L1294.7 2894.9c-.055.016-.111.032-.167.046a7.966 7.966 0 0 1-1.837.262l-15.239.376a16.248 16.248 0 0 0 9.979 14.99l15.477 6.472-22.677 3.084v8.9h35.8a8.649 8.649 0 0 0 4.953-15.741z" class="cls-11" transform="translate(-1259.97 -2894.896)"/>
                <path id="Trazado_601" d="M1362.2 2948.31a4.294 4.294 0 0 1 2.2-7.937 8.925 8.925 0 0 1-2.2 7.937z" class="cls-14" transform="translate(-1299.868 -2916.831)"/>
            </g>
            <path id="Trazado_602" d="M1386.127 2780.987l-5.4-1.794a1.232 1.232 0 0 0-.968.082l-3.341 1.78-.756.165a.869.869 0 0 0-.622.527l-1.315 3.289-22.4 16.548-3.4-1.22-2.819 8.9 6.572 1.357a4.615 4.615 0 0 0 4.208-1.267l21.025-21.169 3.86-2.27a1.21 1.21 0 0 0 .6-1l.016-.41.251-.241a1.211 1.211 0 0 0 .366-.978l-.03-.34a1.211 1.211 0 0 0 .349-1.056l-.054-.342 3.641.426a.508.508 0 0 0 .22-.987z" class="cls-6" transform="translate(-1292.6 -2770.345)"/>
            <path id="Trazado_603" d="M1362.1 2835.936l-.377.379a4.614 4.614 0 0 1-4.208 1.267l-.308-.063a2.842 2.842 0 0 1 4.893-1.583z" class="cls-5" transform="translate(-1298.436 -2797.31)"/>
        </g>
    </g>
</svg>
