<svg xmlns="http://www.w3.org/2000/svg" width="199.3" height="153.67" viewBox="0 0 199.3 153.67">
    <defs>
        <style>
            .cls-7{fill:#ffd2d2}.cls-8{fill:none}.cls-9{fill:#ff8989}.cls-11{fill:#d76262}.cls-12{fill:#fcbeb7}.cls-13{fill:#311643}.cls-14{fill:#f9afab}.cls-15{fill:#f49795}.cls-16{fill:#fff}.cls-17{fill:#6c2f2f}.cls-20{fill:#6d2323}.cls-21{fill:#9b9b9b}.cls-22{fill:#a34a4a}.cls-25{fill:#e28686}.cls-26{fill:#ffaeae}
        </style>
    </defs>
    <g id="Grupo_385" transform="translate(0 -2)">
        <g id="Grupo_383" transform="translate(58.35 124.815)">
            <path id="Rectángulo_235" fill="#e29696" d="M0 0H30.706V30.706H0z" transform="translate(16.914)"/>
            <path id="Trazado_1091" fill="#b46e6e" d="M0 0h16.914v30.706H0z"/>
            <path id="Rectángulo_237" fill="#8e3131" d="M0 0H16.914V0.899H0z" transform="translate(0 5.25)"/>
            <path id="Rectángulo_238" fill="#bb6c6c" d="M0 0H30.706V0.899H0z" transform="translate(16.914 5.25)"/>
            <rect id="Rectángulo_239" width="12.075" height=".799" fill="#8a3333" rx=".4" transform="translate(26.229 9.746)"/>
        </g>
        <g id="Grupo_381" transform="translate(45.016 10.299)">
            <g id="Grupo_110">
                <path id="Trazado_333" fill="#b58e8e" d="M920.159 1941.706v19.5a.857.857 0 0 1-.857.857h-16.519a.857.857 0 0 1-.857-.857v-23.961a.857.857 0 0 1 .857-.857h12.058z" transform="translate(-901.926 -1936.388)"/>
                <path id="Trazado_334" d="M964.86 1941.706h-4.46a.857.857 0 0 1-.857-.857v-4.461z" class="cls-7" transform="translate(-946.627 -1936.388)"/>
            </g>
            <rect id="Rectángulo_103" width="7.495" height=".765" class="cls-7" rx=".383" transform="translate(1.962 2.848)"/>
            <rect id="Rectángulo_104" width="4.158" height=".765" class="cls-7" rx=".383" transform="translate(1.962 4.553)"/>
            <g id="Grupo_111" transform="translate(4.815 14.047)">
                <circle id="Elipse_42" cx="3.352" cy="3.352" r="3.352" class="cls-8" transform="translate(.95 .95)"/>
                <path id="Trazado_335" d="M927.232 2007.184a.475.475 0 0 1 .475-.475 3.352 3.352 0 1 1 3.352-3.352.475.475 0 1 1 .95 0 4.3 4.3 0 1 0-4.3 4.3.475.475 0 0 1-.477-.473z" class="cls-7" transform="translate(-923.405 -1999.055)"/>
                <path id="Trazado_336" d="M944.779 2016.127a.475.475 0 0 0-.475.475 3.356 3.356 0 0 1-3.352 3.352.475.475 0 1 0 0 .95 4.307 4.307 0 0 0 4.3-4.3.475.475 0 0 0-.473-.477z" class="cls-9" transform="translate(-936.65 -2012.3)"/>
            </g>
        </g>
        <g id="Grupo_380" transform="translate(112.391 2)">
            <path id="Trazado_341" fill="#89aeff" d="M1595.181 1872.9v11.05a1.085 1.085 0 0 0 1.084 1.085h17.508a1.085 1.085 0 0 0 1.085-1.085v-11.05z" transform="translate(-1595.181 -1868.399)"/>
            <path id="Trazado_342" d="M1598.954 1857.283h15.821c.652 0 1.181.864 1.181 1.929v9.49c0 1.066-.529 1.93-1.181 1.93h-15.821c-.652 0-1.181-.864-1.181-1.93v-9.49c0-1.065.527-1.929 1.181-1.929z" class="cls-7" transform="translate(-1597.026 -1857.283)"/>
            <path id="Trazado_343" d="M1613.773 1885.033h-17.508a1.085 1.085 0 0 1-1.084-1.085V1872.9l9.838 7.2 9.839-7.2v11.05a1.085 1.085 0 0 1-1.085 1.083z" class="cls-11" transform="translate(-1595.181 -1868.399)"/>
            <rect id="Rectángulo_131" width="9.634" height=".984" class="cls-9" rx=".492" transform="translate(5.021 3.134)"/>
            <rect id="Rectángulo_132" width="5.345" height=".984" class="cls-9" rx=".492" transform="translate(7.166 5.324)"/>
        </g>
        <g id="Grupo_378" transform="translate(97.68 28.248)">
            <path id="Trazado_1089" d="M698.4 2694.81l.274-.045.043-.167a.754.754 0 0 1 .68-.566l3.841-.259 2.672-1.086-1.491-1.862a.75.75 0 0 1 .079-1.022l3.147 2.425a2.818 2.818 0 0 1 .752.878l.985 1.794v.007l14.16 10.679 3.754 2.9-1.008 2.826-1.939.821c-.409.354-1.734-.033-2.136-.395l-14.93-14.172-3.1.294a5.4 5.4 0 0 1-2.077-.207l-1.646-.5a.494.494 0 0 1-.314-.661l-1.172-.225a.506.506 0 0 1-.408-.445l-.02-.189h-.072a.417.417 0 0 1-.069-.829z" class="cls-12" transform="translate(-698.056 -2666.704)"/>
            <g id="Grupo_377" transform="translate(23.953)">
                <g id="Grupo_169" transform="translate(7.747)">
                    <path id="Trazado_475" d="M532.956 3298.866c0-4.234-3.735-7.665-9.335-7.665-4.654 0-6.254 2.568-6.254 2.568s-4.4.951-4.4 6.417v13.824h18.738v-11.385a5.894 5.894 0 0 0 1.251-3.759zm-8.692 12.38a4.731 4.731 0 0 1-1.265-.2v2.962h-6.4v-7.62c-.044-.123-.087-.253-.128-.391-2.836-.271-2.718-4.957-1.033-4.957a.432.432 0 0 1 .067.006c7.083 2.264 11.846-1.445 13.4-4.023a4.77 4.77 0 0 0 2.7 3.713c-.097 6.429-4.696 10.511-7.341 10.511z" class="cls-13" transform="translate(-511.594 -3291.201)"/>
                    <path id="Trazado_476" d="M520.885 3320.7v-.7a4.721 4.721 0 0 0 1.265.2c2.645 0 7.244-4.082 7.349-10.51a4.77 4.77 0 0 1-2.7-3.713c-1.558 2.578-6.322 6.288-13.4 4.023a.462.462 0 0 0-.067-.006c-1.685 0-1.8 4.686 1.033 4.957.042.137.085.268.129.391v5.126l-5.01 2.361v6.183h16.646v-6.74l-5.241-1.575z" class="cls-12" transform="translate(-509.48 -3300.151)"/>
                    <path id="Trazado_477" d="M536.889 3346.915v-6.74l-5.241-1.575v-.7a14.5 14.5 0 0 1-4.4-2.376z" class="cls-14" transform="translate(-520.242 -3318.056)"/>
                    <circle id="Elipse_60" cx="1.745" cy="1.745" r="1.745" class="cls-15" transform="translate(6.245 11.473)"/>
                    <path id="Trazado_478" d="M555.524 3320.606a12.448 12.448 0 0 1-1.06 3.191 1.745 1.745 0 1 1 1.06-3.191z" class="cls-15" transform="translate(-535.73 -3308.837)"/>
                    <g id="Grupo_164" transform="translate(7.492 7.576)">
                        <circle id="Elipse_61" cx="2.149" cy="2.149" r="2.149" class="cls-8" transform="rotate(-22.48 7.394 -15.616)"/>
                        <circle id="Elipse_62" cx="2.149" cy="2.149" r="2.149" class="cls-8" transform="rotate(-22.5 4.135 .823)"/>
                        <path id="Trazado_479" d="M538.354 3311.273a2.476 2.476 0 0 0-2.458 2.208 1.9 1.9 0 0 0-1.627 0 2.476 2.476 0 1 0 .012.357 1.6 1.6 0 0 1 1.6 0 2.472 2.472 0 1 0 2.47-2.566zm-6.543 4.622a2.149 2.149 0 1 1 2.149-2.149 2.152 2.152 0 0 1-2.148 2.154zm6.543 0a2.149 2.149 0 1 1 2.149-2.149 2.151 2.151 0 0 1-2.149 2.154z" class="cls-16" transform="translate(-529.004 -3310.938)"/>
                    </g>
                    <g id="Grupo_167" transform="translate(10.054 9.702)">
                        <g id="Grupo_165" transform="translate(6.437)">
                            <path id="Trazado_480" d="M551.674 3317.18a.353.353 0 0 1-.353-.353v-.66a.353.353 0 0 1 .706 0v.66a.353.353 0 0 1-.353.353z" class="cls-13" transform="translate(-551.321 -3315.815)"/>
                        </g>
                        <g id="Grupo_166">
                            <path id="Trazado_481" d="M535.342 3317.18a.353.353 0 0 1-.353-.353v-.66a.353.353 0 0 1 .706 0v.66a.353.353 0 0 1-.353.353z" class="cls-13" transform="translate(-534.989 -3315.815)"/>
                        </g>
                    </g>
                    <g id="Grupo_168" transform="translate(11.124 14.894)">
                        <path id="Trazado_482" d="M539.506 3330.251a2.017 2.017 0 0 1-1.318-.453 1.794 1.794 0 0 1-.469-.581.162.162 0 0 1 .295-.134 1.648 1.648 0 0 0 1.765.828.162.162 0 1 1 .037.321 2.643 2.643 0 0 1-.31.019z" class="cls-13" transform="translate(-537.704 -3328.989)"/>
                    </g>
                </g>
                <path id="Trazado_483" d="M569.036 3592.607l.662 2.75 7.218 2.267-1.038-5.017z" class="cls-12" transform="translate(-537.816 -3473.807)"/>
                <path id="Trazado_484" d="M506.5 3592.607l.2 3.4-.45.166-.3 1.455 7.21-2.268.18-2.75z" class="cls-12" transform="translate(-499.594 -3473.807)"/>
                <path id="Trazado_485" d="M583.5 3602.921l-5.867-2.522.3 1.454-7.217-2.267v2.068a2.067 2.067 0 0 0 .978 1.757l.621 1.774a.382.382 0 0 0 .743-.126v-1.154l4.933 1.537h4.99a1.314 1.314 0 0 0 1.314-1.314 1.315 1.315 0 0 0-.795-1.207z" class="cls-17" transform="translate(-538.833 -3478.036)"/>
                <path id="Trazado_486" d="M503.4 3601.6l-.006-2.068-7.211 2.288.3-1.455-5.86 2.54a1.314 1.314 0 0 0-.791 1.209 1.314 1.314 0 0 0 1.318 1.31l4.99-.015 5.1-1.605v1.208a.382.382 0 0 0 .743.124l.673-1.943a2.066 2.066 0 0 0 .744-1.593z" class="cls-17" transform="translate(-489.826 -3478.005)"/>
                <path id="Trazado_487" fill="#7a7a7a" d="M504.564 3417.087l-2.664 11.273a35.356 35.356 0 0 0-.9 9.944l2.471 47.965h6.841l2.921-49.778 14.554 49.778h6.841l-12.046-69.182z" transform="translate(-496.569 -3367.469)"/>
                <path id="Trazado_488" d="M526.8 3353.063c1.215 0 2.186-1.169 2.841-2.354h-6.927c1.053 1.181 2.5 2.354 4.086 2.354z" class="cls-16" transform="translate(-509.749 -3327.254)"/>
                <path id="Trazado_489" fill="#b71313" d="M519.857 3349.436a8.33 8.33 0 0 0-4.582-3.466l-4.591-1.4a8.655 8.655 0 0 1-.948 2.419c-.655 1.185-1.627 2.355-2.841 2.355-1.583 0-3.029-1.173-4.086-2.355a14.914 14.914 0 0 1-1.742-2.407l-4.77 2.21a7.106 7.106 0 0 0-3.909 4.733l-2.527 10.082 5.479 4.07 1.588-5.5.914 12.97h18.021l1.638-13.8 4.293 3.861 3.561-5.216z" transform="translate(-489.848 -3323.536)"/>
                <path id="Trazado_490" d="M594.914 3335.611l-.274-.046-.043-.168a.755.755 0 0 0-.681-.566l-3.847-.26-2.676-1.088 1.494-1.865a.751.751 0 0 0-.079-1.024l-3.152 2.429a2.829 2.829 0 0 0-.754.88l-.866 1.578-13.153 19.267 1.807 1.651a3.047 3.047 0 0 0 4.782-.89l8.546-17.13 3.114.3a5.4 5.4 0 0 0 2.081-.208l1.648-.5a.5.5 0 0 0 .315-.663l1.174-.226a.508.508 0 0 0 .409-.445l.02-.19h.072a.418.418 0 0 0 .418-.418.417.417 0 0 0-.355-.418z" class="cls-12" transform="translate(-538.931 -3315.068)"/>
                <path id="Trazado_491" d="M572.226 3378.627l-5 3.921 1.44 1.3z" class="cls-20" transform="translate(-536.718 -3344.168)"/>
                <g id="Grupo_170" transform="translate(9.722 21.392)">
                    <path id="Trazado_492" d="M521.994 3351.578a5.907 5.907 0 0 1-3.03-.906 10.846 10.846 0 0 1-2.367-1.975 16.3 16.3 0 0 1-2.107-2.872l.265-.123a15.983 15.983 0 0 0 2.062 2.8 10.532 10.532 0 0 0 2.3 1.918 5.615 5.615 0 0 0 2.877.863 3.61 3.61 0 0 0 2.4-.889 6.033 6.033 0 0 0 1.464-1.985 11.225 11.225 0 0 0 .921-2.935l.285.087a11.1 11.1 0 0 1-.941 2.977 6.319 6.319 0 0 1-1.538 2.08 3.9 3.9 0 0 1-2.591.96z" class="cls-16" transform="translate(-514.491 -3345.475)"/>
                </g>
                <circle id="Elipse_63" cx="3.275" cy="3.275" r="3.275" class="cls-21" transform="translate(24.69 81.345)"/>
                <circle id="Elipse_64" cx="3.275" cy="3.275" r="3.275" class="cls-21" transform="translate(7.533 81.345)"/>
                <path id="Trazado_493" d="M559.854 3351.551a2.093 2.093 0 0 1-3.119-2.456 8.334 8.334 0 0 1 3.119 2.456z" class="cls-20" transform="translate(-530.289 -3326.276)"/>
                <path id="Trazado_494" d="M501.143 3351.968a2.091 2.091 0 0 1-3.331 1.684 7.1 7.1 0 0 1 2.91-2.944 2.083 2.083 0 0 1 .421 1.26z" class="cls-20" transform="translate(-494.664 -3327.254)"/>
                <path id="Trazado_497" d="M580.046 3392.994a3.049 3.049 0 0 1-4.233.385 2.168 2.168 0 0 1 4.233-.385z" class="cls-14" transform="translate(-541.921 -3351.935)"/>
                <path id="Trazado_498" d="M524.919 3426.586s13.344 2.752 13.342 2.74l-.413-2.373-5.866-.633z" class="cls-21" transform="translate(-511.087 -3373.062)"/>
            </g>
            <path id="Trazado_1090" d="M580.034 3392.99a3.041 3.041 0 0 1-4.221.384 2.162 2.162 0 0 1 4.221-.384z" class="cls-14" transform="translate(-551.866 -3348.387)"/>
        </g>
        <g id="Grupo_379" transform="translate(177.462 18.634)">
            <path id="Trazado_579" d="M1359.907 2581.677h5.352l1.853 2.233h11.588a1.419 1.419 0 0 1 1.419 1.419l.209 12.269a1.419 1.419 0 0 1-1.419 1.419h-19a1.419 1.419 0 0 1-1.419-1.419v-14.5a1.419 1.419 0 0 1 1.417-1.421z" class="cls-11" transform="translate(-1358.488 -2581.677)"/>
            <path id="Trazado_580" d="M1366.268 2595.252h15.224a1.167 1.167 0 0 1 1.136 1.2v5.879a1.167 1.167 0 0 1-1.136 1.2h-15.224a1.167 1.167 0 0 1-1.137-1.2v-5.879a1.167 1.167 0 0 1 1.137-1.2z" class="cls-7" transform="translate(-1363.023 -2590.944)"/>
            <path id="Trazado_581" d="M1359.907 2602.278h19a1.5 1.5 0 0 1 1.419 1.561v7.679a1.5 1.5 0 0 1-1.419 1.561h-19a1.5 1.5 0 0 1-1.419-1.561v-7.679a1.5 1.5 0 0 1 1.419-1.561z" class="cls-9" transform="translate(-1358.488 -2595.74)"/>
        </g>
        <g id="Grupo_382" transform="translate(17.988 101.364)">
            <path id="Rectángulo_197" d="M0 0H12.388V10.735H0z" class="cls-22" transform="rotate(25.84 12.498 54.49)"/>
            <path id="Rectángulo_198" d="M0 0H12.388V10.735H0z" class="cls-22" transform="rotate(-7.25 29.922 -94.789)"/>
            <path id="Trazado_1092" fill="#ee9191" d="M0 0h21.813v21.813H0z" transform="translate(18.258 6.063)"/>
            <path id="Rectángulo_200" fill="#e2b6b6" d="M0 0H12.016V21.813H0z" transform="translate(6.242 6.063)"/>
            <path id="Trazado_564" d="M1434.852 2913.846l-6.242 6.686h13.557l4.7-6.686z" class="cls-25" transform="translate(-1428.61 -2907.783)"/>
            <path id="Trazado_565" d="M1489.979 2913.809l4.455 6.772h-21.781l-4.487-6.805z" class="cls-26" transform="translate(-1449.908 -2907.745)"/>
            <path id="Trazado_566" d="M1477.169 2904l-.877 4.417 2.37-4.606z" class="cls-17" transform="translate(-1454.283 -2902.381)"/>
        </g>
        <g id="Grupo_384" transform="translate(0 124.815)">
            <path id="Rectángulo_235-2" d="M0 0H30.706V30.706H0z" class="cls-7" transform="translate(16.914)"/>
            <path id="Rectángulo_236" d="M0 0H16.914V30.706H0z" class="cls-26"/>
            <path id="Rectángulo_237-2" d="M0 0H16.914V0.899H0z" class="cls-25" transform="translate(0 5.25)"/>
            <path id="Rectángulo_238-2" d="M0 0H30.706V0.899H0z" class="cls-26" transform="translate(16.914 5.25)"/>
            <rect id="Rectángulo_239-2" width="12.075" height=".799" class="cls-25" rx=".4" transform="translate(26.229 9.746)"/>
        </g>
    </g>
</svg>
