<svg xmlns="http://www.w3.org/2000/svg" width="199.3" height="153.67" viewBox="0 0 199.3 153.67">
    <defs>
        <style>
            .cls-1{fill:#d56060}.cls-2{fill:#6a1818}.cls-3{fill:#ffd2d2}.cls-4{fill:#e28686}.cls-5{fill:#ffaeae}.cls-6{fill:#aec3ff}.cls-7{fill:#fcbeb7}.cls-8{fill:#311643}.cls-9{fill:#f49795}.cls-10{fill:none}.cls-11{fill:#fff}.cls-12{fill:#f9afab}.cls-14{fill:#6c2f2f}.cls-15{fill:#ff8989}.cls-16{fill:#b7b7b7}.cls-17{fill:#a34a4a}.cls-18{fill:#d34a4a}
        </style>
    </defs>
    <g id="Grupo_399" transform="translate(-2249.441 -1486.554)">
        <g id="code_lines" transform="translate(2365.685 1486.554)">
            <path id="Path" d="M1.193 1.916H.737C.324 1.916 0 1.68 0 1.381V.535C0 .235.324 0 .737 0h.457c.412 0 .737.235.737.535v.846c-.001.299-.325.535-.738.535z" class="cls-1" transform="translate(13.966)"/>
            <path id="Path-2" d="M12.493 1.916H.737C.324 1.916 0 1.68 0 1.381V.535C0 .235.324 0 .737 0h11.756c.412 0 .737.235.737.535v.846c-.001.299-.325.535-.737.535z" class="cls-2"/>
            <path id="Path-3" d="M13.686 1.916H.737C.324 1.916 0 1.68 0 1.381V.535C0 .235.324 0 .737 0h12.949c.412 0 .737.235.737.535v.846c0 .299-.339.535-.737.535z" class="cls-2" transform="translate(.015 8.894)"/>
            <path id="Path-4" d="M21.641 1.916H.737C.324 1.916 0 1.68 0 1.381V.535C0 .235.324 0 .737 0h20.9c.412 0 .737.235.737.535v.846c.004.299-.32.535-.733.535z" class="cls-1" transform="translate(3.654 5.929)"/>
            <path id="Path-5" d="M11.344 1.916H.737C.324 1.916 0 1.68 0 1.381V.535C0 .235.324 0 .737 0h10.607c.412 0 .737.235.737.535v.846c-.001.299-.325.535-.737.535z" class="cls-1" transform="translate(27.284 5.929)"/>
            <path id="Path-6" d="M1.193 1.916H.737C.324 1.916 0 1.68 0 1.381V.535C0 .235.324 0 .737 0h.457c.412 0 .737.235.737.535v.846c-.001.289-.325.535-.738.535z" class="cls-2" transform="translate(41.53 2.975)"/>
            <path id="Path-7" d="M22.407 1.916H.737C.324 1.916 0 1.68 0 1.381V.535C0 .235.324 0 .737 0h21.67c.412 0 .737.235.737.535v.846c0 .299-.324.535-.737.535z" class="cls-2" transform="translate(0 2.965)"/>
            <path id="Path-8" d="M12.493 1.916H.737C.324 1.916 0 1.68 0 1.381V.535C0 .235.324 0 .737 0h11.756c.412 0 .737.235.737.535v.846c-.001.299-.339.535-.737.535z" class="cls-2" transform="translate(16.75)"/>
            <path id="Path-9" d="M15.587 1.927H.737C.324 1.927 0 1.691 0 1.391V.535C0 .235.324 0 .737 0h14.85c.412 0 .737.235.737.535v.856c-.001.289-.324.536-.737.536z" class="cls-1" transform="translate(24.175 2.965)"/>
        </g>
        <g id="code_lines_1_" transform="translate(2365.685 1502.886)">
            <path id="Path-10" d="M12.493 1.916H.737C.324 1.916 0 1.68 0 1.381V.535C0 .235.324 0 .737 0h11.756c.412 0 .737.235.737.535v.846c-.001.299-.325.535-.737.535z" class="cls-2" transform="translate(0 2.868)"/>
            <path id="Path-11" d="M13.686 1.916H.737C.324 1.916 0 1.68 0 1.381V.535C0 .235.324 0 .737 0h12.949c.412 0 .737.235.737.535v.846c0 .289-.339.535-.737.535z" class="cls-2" transform="translate(.015 11.762)"/>
            <path id="Path-12" d="M21.641 1.916H.737C.324 1.916 0 1.68 0 1.381V.535C0 .235.324 0 .737 0h20.9c.412 0 .737.235.737.535v.846c.004.299-.32.535-.733.535z" class="cls-1" transform="translate(3.654 8.798)"/>
            <path id="Path-13" d="M11.344 1.916H.737C.324 1.916 0 1.68 0 1.381V.535C0 .235.324 0 .737 0h10.607c.412 0 .737.235.737.535v.846c-.001.299-.325.535-.737.535z" class="cls-1" transform="translate(27.284 8.798)"/>
            <path id="Path-14" d="M1.193 1.916H.737C.324 1.916 0 1.68 0 1.381V.535C0 .235.324 0 .737 0h.457c.412 0 .737.235.737.535v.846c-.001.289-.325.535-.738.535z" class="cls-2" transform="translate(41.53 5.844)"/>
            <path id="Path-15" d="M1.193 1.916H.737C.324 1.916 0 1.68 0 1.381V.535C0 .235.324 0 .737 0h.457c.412 0 .737.235.737.535v.846c-.001.299-.325.535-.738.535z" class="cls-2" transform="translate(44.889 2.868)"/>
            <path id="Path-16" d="M22.407 1.916H.737C.324 1.916 0 1.68 0 1.381V.535C0 .235.324 0 .737 0h21.67c.412 0 .737.235.737.535v.846c0 .299-.324.535-.737.535z" class="cls-2" transform="translate(0 5.833)"/>
            <path id="Path-17" d="M15.262 1.916H.737C.324 1.916 0 1.68 0 1.381V.535C0 .235.324 0 .737 0h14.525c.412 0 .737.235.737.535v.846c.001.299-.339.535-.737.535z" class="cls-1" transform="translate(13.981 2.868)"/>
            <path id="Path-18" d="M12.493 1.916H.737C.324 1.916 0 1.68 0 1.381V.535C0 .235.324 0 .737 0h11.756c.412 0 .737.235.737.535v.846c-.001.299-.325.535-.737.535z" class="cls-1" transform="translate(30.996 2.868)"/>
            <path id="Path-19" d="M1.193 1.916H.737C.324 1.916 0 1.68 0 1.381V.535C0 .235.324 0 .737 0h.457c.412 0 .737.235.737.535v.846c-.001.289-.325.535-.738.535z" class="cls-1" transform="translate(13.966)"/>
            <path id="Path-20" d="M12.493 1.916H.737C.324 1.916 0 1.68 0 1.381V.535C0 .235.324 0 .737 0h11.756c.412 0 .737.235.737.535v.846c-.001.289-.325.535-.737.535z" class="cls-2"/>
            <path id="Path-21" d="M12.493 1.916H.737C.324 1.916 0 1.68 0 1.381V.535C0 .235.324 0 .737 0h11.756c.412 0 .737.235.737.535v.846c-.001.289-.339.535-.737.535z" class="cls-2" transform="translate(16.75)"/>
            <path id="Path-22" d="M15.587 1.927H.737C.324 1.927 0 1.691 0 1.391V.535C0 .235.324 0 .737 0h14.85c.412 0 .737.235.737.535v.856c-.001.289-.324.536-.737.536z" class="cls-1" transform="translate(24.175 5.833)"/>
        </g>
        <g id="Grupo_398" transform="translate(2249.441 1499.055)">
            <g id="Grupo_359" transform="translate(16.881)">
                <g id="Grupo_8" transform="translate(0 40.921)">
                    <path id="Trazado_23" d="M1102.646 686.4l-5.025 41.66h-1.648L1101 686.4z" class="cls-3" transform="translate(-1073.767 -639.588)"/>
                    <path id="Trazado_24" d="M1057.379 686.4l-.565 4.685-4.46 36.975h-1.648l4.482-37.158.543-4.5z" class="cls-3" transform="translate(-1050.706 -639.587)"/>
                    <path id="Trazado_25" d="M1102.646 728.061H1101l-.695-5.762-.824-6.831-2.713-22.468-.8-6.6h1.648l.818 6.784 1.863 15.45.824 6.831z" class="cls-3" transform="translate(-1073.767 -639.587)"/>
                    <path id="Trazado_26" d="M1147.913 728.061h-1.648l-3.9-32.336-1.124-9.325h1.648l1.146 9.5z" class="cls-3" transform="translate(-1096.827 -639.587)"/>
                    <g id="Grupo_7" transform="translate(5.105 18.965)">
                        <path id="Rectángulo_1" d="M0 0H1.648V25.2H0z" class="cls-3"/>
                        <path id="Rectángulo_2" d="M0 0H1.648V25.2H0z" class="cls-3" transform="translate(22.395)"/>
                    </g>
                    <path id="Trazado_27" d="M1122.495 681h-22.644a1.324 1.324 0 0 1 1.325 1.324 1.325 1.325 0 0 1-1.325 1.324h22.644a1.325 1.325 0 0 0 1.325-1.324 1.324 1.324 0 0 0-1.325-1.324z" class="cls-3" transform="translate(-1075.742 -636.837)"/>
                    <path id="Trazado_28" d="M1079.5 682.326a1.324 1.324 0 0 0-1.324-1.324h-19.551a1.324 1.324 0 0 0-1.324 1.324 1.324 1.324 0 0 0 1.324 1.324h19.551a1.325 1.325 0 0 0 1.324-1.324z" class="cls-4" transform="translate(-1054.064 -636.837)"/>
                    <rect id="Rectángulo_3" width="30.428" height="18.965" class="cls-3" rx="3.763" transform="translate(1.913)"/>
                    <path id="Trazado_29" d="M1062.033 686.4l-.565 4.685-1.626-.183.543-4.5z" class="cls-5" transform="translate(-1055.36 -639.587)"/>
                    <path id="Trazado_30" d="M1097.621 686.4l.818 6.784-1.671-.188-.8-6.6z" class="cls-5" transform="translate(-1073.767 -639.587)"/>
                    <path id="Trazado_31" d="M1144.035 695.906l-1.67-.18-1.124-9.325h1.648z" class="cls-5" transform="translate(-1096.827 -639.587)"/>
                    <path id="Trazado_32" d="M1061.113 629.632h1.648v3.48l-1.648-.182z" class="cls-6" transform="translate(-1056.008 -610.667)"/>
                    <path id="Trazado_33" d="M1108.413 629.632v5.96l-1.648-.182v-5.777z" class="cls-6" transform="translate(-1079.265 -610.667)"/>
                </g>
                <g id="Grupo_16" transform="translate(4.232)">
                    <g id="Grupo_14" transform="translate(12.099)">
                        <g id="Grupo_9" transform="translate(0 7.233)">
                            <path id="Trazado_34" d="M1105.758 540.773c-6.421 1.07-14.422-1.32-15.426-2.841-2.325 3.543-3.506 3.432-3.506 3.432v2.657l-.525-.525c-.162-.366-.419-.729-.8-.729-2.115 0-2.262 5.88 1.3 6.221.07.23.143.446.217.641v9.413h8.026v-3.7a5.862 5.862 0 0 0 1.532.234c3.164 0 8.557-4.653 9.169-12.076.03-1.405.013-2.727.013-2.727z" class="cls-7" transform="translate(-1083.997 -537.932)"/>
                        </g>
                        <path id="Trazado_35" d="M1096.955 523.187c-5.536 0-6.643 2.952-6.643 2.952-2.362 0-5.979 4.318-3.8 9.116l.011.011 1.244 1.244v-2.657s1.181.111 3.506-3.432c1 1.522 9 3.912 15.426 2.841 0 0 .017 1.322-.02 2.723 2.396-6.935-2.418-12.798-9.724-12.798z" class="cls-8" transform="translate(-1084.936 -523.187)"/>
                        <g id="Grupo_10" transform="translate(9.196 13.111)">
                            <path id="Trazado_36" d="M1103.185 551.626a.443.443 0 0 1-.443-.443v-.828a.443.443 0 0 1 .886 0v.828a.443.443 0 0 1-.443.443z" class="cls-8" transform="translate(-1102.742 -549.913)"/>
                        </g>
                        <g id="Grupo_11" transform="translate(17.407 13.111)">
                            <path id="Trazado_37" d="M1119.923 551.626a.443.443 0 0 1-.443-.443v-.828a.443.443 0 0 1 .886 0v.828a.443.443 0 0 1-.443.443z" class="cls-8" transform="translate(-1119.48 -549.913)"/>
                        </g>
                        <g id="Grupo_12" transform="translate(10.633 18.409)">
                            <path id="Trazado_38" d="M1107.934 562.3a2.531 2.531 0 0 1-1.655-.568 2.248 2.248 0 0 1-.589-.729.2.2 0 0 1 .369-.168 2.07 2.07 0 0 0 2.215 1.039.2.2 0 1 1 .047.4 3.356 3.356 0 0 1-.387.026z" class="cls-8" transform="translate(-1105.672 -560.713)"/>
                        </g>
                        <circle id="Elipse_2" cx="2.19" cy="2.19" r="2.19" class="cls-9" transform="translate(4.509 14.116)"/>
                        <path id="Trazado_39" d="M1124.311 552.333a15.619 15.619 0 0 1-1.331 4 2.19 2.19 0 1 1 1.331-4z" class="cls-9" transform="translate(-1102.797 -537.846)"/>
                        <g id="Grupo_13" transform="translate(6.536 9.646)">
                            <circle id="Elipse_3" cx="2.697" cy="2.697" r="2.697" class="cls-10" transform="translate(.406 .406)"/>
                            <circle id="Elipse_4" cx="2.697" cy="2.697" r="2.697" class="cls-10" transform="rotate(-9.217 9.525 -50.551)"/>
                            <path id="Trazado_40" d="M1108.634 542.85a3.108 3.108 0 0 0-3.085 2.771 2.385 2.385 0 0 0-2.041 0 3.107 3.107 0 1 0 .015.448 2.027 2.027 0 0 1 2.011 0 3.1 3.1 0 1 0 3.1-3.22zm-8.211 5.8a2.7 2.7 0 1 1 2.7-2.7 2.7 2.7 0 0 1-2.7 2.7zm8.211 0a2.7 2.7 0 1 1 2.7-2.7 2.7 2.7 0 0 1-2.7 2.7z" class="cls-11" transform="translate(-1097.32 -542.85)"/>
                        </g>
                        <path id="Trazado_41" d="M1100.86 574.12v-3.7a17.856 17.856 0 0 1-5.434-2.886z" class="cls-12" transform="translate(-1089.819 -545.778)"/>
                    </g>
                    <path id="Trazado_42" fill="#ebedf4" d="M1149.6 696.069l-1.676-.229-1.587-13.158h1.648z" transform="translate(-1103.658 -598.902)"/>
                    <path id="Trazado_44" d="M1137.374 607.473l2.63 7.233-8.949 1.226-.736-5.326z" class="cls-7" transform="translate(-1095.879 -563.802)"/>
                    <path id="Trazado_45" d="M1113.628 756.493v6.007a1.269 1.269 0 0 0 1.268 1.269h17.039a.294.294 0 0 0 .293-.293v-1.107a1.366 1.366 0 0 0-.8-1.242l-9.852-4.633z" class="cls-14" transform="translate(-1086.993 -634.374)"/>
                    <path id="Trazado_46" d="M1113.628 749.526v3.418h7.947l.549-3.418z" class="cls-7" transform="translate(-1086.993 -630.825)"/>
                    <path id="Trazado_47" d="M1082.459 573.845l10.789 4.873a7.075 7.075 0 0 1 3.418 3.288l4.161 8.336-6.3 2.79v25.779h-29.512v-23h-5.68V584.97a7.228 7.228 0 0 1 4.444-6.67l10.67-4.455s4.659 3.055 8.01 0z" class="cls-15" transform="translate(-1059.333 -546.726)"/>
                    <g id="Grupo_15" transform="translate(13.182 27.157)">
                        <path id="Trazado_48" d="M1098.4 575.508a9.09 9.09 0 0 1-5.746 2.025 9.347 9.347 0 0 1-6.1-2.337l-.343.144a9.747 9.747 0 0 0 6.445 2.518 9.411 9.411 0 0 0 6.08-2.2z" class="cls-11" transform="translate(-1086.205 -575.196)"/>
                    </g>
                    <path id="Trazado_49" d="M1147.715 756.493v6.007a1.268 1.268 0 0 0 1.268 1.269h17.039a.294.294 0 0 0 .294-.293v-1.107a1.365 1.365 0 0 0-.8-1.242l-9.852-4.633z" class="cls-14" transform="translate(-1104.358 -634.374)"/>
                    <path id="Trazado_50" d="M1147.715 749.526v3.418h7.947l.55-3.418z" class="cls-7" transform="translate(-1104.358 -630.825)"/>
                    <path id="Trazado_51" d="M1102.2 650.721v.321a14.605 14.605 0 0 0 14.605 14.616h6.784l.939 33.533h8.5l6.268-39.982a7.35 7.35 0 0 0-7.261-8.488z" class="cls-16" transform="translate(-1081.171 -580.49)"/>
                    <path id="Trazado_52" d="M1170.29 659.139a4.069 4.069 0 1 1-3.625-6.355 7.358 7.358 0 0 1 3.625 6.355z" class="cls-17" transform="translate(-1112.074 -584.917)"/>
                    <path id="Trazado_53" d="M1139.1 665.419l.925 7.727h-5.566z" class="cls-17" transform="translate(-1097.602 -590.952)"/>
                    <path id="Trazado_54" d="M1068.113 650.721v.321a14.6 14.6 0 0 0 14.6 14.616h6.785l.939 33.533h8.5l6.268-39.982a7.35 7.35 0 0 0-7.261-8.488z" class="cls-16" transform="translate(-1063.806 -580.49)"/>
                    <path id="Trazado_55" d="M1059.333 615.679l.375 14.229c.1 3.845 2.967 6.906 6.467 6.906h22.532l1.513-5.793-19.875-3.6-.14-11.818z" class="cls-7" transform="translate(-1059.333 -566.992)"/>
                    <path id="Trazado_56" d="M1065.25 640.093a2.687 2.687 0 0 1-.955 2.057 5.221 5.221 0 0 1-3.922-3.635 2.693 2.693 0 0 1 4.877 1.577z" class="cls-12" transform="translate(-1058.863 -572.043)"/>
                    <path id="Trazado_57" d="M1077.2 615.6l2.46 9.054-2.347-.387-.113-8.667" class="cls-18" transform="translate(-1066.434 -567.181)"/>
                    <path id="Trazado_58" d="M1102.556 637.9l-2.864 6.493h3.883l1.22-5.974z" class="cls-12" transform="translate(-1073.909 -574.287)"/>
                    <path id="Trazado_59" d="M1132.133 613.161h-26.7a2.544 2.544 0 0 0-2.445 1.843l-4.893 17.044h-10.828a.942.942 0 1 0 0 1.884h42.283l5.031-17.525a2.544 2.544 0 0 0-2.448-3.246z" class="cls-17" transform="translate(-1068.813 -562.747)"/>
                    <path id="Trazado_60" d="M1136.1 658.977a4.069 4.069 0 1 1-3.633-6.2 7.36 7.36 0 0 1 3.633 6.2z" class="cls-17" transform="translate(-1094.602 -584.912)"/>
                    <ellipse id="Elipse_5" cx="1.283" cy=".879" class="cls-15" rx="1.283" ry=".879" transform="rotate(-84.95 59.144 5.079)"/>
                    <path id="Trazado_61" d="M1064.338 588.264a2.383 2.383 0 0 1-4.533 1.025 7.227 7.227 0 0 1 1.992-3.4c.052 0 .105-.005.159-.005a2.383 2.383 0 0 1 2.382 2.38z" class="cls-18" transform="translate(-1059.573 -553.109)"/>
                    <path id="Trazado_62" d="M1131.281 586.709a2.382 2.382 0 0 1-3.438-3.085l.168.076a7.073 7.073 0 0 1 3.27 3.009z" class="cls-18" transform="translate(-1094.096 -552.053)"/>
                </g>
            </g>
            <g id="Grupo_358" transform="translate(0 63.246)">
                <path id="Trazado_182" d="M1931.036 634.281l-8.315 67.229h-1.651l8.315-67.229z" class="cls-3" transform="translate(-1771.268 -623.587)"/>
                <g id="Grupo_70" transform="translate(0 10.694)">
                    <path id="Trazado_221" d="M1762.261 634.281l-2.224 17.987-6.091 49.242h-1.651l6.073-49.1 2.242-18.127z" class="cls-3" transform="translate(-1752.295 -634.281)"/>
                    <path id="Trazado_222" d="M1806.8 701.51h-1.651l-6.259-50.6-2.056-16.624h1.651l2.039 16.486z" class="cls-3" transform="translate(-1774.984 -634.281)"/>
                    <path id="Trazado_223" d="M1766.917 634.281h1.651l-2.224 17.987-1.668.141z" class="cls-5" transform="translate(-1758.602 -634.281)"/>
                    <path id="Trazado_224" d="M1798.484 634.281l2.039 16.486-1.634.138-2.056-16.624z" class="cls-5" transform="translate(-1774.984 -634.281)"/>
                </g>
                <g id="Grupo_71" transform="translate(189.334 10.694)">
                    <path id="Trazado_225" d="M1975.574 701.51h-1.651l-7.114-57.515-1.2-9.713h1.651l1.184 9.576z" class="cls-3" transform="translate(-1965.608 -634.281)"/>
                    <path id="Trazado_226" d="M1968.443 643.857l-1.634.138-1.2-9.713h1.651z" class="cls-5" transform="translate(-1965.608 -634.281)"/>
                </g>
                <g id="Grupo_72" transform="translate(3.031 8.041)">
                    <path id="Trazado_227" d="M1973.831 628.873h-167.575v2.653h167.575c1.459 0 2.64-.594 2.64-1.326 0-.734-1.182-1.327-2.64-1.327z" class="cls-3" transform="translate(-1782.816 -628.873)"/>
                    <path id="Trazado_228" d="M1764.774 628.873h-4.974a1.326 1.326 0 0 0-1.326 1.327 1.327 1.327 0 0 0 1.326 1.326h22.114v-2.653z" class="cls-4" transform="translate(-1758.473 -628.873)"/>
                </g>
                <g id="Grupo_73" transform="translate(161.269)">
                    <path id="Trazado_229" fill="#d76262" d="M1955.854 621.732v-.676a.379.379 0 0 0-.379-.379h-15.693a1.433 1.433 0 0 0-1.433 1.433v1.153a1.434 1.434 0 0 0 1.433 1.434h15.693a.379.379 0 0 0 .379-.379v-.677a.379.379 0 0 0-.379-.379h-15.116a.576.576 0 0 1-.576-.576.577.577 0 0 1 .576-.577h15.116a.379.379 0 0 0 .379-.377z" transform="translate(-1938.349 -616.656)"/>
                    <path id="Trazado_230" d="M1956.664 623.6v1.153h-14.817a.576.576 0 0 1-.577-.576.577.577 0 0 1 .577-.577z" class="cls-3" transform="translate(-1939.838 -618.145)"/>
                    <path id="Trazado_231" fill="#f9a0a0" d="M1955.9 613.536v-.677a.379.379 0 0 0-.378-.379h-13.45a1.434 1.434 0 0 0-1.434 1.434v1.153a1.434 1.434 0 0 0 1.434 1.434h13.45a.379.379 0 0 0 .378-.379v-.676a.379.379 0 0 0-.378-.379h-12.874a.576.576 0 0 1-.576-.576.576.576 0 0 1 .576-.576h12.874a.379.379 0 0 0 .378-.379z" transform="translate(-1939.513 -612.481)"/>
                    <path id="Trazado_232" fill="#ffd9d9" d="M1956.887 615.4v1.153h-12.754a.576.576 0 0 1-.576-.576.576.576 0 0 1 .576-.576z" transform="translate(-1941.002 -613.97)"/>
                </g>
            </g>
        </g>
        <g id="mug" transform="translate(2387.806 1554.776)">
            <path id="handle_5_" d="M.965.008A2.88 2.88 0 0 1 4.1 2.6a2.841 2.841 0 0 1-2.714 3.014 3.413 3.413 0 0 1-.665-.022.292.292 0 0 1-.254-.33.3.3 0 0 1 .344-.244 2.8 2.8 0 0 0 .539.017A2.251 2.251 0 0 0 3.5 2.647 2.283 2.283 0 0 0 1.013.586 2.746 2.746 0 0 0 .4.708.305.305 0 0 1 .016.524.288.288 0 0 1 .207.158a3.377 3.377 0 0 1 .758-.15z" class="cls-2" transform="translate(10.338 3.927)"/>
            <path id="spoon" d="M.111.066a.312.312 0 0 1 .412.026l.013.014L4.295 4.5a.282.282 0 0 1-.042.408.312.312 0 0 1-.413-.027l-.013-.014L.069.474A.282.282 0 0 1 .111.066z" class="cls-2" transform="translate(.252)"/>
            <path id="mug_2_" d="M8.122 11.194h-5.1a3.123 3.123 0 0 1-1.178-.227 3.016 3.016 0 0 1-.961-.621 2.88 2.88 0 0 1-.647-.922A2.789 2.789 0 0 1 0 8.294V0h11.144v8.294a2.789 2.789 0 0 1-.237 1.13 2.88 2.88 0 0 1-.647.922 3.016 3.016 0 0 1-.961.621 3.123 3.123 0 0 1-1.177.227zm-1.27-8.265a.2.2 0 0 0-.181.116L5.048 6.931a.271.271 0 0 0-.02.086.2.2 0 0 0 .2.193.2.2 0 0 0 .183-.11l1.622-3.891a.2.2 0 0 0-.181-.28zm.806.783a.2.2 0 0 0-.141.058.172.172 0 0 0-.06.135.192.192 0 0 0 .1.174l1.733 1-1.733 1a.2.2 0 0 0-.1.174.2.2 0 0 0 .2.193.175.175 0 0 0 .1-.029l2.015-1.16a.185.185 0 0 0 .111-.174.214.214 0 0 0-.109-.183L7.759 3.741a.175.175 0 0 0-.101-.029zm-3.244 0a.175.175 0 0 0-.1.029L2.3 4.9a.192.192 0 0 0 0 .348l2.015 1.16a.175.175 0 0 0 .1.029.2.2 0 0 0 .141-.058.171.171 0 0 0 .06-.135.192.192 0 0 0-.1-.174l-1.733-1 1.733-1a.2.2 0 0 0 .1-.174.2.2 0 0 0-.2-.193z" class="cls-2" transform="translate(0 3.325)"/>
        </g>
    </g>
</svg>
