<svg xmlns="http://www.w3.org/2000/svg" id="Grupo_767" width="228.83" height="140.257" viewBox="0 0 228.83 140.257">
    <defs>
        <style>
            .cls-2{fill:#d76262}.cls-3{fill:#ffd2d2}.cls-4{fill:none}.cls-6{fill:#311643}.cls-7{fill:#fcbeb7}.cls-8{fill:#f9afab}.cls-9{fill:#f49795}.cls-10{fill:#fff}.cls-11{fill:#6c2f2f}.cls-13{fill:#9e4e4e}.cls-15{fill:#a34a4a}.cls-20{fill:#e28686}.cls-21{fill:#ffaeae}.cls-22{fill:#aec3ff}.cls-24{fill:#ff8989}.cls-25{fill:#b7b7b7}.cls-26{fill:#d34a4a}.cls-30{fill:#faefef}
        </style>
    </defs>
    <g id="Grupo_766" transform="translate(92.562)">
        <rect id="Rectángulo_166" width="42.981" height="34.114" fill="#af9b9b" rx="6.312"/>
        <path id="Rectángulo_167" d="M0 0h42.981v9.311a6.312 6.312 0 0 1-6.312 6.312H6.312A6.312 6.312 0 0 1 0 9.311V0z" class="cls-2" transform="translate(0 28.151)"/>
        <rect id="Rectángulo_168" width="22.758" height="1.279" class="cls-3" rx=".639" transform="translate(6.559 32.835)"/>
        <rect id="Rectángulo_169" width="12.627" height="1.279" class="cls-3" rx=".639" transform="translate(6.559 36.323)"/>
        <rect id="Rectángulo_170" width="12.627" height="1.279" class="cls-2" rx=".639" transform="translate(23.004 13.276)"/>
        <rect id="Rectángulo_171" width="7.006" height="1.279" class="cls-2" rx=".639" transform="translate(23.004 16.764)"/>
        <g id="Grupo_161" transform="translate(6.384 7.773)">
            <circle id="Elipse_59" cx="5.602" cy="5.602" r="5.602" class="cls-4" transform="translate(1.588 1.588)"/>
            <path id="Trazado_470" fill="#ffd1d1" d="M630.485 3229.061a.793.793 0 0 1 .794-.793 5.6 5.6 0 1 1 5.6-5.6.794.794 0 1 1 1.587 0 7.19 7.19 0 1 0-7.19 7.189.794.794 0 0 1-.791-.796z" transform="translate(-624.089 -3215.475)"/>
            <path id="Trazado_471" d="M648.351 3232.547a.794.794 0 0 0-.794.794 5.609 5.609 0 0 1-5.6 5.6.794.794 0 1 0 0 1.588 7.2 7.2 0 0 0 7.19-7.19.794.794 0 0 0-.796-.792z" class="cls-2" transform="translate(-634.765 -3226.151)"/>
        </g>
    </g>
    <g id="Grupo_397" transform="translate(0 18.717)">
        <g id="Grupo_387" transform="translate(131.421)">
            <g id="Grupo_251" transform="translate(16.257)">
                <path id="Trazado_720" d="M1534.266 4008.345l-.062 10.851 5.531.032 5.088.029h.351l6.89.039.074-13.175c.03-5.21-4.157-6.14-4.157-6.14s-1.51-2.457-5.946-2.482c-5.337-.031-8.915 3.219-8.938 7.255a5.613 5.613 0 0 0 1.169 3.591zm.1-1.8a4.547 4.547 0 0 0 2.593-3.524c1.471 2.465 5.99 6.027 12.753 3.907a.4.4 0 0 1 .064-.005c1.606.01 1.693 4.476-1.011 4.719-.041.131-.082.255-.125.371l-.041 7.263-6.1-.035.016-2.823a4.5 4.5 0 0 1-1.206.182c-2.517-.013-6.878-3.927-6.943-10.055z" class="cls-6" transform="translate(-1533.096 -3997.501)"/>
                <path id="Trazado_721" d="M1544.628 4025.984v-.389a4.526 4.526 0 0 1-1.206.182c-2.521-.015-6.882-3.929-6.947-10.057a4.546 4.546 0 0 0 2.593-3.523c1.471 2.465 5.991 6.027 12.753 3.908a.458.458 0 0 1 .064 0c1.606.009 1.693 4.476-1.011 4.719q-.061.2-.125.372l-.028 4.885 4.761 2.278-.034 5.892-15.865-.09.034-5.948 5.008-2.223z" class="cls-7" transform="translate(-1535.207 -4006.676)"/>
                <path id="Trazado_722" d="M1544.754 4052.7l.034-5.948 5.008-2.223v-.389a13.818 13.818 0 0 0 4.21-2.241z" class="cls-8" transform="translate(-1540.375 -4025.22)"/>
                <circle id="Elipse_88" cx="1.663" cy="1.663" r="1.663" class="cls-9" transform="translate(11.052 10.957)"/>
                <path id="Trazado_723" d="M1537.014 4026.789a11.847 11.847 0 0 0 .993 3.046 1.663 1.663 0 1 0-.993-3.046z" class="cls-9" transform="translate(-1535.542 -4015.613)"/>
                <g id="Grupo_246" transform="translate(1.61 7.188)">
                    <circle id="Elipse_89" cx="2.048" cy="2.048" r="2.048" class="cls-4" transform="matrix(.388 -.922 .922 .388 0 3.776)"/>
                    <circle id="Elipse_90" cx="2.048" cy="2.048" r="2.048" class="cls-4" transform="rotate(-67.18 5.985 -2.789)"/>
                    <path id="Trazado_724" d="M1538.249 4019.846a2.356 2.356 0 0 0 4.71.116 1.523 1.523 0 0 1 1.527.007 2.353 2.353 0 1 0 .013-.34 1.81 1.81 0 0 0-1.55-.007 2.356 2.356 0 0 0-4.7.225zm6.544.037a2.048 2.048 0 1 1 2.037 2.06 2.05 2.05 0 0 1-2.037-2.059zm-6.235-.036a2.048 2.048 0 1 1 2.036 2.06 2.05 2.05 0 0 1-2.037-2.059z" class="cls-10" transform="translate(-1537.923 -4017.177)"/>
                </g>
                <g id="Grupo_249" transform="translate(3.947 10.258)">
                    <g id="Grupo_247">
                        <path id="Trazado_725" d="M1543.937 4026.109a.337.337 0 0 0 .339-.334v-.628a.336.336 0 1 0-.672 0v.629a.336.336 0 0 0 .333.333z" class="cls-6" transform="translate(-1543.602 -4024.808)"/>
                    </g>
                    <g id="Grupo_248" transform="translate(6.135 .035)">
                        <path id="Trazado_726" d="M1560.268 4026.2a.336.336 0 0 0 .338-.334v-.628a.336.336 0 0 0-.673 0v.628a.336.336 0 0 0 .335.334z" class="cls-6" transform="translate(-1559.934 -4024.903)"/>
                    </g>
                </g>
                <g id="Grupo_250" transform="translate(7.564 14.199)">
                    <path id="Trazado_727" d="M1553.66 4036.493a1.923 1.923 0 0 0 1.259-.424 1.717 1.717 0 0 0 .45-.551.154.154 0 0 0-.28-.129 1.571 1.571 0 0 1-1.687.779.154.154 0 0 0-.037.306 2.511 2.511 0 0 0 .295.019z" class="cls-6" transform="translate(-1553.23 -4035.299)"/>
                </g>
            </g>
            <path id="Trazado_728" d="M1513.527 4298.675l-.646 2.618-6.891 2.121 1.017-4.776z" class="cls-7" transform="translate(-1499.916 -4185.515)"/>
            <path id="Trazado_729" d="M1576.91 4299.026l-.206 3.237.428.161.275 1.388-6.859-2.2-.157-2.623z" class="cls-7" transform="translate(-1540.123 -4185.734)"/>
            <path id="Trazado_730" d="M1490.583 4308.814l5.606-2.372-.295 1.384 6.891-2.121-.011 1.971a1.97 1.97 0 0 1-.942 1.668l-.6 1.688a.364.364 0 0 1-.708-.124l.006-1.1-4.71 1.438-4.756-.027a1.252 1.252 0 0 1-1.245-1.26 1.251 1.251 0 0 1 .764-1.145z" class="cls-11" transform="translate(-1489.819 -4189.928)"/>
            <path id="Trazado_731" d="M1570.761 4307.891l.017-1.971 6.86 2.22-.275-1.389 5.571 2.453a1.252 1.252 0 0 1 .747 1.157 1.252 1.252 0 0 1-1.263 1.241l-4.756-.042-4.852-1.56-.01 1.152a.365.365 0 0 1-.71.114l-.631-1.856a1.967 1.967 0 0 1-.698-1.519z" class="cls-11" transform="translate(-1540.355 -4190.061)"/>
            <path id="Trazado_732" fill="#7d2929" d="M1537.728 4123.393l2.476 10.758a33.676 33.676 0 0 1 .8 9.482l-2.615 45.7-6.52-.038-2.514-47.456-14.142 47.361-6.52-.038 11.856-65.868z" transform="translate(-1501.605 -4076.04)"/>
            <g id="Grupo_252" transform="translate(14.788 20.043)">
                <path id="Trazado_733" d="M1558.877 4059.266c-1.158-.007-2.077-1.127-2.7-2.26l6.6.038c-1.006 1.12-2.391 2.23-3.9 2.222z" class="cls-13" transform="translate(-1546.041 -4054.696)"/>
                <path id="Trazado_734" fill="#d4c6c6" d="M1530.639 4056.259a7.935 7.935 0 0 1 3.871-3.669l3.928-1.735a8.25 8.25 0 0 0 .89 2.311c.618 1.132 1.538 2.253 2.7 2.259 1.508.009 2.894-1.1 3.907-2.222a14.236 14.236 0 0 0 1.673-2.285l4.534 2.132a6.773 6.773 0 0 1 3.7 4.532l2.6 10.7a5.184 5.184 0 0 1-1.347 4.863c-2.088-.747-6.007-2.3-6.007-2.3l-.558 7.318-17.175-.1-4.159-18.945z" transform="translate(-1529.186 -4050.855)"/>
            </g>
            <g id="Grupo_253" transform="translate(22.681 20.526)">
                <path id="Trazado_735" d="M1554.962 4057.833a5.632 5.632 0 0 0 2.893-.847 10.313 10.313 0 0 0 2.266-1.869 15.609 15.609 0 0 0 2.026-2.725l-.254-.12a15.2 15.2 0 0 1-1.98 2.658 10.008 10.008 0 0 1-2.2 1.815 5.352 5.352 0 0 1-2.747.807 3.442 3.442 0 0 1-2.276-.858 5.745 5.745 0 0 1-1.384-1.9 9.952 9.952 0 0 1-.841-2.658l-.265.117a9.655 9.655 0 0 0 .851 2.657 6.02 6.02 0 0 0 1.454 1.991 3.715 3.715 0 0 0 2.457.932z" class="cls-10" transform="translate(-1550.197 -4052.141)"/>
            </g>
            <circle id="Elipse_91" cx="3.121" cy="3.121" r="3.121" class="cls-13" transform="translate(13.78 77.482)"/>
            <circle id="Elipse_92" cx="3.121" cy="3.121" r="3.121" class="cls-13" transform="translate(30.131 77.575)"/>
            <path id="Trazado_736" d="M1590.187 4058.4a1.993 1.993 0 0 0 3.165 1.624 6.77 6.77 0 0 0-2.757-2.821 1.983 1.983 0 0 0-.408 1.197z" class="cls-13" transform="translate(-1552.484 -4034.778)"/>
            <path id="Trazado_737" d="M1524.841 4093.694l-13.214-.574a1.624 1.624 0 0 1-1.488-1.165l-5.669-19.3a.623.623 0 0 1 .625-.8l13.363.581a1.415 1.415 0 0 1 1.3 1.016l5.711 19.438a.623.623 0 0 1-.628.804z" class="cls-15" transform="translate(-1498.951 -4043.927)"/>
            <path id="Trazado_738" fill="#2f3d6c" d="M1516.47 4102.834l-2.326 2.3-.387-1.317z" transform="translate(-1504.765 -4063.265)"/>
            <path id="Trazado_739" d="M1509.381 4093.251l3.331.239a.465.465 0 0 1 .431.471l.331.022a.446.446 0 0 1 .414.4l.039.346a.447.447 0 0 1 .438.455.446.446 0 0 1-.284.408l-.747.292a.972.972 0 0 1-.569.883l-2.325 1.059a1.959 1.959 0 0 1-1.08.159 1.968 1.968 0 0 1-1.662-1.549l-.14-.676a2.182 2.182 0 0 1 .609-2 1.752 1.752 0 0 1 1.214-.509z" class="cls-7" transform="translate(-1500.866 -4057.282)"/>
            <path id="Trazado_740" fill="#972424" d="M1550.964 4057.876l-2.306 5.545a2.513 2.513 0 0 1-.552.825l-.407.4a.127.127 0 0 1-.226-.094v-.571a2.512 2.512 0 0 1 .2-.973l2.306-5.545a.609.609 0 0 1 .75-.4.609.609 0 0 1 .235.813z" transform="translate(-1525.814 -4034.665)"/>
            <path id="Trazado_741" d="M1548.666 4064.275l1.258-1.713a.95.95 0 0 1 .685-.383l2.094-.177a1.046 1.046 0 0 1 .783.258l1.085.953a1.9 1.9 0 0 1 .393.482l1.326 2.131 12.628 10.322a2.731 2.731 0 0 1 .216 4.032 2.731 2.731 0 0 1-4.021-.143l-10.642-12.452-2.245-1.4-1.663.047a.8.8 0 0 1-.805-.634l-.09-.109a.8.8 0 0 1-.169-.675l.1-.468-.539.344a.29.29 0 0 1-.39-.417z" class="cls-7" transform="translate(-1526.525 -4037.77)"/>
            <path id="Trazado_742" fill="#989191" d="M1579.713 4095.006l-4.663-5.457 4.47 7.987z" transform="translate(-1543.033 -4054.971)"/>
            <path id="Trazado_743" fill="#580b0b" d="M1545.823 4129.453l-7.772 2.093.434-2.412z" transform="translate(-1519.932 -4079.686)"/>
            <path id="Trazado_744" d="M1534.915 4058.28a2.075 2.075 0 0 0 2.829-2.376 7.932 7.932 0 0 0-2.829 2.376z" class="cls-13" transform="translate(-1517.975 -4033.964)"/>
            <circle id="Elipse_93" cx="1.928" cy="1.928" r="1.928" class="cls-8" transform="translate(38.675 38.95)"/>
        </g>
        <g id="Grupo_388" transform="translate(56.999 19.416)">
            <g id="Grupo_8" transform="translate(0 25.464)">
                <path id="Trazado_23" d="M1101.083 686.4l-3.848 31.9h-1.262l3.848-31.9z" class="cls-3" transform="translate(-1078.968 -650.553)"/>
                <path id="Trazado_24" d="M1055.816 686.4l-.433 3.588-3.415 28.314h-1.262l3.432-28.454.416-3.448z" class="cls-3" transform="translate(-1050.706 -650.553)"/>
                <path id="Trazado_25" d="M1101.083 718.3h-1.262l-.532-4.412-.631-5.231-2.076-17.208-.609-5.051h1.262l.627 5.2 1.427 11.831.631 5.231z" class="cls-3" transform="translate(-1078.968 -650.553)"/>
                <path id="Trazado_26" d="M1146.35 718.3h-1.262l-2.987-24.761-.861-7.141h1.262l.878 7.278z" class="cls-3" transform="translate(-1107.23 -650.553)"/>
                <g id="Grupo_7" transform="translate(3.909 14.522)">
                    <path id="Rectángulo_1" d="M0 0H1.262V19.297H0z" class="cls-3"/>
                    <path id="Rectángulo_2" d="M0 0H1.262V19.297H0z" class="cls-3" transform="translate(17.149)"/>
                </g>
                <path id="Trazado_27" d="M1117.191 681h-17.34a1.014 1.014 0 0 1 1.014 1.014 1.014 1.014 0 0 1-1.014 1.014h17.34a1.014 1.014 0 0 0 1.014-1.014 1.014 1.014 0 0 0-1.014-1.014z" class="cls-3" transform="translate(-1081.39 -647.182)"/>
                <path id="Trazado_28" d="M1074.3 682.016a1.014 1.014 0 0 0-1.014-1.014h-14.972a1.014 1.014 0 0 0-1.014 1.014 1.014 1.014 0 0 0 1.014 1.014h14.972a1.014 1.014 0 0 0 1.014-1.014z" class="cls-20" transform="translate(-1054.821 -647.182)"/>
                <rect id="Rectángulo_3" width="23.3" height="14.522" class="cls-3" rx="3.763" transform="translate(1.465)"/>
                <path id="Trazado_29" d="M1061.52 686.4l-.433 3.588-1.245-.14.416-3.447z" class="cls-21" transform="translate(-1056.41 -650.553)"/>
                <path id="Trazado_30" d="M1097.235 686.4l.627 5.2-1.28-.144-.609-5.051z" class="cls-21" transform="translate(-1078.968 -650.553)"/>
                <path id="Trazado_31" d="M1143.38 693.679l-1.279-.138-.861-7.14h1.262z" class="cls-21" transform="translate(-1107.231 -650.553)"/>
                <path id="Trazado_32" d="M1061.113 629.632h1.262v2.668l-1.262-.14z" class="cls-22" transform="translate(-1057.203 -615.109)"/>
                <path id="Trazado_33" d="M1108.027 629.632v4.568l-1.262-.14v-4.424z" class="cls-22" transform="translate(-1085.706 -615.109)"/>
            </g>
            <g id="Grupo_16" transform="translate(3.241)">
                <g id="Grupo_14" transform="translate(9.265)">
                    <g id="Grupo_9" transform="translate(0 5.539)">
                        <path id="Trazado_34" d="M1100.661 540.108c-4.917.82-11.044-1.01-11.812-2.176-1.78 2.713-2.685 2.628-2.685 2.628v2.034l-.4-.4c-.124-.281-.321-.559-.615-.559-1.619 0-1.732 4.5.993 4.764.054.176.109.341.166.491v7.21h6.146v-2.835a4.49 4.49 0 0 0 1.173.179c2.423 0 6.552-3.563 7.021-9.247.026-1.077.013-2.089.013-2.089z" class="cls-7" transform="translate(-1083.997 -537.932)"/>
                    </g>
                    <path id="Trazado_35" d="M1094.351 523.187c-4.239 0-5.087 2.261-5.087 2.261-1.808 0-4.578 3.307-2.911 6.98l.008.008.952.952v-2.034s.9.085 2.685-2.628c.768 1.165 6.9 3 11.812 2.176 0 0 .013 1.012-.015 2.085 1.838-5.31-1.848-9.8-7.444-9.8z" class="cls-6" transform="translate(-1085.148 -523.187)"/>
                    <g id="Grupo_10" transform="translate(7.042 10.04)">
                        <path id="Trazado_36" d="M1103.081 551.224a.339.339 0 0 1-.339-.339v-.634a.339.339 0 0 1 .678 0v.634a.339.339 0 0 1-.339.339z" class="cls-6" transform="translate(-1102.742 -549.913)"/>
                    </g>
                    <g id="Grupo_11" transform="translate(13.329 10.04)">
                        <path id="Trazado_37" d="M1119.819 551.224a.339.339 0 0 1-.339-.339v-.634a.339.339 0 0 1 .679 0v.634a.339.339 0 0 1-.34.339z" class="cls-6" transform="translate(-1119.48 -549.913)"/>
                    </g>
                    <g id="Grupo_12" transform="translate(8.142 14.097)">
                        <path id="Trazado_38" d="M1107.4 561.925a1.938 1.938 0 0 1-1.267-.435 1.727 1.727 0 0 1-.451-.558.155.155 0 0 1 .283-.128 1.585 1.585 0 0 0 1.7.8.155.155 0 1 1 .036.309 2.591 2.591 0 0 1-.301.012z" class="cls-6" transform="translate(-1105.672 -560.713)"/>
                    </g>
                    <circle id="Elipse_2" cx="1.677" cy="1.677" r="1.677" class="cls-9" transform="translate(3.453 10.809)"/>
                    <path id="Trazado_39" d="M1123.512 552.246a11.961 11.961 0 0 1-1.019 3.067 1.677 1.677 0 1 1 1.019-3.067z" class="cls-9" transform="translate(-1107.038 -541.153)"/>
                    <g id="Grupo_13" transform="translate(5.005 7.386)">
                        <circle id="Elipse_3" cx="2.065" cy="2.065" r="2.065" class="cls-4" transform="translate(.311 .311)"/>
                        <circle id="Elipse_4" cx="2.065" cy="2.065" r="2.065" class="cls-4" transform="rotate(-9.217 7.29 -38.707)"/>
                        <path id="Trazado_40" d="M1105.984 542.85a2.38 2.38 0 0 0-2.363 2.122 1.826 1.826 0 0 0-1.563 0 2.38 2.38 0 1 0 .012.343 1.552 1.552 0 0 1 1.54 0 2.376 2.376 0 1 0 2.374-2.466zm-6.288 4.441a2.065 2.065 0 1 1 2.065-2.065 2.067 2.067 0 0 1-2.061 2.065zm6.288 0a2.065 2.065 0 1 1 2.065-2.065 2.068 2.068 0 0 1-2.065 2.065z" class="cls-10" transform="translate(-1097.32 -542.85)"/>
                    </g>
                    <path id="Trazado_41" d="M1099.588 572.577v-2.835a13.68 13.68 0 0 1-4.162-2.21z" class="cls-8" transform="translate(-1091.133 -550.874)"/>
                </g>
                <path id="Trazado_42" fill="#ebedf4" d="M1148.839 692.934l-1.283-.176-1.215-10.076h1.262z" transform="translate(-1113.656 -622.767)"/>
                <path id="Trazado_44" d="M1135.9 607.473l1.115 2.137h-5.941z" class="cls-7" transform="translate(-1104.123 -575.811)"/>
                <path id="Trazado_45" d="M1113.628 756.493v4.6a.972.972 0 0 0 .971.971h13.048a.225.225 0 0 0 .225-.225v-.848a1.046 1.046 0 0 0-.61-.951l-7.545-3.548z" class="cls-11" transform="translate(-1093.232 -668.851)"/>
                <path id="Trazado_46" d="M1113.629 749.526v2.617h6.085l.421-2.617z" class="cls-7" transform="translate(-1093.232 -664.501)"/>
                <path id="Trazado_47" d="M1077.042 573.845l8.262 3.732a5.418 5.418 0 0 1 2.617 2.518l3.187 6.383-4.826 2.137.4 14.109h-24.049l1.05-13.178-4.349.028v-7.21a5.535 5.535 0 0 1 3.4-5.108l8.171-3.412s3.571 2.343 6.137.001z" class="cls-24" transform="translate(-1059.333 -554.815)"/>
                <g id="Grupo_15" transform="translate(10.095 19.537)">
                    <path id="Trazado_48" d="M1095.54 575.435a6.961 6.961 0 0 1-4.4 1.55 7.157 7.157 0 0 1-4.673-1.79l-.263.11a7.464 7.464 0 0 0 4.935 1.928 7.207 7.207 0 0 0 4.656-1.688z" class="cls-10" transform="translate(-1086.205 -575.196)"/>
                </g>
                <path id="Trazado_49" d="M1147.715 756.493v4.6a.971.971 0 0 0 .971.971h13.048a.225.225 0 0 0 .225-.225v-.848a1.045 1.045 0 0 0-.611-.951l-7.545-3.548z" class="cls-11" transform="translate(-1114.514 -668.851)"/>
                <path id="Trazado_50" d="M1147.715 749.526v2.617h6.085l.421-2.617z" class="cls-7" transform="translate(-1114.514 -664.501)"/>
                <path id="Trazado_51" d="M1102.2 650.721v.246a11.184 11.184 0 0 0 11.184 11.192h5.2l.719 25.678h6.509l4.8-30.616a5.628 5.628 0 0 0-5.56-6.5z" class="cls-25" transform="translate(-1086.096 -602.812)"/>
                <path id="Trazado_52" d="M1168.55 657.651a3.116 3.116 0 1 1-2.776-4.867 5.634 5.634 0 0 1 2.776 4.867z" class="cls-15" transform="translate(-1123.971 -604.1)"/>
                <path id="Trazado_53" d="M1138.009 665.419l.708 5.917h-4.263z" class="cls-15" transform="translate(-1106.235 -611.989)"/>
                <path id="Trazado_54" d="M1068.113 650.721v.246a11.184 11.184 0 0 0 11.184 11.192h5.2l.719 25.678h6.51l4.8-30.616a5.628 5.628 0 0 0-5.56-6.5z" class="cls-25" transform="translate(-1064.815 -602.812)"/>
                <path id="Trazado_55" d="M1059.333 615.645l.231 7.991a3.994 3.994 0 0 0 3.992 3.878h13.911l.934-3.254-12.27-2.022-.087-6.637z" class="cls-7" transform="translate(-1059.333 -580.886)"/>
                <path id="Trazado_56" d="M1064.108 639.462a2.058 2.058 0 0 1-.731 1.576 4 4 0 0 1-3-2.783 2.063 2.063 0 0 1 3.735 1.208z" class="cls-8" transform="translate(-1059.982 -594.495)"/>
                <path id="Trazado_57" d="M1077.2 615.6l1.884 6.933-1.8-.3-.087-6.637" class="cls-26" transform="translate(-1070.487 -580.886)"/>
                <path id="Trazado_58" d="M1101.885 637.9l-2.193 3.536h2.973l.934-3.253z" class="cls-8" transform="translate(-1084.531 -594.808)"/>
                <path id="Trazado_59" d="M1117.442 613.161H1099.3a1.728 1.728 0 0 0-1.661 1.252l-3.324 11.578h-7.355a.64.64 0 1 0 0 1.28h28.723l3.417-11.9a1.728 1.728 0 0 0-1.658-2.21z" class="cls-15" transform="translate(-1076.184 -579.362)"/>
                <path id="Trazado_60" d="M1134.332 657.524a3.116 3.116 0 1 1-2.782-4.75 5.637 5.637 0 0 1 2.782 4.75z" class="cls-15" transform="translate(-1102.558 -604.094)"/>
                <ellipse id="Elipse_5" cx=".983" cy=".673" class="cls-24" rx=".983" ry=".673" transform="rotate(-84.95 38.335 4.44)"/>
                <path id="Trazado_61" d="M1063.277 587.706a1.825 1.825 0 0 1-3.472.785 5.534 5.534 0 0 1 1.526-2.605h.122a1.825 1.825 0 0 1 1.824 1.82z" class="cls-26" transform="translate(-1059.628 -562.33)"/>
                <path id="Trazado_62" d="M1130.412 585.986a1.824 1.824 0 0 1-2.633-2.362l.129.058a5.417 5.417 0 0 1 2.504 2.304z" class="cls-26" transform="translate(-1101.937 -560.921)"/>
            </g>
        </g>
        <g id="Grupo_391" transform="translate(180.109 16.236)">
            <g id="Grupo_389">
                <path id="Rectángulo_243" d="M0 0H2.05V70.751H0z" class="cls-3" transform="translate(18.261 21.233)"/>
                <rect id="Rectángulo_244" width="31.964" height="2.051" fill="#c88e8e" rx="1.025" transform="translate(3.304 91.984)"/>
                <path id="Trazado_745" d="M1646 4091.955h-38.573l6.675-21.233h25.224z" class="cls-3" transform="translate(-1607.429 -4070.721)"/>
                <path id="Trazado_746" fill="#b74c4c" d="M1658.091 4127.245v12.276l-2.05.7v-12.973z" transform="translate(-1637.78 -4106.012)"/>
                <path id="Trazado_747" fill="#d97f7f" d="M1612.9 4107.221l33.849.016.49 1.56H1612.4z" transform="translate(-1610.535 -4093.51)"/>
            </g>
            <g id="Grupo_390" transform="translate(10.617 49.627)">
                <path id="Trazado_567" d="M1671 2941.478v-1.371a.768.768 0 0 0-.768-.767h-31.814a2.906 2.906 0 0 0-2.906 2.906v2.338a2.906 2.906 0 0 0 2.906 2.906h31.814a.767.767 0 0 0 .768-.767v-1.371a.768.768 0 0 0-.768-.768h-30.645a1.169 1.169 0 0 1-1.169-1.169 1.169 1.169 0 0 1 1.169-1.169h30.645a.768.768 0 0 0 .768-.768z" class="cls-20" transform="translate(-1635.203 -2898.953)"/>
                <path id="Trazado_568" d="M1670.179 2876.386v-1.371a.768.768 0 0 0-.768-.768H1637.6a2.907 2.907 0 0 0-2.906 2.906v2.338a2.906 2.906 0 0 0 2.906 2.906h31.815a.767.767 0 0 0 .768-.768v-1.371a.768.768 0 0 0-.768-.768h-30.646a1.169 1.169 0 0 1-1.169-1.169 1.169 1.169 0 0 1 1.169-1.169h30.646a.768.768 0 0 0 .764-.766z" class="cls-3" transform="translate(-1634.69 -2858.313)"/>
                <path id="Trazado_569" d="M1672.506 2919.78v-1.371a.768.768 0 0 0-.768-.768h-27.268a2.907 2.907 0 0 0-2.907 2.906v2.338a2.906 2.906 0 0 0 2.907 2.906h27.268a.768.768 0 0 0 .768-.768v-1.371a.768.768 0 0 0-.768-.767h-26.1a1.169 1.169 0 0 1-1.169-1.169 1.169 1.169 0 0 1 1.169-1.169h26.1a.768.768 0 0 0 .768-.767z" class="cls-21" transform="translate(-1638.981 -2885.406)"/>
                <path id="Trazado_570" d="M1684.7 2855.278v-1.371a.768.768 0 0 0-.767-.768h-27.268a2.907 2.907 0 0 0-2.906 2.906v2.338a2.906 2.906 0 0 0 2.906 2.906h27.268a.767.767 0 0 0 .767-.767v-1.372a.767.767 0 0 0-.767-.768h-26.1a1.169 1.169 0 0 1-1.169-1.169 1.169 1.169 0 0 1 1.169-1.169h26.1a.768.768 0 0 0 .767-.766z" class="cls-21" transform="translate(-1646.593 -2845.135)"/>
                <path id="Trazado_571" d="M1676.325 2925.378v2.338h-25.856a1.169 1.169 0 0 1-1.169-1.169 1.169 1.169 0 0 1 1.169-1.169z" class="cls-30" transform="translate(-1643.812 -2890.237)"/>
                <path id="Trazado_572" d="M1670.246 2947.076v2.338h-25.856a1.169 1.169 0 0 1-1.169-1.169 1.169 1.169 0 0 1 1.169-1.169z" class="cls-30" transform="translate(-1640.016 -2903.783)"/>
                <path id="Trazado_573" d="M1669.425 2881.984v2.338h-25.856a1.169 1.169 0 0 1-1.169-1.169 1.169 1.169 0 0 1 1.169-1.169z" class="cls-30" transform="translate(-1639.504 -2863.144)"/>
                <path id="Trazado_574" d="M1688.517 2860.876v2.338h-25.856a1.169 1.169 0 0 1-1.169-1.169 1.169 1.169 0 0 1 1.169-1.169z" class="cls-30" transform="translate(-1651.424 -2849.965)"/>
                <path id="Trazado_575" d="M1684.7 2898.083v-1.371a.768.768 0 0 0-.767-.768h-27.268a2.907 2.907 0 0 0-2.906 2.906v2.338a2.907 2.907 0 0 0 2.906 2.906h27.268a.768.768 0 0 0 .767-.768v-1.371a.768.768 0 0 0-.767-.768h-26.1a1.169 1.169 0 0 1-1.169-1.169 1.169 1.169 0 0 1 1.169-1.169h26.1a.768.768 0 0 0 .767-.766z" class="cls-20" transform="translate(-1646.593 -2871.859)"/>
                <path id="Trazado_576" d="M1688.517 2903.681v2.338h-25.856a1.169 1.169 0 0 1-1.169-1.169 1.169 1.169 0 0 1 1.169-1.169z" class="cls-30" transform="translate(-1651.424 -2876.69)"/>
                <path id="Trazado_577" d="M1696.773 2842.275h4.684a.386.386 0 0 1 .383.432l-.4 3.31a.385.385 0 0 1-.383.339h-3.892a.385.385 0 0 1-.382-.339l-.4-3.31a.386.386 0 0 1 .39-.432z" class="cls-3" transform="translate(-1673.211 -2838.352)"/>
                <path id="Trazado_578" d="M1700.4 2834.4v-1.5l-.9 1.711v-2.779l-.708 1.75-.708-1.75v2.779l-.9-1.711v1.5l-1.312-2.11.578 3.461h4.684l.578-3.461z" class="cls-2" transform="translate(-1672.89 -2831.83)"/>
            </g>
        </g>
        <g id="Grupo_393" transform="translate(0 81.404)">
            <path id="Rectángulo_235" d="M0 0H29.265V29.265H0z" class="cls-3" transform="translate(16.12)"/>
            <path id="Rectángulo_236" d="M0 0H16.12V29.265H0z" class="cls-21"/>
            <path id="Rectángulo_237" d="M0 0H16.12V0.857H0z" class="cls-20" transform="translate(0 5.004)"/>
            <path id="Rectángulo_238" d="M0 0H29.265V0.857H0z" class="cls-21" transform="translate(16.12 5.004)"/>
            <rect id="Rectángulo_239" width="11.509" height=".762" class="cls-20" rx=".381" transform="translate(24.998 9.289)"/>
        </g>
        <g id="Grupo_392" transform="translate(27.662 92.114)">
            <path id="Rectángulo_197" d="M0 0H11.806V10.231H0z" class="cls-15" transform="rotate(25.84 11.911 51.933)"/>
            <path id="Rectángulo_198" d="M0 0H11.806V10.231H0z" class="cls-15" transform="rotate(-7.25 28.518 -90.343)"/>
            <path id="Trazado_1092" fill="#ee9191" d="M0 0h20.789v20.789H0z" transform="translate(17.401 5.779)"/>
            <path id="Rectángulo_200" fill="#e2b6b6" d="M0 0H11.452V20.789H0z" transform="translate(5.949 5.779)"/>
            <path id="Trazado_564" d="M1434.559 2913.846l-5.949 6.373h12.921l4.48-6.373z" class="cls-20" transform="translate(-1428.61 -2908.068)"/>
            <path id="Trazado_565" d="M1488.956 2913.807l4.246 6.455h-20.759l-4.276-6.485z" class="cls-21" transform="translate(-1450.765 -2908.029)"/>
            <path id="Trazado_566" d="M1477.127 2903.993l-.836 4.21 2.259-4.389z" class="cls-11" transform="translate(-1455.316 -2902.448)"/>
        </g>
    </g>
</svg>
