<svg xmlns="http://www.w3.org/2000/svg" width="1919.709" height="970" viewBox="0 0 1919.709 970">
    <defs>
        <style>
            .cls-1{fill:rgba(152,152,152,.1)}.cls-2,.cls-3{stroke:none}.cls-3{fill:#c7c7c7}
        </style>
    </defs>
    <g id="Grupo_681" transform="translate(0 -68)">
        <g id="Trazado_1086" class="cls-1">
            <path d="M574.078 246.5H.5V.337c1.663-.669 9.914-3.951 22.965-8.553 13.474-4.751 34.966-11.92 60.836-19.093 29.075-8.062 57.64-14.484 84.902-19.09 34.071-5.757 66.19-8.676 95.466-8.676 10.467 0 20.73.376 30.506 1.117 10.268.778 20.281 1.981 29.762 3.575 9.924 1.669 19.541 3.812 28.583 6.371 9.436 2.67 18.508 5.867 26.966 9.502 8.73 3.752 17.41 8.23 25.795 13.311 8.022 4.86 15.99 10.4 23.681 16.467 7.335 5.786 14.612 12.202 21.63 19.072 6.668 6.527 13.276 13.634 19.64 21.123 22.026 25.917 42.176 57.518 59.894 93.927 6.961 14.307 13.56 29.399 19.61 44.857 4.841 12.367 9.344 24.995 13.385 37.532 6.067 18.824 9.265 31.82 9.957 34.721z" class="cls-2" transform="rotate(-180 959.855 157.712)"/>
            <path d="M264.67-54.575c-29.246 0-61.335 2.916-95.375 8.667-27.244 4.603-55.79 11.02-84.846 19.077C58.592-19.663 37.111-12.498 23.644-7.75 11.274-3.388 3.22-.212 1 .675V246h572.443c-.928-3.825-4.092-16.364-9.798-34.067-4.037-12.528-8.537-25.146-13.374-37.504-6.046-15.446-12.639-30.525-19.595-44.82-17.699-36.371-37.827-67.938-59.824-93.822-6.355-7.478-12.952-14.573-19.61-21.09-7.005-6.857-14.268-13.262-21.59-19.036-7.675-6.054-15.625-11.582-23.63-16.432-8.366-5.069-17.024-9.536-25.733-13.28-8.438-3.626-17.49-6.816-26.905-9.48-9.025-2.554-18.623-4.693-28.53-6.359-9.466-1.591-19.464-2.792-29.717-3.57-9.763-.74-20.014-1.115-30.468-1.115m0-1c41.02 0 81.244 5.662 116.015 20.606C524.36 26.78 574.709 247 574.709 247H0V0s136.187-55.575 264.67-55.575z" class="cls-3" transform="rotate(-180 959.855 157.712)"/>
        </g>
        <g id="Trazado_1081" class="cls-1">
            <path d="M244.998 369.5c-72.11 0-134.878-1.39-174.837-2.557-40.13-1.172-65.9-2.357-69.661-2.534V.5h854.146c1.054 1.065 7.728 7.881 16.97 18.749 5.893 6.93 11.662 14.128 17.146 21.392 6.855 9.08 13.28 18.29 19.1 27.376 14.807 23.117 25.823 45.574 32.742 66.747 4.105 12.56 6.794 24.803 7.993 36.385.644 6.222.87 12.376.671 18.292-.208 6.183-.884 12.277-2.012 18.114-1.827 9.46-4.902 18.578-9.14 27.1-4.494 9.035-10.418 17.648-17.608 25.599-7.592 8.396-16.805 16.284-27.383 23.445-11.126 7.532-24.068 14.467-38.467 20.613-15.394 6.57-33.637 12.745-54.222 18.35-19.52 5.315-41.651 10.257-65.78 14.688-22.768 4.181-47.9 8.015-74.695 11.396-25.142 3.171-52.385 6.024-80.973 8.478-51.338 4.407-108.616 7.674-170.241 9.71-51.515 1.703-106.608 2.566-163.749 2.566z" class="cls-2" transform="translate(0 68)"/>
            <path d="M1 1v362.932c5.107.237 30.456 1.38 69.176 2.511C110.13 367.61 172.894 369 244.998 369c57.136 0 112.223-.863 163.732-2.565 61.617-2.037 118.886-5.303 170.216-9.71 28.58-2.453 55.817-5.305 80.952-8.475 26.787-3.38 51.909-7.212 74.668-11.392 24.115-4.428 46.233-9.367 65.739-14.678 20.563-5.6 38.784-11.766 54.157-18.328 14.37-6.133 27.283-13.053 38.382-20.567 10.544-7.138 19.727-15 27.293-23.366 7.159-7.916 13.057-16.491 17.53-25.486 4.218-8.48 7.279-17.555 9.098-26.971 1.122-5.81 1.796-11.877 2.003-18.033.198-5.893-.027-12.023-.668-18.222-1.194-11.546-3.875-23.751-7.968-36.277-6.903-21.13-17.898-43.546-32.68-66.626-5.812-9.075-12.23-18.275-19.076-27.344-5.478-7.258-11.241-14.448-17.13-21.373C862.367 9.143 855.857 2.443 854.438 1H1M0 0h854.855s213.713 213.55 0 304.772C727.805 359.002 449.659 370 244.998 370 105.392 370 0 364.885 0 364.885V0z" class="cls-3" transform="translate(0 68)"/>
        </g>
        <g id="Trazado_1087" class="cls-1">
            <path d="M333.738 158.5h-506.185c-.437-1.28-2.004-6.302-2.412-13.624-.278-4.983.027-10.042.907-15.036 1.1-6.24 3.107-12.398 5.963-18.3 6.018-12.432 15.846-23.868 29.209-33.99 7.794-5.903 16.907-11.433 27.087-16.438 11.104-5.46 23.76-10.432 37.617-14.78C-36.989 34.698 20.486 18.069 83.685 4.922c29.591-6.156 57.625-10.942 83.32-14.225 28.45-3.634 54.454-5.477 77.292-5.477 18.446 0 35.173 1.205 49.714 3.583 7.617 1.246 14.785 2.838 21.306 4.734 6.715 1.951 12.928 4.278 18.468 6.915 4.877 2.322 9.333 5 13.245 7.957 3.743 2.83 7.087 5.994 9.94 9.402 2.723 3.255 5.07 6.82 6.977 10.595 1.815 3.597 3.28 7.48 4.35 11.542 1.577 5.977 2.354 12.531 2.312 19.483-.038 6.328-.756 13.127-2.134 20.208-2.324 11.94-6.544 24.89-12.541 38.488-5.34 12.108-11.13 22.498-15.047 29.081-3.716 6.246-6.494 10.34-7.15 11.293z" class="cls-2" transform="translate(475 879)"/>
            <path d="M244.297-14.281c-22.817 0-48.8 1.841-77.228 5.473C141.386-5.526 113.366-.743 83.787 5.41 20.608 18.553-36.85 35.178-73.926 46.81c-13.827 4.338-26.455 9.298-37.534 14.744-10.149 4.99-19.233 10.5-27 16.382-13.3 10.07-23.08 21.44-29.066 33.797-2.837 5.854-4.83 11.96-5.925 18.15-.877 4.952-1.183 9.97-.912 14.915.372 6.756 1.738 11.54 2.277 13.202h505.56c.857-1.255 3.513-5.214 6.992-11.064 3.91-6.573 9.689-16.944 15.018-29.03 5.98-13.561 10.187-26.473 12.502-38.375 1.372-7.048 2.086-13.814 2.123-20.11.042-6.906-.73-13.416-2.295-19.348-1.063-4.028-2.514-7.879-4.314-11.444-1.89-3.741-4.216-7.274-6.915-10.499-2.828-3.379-6.144-6.516-9.857-9.324-3.884-2.937-8.311-5.596-13.158-7.903-5.515-2.626-11.704-4.943-18.393-6.887-6.5-1.89-13.65-3.478-21.246-4.72-14.515-2.374-31.215-3.577-49.634-3.577m0-1c35.872 0 67.014 4.48 89.703 15.281 83.5 39.75 0 159 0 159h-506.8s-28.126-73.395 98.574-113.145C18.046 16.907 148.152-15.28 244.297-15.28z" class="cls-3" transform="translate(475 879)"/>
        </g>
    </g>
</svg>
