<svg xmlns="http://www.w3.org/2000/svg" width="189.086" height="145.69" viewBox="0 0 189.086 145.69">
    <defs>
        <style>
            .cls-1{fill:#a34a4a}.cls-2{fill:#ffd2d2}.cls-3{fill:#ffaeae}.cls-4{fill:#e28686}.cls-5{fill:#6c2f2f}.cls-6{fill:#faefef}.cls-7{fill:#d76262}.cls-9{fill:#ffe1e1}.cls-10{fill:#ff8989}.cls-11{fill:#f9afab}.cls-12{fill:#fcbeb7}.cls-13{fill:#311643}.cls-14{fill:#f49795}.cls-15{fill:#fff}.cls-18{fill:#613e3e}.cls-19{fill:none}.cls-21{fill:#9e4e4e}
        </style>
    </defs>
    <g id="Grupo_217">
        <g id="Grupo_197" transform="translate(71.009 122.5)">
            <path id="Rectángulo_197" d="M0 0H10.305V8.93H0z" class="cls-1" transform="rotate(25.84 10.397 45.329)"/>
            <path id="Rectángulo_198" d="M0 0H10.305V8.93H0z" class="cls-1" transform="rotate(-7.25 24.895 -78.855)"/>
            <path id="Rectángulo_199" d="M0 0H18.146V18.146H0z" class="cls-2" transform="translate(15.188 5.044)"/>
            <path id="Rectángulo_200" d="M0 0H9.996V18.146H0z" class="cls-3" transform="translate(5.193 5.044)"/>
            <path id="Trazado_564" d="M1433.8 2913.846l-5.193 5.562h11.278l3.91-5.562z" class="cls-4" transform="translate(-1428.61 -2908.802)"/>
            <path id="Trazado_565" d="M1486.312 2913.8l3.706 5.634H1471.9l-3.733-5.661z" class="cls-3" transform="translate(-1452.978 -2908.759)"/>
            <path id="Trazado_566" d="M1477.021 2903.97l-.73 3.675 1.972-3.831z" class="cls-5" transform="translate(-1457.983 -2902.622)"/>
        </g>
        <g id="Grupo_198" transform="translate(150.138 96.052)">
            <path id="Trazado_567" d="M1671.787 2941.525v-1.4a.784.784 0 0 0-.785-.784h-32.519a2.971 2.971 0 0 0-2.971 2.971v2.389a2.971 2.971 0 0 0 2.971 2.971H1671a.784.784 0 0 0 .785-.785v-1.4a.785.785 0 0 0-.785-.785h-31.324a1.2 1.2 0 0 1-1.195-1.194 1.2 1.2 0 0 1 1.195-1.195H1671a.785.785 0 0 0 .787-.788z" class="cls-4" transform="translate(-1635.197 -2898.059)"/>
            <path id="Trazado_568" d="M1670.965 2876.433v-1.4a.785.785 0 0 0-.785-.784h-32.519a2.971 2.971 0 0 0-2.971 2.971v2.39a2.971 2.971 0 0 0 2.971 2.971h32.519a.785.785 0 0 0 .785-.785v-1.4a.785.785 0 0 0-.785-.784h-31.324a1.2 1.2 0 0 1-1.195-1.2 1.2 1.2 0 0 1 1.195-1.194h31.324a.785.785 0 0 0 .785-.785z" class="cls-2" transform="translate(-1634.69 -2857.96)"/>
            <path id="Trazado_569" d="M1673.191 2919.827v-1.4a.785.785 0 0 0-.785-.785h-27.872a2.971 2.971 0 0 0-2.971 2.971V2923a2.971 2.971 0 0 0 2.971 2.971h27.872a.785.785 0 0 0 .785-.785v-1.4a.785.785 0 0 0-.785-.784h-26.677a1.2 1.2 0 0 1-1.195-1.2 1.2 1.2 0 0 1 1.195-1.195h26.677a.785.785 0 0 0 .785-.78z" class="cls-3" transform="translate(-1638.924 -2884.692)"/>
            <path id="Trazado_570" d="M1685.382 2855.325v-1.4a.785.785 0 0 0-.784-.785h-27.872a2.971 2.971 0 0 0-2.971 2.971v2.39a2.971 2.971 0 0 0 2.971 2.971h27.874a.784.784 0 0 0 .784-.784v-1.4a.784.784 0 0 0-.784-.785h-26.677a1.2 1.2 0 0 1-1.195-1.195 1.2 1.2 0 0 1 1.195-1.2h26.677a.785.785 0 0 0 .782-.783z" class="cls-3" transform="translate(-1646.435 -2844.957)"/>
            <path id="Trazado_571" d="M1676.924 2925.378v2.39H1650.5a1.2 1.2 0 0 1-1.195-1.195 1.2 1.2 0 0 1 1.195-1.2z" class="cls-6" transform="translate(-1643.69 -2889.458)"/>
            <path id="Trazado_572" d="M1670.845 2947.076v2.39h-26.429a1.2 1.2 0 0 1-1.195-1.2 1.2 1.2 0 0 1 1.195-1.195z" class="cls-6" transform="translate(-1639.945 -2902.825)"/>
            <path id="Trazado_573" d="M1670.023 2881.984v2.389h-26.429a1.2 1.2 0 0 1-1.194-1.195 1.2 1.2 0 0 1 1.194-1.195z" class="cls-6" transform="translate(-1639.44 -2862.727)"/>
            <path id="Trazado_574" d="M1689.115 2860.876v2.389h-26.428a1.2 1.2 0 0 1-1.195-1.195 1.2 1.2 0 0 1 1.195-1.195z" class="cls-6" transform="translate(-1651.201 -2849.723)"/>
            <path id="Trazado_575" d="M1685.382 2898.13v-1.4a.785.785 0 0 0-.784-.785h-27.872a2.971 2.971 0 0 0-2.971 2.971v2.389a2.971 2.971 0 0 0 2.971 2.971h27.874a.785.785 0 0 0 .784-.785v-1.4a.785.785 0 0 0-.784-.785h-26.677a1.194 1.194 0 0 1-1.195-1.195 1.2 1.2 0 0 1 1.195-1.195h26.677a.785.785 0 0 0 .782-.786z" class="cls-4" transform="translate(-1646.435 -2871.326)"/>
            <path id="Trazado_576" d="M1689.115 2903.681v2.389h-26.428a1.2 1.2 0 0 1-1.195-1.195 1.2 1.2 0 0 1 1.195-1.195z" class="cls-6" transform="translate(-1651.201 -2876.092)"/>
            <path id="Trazado_577" d="M1696.781 2842.275h4.788a.394.394 0 0 1 .391.441l-.405 3.384a.394.394 0 0 1-.391.347h-3.978a.394.394 0 0 1-.391-.347l-.405-3.384a.394.394 0 0 1 .391-.441z" class="cls-2" transform="translate(-1672.698 -2838.265)"/>
            <path id="Trazado_578" d="M1700.5 2834.46v-1.539l-.92 1.749v-2.84l-.723 1.789-.723-1.789v2.84l-.92-1.749v1.539l-1.341-2.156.591 3.537h4.788l.591-3.537z" class="cls-7" transform="translate(-1672.381 -2831.83)"/>
        </g>
        <g id="Grupo_201" transform="translate(57.293 30.088)">
            <rect id="Rectángulo_201" width="66.13" height="63.255" fill="#9a7b7b" rx="7.963"/>
            <rect id="Rectángulo_202" width="30.311" height="1.835" class="cls-9" rx=".918" transform="translate(8.233 7.321)"/>
            <rect id="Rectángulo_203" width="21.157" height="1.835" class="cls-9" rx=".918" transform="translate(8.233 11.899)"/>
            <rect id="Rectángulo_204" width="6.4" height="1.311" class="cls-10" rx=".655" transform="translate(8.233 19.925)"/>
            <g id="Grupo_199" transform="translate(12.233 35.077)">
                <rect id="Rectángulo_205" width="17.668" height="3.959" class="cls-10" rx="1.707" transform="rotate(-90 12.12 12.12)"/>
                <rect id="Rectángulo_206" width="24.239" height="3.959" class="cls-10" rx="1.707" transform="rotate(-90 15.718 8.521)"/>
                <rect id="Rectángulo_207" width="17.668" height="3.959" class="cls-10" rx="1.707" transform="rotate(-90 20.052 4.187)"/>
                <path id="Trazado_1075" d="M.655 0h22.929a.655.655 0 0 1 .655.655V3.3a.655.655 0 0 1-.655.655H.655A.655.655 0 0 1 0 3.3V.655A.655.655 0 0 1 .655 0z" class="cls-10" transform="rotate(-90 23.65 .59)"/>
                <rect id="Rectángulo_209" width="12.878" height="3.959" class="cls-10" rx="1.707" transform="rotate(-90 27.983 -3.744)"/>
                <path id="Trazado_1076" d="M.655 0h16.357a.655.655 0 0 1 .655.655V3.3a.655.655 0 0 1-.655.655H.655A.655.655 0 0 1 0 3.3V.655A.655.655 0 0 1 .655 0z" class="cls-10" transform="rotate(-90 31.582 -7.343)"/>
            </g>
            <g id="Grupo_200" transform="translate(12.233 43.366)">
                <rect id="Rectángulo_211" width="11.626" height="3.959" class="cls-2" rx="1.707" transform="rotate(-90 7.976 7.976)"/>
                <rect id="Rectángulo_212" width="15.951" height="3.959" class="cls-2" rx="1.707" transform="rotate(-90 11.574 4.377)"/>
                <rect id="Rectángulo_213" width="11.626" height="3.959" class="cls-2" rx="1.707" transform="rotate(-90 15.908 .043)"/>
                <rect id="Rectángulo_214" width="15.951" height="3.959" class="cls-2" rx="1.707" transform="rotate(-90 19.506 -3.555)"/>
                <rect id="Rectángulo_215" width="8.474" height="3.959" class="cls-2" rx="1.707" transform="rotate(-90 23.839 -7.888)"/>
                <rect id="Rectángulo_216" width="11.626" height="3.959" class="cls-2" rx="1.707" transform="rotate(-90 27.438 -11.487)"/>
            </g>
        </g>
        <g id="Grupo_202" transform="translate(44.084)">
            <path id="Trazado_579" d="M1360.2 2581.677h6.475l2.241 2.7h14.018a1.716 1.716 0 0 1 1.716 1.717l.253 14.844a1.716 1.716 0 0 1-1.716 1.716H1360.2a1.716 1.716 0 0 1-1.716-1.716v-17.545a1.716 1.716 0 0 1 1.716-1.716z" class="cls-7" transform="translate(-1358.488 -2581.677)"/>
            <path id="Trazado_580" d="M1366.506 2595.252h18.418a1.412 1.412 0 0 1 1.375 1.446v7.113a1.412 1.412 0 0 1-1.375 1.447h-18.418a1.412 1.412 0 0 1-1.375-1.447v-7.111a1.412 1.412 0 0 1 1.375-1.448z" class="cls-2" transform="translate(-1362.58 -2590.04)"/>
            <path id="Trazado_581" d="M1360.2 2602.278h22.987a1.809 1.809 0 0 1 1.716 1.888v9.29a1.809 1.809 0 0 1-1.716 1.889H1360.2a1.808 1.808 0 0 1-1.716-1.889v-9.29a1.809 1.809 0 0 1 1.716-1.888z" class="cls-10" transform="translate(-1358.488 -2594.368)"/>
        </g>
        <g id="Grupo_208" transform="translate(0 69.301)">
            <path id="Trazado_582" d="M1288.111 2844.557a2.208 2.208 0 0 1-1.11 1.917l-.2-.4a4.125 4.125 0 0 1-.031-3.545 2.209 2.209 0 0 1 1.341 2.028z" class="cls-11" transform="translate(-1269.99 -2811.668)"/>
            <g id="Grupo_205" transform="translate(23.535)">
                <path id="Trazado_583" d="M1329.038 2784.346l-.657-1.281a15.826 15.826 0 0 0 .2-3.429q-.021-.416-.062-.845c-1.371.121-5.392.282-8.35-1.594a8.149 8.149 0 0 1-1.512 5.3c-.131-.314-.6-1.286-1.414-1.286-1.624 0-1.87 2.595-.962 3.831a6.393 6.393 0 0 1-1.934 1.012l-.007-.007v7.47h6.3v-3.255a6.767 6.767 0 0 0 2.129.49c1.585 0 3.988-2.126 5.153-5.769h.733a.438.438 0 0 0 .389-.637z" class="cls-12" transform="translate(-1310.741 -2771.423)"/>
                <path id="Trazado_584" d="M1310.508 2775.779c-.908-1.236-.662-3.831.962-3.831.811 0 1.283.971 1.413 1.285a8.147 8.147 0 0 0 1.512-5.3c2.958 1.877 6.979 1.716 8.35 1.594q.042.428.062.844a1.337 1.337 0 0 0 .417-.9v-.061c-.036-2.689-2.5-7.256-8.505-7.256-6.366 0-7.557 4.145-7.557 4.145a4.428 4.428 0 0 0-2.191 3.621c0 3.18 3.429 6.69 3.6 6.859l.007.007a6.388 6.388 0 0 0 1.93-1.007z" class="cls-13" transform="translate(-1304.972 -2762.16)"/>
                <path id="Trazado_585" d="M1322.166 2809.312v-3.255a16.692 16.692 0 0 1-5.343-3.221z" class="cls-11" transform="translate(-1312.272 -2787.217)"/>
                <circle id="Elipse_71" cx="1.707" cy="1.707" r="1.707" class="cls-14" transform="translate(9.227 10.922)"/>
                <g id="Grupo_203" transform="translate(13.589 14.475)">
                    <path id="Trazado_586" d="M1341.358 2800.65a1.1 1.1 0 0 1-.72-.248.983.983 0 0 1-.26-.324.157.157 0 0 1 .286-.13.772.772 0 0 0 .825.379.157.157 0 0 1 .036.313 1.486 1.486 0 0 1-.167.01z" class="cls-13" transform="translate(-1340.364 -2799.857)"/>
                </g>
                <g id="Grupo_204" transform="translate(15.203 9.211)">
                    <path id="Trazado_587" d="M1344.91 2787.475a.343.343 0 0 1-.343-.343v-.641a.343.343 0 0 1 .686 0v.641a.343.343 0 0 1-.343.343z" class="cls-13" transform="translate(-1344.567 -2786.148)"/>
                </g>
                <path id="Trazado_588" d="M1349.283 2784.082h-1.059v-1.952a.157.157 0 0 0-.314 0v4.219a.157.157 0 0 0 .314 0v-1.949h1.059a.157.157 0 0 0 0-.315z" class="cls-15" transform="translate(-1331.423 -2774.365)"/>
            </g>
            <g id="Grupo_206" transform="translate(25.635 34.553)">
                <path id="Trazado_590" d="M1336.61 2852.566l-17.72 6.9-5.231 6.964a5.91 5.91 0 0 1-3.217 2.164l7.752 5.338 14.835-7.805-.611 18.952h6.655l5.562-25.667a5.988 5.988 0 0 0-8.025-6.846z" class="cls-7" transform="translate(-1310.442 -2852.148)"/>
                <path id="Trazado_591" d="M1367.676 2944.886v4.7a.993.993 0 0 0 .993.993h13.337a.23.23 0 0 0 .229-.23v-.867a1.07 1.07 0 0 0-.624-.972l-7.92-3.626z" class="cls-5" transform="translate(-1345.7 -2909.277)"/>
                <path id="Trazado_592" d="M1367.676 2937.918v2.675h6.015l.64-2.675z" class="cls-12" transform="translate(-1345.7 -2904.985)"/>
                <path id="Trazado_593" d="M1329.024 2897.682l-8.177 4.3-6.1-4.3z" class="cls-1" transform="translate(-1313.094 -2880.198)"/>
                <path id="Trazado_594" d="M1391.125 2856.388a3.186 3.186 0 0 1-4.65-4.005 6.064 6.064 0 0 1 4.65 4.005z" class="cls-1" transform="translate(-1357.094 -2852.292)"/>
            </g>
            <path id="Trazado_595" d="M1288.987 2831.693l-2.112 3.958a4.125 4.125 0 0 0-.069 3.747l.182.372 1.642-6.808q.154-.643.357-1.269z" class="cls-12" transform="translate(-1269.99 -2804.995)"/>
            <path id="Trazado_596" d="M1290.122 2840.084l.124-.034a5.91 5.91 0 0 0 3.093-2.13l5.231-6.964-.411-14.158 5.273 1.148 2.091-6.6-13.9-5.484a17.509 17.509 0 0 0-8.137 9.918q-.2.625-.357 1.27l-1.642 6.808-4.028 16.7 11.3-.28a5.9 5.9 0 0 0 1.363-.194z" class="cls-10" transform="translate(-1264.487 -2789.083)"/>
            <path id="Trazado_597" fill="#d34a4a" d="M1320.487 2833.792l-6.9-4.345 6.831 1.881z" transform="translate(-1286.743 -2803.611)"/>
            <g id="Grupo_207" transform="translate(0 50.967)">
                <path id="Trazado_598" d="M1258.709 2939.115l-2.481-2.421a1.4 1.4 0 0 0-1.788-.135l-10.634 7.624a.3.3 0 0 0-.07.425l.467.651a1.285 1.285 0 0 0 1.071.537l4.27-.082z" class="cls-5" transform="translate(-1243.679 -2920.4)"/>
                <path id="Trazado_599" d="M1268.12 2950.234h-9.165l9.165-6.6z" class="cls-12" transform="translate(-1253.089 -2924.921)"/>
                <path id="Trazado_600" d="M1309.745 2908.538l-19.5-13.642-.124.034a5.916 5.916 0 0 1-1.363.194l-11.3.28a12.051 12.051 0 0 0 7.4 11.118l11.48 4.8-16.82 2.287v6.6h26.551a6.415 6.415 0 0 0 3.676-11.671z" class="cls-7" transform="translate(-1264.487 -2894.896)"/>
                <path id="Trazado_601" d="M1361.677 2946.26a3.185 3.185 0 0 1 1.628-5.887 6.621 6.621 0 0 1-1.628 5.887z" class="cls-1" transform="translate(-1315.445 -2922.911)"/>
            </g>
            <path id="Trazado_602" d="M1375.532 2780.508l-4.006-1.331a.914.914 0 0 0-.718.061l-2.478 1.32-.561.122a.644.644 0 0 0-.461.39l-.975 2.44-16.611 12.274-2.522-.9-2.091 6.6 4.875 1.007a3.424 3.424 0 0 0 3.121-.94l15.594-15.7 2.863-1.683a.9.9 0 0 0 .442-.74l.011-.3.186-.179a.9.9 0 0 0 .271-.725l-.022-.252a.9.9 0 0 0 .259-.783l-.041-.254 2.7.316a.377.377 0 0 0 .163-.731z" class="cls-12" transform="translate(-1306.162 -2772.614)"/>
            <path id="Trazado_603" d="M1360.838 2835.7l-.28.281a3.42 3.42 0 0 1-3.121.94l-.228-.047a2.108 2.108 0 0 1 3.629-1.174z" class="cls-11" transform="translate(-1313.616 -2807.055)"/>
        </g>
        <g id="Grupo_216" transform="translate(107.276 21.532)">
            <path id="Trazado_604" d="M1572.105 2939.16l-.645 2.68-7.031 2.208 1.011-4.888z" class="cls-12" transform="translate(-1548.546 -2823.428)"/>
            <path id="Trazado_605" d="M1635.422 2939.16l-.192 3.31.438.162.289 1.417-7.024-2.209-.176-2.68z" class="cls-12" transform="translate(-1588.174 -2823.428)"/>
            <path id="Trazado_606" d="M1549.065 2949.388l5.716-2.457-.293 1.416 7.031-2.208v2.015a2.014 2.014 0 0 1-.953 1.711l-.6 1.729a.372.372 0 0 1-.724-.123v-1.124l-4.805 1.5h-4.862a1.28 1.28 0 0 1-1.28-1.28 1.279 1.279 0 0 1 .77-1.179z" class="cls-18" transform="translate(-1538.604 -2827.728)"/>
            <path id="Trazado_607" d="M1629.2 2948.1l.006-2.015 7.025 2.229-.289-1.417 5.708 2.474a1.279 1.279 0 0 1 .771 1.178 1.279 1.279 0 0 1-1.284 1.275l-4.861-.014-4.969-1.564v1.177a.373.373 0 0 1-.724.121l-.656-1.893a2.013 2.013 0 0 1-.727-1.551z" class="cls-18" transform="translate(-1588.445 -2827.696)"/>
            <g id="Grupo_214" transform="translate(25.614)">
                <path id="Trazado_608" d="M1590.989 2648.884v11.091h18.255v-13.467c0-5.325-4.286-6.252-4.286-6.252s-1.558-2.5-6.092-2.5c-5.456 0-9.094 3.342-9.094 7.467a5.742 5.742 0 0 0 1.217 3.661zm.092-1.841a4.648 4.648 0 0 0 2.629-3.617c1.518 2.511 6.159 6.125 13.058 3.919a.475.475 0 0 1 .065 0c1.641 0 1.756 4.565-1.006 4.829-.041.134-.083.261-.125.381v7.424h-6.23v-2.886a4.606 4.606 0 0 1-1.232.193c-2.577-.005-7.057-3.98-7.159-10.243z" class="cls-13" transform="translate(-1589.772 -2637.754)"/>
                <path id="Trazado_609" d="M1601.572 2666.189a4.6 4.6 0 0 1-1.232.193c-2.577 0-7.057-3.976-7.159-10.239a4.647 4.647 0 0 0 2.63-3.617c1.518 2.511 6.159 6.125 13.058 3.919a.44.44 0 0 1 .065 0c1.642 0 1.756 4.565-1.006 4.829-.041.134-.083.261-.125.381v4.994l4.88 2.281v6.043h-16.216v-6.573l5.105-1.556z" class="cls-12" transform="translate(-1591.872 -2646.855)"/>
                <path id="Trazado_610" d="M1601.738 2693.174v-6.566l5.105-1.556v-.657a14.127 14.127 0 0 0 4.29-2.315z" class="cls-11" transform="translate(-1597.143 -2665.06)"/>
                <circle id="Elipse_72" cx="1.7" cy="1.7" r="1.7" class="cls-14" transform="translate(11.328 11.177)"/>
                <path id="Trazado_611" d="M1593.75 2667.152a12.1 12.1 0 0 0 1.033 3.109 1.7 1.7 0 1 0-1.033-3.109z" class="cls-14" transform="translate(-1592.223 -2655.686)"/>
                <g id="Grupo_209" transform="translate(1.667 7.381)">
                    <circle id="Elipse_73" cx="2.094" cy="2.094" r="2.094" class="cls-19" transform="rotate(-67.48 2.895 1.933)"/>
                    <circle id="Elipse_74" cx="2.094" cy="2.094" r="2.094" class="cls-19" transform="rotate(-67.5 6.081 -2.836)"/>
                    <path id="Trazado_612" d="M1594.965 2660.236a2.408 2.408 0 0 0 4.815.091 1.559 1.559 0 0 1 1.561 0 2.4 2.4 0 1 0 .012-.347 1.85 1.85 0 0 0-1.584 0 2.409 2.409 0 0 0-4.8.258zm6.689 0a2.094 2.094 0 1 1 2.093 2.093 2.1 2.1 0 0 1-2.093-2.093zm-6.374 0a2.094 2.094 0 1 1 2.093 2.093 2.1 2.1 0 0 1-2.093-2.093z" class="cls-15" transform="translate(-1594.638 -2657.5)"/>
                </g>
                <g id="Grupo_212" transform="translate(4.057 9.451)">
                    <g id="Grupo_210">
                        <path id="Trazado_613" d="M1600.683 2663.7a.344.344 0 0 0 .344-.344v-.642a.344.344 0 1 0-.687 0v.642a.343.343 0 0 0 .343.344z" class="cls-13" transform="translate(-1600.339 -2662.368)"/>
                    </g>
                    <g id="Grupo_211" transform="translate(6.271)">
                        <path id="Trazado_614" d="M1617.015 2663.7a.343.343 0 0 0 .344-.344v-.642a.344.344 0 1 0-.687 0v.642a.344.344 0 0 0 .343.344z" class="cls-13" transform="translate(-1616.671 -2662.368)"/>
                    </g>
                </g>
                <g id="Grupo_213" transform="translate(7.777 14.51)">
                    <path id="Trazado_615" d="M1610.468 2676.772a1.964 1.964 0 0 0 1.284-.441 1.76 1.76 0 0 0 .457-.566.158.158 0 0 0-.287-.13 1.606 1.606 0 0 1-1.719.806.158.158 0 0 0-.036.313 2.561 2.561 0 0 0 .301.018z" class="cls-13" transform="translate(-1610.027 -2675.542)"/>
                </g>
            </g>
            <path id="Trazado_616" fill="#7d2929" d="M1596.354 2763.641l2.593 10.981a34.449 34.449 0 0 1 .876 9.688l-2.407 46.725h-6.665l-2.845-48.492-14.179 48.492h-6.665l11.734-67.394z" transform="translate(-1550.169 -2715.304)"/>
            <g id="Grupo_215" transform="translate(19.383 20.493)">
                <path id="Trazado_617" d="M1615.938 2699.556c-1.183 0-2.13-1.14-2.768-2.294h6.749c-1.029 1.151-2.439 2.294-3.981 2.294z" class="cls-21" transform="translate(-1597.955 -2694.905)"/>
                <path id="Trazado_618" fill="#d4c6c6" d="M1578.9 2695.864a8.113 8.113 0 0 1 4.463-3.376l4.473-1.362a8.438 8.438 0 0 0 .923 2.356c.638 1.154 1.585 2.294 2.768 2.294 1.542 0 2.952-1.143 3.981-2.294a14.525 14.525 0 0 0 1.7-2.344l4.083 1.892a6.351 6.351 0 0 1 3.566 4.556l2.72 14.049h-5.533l-.8-5.3-.891 12.635h-17.563l-1.6-13.448-4.182 3.761-3.469-5.081z" transform="translate(-1573.544 -2691.125)"/>
            </g>
            <path id="Trazado_619" d="M1573.544 2725.181l4.871 3.82-1.4 1.261z" class="cls-21" transform="translate(-1554.161 -2691.611)"/>
            <circle id="Elipse_75" cx="3.19" cy="3.19" r="3.19" class="cls-21" transform="translate(23.541 79.245)"/>
            <circle id="Elipse_76" cx="3.19" cy="3.19" r="3.19" class="cls-21" transform="translate(40.255 79.245)"/>
            <path id="Trazado_620" d="M1523.393 2687.453l5.756-1.973a2.126 2.126 0 0 1 1.718.189l2.235 1.305 12.814 18.769-1.76 1.609a2.968 2.968 0 0 1-4.659-.867l-8.434-16.907-2.1.257a1.558 1.558 0 0 1-.919-.169l-.74-.391a1.559 1.559 0 0 1-.741-.857l-.151-.428-2.809.38a.472.472 0 0 1-.215-.917z" class="cls-12" transform="translate(-1523.064 -2667.092)"/>
            <path id="Trazado_621" d="M1640.646 2764.139l1.292-1.162 1.037-18.443h5.533l-3.455 19.067v4.33a2.3 2.3 0 0 1-.718 1.544l-.536.506a3.357 3.357 0 0 1-2.433.912l-.769-.029a.358.358 0 0 1-.293-.543l1.116-1.847-.094-3.448-.557 2.01a.668.668 0 0 1-.779.476v-1.912a1.972 1.972 0 0 1 .656-1.461z" class="cls-12" transform="translate(-1595.095 -2703.533)"/>
            <path id="Trazado_622" d="M1646.5 2698.577a2.017 2.017 0 0 0 3.012 1.754 6.354 6.354 0 0 0-2.49-3.108 2.011 2.011 0 0 0-.522 1.354z" class="cls-21" transform="translate(-1599.105 -2674.388)"/>
            <path id="Trazado_623" d="M1614.782 2763.641h-17.556l-.248 1.426 17.915-.955z" class="cls-1" transform="translate(-1568.597 -2715.304)"/>
            <path id="Trazado_624" d="M1566.9 2739.508a2.97 2.97 0 0 0 4.123.375 2.112 2.112 0 0 0-4.123-.375z" class="cls-11" transform="translate(-1550.071 -2699.508)"/>
        </g>
    </g>
</svg>
