<svg xmlns="http://www.w3.org/2000/svg" id="Grupo_146" width="202.259" height="155.951" viewBox="0 0 202.259 155.951">
    <defs>
        <style>
            .cls-2{fill:#ffaeae}.cls-3{fill:#ffd2d2}.cls-4{fill:#b44040}.cls-5{fill:#d76262}.cls-6{fill:#fe9e9e}.cls-7{fill:#ff7878}.cls-9{fill:none}.cls-10{fill:#ffe1e1}.cls-11{fill:#311643}.cls-12{fill:#fcbeb7}.cls-13{fill:#f9afab}.cls-14{fill:#f49795}.cls-15{fill:#fff}.cls-16{fill:#6c2f2f}.cls-19{fill:#888}.cls-20{fill:#9b3030}.cls-21{fill:#a34a4a}.cls-25{fill:#535353}.cls-27{fill:#d34a4a}
        </style>
    </defs>
    <g id="Grupo_125" transform="translate(0 69.099)">
        <path id="Rectángulo_135" fill="#e28686" d="M4.762 0h11.08v69.789H4.762A4.762 4.762 0 0 1 0 65.027V4.762A4.762 4.762 0 0 1 4.762 0z" transform="translate(0 10.359)"/>
        <path id="Rectángulo_136" d="M0 0h37.319a4.762 4.762 0 0 1 4.762 4.762v60.265a4.762 4.762 0 0 1-4.762 4.762H0V0z" class="cls-2" transform="translate(15.842 10.359)"/>
        <path id="Rectángulo_137" d="M0 0H33.309V16.098H0z" class="cls-3" transform="translate(20.229 16.165)"/>
        <path id="Rectángulo_138" d="M0 0H3.813V6.704H0z" class="cls-3" transform="translate(3.813 80.148)"/>
        <path id="Rectángulo_139" d="M0 0H3.813V6.704H0z" class="cls-3" transform="translate(15.843 80.148)"/>
        <path id="Rectángulo_140" d="M0 0H3.813V6.704H0z" class="cls-3" transform="translate(39.769 80.148)"/>
        <path id="Rectángulo_141" d="M0 0H3.813V6.704H0z" class="cls-3" transform="translate(51.798 80.148)"/>
        <rect id="Rectángulo_142" width="12.917" height="1.065" class="cls-4" rx=".533" transform="translate(31.243 28.977)"/>
        <path id="Rectángulo_143" d="M0 0H33.309V16.098H0z" class="cls-3" transform="translate(20.229 37.204)"/>
        <rect id="Rectángulo_144" width="12.917" height="1.065" class="cls-4" rx=".533" transform="translate(31.243 50.016)"/>
        <path id="Rectángulo_145" d="M0 0H33.309V16.098H0z" class="cls-3" transform="translate(20.229 58.243)"/>
        <rect id="Rectángulo_146" width="12.917" height="1.065" class="cls-4" rx=".533" transform="translate(31.243 71.056)"/>
        <path id="Trazado_347" d="M487.438 2944.257h3.813v1.726l-3.813-.188z" class="cls-4" transform="translate(-483.625 -2864.109)"/>
        <path id="Trazado_348" d="M517.673 2944.257h3.813v2.321l-3.813-.188z" class="cls-4" transform="translate(-501.831 -2864.109)"/>
        <path id="Trazado_349" d="M577.811 2944.257h3.813v3.8l-3.813-.188z" class="cls-4" transform="translate(-538.042 -2864.109)"/>
        <path id="Trazado_350" d="M611.859 2944.257v4.4l-3.813-.189v-4.21z" class="cls-4" transform="translate(-556.247 -2864.109)"/>
        <path id="Trazado_351" d="M580.475 2755.573h6.062a.5.5 0 0 1 .495.558l-.513 4.284a.5.5 0 0 1-.495.439h-5.037a.5.5 0 0 1-.495-.439l-.513-4.284a.5.5 0 0 1 .496-.558z" class="cls-4" transform="translate(-539.346 -2750.495)"/>
        <path id="Trazado_352" d="M585.21 2746.141v-1.948l-1.165 2.214v-3.6l-.916 2.264-.916-2.264v3.6l-1.165-2.214v1.948l-1.7-2.73.748 4.478h6.062l.748-4.478z" class="cls-5" transform="translate(-538.969 -2742.811)"/>
    </g>
    <g id="Grupo_126" transform="translate(162.13 114.839)">
        <path id="Trazado_353" d="M899.808 2890.2c4.725-8.651-10.191-12.719-13.787-9.287s8.325 19.287 13.787 9.287z" class="cls-6" transform="translate(-885.357 -2870.976)"/>
        <path id="Trazado_354" d="M928.855 2874.359c9.272 0 5.076-16.584 1.112-16.584-4.967 0-11.825 16.584-1.112 16.584z" class="cls-6" transform="translate(-908.133 -2857.775)"/>
        <path id="Trazado_355" d="M951.7 2895.008c7.644 6.223 14.363-7.7 11.645-11.863s-20.478 4.669-11.645 11.863z" class="cls-6" transform="translate(-923.835 -2872.407)"/>
        <path id="Trazado_356" d="M908.928 2902.9a27.529 27.529 0 0 0-5.613-8.268 31.7 31.7 0 0 0-8.541-6.267.258.258 0 1 0-.212.47 31.164 31.164 0 0 1 8.4 6.17 27 27 0 0 1 5.5 8.11c.143.332.277.667.4 1h.551c-.15-.41-.313-.815-.485-1.215z" class="cls-7" transform="translate(-890.808 -2876.178)"/>
        <path id="Trazado_357" d="M936.983 2865.886a.258.258 0 0 0-.512-.061 225.331 225.331 0 0 0-1.25 24.6h.515a224.874 224.874 0 0 1 1.247-24.539z" class="cls-7" transform="translate(-915.381 -2862.486)"/>
        <path id="Trazado_358" d="M956.816 2889.274a.258.258 0 0 0-.357-.071 48.656 48.656 0 0 0-7.582 6.641 37.6 37.6 0 0 0-6.189 8.766h.576a37.282 37.282 0 0 1 5.982-8.406 48.1 48.1 0 0 1 7.5-6.573.257.257 0 0 0 .07-.357z" class="cls-7" transform="translate(-919.878 -2876.673)"/>
        <path id="Trazado_359" d="M921.538 2927.994h-9.492a.407.407 0 0 0-.387.533l.454 1.392.23.705 3.287 10.084a.666.666 0 0 0 .633.459h11.847a.665.665 0 0 0 .632-.459l3.287-10.084.23-.705.454-1.392a.407.407 0 0 0-.387-.533h-10.788z" class="cls-3" transform="translate(-901.182 -2900.056)"/>
        <path id="Trazado_360" d="M932.976 2932.835l-.23.705H913.06l-.23-.705z" class="cls-2" transform="translate(-901.9 -2902.971)"/>
    </g>
    <g id="Grupo_128" transform="translate(60.81)">
        <rect id="Rectángulo_147" width="68.522" height="39.968" fill="#9a7b7b" rx="7.963"/>
        <g id="Grupo_127" transform="translate(6.822 8.511)">
            <circle id="Elipse_43" cx="8.94" cy="8.94" r="8.94" class="cls-9" transform="translate(2.533 2.533)"/>
            <path id="Trazado_361" d="M658.05 2612.207a1.267 1.267 0 0 1 1.267-1.267 8.94 8.94 0 1 1 8.94-8.94 1.267 1.267 0 0 1 2.533 0 11.473 11.473 0 1 0-11.473 11.474 1.267 1.267 0 0 1-1.267-1.267z" class="cls-10" transform="translate(-647.843 -2590.527)"/>
            <path id="Trazado_362" d="M684.971 2616.181a1.266 1.266 0 0 0-1.267 1.266 8.95 8.95 0 0 1-8.94 8.94 1.267 1.267 0 1 0 0 2.533 11.486 11.486 0 0 0 11.473-11.474 1.266 1.266 0 0 0-1.266-1.265z" class="cls-5" transform="translate(-663.29 -2605.974)"/>
        </g>
        <rect id="Rectángulo_148" width="24.168" height="1.358" class="cls-10" rx=".679" transform="translate(37.39 11.07)"/>
        <rect id="Rectángulo_149" width="13.409" height="1.358" class="cls-10" rx=".679" transform="translate(37.39 14.774)"/>
        <rect id="Rectángulo_150" width="9.119" height="1.358" class="cls-5" rx=".679" transform="translate(37.39 28.458)"/>
    </g>
    <g id="Grupo_137" transform="translate(41.343 27.328)">
        <g id="Grupo_134" transform="translate(8.2)">
            <path id="Trazado_363" d="M626.042 2645.562c0-4.275-3.77-7.738-9.422-7.738-4.7 0-6.312 2.592-6.312 2.592s-4.441.96-4.441 6.478v13.954h18.915v-11.492a5.95 5.95 0 0 0 1.26-3.794zm-8.774 12.5a4.774 4.774 0 0 1-1.276-.2v2.99h-6.456v-7.692q-.066-.186-.13-.394c-2.862-.273-2.743-5-1.043-5a.479.479 0 0 1 .068.006c7.15 2.285 11.958-1.459 13.531-4.062a4.814 4.814 0 0 0 2.724 3.748c-.106 6.48-4.748 10.6-7.419 10.6z" class="cls-11" transform="translate(-604.478 -2637.824)"/>
            <path id="Trazado_364" d="M613.891 2667.165v-.412a4.773 4.773 0 0 0 1.276.2c2.671 0 7.313-4.12 7.419-10.609a4.814 4.814 0 0 1-2.725-3.748c-1.573 2.6-6.381 6.347-13.531 4.062a.476.476 0 0 0-.068-.006c-1.7 0-1.819 4.73 1.043 5q.064.208.13.394v5.175l-5.056 2.384v6.24h16.8v-6.3l-5.29-2.385z" class="cls-12" transform="translate(-602.378 -2646.719)"/>
            <path id="Trazado_365" d="M629.877 2693.645v-6.3l-5.29-2.385v-.412a14.646 14.646 0 0 1-4.445-2.4z" class="cls-13" transform="translate(-613.074 -2664.514)"/>
            <circle id="Elipse_44" cx="1.761" cy="1.761" r="1.761" class="cls-14" transform="translate(6.303 11.581)"/>
            <path id="Trazado_366" d="M648.447 2667.232a12.569 12.569 0 0 1-1.07 3.222 1.761 1.761 0 1 1 1.07-3.222z" class="cls-14" transform="translate(-628.466 -2655.352)"/>
            <g id="Grupo_129" transform="translate(7.563 7.648)">
                <circle id="Elipse_45" cx="2.169" cy="2.169" r="2.169" class="cls-9" transform="rotate(-22.5 7.475 -15.773)"/>
                <circle id="Elipse_46" cx="2.169" cy="2.169" r="2.169" class="cls-9" transform="rotate(-22.5 4.173 .83)"/>
                <path id="Trazado_367" d="M631.337 2657.9a2.5 2.5 0 0 0-2.481 2.229 1.917 1.917 0 0 0-1.642 0 2.5 2.5 0 1 0 .012.36 1.615 1.615 0 0 1 1.617 0 2.5 2.5 0 1 0 2.493-2.59zm-6.6 4.665a2.169 2.169 0 1 1 2.17-2.169 2.172 2.172 0 0 1-2.174 2.166zm6.6 0a2.169 2.169 0 1 1 2.169-2.169 2.172 2.172 0 0 1-2.169 2.166z" class="cls-15" transform="translate(-621.898 -2657.558)"/>
            </g>
            <g id="Grupo_132" transform="translate(10.149 10.893)">
                <g id="Grupo_130" transform="translate(6.498)">
                    <path id="Trazado_368" d="M644.575 2666.58a.356.356 0 0 1-.356-.356v-.665a.356.356 0 0 1 .713 0v.665a.356.356 0 0 1-.357.356z" class="cls-11" transform="translate(-644.219 -2665.202)"/>
                </g>
                <g id="Grupo_131">
                    <path id="Trazado_369" d="M628.243 2666.58a.356.356 0 0 1-.356-.356v-.665a.356.356 0 0 1 .713 0v.665a.356.356 0 0 1-.357.356z" class="cls-11" transform="translate(-627.887 -2665.202)"/>
                </g>
            </g>
            <g id="Grupo_133" transform="translate(11.229 15.034)">
                <path id="Trazado_370" d="M632.421 2676.886a2.038 2.038 0 0 1-1.331-.457 1.809 1.809 0 0 1-.473-.587.163.163 0 0 1 .3-.135 1.665 1.665 0 0 0 1.782.836.163.163 0 1 1 .037.324 2.8 2.8 0 0 1-.315.019z" class="cls-11" transform="translate(-630.602 -2675.612)"/>
            </g>
        </g>
        <path id="Trazado_371" d="M662.011 2939.23l.668 2.776 7.285 2.288-1.048-5.064z" class="cls-12" transform="translate(-630.085 -2819.312)"/>
        <path id="Trazado_372" d="M599.478 2939.23l.2 3.43-.454.167-.3 1.468 7.278-2.289.182-2.776z" class="cls-12" transform="translate(-592.098 -2819.312)"/>
        <path id="Trazado_373" d="M676.594 2949.575l-5.922-2.546.3 1.468-7.286-2.288v2.087a2.087 2.087 0 0 0 .987 1.774l.627 1.791a.386.386 0 0 0 .75-.127v-1.165l4.979 1.551h5.037a1.326 1.326 0 0 0 1.326-1.326 1.326 1.326 0 0 0-.798-1.219z" class="cls-16" transform="translate(-631.096 -2823.514)"/>
        <path id="Trazado_374" d="M596.5 2948.246l-.006-2.088-7.278 2.309.3-1.468-5.915 2.563a1.326 1.326 0 0 0-.8 1.221 1.326 1.326 0 0 0 1.33 1.323l5.037-.015 5.149-1.62v1.22a.386.386 0 0 0 .75.125l.68-1.961a2.086 2.086 0 0 0 .753-1.609z" class="cls-16" transform="translate(-582.39 -2823.483)"/>
        <path id="Trazado_375" fill="#b1b1b1" d="M597.573 2763.711l-2.687 11.379a35.689 35.689 0 0 0-.908 10.038l2.494 48.416h6.906l2.949-50.246 14.691 50.246h6.906l-12.159-69.833z" transform="translate(-589.091 -2713.625)"/>
        <g id="Grupo_135" transform="translate(0 21.234)">
            <path id="Trazado_376" d="M619.81 2699.709c1.226 0 2.207-1.181 2.868-2.377h-6.992c1.066 1.193 2.527 2.377 4.124 2.377z" class="cls-15" transform="translate(-602.191 -2694.891)"/>
            <path id="Trazado_377" fill="#c25454" d="M611.438 2696.966a8.407 8.407 0 0 0-4.077-3.909l-4.15-1.861a8.729 8.729 0 0 1-.956 2.442c-.661 1.2-1.642 2.377-2.868 2.377-1.6 0-3.058-1.184-4.124-2.377a15.05 15.05 0 0 1-1.759-2.429l-4.815 2.23a7.171 7.171 0 0 0-3.945 4.777l-2.814 11.316a5.491 5.491 0 0 0 1.4 5.158c2.216-.778 6.376-2.4 6.376-2.4l.547 7.754h18.187l4.519-20.04z" transform="translate(-581.767 -2691.195)"/>
        </g>
        <g id="Grupo_136" transform="translate(10.222 21.752)">
            <path id="Trazado_378" d="M615.036 2698.5a5.963 5.963 0 0 1-3.059-.915 10.937 10.937 0 0 1-2.389-1.993 16.553 16.553 0 0 1-2.129-2.9l.271-.125a16.1 16.1 0 0 0 2.081 2.827 10.628 10.628 0 0 0 2.322 1.936 5.668 5.668 0 0 0 2.9.871 3.646 3.646 0 0 0 2.416-.9 6.092 6.092 0 0 0 1.478-2 10.578 10.578 0 0 0 .907-2.811l.279.126a10.2 10.2 0 0 1-.916 2.809 6.382 6.382 0 0 1-1.553 2.1 3.937 3.937 0 0 1-2.608.975z" class="cls-15" transform="translate(-607.46 -2692.497)"/>
        </g>
        <path id="Trazado_1077" d="M3.306 0A3.306 3.306 0 1 1 0 3.306 3.306 3.306 0 0 1 3.306 0z" class="cls-19" transform="translate(25.333 82.111)"/>
        <circle id="Elipse_48" cx="3.306" cy="3.306" r="3.306" class="cls-19" transform="translate(8.015 82.111)"/>
        <path id="Trazado_379" d="M594.149 2698.6a2.111 2.111 0 0 1-3.362 1.7 7.166 7.166 0 0 1 2.937-2.971 2.1 2.1 0 0 1 .425 1.271z" class="cls-20" transform="translate(-587.198 -2673.656)"/>
        <path id="Trazado_380" d="M629.25 2735.477l14-.529a1.722 1.722 0 0 0 1.584-1.225l6.12-20.4a.659.659 0 0 0-.657-.849l-14.156.535a1.5 1.5 0 0 0-1.38 1.067l-6.165 20.554a.66.66 0 0 0 .654.847z" class="cls-21" transform="translate(-609.946 -2682.772)"/>
        <path id="Trazado_381" d="M668.2 2743.36l2.449 2.45.418-1.392z" class="cls-16" transform="translate(-633.814 -2701.371)"/>
        <path id="Trazado_382" d="M668.742 2733.825l-3.529.233a.493.493 0 0 0-.46.5l-.351.022a.472.472 0 0 0-.44.416l-.043.368a.473.473 0 0 0-.467.478.473.473 0 0 0 .3.434l.79.314a1.028 1.028 0 0 0 .6.938l2.456 1.135a2.089 2.089 0 0 0 1.143.175 2.084 2.084 0 0 0 1.77-1.632l.152-.714a2.311 2.311 0 0 0-.633-2.125 1.859 1.859 0 0 0-1.288-.542z" class="cls-12" transform="translate(-630.951 -2695.63)"/>
        <path id="Trazado_383" fill="#655c5c" d="M632.565 2698.254l2.409 5.887a2.664 2.664 0 0 0 .579.877l.429.427a.135.135 0 0 0 .24-.1l.006-.6a2.672 2.672 0 0 0-.2-1.032l-2.409-5.887a.646.646 0 0 0-.792-.433.646.646 0 0 0-.262.861z" transform="translate(-612.317 -2673.67)"/>
        <path id="Trazado_384" d="M606.423 2704.74l-1.323-1.821a1 1 0 0 0-.723-.411l-2.217-.2a1.112 1.112 0 0 0-.831.269l-1.155 1a2 2 0 0 0-.419.507l-1.417 2.249-13.438 10.859a2.893 2.893 0 0 0-.253 4.27 2.893 2.893 0 0 0 4.26-.128l11.347-13.124 2.386-1.467 1.761.061a.848.848 0 0 0 .857-.667l.1-.115a.849.849 0 0 0 .183-.714l-.1-.5.569.368a.307.307 0 0 0 .415-.438z" class="cls-12" transform="translate(-583.007 -2676.649)"/>
        <path id="Trazado_385" d="M601.712 2735.519l4.972-5.75-4.784 8.431z" class="cls-20" transform="translate(-593.776 -2693.187)"/>
        <path id="Trazado_386" fill="#434343" d="M630.286 2769.85l8.219 2.264-.445-2.557z" transform="translate(-610.982 -2717.145)"/>
        <path id="Trazado_387" d="M649.9 2698.841a2.2 2.2 0 0 1-3.04-2.028 2.221 2.221 0 0 1 .059-.505 8.392 8.392 0 0 1 2.981 2.533z" class="cls-20" transform="translate(-620.96 -2673.04)"/>
        <circle id="Elipse_49" cx="2.042" cy="2.042" r="2.042" class="cls-13" transform="translate(1.733 41.159)"/>
    </g>
    <g id="Grupo_145" transform="translate(87.61 27.38)">
        <g id="Grupo_143" transform="translate(34.876)">
            <g id="Grupo_138" transform="translate(.485 5.866)">
                <path id="Trazado_388" d="M786.952 2657.212c.5 6.02 4.869 9.794 7.436 9.794a4.751 4.751 0 0 0 1.242-.189v3h6.51v-7.634c.06-.158.119-.333.176-.52 2.886-.276 2.766-5.045 1.051-5.045-.312 0-.52.295-.651.592l-.426.426v-2.155s-.958.09-2.844-2.784c-.813 1.234-7.3 3.173-12.511 2.3.001.003-.012 1.078.017 2.215z" class="cls-12" transform="translate(-786.933 -2652.699)"/>
            </g>
            <path id="Trazado_389" d="M794.1 2637.954c4.49 0 5.387 2.395 5.387 2.395 1.916 0 4.849 3.5 3.083 7.393l-.009.009-1.009 1.009v-2.16s-.958.09-2.844-2.784c-.813 1.234-7.3 3.173-12.511 2.3 0 0-.013 1.072.017 2.208-1.941-5.614 1.963-10.37 7.886-10.37z" class="cls-11" transform="translate(-785.714 -2637.954)"/>
            <g id="Grupo_139" transform="translate(9.961 9.645)">
                <path id="Trazado_390" d="M811.109 2663.585a.359.359 0 0 0 .359-.359v-.671a.359.359 0 1 0-.718 0v.671a.359.359 0 0 0 .359.359z" class="cls-11" transform="translate(-810.75 -2662.196)"/>
            </g>
            <g id="Grupo_140" transform="translate(3.302 9.645)">
                <path id="Trazado_391" d="M794.371 2663.585a.359.359 0 0 0 .359-.359v-.671a.359.359 0 1 0-.718 0v.671a.359.359 0 0 0 .359.359z" class="cls-11" transform="translate(-794.012 -2662.196)"/>
            </g>
            <g id="Grupo_141" transform="translate(7.219 14.93)">
                <path id="Trazado_392" d="M804.318 2676.765a2.057 2.057 0 0 0 1.342-.46 1.835 1.835 0 0 0 .478-.592.165.165 0 0 0-.3-.136 1.677 1.677 0 0 1-1.8.842.165.165 0 0 0-.038.327 2.643 2.643 0 0 0 .318.019z" class="cls-11" transform="translate(-803.858 -2675.48)"/>
            </g>
            <circle id="Elipse_50" cx="1.776" cy="1.776" r="1.776" class="cls-14" transform="translate(10.929 11.448)"/>
            <path id="Trazado_393" d="M787.446 2667.03a12.649 12.649 0 0 0 1.079 3.248 1.776 1.776 0 1 0-1.079-3.248z" class="cls-14" transform="translate(-786.757 -2655.28)"/>
            <g id="Grupo_142" transform="translate(1.144 7.823)">
                <circle id="Elipse_51" cx="2.187" cy="2.187" r="2.187" class="cls-9" transform="translate(6.989 .329)"/>
                <circle id="Elipse_52" cx="2.187" cy="2.187" r="2.187" class="cls-9" transform="rotate(-80.783 2.545 2.158)"/>
                <path id="Trazado_394" d="M788.589 2660.134a2.516 2.516 0 0 0 5.031.095 1.643 1.643 0 0 1 1.631 0 2.513 2.513 0 1 0 .012-.364 1.936 1.936 0 0 0-1.656 0 2.516 2.516 0 0 0-5.019.269zm6.989 0a2.187 2.187 0 1 1 2.187 2.188 2.19 2.19 0 0 1-2.187-2.188zm-6.659 0a2.187 2.187 0 1 1 2.187 2.188 2.19 2.19 0 0 1-2.188-2.188z" class="cls-15" transform="translate(-788.589 -2657.617)"/>
            </g>
            <path id="Trazado_395" d="M808.794 2687.643v-3a14.494 14.494 0 0 0 4.408-2.34z" class="cls-13" transform="translate(-799.611 -2664.656)"/>
        </g>
        <path id="Trazado_396" fill="#922b2b" d="M769.676 2852.749h6.894l6.687-35.565 4.905-15.414 11.876 50.979h6.894l-6.424-57.193h-25.469z" transform="translate(-741.181 -2732.852)"/>
        <path id="Trazado_397" d="M762.8 2946.274v4.872a1.029 1.029 0 0 1-1.028 1.029h-13.823a.238.238 0 0 1-.238-.238V2951a1.068 1.068 0 0 1 .6-.962l7.792-3.762z" class="cls-25" transform="translate(-727.955 -2823.605)"/>
        <path id="Trazado_398" d="M847.877 2946.274v4.872a1.029 1.029 0 0 0 1.029 1.029h13.819a.238.238 0 0 0 .238-.238V2951a1.068 1.068 0 0 0-.6-.962l-7.792-3.762z" class="cls-25" transform="translate(-788.269 -2823.605)"/>
        <path id="Trazado_399" d="M776.052 2939.307l-.519 2.772h-6.718l.343-2.772z" class="cls-12" transform="translate(-740.662 -2819.41)"/>
        <path id="Trazado_400" d="M852.887 2939.307l.545 2.772h-6.69l-.75-2.772z" class="cls-12" transform="translate(-787.134 -2819.41)"/>
        <path id="Trazado_401" d="M808.382 2796.783l-25.861 1.461.252-2.688h25.471" class="cls-21" transform="translate(-748.916 -2732.852)"/>
        <path id="Línea_3" d="M5.878 0L0 4.519" class="cls-12" transform="translate(59.436 32.565)"/>
        <path id="Trazado_403" fill="#c49d9d" d="M785.248 2689.29l-9.854 4.277a4.045 4.045 0 0 0-1.772 1.479l-3.946 5.945 5.564 4.91 1.486-1.27-1.687 26.937h25.471L798.949 2714l.346-9.373 1.322 1.317 5.878-4.518-3.158-5.146a7.824 7.824 0 0 0-3.254-2.948l-8.336-4.046s-3.781 2.485-6.499.004z" transform="translate(-741.181 -2668.865)"/>
        <g id="Grupo_144" transform="translate(41.973 21.021)">
            <path id="Trazado_404" d="M803.552 2691.1a7.7 7.7 0 0 0 10.079-.187l-.257-.125a7.433 7.433 0 0 1-9.551.194z" class="cls-15" transform="translate(-803.552 -2690.79)"/>
        </g>
        <path id="Trazado_405" d="M846.9 2700.622a2.191 2.191 0 0 0 2.912 2.067 7.822 7.822 0 0 0-2.821-2.694 2.182 2.182 0 0 0-.091.627z" class="cls-27" transform="translate(-787.679 -2675.312)"/>
        <path id="Trazado_406" d="M778.124 2701.935a2.191 2.191 0 0 0 3.066-2.668l-.709.308a4.049 4.049 0 0 0-1.772 1.48z" class="cls-27" transform="translate(-746.268 -2674.872)"/>
        <circle id="Elipse_53" cx="3.3" cy="3.3" r="3.3" class="cls-21" transform="translate(54.595 82.152)"/>
        <circle id="Elipse_54" cx="3.3" cy="3.3" r="3.3" class="cls-21" transform="translate(32.578 82.152)"/>
        <path id="Trazado_407" d="M698.408 2694.857l.276-.046.043-.169a.761.761 0 0 1 .686-.571l3.877-.262 2.7-1.1-1.506-1.88a.757.757 0 0 1 .08-1.032l3.176 2.447a2.851 2.851 0 0 1 .76.887l.994 1.812v.007l14.525 10.152 2.54-3.806 5.564 4.909-6.965 6.159a1.082 1.082 0 0 1-1.432-.015l-16.349-14.711-3.129.3a5.457 5.457 0 0 1-2.1-.209l-1.661-.5a.5.5 0 0 1-.317-.668l-1.183-.227a.511.511 0 0 1-.412-.449l-.02-.191h-.072a.421.421 0 0 1-.069-.836z" class="cls-12" transform="translate(-698.056 -2669.173)"/>
        <path id="Trazado_408" d="M832.059 2747.888l2.59-1.156a.723.723 0 0 0 .386-.414l.376-1.034-1.309.321-.417.9a.616.616 0 0 1-.8.306l.545-1.646a1.121 1.121 0 0 1 .551-.6l2.736-1.345 4.719-15.306-3.605-3.586 5.878-4.519 3.437 5.981a3.012 3.012 0 0 1 .155 2.69l-9.539 21.813-1.893.087a.62.62 0 0 1-.56-.3l-.206-.344-1 .082a.618.618 0 0 1-.548-.249l-.234-.316-.14.036a.853.853 0 0 1-.969-.421l-.691.23a.988.988 0 0 1 .538-1.21z" class="cls-12" transform="translate(-778.391 -2687.239)"/>
        <path id="Trazado_409" d="M865.81 2735.1a2.215 2.215 0 0 0 1.79 2.174l.373-.867a3.01 3.01 0 0 0-.156-2.69l-.425-.74a2.216 2.216 0 0 0-1.582 2.123z" class="cls-13" transform="translate(-799.067 -2695.172)"/>
        <path id="Trazado_410" d="M758.607 2741.012l1.571 1.415a1.082 1.082 0 0 0 1.432.015l1.539-1.329a2.619 2.619 0 0 0-4.542-.1z" class="cls-13" transform="translate(-734.516 -2699.248)"/>
    </g>
</svg>
