<svg xmlns="http://www.w3.org/2000/svg" width="199.3" height="153.67" viewBox="0 0 199.3 153.67">
    <defs>
        <style>
            .cls-3{fill:gray}.cls-4{fill:#fcbeb7}.cls-5{fill:#311643}.cls-6{fill:#f49795}.cls-18,.cls-7{fill:none}.cls-8{fill:#fff}.cls-9{fill:#f9afab}.cls-10{fill:#ff8989}.cls-11{fill:#d34a4a}.cls-14{fill:#ffd2d2}.cls-16{fill:#d76262}.cls-18{stroke:#801e1e;stroke-linecap:round;stroke-width:2px}
        </style>
    </defs>
    <g id="Grupo_787" transform="translate(-329.072 -974)">
        <g id="Grupo_430" transform="translate(329.072 1004.833)">
            <path id="Trazado_1099" fill="rgba(230,191,191,0.48)" d="M19.3 0h37.681L123.3 122.837H-49.533z" transform="translate(73.328)"/>
            <g id="Grupo_426" transform="translate(72.699 34.582)">
                <g id="Grupo_425" transform="translate(0 58.13)">
                    <path id="trousers_5_" fill="#bcbcbc" d="M35.028 12.8A119.763 119.763 0 0 1 15.467 2.316C4.649-4.746-2.229 6.176.662 10.65c2.565 3.95 16.973 17.48 16.973 17.48l49.031-.373S78.183 14.116 80 11.988C86.11 4.773 81.074.935 74.336.386 68.018-.14 50.928 11.571 48.83 13.085z" transform="translate(0 1.904)"/>
                    <path id="Trazado_1095" d="M7.47 6.095a4.141 4.141 0 0 1-3.55 2.252A3.917 3.917 0 0 1 0 4.245 4.261 4.261 0 0 1 4.063 0a3.8 3.8 0 0 1 .63.041A7.744 7.744 0 0 1 7.47 6.095z" class="cls-3" transform="scale(-1) rotate(70.99 6.818 -7.503)"/>
                    <path id="Trazado_1096" d="M7.82 6.04a3.9 3.9 0 0 1-3.582 2.024A4.343 4.343 0 0 1 0 3.929 3.841 3.841 0 0 1 4.03 0a4.305 4.305 0 0 1 .654.067A8.031 8.031 0 0 1 7.82 6.04z" class="cls-3" transform="rotate(-32 43.326 -123.807)"/>
                </g>
                <g id="Grupo_424" transform="translate(15.601)">
                    <g id="Grupo_14" transform="translate(13.612)">
                        <g id="Grupo_9" transform="translate(0 8.138)">
                            <path id="Trazado_34" d="M1108.48 541.129c-7.224 1.2-16.226-1.485-17.355-3.2-2.615 3.986-3.944 3.861-3.944 3.861v2.989l-.591-.591c-.182-.412-.471-.821-.9-.821-2.379 0-2.545 6.616 1.459 7 .079.259.161.5.244.721v10.59h9.031v-4.165a6.6 6.6 0 0 0 1.723.263c3.56 0 9.627-5.235 10.315-13.587.038-1.573.018-3.06.018-3.06z" class="cls-4" transform="translate(-1083.997 -537.932)"/>
                        </g>
                        <path id="Trazado_35" d="M1098.345 523.187c-6.228 0-7.473 3.321-7.473 3.321-2.657 0-6.726 4.858-4.276 10.256l.012.012 1.4 1.4v-2.989s1.329.125 3.944-3.861c1.129 1.712 10.131 4.4 17.355 3.2 0 0 .019 1.487-.023 3.063 2.697-7.806-2.719-14.402-10.939-14.402z" class="cls-5" transform="translate(-1084.823 -523.187)"/>
                        <g id="Grupo_10" transform="translate(10.346 12.543)">
                            <path id="Trazado_36" d="M1103.24 551.84a.5.5 0 0 1-.5-.5v-.931a.5.5 0 0 1 1 0v.931a.5.5 0 0 1-.5.5z" class="cls-5" transform="translate(-1102.742 -549.913)"/>
                            <path id="Trazado_1100" d="M1103.644 552.387c-.5 0-.9-.286-.9-.639v-1.2c0-.353.4-.639.9-.639s.9.286.9.639v1.2c.001.352-.402.639-.9.639z" class="cls-5" transform="translate(-1098.879 -540.53)"/>
                        </g>
                        <g id="Grupo_11" transform="translate(19.584 12.543)">
                            <path id="Trazado_37" d="M1119.978 551.84a.5.5 0 0 1-.5-.5v-.931a.5.5 0 0 1 1 0v.931a.5.5 0 0 1-.5.5z" class="cls-5" transform="translate(-1119.48 -549.913)"/>
                        </g>
                        <circle id="Elipse_2" cx="2.463" cy="2.463" r="2.463" class="cls-6" transform="translate(5.073 15.881)"/>
                        <path id="Trazado_39" d="M1124.737 552.38a17.57 17.57 0 0 1-1.5 4.506 2.463 2.463 0 1 1 1.5-4.506z" class="cls-6" transform="translate(-1100.533 -536.081)"/>
                        <g id="Grupo_13" transform="translate(7.353 10.852)">
                            <circle id="Elipse_3" cx="3.034" cy="3.034" r="3.034" class="cls-7" transform="translate(.457 .457)"/>
                            <circle id="Elipse_4" cx="3.034" cy="3.034" r="3.034" class="cls-7" transform="rotate(-9.217 10.715 -56.873)"/>
                            <path id="Trazado_40" d="M1110.049 542.85a3.5 3.5 0 0 0-3.471 3.117 2.683 2.683 0 0 0-2.3 0 3.5 3.5 0 1 0 .017.5 2.28 2.28 0 0 1 2.263 0 3.491 3.491 0 1 0 3.488-3.623zm-9.238 6.525a3.034 3.034 0 1 1 3.034-3.034 3.038 3.038 0 0 1-3.034 3.034zm9.238 0a3.034 3.034 0 1 1 3.034-3.034 3.038 3.038 0 0 1-3.034 3.034z" class="cls-8" transform="translate(-1097.32 -542.85)"/>
                        </g>
                        <path id="Trazado_41" d="M1101.54 574.944v-4.165a20.091 20.091 0 0 1-6.114-3.247z" class="cls-9" transform="translate(-1089.118 -543.057)"/>
                    </g>
                    <path id="Trazado_44" d="M1138.162 607.473l2.846 6.51h-9.937v-3.37z" class="cls-4" transform="translate(-1091.478 -560.954)"/>
                    <path id="Trazado_47" d="M1085.351 573.845l12.138 5.483a7.961 7.961 0 0 1 3.845 3.7l4.682 9.378-7.09 3.139.588 20.73-27.554 2.117-6.151-19.477h-6.476v-12.553a8.132 8.132 0 0 1 5-7.5l12-5.013s5.248 3.437 9.018-.004z" class="cls-10" transform="translate(-1059.333 -545.886)"/>
                    <g id="Grupo_15" transform="translate(14.831 28.705)">
                        <path id="Trazado_48" d="M1099.921 575.548a10.228 10.228 0 0 1-6.465 2.278 10.515 10.515 0 0 1-6.865-2.629l-.386.162a10.966 10.966 0 0 0 7.251 2.833 10.588 10.588 0 0 0 6.841-2.48z" class="cls-8" transform="translate(-1086.205 -575.196)"/>
                    </g>
                    <path id="Trazado_55" d="M1059.333 615.665l.34 11.741a5.868 5.868 0 0 0 5.865 5.7h20.438l1.372-4.78-18.028-2.971-.128-9.751z" class="cls-4" transform="translate(-1059.333 -562.941)"/>
                    <path id="Trazado_56" d="M1065.86 640.43a3.024 3.024 0 0 1-1.075 2.315 5.874 5.874 0 0 1-4.413-4.089 3.03 3.03 0 0 1 5.487 1.774z" class="cls-9" transform="translate(-1059.799 -574.364)"/>
                    <path id="Trazado_57" d="M1077.2 615.6l2.768 10.186-2.64-.435-.127-9.751" class="cls-11" transform="translate(-1067.338 -564.597)"/>
                    <path id="Trazado_58" d="M1102.914 637.9l-3.222 5.2h4.369l1.372-4.78z" class="cls-9" transform="translate(-1077.417 -572.933)"/>
                    <path id="Trazado_59" fill="#a34a4a" d="M1132.044 613.161h-26.65a2.539 2.539 0 0 0-2.441 1.839l-4.883 17.011h-10.807a.94.94 0 1 0 0 1.88h42.2l5.021-17.49a2.539 2.539 0 0 0-2.44-3.24z" transform="translate(-1073.083 -560.743)"/>
                    <ellipse id="Elipse_5" cx="1.444" cy=".989" class="cls-10" rx="1.444" ry=".989" transform="rotate(-84.95 56.323 6.524)"/>
                    <path id="Trazado_61" d="M1064.905 588.562a2.681 2.681 0 0 1-5.1 1.153 8.13 8.13 0 0 1 2.241-3.828c.059 0 .119-.006.179-.006a2.681 2.681 0 0 1 2.68 2.681z" class="cls-11" transform="translate(-1059.545 -551.279)"/>
                    <path id="Trazado_62" d="M1131.745 587.094a2.681 2.681 0 0 1-3.868-3.47l.189.086a7.957 7.957 0 0 1 3.679 3.384z" class="cls-11" transform="translate(-1089.909 -550.268)"/>
                </g>
            </g>
            <g id="Grupo_427" transform="translate(0 60.9)">
                <g id="Grupo_110">
                    <path id="Trazado_333" fill="#b58e8e" d="M920.885 1941.917v20.277a.891.891 0 0 1-.891.891h-17.177a.891.891 0 0 1-.891-.891v-24.916a.891.891 0 0 1 .891-.891h12.539z" transform="translate(-901.926 -1936.388)"/>
                    <path id="Trazado_334" d="M965.072 1941.917h-4.639a.891.891 0 0 1-.891-.891v-4.638z" class="cls-14" transform="translate(-946.112 -1936.388)"/>
                </g>
                <rect id="Rectángulo_103" width="7.794" height=".796" class="cls-14" rx=".398" transform="translate(2.04 2.962)"/>
                <rect id="Rectángulo_104" width="4.324" height=".796" class="cls-14" rx=".398" transform="translate(2.04 4.734)"/>
                <g id="Grupo_111" transform="translate(5.007 14.607)">
                    <circle id="Elipse_42" cx="3.485" cy="3.485" r="3.485" class="cls-7" transform="translate(.988 .988)"/>
                    <path id="Trazado_335" d="M927.384 2007.507a.494.494 0 0 1 .494-.494 3.485 3.485 0 1 1 3.485-3.485.494.494 0 0 1 .988 0 4.473 4.473 0 1 0-4.473 4.473.494.494 0 0 1-.494-.494z" class="cls-14" transform="translate(-923.405 -1999.055)"/>
                    <path id="Trazado_336" d="M944.95 2016.127a.494.494 0 0 0-.494.494 3.489 3.489 0 0 1-3.485 3.485.494.494 0 1 0 0 .988 4.478 4.478 0 0 0 4.473-4.473.494.494 0 0 0-.494-.494z" class="cls-10" transform="translate(-936.498 -2012.148)"/>
                </g>
            </g>
            <g id="Grupo_428" transform="translate(42.87 35.781)">
                <path id="Trazado_341" fill="#89aeff" d="M1595.181 1872.9v12.637a1.24 1.24 0 0 0 1.24 1.24h20.021a1.241 1.241 0 0 0 1.24-1.24V1872.9z" transform="translate(-1595.181 -1867.753)"/>
                <path id="Trazado_342" d="M1599.124 1857.283h18.092c.746 0 1.351.988 1.351 2.207v10.853c0 1.219-.6 2.207-1.351 2.207h-18.092c-.746 0-1.351-.988-1.351-2.207v-10.853c0-1.219.605-2.207 1.351-2.207z" class="cls-14" transform="translate(-1596.919 -1857.283)"/>
                <path id="Trazado_343" d="M1616.443 1886.775h-20.021a1.24 1.24 0 0 1-1.24-1.24V1872.9l11.251 8.234 11.251-8.234v12.637a1.241 1.241 0 0 1-1.241 1.238z" class="cls-16" transform="translate(-1595.181 -1867.753)"/>
                <rect id="Rectángulo_131" width="11.017" height="1.125" class="cls-10" rx=".562" transform="translate(5.742 3.584)"/>
                <rect id="Rectángulo_132" width="6.113" height="1.125" class="cls-10" rx=".562" transform="translate(8.195 6.089)"/>
            </g>
            <g id="Grupo_429" transform="translate(176.128 48.104)">
                <path id="Trazado_579" d="M1359.993 2581.677h5.679l1.966 2.369h12.295a1.506 1.506 0 0 1 1.505 1.506l.222 13.019a1.506 1.506 0 0 1-1.505 1.506h-20.161a1.505 1.505 0 0 1-1.505-1.506v-15.388a1.505 1.505 0 0 1 1.504-1.506z" class="cls-16" transform="translate(-1358.488 -2581.677)"/>
                <path id="Trazado_580" d="M1366.337 2595.252h16.154a1.239 1.239 0 0 1 1.206 1.269v6.239a1.238 1.238 0 0 1-1.206 1.269h-16.154a1.239 1.239 0 0 1-1.206-1.269v-6.239a1.239 1.239 0 0 1 1.206-1.269z" class="cls-14" transform="translate(-1362.894 -2590.68)"/>
                <path id="Trazado_581" d="M1359.993 2602.278h20.161a1.587 1.587 0 0 1 1.505 1.656v8.148a1.586 1.586 0 0 1-1.505 1.656h-20.161a1.586 1.586 0 0 1-1.505-1.656v-8.148a1.586 1.586 0 0 1 1.505-1.656z" class="cls-10" transform="translate(-1358.488 -2595.341)"/>
            </g>
        </g>
        <g id="nube_1_" transform="translate(395.791 974)">
            <g id="Grupo_786">
                <path id="Trazado_1146" fill="#c66f6f" d="M76.778 127.372a15.885 15.885 0 0 0-24.03-11.065 21.164 21.164 0 0 0-39.331 10.876v.22a15.874 15.874 0 0 0 2.645 31.555h58.256a15.875 15.875 0 0 0 2.459-31.586z" transform="translate(0 -106)"/>
            </g>
        </g>
        <g id="configuracion-de-la-base-de-datos" transform="translate(427.037 993.624)">
            <g id="Grupo_23" transform="translate(-1 -9.166)">
                <g id="Grupo_21">
                    <ellipse id="Elipse_4-2" cx="9.928" cy="4.419" class="cls-14" rx="9.928" ry="4.419" transform="translate(0 -2)"/>
                    <path id="Trazado_3" d="M9.928 13.931c.981 0 5.77-.284 7.546-1.343s2.381-1.658 2.381-2.316V6.133c0 2.441-4.444 4.419-9.928 4.419S0 8.574 0 6.133v3.379c0 2.441 4.444 4.419 9.928 4.419z" class="cls-14" transform="translate(0 -1.335)"/>
                    <path id="Trazado_1147" d="M9.928 13.931c.981 0 5.77-.284 7.546-1.343s2.381-1.658 2.381-2.316V6.133c0 2.441-4.444 4.419-9.928 4.419S0 8.574 0 6.133v3.379c0 2.441 4.444 4.419 9.928 4.419z" class="cls-14" transform="translate(0 8.93)"/>
                    <path id="Trazado_1148" d="M9.928 13.931c.981 0 5.77-.284 7.546-1.343s2.381-1.658 2.381-2.316V6.133c0 2.441-4.444 4.419-9.928 4.419S0 8.574 0 6.133v3.379c0 2.441 4.444 4.419 9.928 4.419z" class="cls-14" transform="translate(0 3.797)"/>
                </g>
            </g>
        </g>
        <g id="Grupo_789" transform="translate(429.685 1010.014)">
            <path id="Línea_57" d="M0 0L3.43 3.43" class="cls-18" transform="translate(0 5.144)"/>
            <path id="Línea_58" d="M3.43 0L0 3.43" class="cls-18" transform="translate(3.43 5.144)"/>
            <path id="Línea_59" d="M0 0L0 8.574" class="cls-18" transform="translate(3.43)"/>
        </g>
        <g id="Grupo_790" transform="rotate(180 223.897 509.294)">
            <path id="Línea_57-2" d="M0 0L3.43 3.43" class="cls-18" transform="translate(0 5.144)"/>
            <path id="Línea_58-2" d="M3.43 0L0 3.43" class="cls-18" transform="translate(3.43 5.144)"/>
            <path id="Línea_59-2" d="M0 0L0 8.574" class="cls-18" transform="translate(3.43)"/>
        </g>
    </g>
</svg>
