<svg xmlns="http://www.w3.org/2000/svg" width="199.3" height="153.67" viewBox="0 0 199.3 153.67">
    <defs>
        <style>
            .cls-1{fill:#ae3f3f}.cls-2{fill:#d56060}.cls-3{fill:#6a1818}.cls-5{fill:gray}.cls-6{fill:#8f2c2c}.cls-7{fill:#fcbeb7}.cls-8{fill:#311643}.cls-10{fill:#f49795}.cls-11{fill:none}.cls-12{fill:#fff}
        </style>
    </defs>
    <g id="Grupo_422" transform="translate(-129.332 -710.5)">
        <g id="Grupo_418" transform="translate(147.725 710.5)">
            <g id="smartphone_1_" transform="translate(74.104)">
                <g id="shape">
                    <path id="Path" d="M64.22 0H11.408A11.212 11.212 0 0 0 0 11.017v37.4h4.157V11.084a6.022 6.022 0 0 1 6.212-5.821h11.823v2.431a1.49 1.49 0 0 0 1.524 1.427h21.846a1.475 1.475 0 0 0 1.524-1.427V5.263h11.823a6.022 6.022 0 0 1 6.212 5.821v40.409h4.087V10.236c0-4.706-4.087-8.519-9.122-8.519a.669.669 0 1 1 0-1.338c5.8 0 10.507 4.416 10.507 9.857v41.257h5.057V11.017A11.233 11.233 0 0 0 64.22 0z" class="cls-1"/>
                    <path id="Rectangle" d="M0 0H4.157V44.624H0z" class="cls-1" transform="translate(0 79.949)"/>
                    <path id="Path-2" d="M0 0v30.285L4.087 31V0z" class="cls-1" transform="translate(65.121 64.472)"/>
                    <path id="Path-3" d="M69.185 34.656V.624L65.1 0v36.44a6.022 6.022 0 0 1-6.212 5.821H10.345a6.043 6.043 0 0 1-6.189-5.419H0a11.732 11.732 0 0 0 11.546 10.793l49.349-.379a.652.652 0 0 1 .531-.647 9.312 9.312 0 0 0 6.9-6.579 16.734 16.734 0 0 0 .859-5.374z" class="cls-1" transform="translate(.023 100.711)"/>
                    <path id="Path-4" d="M6.858 0v31.6l2.517 2.453-2.517 1.606V70.85a18.243 18.243 0 0 1-.9 5.776A10.949 10.949 0 0 1 0 83.495h.485a11.212 11.212 0 0 0 11.408-11.017V0z" class="cls-1" transform="translate(63.735 64.472)"/>
                    <path id="Path-5" d="M.023.156a.684.684 0 0 0 .67.513.406.406 0 0 0 .161-.022A11.181 11.181 0 0 0 2.817 0H0a.32.32 0 0 0 .023.156z" class="cls-1" transform="translate(60.918 147.945)"/>
                    <path id="shape_22_" d="M.105.315A.707.707 0 0 1 1.06.1a27.551 27.551 0 0 0 14.4 3.734.669.669 0 1 1-.02 1.338A28.961 28.961 0 0 1 .326 1.237.656.656 0 0 1 .105.315z" class="cls-1" transform="translate(50.203 42.862)"/>
                    <path id="shape_11_" d="M4.057.567a44.791 44.791 0 0 1 8.294-.543 28.817 28.817 0 0 1 10.158 2.128 26.479 26.479 0 0 1 8.02 5.235c1.277 1.212 2.535 2.482 3.859 3.884a.653.653 0 0 1-.045.945.71.71 0 0 1-.979-.043c-1.309-1.385-2.549-2.638-3.805-3.83a25.086 25.086 0 0 0-7.6-4.962 27.4 27.4 0 0 0-9.659-2.02 42.781 42.781 0 0 0-7.751.488l-.289.042c-.21.033-2.666.405-3.393.494L.77 2.4A.688.688 0 0 1 0 1.806a.675.675 0 0 1 .611-.739l.168-.02c.852-.11 3.455-.506 3.278-.48z" class="cls-1" transform="translate(2.91 18.295)"/>
                    <path id="shape_24_" d="M.613.244A41.9 41.9 0 0 1 9.425.221a.675.675 0 0 1 .617.735.687.687 0 0 1-.761.6 40.482 40.482 0 0 0-8.508.022A.688.688 0 0 1 0 .985.675.675 0 0 1 .613.244z" class="cls-1" transform="translate(2.91 104.731)"/>
                    <path id="shape_16_" d="M.152.251a.71.71 0 0 1 .974-.1C2.107.905 3.018 1.678 3.9 2.509l.55.516c5.847 5.467 9.145 7.91 13.116 9.521 4.3 1.745 9.388 2.413 18.558 2.529a.669.669 0 1 1-.018 1.338c-9.241-.117-14.467-.793-18.941-2.579l-.135-.054c-4.3-1.743-7.786-4.372-14.1-10.312-.85-.8-1.727-1.544-2.674-2.276A.654.654 0 0 1 .152.251z" class="cls-1" transform="translate(29.535 111.884)"/>
                </g>
                <g id="app_1_" transform="translate(11.754 29.237)">
                    <path id="Rectangle-2" d="M31.129 30.842H.808a.8.8 0 0 1-.808-.78V.781A.8.8 0 0 1 .808 0h30.32a.8.8 0 0 1 .808.781v29.281a.8.8 0 0 1-.807.78zM1.617 1.561v27.72h28.7V1.561z" class="cls-2" transform="translate(7.551)"/>
                    <g id="Group" transform="translate(8.082 31.779)">
                        <path id="Rectangle-3" d="M8.613 9.1H.808A.8.8 0 0 1 0 8.318V.781A.8.8 0 0 1 .808 0h7.805a.8.8 0 0 1 .808.781v7.537a.8.8 0 0 1-.808.782zm-7-7.538v5.975H7.8V1.561z" class="cls-2"/>
                        <path id="Path-6" d="M8.042.229a.829.829 0 0 1 1.143 0A.761.761 0 0 1 9.218 1.3l-.033.033L1.38 8.87a.829.829 0 0 1-1.143 0A.761.761 0 0 1 .2 7.8l.033-.033z" class="cls-2"/>
                    </g>
                    <g id="Group-2" transform="translate(18.728 31.779)">
                        <path id="Rectangle-4" d="M8.613 9.1H.808A.8.8 0 0 1 0 8.318V.781A.8.8 0 0 1 .808 0h7.805a.8.8 0 0 1 .808.781v7.537a.8.8 0 0 1-.808.782zm-7-7.538v5.976H7.8V1.561z" class="cls-2"/>
                        <path id="Path-7" d="M8.042.229a.829.829 0 0 1 1.143 0A.761.761 0 0 1 9.218 1.3l-.033.033L1.38 8.87a.829.829 0 0 1-1.143 0A.761.761 0 0 1 .2 7.8l.033-.033z" class="cls-2"/>
                    </g>
                    <g id="Group-3" transform="translate(29.397 31.779)">
                        <path id="Rectangle-5" d="M8.613 9.1H.808A.8.8 0 0 1 0 8.318V.781A.8.8 0 0 1 .808 0h7.805a.8.8 0 0 1 .808.781v7.537a.8.8 0 0 1-.808.782zm-7-7.538v5.976H7.8V1.561z" class="cls-2"/>
                        <path id="Path-8" d="M8.042.229a.829.829 0 0 1 1.143 0A.761.761 0 0 1 9.218 1.3l-.033.033L1.38 8.87a.829.829 0 0 1-1.143 0A.761.761 0 0 1 .2 7.8l.033-.033z" class="cls-2"/>
                    </g>
                    <path id="Path-9" d="M40.9 17.016H6.858a7.045 7.045 0 0 1-2.673-.52 6.839 6.839 0 0 1-2.18-1.418 6.578 6.578 0 0 1-1.468-2.1A6.405 6.405 0 0 1 0 10.392V6.623a6.405 6.405 0 0 1 .538-2.581 6.578 6.578 0 0 1 1.468-2.1A6.839 6.839 0 0 1 4.186.52 7.045 7.045 0 0 1 6.858 0H40.9a7.045 7.045 0 0 1 2.673.52 6.839 6.839 0 0 1 2.18 1.418 6.578 6.578 0 0 1 1.468 2.1 6.405 6.405 0 0 1 .538 2.581v3.769a6.752 6.752 0 0 1-6.859 6.628zM6.858 1.561a5.389 5.389 0 0 0-2.043.4 5.223 5.223 0 0 0-1.666 1.08A5.024 5.024 0 0 0 2.027 4.65a4.9 4.9 0 0 0-.411 1.973v3.769a4.9 4.9 0 0 0 .411 1.973 5.024 5.024 0 0 0 1.122 1.609 5.223 5.223 0 0 0 1.666 1.083 5.389 5.389 0 0 0 2.043.4H40.9a5.16 5.16 0 0 0 5.242-5.062V6.623a4.9 4.9 0 0 0-.411-1.973 5.024 5.024 0 0 0-1.122-1.609 5.223 5.223 0 0 0-1.669-1.083 5.389 5.389 0 0 0-2.043-.4z" class="cls-2" transform="translate(.231 48.148)"/>
                    <path id="Path-10" d="M40.9 17.016H6.858a7.045 7.045 0 0 1-2.673-.52 6.839 6.839 0 0 1-2.18-1.418 6.578 6.578 0 0 1-1.468-2.1A6.405 6.405 0 0 1 0 10.392V6.623a6.405 6.405 0 0 1 .538-2.581 6.578 6.578 0 0 1 1.468-2.1A6.839 6.839 0 0 1 4.186.52 7.045 7.045 0 0 1 6.858 0H40.9a7.045 7.045 0 0 1 2.673.52 6.839 6.839 0 0 1 2.18 1.418 6.578 6.578 0 0 1 1.468 2.1 6.405 6.405 0 0 1 .538 2.581v3.769a6.752 6.752 0 0 1-6.859 6.628zM6.858 1.561a5.389 5.389 0 0 0-2.043.4 5.223 5.223 0 0 0-1.666 1.08A5.024 5.024 0 0 0 2.027 4.65a4.9 4.9 0 0 0-.411 1.973v3.769a4.9 4.9 0 0 0 .411 1.973 5.024 5.024 0 0 0 1.122 1.609 5.223 5.223 0 0 0 1.666 1.083 5.389 5.389 0 0 0 2.043.4H40.9a5.16 5.16 0 0 0 5.242-5.062V6.623a4.9 4.9 0 0 0-.411-1.973 5.024 5.024 0 0 0-1.122-1.609 5.223 5.223 0 0 0-1.669-1.083 5.389 5.389 0 0 0-2.043-.4z" class="cls-2" transform="translate(0 66.702)"/>
                    <path id="Path-11" d="M30.023.231a.829.829 0 0 1 1.143-.005A.761.761 0 0 1 31.2 1.3l-.032.034L1.383 30.388a.829.829 0 0 1-1.143.006.761.761 0 0 1-.04-1.071l.032-.034z" class="cls-2" transform="translate(7.551 .223)"/>
                </g>
            </g>
            <g id="bubble_notes_1_" transform="translate(0 23.26)">
                <g id="bubble_5_" transform="translate(127.424 27.564)">
                    <path id="Path-12" d="M47.732 14.317H5.75a5.893 5.893 0 0 1-2.239-.436 5.744 5.744 0 0 1-1.828-1.19 5.525 5.525 0 0 1-1.231-1.765A5.358 5.358 0 0 1 0 8.764V5.553a5.358 5.358 0 0 1 .452-2.162 5.525 5.525 0 0 1 1.232-1.765A5.743 5.743 0 0 1 3.511.436 5.893 5.893 0 0 1 5.75 0h41.982a5.893 5.893 0 0 1 2.239.436 5.744 5.744 0 0 1 1.829 1.19 5.525 5.525 0 0 1 1.23 1.765 5.358 5.358 0 0 1 .452 2.162V8.77a5.416 5.416 0 0 1-.466 2.16 5.585 5.585 0 0 1-1.236 1.763 5.756 5.756 0 0 1-1.823 1.189 5.837 5.837 0 0 1-2.225.435zM5.75 1.338a4.474 4.474 0 0 0-1.7.331 4.359 4.359 0 0 0-1.387.9 4.193 4.193 0 0 0-.935 1.34 4.068 4.068 0 0 0-.343 1.641v3.214a4.068 4.068 0 0 0 .343 1.641 4.193 4.193 0 0 0 .935 1.34 4.359 4.359 0 0 0 1.387.9 4.474 4.474 0 0 0 1.7.331h41.982a4.42 4.42 0 0 0 1.687-.331 4.375 4.375 0 0 0 1.384-.9 4.249 4.249 0 0 0 .939-1.34 4.113 4.113 0 0 0 .354-1.64V5.553a4.068 4.068 0 0 0-.343-1.641 4.194 4.194 0 0 0-.935-1.34 4.359 4.359 0 0 0-1.387-.9 4.474 4.474 0 0 0-1.7-.331z" class="cls-3"/>
                    <path id="Path-13" d="M39.742 0a.681.681 0 0 1 .693.669.68.68 0 0 1-.652.668H.693A.681.681 0 0 1 0 .669.68.68 0 0 1 .652 0h39.09z" class="cls-3" transform="translate(6.697 5.152)"/>
                    <path id="Path-14" d="M19.213 0a.681.681 0 0 1 .693.669.68.68 0 0 1-.652.668H.693A.681.681 0 0 1 0 .669.68.68 0 0 1 .652 0h18.561z" class="cls-3" transform="translate(6.697 8.363)"/>
                </g>
                <g id="bubble_4_" transform="translate(60.156 100.644)">
                    <path id="Path-15" d="M47.732 14.317H5.75a5.893 5.893 0 0 1-2.239-.436 5.744 5.744 0 0 1-1.828-1.19 5.525 5.525 0 0 1-1.231-1.765A5.358 5.358 0 0 1 0 8.764V5.553a5.358 5.358 0 0 1 .452-2.162 5.525 5.525 0 0 1 1.232-1.765A5.743 5.743 0 0 1 3.511.436 5.893 5.893 0 0 1 5.75 0h41.982a5.893 5.893 0 0 1 2.239.436 5.744 5.744 0 0 1 1.829 1.19 5.525 5.525 0 0 1 1.23 1.765 5.358 5.358 0 0 1 .452 2.162v3.211a5.358 5.358 0 0 1-.452 2.162 5.525 5.525 0 0 1-1.23 1.765 5.744 5.744 0 0 1-1.828 1.19 5.893 5.893 0 0 1-2.24.436zM5.75 1.338a4.474 4.474 0 0 0-1.7.331 4.359 4.359 0 0 0-1.387.9 4.193 4.193 0 0 0-.935 1.34 4.068 4.068 0 0 0-.343 1.641v3.214a4.068 4.068 0 0 0 .343 1.641 4.193 4.193 0 0 0 .935 1.34 4.359 4.359 0 0 0 1.387.9 4.474 4.474 0 0 0 1.7.331h41.982a4.473 4.473 0 0 0 1.7-.331 4.359 4.359 0 0 0 1.387-.9 4.194 4.194 0 0 0 .935-1.34 4.067 4.067 0 0 0 .346-1.641V5.553a4.068 4.068 0 0 0-.343-1.641 4.194 4.194 0 0 0-.935-1.34 4.359 4.359 0 0 0-1.387-.9 4.474 4.474 0 0 0-1.7-.331z" class="cls-3"/>
                    <path id="Path-16" d="M39.719 0a.681.681 0 0 1 .693.669.68.68 0 0 1-.652.668H.693A.681.681 0 0 1 0 .669.68.68 0 0 1 .652 0h39.067z" class="cls-3" transform="translate(6.72 5.152)"/>
                    <path id="Path-17" d="M19.213 0a.681.681 0 0 1 .693.669.68.68 0 0 1-.652.668H.693A.681.681 0 0 1 0 .669.68.68 0 0 1 .652 0h18.561z" class="cls-3" transform="translate(6.72 8.363)"/>
                </g>
                <g id="bubble_3_">
                    <path id="Path-18" d="M47.732 14.317H5.75a5.893 5.893 0 0 1-2.239-.436 5.744 5.744 0 0 1-1.828-1.19 5.525 5.525 0 0 1-1.231-1.765A5.358 5.358 0 0 1 0 8.764V5.553a5.358 5.358 0 0 1 .452-2.162 5.525 5.525 0 0 1 1.232-1.765A5.743 5.743 0 0 1 3.511.436 5.893 5.893 0 0 1 5.75 0h41.982a5.893 5.893 0 0 1 2.239.436 5.744 5.744 0 0 1 1.829 1.19 5.525 5.525 0 0 1 1.23 1.765 5.358 5.358 0 0 1 .452 2.162V8.77a5.416 5.416 0 0 1-.466 2.16 5.585 5.585 0 0 1-1.236 1.763 5.756 5.756 0 0 1-1.823 1.189 5.837 5.837 0 0 1-2.225.435zM5.75 1.338a4.474 4.474 0 0 0-1.7.331 4.359 4.359 0 0 0-1.387.9 4.193 4.193 0 0 0-.935 1.34 4.068 4.068 0 0 0-.343 1.641v3.214a4.068 4.068 0 0 0 .343 1.641 4.193 4.193 0 0 0 .935 1.34 4.359 4.359 0 0 0 1.387.9 4.474 4.474 0 0 0 1.7.331h41.982a4.42 4.42 0 0 0 1.687-.331 4.375 4.375 0 0 0 1.384-.9 4.249 4.249 0 0 0 .939-1.34 4.113 4.113 0 0 0 .354-1.64V5.553a4.068 4.068 0 0 0-.343-1.641 4.194 4.194 0 0 0-.935-1.34 4.359 4.359 0 0 0-1.387-.9 4.474 4.474 0 0 0-1.7-.331z" class="cls-3"/>
                    <path id="Path-19" d="M39.742 0a.681.681 0 0 1 .693.669.68.68 0 0 1-.652.668H.693A.681.681 0 0 1 0 .669.68.68 0 0 1 .652 0h39.09z" class="cls-3" transform="translate(6.697 5.152)"/>
                    <path id="Path-20" d="M19.213 0a.681.681 0 0 1 .693.669.68.68 0 0 1-.652.668H.693A.681.681 0 0 1 0 .669.68.68 0 0 1 .652 0h18.561z" class="cls-3" transform="translate(6.697 8.363)"/>
                </g>
            </g>
            <g id="code_lines_8_" transform="translate(26.118 47.3)">
                <path id="Path-21" d="M52.559 32.872H5.75a5.893 5.893 0 0 1-2.239-.436 5.744 5.744 0 0 1-1.828-1.19 5.526 5.526 0 0 1-1.231-1.765A5.358 5.358 0 0 1 0 27.319V5.553a5.358 5.358 0 0 1 .452-2.162 5.525 5.525 0 0 1 1.232-1.765A5.744 5.744 0 0 1 3.511.436 5.893 5.893 0 0 1 5.75 0h46.809A5.893 5.893 0 0 1 54.8.436a5.744 5.744 0 0 1 1.828 1.19 5.525 5.525 0 0 1 1.232 1.765 5.358 5.358 0 0 1 .452 2.162v21.788a5.65 5.65 0 0 1-5.753 5.531zM5.75 1.338a4.474 4.474 0 0 0-1.7.331 4.359 4.359 0 0 0-1.387.9 4.193 4.193 0 0 0-.935 1.34 4.068 4.068 0 0 0-.343 1.641v21.769a4.068 4.068 0 0 0 .343 1.641 4.193 4.193 0 0 0 .935 1.34 4.359 4.359 0 0 0 1.387.9 4.474 4.474 0 0 0 1.7.331h46.809a4.286 4.286 0 0 0 4.364-4.193V5.553a4.068 4.068 0 0 0-.343-1.641 4.193 4.193 0 0 0-.935-1.34 4.359 4.359 0 0 0-1.387-.9 4.474 4.474 0 0 0-1.7-.331z" class="cls-3"/>
                <g id="code_lines_9_" transform="translate(8.152 3.903)">
                    <path id="Path-22" d="M1.016 2.475H.854A.838.838 0 0 1 0 1.65V.825A.838.838 0 0 1 .854 0h.162a.838.838 0 0 1 .854.825v.825a.853.853 0 0 1-.854.825z" class="cls-2" transform="translate(13.648 8.653)"/>
                    <path id="Path-23" d="M11.754 2.475H1.155A1.124 1.124 0 0 1 0 1.36v-.245A1.124 1.124 0 0 1 1.155 0h10.6a1.124 1.124 0 0 1 1.155 1.115v.245a1.124 1.124 0 0 1-1.156 1.115z" class="cls-3" transform="translate(0 8.653)"/>
                    <path id="Path-24" d="M12.932 2.475H1.155A1.124 1.124 0 0 1 0 1.36v-.245A1.124 1.124 0 0 1 1.155 0h11.777a1.124 1.124 0 0 1 1.155 1.115v.245a1.139 1.139 0 0 1-1.155 1.115z" class="cls-3" transform="translate(0 20.182)"/>
                    <path id="Path-25" d="M20.668 2.475H1.155A1.124 1.124 0 0 1 0 1.36v-.245A1.124 1.124 0 0 1 1.155 0h19.513a1.124 1.124 0 0 1 1.155 1.115v.245a1.139 1.139 0 0 1-1.155 1.115z" class="cls-2" transform="translate(3.579 16.347)"/>
                    <path id="Path-26" d="M10.646 2.475H1.155A1.124 1.124 0 0 1 0 1.36v-.245A1.124 1.124 0 0 1 1.155 0h9.491A1.124 1.124 0 0 1 11.8 1.115v.245a1.124 1.124 0 0 1-1.154 1.115z" class="cls-2" transform="translate(26.603 16.347)"/>
                    <path id="Path-27" d="M1.016 2.475H.854A.838.838 0 0 1 0 1.65V.825A.838.838 0 0 1 .854 0h.162a.838.838 0 0 1 .854.825v.825a.838.838 0 0 1-.854.825z" class="cls-3" transform="translate(40.527 12.511)"/>
                    <path id="Path-28" d="M21.43 2.475H1.155A1.124 1.124 0 0 1 0 1.36v-.245A1.124 1.124 0 0 1 1.155 0H21.43a1.124 1.124 0 0 1 1.155 1.115v.245a1.154 1.154 0 0 1-1.155 1.115z" class="cls-3" transform="translate(0 12.511)"/>
                    <path id="Path-29" d="M11.754 2.475H1.155A1.124 1.124 0 0 1 0 1.36v-.245A1.124 1.124 0 0 1 1.155 0h10.6a1.124 1.124 0 0 1 1.155 1.115v.245a1.139 1.139 0 0 1-1.156 1.115z" class="cls-3" transform="translate(16.349 8.653)"/>
                    <path id="Path-30" d="M14.779 2.5H1.155A1.124 1.124 0 0 1 0 1.383v-.268A1.124 1.124 0 0 1 1.155 0h13.624a1.124 1.124 0 0 1 1.155 1.115v.268A1.139 1.139 0 0 1 14.779 2.5z" class="cls-2" transform="translate(23.577 12.489)"/>
                    <g id="_x3C__x2F__x3E__5_" transform="translate(2.24)">
                        <path id="Path-31" d="M.185 1.985L3.51.045A.44.44 0 0 1 3.672 0 .3.3 0 0 1 3.9.089a.281.281 0 0 1 .1.223.348.348 0 0 1-.167.288L.97 2.252 3.833 3.9A.3.3 0 0 1 4 4.193a.281.281 0 0 1-.092.223.3.3 0 0 1-.231.089.343.343 0 0 1-.167-.045L.185 2.52A.347.347 0 0 1 0 2.23a.349.349 0 0 1 .185-.245z" class="cls-3" transform="translate(0 1.271)"/>
                        <path id="Path-32" d="M2.771.089A.3.3 0 0 1 3 0a.3.3 0 0 1 .231.089.281.281 0 0 1 .092.223.274.274 0 0 1-.023.134L.623 6.913C.6 6.936.577 6.98.554 7a.3.3 0 0 1-.231.089A.3.3 0 0 1 .092 7 .281.281 0 0 1 0 6.779a.274.274 0 0 1 .023-.134L2.7.178a.309.309 0 0 1 .071-.089z" class="cls-3" transform="translate(4.688)"/>
                        <path id="Path-33" d="M4 2.23a.347.347 0 0 1-.185.29L.485 4.46a.44.44 0 0 1-.162.04.3.3 0 0 1-.231-.089A.281.281 0 0 1 0 4.193.348.348 0 0 1 .162 3.9l2.863-1.65L.162.6A.3.3 0 0 1 0 .312.281.281 0 0 1 .092.089.3.3 0 0 1 .323 0a.343.343 0 0 1 .162.045l3.325 1.94A.243.243 0 0 1 4 2.23z" class="cls-3" transform="translate(8.729 1.316)"/>
                    </g>
                </g>
            </g>
        </g>
        <g id="Grupo_421" transform="translate(129.332 788.652)">
            <g id="Grupo_420" transform="translate(0 51.969)">
                <path id="trousers_5_" fill="#bcbcbc" d="M27.823 10.233a94.907 94.907 0 0 1-15.538-8.381C3.693-3.794-1.771 4.938.526 8.515 2.563 11.671 14.008 22.49 14.008 22.49l38.945-.3S62.1 11.285 63.546 9.585C68.4 3.816 64.4.747 59.046.309c-5.019-.421-18.593 8.942-20.26 10.152z" transform="translate(.361 1.059)"/>
                <path id="Trazado_1095" d="M6.271 5.116a3.477 3.477 0 0 1-2.98 1.891A3.289 3.289 0 0 1 0 3.563 3.577 3.577 0 0 1 3.41 0a3.193 3.193 0 0 1 .529.034 6.5 6.5 0 0 1 2.332 5.082z" class="cls-5" transform="scale(-1) rotate(70.99 5.101 -5.796)"/>
                <path id="Trazado_1096" d="M6.565 5.071a3.278 3.278 0 0 1-3.007 1.7A3.646 3.646 0 0 1 0 3.3 3.224 3.224 0 0 1 3.383 0a3.614 3.614 0 0 1 .549.056 6.742 6.742 0 0 1 2.633 5.015z" class="cls-5" transform="rotate(-32 34.906 -98.825)"/>
            </g>
            <g id="Grupo_419" transform="translate(10.928)">
                <path id="Trazado_842" d="M2188.6 3481.2v4.175h21.749l1.871-4.175z" class="cls-6" transform="translate(-2177.133 -3422.16)"/>
                <g id="Grupo_287" transform="translate(11.233)">
                    <path id="Trazado_819" d="M2214.1 3381.687c-2.043 3.379-8.286 8.241-17.569 5.274a.611.611 0 0 0-.088-.007c-2.208 0-2.362 6.143 1.354 6.5.055.181.111.351.168.512v9.988h8.383v-3.882a6.2 6.2 0 0 0 1.657.259c3.467 0 9.5-5.349 9.633-13.775-.93-.212-3.538-2.511-3.538-4.869z" class="cls-7" transform="translate(-2191.398 -3374.056)"/>
                    <path id="Trazado_820" d="M2217.831 3376.962c0-5.551-4.9-10.047-12.235-10.047-6.1 0-8.2 3.366-8.2 3.366s-5.766 1.246-5.766 8.411v18.119h24.56v-14.922a7.726 7.726 0 0 0 1.641-4.927zm-11.393 16.226a6.2 6.2 0 0 1-1.657-.259v3.882h-8.381v-9.988c-.058-.161-.113-.332-.169-.512-3.716-.355-3.562-6.5-1.354-6.5a.577.577 0 0 1 .088.007c9.284 2.967 15.526-1.9 17.569-5.274 0 2.358 2.61 4.657 3.538 4.866-.139 8.429-6.167 13.778-9.634 13.778z" class="cls-8" transform="translate(-2189.832 -3366.915)"/>
                    <path id="Trazado_821" d="M2188.146 3420.513l6.566-3.042 3.6.1 4.78.226 6.869 2.086v8.764h-21.818z" class="cls-7" transform="translate(-2188.146 -3391.353)"/>
                    <path id="Trazado_822" fill="#f9afab" d="M2218.551 3426.167v-9.3l-6.869-2.086v-.425a19.017 19.017 0 0 1-5.772-3.115z" transform="translate(-2196.733 -3388.342)"/>
                    <circle id="Elipse_98" cx="2.287" cy="2.287" r="2.287" class="cls-10" transform="translate(8.185 15.038)"/>
                    <path id="Trazado_823" d="M2235.033 3396.412a16.312 16.312 0 0 1-1.39 4.183 2.287 2.287 0 1 1 1.39-4.183z" class="cls-10" transform="translate(-2209.089 -3380.986)"/>
                    <g id="Grupo_282" transform="translate(9.82 9.393)">
                        <circle id="Elipse_99" cx="2.817" cy="2.817" r="2.817" class="cls-11" transform="rotate(-22.5 9.707 -20.48)"/>
                        <circle id="Elipse_100" cx="2.817" cy="2.817" r="2.817" class="cls-11" transform="rotate(-22.5 5.42 1.078)"/>
                        <path id="Trazado_824" d="M2219.821 3386.987a3.246 3.246 0 0 0-3.222 2.894 2.49 2.49 0 0 0-2.131 0 3.248 3.248 0 1 0 .016.468 2.1 2.1 0 0 1 2.1 0 3.24 3.24 0 1 0 3.238-3.364zm-8.576 6.058a2.817 2.817 0 1 1 2.817-2.817 2.82 2.82 0 0 1-2.816 2.816zm8.576 0a2.817 2.817 0 1 1 2.817-2.817 2.82 2.82 0 0 1-2.817 2.816z" class="cls-12" transform="translate(-2207.565 -3386.011)"/>
                    </g>
                    <g id="Grupo_285" transform="translate(13.178 13.894)">
                        <g id="Grupo_283" transform="translate(8.437)">
                            <path id="Trazado_825" d="M2230.449 3395.6a.463.463 0 0 1-.462-.463v-.864a.463.463 0 0 1 .925 0v.864a.463.463 0 0 1-.463.463z" class="cls-8" transform="translate(-2229.987 -3393.809)"/>
                        </g>
                        <g id="Grupo_284">
                            <path id="Trazado_826" d="M2214.117 3395.6a.462.462 0 0 1-.462-.463v-.864a.463.463 0 0 1 .925 0v.864a.463.463 0 0 1-.463.463z" class="cls-8" transform="translate(-2213.655 -3393.809)"/>
                        </g>
                    </g>
                    <g id="Grupo_286" transform="translate(14.581 19.521)">
                        <path id="Trazado_827" d="M2218.732 3406.357a2.646 2.646 0 0 1-1.729-.593 2.345 2.345 0 0 1-.614-.762.212.212 0 0 1 .386-.175 2.161 2.161 0 0 0 2.314 1.085.212.212 0 1 1 .049.421 3.64 3.64 0 0 1-.406.024z" class="cls-8" transform="translate(-2216.37 -3404.703)"/>
                    </g>
                </g>
                <g id="Grupo_288" transform="translate(.813 27.077)">
                    <path id="Trazado_835" d="M2206.555 3428.551c1.592 0 2.866-1.533 3.724-3.086h-9.08c1.386 1.549 3.282 3.086 5.356 3.086z" class="cls-12" transform="translate(-2184.036 -3422.294)"/>
                    <path id="Trazado_836" fill="#c43333" d="M2207.56 3425.821l-.628-.978a8.134 8.134 0 0 0-4.474-3.385l-7-2.131a11.34 11.34 0 0 1-1.242 3.171c-.858 1.553-2.132 3.086-3.724 3.086-2.074 0-3.97-1.538-5.355-3.086a19.561 19.561 0 0 1-2.283-3.155l-6.251 2.9a9.316 9.316 0 0 0-5.123 6.2l-2.787 8.9a15.784 15.784 0 0 0-.719 4.708v.737a3.466 3.466 0 0 0 3.466 3.465h6.665l.524 5.033h23.62l8.475-14.732z" transform="translate(-2167.976 -3419.328)"/>
                </g>
                <g id="Grupo_289" transform="translate(13.727 27.543)">
                    <path id="Trazado_837" d="M2202.812 3428.229a7.741 7.741 0 0 1-3.971-1.187 14.18 14.18 0 0 1-3.1-2.588 21.475 21.475 0 0 1-2.765-3.764l.351-.163a20.977 20.977 0 0 0 2.7 3.671 13.787 13.787 0 0 0 3.014 2.514 7.364 7.364 0 0 0 3.771 1.131 4.735 4.735 0 0 0 3.137-1.162 7.894 7.894 0 0 0 1.918-2.6 14.648 14.648 0 0 0 1.208-3.856l.383.117a14.713 14.713 0 0 1-1.24 3.9 8.3 8.3 0 0 1-2.016 2.726 5.114 5.114 0 0 1-3.39 1.261z" class="cls-12" transform="translate(-2192.974 -3420.23)"/>
                </g>
                <path id="Trazado_840" d="M3.116 6.233h25.917V2.962L3.473.021A3.116 3.116 0 0 0 0 3.117a3.116 3.116 0 0 0 3.116 3.116z" class="cls-7" transform="rotate(16 -166.334 29.61)"/>
                <path id="Trazado_843" d="M2181.556 3426.369a2.844 2.844 0 0 1-4.717 2.139 9.311 9.311 0 0 1 4.051-3.625l.191-.088a2.828 2.828 0 0 1 .475 1.574z" class="cls-6" transform="translate(-2171.448 -3394.893)"/>
                <path id="Trazado_844" d="M2240.51 3428.241a2.844 2.844 0 0 1-3.937-3.907 8.136 8.136 0 0 1 3.309 2.929z" class="cls-6" transform="translate(-2200.114 -3394.671)"/>
                <path id="Trazado_845" d="M2210.4 3451.987c-.11.383-4.92 5.563-4.92 5.563l-12.815-.647 15.8 1.818z" class="cls-6" transform="translate(-2179.098 -3408.038)"/>
                <path id="Trazado_841" fill="#8a6c6c" d="M2245.428 3433.838h-26.481a2.381 2.381 0 0 0-2.288 1.724l-4.579 15.949h-10.11a.9.9 0 0 0-.9.849.881.881 0 0 0 .881.914h39.566l5.12-17.835a1.254 1.254 0 0 0-1.209-1.601z" transform="translate(-2195.558 -3389.449)"/>
                <ellipse id="Elipse_101" cx="1.354" cy=".927" class="cls-12" rx="1.354" ry=".927" transform="rotate(-84.95 47.393 9.651)"/>
            </g>
        </g>
    </g>
</svg>
