<svg xmlns="http://www.w3.org/2000/svg" id="Grupo_376" width="162.236" height="162.745" viewBox="0 0 162.236 162.745">
    <defs>
        <style>
            .cls-2{fill:#ffd2d2}.cls-6{fill:#e5e5e5}.cls-7{fill:#b44040}.cls-8{fill:#d76262}.cls-9{fill:#e28686}.cls-10{fill:#ffaeae}.cls-11{fill:#aec3ff}.cls-12{fill:#fcbeb7}.cls-13{fill:#311643}.cls-14{fill:#f49795}.cls-15{fill:none}.cls-16{fill:#fff}.cls-17{fill:#f9afab}.cls-19{fill:#6c2f2f}.cls-20{fill:#ff8989}.cls-21{fill:#b7b7b7}.cls-22{fill:#a34a4a}.cls-23{fill:#d34a4a}.cls-25{fill:#ffd9d9}.cls-27{fill:#949494}.cls-28{fill:#888}
        </style>
    </defs>
    <g id="Grupo_107" transform="translate(22.664)">
        <rect id="Rectángulo_90" width="87.817" height="51.222" fill="#c8b8b8" rx="7.963"/>
        <rect id="Rectángulo_91" width="30.973" height="1.741" class="cls-2" rx=".87" transform="translate(47.918 14.187)"/>
        <rect id="Rectángulo_92" width="17.184" height="1.741" class="cls-2" rx=".87" transform="translate(47.918 18.934)"/>
        <rect id="Rectángulo_93" width="11.687" height="1.741" fill="#a14242" rx=".87" transform="translate(47.918 36.471)"/>
        <rect id="Rectángulo_94" width="8.83" height="5.257" class="cls-2" rx="1.707" transform="rotate(-90 25.465 12.413)"/>
        <rect id="Rectángulo_95" width="15.999" height="5.257" class="cls-2" rx="1.707" transform="rotate(-90 30.243 7.635)"/>
        <rect id="Rectángulo_96" width="21.95" height="5.257" class="cls-2" rx="1.707" transform="rotate(-90 35.022 2.856)"/>
    </g>
    <g id="Grupo_375" transform="translate(0 59.691)">
        <path id="Rectángulo_135" fill="#a7a7a7" d="M4.762 0H17.59v77.485H4.762A4.762 4.762 0 0 1 0 72.723V4.762A4.762 4.762 0 0 1 4.762 0z" transform="translate(0 11.501)"/>
        <path id="Rectángulo_136" fill="#ccc" d="M0 0h41.96a4.762 4.762 0 0 1 4.762 4.762v67.961a4.762 4.762 0 0 1-4.762 4.762H0V0z" transform="translate(17.59 11.501)"/>
        <path id="Trazado_1088" d="M0 0h36.982v17.874H0z" class="cls-6" transform="translate(22.46 17.947)"/>
        <path id="Rectángulo_138" d="M0 0H4.234V7.443H0z" class="cls-2" transform="translate(4.233 88.986)"/>
        <path id="Rectángulo_139" d="M0 0H4.234V7.443H0z" class="cls-2" transform="translate(17.59 88.986)"/>
        <path id="Rectángulo_140" d="M0 0H4.234V7.443H0z" class="cls-2" transform="translate(44.155 88.986)"/>
        <path id="Rectángulo_141" d="M0 0H4.234V7.443H0z" class="cls-2" transform="translate(57.511 88.986)"/>
        <rect id="Rectángulo_142" width="14.342" height="1.183" class="cls-7" rx=".591" transform="translate(34.689 32.173)"/>
        <path id="Rectángulo_143" d="M0 0H36.982V17.874H0z" class="cls-6" transform="translate(22.46 41.307)"/>
        <rect id="Rectángulo_144" width="14.342" height="1.183" class="cls-7" rx=".591" transform="translate(34.689 55.532)"/>
        <path id="Rectángulo_145" d="M0 0H36.982V17.874H0z" class="cls-6" transform="translate(22.46 64.666)"/>
        <rect id="Rectángulo_146" width="14.342" height="1.183" class="cls-7" rx=".591" transform="translate(34.689 78.892)"/>
        <path id="Trazado_347" d="M487.438 2944.257h4.234v1.917l-4.234-.209z" class="cls-7" transform="translate(-483.204 -2855.271)"/>
        <path id="Trazado_348" d="M517.673 2944.257h4.234v2.576l-4.234-.209z" class="cls-7" transform="translate(-500.084 -2855.271)"/>
        <path id="Trazado_349" d="M577.811 2944.257h4.234v4.224l-4.234-.209z" class="cls-7" transform="translate(-533.656 -2855.271)"/>
        <path id="Trazado_350" d="M612.279 2944.257v4.884l-4.233-.209v-4.674z" class="cls-7" transform="translate(-550.535 -2855.271)"/>
        <path id="Trazado_351" d="M580.53 2755.573h6.731a.554.554 0 0 1 .55.62l-.569 4.756a.554.554 0 0 1-.55.488H581.1a.553.553 0 0 1-.549-.488l-.569-4.756a.554.554 0 0 1 .548-.62z" class="cls-7" transform="translate(-534.865 -2749.936)"/>
        <path id="Trazado_352" d="M585.856 2746.508v-2.163l-1.294 2.459v-3.993l-1.017 2.514-1.017-2.514v3.993l-1.294-2.459v2.163l-1.885-3.031.831 4.972h6.73l.831-4.972z" class="cls-8" transform="translate(-534.515 -2742.811)"/>
    </g>
    <g id="Grupo_360" transform="translate(59.004 42.531)">
        <g id="Grupo_359" transform="translate(15.201)">
            <g id="Grupo_8" transform="translate(0 29.944)">
                <path id="Trazado_23" d="M1101.982 686.4l-4.525 37.514h-1.484l4.527-37.514z" class="cls-2" transform="translate(-1075.977 -644.247)"/>
                <path id="Trazado_24" d="M1056.715 686.4l-.509 4.219-4.016 33.3h-1.484l4.036-33.46.489-4.054z" class="cls-2" transform="translate(-1050.706 -644.247)"/>
                <path id="Trazado_25" d="M1101.982 723.915h-1.482l-.625-5.188-.742-6.151-2.441-20.235-.716-5.94h1.484l.737 6.109 1.678 13.912.742 6.151z" class="cls-2" transform="translate(-1075.977 -644.247)"/>
                <path id="Trazado_26" d="M1147.249 723.915h-1.484l-3.512-29.117-1.013-8.4h1.484l1.032 8.559z" class="cls-2" transform="translate(-1101.248 -644.247)"/>
                <g id="Grupo_7" transform="translate(4.597 17.077)">
                    <path id="Rectángulo_1" d="M0 0H1.484V22.692H0z" class="cls-2"/>
                    <path id="Rectángulo_2" d="M0 0H1.484V22.692H0z" class="cls-2" transform="translate(20.166)"/>
                </g>
                <path id="Trazado_27" d="M1120.241 681h-20.39a1.192 1.192 0 0 1 1.193 1.192 1.193 1.193 0 0 1-1.193 1.193h20.39a1.193 1.193 0 0 0 1.193-1.193 1.193 1.193 0 0 0-1.193-1.192z" class="cls-2" transform="translate(-1078.142 -641.233)"/>
                <path id="Trazado_28" d="M1077.287 682.194a1.192 1.192 0 0 0-1.193-1.192h-17.606a1.192 1.192 0 0 0-1.192 1.192 1.192 1.192 0 0 0 1.192 1.193h17.606a1.193 1.193 0 0 0 1.193-1.193z" class="cls-9" transform="translate(-1054.385 -641.233)"/>
                <rect id="Rectángulo_3" width="27.399" height="17.077" class="cls-2" rx="3.763" transform="translate(1.723)"/>
                <path id="Trazado_29" d="M1061.815 686.4l-.509 4.219-1.464-.165.489-4.054z" class="cls-10" transform="translate(-1055.806 -644.247)"/>
                <path id="Trazado_30" d="M1097.457 686.4l.737 6.109-1.5-.17-.716-5.94z" class="cls-10" transform="translate(-1075.977 -644.247)"/>
                <path id="Trazado_31" d="M1143.757 694.96l-1.5-.162-1.013-8.4h1.484z" class="cls-10" transform="translate(-1101.248 -644.247)"/>
                <path id="Trazado_32" d="M1061.113 629.632h1.484v3.134l-1.484-.164z" class="cls-11" transform="translate(-1056.516 -612.555)"/>
                <path id="Trazado_33" d="M1108.249 629.632V635l-1.484-.164v-5.2z" class="cls-11" transform="translate(-1082.001 -612.555)"/>
            </g>
            <g id="Grupo_16" transform="translate(3.811)">
                <g id="Grupo_14" transform="translate(10.895)">
                    <g id="Grupo_9" transform="translate(0 6.513)">
                        <path id="Trazado_34" d="M1103.593 540.491c-5.782.964-12.987-1.188-13.891-2.559-2.093 3.19-3.157 3.09-3.157 3.09v2.392l-.473-.473c-.146-.33-.377-.657-.724-.657-1.9 0-2.037 5.3 1.168 5.6.063.207.128.4.2.577v8.476h7.228v-3.334a5.281 5.281 0 0 0 1.379.21c2.849 0 7.705-4.19 8.256-10.874.029-1.258.014-2.448.014-2.448z" class="cls-12" transform="translate(-1083.997 -537.932)"/>
                    </g>
                    <path id="Trazado_35" d="M1095.849 523.187c-4.985 0-5.981 2.658-5.981 2.658-2.127 0-5.384 3.888-3.423 8.208l.01.01 1.12 1.12v-2.392s1.064.1 3.157-3.09c.9 1.37 8.109 3.522 13.891 2.558 0 0 .015 1.19-.018 2.452 2.158-6.244-2.177-11.524-8.756-11.524z" class="cls-13" transform="translate(-1085.026 -523.187)"/>
                    <g id="Grupo_10" transform="translate(8.28 11.806)">
                        <path id="Trazado_36" d="M1103.141 551.455a.4.4 0 0 1-.4-.4v-.745a.4.4 0 0 1 .8 0v.745a.4.4 0 0 1-.4.4z" class="cls-13" transform="translate(-1102.742 -549.913)"/>
                    </g>
                    <g id="Grupo_11" transform="translate(15.674 11.806)">
                        <path id="Trazado_37" d="M1119.879 551.455a.4.4 0 0 1-.4-.4v-.745a.4.4 0 0 1 .8 0v.745a.4.4 0 0 1-.4.4z" class="cls-13" transform="translate(-1119.48 -549.913)"/>
                    </g>
                    <g id="Grupo_12" transform="translate(9.575 16.577)">
                        <path id="Trazado_38" d="M1107.709 562.139a2.279 2.279 0 0 1-1.49-.512 2.022 2.022 0 0 1-.53-.656.183.183 0 1 1 .333-.151 1.864 1.864 0 0 0 1.995.936.183.183 0 1 1 .042.363 3.026 3.026 0 0 1-.35.02z" class="cls-13" transform="translate(-1105.672 -560.713)"/>
                    </g>
                    <circle id="Elipse_2" cx="1.972" cy="1.972" r="1.972" class="cls-14" transform="translate(4.06 12.711)"/>
                    <path id="Trazado_39" d="M1123.972 552.3a14.063 14.063 0 0 1-1.2 3.606 1.972 1.972 0 1 1 1.2-3.606z" class="cls-14" transform="translate(-1104.599 -539.251)"/>
                    <g id="Grupo_13" transform="translate(5.885 8.686)">
                        <circle id="Elipse_3" cx="2.429" cy="2.429" r="2.429" class="cls-15" transform="translate(.365 .365)"/>
                        <circle id="Elipse_4" cx="2.429" cy="2.429" r="2.429" class="cls-15" transform="rotate(-9.217 8.576 -45.52)"/>
                        <path id="Trazado_40" d="M1107.508 542.85a2.8 2.8 0 0 0-2.778 2.495 2.147 2.147 0 0 0-1.838 0 2.8 2.8 0 1 0 .014.4 1.825 1.825 0 0 1 1.811 0 2.794 2.794 0 1 0 2.792-2.9zm-7.394 5.223a2.429 2.429 0 1 1 2.429-2.429 2.431 2.431 0 0 1-2.429 2.429zm7.394 0a2.429 2.429 0 1 1 2.429-2.429 2.432 2.432 0 0 1-2.429 2.429z" class="cls-16" transform="translate(-1097.32 -542.85)"/>
                    </g>
                    <path id="Trazado_41" d="M1100.32 573.465v-3.334a16.085 16.085 0 0 1-4.894-2.6z" class="cls-17" transform="translate(-1090.377 -547.943)"/>
                </g>
                <path id="Trazado_42" fill="#ebedf4" d="M1149.279 694.737l-1.509-.207-1.429-11.848h1.484z" transform="translate(-1107.906 -612.227)"/>
                <path id="Trazado_44" d="M1136.746 607.473l1.311 2.513h-6.986z" class="cls-12" transform="translate(-1099.382 -570.241)"/>
                <path id="Trazado_45" d="M1113.628 756.493v5.41a1.142 1.142 0 0 0 1.142 1.142h15.344a.264.264 0 0 0 .264-.264v-1a1.23 1.23 0 0 0-.718-1.118l-8.872-4.172z" class="cls-19" transform="translate(-1089.644 -653.433)"/>
                <path id="Trazado_46" d="M1113.629 749.526v3.078h7.156l.495-3.078z" class="cls-12" transform="translate(-1089.644 -649.543)"/>
                <path id="Trazado_47" d="M1080.157 573.845l9.715 4.388a6.373 6.373 0 0 1 3.078 2.961l3.747 7.506-5.675 2.513.47 16.592h-28.28l1.234-15.5-5.114.033v-8.478a6.509 6.509 0 0 1 4-6.006l9.608-4.012s4.2 2.758 7.217.003z" class="cls-20" transform="translate(-1059.333 -551.468)"/>
                <g id="Grupo_15" transform="translate(11.87 22.974)">
                    <path id="Trazado_48" d="M1097.183 575.477a8.186 8.186 0 0 1-5.174 1.823 8.417 8.417 0 0 1-5.495-2.1l-.309.13a8.778 8.778 0 0 0 5.8 2.267 8.475 8.475 0 0 0 5.475-1.985z" class="cls-16" transform="translate(-1086.205 -575.196)"/>
                </g>
                <path id="Trazado_49" d="M1147.715 756.493v5.41a1.142 1.142 0 0 0 1.142 1.142h15.343a.265.265 0 0 0 .265-.264v-1a1.229 1.229 0 0 0-.718-1.118l-8.872-4.172z" class="cls-19" transform="translate(-1108.673 -653.433)"/>
                <path id="Trazado_50" d="M1147.715 749.526v3.078h7.156l.495-3.078z" class="cls-12" transform="translate(-1108.673 -649.543)"/>
                <path id="Trazado_51" d="M1102.2 650.721v.289a13.152 13.152 0 0 0 13.151 13.161h6.109l.846 30.2h7.654l5.645-36a6.618 6.618 0 0 0-6.538-7.643z" class="cls-21" transform="translate(-1083.263 -594.384)"/>
                <path id="Trazado_52" d="M1169.551 658.507a3.664 3.664 0 1 1-3.264-5.723 6.624 6.624 0 0 1 3.264 5.723z" class="cls-22" transform="translate(-1117.129 -595.536)"/>
                <path id="Trazado_53" d="M1138.634 665.419l.833 6.958h-5.012z" class="cls-22" transform="translate(-1101.271 -602.59)"/>
                <path id="Trazado_54" d="M1068.113 650.721v.289a13.151 13.151 0 0 0 13.151 13.161h6.11l.845 30.2h7.655l5.644-36a6.618 6.618 0 0 0-6.538-7.643z" class="cls-21" transform="translate(-1064.234 -594.384)"/>
                <path id="Trazado_55" d="M1059.333 615.653l.272 9.4a4.7 4.7 0 0 0 4.694 4.561h16.358l1.1-3.826-14.429-2.378-.1-7.8z" class="cls-12" transform="translate(-1059.333 -574.779)"/>
                <path id="Trazado_56" d="M1064.765 639.825a2.42 2.42 0 0 1-.86 1.853 4.7 4.7 0 0 1-3.532-3.273 2.426 2.426 0 0 1 4.392 1.42z" class="cls-17" transform="translate(-1059.914 -586.947)"/>
                <path id="Trazado_57" d="M1077.2 615.6l2.215 8.153-2.113-.348-.1-7.8" class="cls-23" transform="translate(-1069.307 -574.779)"/>
                <path id="Trazado_58" d="M1102.271 637.9l-2.579 4.158h3.5l1.1-3.826z" class="cls-17" transform="translate(-1081.864 -587.227)"/>
                <path id="Trazado_59" d="M1122.917 613.161h-21.33a2.032 2.032 0 0 0-1.953 1.472l-3.908 13.615h-8.649a.753.753 0 1 0 0 1.505h33.776l4.018-14a2.032 2.032 0 0 0-1.954-2.592z" class="cls-22" transform="translate(-1074.401 -573.416)"/>
                <path id="Trazado_60" d="M1135.346 658.359a3.664 3.664 0 1 1-3.271-5.586 6.628 6.628 0 0 1 3.271 5.586z" class="cls-22" transform="translate(-1097.983 -595.53)"/>
                <ellipse id="Elipse_5" cx="1.156" cy=".792" class="cls-20" rx="1.156" ry=".792" transform="rotate(-84.95 45.08 5.222)"/>
                <path id="Trazado_61" d="M1063.887 588.027a2.145 2.145 0 0 1-4.082.923 6.51 6.51 0 0 1 1.794-3.063h.143a2.145 2.145 0 0 1 2.145 2.14z" class="cls-23" transform="translate(-1059.596 -558.187)"/>
                <path id="Trazado_62" d="M1130.912 586.4a2.145 2.145 0 0 1-3.1-2.778l.151.068a6.369 6.369 0 0 1 2.949 2.71z" class="cls-23" transform="translate(-1097.427 -556.927)"/>
            </g>
        </g>
        <g id="Grupo_358" transform="translate(0 50.046)">
            <path id="Trazado_182" d="M1930.044 634.281l-7.488 60.538h-1.487l7.487-60.538z" class="cls-2" transform="translate(-1846.516 -624.651)"/>
            <g id="Grupo_70" transform="translate(0 9.63)">
                <path id="Trazado_221" d="M1761.269 634.281l-2 16.2-5.484 44.341h-1.485l5.469-44.214 2.019-16.323z" class="cls-2" transform="translate(-1752.295 -634.281)"/>
                <path id="Trazado_222" d="M1805.807 694.819h-1.487l-5.636-45.568-1.852-14.969h1.487l1.836 14.845z" class="cls-2" transform="translate(-1777.159 -634.281)"/>
                <path id="Trazado_223" d="M1766.694 634.281h1.486l-2 16.2-1.5.127z" class="cls-10" transform="translate(-1759.207 -634.281)"/>
                <path id="Trazado_224" d="M1798.32 634.281l1.836 14.845-1.471.124-1.852-14.969z" class="cls-10" transform="translate(-1777.159 -634.281)"/>
            </g>
            <g id="Grupo_71" transform="translate(94.229 9.63)">
                <path id="Trazado_225" d="M1974.582 694.819h-1.482l-6.406-51.791-1.082-8.747h1.487l1.066 8.623z" class="cls-2" transform="translate(-1965.608 -634.281)"/>
                <path id="Trazado_226" d="M1968.161 642.9l-1.471.124-1.082-8.747h1.487z" class="cls-10" transform="translate(-1965.608 -634.281)"/>
            </g>
            <g id="Grupo_72" transform="translate(2.729 7.241)">
                <path id="Trazado_227" d="M1882.074 628.873h-75.818v2.389h75.818a1.194 1.194 0 0 0 1.195-1.194 1.194 1.194 0 0 0-1.195-1.195z" class="cls-2" transform="translate(-1785.149 -628.873)"/>
                <path id="Trazado_228" d="M1764.148 628.873h-4.48a1.194 1.194 0 0 0-1.194 1.194 1.2 1.2 0 0 0 1.194 1.194h19.913v-2.389z" class="cls-9" transform="translate(-1758.473 -628.873)"/>
            </g>
            <g id="Grupo_73" transform="translate(82.187)">
                <path id="Trazado_229" d="M1954.112 621.627v-.609a.341.341 0 0 0-.341-.341h-14.131a1.291 1.291 0 0 0-1.291 1.291v1.039a1.291 1.291 0 0 0 1.291 1.291h14.131a.341.341 0 0 0 .341-.341v-.609a.341.341 0 0 0-.341-.341h-13.612a.519.519 0 0 1-.519-.519.519.519 0 0 1 .519-.52h13.612a.341.341 0 0 0 .341-.341z" class="cls-8" transform="translate(-1938.349 -617.057)"/>
                <path id="Trazado_230" d="M1955.133 623.6v1.039h-13.343a.519.519 0 0 1-.519-.519.519.519 0 0 1 .519-.52z" class="cls-2" transform="translate(-1939.98 -618.688)"/>
                <path id="Trazado_231" fill="#f9a0a0" d="M1954.378 613.431v-.609a.341.341 0 0 0-.341-.341h-12.112a1.291 1.291 0 0 0-1.291 1.291v1.038a1.291 1.291 0 0 0 1.291 1.291h12.112a.341.341 0 0 0 .341-.341v-.609a.341.341 0 0 0-.341-.341h-11.593a.519.519 0 0 1-.519-.519.519.519 0 0 1 .519-.519h11.593a.341.341 0 0 0 .341-.341z" transform="translate(-1939.625 -612.481)"/>
                <path id="Trazado_232" d="M1955.561 615.4v1.038h-11.484a.519.519 0 0 1-.519-.519.519.519 0 0 1 .519-.519z" class="cls-25" transform="translate(-1941.257 -614.113)"/>
            </g>
        </g>
    </g>
    <g id="Grupo_374" transform="translate(138.03 29.477)">
        <path id="Trazado_1087" d="M1.163 0h21.88a1.163 1.163 0 0 1 1.163 1.163v18.2a1.163 1.163 0 0 1-1.163 1.163H1.163A1.163 1.163 0 0 1 0 19.364V1.163A1.163 1.163 0 0 1 1.163 0z" class="cls-25" transform="translate(0 1.457)"/>
        <path id="Trazado_870" fill="#fe9e9e" d="M2135.4 3330.1v3.431h-24.207v-3.431a1.163 1.163 0 0 1 1.163-1.163h21.88a1.163 1.163 0 0 1 1.164 1.163z" transform="translate(-2111.192 -3327.476)"/>
        <g id="Grupo_298" transform="translate(5.96)">
            <rect id="Rectángulo_286" width="1.201" height="2.914" class="cls-27" rx=".6"/>
            <rect id="Rectángulo_287" width="1.201" height="2.914" class="cls-27" rx=".6" transform="translate(11.086)"/>
        </g>
        <g id="Grupo_299" transform="translate(6.912 9.257)">
            <path id="Trazado_871" d="M2126.84 3351.861l2.584-2.321a4.683 4.683 0 0 0 .394-.4.775.775 0 0 0 .2-.526.637.637 0 0 0-.244-.53.9.9 0 0 0-.573-.193.787.787 0 0 0-.616.244.982.982 0 0 0-.249.6l-1.41-.1a2.288 2.288 0 0 1 .217-.9 1.876 1.876 0 0 1 .5-.634 2.093 2.093 0 0 1 .728-.38 3.1 3.1 0 0 1 .907-.127 2.747 2.747 0 0 1 .846.127 1.973 1.973 0 0 1 .686.375 1.714 1.714 0 0 1 .455.625 2.163 2.163 0 0 1 .165.874 2.364 2.364 0 0 1-.066.578 1.952 1.952 0 0 1-.183.47 2.168 2.168 0 0 1-.277.39 4.724 4.724 0 0 1-.348.348l-2.02 1.738h2.95v1.24h-4.641z" class="cls-28" transform="translate(-2126.84 -3346.591)"/>
            <path id="Trazado_872" d="M2141.659 3350.978c-.075.019-.15.034-.226.047a1.439 1.439 0 0 1-.235.019 2.112 2.112 0 0 1-.855-.169 1.981 1.981 0 0 1-.657-.46 2.046 2.046 0 0 1-.423-.691 2.385 2.385 0 0 1-.15-.85 2.17 2.17 0 0 1 .719-1.653 2.362 2.362 0 0 1 .784-.465 2.966 2.966 0 0 1 1.95 0 2.353 2.353 0 0 1 .79.465 2.17 2.17 0 0 1 .719 1.653 3.012 3.012 0 0 1-.066.653 3.472 3.472 0 0 1-.174.559 3.592 3.592 0 0 1-.253.5l-.306.494-1.456 2.273h-1.72zm-1.137-2.049a1.01 1.01 0 0 0 .3.747 1.161 1.161 0 0 0 1.549 0 1.09 1.09 0 0 0 0-1.493 1.161 1.161 0 0 0-1.549 0 1.01 1.01 0 0 0-.3.747z" class="cls-28" transform="translate(-2133.691 -3346.591)"/>
        </g>
        <rect id="Rectángulo_288" width="6.051" height=".489" fill="#7b7b7b" rx=".245" transform="translate(9.078 19.028)"/>
    </g>
</svg>
