<svg xmlns="http://www.w3.org/2000/svg" width="199.3" height="168.67" viewBox="0 0 199.3 168.67">
    <defs>
        <style>
            .cls-2{fill:#311643}.cls-3{fill:#fcbeb7}.cls-4{fill:#f9afab}.cls-5{fill:#f49795}.cls-6{fill:none}.cls-7{fill:#fff}.cls-8{fill:#9e4e4e}.cls-15{fill:#821b1b}.cls-18{fill:#949494}.cls-19{fill:#888}.cls-22{fill:#ffd2d2}
        </style>
    </defs>
    <g id="Grupo_435" transform="translate(-2575.072 -1132)">
        <circle id="Elipse_122" cx="40" cy="40" r="40" fill="rgba(229,177,177,0.39)" transform="translate(2599 1147)"/>
        <g id="Grupo_431" transform="translate(2653.291 1193.274)">
            <g id="Grupo_251" transform="translate(23.225)">
                <path id="Trazado_720" d="M1535.62 4020.9l-.134 23.415 11.935.068 10.979.063h.757l14.867.085.161-28.431c.065-11.243-8.971-13.25-8.971-13.25s-3.26-5.3-12.832-5.355c-11.517-.065-19.238 6.947-19.287 15.655a12.121 12.121 0 0 0 2.525 7.75zm.217-3.884c1.458-.32 5.574-3.9 5.6-7.6 2.219 3.719 7.9 6.539 16.2 7.6 3.222.416 6.924 2.2 11.317.828a.977.977 0 0 1 .138-.01c3.465.02 3.653 9.659-2.182 10.183-.088.282-.177.55-.269.8l-.089 15.673-13.154-.075.035-6.092a9.771 9.771 0 0 1-2.6.393c-5.446-.028-14.856-8.475-14.996-21.698z" class="cls-2" transform="translate(-1533.096 -3997.5)"/>
                <path id="Trazado_721" d="M1554.066 4041.949l.005-.839a9.789 9.789 0 0 1-2.6.392c-5.44-.032-14.851-8.479-14.991-21.7 1.458-.32 5.574-3.9 5.595-7.6 1.784 2.99 6.143 4.1 12 6.065 2.415.811 5.278.9 8.6 1.539 1.984.384 4.239 1.669 6.924.828a.913.913 0 0 1 .138-.011c3.466.02 3.653 9.659-2.182 10.183-.088.282-.177.55-.269.8l-.06 10.543 10.275 4.915-.073 12.716-34.235-.2.073-12.836 10.806-4.8z" class="cls-3" transform="translate(-1533.736 -4000.283)"/>
                <path id="Trazado_722" d="M1544.754 4065.206l.073-12.835 10.807-4.8v-.839a29.828 29.828 0 0 0 9.085-4.835z" class="cls-4" transform="translate(-1535.304 -4005.908)"/>
                <circle id="Elipse_88" cx="3.588" cy="3.588" r="3.588" class="cls-5" transform="translate(23.85 23.644)"/>
                <path id="Trazado_723" d="M1537.014 4027.109a25.581 25.581 0 0 0 2.143 6.575 3.588 3.588 0 1 0-2.143-6.575z" class="cls-5" transform="translate(-1533.838 -4002.994)"/>
                <g id="Grupo_246" transform="translate(3.474 15.511)">
                    <circle id="Elipse_89" cx="4.42" cy="4.42" r="4.42" class="cls-6" transform="matrix(.388 -.922 .922 .388 0 8.148)"/>
                    <circle id="Elipse_90" cx="4.42" cy="4.42" r="4.42" class="cls-6" transform="rotate(-67.18 12.916 -6.017)"/>
                    <path id="Trazado_724" d="M1538.249 4022.56a5.085 5.085 0 0 0 10.165.25 3.289 3.289 0 0 1 3.3.014 5.078 5.078 0 1 0 .029-.733 3.909 3.909 0 0 0-3.345-.016 5.085 5.085 0 0 0-10.144.486zm14.121.08a4.42 4.42 0 1 1 4.4 4.445 4.423 4.423 0 0 1-4.4-4.445zm-13.456-.077a4.42 4.42 0 1 1 4.394 4.445 4.425 4.425 0 0 1-4.393-4.445z" class="cls-7" transform="translate(-1537.545 -4016.8)"/>
                </g>
                <g id="Grupo_249" transform="translate(7.706 18.083)">
                    <g id="Grupo_247">
                        <path id="Trazado_725" d="M1544.323 4027.615a.726.726 0 0 0 .73-.721l.007-1.356a.725.725 0 1 0-1.451-.008l-.008 1.355a.725.725 0 0 0 .722.73z" class="cls-2" transform="translate(-1543.602 -4024.808)"/>
                    </g>
                    <g id="Grupo_248" transform="translate(13.239 .076)">
                        <path id="Trazado_726" d="M1560.655 4027.708a.726.726 0 0 0 .73-.722l.008-1.355a.726.726 0 0 0-1.452-.008l-.007 1.355a.725.725 0 0 0 .721.73z" class="cls-2" transform="translate(-1559.934 -4024.902)"/>
                    </g>
                </g>
                <g id="Grupo_250" transform="rotate(-27 75.512 -22.445)">
                    <path id="Trazado_727" d="M.928 2.576a4.152 4.152 0 0 0 2.717-.915 3.7 3.7 0 0 0 .972-1.19.333.333 0 0 0-.6-.278A3.391 3.391 0 0 1 .373 1.875a.333.333 0 1 0-.08.661 5.471 5.471 0 0 0 .635.04z" class="cls-2"/>
                </g>
                <g id="Grupo_432" transform="rotate(-131 9.531 7.062)">
                    <path id="Trazado_727-2" d="M.92 3.435a3.535 3.535 0 0 0 2.693-1.22A5.02 5.02 0 0 0 4.575.628.518.518 0 0 0 4.412.04c-.166-.1-.36 0-.436.217A3.316 3.316 0 0 1 .369 2.5c-.181-.03-.345.144-.369.387a.435.435 0 0 0 .287.494 4.054 4.054 0 0 0 .633.054z" class="cls-2"/>
                </g>
            </g>
            <g id="Grupo_252" transform="translate(20.056 43.251)">
                <path id="Trazado_733" d="M1562 4061.882c-2.5-.015-4.483-2.432-5.816-4.876l14.247.081c-2.188 2.413-5.178 4.813-8.431 4.795z" class="cls-8" transform="translate(-1534.298 -4052.02)"/>
                <path id="Trazado_734" fill="#d4c6c6" d="M1532.321 4062.517a17.123 17.123 0 0 1 8.353-7.917l8.476-3.745a17.79 17.79 0 0 0 1.92 4.986c1.333 2.444 3.318 4.861 5.816 4.876 3.255.019 6.244-2.378 8.43-4.795a30.712 30.712 0 0 0 3.611-4.93l9.784 4.6a14.614 14.614 0 0 1 7.984 9.779l5.6 23.089a11.186 11.186 0 0 1-2.906 10.493c-4.506-1.61-12.963-4.957-12.963-4.957l-1.2 15.792-37.062-.211-8.975-40.882z" transform="translate(-1529.186 -4050.855)"/>
            </g>
            <g id="Grupo_253" transform="translate(37.088 44.293)">
                <path id="Trazado_735" d="M1560.479 4064.425a12.148 12.148 0 0 0 6.243-1.828 22.287 22.287 0 0 0 4.891-4.033 33.761 33.761 0 0 0 4.371-5.88l-.549-.259a32.81 32.81 0 0 1-4.274 5.735 21.655 21.655 0 0 1-4.751 3.918 11.557 11.557 0 0 1-5.927 1.741 7.431 7.431 0 0 1-4.912-1.852 12.4 12.4 0 0 1-2.987-4.091 21.483 21.483 0 0 1-1.815-5.736l-.571.252a20.833 20.833 0 0 0 1.835 5.734 13 13 0 0 0 3.139 4.3 8.021 8.021 0 0 0 5.307 1.999z" class="cls-7" transform="translate(-1550.197 -4052.141)"/>
            </g>
            <path id="Trazado_736" d="M1590.187 4059.789a4.3 4.3 0 0 0 6.83 3.5 14.605 14.605 0 0 0-5.95-6.088 4.282 4.282 0 0 0-.88 2.588z" class="cls-8" transform="translate(-1520.682 -4008.807)"/>
            <path id="Trazado_737" fill="#a34a4a" d="M1548.459 4118.976l-28.515-1.239a3.506 3.506 0 0 1-3.211-2.514l-12.233-41.639a1.345 1.345 0 0 1 1.348-1.722l28.837 1.254a3.054 3.054 0 0 1 2.8 2.191l12.324 41.948a1.344 1.344 0 0 1-1.35 1.721z" transform="translate(-1504.445 -4011.582)"/>
            <path id="Trazado_738" fill="#6c2f2f" d="M1519.611 4102.834l-5.019 4.964-.835-2.842z" transform="translate(-1506.208 -4017.447)"/>
            <path id="Trazado_739" d="M1511.544 4093.251l7.188.516a1 1 0 0 1 .931 1.016l.714.049a.963.963 0 0 1 .892.854l.084.748a.964.964 0 0 1 .945.981.962.962 0 0 1-.613.88l-1.612.63a2.1 2.1 0 0 1-1.228 1.9l-5.017 2.284a4.239 4.239 0 0 1-2.331.344 4.246 4.246 0 0 1-3.586-3.345l-.3-1.457a4.709 4.709 0 0 1 1.315-4.321 3.785 3.785 0 0 1 2.618-1.079z" class="cls-3" transform="translate(-1505.026 -4015.633)"/>
            <path id="Trazado_740" fill="#972424" d="M1555.008 4058.862l-4.976 11.966a5.418 5.418 0 0 1-1.191 1.78l-.878.866a.275.275 0 0 1-.487-.2l-.006-1.233a5.421 5.421 0 0 1 .422-2.1l4.976-11.966a1.315 1.315 0 0 1 1.618-.874 1.315 1.315 0 0 1 .522 1.761z" transform="translate(-1513.403 -4017.69)"/>
            <path id="Trazado_741" d="M1548.734 4068.129l2.754-4.611a2.021 2.021 0 0 1 1.5-1.033l4.584-.479a2.035 2.035 0 0 1 1.714.695l2.375 2.568a5.028 5.028 0 0 1 .86 1.3l2.9 5.737 27.638 27.791a8.535 8.535 0 0 1 .473 10.858c-2.459 3.068-6.525 2.889-8.8-.387l-23.293-33.526-4.914-3.764-3.641.127a1.867 1.867 0 0 1-1.763-1.708l-.2-.293a2.53 2.53 0 0 1-.37-1.818l.214-1.261-1.181.926a.533.533 0 0 1-.577.065.867.867 0 0 1-.273-1.187z" class="cls-3" transform="translate(-1513.619 -4018.631)"/>
            <path id="Trazado_742" fill="#989191" d="M1585.113 4101.324l-10.063-11.774 9.647 17.234z" transform="translate(-1517.815 -4014.932)"/>
            <path id="Trazado_744" d="M1534.915 4061.03a4.477 4.477 0 0 0 6.217-4.1 4.542 4.542 0 0 0-.114-1.03 17.124 17.124 0 0 0-6.103 5.13z" class="cls-8" transform="translate(-1510.215 -4008.56)"/>
            <circle id="Elipse_93" cx="4.161" cy="4.161" r="4.161" class="cls-4" transform="translate(71.602 84.051)"/>
        </g>
        <g id="concepto" transform="translate(2622.611 1156.766)">
            <path id="Trazado_1101" fill="#e46666" d="M36.549 8.164a.919.919 0 0 0-1.265-.2.872.872 0 0 0-.2 1.237 17.574 17.574 0 0 1 3.491 10.54 18.7 18.7 0 0 1-3.2 10.4c-3.1 4.644-5.166 8.058-5.644 13.009a1.394 1.394 0 0 1-1.031 1.212.847.847 0 0 0-.108.025 1.469 1.469 0 0 1-.276.026h-16.25a1.478 1.478 0 0 1-.277-.026.912.912 0 0 0-.108-.025 1.394 1.394 0 0 1-1.023-1.211c-.478-4.952-2.545-8.366-5.644-13.009a18.7 18.7 0 0 1-3.2-10.4 18.2 18.2 0 0 1 18.379-17.97 18.546 18.546 0 0 1 12.55 4.84.921.921 0 0 0 1.281-.042.872.872 0 0 0-.043-1.252A20.374 20.374 0 0 0 20.193 0 20 20 0 0 0 0 19.744 20.438 20.438 0 0 0 3.5 31.11c2.951 4.423 4.918 7.661 5.358 12.208a3.155 3.155 0 0 0 1.763 2.535v8.314a2.584 2.584 0 0 0 1.705 2.411 4.115 4.115 0 0 0 4.148 3.894h7.441a4.115 4.115 0 0 0 4.148-3.894 2.583 2.583 0 0 0 1.705-2.411v-8.314a3.153 3.153 0 0 0 1.763-2.535c.439-4.547 2.407-7.786 5.358-12.208a20.441 20.441 0 0 0 3.5-11.367 19.3 19.3 0 0 0-3.837-11.58zM18.107 49.627h9.848v1.616H12.43v-1.616h2.053a.886.886 0 1 0 0-1.772H12.43v-1.67h15.525v1.67h-9.847a.886.886 0 1 0 0 1.772zm9.068 5.344H13.209a.814.814 0 0 1-.779-.8v-1.157h15.525v1.152a.815.815 0 0 1-.78.8zM23.914 58.7h-7.442a2.327 2.327 0 0 1-2.315-1.957h12.072a2.327 2.327 0 0 1-2.315 1.957zm0 0" transform="translate(.001)"/>
            <g id="infinito" transform="translate(6.526 15.364)">
                <path id="Trazado_1102" d="M22.788 12.855a5.782 5.782 0 0 1-3.524-1.212.6.6 0 0 1-.173-.12l-2.626-2.608a.627.627 0 1 1 .884-.888l2.52 2.5c.019.013.038.025.055.039a4.55 4.55 0 0 0 2.864 1.034 4.9 4.9 0 0 0 4.764-5.009 4.9 4.9 0 0 0-4.764-5.009 4.561 4.561 0 0 0-2.864 1.033.668.668 0 0 1-.094.063L9.684 11.55a.605.605 0 0 1-.15.1 5.78 5.78 0 0 1-3.517 1.207A6.15 6.15 0 0 1 0 6.594 6.15 6.15 0 0 1 6.017.332a5.781 5.781 0 0 1 3.524 1.212.6.6 0 0 1 .173.12l2.626 2.608a.627.627 0 0 1-.884.888l-2.52-2.5c-.019-.013-.038-.025-.055-.039a4.556 4.556 0 0 0-2.864-1.037 4.9 4.9 0 0 0-4.764 5.01A4.9 4.9 0 0 0 6.017 11.6a4.561 4.561 0 0 0 2.864-1.03.683.683 0 0 1 .094-.063l10.147-8.87a.605.605 0 0 1 .15-.1A5.78 5.78 0 0 1 22.788.332 6.15 6.15 0 0 1 28.8 6.594a6.15 6.15 0 0 1-6.016 6.262zm0 0" class="cls-15" transform="translate(0 -.332)"/>
                <path id="Trazado_1103" d="M132.383 5.342h-3.757a.626.626 0 0 1 0-1.253h3.131V.958a.626.626 0 1 1 1.252 0v3.757a.626.626 0 0 1-.626.627zm0 0" class="cls-15" transform="translate(-120.486 -.332)"/>
                <path id="Trazado_1104" d="M277.958 133.342a.627.627 0 0 1-.626-.626v-3.757a.627.627 0 0 1 .626-.626h3.757a.626.626 0 1 1 0 1.253h-3.131v3.131a.627.627 0 0 1-.626.625zm0 0" class="cls-15" transform="translate(-261.052 -120.818)"/>
            </g>
        </g>
        <g id="Grupo_433" transform="translate(2740.135 1175.53)">
            <path id="Trazado_1087" fill="#ffd9d9" d="M1.645 0h30.947a1.645 1.645 0 0 1 1.645 1.645v25.743a1.645 1.645 0 0 1-1.645 1.645H1.645A1.645 1.645 0 0 1 0 27.388V1.645A1.645 1.645 0 0 1 1.645 0z" transform="translate(0 2.061)"/>
            <path id="Trazado_870" fill="#fe9e9e" d="M2145.429 3330.578v4.853h-34.237v-4.853a1.645 1.645 0 0 1 1.645-1.645h30.947a1.645 1.645 0 0 1 1.645 1.645z" transform="translate(-2111.192 -3326.872)"/>
            <g id="Grupo_298" transform="translate(8.429)">
                <rect id="Rectángulo_286" width="1.698" height="4.121" class="cls-18" rx=".849"/>
                <rect id="Rectángulo_287" width="1.698" height="4.121" class="cls-18" rx=".849" transform="translate(15.68)"/>
            </g>
            <g id="Grupo_299" transform="translate(9.777 13.093)">
                <path id="Trazado_871" d="M2126.84 3354.045l3.654-3.282a6.632 6.632 0 0 0 .558-.572 1.1 1.1 0 0 0 .28-.744.9.9 0 0 0-.346-.75 1.27 1.27 0 0 0-.811-.272 1.113 1.113 0 0 0-.871.346 1.39 1.39 0 0 0-.352.85l-1.994-.146a3.25 3.25 0 0 1 .306-1.269 2.659 2.659 0 0 1 .7-.9 2.968 2.968 0 0 1 1.03-.538 4.4 4.4 0 0 1 1.283-.18 3.887 3.887 0 0 1 1.2.18 2.8 2.8 0 0 1 .97.531 2.429 2.429 0 0 1 .644.885 3.062 3.062 0 0 1 .232 1.236 3.326 3.326 0 0 1-.093.817 2.753 2.753 0 0 1-.259.664 3.048 3.048 0 0 1-.392.552 6.4 6.4 0 0 1-.492.492l-2.857 2.458h4.173v1.754h-6.565z" class="cls-19" transform="translate(-2126.84 -3346.59)"/>
                <path id="Trazado_872" d="M2142.714 3352.8c-.106.027-.213.049-.319.066a1.992 1.992 0 0 1-.333.027 2.985 2.985 0 0 1-1.209-.239 2.786 2.786 0 0 1-.93-.651 2.883 2.883 0 0 1-.6-.976 3.363 3.363 0 0 1-.213-1.2 3.065 3.065 0 0 1 1.016-2.338 3.342 3.342 0 0 1 1.109-.658 4.2 4.2 0 0 1 2.758 0 3.327 3.327 0 0 1 1.116.658 3.068 3.068 0 0 1 1.016 2.338 4.274 4.274 0 0 1-.093.923 4.821 4.821 0 0 1-.246.791 5.132 5.132 0 0 1-.359.71q-.207.339-.432.7l-2.059 3.216h-2.433zm-1.608-2.9a1.431 1.431 0 0 0 .418 1.057 1.644 1.644 0 0 0 2.192 0 1.541 1.541 0 0 0 0-2.112 1.644 1.644 0 0 0-2.192 0 1.43 1.43 0 0 0-.418 1.055z" class="cls-19" transform="translate(-2131.445 -3346.59)"/>
            </g>
            <rect id="Rectángulo_288" width="8.559" height=".692" fill="#7b7b7b" rx=".346" transform="translate(12.839 26.913)"/>
        </g>
        <g id="Grupo_434" transform="translate(2575.072 1223.987)">
            <g id="Grupo_110">
                <path id="Trazado_333" fill="#b58e8e" d="M945.822 1949.191v46.947a2.063 2.063 0 0 1-2.063 2.063h-39.77a2.063 2.063 0 0 1-2.063-2.063v-57.686a2.064 2.064 0 0 1 2.063-2.063h29.03z" transform="translate(-901.926 -1936.388)"/>
                <path id="Trazado_334" d="M972.345 1949.191h-10.74a2.063 2.063 0 0 1-2.063-2.063v-10.74z" class="cls-22" transform="translate(-928.448 -1936.388)"/>
            </g>
            <rect id="Rectángulo_103" width="18.045" height="1.842" class="cls-22" rx=".921" transform="translate(4.724 6.857)"/>
            <rect id="Rectángulo_104" width="10.012" height="1.842" class="cls-22" rx=".921" transform="translate(4.724 10.96)"/>
            <g id="Grupo_111" transform="translate(11.592 33.819)">
                <circle id="Elipse_42" cx="8.07" cy="8.07" r="8.07" class="cls-6" transform="translate(2.287 2.287)"/>
                <path id="Trazado_335" d="M932.618 2018.625a1.143 1.143 0 0 1 1.144-1.144 8.07 8.07 0 1 1 8.07-8.07 1.143 1.143 0 0 1 2.286 0 10.356 10.356 0 1 0-10.356 10.357 1.143 1.143 0 0 1-1.144-1.143z" class="cls-22" transform="translate(-923.405 -1999.055)"/>
                <path id="Trazado_336" fill="#ff8989" d="M950.833 2016.127a1.143 1.143 0 0 0-1.143 1.143 8.079 8.079 0 0 1-8.07 8.07 1.144 1.144 0 0 0 0 2.287 10.368 10.368 0 0 0 10.356-10.357 1.143 1.143 0 0 0-1.143-1.143z" transform="translate(-931.264 -2006.914)"/>
            </g>
        </g>
    </g>
</svg>
