<svg xmlns="http://www.w3.org/2000/svg" width="213.018" height="165.737" viewBox="0 0 213.018 165.737">
    <defs>
        <style>
            .cls-2{fill:#ffe1e1}.cls-3{fill:#ff8989}.cls-4{fill:#ffd2d2}.cls-5{fill:#e28686}.cls-6{fill:#ffaeae}.cls-7{fill:#aec3ff}.cls-8{fill:#fcbeb7}.cls-9{fill:#311643}.cls-10{fill:#f49795}.cls-11{fill:none}.cls-12{fill:#fff}.cls-13{fill:#f9afab}.cls-14{fill:#ebedf4}.cls-15{fill:#723131}.cls-17{fill:#c45a5a}.cls-18{fill:#a34a4a}.cls-19{fill:#aa2f2f}.cls-20{fill:#8a6c6c}.cls-21{fill:#d89c9c}.cls-22{fill:#d2dcff}.cls-23{fill:#8b5959}.cls-24{fill:#bcbcbc}.cls-25{fill:#4a5ea3}.cls-29{fill:#8f2c2c}.cls-42{fill:#949494}.cls-43{fill:#888}.cls-47{fill:#d8d8d8}.cls-48{fill:#6c2f2f}.cls-49{fill:#c29292}.cls-50{fill:#d34a4a}.cls-51{fill:#7e7e7e}.cls-53{fill:#8e8e8e}
        </style>
    </defs>
    <g id="Grupo_365">
        <g id="Grupo_302" transform="translate(15.101)">
            <g id="Grupo_368" transform="translate(52.247)">
                <rect id="Rectángulo_201" width="69.378" height="66.361" fill="#b58e8e" rx="7.963"/>
                <rect id="Rectángulo_202" width="31.8" height="1.925" class="cls-2" rx=".963" transform="translate(8.637 7.68)"/>
                <rect id="Rectángulo_203" width="22.196" height="1.925" class="cls-2" rx=".963" transform="translate(8.637 12.483)"/>
                <rect id="Rectángulo_204" width="6.714" height="1.375" class="cls-3" rx=".688" transform="translate(8.637 20.904)"/>
                <g id="Grupo_199" transform="translate(12.834 36.8)">
                    <rect id="Rectángulo_205" width="18.535" height="4.153" class="cls-3" rx="1.707" transform="matrix(0 -1 1 0 0 25.43)"/>
                    <rect id="Rectángulo_206" width="25.43" height="4.153" class="cls-3" rx="1.707" transform="rotate(-90 16.49 8.94)"/>
                    <rect id="Rectángulo_207" width="18.535" height="4.153" class="cls-3" rx="1.707" transform="rotate(-90 21.037 4.393)"/>
                    <path id="Trazado_1075" d="M.688 0h24.054a.688.688 0 0 1 .688.688v2.778a.688.688 0 0 1-.688.688H.688A.688.688 0 0 1 0 3.466V.688A.688.688 0 0 1 .688 0z" class="cls-3" transform="rotate(-90 24.812 .618)"/>
                    <rect id="Rectángulo_209" width="13.51" height="4.153" class="cls-3" rx="1.707" transform="rotate(-90 29.357 -3.928)"/>
                    <path id="Trazado_1076" d="M.688 0h17.16a.688.688 0 0 1 .688.688v2.778a.688.688 0 0 1-.688.688H.688A.688.688 0 0 1 0 3.466V.688A.688.688 0 0 1 .688 0z" class="cls-3" transform="rotate(-90 33.133 -7.703)"/>
                </g>
                <g id="Grupo_200" transform="translate(12.834 45.495)">
                    <rect id="Rectángulo_211" width="12.197" height="4.153" class="cls-4" rx="1.707" transform="rotate(-90 8.367 8.367)"/>
                    <rect id="Rectángulo_212" width="16.734" height="4.153" class="cls-4" rx="1.707" transform="rotate(-90 12.142 4.592)"/>
                    <rect id="Rectángulo_213" width="12.197" height="4.153" class="cls-4" rx="1.707" transform="rotate(-90 16.689 .045)"/>
                    <rect id="Rectángulo_214" width="16.734" height="4.153" class="cls-4" rx="1.707" transform="rotate(-90 20.464 -3.73)"/>
                    <rect id="Rectángulo_215" width="8.891" height="4.153" class="cls-4" rx="1.707" transform="rotate(-90 25.01 -8.276)"/>
                    <rect id="Rectángulo_216" width="12.197" height="4.153" class="cls-4" rx="1.707" transform="rotate(-90 28.785 -12.05)"/>
                </g>
            </g>
            <g id="Grupo_279" transform="translate(94.452 45.637)">
                <g id="Grupo_270" transform="translate(12.403 27.306)">
                    <path id="Trazado_767" d="M2421.72 3529.56l4.126 34.21h1.353l-4.126-34.21z" class="cls-4" transform="translate(-2403.485 -3491.118)"/>
                    <path id="Trazado_768" d="M2466.987 3529.559l.464 3.848 3.662 30.362h1.353l-3.68-30.513-.446-3.7z" class="cls-4" transform="translate(-2430.518 -3491.117)"/>
                    <path id="Trazado_769" d="M2421.72 3563.769h1.353l.571-4.731.677-5.609 2.226-18.453.653-5.417h-1.354l-.672 5.571-1.53 12.688-.677 5.609z" class="cls-4" transform="translate(-2403.485 -3491.117)"/>
                    <path id="Trazado_770" d="M2376.453 3563.769h1.354l3.2-26.553.924-7.657h-1.354l-.941 7.805z" class="cls-4" transform="translate(-2376.453 -3491.117)"/>
                    <g id="Grupo_269" transform="translate(18.014 15.573)">
                        <path id="Rectángulo_277" d="M0 0H1.353V20.693H0z" class="cls-4" transform="translate(18.39)"/>
                        <path id="Rectángulo_278" d="M0 0H1.353V20.693H0z" class="cls-4"/>
                    </g>
                    <path id="Trazado_771" d="M2383.674 3524.16h18.594a1.087 1.087 0 0 0-1.088 1.087 1.087 1.087 0 0 0 1.088 1.088h-18.594a1.088 1.088 0 0 1-1.088-1.088 1.087 1.087 0 0 1 1.088-1.087z" class="cls-4" transform="translate(-2380.116 -3487.894)"/>
                    <path id="Trazado_772" d="M2428.745 3525.247a1.087 1.087 0 0 1 1.087-1.087h16.055a1.087 1.087 0 0 1 1.088 1.087 1.087 1.087 0 0 1-1.088 1.088h-16.055a1.087 1.087 0 0 1-1.087-1.088z" class="cls-5" transform="translate(-2407.68 -3487.894)"/>
                    <rect id="Rectángulo_279" width="24.986" height="15.573" class="cls-4" rx="3.763" transform="translate(15.393)"/>
                    <path id="Trazado_773" d="M2466.987 3529.559l.464 3.847 1.335-.151-.446-3.7z" class="cls-6" transform="translate(-2430.518 -3491.118)"/>
                    <path id="Trazado_774" d="M2430.967 3529.559l-.672 5.571 1.372-.155.653-5.416z" class="cls-6" transform="translate(-2408.606 -3491.118)"/>
                    <path id="Trazado_775" d="M2384.359 3537.364l1.371-.148.923-7.657h-1.353z" class="cls-6" transform="translate(-2381.174 -3491.118)"/>
                    <path id="Trazado_776" d="M2468.177 3472.79h-1.353v2.858l1.353-.15z" class="cls-7" transform="translate(-2430.419 -3457.217)"/>
                    <path id="Trazado_777" d="M2421.172 3472.79v4.894l1.353-.15v-4.744z" class="cls-7" transform="translate(-2403.158 -3457.217)"/>
                </g>
                <g id="Grupo_278">
                    <g id="Grupo_276" transform="translate(22.578)">
                        <g id="Grupo_271" transform="translate(.491 5.94)">
                            <path id="Trazado_778" d="M2402.951 3385.658c.5 6.1 4.93 9.917 7.529 9.917a4.813 4.813 0 0 0 1.258-.191v3.04h6.592v-7.73c.061-.16.12-.337.178-.526 2.922-.279 2.8-5.108 1.065-5.108-.316 0-.528.3-.66.6l-.431.431v-2.182s-.97.091-2.879-2.818c-.824 1.25-7.394 3.212-12.667 2.333-.002 0-.015 1.085.015 2.234z" class="cls-8" transform="translate(-2402.931 -3381.09)"/>
                        </g>
                        <path id="Trazado_779" d="M2410.207 3366.345c4.545 0 5.454 2.424 5.454 2.424 1.939 0 4.91 3.546 3.121 7.485l-.009.009-1.021 1.021v-2.184s-.97.09-2.879-2.818c-.823 1.25-7.394 3.212-12.667 2.333 0 0-.013 1.085.017 2.235-1.97-5.69 1.983-10.505 7.984-10.505z" class="cls-9" transform="translate(-2401.712 -3366.345)"/>
                        <g id="Grupo_272" transform="translate(10.085 10.766)">
                            <path id="Trazado_780" d="M2427.112 3394.477a.364.364 0 0 0 .364-.364v-.679a.364.364 0 1 0-.728 0v.679a.364.364 0 0 0 .364.364z" class="cls-9" transform="translate(-2426.748 -3393.07)"/>
                        </g>
                        <g id="Grupo_273" transform="translate(3.343 10.766)">
                            <path id="Trazado_781" d="M2410.374 3394.477a.364.364 0 0 0 .364-.364v-.679a.364.364 0 0 0-.728 0v.679a.364.364 0 0 0 .364.364z" class="cls-9" transform="translate(-2410.01 -3393.07)"/>
                        </g>
                        <g id="Grupo_274" transform="translate(7.309 15.116)">
                            <path id="Trazado_782" d="M2420.323 3405.171a2.079 2.079 0 0 0 1.359-.467 1.841 1.841 0 0 0 .483-.6.167.167 0 1 0-.3-.137 1.7 1.7 0 0 1-1.819.853.167.167 0 1 0-.038.331 2.755 2.755 0 0 0 .315.02z" class="cls-9" transform="translate(-2419.856 -3403.871)"/>
                        </g>
                        <circle id="Elipse_94" cx="1.798" cy="1.798" r="1.798" class="cls-10" transform="translate(11.065 11.591)"/>
                        <path id="Trazado_783" d="M2403.444 3395.424a12.827 12.827 0 0 0 1.093 3.289 1.8 1.8 0 1 0-1.093-3.289z" class="cls-10" transform="translate(-2402.747 -3383.528)"/>
                        <g id="Grupo_275" transform="translate(1.158 7.921)">
                            <circle id="Elipse_95" cx="2.215" cy="2.215" r="2.215" class="cls-11" transform="translate(7.076 .333)"/>
                            <circle id="Elipse_96" cx="2.215" cy="2.215" r="2.215" class="cls-11" transform="rotate(-80.8 2.577 2.186)"/>
                            <path id="Trazado_784" d="M2404.587 3388.556a2.548 2.548 0 0 0 5.094.1 1.663 1.663 0 0 1 1.651 0 2.546 2.546 0 1 0 .013-.368 1.959 1.959 0 0 0-1.677 0 2.548 2.548 0 0 0-5.081.273zm7.076 0a2.215 2.215 0 1 1 2.215 2.214 2.217 2.217 0 0 1-2.215-2.214zm-6.743 0a2.215 2.215 0 1 1 2.215 2.214 2.217 2.217 0 0 1-2.215-2.214z" class="cls-12" transform="translate(-2404.587 -3386.008)"/>
                        </g>
                        <path id="Trazado_785" d="M2424.792 3416.1v-3.04a14.678 14.678 0 0 0 4.463-2.37z" class="cls-13" transform="translate(-2415.495 -3392.827)"/>
                    </g>
                    <path id="Trazado_786" d="M2378.3 3536.833l1.376-.188 1.3-10.8h-1.353z" class="cls-14" transform="translate(-2365.155 -3461.591)"/>
                    <path id="Trazado_788" d="M2385.606 3450.631l-1.2 2.291h6.371z" class="cls-8" transform="translate(-2368.802 -3416.678)"/>
                    <path id="Trazado_789" d="M2395.024 3599.651v4.933a1.041 1.041 0 0 1-1.041 1.042h-13.992a.241.241 0 0 1-.241-.241v-.909a1.124 1.124 0 0 1 .655-1.02l8.091-3.8z" class="cls-15" transform="translate(-2366.019 -3505.668)"/>
                    <path id="Trazado_790" d="M2407.319 3592.684v2.807h-6.526l-.451-2.807z" class="cls-8" transform="translate(-2378.314 -3501.508)"/>
                    <path id="Trazado_791" fill="#754141" d="M2402.461 3417l-8.859 4a5.808 5.808 0 0 0-2.807 2.7l-3.417 6.845 5.175 2.291-.429 15.13h25.789l-1.126-14.131 4.664.03v-7.732a5.936 5.936 0 0 0-3.649-5.477l-8.762-3.659s-3.828 2.517-6.579.003z" transform="translate(-2370.574 -3396.596)"/>
                    <g id="Grupo_277" transform="translate(29.767 20.951)">
                        <path id="Trazado_792" d="M2419.558 3418.73a7.728 7.728 0 0 0 4.993 1.81 8 8 0 0 0 5.292-2.068l-.281-.117a7.675 7.675 0 0 1-5.011 1.919 7.465 7.465 0 0 1-4.719-1.662z" class="cls-12" transform="translate(-2419.558 -3418.354)"/>
                    </g>
                    <path id="Trazado_793" d="M2360.938 3599.651v4.933a1.042 1.042 0 0 1-1.042 1.042H2345.9a.241.241 0 0 1-.241-.241v-.909a1.123 1.123 0 0 1 .655-1.02l8.091-3.8z" class="cls-15" transform="translate(-2345.663 -3505.668)"/>
                    <path id="Trazado_794" d="M2373.233 3592.684v2.807h-6.533l-.451-2.807z" class="cls-8" transform="translate(-2357.958 -3501.508)"/>
                    <path id="Trazado_795" d="M2383.827 3493.879v.264a11.993 11.993 0 0 1-11.993 12h-5.571l-.771 27.536h-6.981l-5.147-32.831a6.035 6.035 0 0 1 5.962-6.97z" class="cls-17" transform="translate(-2350.218 -3442.505)"/>
                    <path id="Trazado_796" d="M2353.292 3501.16a3.341 3.341 0 1 0 2.976-5.218 6.041 6.041 0 0 0-2.976 5.218z" class="cls-18" transform="translate(-2350.219 -3443.736)"/>
                    <path id="Trazado_797" d="M2386.254 3508.577l-.759 6.345h4.571z" class="cls-18" transform="translate(-2369.449 -3451.282)"/>
                    <path id="Trazado_798" d="M2417.915 3493.879v.264a11.993 11.993 0 0 1-11.993 12h-5.571l-.771 27.536h-6.98l-5.147-32.831a6.035 6.035 0 0 1 5.962-6.97z" class="cls-17" transform="translate(-2370.574 -3442.505)"/>
                    <path id="Trazado_799" d="M2441.65 3458.806l-.248 8.569a4.284 4.284 0 0 1-4.281 4.159H2422.2l-1-3.489 13.158-2.169.093-7.117z" class="cls-8" transform="translate(-2390.773 -3421.532)"/>
                    <path id="Trazado_800" d="M2460.981 3482.768a2.207 2.207 0 0 0 .784 1.689 4.287 4.287 0 0 0 3.221-2.984 2.212 2.212 0 0 0-4 1.295z" class="cls-13" transform="translate(-2414.528 -3434.549)"/>
                    <path id="Trazado_801" d="M2451.1 3458.76l-2.02 7.435 1.927-.318.093-7.117" class="cls-19" transform="translate(-2407.423 -3421.532)"/>
                    <path id="Trazado_802" d="M2423.041 3481.059l2.352 3.792h-3.193l-1-3.489z" class="cls-13" transform="translate(-2390.773 -3434.849)"/>
                    <path id="Trazado_803" d="M2359.384 3456.319h19.451a1.853 1.853 0 0 1 1.781 1.342l3.564 12.416h7.887a.686.686 0 1 1 0 1.372h-30.8l-3.665-12.766a1.853 1.853 0 0 1 1.782-2.364z" class="cls-20" transform="translate(-2352.75 -3420.075)"/>
                    <path id="Trazado_804" d="M2387.38 3501.025a3.341 3.341 0 1 0 2.983-5.094 6.044 6.044 0 0 0-2.983 5.094z" class="cls-18" transform="translate(-2370.575 -3443.73)"/>
                    <ellipse id="Elipse_97" cx=".722" cy="1.054" class="cls-12" rx=".722" ry="1.054" transform="rotate(-5.13 499.71 -164.854)"/>
                    <path id="Trazado_805" d="M2462.25 3431a1.957 1.957 0 0 0 3.723.842 5.939 5.939 0 0 0-1.636-2.794h-.131a1.956 1.956 0 0 0-1.956 1.952z" class="cls-19" transform="translate(-2415.285 -3403.784)"/>
                    <path id="Trazado_806" d="M2396.161 3429.315a1.956 1.956 0 0 0 2.823-2.533l-.138.063a5.808 5.808 0 0 0-2.685 2.47z" class="cls-19" transform="translate(-2375.819 -3402.436)"/>
                </g>
            </g>
            <g id="Grupo_296" transform="translate(6.647 45.867)">
                <path id="Trazado_807" d="M2285.65 3476.868l-6.828 55.206h-1.356l6.828-55.206z" class="cls-21" transform="translate(-2209.479 -3432.576)"/>
                <g id="Grupo_281" transform="translate(23.082 26.727)">
                    <path id="Trazado_808" d="M2216.82 3528.849l-4.133 34.266h-1.355l4.133-34.266z" class="cls-4" transform="translate(-2193.067 -3490.344)"/>
                    <path id="Trazado_809" d="M2171.479 3528.848l-.465 3.854-3.668 30.413h-1.356l3.687-30.563.446-3.7z" class="cls-4" transform="translate(-2165.99 -3490.343)"/>
                    <path id="Trazado_810" d="M2216.82 3563.115h-1.355l-.572-4.74-.678-5.619-2.229-18.483-.654-5.425h1.355l.673 5.58 1.533 12.708.678 5.619z" class="cls-4" transform="translate(-2193.067 -3490.343)"/>
                    <path id="Trazado_811" d="M2262.162 3563.115h-1.356l-3.208-26.6-.925-7.669h1.356l.943 7.818z" class="cls-22" transform="translate(-2220.143 -3490.343)"/>
                    <g id="Grupo_280" transform="translate(4.199 15.599)">
                        <path id="Rectángulo_280" d="M0 0H1.356V20.728H0z" class="cls-4"/>
                        <path id="Rectángulo_281" d="M0 0H1.355V20.728H0z" class="cls-4" transform="translate(18.42)"/>
                    </g>
                    <path id="Trazado_812" d="M2233.841 3523.44h-18.625a1.09 1.09 0 0 1 1.089 1.089 1.089 1.089 0 0 1-1.089 1.089h18.625a1.089 1.089 0 0 0 1.089-1.089 1.089 1.089 0 0 0-1.089-1.089z" class="cls-4" transform="translate(-2195.386 -3487.114)"/>
                    <path id="Trazado_813" d="M2190.852 3524.529a1.089 1.089 0 0 0-1.089-1.089h-16.081a1.089 1.089 0 0 0-1.089 1.089 1.089 1.089 0 0 0 1.089 1.089h16.081a1.089 1.089 0 0 0 1.089-1.089z" class="cls-5" transform="translate(-2169.933 -3487.114)"/>
                    <rect id="Rectángulo_282" width="25.027" height="15.599" class="cls-4" rx="5.112" transform="translate(1.573)"/>
                    <path id="Trazado_814" d="M2176.943 3528.848l-.465 3.854-1.337-.15.447-3.7z" class="cls-6" transform="translate(-2171.455 -3490.343)"/>
                    <path id="Trazado_815" d="M2212.688 3528.848l.673 5.58-1.375-.155-.654-5.425z" class="cls-6" transform="translate(-2193.067 -3490.343)"/>
                    <path id="Trazado_816" d="M2258.972 3536.666l-1.373-.148-.925-7.67h1.356z" class="cls-7" transform="translate(-2220.143 -3490.343)"/>
                    <path id="Trazado_817" d="M2176.414 3471.986h1.355v2.863l-1.355-.15z" class="cls-6" transform="translate(-2172.215 -3456.387)"/>
                    <path id="Trazado_818" d="M2223.5 3471.986v4.9l-1.355-.15v-4.752z" class="cls-7" transform="translate(-2199.522 -3456.387)"/>
                </g>
                <g id="Grupo_290" transform="translate(23.882)">
                    <g id="Grupo_287" transform="translate(8.125)">
                        <path id="Trazado_819" d="M2209.865 3381.687c-1.593 2.635-6.461 6.426-13.7 4.113a.454.454 0 0 0-.069-.006c-1.722 0-1.842 4.79 1.056 5.067q.064.211.131.4v7.788h6.537v-3.027a4.838 4.838 0 0 0 1.292.2c2.7 0 7.4-4.171 7.511-10.741a4.874 4.874 0 0 1-2.758-3.794z" class="cls-8" transform="translate(-2192.163 -3375.736)"/>
                        <path id="Trazado_820" d="M2212.062 3374.75c0-4.328-3.817-7.834-9.541-7.834-4.756 0-6.391 2.625-6.391 2.625s-4.5.972-4.5 6.559v14.128h19.151v-11.635a6.027 6.027 0 0 0 1.281-3.843zm-8.884 12.652a4.842 4.842 0 0 1-1.292-.2v3.027h-6.536v-7.789c-.045-.125-.088-.258-.132-.4-2.9-.277-2.777-5.066-1.056-5.066a.528.528 0 0 1 .069.005c7.239 2.313 12.107-1.478 13.7-4.113a4.875 4.875 0 0 0 2.759 3.795c-.108 6.57-4.809 10.739-7.513 10.739z" class="cls-9" transform="translate(-2190.229 -3366.915)"/>
                        <path id="Trazado_821" d="M2188.146 3419.843l5.12-2.372 2.809.074 3.727.176 5.356 1.626v6.834h-17.013z" class="cls-8" transform="translate(-2188.146 -3397.106)"/>
                        <path id="Trazado_822" d="M2215.767 3422.88v-7.252l-5.356-1.627v-.331a14.824 14.824 0 0 1-4.5-2.429z" class="cls-13" transform="translate(-2198.754 -3393.385)"/>
                        <circle id="Elipse_98" cx="1.783" cy="1.783" r="1.783" class="cls-10" transform="translate(6.382 11.726)"/>
                        <path id="Trazado_823" d="M2234.249 3396.326a12.718 12.718 0 0 1-1.083 3.262 1.783 1.783 0 1 1 1.083-3.262z" class="cls-10" transform="translate(-2214.019 -3384.298)"/>
                        <g id="Grupo_282" transform="translate(7.657 7.325)">
                            <circle id="Elipse_99" cx="2.196" cy="2.196" r="2.196" class="cls-11" transform="rotate(-22.5 7.569 -15.968)"/>
                            <circle id="Elipse_100" cx="2.196" cy="2.196" r="2.196" class="cls-11" transform="rotate(-22.5 4.225 .84)"/>
                            <path id="Trazado_824" d="M2217.219 3386.987a2.531 2.531 0 0 0-2.513 2.257 1.942 1.942 0 0 0-1.662 0 2.531 2.531 0 1 0 .012.365 1.634 1.634 0 0 1 1.638 0 2.527 2.527 0 1 0 2.525-2.623zm-6.687 4.723a2.2 2.2 0 1 1 2.2-2.2 2.2 2.2 0 0 1-2.2 2.2zm6.687 0a2.2 2.2 0 1 1 2.2-2.2 2.2 2.2 0 0 1-2.2 2.2z" class="cls-12" transform="translate(-2207.662 -3386.226)"/>
                        </g>
                        <g id="Grupo_285" transform="translate(10.276 10.834)">
                            <g id="Grupo_283" transform="translate(6.579)">
                                <path id="Trazado_825" d="M2230.348 3395.2a.361.361 0 0 1-.36-.361v-.674a.361.361 0 1 1 .721 0v.674a.361.361 0 0 1-.361.361z" class="cls-9" transform="translate(-2229.987 -3393.809)"/>
                            </g>
                            <g id="Grupo_284">
                                <path id="Trazado_826" d="M2214.016 3395.2a.361.361 0 0 1-.36-.361v-.674a.361.361 0 1 1 .721 0v.674a.361.361 0 0 1-.361.361z" class="cls-9" transform="translate(-2213.655 -3393.809)"/>
                            </g>
                        </g>
                        <g id="Grupo_286" transform="translate(11.369 15.222)">
                            <path id="Trazado_827" d="M2218.211 3405.993a2.065 2.065 0 0 1-1.348-.462 1.839 1.839 0 0 1-.479-.594.165.165 0 0 1 .3-.137 1.686 1.686 0 0 0 1.8.846.165.165 0 1 1 .038.328 2.772 2.772 0 0 1-.311.019z" class="cls-9" transform="translate(-2216.37 -3404.703)"/>
                        </g>
                    </g>
                    <path id="Trazado_828" d="M2238.3 3602.465l-6-2.578.307 1.485-7.376-2.317v2.114a2.112 2.112 0 0 0 1 1.8l.634 1.814a.391.391 0 0 0 .369.262.39.39 0 0 0 .39-.391v-1.179l5.042 1.57h5.1a1.343 1.343 0 0 0 1.343-1.343 1.342 1.342 0 0 0-.809-1.237z" class="cls-23" transform="translate(-2202.172 -3505.542)"/>
                    <path id="Trazado_829" d="M2270.764 3602.465l-6-2.578.307 1.485-7.377-2.317v2.114a2.113 2.113 0 0 0 1 1.8l.635 1.814a.391.391 0 0 0 .76-.129v-1.179l5.042 1.57h5.1a1.342 1.342 0 0 0 1.343-1.343 1.342 1.342 0 0 0-.81-1.237z" class="cls-23" transform="translate(-2221.556 -3505.542)"/>
                    <path id="Trazado_830" d="M2225.239 3592.077v2.811l7.373 2.317-.308-1.486-.612-.312.535-3.33z" class="cls-8" transform="translate(-2202.172 -3501.375)"/>
                    <path id="Trazado_831" d="M2257.7 3592.077v2.811l7.373 2.317-.307-1.486-.613-.312.535-3.33z" class="cls-8" transform="translate(-2221.556 -3501.375)"/>
                    <path id="Trazado_832" d="M2212.109 3493.11v.264a12.012 12.012 0 0 0 12.012 12.021h5.581l.772 27.581h6.992l5.156-32.885a6.046 6.046 0 0 0-5.973-6.981z" class="cls-24" transform="translate(-2194.331 -3442.275)"/>
                    <path id="Trazado_833" d="M2253.793 3515.561l.48 3.242h-1.019z" class="cls-25" transform="translate(-2218.902 -3455.682)"/>
                    <path id="Trazado_834" d="M2184.835 3491.01a7.951 7.951 0 0 0 7.921 7.275h7.565l.772 27.581h6.992l5.1-32.538a6.346 6.346 0 0 0-6.269-7.329h-.56l-1.605-4.8h-18.418l-1.4 7.713a7.963 7.963 0 0 0-.098 2.098z" class="cls-24" transform="translate(-2178.027 -3435.164)"/>
                    <g id="Grupo_288" transform="translate(0 21.114)">
                        <path id="Trazado_835" d="M2205.376 3427.872c1.241 0 2.234-1.2 2.9-2.406h-7.08c1.084 1.207 2.563 2.406 4.18 2.406z" class="cls-12" transform="translate(-2187.817 -3422.993)"/>
                        <path id="Trazado_836" fill="#c43333" d="M2198.842 3424.391l-.49-.762a6.342 6.342 0 0 0-3.489-2.639l-5.455-1.661a8.849 8.849 0 0 1-.969 2.472c-.669 1.211-1.662 2.407-2.9 2.407-1.617 0-3.1-1.2-4.176-2.407a15.247 15.247 0 0 1-1.78-2.46l-4.875 2.258a7.264 7.264 0 0 0-4 4.838l-2.173 6.943a12.32 12.32 0 0 0-.561 3.671v.575a2.7 2.7 0 0 0 2.7 2.7h5.2l.409 3.924h18.417l4.642-19.08z" transform="translate(-2167.976 -3419.328)"/>
                    </g>
                    <g id="Grupo_289" transform="translate(10.07 21.477)">
                        <path id="Trazado_837" d="M2200.646 3426.468a6.036 6.036 0 0 1-3.1-.926 11.055 11.055 0 0 1-2.419-2.018 16.758 16.758 0 0 1-2.156-2.935l.274-.127a16.314 16.314 0 0 0 2.107 2.862 10.738 10.738 0 0 0 2.35 1.96 5.739 5.739 0 0 0 2.94.883 3.691 3.691 0 0 0 2.446-.906 6.161 6.161 0 0 0 1.5-2.024 11.442 11.442 0 0 0 .942-3.007l.3.091a11.468 11.468 0 0 1-.967 3.041 6.483 6.483 0 0 1-1.572 2.125 3.986 3.986 0 0 1-2.645.981z" class="cls-12" transform="translate(-2192.974 -3420.23)"/>
                    </g>
                    <path id="Trazado_838" fill="#828282" d="M2279.271 3502.013a3.347 3.347 0 1 1-2.452-5.625c.087 0 .174 0 .259.01a6.033 6.033 0 0 1 2.193 5.615z" transform="translate(-2230.975 -3444.232)"/>
                    <path id="Trazado_839" fill="gray" d="M2246.123 3501.325a3.347 3.347 0 1 1-2.417-4.9 6.343 6.343 0 0 1 2.417 4.9z" transform="translate(-2210.886 -3444.232)"/>
                    <path id="Trazado_840" d="M2170.407 3464.255h20.209v-2.55l-19.931-2.293a2.43 2.43 0 0 0-2.708 2.414 2.429 2.429 0 0 0 2.43 2.429z" class="cls-8" transform="translate(-2167.977 -3422.141)"/>
                    <path id="Trazado_841" d="M2235.658 3433.838h-20.649a1.856 1.856 0 0 0-1.784 1.344l-3.57 12.437h-7.884a.7.7 0 0 0-.7.662.687.687 0 0 0 .687.713h30.852l3.991-13.907a.978.978 0 0 0-.943-1.249z" class="cls-20" transform="translate(-2187.737 -3406.88)"/>
                    <ellipse id="Elipse_101" cx="1.056" cy=".723" class="cls-12" rx="1.056" ry=".723" transform="rotate(-84.95 37.293 -1.236)"/>
                    <path id="Trazado_842" d="M2187.508 3481.2l-.737 4.059 19.578-2.793-.424-1.265z" class="cls-29" transform="translate(-2179.2 -3435.164)"/>
                    <path id="Trazado_843" d="M2180.517 3426.022a2.217 2.217 0 0 1-3.678 1.668 7.268 7.268 0 0 1 3.159-2.827l.149-.069a2.208 2.208 0 0 1 .37 1.228z" class="cls-29" transform="translate(-2173.269 -3401.479)"/>
                    <path id="Trazado_844" d="M2239.548 3427.381a2.218 2.218 0 0 1-3.07-3.047 6.34 6.34 0 0 1 2.58 2.284z" class="cls-29" transform="translate(-2208.683 -3401.204)"/>
                    <path id="Trazado_845" d="M2206.495 3451.987c-.086.3-3.837 4.337-3.837 4.337l-9.993-.5 12.322 1.418z" class="cls-29" transform="translate(-2182.72 -3417.717)"/>
                </g>
                <g id="Grupo_291" transform="translate(0 44.293)">
                    <path id="Trazado_846" d="M2116.875 3476.869l-1.827 14.77-5 40.436h-1.355l4.987-40.32 1.841-14.885z" class="cls-21" transform="translate(-2108.692 -3476.869)"/>
                    <path id="Trazado_847" d="M2161.413 3532.074h-1.356l-5.139-41.555-1.688-13.651h1.356l1.674 13.538z" class="cls-22" transform="translate(-2135.289 -3476.869)"/>
                    <path id="Trazado_848" d="M2122.913 3476.869h1.355l-1.826 14.77-1.37.116z" class="cls-7" transform="translate(-2116.085 -3476.869)"/>
                    <path id="Trazado_849" d="M2154.586 3476.869l1.674 13.538-1.342.113-1.688-13.651z" class="cls-21" transform="translate(-2135.289 -3476.869)"/>
                </g>
                <g id="Grupo_292" transform="translate(85.929 44.293)">
                    <path id="Trazado_850" d="M2330.188 3532.074h-1.356l-5.841-47.229-.986-7.976h1.355l.973 7.863z" class="cls-21" transform="translate(-2322.005 -3476.869)"/>
                    <path id="Trazado_851" fill="#9d7272" d="M2324.333 3484.732l-1.342.113-.986-7.976h1.355z" transform="translate(-2322.005 -3476.869)"/>
                </g>
                <g id="Grupo_293" transform="translate(2.488 42.114)">
                    <path id="Trazado_852" fill="#d4b1b1" d="M2231.793 3471.46h-69.14v2.179h69.14a1.089 1.089 0 0 0 1.089-1.09 1.089 1.089 0 0 0-1.089-1.089z" transform="translate(-2143.404 -3471.46)"/>
                    <path id="Trazado_853" fill="#a25d5d" d="M2120.044 3471.46h-4.085a1.089 1.089 0 0 0-1.09 1.089 1.09 1.09 0 0 0 1.09 1.09h18.159v-2.179z" transform="translate(-2114.869 -3471.46)"/>
                </g>
                <g id="Grupo_294" transform="translate(74.948 35.511)">
                    <path id="Trazado_854" fill="#ce4e4e" d="M2309.12 3464.131v-.555a.311.311 0 0 0-.311-.311h-12.886a1.177 1.177 0 0 0-1.177 1.177v.947a1.177 1.177 0 0 0 1.177 1.177h12.886a.31.31 0 0 0 .311-.311v-.555a.311.311 0 0 0-.311-.311H2296.4a.474.474 0 0 1-.474-.474.474.474 0 0 1 .474-.474h12.413a.311.311 0 0 0 .307-.31z" transform="translate(-2294.745 -3459.963)"/>
                    <path id="Trazado_855" fill="#ccc" d="M2310.309 3466.187v.947h-12.167a.474.474 0 0 1-.473-.474.473.473 0 0 1 .473-.473z" transform="translate(-2296.491 -3461.708)"/>
                    <path id="Trazado_856" fill="#f9a0a0" d="M2309.564 3455.935v-.555a.311.311 0 0 0-.311-.311h-11.045a1.177 1.177 0 0 0-1.177 1.177v.947a1.177 1.177 0 0 0 1.177 1.177h11.045a.31.31 0 0 0 .311-.31v-.555a.311.311 0 0 0-.311-.311h-10.571a.474.474 0 0 1-.474-.474.474.474 0 0 1 .474-.474h10.571a.311.311 0 0 0 .311-.311z" transform="translate(-2296.11 -3455.069)"/>
                    <path id="Trazado_857" fill="#d5d5d5" d="M2310.9 3457.991v.947h-10.473a.474.474 0 0 1-.474-.473.474.474 0 0 1 .474-.474z" transform="translate(-2297.855 -3456.814)"/>
                </g>
                <g id="Grupo_295" transform="translate(12.983 31.723)">
                    <path id="Trazado_858" fill="#c28282" d="M2142.042 3458.309h6.081a.5.5 0 0 1 .5.56l-.515 4.3a.5.5 0 0 1-.5.441h-5.052a.5.5 0 0 1-.5-.441l-.514-4.3a.5.5 0 0 1 .5-.56z" transform="translate(-2141.291 -3453.216)"/>
                    <path id="Trazado_859" fill="#e29494" d="M2146.8 3449v-1.954l-1.169 2.221v-3.607l-.919 2.271-.918-2.271v3.607l-1.169-2.221V3449l-1.7-2.739.75 4.493h6.081l.75-4.493z" transform="translate(-2140.92 -3445.665)"/>
                </g>
                <circle id="Elipse_102" cx="1.613" cy="1.613" r="1.613" class="cls-10" transform="translate(24.732 38.071)"/>
            </g>
            <g id="Grupo_297" transform="translate(174.23 102.35)">
                <path id="Trazado_860" d="M2518.544 3528.626l-.905 7.513-1.088 9.021-.684 5.672-.233 1.923-.684 5.673-.577 4.783H2513l1.262-10.454.683-5.673.233-1.924.684-5.671.454-3.763.856-7.1z" class="cls-4" transform="translate(-2504.021 -3515.939)"/>
                <path id="Trazado_861" d="M2541.3 3563.212h-1.368l-3.049-25.283-1.123-9.3h1.368l1.177 9.751z" class="cls-4" transform="translate(-2517.609 -3515.939)"/>
                <path id="Trazado_862" d="M2496.245 3528.626l-.576 4.778-2.334 19.351-.684 5.673-.577 4.783h-1.368l1.261-10.454.684-5.673 1.7-14.1.526-4.361z" class="cls-4" transform="translate(-2490.706 -3515.939)"/>
                <path id="Trazado_863" d="M2519 3563.212h-1.368l-1.493-12.379-.684-5.672-1.229-10.186-.766-6.348h1.368l.821 6.8.49 4.063.684 5.671z" class="cls-4" transform="translate(-2504.293 -3515.939)"/>
                <rect id="Rectángulo_283" width="19.892" height="2.199" class="cls-4" rx="1.099" transform="translate(1.617 10.488)"/>
                <rect id="Rectángulo_284" width="11.33" height="2.199" class="cls-5" rx="1.099" transform="translate(1.617 10.488)"/>
                <path id="Trazado_864" d="M2511.042 3509.893h6.137a.505.505 0 0 1 .5.565l-.519 4.337a.505.505 0 0 1-.5.445h-5.1a.505.505 0 0 1-.5-.445l-.519-4.337a.505.505 0 0 1 .501-.565z" class="cls-4" transform="translate(-2502.549 -3504.752)"/>
                <path id="Trazado_865" fill="#782a2a" d="M2515.844 3500.5v-1.972l-1.18 2.242v-3.641l-.927 2.292-.927-2.292v3.641l-1.18-2.242v1.972l-1.719-2.764.758 4.534h6.137l.757-4.534z" transform="translate(-2502.174 -3497.13)"/>
                <path id="Trazado_866" d="M2501.65 3528.626l-.577 4.778-1.317-.417.526-4.361z" class="cls-6" transform="translate(-2496.11 -3515.939)"/>
                <path id="Trazado_867" d="M2515.647 3535.425l-1.423-.45-.766-6.348h1.368z" class="cls-6" transform="translate(-2504.293 -3515.939)"/>
                <path id="Trazado_868" d="M2523.46 3528.626l-.905 7.513-1.319-.415.855-7.1z" class="cls-6" transform="translate(-2508.937 -3515.939)"/>
                <path id="Trazado_869" d="M2538.3 3538.378l-1.422-.448-1.123-9.3h1.368z" class="cls-6" transform="translate(-2517.609 -3515.939)"/>
            </g>
            <g id="Grupo_300" transform="translate(0 29.238)">
                <path id="Trazado_1087" fill="#ffd9d9" d="M1.061 0h19.953a1.061 1.061 0 0 1 1.061 1.061v16.6a1.061 1.061 0 0 1-1.061 1.061H1.061A1.061 1.061 0 0 1 0 17.658V1.061A1.061 1.061 0 0 1 1.061 0z" transform="translate(0 1.329)"/>
                <path id="Trazado_870" fill="#fe9e9e" d="M2133.266 3329.994v3.129h-22.074v-3.129a1.06 1.06 0 0 1 1.061-1.061h19.953a1.06 1.06 0 0 1 1.06 1.061z" transform="translate(-2111.192 -3327.605)"/>
                <g id="Grupo_298" transform="translate(5.435)">
                    <rect id="Rectángulo_286" width="1.095" height="2.657" class="cls-42" rx=".548"/>
                    <rect id="Rectángulo_287" width="1.095" height="2.657" class="cls-42" rx=".548" transform="translate(10.11)"/>
                </g>
                <g id="Grupo_299" transform="translate(6.304 8.442)">
                    <path id="Trazado_871" d="M2126.84 3351.4l2.356-2.116a4.284 4.284 0 0 0 .36-.369.7.7 0 0 0 .18-.48.583.583 0 0 0-.223-.484.82.82 0 0 0-.523-.175.717.717 0 0 0-.561.223.9.9 0 0 0-.227.549l-1.285-.094a2.091 2.091 0 0 1 .2-.818 1.717 1.717 0 0 1 .454-.579 1.913 1.913 0 0 1 .664-.347 2.844 2.844 0 0 1 .827-.116 2.513 2.513 0 0 1 .771.116 1.8 1.8 0 0 1 .625.343 1.566 1.566 0 0 1 .416.57 1.978 1.978 0 0 1 .15.8 2.134 2.134 0 0 1-.06.527 1.779 1.779 0 0 1-.167.428 1.974 1.974 0 0 1-.253.356 4.174 4.174 0 0 1-.317.317l-1.842 1.585h2.69v1.131h-4.232z" class="cls-43" transform="translate(-2126.84 -3346.59)"/>
                    <path id="Trazado_872" d="M2141.434 3350.592c-.068.017-.137.031-.206.043a1.275 1.275 0 0 1-.214.017 1.916 1.916 0 0 1-.78-.154 1.789 1.789 0 0 1-.6-.419 1.861 1.861 0 0 1-.386-.63 2.188 2.188 0 0 1-.137-.776 2.018 2.018 0 0 1 .175-.852 2 2 0 0 1 .48-.655 2.155 2.155 0 0 1 .715-.424 2.708 2.708 0 0 1 1.778 0 2.149 2.149 0 0 1 .719.424 1.977 1.977 0 0 1 .656 1.508 2.773 2.773 0 0 1-.06.6 3.1 3.1 0 0 1-.159.51 3.245 3.245 0 0 1-.231.458c-.088.146-.182.3-.278.45l-1.328 2.074h-1.568zm-1.037-1.868a.923.923 0 0 0 .27.682 1.061 1.061 0 0 0 1.414 0 .994.994 0 0 0 0-1.362 1.06 1.06 0 0 0-1.414 0 .921.921 0 0 0-.267.679z" class="cls-43" transform="translate(-2134.169 -3346.59)"/>
                </g>
                <rect id="Rectángulo_288" width="5.518" height=".446" fill="#7b7b7b" rx=".223" transform="translate(8.278 17.352)"/>
            </g>
            <g id="Grupo_367" transform="translate(115.399 65.244)">
                <g id="Grupo_361">
                    <g id="Grupo_270-2" transform="translate(12.403 27.841)">
                        <path id="Trazado_767-2" d="M2421.72 3529.56l4.126 34.21h1.353l-4.126-34.21z" class="cls-4" transform="translate(-2403.485 -3491.118)"/>
                        <path id="Trazado_768-2" d="M2466.987 3529.559l.464 3.848 3.662 30.362h1.353l-3.68-30.513-.446-3.7z" class="cls-4" transform="translate(-2430.518 -3491.117)"/>
                        <path id="Trazado_769-2" d="M2421.72 3563.769h1.353l.571-4.731.677-5.609 2.226-18.453.653-5.417h-1.354l-.672 5.571-1.53 12.688-.677 5.609z" class="cls-4" transform="translate(-2403.485 -3491.117)"/>
                        <path id="Trazado_770-2" d="M2376.453 3563.769h1.354l3.2-26.553.924-7.657h-1.354l-.941 7.805z" class="cls-4" transform="translate(-2376.453 -3491.117)"/>
                        <g id="Grupo_269-2" transform="translate(18.014 15.573)">
                            <path id="Rectángulo_277-2" d="M0 0H1.353V20.693H0z" class="cls-4" transform="translate(18.39)"/>
                            <path id="Rectángulo_278-2" d="M0 0H1.353V20.693H0z" class="cls-22"/>
                        </g>
                        <path id="Trazado_771-2" d="M2383.674 3524.16h18.594a1.087 1.087 0 0 0-1.088 1.087 1.087 1.087 0 0 0 1.088 1.088h-18.594a1.088 1.088 0 0 1-1.088-1.088 1.087 1.087 0 0 1 1.088-1.087z" class="cls-4" transform="translate(-2380.116 -3487.894)"/>
                        <path id="Trazado_772-2" d="M2428.745 3525.247a1.087 1.087 0 0 1 1.087-1.087h16.055a1.087 1.087 0 0 1 1.088 1.087 1.087 1.087 0 0 1-1.088 1.088h-16.055a1.087 1.087 0 0 1-1.087-1.088z" class="cls-5" transform="translate(-2407.68 -3487.894)"/>
                        <rect id="Rectángulo_279-2" width="24.986" height="15.573" fill="#e58a8a" rx="3.763" transform="translate(15.393)"/>
                        <path id="Trazado_773-2" d="M2466.987 3529.559l.464 3.847 1.335-.151-.446-3.7z" class="cls-6" transform="translate(-2430.518 -3491.118)"/>
                        <path id="Trazado_774-2" d="M2430.967 3529.559l-.672 5.571 1.372-.155.653-5.416z" class="cls-6" transform="translate(-2408.606 -3491.118)"/>
                        <path id="Trazado_775-2" d="M2384.359 3537.364l1.371-.148.923-7.657h-1.353z" class="cls-6" transform="translate(-2381.174 -3491.118)"/>
                        <path id="Trazado_776-2" d="M2468.177 3472.79h-1.353v2.858l1.353-.15z" class="cls-7" transform="translate(-2430.419 -3457.217)"/>
                        <path id="Trazado_777-2" d="M2421.172 3472.79v4.894l1.353-.15v-4.744z" class="cls-7" transform="translate(-2403.158 -3457.217)"/>
                    </g>
                    <g id="Grupo_278-2">
                        <g id="Grupo_276-2" transform="translate(20.542)">
                            <g id="Grupo_271-2" transform="translate(2.528 5.226)">
                                <path id="Trazado_778-2" d="M2402.951 3385.988c.5 6.535 4.93 10.631 7.529 10.631a4.514 4.514 0 0 0 1.258-.205v3.259h6.592v-8.286c.061-.172.12-.361.178-.564 2.922-.3 2.8-5.476 1.065-5.476-.316 0-.528.32-.66.642l-.431.462v-2.339s-.97.1-2.879-3.021c-.824 1.339-7.394 3.443-12.667 2.5-.002.001-.015 1.164.015 2.397z" class="cls-8" transform="translate(-2402.931 -3381.09)"/>
                            </g>
                            <path id="Trazado_779-2" fill="#614419" d="M2407.187 3365.552c4.546 0 5.455 2.425 5.455 2.425 1.939 0 4.909 3.545 3.121 7.485l-.009.009-1.021 1.021s-.953-.566-2.862-3.475c-.824 1.25.034.879-5.239 0a35.671 35.671 0 0 0-5.681 0c-1.743.275-1.764 2.441-1.748 3.044-1.969-5.698-7.385-13.108 7.984-10.509z" transform="translate(-2396.656 -3365.017)"/>
                            <g id="Grupo_272-2" transform="translate(12.122 11.301)">
                                <path id="Trazado_780-2" d="M2427.112 3394.477a.364.364 0 0 0 .364-.364v-.679a.364.364 0 1 0-.728 0v.679a.364.364 0 0 0 .364.364z" class="cls-9" transform="translate(-2426.748 -3393.07)"/>
                            </g>
                            <g id="Grupo_273-2" transform="translate(5.379 11.301)">
                                <path id="Trazado_781-2" d="M2410.374 3394.477a.364.364 0 0 0 .364-.364v-.679a.364.364 0 0 0-.728 0v.679a.364.364 0 0 0 .364.364z" class="cls-9" transform="translate(-2410.01 -3393.07)"/>
                            </g>
                            <g id="Grupo_274-2" transform="translate(9.346 15.652)">
                                <path id="Trazado_782-2" d="M2420.323 3405.171a2.079 2.079 0 0 0 1.359-.467 1.841 1.841 0 0 0 .483-.6.167.167 0 1 0-.3-.137 1.7 1.7 0 0 1-1.819.853.167.167 0 1 0-.038.331 2.755 2.755 0 0 0 .315.02z" class="cls-9" transform="translate(-2419.856 -3403.871)"/>
                            </g>
                            <circle id="Elipse_94-2" cx="1.798" cy="1.798" r="1.798" class="cls-10" transform="translate(13.102 12.126)"/>
                            <path id="Trazado_783-2" d="M2403.444 3395.424a12.827 12.827 0 0 0 1.093 3.289 1.8 1.8 0 1 0-1.093-3.289z" class="cls-10" transform="translate(-2400.71 -3382.993)"/>
                            <path id="Trazado_785-2" d="M2424.792 3416.1v-3.04a14.678 14.678 0 0 0 4.463-2.37z" class="cls-13" transform="translate(-2413.458 -3392.292)"/>
                        </g>
                        <path id="Trazado_786-2" d="M2378.3 3536.833l1.376-.188 1.3-10.8h-1.353z" class="cls-14" transform="translate(-2365.155 -3461.055)"/>
                        <path id="Trazado_788-2" d="M2385.606 3450.631l-1.2 2.291h6.371z" class="cls-47" transform="translate(-2368.802 -3416.143)"/>
                        <path id="Trazado_789-2" d="M2395.024 3599.651v4.933a1.041 1.041 0 0 1-1.041 1.042h-13.992a.241.241 0 0 1-.241-.241v-.909a1.124 1.124 0 0 1 .655-1.02l8.091-3.8z" class="cls-48" transform="translate(-2366.019 -3505.133)"/>
                        <path id="Trazado_790-2" d="M2407.319 3592.684v2.807h-6.526l-.451-2.807z" class="cls-49" transform="translate(-2378.314 -3500.972)"/>
                        <path id="Trazado_791-2" d="M2402.461 3417l-8.859 4a5.808 5.808 0 0 0-2.807 2.7l-3.417 6.845 5.175 2.291-.429 15.13h25.789l-1.126-14.131 4.664.03v-7.732a5.936 5.936 0 0 0-3.649-5.477l-8.762-3.659s-5.14 6.147-6.579.003z" class="cls-3" transform="translate(-2370.574 -3396.061)"/>
                        <path id="Trazado_793-2" d="M2360.938 3599.651v4.933a1.042 1.042 0 0 1-1.042 1.042H2345.9a.241.241 0 0 1-.241-.241v-.909a1.123 1.123 0 0 1 .655-1.02l8.091-3.8z" class="cls-48" transform="translate(-2345.663 -3505.133)"/>
                        <path id="Trazado_794-2" d="M2373.233 3592.684v2.807h-6.533l-.451-2.807z" class="cls-49" transform="translate(-2357.958 -3500.972)"/>
                        <path id="Trazado_795-2" d="M2383.827 3493.879v.264a11.993 11.993 0 0 1-11.993 12h-5.571l-.771 27.536h-6.981l-5.147-32.831a6.035 6.035 0 0 1 5.962-6.97z" class="cls-8" transform="translate(-2350.218 -3441.969)"/>
                        <path id="Trazado_797-2" d="M2386.254 3508.577l-.759 6.345h4.571z" class="cls-25" transform="translate(-2369.449 -3450.747)"/>
                        <path id="Trazado_798-2" d="M2417.915 3493.879v.264a11.993 11.993 0 0 1-11.993 12h-5.571l-.771 27.536h-6.98l-5.147-32.831a6.035 6.035 0 0 1 5.962-6.97z" class="cls-8" transform="translate(-2370.574 -3441.969)"/>
                        <path id="Trazado_800-2" d="M2460.981 3482.768a2.207 2.207 0 0 0 .784 1.689 4.287 4.287 0 0 0 3.221-2.984 2.212 2.212 0 0 0-4 1.295z" class="cls-10" transform="translate(-2414.125 -3434.416)"/>
                        <path id="Trazado_801-2" d="M2451.1 3458.76l-2.02 7.435 1.927-.318.093-7.117" class="cls-50" transform="translate(-2407.423 -3420.997)"/>
                        <path id="Trazado_802-2" d="M2423.041 3481.059l2.352 3.792h-3.193l-1-3.489z" class="cls-8" transform="translate(-2390.773 -3434.313)"/>
                        <path id="Trazado_803-2" d="M2359.384 3456.319h19.451a1.853 1.853 0 0 1 1.781 1.342l3.564 12.416h7.887a.686.686 0 1 1 0 1.372h-30.8l-3.665-12.766a1.853 1.853 0 0 1 1.782-2.364z" class="cls-20" transform="translate(-2352.75 -3419.54)"/>
                        <ellipse id="Elipse_97-2" cx=".722" cy="1.054" class="cls-12" rx=".722" ry="1.054" transform="rotate(-5.13 505.776 -164.578)"/>
                        <path id="Trazado_805-2" d="M2462.25 3431a1.957 1.957 0 0 0 3.723.842 5.939 5.939 0 0 0-1.636-2.794h-.131a1.956 1.956 0 0 0-1.956 1.952z" class="cls-50" transform="translate(-2415.285 -3403.249)"/>
                        <path id="Trazado_806-2" d="M2396.161 3429.315a1.956 1.956 0 0 0 2.823-2.533l-.138.063a5.808 5.808 0 0 0-2.685 2.47z" class="cls-50" transform="translate(-2375.819 -3401.901)"/>
                        <path id="Trazado_1078" d="M2417.915 3493.879v.264a11.993 11.993 0 0 1-11.993 12h-5.571v4.119h-11.527l-1.372-9.415a6.035 6.035 0 0 1 5.962-6.97z" class="cls-51" transform="translate(-2370.574 -3441.969)"/>
                        <path id="Trazado_1079" d="M2383.827 3493.879v.264a11.993 11.993 0 0 1-11.993 12h-5.571v3.487h-11.493l-1.405-8.783a6.035 6.035 0 0 1 5.962-6.97z" class="cls-51" transform="translate(-2350.218 -3441.969)"/>
                        <path id="Trazado_799-2" d="M2444.508 3458.806l-.248 8.569a4.283 4.283 0 0 1-4.281 4.159h-12.369l-1.623-3.793 11.231-1.865.093-7.117z" class="cls-47" transform="translate(-2393.63 -3420.997)"/>
                    </g>
                    <path id="Trazado_1085" d="M2353.292 3501.16a3.341 3.341 0 1 0 2.976-5.218 6.041 6.041 0 0 0-2.976 5.218z" class="cls-18" transform="translate(-2350.219 -3442.798)"/>
                </g>
                <path id="Trazado_1086" d="M2387.38 3501.025a3.341 3.341 0 1 0 2.983-5.094 6.044 6.044 0 0 0-2.983 5.094z" class="cls-18" transform="translate(-2369.367 -3442.792)"/>
            </g>
        </g>
        <g id="Grupo_364" transform="translate(0 61.056)">
            <g id="Grupo_363" transform="translate(10.088)">
                <path id="Trazado_194" d="M1853.468 539.1a10.757 10.757 0 0 1-13.7 4.789.412.412 0 0 0-.068-.006c-1.722 0-1.843 5.578 1.056 5.9.043.164.087.32.131.465v9.071h6.537v-3.526a4.206 4.206 0 0 0 1.292.236c2.7 0 7.4-4.858 7.511-12.51a5.639 5.639 0 0 1-2.759-4.419z" class="cls-8" transform="translate(-1835.767 -534.112)"/>
                <path id="Trazado_195" fill="#725387" d="M1854.09 531.739c0-4.328-4.453-8.119-10.176-8.119-4.757 0-6.537 1.247-6.537 1.247a8.959 8.959 0 0 0-4.777 7.856v10.724l8.45 3.771h.377l3.779-1.4 5.474-2.369 2.743-1.247-.61-6.618a6.024 6.024 0 0 0 1.277-3.845zm-8.884 12.652a4.833 4.833 0 0 1-1.292-.2v3.027l-6.537-1.4v-6.387c-.045-.125-.089-.259-.131-.4-2.9-.277-2.778-5.066-1.056-5.066a.473.473 0 0 1 .068.005l3.574.5c2.678.856 9.148.2 10.225 0 1.5-.274 1.4-.689 2.66-.818 2.005-.2-.724-.164 0 0-.107 6.568-4.807 10.739-7.511 10.739z" transform="translate(-1832.257 -523.619)"/>
                <path id="Trazado_196" d="M1831.749 577.256l5.12-2.372 2.809.074 3.727.176 5.356 1.626v6.834h-17.013z" class="cls-8" transform="translate(-1831.749 -552.622)"/>
                <path id="Trazado_197" d="M1859.37 580.292v-7.253l-5.356-1.627v-.331a14.817 14.817 0 0 1-4.5-2.429z" class="cls-13" transform="translate(-1842.357 -548.901)"/>
                <circle id="Elipse_33" cx="1.783" cy="1.783" r="1.783" class="cls-10" transform="translate(6.382 13.623)"/>
                <path id="Trazado_198" d="M2.777.3a12.7 12.7 0 0 1-1.084 3.264A1.783 1.783 0 1 1 2.777.3z" class="cls-10" transform="rotate(19 -33.601 57.535)"/>
                <g id="Grupo_64" transform="translate(10.276 12.328)">
                    <g id="Grupo_62" transform="translate(6.579)">
                        <path id="Trazado_200" d="M1873.951 552.617a.361.361 0 0 1-.361-.361v-.674a.361.361 0 0 1 .721 0v.674a.361.361 0 0 1-.36.361z" class="cls-9" transform="translate(-1873.59 -551.222)"/>
                    </g>
                    <g id="Grupo_63">
                        <path id="Trazado_201" d="M1857.62 552.617a.361.361 0 0 1-.361-.361v-.674a.361.361 0 1 1 .721 0v.674a.361.361 0 0 1-.36.361z" class="cls-9" transform="translate(-1857.259 -551.222)"/>
                    </g>
                </g>
                <g id="Grupo_65" transform="translate(11.369 17.119)">
                    <path id="Trazado_202" d="M1861.815 563.405a2.062 2.062 0 0 1-1.348-.463 1.835 1.835 0 0 1-.48-.594.165.165 0 0 1 .3-.136 1.685 1.685 0 0 0 1.8.846.165.165 0 0 1 .038.328 2.742 2.742 0 0 1-.31.019z" class="cls-9" transform="translate(-1859.973 -562.116)"/>
                </g>
            </g>
            <g id="Grupo_362" transform="translate(0 24.094)">
                <g id="Grupo_8" transform="translate(0 4.65)">
                    <path id="Trazado_23" d="M1101.453 686.4l-4.126 34.21h-1.353l4.126-34.21z" class="cls-4" transform="translate(-1077.738 -647.96)"/>
                    <path id="Trazado_24" d="M1056.186 686.4l-.464 3.847-3.662 30.362h-1.353l3.68-30.513.446-3.7z" class="cls-4" transform="translate(-1050.706 -647.96)"/>
                    <path id="Trazado_25" d="M1101.453 720.611h-1.353l-.571-4.732-.677-5.61-2.226-18.452-.653-5.416h1.354l.672 5.571 1.53 12.687.677 5.61z" class="cls-4" transform="translate(-1077.738 -647.96)"/>
                    <path id="Trazado_26" d="M1146.719 720.611h-1.353l-3.2-26.553-.923-7.657h1.354l.941 7.8z" class="cls-4" transform="translate(-1104.77 -647.96)"/>
                    <g id="Grupo_7" transform="translate(4.192 15.573)">
                        <path id="Rectángulo_1" d="M0 0H1.353V20.693H0z" class="cls-4"/>
                        <path id="Rectángulo_2" d="M0 0H1.353V20.693H0z" class="cls-4" transform="translate(18.39)"/>
                    </g>
                    <path id="Trazado_27" d="M1118.445 681h-18.594a1.088 1.088 0 0 1 1.088 1.087 1.088 1.088 0 0 1-1.088 1.088h18.594a1.088 1.088 0 0 0 1.088-1.088 1.087 1.087 0 0 0-1.088-1.087z" class="cls-4" transform="translate(-1080.054 -644.735)"/>
                    <path id="Trazado_28" d="M1075.527 682.089a1.087 1.087 0 0 0-1.088-1.087h-16.055a1.087 1.087 0 0 0-1.087 1.087 1.087 1.087 0 0 0 1.087 1.088h16.055a1.088 1.088 0 0 0 1.088-1.088z" class="cls-5" transform="translate(-1054.642 -644.735)"/>
                    <rect id="Rectángulo_3" width="24.986" height="15.573" class="cls-4" rx="3.763" transform="translate(1.571)"/>
                    <path id="Trazado_29" d="M1061.641 686.4l-.464 3.847-1.335-.151.446-3.7z" class="cls-6" transform="translate(-1056.162 -647.96)"/>
                    <path id="Trazado_30" d="M1097.327 686.4l.672 5.571-1.372-.155-.653-5.416z" class="cls-6" transform="translate(-1077.738 -647.96)"/>
                    <path id="Trazado_31" d="M1143.535 694.206l-1.371-.148-.923-7.657h1.354z" class="cls-6" transform="translate(-1104.77 -647.96)"/>
                    <path id="Trazado_32" d="M1061.113 629.632h1.354v2.858l-1.354-.15z" class="cls-7" transform="translate(-1056.921 -614.059)"/>
                    <path id="Trazado_33" d="M1108.118 629.632v4.894l-1.353-.15v-4.744z" class="cls-7" transform="translate(-1084.183 -614.059)"/>
                </g>
                <g id="Grupo_16" transform="translate(3.475)">
                    <path id="Trazado_42" d="M1149.02 693.675l-1.376-.188-1.3-10.8h1.354z" class="cls-14" transform="translate(-1111.291 -641.089)"/>
                    <path id="Trazado_44" d="M1132.743 589.193l4.7 9.655h-6.37z" class="cls-8" transform="translate(-1102.173 -585.26)"/>
                    <path id="Trazado_46" d="M1113.629 749.526v3.848l6.977 2.449v-6.3z" class="cls-8" transform="translate(-1091.757 -681.409)"/>
                    <path id="Trazado_1084" d="M1113.629 749.526v4.427l6.98 2.369v-6.8z" class="cls-8" transform="translate(-1078.06 -681.409)"/>
                    <path id="Trazado_47" d="M1083.093 579.43l4.09 1.752a5.81 5.81 0 0 1 2.807 2.7l-1.758 9.136.429 15.13h-25.789l3.532-14.234-6.618-7.6h-.452a5.935 5.935 0 0 1 3.649-5.477l3.421-1.409s12.085 9.211 16.689.002z" class="cls-53" transform="translate(-1059.333 -579.43)"/>
                    <path id="Trazado_51" d="M1102.2 650.721v.264a11.993 11.993 0 0 0 11.993 12h5.571l.771 27.536h6.98l5.147-32.832a6.035 6.035 0 0 0-5.962-6.97z" class="cls-8" transform="translate(-1084.931 -622.003)"/>
                    <path id="Trazado_53" d="M1138.266 665.419l.76 6.345h-4.571z" class="cls-18" transform="translate(-1104.193 -630.78)"/>
                    <path id="Trazado_54" d="M1068.113 650.721v.264a11.993 11.993 0 0 0 11.993 12h5.572l.771 27.536h6.981l5.147-32.832a6.035 6.035 0 0 0-5.962-6.97z" class="cls-8" transform="translate(-1064.576 -622.003)"/>
                    <path id="Trazado_55" d="M1059.949 596.336v16.377a4.283 4.283 0 0 0 4.281 4.159h14.917l1-3.489-13.158-2.168-.093-7.117z" class="cls-8" transform="translate(-1059.701 -589.526)"/>
                    <path id="Trazado_56" d="M1064.378 639.611a2.207 2.207 0 0 1-.784 1.689 4.287 4.287 0 0 1-3.221-2.985 2.212 2.212 0 0 1 4 1.3z" class="cls-10" transform="translate(-1059.954 -614.048)"/>
                    <path id="Trazado_57" d="M1077.2 615.6l2.02 7.435-1.927-.318-.093-7.117" class="cls-50" transform="translate(-1070.002 -601.031)"/>
                    <path id="Trazado_58" d="M1102.044 637.9l-2.352 3.792h3.188l1-3.489z" class="cls-13" transform="translate(-1083.434 -614.347)"/>
                    <path id="Trazado_59" d="M1119.693 613.161h-19.451a1.853 1.853 0 0 0-1.781 1.342l-3.564 12.416h-7.887a.686.686 0 1 0 0 1.372h30.8l3.665-12.766a1.853 1.853 0 0 0-1.782-2.364z" class="cls-20" transform="translate(-1075.451 -599.573)"/>
                    <ellipse id="Elipse_5" cx="1.054" cy=".722" class="cls-12" rx="1.054" ry=".722" transform="rotate(-84.95 28.736 -6.568)"/>
                    <path id="Trazado_61" d="M1063.528 587.838a1.957 1.957 0 0 1-3.723.842 5.934 5.934 0 0 1 1.636-2.794h.13a1.957 1.957 0 0 1 1.957 1.952z" class="cls-50" transform="translate(-1059.615 -583.282)"/>
                    <path id="Trazado_62" d="M1130.617 586.157a1.956 1.956 0 0 1-2.823-2.533l.138.062a5.808 5.808 0 0 1 2.685 2.471z" class="cls-50" transform="translate(-1100.082 -581.935)"/>
                    <path id="Trazado_1080" d="M1068.113 650.721v.264a11.993 11.993 0 0 0 11.993 12h17.711l.759-5.3a6.035 6.035 0 0 0-5.962-6.97z" class="cls-53" transform="translate(-1064.576 -622.003)"/>
                    <path id="Trazado_1081" d="M1102.2 650.721v.264a11.993 11.993 0 0 0 11.993 12h17.759l.711-5.3a6.035 6.035 0 0 0-5.962-6.97z" class="cls-53" transform="translate(-1084.931 -622.003)"/>
                    <path id="Trazado_1082" d="M1881.566 759.876l-5.839-2.578.3 1.486-7.184-2.317v2.114a2.126 2.126 0 0 0 .974 1.8l.618 1.814a.381.381 0 0 0 .359.262.386.386 0 0 0 .381-.391v-1.18l4.91 1.571h4.966a1.326 1.326 0 0 0 1.307-1.343 1.344 1.344 0 0 0-.792-1.238z" class="cls-48" transform="translate(-1846.884 -684.346)"/>
                    <path id="Trazado_1083" d="M1914.027 759.876l-5.84-2.578.3 1.486-7.183-2.317v2.114a2.126 2.126 0 0 0 .973 1.8l.618 1.814a.379.379 0 0 0 .74-.129v-1.18l4.91 1.571h4.967a1.326 1.326 0 0 0 1.308-1.343 1.345 1.345 0 0 0-.793-1.238z" class="cls-48" transform="translate(-1865.805 -683.943)"/>
                </g>
            </g>
        </g>
        <g id="Grupo_366" transform="translate(17.905 70.514)">
            <circle id="Elipse_99-2" cx="2.196" cy="2.196" r="2.196" class="cls-11" transform="rotate(-22.5 7.569 -15.968)"/>
            <circle id="Elipse_100-2" cx="2.196" cy="2.196" r="2.196" class="cls-11" transform="rotate(-22.5 4.225 .84)"/>
            <path id="Trazado_824-2" fill="#4d3131" d="M2217.219 3386.987a2.531 2.531 0 0 0-2.513 2.257 1.942 1.942 0 0 0-1.662 0 2.531 2.531 0 1 0 .012.365 1.634 1.634 0 0 1 1.638 0 2.527 2.527 0 1 0 2.525-2.623zm-6.687 4.723a2.2 2.2 0 1 1 2.2-2.2 2.2 2.2 0 0 1-2.2 2.2zm6.687 0a2.2 2.2 0 1 1 2.2-2.2 2.2 2.2 0 0 1-2.2 2.2z" transform="translate(-2207.662 -3386.226)"/>
        </g>
    </g>
</svg>
