<svg xmlns="http://www.w3.org/2000/svg" xmlns:xlink="http://www.w3.org/1999/xlink" viewBox="0 0 1661.39 1717.23"><defs><style>.cls-1{fill:none;}.cls-2{isolation:isolate;}.cls-3{fill:#f5f7fa;}.cls-4{fill:#e1342b;}.cls-5{clip-path:url(#clip-path);}.cls-6{fill:#fdfeff;}.cls-7{clip-path:url(#clip-path-2);}.cls-8{fill:url(#linear-gradient);}.cls-9{fill:#bd494b;}.cls-10{fill:#dd595f;}.cls-11{fill:#e96370;}.cls-12{fill:#d8dee8;}.cls-13{fill:url(#linear-gradient-2);}.cls-14{mix-blend-mode:screen;}.cls-14,.cls-17{opacity:0.3;}.cls-15,.cls-17,.cls-19,.cls-22{fill:#fff;}.cls-16{fill:#997b7b;}.cls-17,.cls-19{mix-blend-mode:soft-light;}.cls-18{fill:#b09b9b;}.cls-19,.cls-22{opacity:0.5;}.cls-20,.cls-21,.cls-23,.cls-24{mix-blend-mode:multiply;opacity:0.6;}.cls-20{fill:url(#linear-gradient-3);}.cls-21{fill:url(#linear-gradient-4);}.cls-23{fill:url(#linear-gradient-5);}.cls-24{fill:url(#linear-gradient-6);}.cls-25{fill:url(#linear-gradient-7);}.cls-26{fill:url(#linear-gradient-8);}.cls-27{fill:url(#linear-gradient-9);}.cls-28{fill:url(#linear-gradient-10);}.cls-29{fill:#a54b4b;}.cls-30{fill:#d73636;}</style><clipPath id="clip-path" transform="translate(-419.61 -228.27)"><path class="cls-1" d="M1403.25,1441c18.85,64,35.39,129.85,54,194.38,37.84,4.12,82.44,8,92.12-38.35,13.45-64.49,126.66-86.37,179.83-86.2,65.81.21,208.09-12.54,180.67-105.34-22.83-77.26-67.53-115.81,19.48-161.83s123-111.49,85.15-193.25c-39.84-86.05,46.55-198.77-34-255.24-140.26-98.4-254.4,145.44-248.69,280.81s-67.37,104.13-155,128.32c-119.66,33-21.64,145.36-66.75,197C1474.75,1441.73,1448,1433.43,1403.25,1441Z"/></clipPath><clipPath id="clip-path-2" transform="translate(-419.61 -228.27)"><path class="cls-1" d="M1628.1,1452.77Q1550,1442.26,1472,1428.15c-.83.77-19.25-112,33.71-171.92,104.73-116.09,32-218.25,10.85-279-33.68-85.69-18.22-190.53,76.83-172.08,92.58,15.75,104.27-174.59,86.55-320.9-14.48-71.13,51.75-158.47,118.64-179.06,68.27-22.73,137.22,21.27,159.91,163.14,33.73,164.18-85.16,264.88-128.62,347.92-42.78,81.53,59.81,145.82-21.25,218.58-68.13,64.61-154.43,111.5-121.69,191.21C1720.57,1304.79,1713.54,1369.63,1628.1,1452.77Z"/></clipPath><linearGradient id="linear-gradient" x1="1749.24" y1="420.21" x2="1375.97" y2="1481.06" gradientTransform="matrix(-0.87, -0.49, -0.49, 0.87, 3531.5, 813.14)" gradientUnits="userSpaceOnUse"><stop offset="0" stop-color="#f28e86"/><stop offset="1" stop-color="#e874aa"/></linearGradient><linearGradient id="linear-gradient-2" x1="1203.1" y1="414.06" x2="1213.85" y2="425.9" gradientTransform="matrix(1, 0, 0, 1, 0, 0)" xlink:href="#linear-gradient"/><linearGradient id="linear-gradient-3" x1="426.45" y1="228.08" x2="810.45" y2="228.08" gradientTransform="matrix(1, 0, 0, 1, 0, 0)" xlink:href="#linear-gradient"/><linearGradient id="linear-gradient-4" x1="534.32" y1="496.58" x2="657.81" y2="496.58" gradientTransform="matrix(1, 0, 0, 1, 0, 0)" xlink:href="#linear-gradient"/><linearGradient id="linear-gradient-5" x1="533.58" y1="766.71" x2="657.21" y2="766.71" gradientTransform="matrix(1, 0, 0, 1, 0, 0)" xlink:href="#linear-gradient"/><linearGradient id="linear-gradient-6" x1="532.84" y1="1037.42" x2="656.6" y2="1037.42" gradientTransform="matrix(1, 0, 0, 1, 0, 0)" xlink:href="#linear-gradient"/><linearGradient id="linear-gradient-7" x1="9402.79" y1="-1458.37" x2="9550.13" y2="-1365.37" gradientTransform="matrix(0.1, 0.99, 0.99, -0.1, 2036.36, -7695.88)" gradientUnits="userSpaceOnUse"><stop offset="0" stop-color="#ac336e"/><stop offset="1" stop-color="#7a2e3e"/></linearGradient><linearGradient id="linear-gradient-8" x1="9517.11" y1="-1448.79" x2="9415.7" y2="-1434.15" xlink:href="#linear-gradient-7"/><linearGradient id="linear-gradient-9" x1="9452.04" y1="-2055.78" x2="9402.02" y2="-1556.82" gradientTransform="matrix(0.1, 0.99, 0.99, -0.1, 2036.36, -7695.88)" gradientUnits="userSpaceOnUse"><stop offset="0" stop-color="#fcc345"/><stop offset="1" stop-color="#ee7058"/></linearGradient><linearGradient id="linear-gradient-10" x1="9435.48" y1="-2099.39" x2="9431.3" y2="-1919.64" xlink:href="#linear-gradient-7"/></defs><g class="cls-2"><g id="Capa_1" data-name="Capa 1"><path class="cls-3" d="M924.93,245.84A421.61,421.61,0,0,0,568.54,738.46c64.51,353.45-524.62,1077.67,275.22,1184.28s1210.74-181.5,1229.86-443.81C2091.85,1228.92,2165.17,72.8,924.93,245.84Z" transform="translate(-419.61 -228.27)"/><path class="cls-4" d="M1531.1,1612.11c-9.58-1.51-29.11-13.24-32.93-18.4-25.48-34.31-77.35-95.45-73.45-140.46.66-7.69,35.27-13.89,40.28-20.83,21.11-9.3,29-11.22,44.72-29.93,46.4-55.22-53-164,67.07-198,87.91-24.9,160.71,7.16,155.06-128.41s108.43-379.19,248.72-280.86c80.5,56.42-5.91,169.2,34,255.23,37.87,81.76,1.85,147.21-85.16,193.26s-42.27,84.51-19.48,161.84c27.38,92.89-114.7,105.3-180.78,105.44C1675.89,1511.05,1540.46,1547.23,1531.1,1612.11Z" transform="translate(-419.61 -228.27)"/><g class="cls-5"><path class="cls-6" d="M1462.54,1527.41l-.86-1.91c145.41-66,266.69-174.71,350.72-314.46,80-133,125.31-291.35,131.14-458l2.1.08c-5.85,167-51.3,325.74-131.44,459C1730,1352.24,1608.34,1461.26,1462.54,1527.41Z" transform="translate(-419.61 -228.27)"/><path class="cls-6" d="M1925.68,1442.83c-81.81-29.37-219.87-33.9-307.76-10.13l-.55-2c88.25-23.87,226.87-19.31,309,10.17Z" transform="translate(-419.61 -228.27)"/><path class="cls-6" d="M1519.06,1501l-1.36-1.59c36-30.73,55.07-78.48,56.69-141.92,1.19-46.51-6.86-100.22-23.92-159.64l2-.58c17.11,59.63,25.19,113.55,24,160.28C1574.84,1421.58,1555.52,1469.85,1519.06,1501Z" transform="translate(-419.61 -228.27)"/><path class="cls-6" d="M1824.84,1192.77l-1.44-1.53c64.87-61.42,157.71-75.77,224.17-77l0,2.1C1981.52,1117.55,1889.22,1131.8,1824.84,1192.77Z" transform="translate(-419.61 -228.27)"/><path class="cls-6" d="M1905.37,1004.78l-2.09-.21c4.31-43-.24-130.64-79.11-234.87l1.67-1.27C1905.14,873.23,1909.7,961.49,1905.37,1004.78Z" transform="translate(-419.61 -228.27)"/></g><g class="cls-7"><path class="cls-8" d="M1628.1,1452.77Q1550,1442.26,1472,1428.15c-.83.77-19.25-112,33.71-171.92,104.73-116.09,32-218.25,10.85-279-33.35-85.63-17.49-179,70-181.43,97.07-4.61,112.72-165.55,93.34-311.55-14.48-71.13,51.75-158.47,118.64-179.06,68.27-22.73,137.22,21.27,159.91,163.14,33.73,164.18-85.16,264.88-128.62,347.92-42.78,81.53,59.81,145.82-21.25,218.58-68.13,64.61-154.43,111.5-121.69,191.21C1720.57,1304.79,1713.54,1369.63,1628.1,1452.77Z" transform="translate(-419.61 -228.27)"/><path class="cls-6" d="M1558.66,1460.32h-2.09c0-1,46.73-239.28,129.59-471.71,11.37-37.61,23.76-75.54,35.75-112.23,32.08-98.24,65.27-199.83,80.38-300.76,16.9-112.82,9.15-214.16-23.67-309.79l2-.68c32.94,96,40.71,197.62,23.76,310.78C1789.22,677,1756,778.7,1723.9,877c-12,36.68-24.37,74.6-35.75,112.23C1609.14,1210.91,1559.25,1452.9,1558.66,1460.32Z" transform="translate(-419.61 -228.27)"/><path class="cls-6" d="M1781.74,686.53l-1.57-1.38c57.17-65.1,126-157.46,162.94-207.07,29.74-39.91,29.93-39.87,31.15-39.69l-.29,2.07.15-1,.43.93c-1.51,1.07-14,17.8-29.76,39C1907.81,529,1839,621.37,1781.74,686.53Z" transform="translate(-419.61 -228.27)"/><path class="cls-6" d="M1798.2,598c-12.89-73.65-43.87-121.83-67.59-149.27-26.21-30.32-50.15-43.36-52.58-43.62a.82.82,0,0,0,.5-.16l-1.19-1.72c.52-.36,1.14-.28,2.55.31,6.45,2.71,30.6,17.4,56.14,48.36,32.16,39,54.37,89.39,64.23,145.74Z" transform="translate(-419.61 -228.27)"/><path class="cls-6" d="M1639.12,1140.54l-2.08-.22c7.33-68.76-9.56-142.42-50.23-218.93-21.21-39.9-48.11-78.91-80-116-2.3-2.69-3.12-3.64-3.37-4.07l1.8-1.07c.18.31,1.5,1.84,3.16,3.77,32,37.17,58.94,76.31,80.22,116.35C1629.53,997.3,1646.5,1071.36,1639.12,1140.54Z" transform="translate(-419.61 -228.27)"/><path class="cls-6" d="M1661.66,1068l-1.79-1.08c61.13-101.51,192.45-110.06,193.54-109.72l.79,1-.7,1-.34-1-.08,1h0C1851.35,959.23,1721.89,968,1661.66,1068Zm191.15-110.76.34,1Z" transform="translate(-419.61 -228.27)"/><path class="cls-6" d="M1566.86,1421.44l-2.09,0c.73-29.9-10.57-80.73-68.6-153-3.15-3.92-3.15-3.92-3.08-4.51l2.08.28-1-.14,1-.4c.17.29,1.34,1.76,2.71,3.46C1556.23,1339.84,1567.61,1391.19,1566.86,1421.44Z" transform="translate(-419.61 -228.27)"/><path class="cls-6" d="M1579.38,1365l-2-.56c6.31-22.81,31.7-67.67,130.82-111.78,1.37-.61,2.25-1,2.57-1.17l1,1.85c-.33.18-1.26.59-2.7,1.23C1610.7,1298.3,1585.59,1342.51,1579.38,1365Z" transform="translate(-419.61 -228.27)"/></g><path class="cls-9" d="M1679.94,1722.19c0,27.91-19.8,51.77-44.22,53.19l-941.95,55c-28,1.64-50.81-21.45-50.81-51.47V427.67c0-30,22.84-53.52,50.81-52.39l942,38.18c24.42,1,44.22,24.49,44.22,52.41Z" transform="translate(-419.61 -228.27)"/><path class="cls-10" d="M1707.6,1722.19c0,27.91-19.81,51.77-44.22,53.19l-942,55c-28,1.64-50.82-21.45-50.82-51.47V427.67c0-30,22.84-53.52,50.82-52.39l942,38.18c24.41,1,44.22,24.49,44.22,52.41Z" transform="translate(-419.61 -228.27)"/><path class="cls-11" d="M694.31,428.54V1777.59c0,16.05,12.16,28.36,27.12,27.52l745-42.21,197-11.15c13.08-.75,23.67-13.48,23.67-28.44V465.11c0-15-10.59-27.51-23.67-28l-204.08-7.92L721.43,400.54C706.47,400,694.31,412.49,694.31,428.54Z" transform="translate(-419.61 -228.27)"/><path class="cls-12" d="M1674,1665.13a10.68,10.68,0,0,1-10,10.6L720.67,1724c-6.27.32-11.38-4.27-11.38-10.22V428.56c0-5.95,5.11-10.61,11.38-10.37L1664,453.67a10.5,10.5,0,0,1,10,10.47Z" transform="translate(-419.61 -228.27)"/><path class="cls-9" d="M1303.11,1748.76l-191.56,10.54c-10.24.56-18.55-6.54-18.55-15.86v-.7c0-9.33,8.31-17.32,18.55-17.86l191.56-10.08c10-.52,18,6.5,18,15.67v.69C1321.13,1740.34,1313.07,1748.22,1303.11,1748.76Z" transform="translate(-419.61 -228.27)"/><path class="cls-13" d="M1217.78,419.8c0,5-4.39,8.82-9.8,8.61s-9.82-4.4-9.82-9.37,4.4-8.82,9.82-8.61S1217.78,414.84,1217.78,419.8Z" transform="translate(-419.61 -228.27)"/><g class="cls-14"><path class="cls-15" d="M1481.83,1602c-3.84-82.33,87.71-130.62,78.91-246.77-.79-10.48-9-100.37-81.32-161.29-65-54.71-119.56-34.13-239.79-77.77-84.27-30.58-179-65-217.32-134-76.09-137,141.34-273.83,96.84-451.19-12.75-50.82-48.76-113.11-143.85-178.16L745,343.52c-28-1.13-50.81,22.36-50.81,52.38V1747.13c0,30,22.84,53.1,50.81,51.47l858.25-50.09C1511.81,1695.66,1483.83,1644.89,1481.83,1602Z" transform="translate(-419.61 -228.27)"/></g><polygon class="cls-16" points="1187.01 1392.84 339.38 1455.35 343.93 174.86 1187.01 195.01 1187.01 1392.84"/><polygon class="cls-15" points="780.03 354.44 396.19 350.46 396.53 243.77 780.2 250.87 780.03 354.44"/><polygon class="cls-15" points="618.61 624.69 495.42 626.01 495.79 491.44 618.9 491.45 618.61 624.69"/><polygon class="cls-15" points="1091.31 555.06 658.09 557.69 658.23 491.26 1091.33 490.89 1091.31 555.06"/><polygon class="cls-15" points="618.01 893.6 494.68 897.63 495.05 762.77 618.3 760.09 618.01 893.6"/><polygon class="cls-15" points="1091.22 814.01 657.53 825.77 657.67 759.2 1091.24 749.71 1091.22 814.01"/><polygon class="cls-15" points="617.4 1163.1 493.94 1169.85 494.31 1034.69 617.7 1029.29 617.4 1163.1"/><polygon class="cls-15" points="1091.13 1073.5 656.98 1094.43 657.11 1027.72 1091.15 1009.06 1091.13 1073.5"/><path class="cls-17" d="M1268.19,1643.92l-508.74,37.53L763.77,401,1078,408.47c-61.44,105.69-136.42,316.8,78,514.67C1374,1124.22,1461.31,1431.65,1268.19,1643.92Z" transform="translate(-419.61 -228.27)"/><polygon class="cls-18" points="1216.34 123.98 1216.34 1321.82 877.91 1346.8 369.18 1384.33 373.49 103.84 687.75 111.35 1216.34 123.98"/><path class="cls-19" d="M1297.52,1556.58l-508.74,37.53L793.1,313.62l314.25,7.51c-61.44,105.69-136.42,316.8,78,514.67C1403.28,1036.88,1490.64,1344.31,1297.52,1556.58Z" transform="translate(-419.61 -228.27)"/><polygon class="cls-20" points="810.28 283.42 426.45 279.44 426.79 172.74 810.45 179.85 810.28 283.42"/><polygon class="cls-21" points="657.51 562.54 534.32 563.86 534.69 429.29 657.81 429.31 657.51 562.54"/><polygon class="cls-22" points="1130.21 492.91 696.99 495.55 697.13 429.12 1130.23 428.75 1130.21 492.91"/><polygon class="cls-23" points="656.91 831.46 533.58 835.49 533.95 700.62 657.21 697.94 656.91 831.46"/><polygon class="cls-22" points="1130.12 751.86 696.43 763.63 696.57 697.06 1130.14 687.56 1130.12 751.86"/><polygon class="cls-24" points="656.3 1100.95 532.84 1107.7 533.21 972.54 656.6 967.15 656.3 1100.95"/><polygon class="cls-22" points="1130.03 1011.35 695.88 1032.28 696.01 965.57 1130.05 946.92 1130.03 1011.35"/><path class="cls-25" d="M1984.86,1822.11q10.41-31.78-6.21-60.82l-842.17,85.89,6.2,60.82Z" transform="translate(-419.61 -228.27)"/><path class="cls-26" d="M1986.32,1779.42a69.2,69.2,0,0,1,2.42,22.86l-848,86.49-2.33-22.88Z" transform="translate(-419.61 -228.27)"/><path class="cls-27" d="M1142.68,1908c9.67-21.24,7.74-41.52-6.2-60.82l-187.74,47.87a2,2,0,0,0,.4,4Z" transform="translate(-419.61 -228.27)"/><path class="cls-28" d="M948.74,1895.05l73-18.61a53.52,53.52,0,0,1,2.69,26.07l-75.27-3.5A2,2,0,0,1,948.74,1895.05Z" transform="translate(-419.61 -228.27)"/><path class="cls-29" d="M946.67,1745.94c21,10.64,47.28.87,58.79-21.81s3.88-49.71-17.08-60.34c-1.08-.55-2.19-1-3.3-1.46a266.41,266.41,0,0,0,8.8-37.86c1.2,0,2.4,0,3.63-.13,23.9-2.14,42.87-24.1,42.37-49.07s-20.28-43.48-44.19-41.34c-1.25.11-2.47.3-3.69.52a243.36,243.36,0,0,0-10.24-36.15c1.1-.65,2.2-1.31,3.26-2.06,20.45-14.33,27-42.61,14.61-63.16s-39-25.61-59.46-11.28c-1,.73-2,1.53-3,2.33a214.77,214.77,0,0,0-26.52-24.75c.68-1.11,1.34-2.23,1.93-3.4,11.52-22.69,26.57-47.47,5.46-57.78-48.85-23.85-69.81-3.43-81.33,19.25-.6,1.18-1.11,2.37-1.61,3.57a216.94,216.94,0,0,0-35.63-6.81c.07-1.26.13-2.52.1-3.8-.5-25,6.91-38.48-17.08-38.94-52.33-1-70,21.69-69.48,46.66,0,1.3.14,2.58.27,3.84A242.89,242.89,0,0,0,678,1375.05c-.55-1.12-1.11-2.22-1.76-3.3-12.39-20.55-39-25.6-59.46-11.27s-27,42.6-14.6,63.16c.63,1,1.33,2,2,3a266.82,266.82,0,0,0-25.37,29.44c-1-.63-2-1.26-3.13-1.81-21-10.63-47.27-.87-58.79,21.82s-3.87,49.7,17.08,60.34c1.09.55,2.19,1,3.31,1.46a264.74,264.74,0,0,0-8.8,37.86c-1.2,0-2.41,0-3.63.13C501,1578,482,1600,482.54,1625s20.29,43.48,44.19,41.35c1.25-.11,2.48-.31,3.7-.53a244.67,244.67,0,0,0,10.23,36.16c-1.1.64-2.19,1.31-3.26,2.06-20.45,14.32-27,42.6-14.6,63.16s53.39,30.1,73.84,15.78c1-.74-12.35-6-11.38-6.84a216.28,216.28,0,0,0,26.52,24.76c-.67,1.1-1.33,2.22-1.93,3.4-11.52,22.69-3.87,49.7,17.08,60.34s47.28.87,58.79-21.82c.6-1.17,1.12-2.37,1.61-3.56A215.79,215.79,0,0,0,723,1846c-.08,1.26-.13,2.52-.11,3.8.5,25,20.28,43.48,44.19,41.35s42.87-24.1,42.37-49.06c0-1.31-.13-2.58-.26-3.85a244.45,244.45,0,0,0,35.23-13.07c.54,1.11,1.11,2.22,1.76,3.29,12.38,20.56,39,25.61,59.45,11.28s27-42.61,14.61-63.17c-.64-1-1.33-2-2-3a266,266,0,0,0,25.38-29.45C944.56,1744.77,945.59,1745.39,946.67,1745.94Zm-261.18,3.32c-76.07-38.63-103.84-136.71-62-219.08S760.86,1412.35,836.94,1451s103.83,136.71,62,219.08S761.56,1787.88,685.49,1749.26Z" transform="translate(-419.61 -228.27)"/><path class="cls-29" d="M997.51,1624.34c23.9-2.14,42.87-24.1,42.37-49.07s-20.28-43.48-44.19-41.34c-1.25.11-2.47.3-3.69.52a243.36,243.36,0,0,0-10.24-36.15c1.1-.65,2.2-1.31,3.26-2.06,20.45-14.33,45.76-49,31.33-68.13-27.39-36.39-55.73-20.64-76.18-6.31-1,.73-2,1.53-3,2.33a216.42,216.42,0,0,0-26.53-24.76c.68-1.1,1.34-2.22,1.93-3.39a47.57,47.57,0,0,0,2.68-37.54q-29.62,52.15-58.37,104.79c60.68,44.47,80,132.1,42.07,206.82-32.14,63.31-96,98.86-158.43,94.4-2.79,7.22-5.52,14.48-8.5,21.63-8.09,19.4-17.28,38.4-26.48,57.37q8.69,1.63,17.43,2.56c-.08,1.26-.13,2.52-.11,3.8.5,25,15.66,46.18,59,43.88,24-1.27,28.08-26.63,27.58-51.59,0-1.31-.13-2.58-.26-3.85a244.45,244.45,0,0,0,35.23-13.07c.54,1.11,1.11,2.22,1.76,3.29,12.38,20.56,55.35,29.29,75.8,15s10.64-46.29-1.74-66.85c-.64-1-1.33-2-2-3a266,266,0,0,0,25.38-29.45c1,.64,2,1.26,3.12,1.81,21,10.64,47.28.87,58.8-21.82s3.87-49.7-17.09-60.33a35.64,35.64,0,0,0-3.3-1.46,266.41,266.41,0,0,0,8.8-37.86C995.08,1624.46,996.28,1624.44,997.51,1624.34Z" transform="translate(-419.61 -228.27)"/><path class="cls-30" d="M969.21,1757.76c20.95,10.63,47.27.87,58.79-21.82s3.87-49.7-17.08-60.34c-1.09-.55-2.19-1-3.31-1.46a264.74,264.74,0,0,0,8.8-37.86c1.2,0,2.41,0,3.63-.13,23.9-2.13,42.88-24.1,42.38-49.06s-20.29-43.48-44.19-41.35c-1.25.11-2.48.31-3.7.53a244.67,244.67,0,0,0-10.23-36.16c1.1-.64,2.19-1.31,3.26-2.06,20.45-14.32,27-42.6,14.6-63.16s-39-25.6-59.45-11.27c-1.05.73-2,1.52-3,2.33a216.28,216.28,0,0,0-26.52-24.76c.67-1.1,1.33-2.22,1.93-3.4,11.52-22.69,3.87-49.7-17.08-60.34s-47.28-.87-58.8,21.82c-.59,1.17-1.11,2.37-1.6,3.56A215.79,215.79,0,0,0,822,1366c.08-1.26.13-2.52.11-3.8-.5-25-20.29-43.48-44.19-41.35S735,1345,735.54,1369.94c0,1.31.13,2.58.26,3.85a244.45,244.45,0,0,0-35.23,13.07c-.54-1.11-1.11-2.22-1.76-3.29-12.38-20.56-39-25.61-59.45-11.28s-27,42.61-14.61,63.16c.64,1.06,1.33,2,2,3a266,266,0,0,0-25.38,29.45c-1-.64-2-1.26-3.12-1.81-21-10.64-47.28-.87-58.8,21.82s-3.87,49.7,17.08,60.33c1.09.56,2.2,1,3.31,1.46a266.41,266.41,0,0,0-8.8,37.86c-1.2,0-2.4,0-3.63.13-23.9,2.14-42.87,24.1-42.37,49.07s20.28,43.47,44.19,41.34c1.25-.11,2.47-.3,3.69-.52a243.36,243.36,0,0,0,10.24,36.15c-1.1.65-2.2,1.31-3.26,2.06-20.46,14.33-27,42.61-14.61,63.16s39,25.61,59.46,11.28c1-.73,2-1.53,3-2.33a215.57,215.57,0,0,0,26.53,24.75c-.68,1.11-1.34,2.23-1.93,3.4-11.52,22.69-3.87,49.71,17.08,60.34s47.27.87,58.79-21.81c.6-1.18,1.11-2.37,1.6-3.57a217.26,217.26,0,0,0,35.64,6.81c-.07,1.26-.13,2.52-.1,3.8.5,25,20.28,43.48,44.18,41.35s42.88-24.1,42.38-49.07c0-1.3-.14-2.58-.27-3.84A242.89,242.89,0,0,0,866.92,1837c.55,1.12,1.11,2.22,1.76,3.3,12.39,20.55,39,25.6,59.46,11.27s27-42.6,14.6-63.16c-.63-1.05-1.33-2-2-3A265.84,265.84,0,0,0,966.08,1756C967.09,1756.58,968.12,1757.2,969.21,1757.76ZM708,1761.07C632,1722.45,604.19,1624.36,646,1542s137.39-117.83,213.46-79.2,103.84,136.7,62,219.07S784.1,1799.69,708,1761.07Z" transform="translate(-419.61 -228.27)"/><path class="cls-29" d="M715.89,1201.72c13.13,6.67,29.63.55,36.85-13.67s2.42-31.15-10.71-37.82a21,21,0,0,0-2.07-.91,166.15,166.15,0,0,0,5.51-23.73c.76,0,1.51,0,2.28-.09,15-1.33,26.87-15.1,26.56-30.75s-12.71-27.25-27.7-25.91c-.78.07-1.55.19-2.31.33a152.52,152.52,0,0,0-6.42-22.66c.69-.41,1.38-.82,2-1.29,12.81-9,16.91-26.71,9.15-39.59s-24.45-16-37.26-7.07c-.66.46-1.28,1-1.89,1.46a135.87,135.87,0,0,0-16.62-15.51c.42-.7.83-1.4,1.21-2.14,7.22-14.21,16.65-29.75,3.42-36.21-30.62-14.94-43.76-2.15-51,12.07-.37.74-.69,1.48-1,2.23a135.59,135.59,0,0,0-22.34-4.26c0-.79.08-1.58.07-2.38-.32-15.65,4.33-24.12-10.71-24.41-32.8-.64-43.86,13.59-43.55,29.24,0,.82.09,1.62.17,2.41a152.4,152.4,0,0,0-22.08,8.2c-.34-.7-.7-1.39-1.1-2.07-7.77-12.88-24.45-16.05-37.27-7.07s-16.92,26.71-9.15,39.59c.39.66.83,1.28,1.27,1.89a167.39,167.39,0,0,0-15.9,18.45c-.64-.4-1.28-.78-2-1.13-13.13-6.67-29.63-.55-36.85,13.67s-2.43,31.15,10.7,37.82c.69.35,1.38.64,2.08.92a166.92,166.92,0,0,0-5.52,23.73c-.75,0-1.5,0-2.27.08-15,1.33-26.88,15.1-26.56,30.75s12.71,27.25,27.69,25.91c.79-.07,1.56-.19,2.32-.33a153,153,0,0,0,6.42,22.67c-.69.4-1.38.82-2.05,1.29-12.82,9-16.92,26.7-9.15,39.58s33.46,18.87,46.28,9.89c.66-.46-7.74-3.78-7.13-4.28A135.22,135.22,0,0,0,506,1236.14c-.42.69-.84,1.39-1.21,2.13-7.22,14.22-2.43,31.15,10.71,37.81s29.63.55,36.85-13.67c.37-.74.69-1.48,1-2.23a135.59,135.59,0,0,0,22.34,4.26c0,.79-.08,1.58-.07,2.39.31,15.64,12.71,27.25,27.7,25.91s26.87-15.1,26.56-30.75c0-.82-.09-1.62-.17-2.41a151.24,151.24,0,0,0,22.08-8.2c.34.7.7,1.4,1.1,2.07,7.76,12.88,24.45,16,37.27,7.07s16.91-26.71,9.15-39.59c-.4-.66-.83-1.28-1.28-1.89a166.41,166.41,0,0,0,15.91-18.45A22.19,22.19,0,0,0,715.89,1201.72Zm-163.7,2.08c-47.68-24.21-65.08-85.68-38.87-137.31s86.11-73.85,133.79-49.65,65.08,85.69,38.87,137.31S599.87,1228,552.19,1203.8Z" transform="translate(-419.61 -228.27)"/><path class="cls-29" d="M747.75,1125.5c15-1.33,26.87-15.1,26.56-30.75s-12.71-27.25-27.7-25.91c-.78.07-1.55.19-2.31.33a152.52,152.52,0,0,0-6.42-22.66c.69-.41,1.38-.82,2-1.29,12.81-9,28.67-30.68,19.63-42.7-17.16-22.81-34.93-12.94-47.74-4-.66.46-1.28,1-1.89,1.46a136,136,0,0,0-16.62-15.52c.42-.69.83-1.39,1.21-2.13a29.84,29.84,0,0,0,1.68-23.52q-18.57,32.68-36.59,65.67c38,27.88,50.14,82.8,26.37,129.63-20.15,39.68-60.2,62-99.3,59.17-1.75,4.53-3.46,9.08-5.33,13.56-5.07,12.16-10.83,24.06-16.59,36,3.62.68,7.27,1.22,10.92,1.6,0,.79-.08,1.58-.07,2.39.31,15.64,9.82,28.94,37,27.5,15-.8,17.6-16.69,17.29-32.34,0-.82-.09-1.62-.17-2.41a151.24,151.24,0,0,0,22.08-8.2c.34.7.7,1.4,1.1,2.07,7.77,12.88,34.69,18.36,47.51,9.38s6.67-29-1.09-41.9c-.4-.66-.83-1.28-1.28-1.89a166.41,166.41,0,0,0,15.91-18.45,22.19,22.19,0,0,0,2,1.13c13.13,6.67,29.63.55,36.85-13.67s2.42-31.15-10.71-37.82a21,21,0,0,0-2.07-.91,166.15,166.15,0,0,0,5.51-23.73C746.23,1125.58,747,1125.57,747.75,1125.5Z" transform="translate(-419.61 -228.27)"/><path class="cls-30" d="M730,1203.33c13.13,6.66,29.63.54,36.85-13.68s2.43-31.15-10.7-37.82c-.68-.34-1.38-.63-2.07-.91a167.51,167.51,0,0,0,5.51-23.73c.75,0,1.51,0,2.27-.08,15-1.34,26.88-15.1,26.56-30.75s-12.71-27.25-27.69-25.92c-.79.07-1.55.2-2.32.33a152.84,152.84,0,0,0-6.41-22.66c.69-.4,1.37-.82,2-1.29,12.82-9,16.92-26.7,9.15-39.59s-24.44-16-37.26-7.06c-.66.46-1.28,1-1.89,1.46a134.45,134.45,0,0,0-16.62-15.52c.42-.69.84-1.39,1.21-2.13,7.22-14.22,2.43-31.15-10.7-37.82s-29.63-.54-36.85,13.68c-.38.73-.7,1.48-1,2.23a134.56,134.56,0,0,0-22.34-4.26c0-.79.09-1.59.07-2.39-.31-15.65-12.71-27.25-27.7-25.91s-26.87,15.1-26.55,30.75c0,.82.08,1.61.16,2.41a153.23,153.23,0,0,0-22.08,8.19c-.34-.69-.69-1.39-1.1-2.06-7.76-12.89-24.45-16-37.27-7.07s-16.91,26.71-9.15,39.59c.4.66.83,1.28,1.28,1.89a165.5,165.5,0,0,0-15.91,18.45,22.19,22.19,0,0,0-2-1.13c-13.13-6.67-29.63-.55-36.85,13.67s-2.42,31.15,10.71,37.82c.68.34,1.37.63,2.07.91a166.15,166.15,0,0,0-5.51,23.73c-.76,0-1.51,0-2.28.08-15,1.34-26.87,15.11-26.56,30.76s12.72,27.24,27.7,25.91c.78-.07,1.55-.19,2.32-.33a151.3,151.3,0,0,0,6.41,22.66c-.69.4-1.38.82-2.05,1.29-12.81,9-16.91,26.71-9.15,39.59s24.45,16.05,37.27,7.07c.65-.46,1.27-1,1.88-1.46a135.87,135.87,0,0,0,16.62,15.51c-.42.69-.83,1.4-1.2,2.13-7.22,14.22-2.43,31.15,10.7,37.82s29.63.55,36.85-13.67c.37-.74.7-1.49,1-2.24a135.5,135.5,0,0,0,22.33,4.27c0,.79-.08,1.58-.06,2.38.31,15.65,12.71,27.25,27.69,25.92s26.87-15.11,26.56-30.75c0-.82-.08-1.62-.17-2.42A152.35,152.35,0,0,0,665.9,1253c.35.7.7,1.39,1.11,2.06,7.76,12.89,24.44,16,37.26,7.07s16.92-26.7,9.15-39.59c-.39-.66-.83-1.27-1.27-1.88a165.53,165.53,0,0,0,15.9-18.46C728.69,1202.59,729.33,1203,730,1203.33Zm-163.7,2.07c-47.68-24.2-65.08-85.68-38.87-137.31s86.11-73.85,133.79-49.64,65.08,85.68,38.87,137.31S614,1229.61,566.31,1205.4Z" transform="translate(-419.61 -228.27)"/></g></g></svg>