<svg xmlns="http://www.w3.org/2000/svg" width="211.003" height="926.59" viewBox="0 0 211.003 926.59">
    <defs>
        <style>
            .cls-1,.cls-3,.cls-5{fill:none}.cls-1,.cls-3{stroke:#3a4a54}.cls-1,.cls-5{stroke-linecap:round}.cls-1{stroke-width:16px}.cls-3,.cls-5{stroke-width:10px}.cls-5{stroke:#de1920}
        </style>
    </defs>
    <g id="Grupo_746" transform="translate(-1537.706 -14.5)">
        <g id="Grupo_743" transform="translate(8 -116)">
            <path id="Línea_41" d="M0 0L0 202" class="cls-1" transform="translate(1665.5 138.5)"/>
            <path id="Línea_47" d="M0 0L0 141" class="cls-1" transform="translate(1621.5 816.174)"/>
            <path id="Línea_42" d="M0 0L59 67.615" class="cls-1" transform="translate(1665.5 340.885)"/>
            <path id="Línea_43" d="M154 0L0 49.09" class="cls-1" transform="translate(1570.5 408.5)"/>
            <path id="Línea_44" d="M0 0L160 56.548" class="cls-1" transform="translate(1570.5 457.5)"/>
            <path id="Línea_45" d="M109 0L0 29.925" class="cls-1" transform="translate(1621.5 514.5)"/>
            <path id="Línea_46" d="M0 0L0 72.436" class="cls-1" transform="translate(1621.5 544.5)"/>
            <g id="Grupo_744" transform="translate(1575 957.333)">
                <g id="Trazado_1142" fill="#de1920" stroke="none">
                    <path d="M89 89H5V66.56c1.776-2.947 7.008-11.294 13.987-19.513 4.951-5.83 9.788-10.444 14.377-13.713 5.286-3.766 10.137-5.675 14.42-5.675 4.257 0 9.009 1.896 14.121 5.636 4.45 3.255 9.1 7.852 13.821 13.663C82.426 55.205 87.36 63.584 89 66.484V89z" transform="translate(0 -22.659)"/>
                    <path fill="#3a4a54" d="M84 84V67.765c-8.652-15.257-24.743-35.106-36.217-35.106-11.58 0-28.496 19.91-37.783 35.257V84h74m10 10H0V65.19S24.283 22.66 47.783 22.66 94 65.19 94 65.19V94z" transform="translate(0 -22.659)"/>
                </g>
                <path id="Línea_48" d="M0 0L0 28.917" class="cls-3" transform="translate(33.5 70.841)"/>
                <path id="Línea_49" d="M0 0L0 28.917" class="cls-3" transform="translate(59.5 70.841)"/>
            </g>
        </g>
        <g id="tijeras" transform="rotate(74.99 511.708 1365.441)">
            <g id="Grupo_745" transform="translate(14 1.253)">
                <path id="Trazado_1143" fill="#3a4a54" d="M108.831 130.722a26.776 26.776 0 0 0-4.222.347l-20.042-38.2s24.166-51.535 30.233-74.252S108.831 2 108.831 2L72.86 70.557 36.89 2s-11.9-6.1-5.83 16.62 30.1 74.249 30.1 74.249l-20.042 38.2a26.85 26.85 0 0 0-4.225-.347c-12.642 0-22.89 8.77-22.89 19.589S24.248 169.9 36.89 169.9s22.89-8.77 22.89-19.589c0-6.641-3.872-12.5-9.777-16.043l10.117-16.077a21.463 21.463 0 0 1 12.74-8.969 21.432 21.432 0 0 1 12.74 8.969l10.117 16.077c-5.906 3.543-9.777 9.4-9.777 16.043 0 10.818 10.248 19.589 22.89 19.589s22.89-8.77 22.89-19.589-10.247-19.589-22.889-19.589zM36.89 161.5c-7.223 0-13.08-5.012-13.08-11.193s5.857-11.193 13.08-11.193 13.08 5.012 13.08 11.193S44.114 161.5 36.89 161.5zm39.24-67.157v5.6h-6.54v-5.6zm32.7 67.161c-7.223 0-13.08-5.012-13.08-11.193s5.857-11.193 13.08-11.193 13.08 5.012 13.08 11.193-5.856 11.189-13.079 11.189z" transform="translate(-14 -1.253)"/>
            </g>
        </g>
        <path id="Línea_50" d="M0 0L19.23 19.23" class="cls-5" transform="translate(1545.5 502.55)"/>
        <path id="Línea_52" d="M0 0L17.709 17.709" class="cls-5" transform="rotate(173 835.38 402.994)"/>
        <path id="Línea_51" d="M0 0L5.853 25.083" class="cls-5" transform="translate(1575.599 487.5)"/>
        <path id="Línea_53" d="M0 0L5.39 23.099" class="cls-5" transform="rotate(173 821.944 410.77)"/>
    </g>
</svg>
