<?xml version="1.0" standalone="no"?>
<!DOCTYPE svg PUBLIC "-//W3C//DTD SVG 20010904//EN"
 "http://www.w3.org/TR/2001/REC-SVG-20010904/DTD/svg10.dtd">
<svg version="1.0" xmlns="http://www.w3.org/2000/svg"
 width="303.000000pt" height="166.000000pt" viewBox="0 0 303.000000 166.000000"
 preserveAspectRatio="xMidYMid meet">

<g transform="translate(0.000000,166.000000) scale(0.100000,-0.100000)"
fill="#ff0000" stroke="none">
<path d="M1070 1573 c-249 -23 -411 -62 -555 -132 -163 -80 -268 -189 -315
-331 -19 -56 -21 -81 -18 -180 6 -135 26 -198 92 -288 75 -102 196 -179 364
-232 l83 -26 -118 -66 c-65 -37 -179 -96 -253 -132 -83 -40 -126 -65 -111 -65
26 -1 353 126 495 193 l91 42 255 -4 c291 -5 283 -7 278 75 l-3 48 -137 3
c-103 2 -138 6 -138 15 0 7 34 37 75 66 165 118 295 288 295 385 0 161 -213
192 -564 79 -48 -15 -88 -32 -87 -38 0 -6 50 -13 113 -16 136 -8 208 -23 237
-50 18 -17 20 -27 15 -62 -13 -87 -102 -217 -205 -298 l-40 -31 -57 23 c-72
29 -148 77 -189 120 -78 83 -116 226 -97 362 38 259 257 397 659 416 l140 6 0
55 c0 53 -1 55 -30 61 -31 7 -214 8 -275 2z"/>
<path d="M2702 1334 c-48 -33 -66 -109 -36 -152 19 -28 65 -52 99 -52 40 0 95
57 102 106 5 36 1 45 -27 77 -27 32 -38 37 -74 37 -23 0 -52 -7 -64 -16z"/>
<path d="M1627 1274 c-4 -4 -7 -185 -7 -403 0 -367 2 -399 19 -438 29 -64 53
-74 157 -71 l89 3 0 75 0 75 -37 3 -38 3 -2 377 -3 377 -85 3 c-47 1 -89 0
-93 -4z"/>
<path d="M2204 1006 c-40 -22 -41 -23 -53 -4 -10 16 -22 18 -84 16 l-72 -3 0
-435 0 -435 90 0 90 0 3 103 3 102 58 0 c127 0 232 62 267 158 22 62 31 294
14 369 -13 62 -57 119 -107 139 -54 23 -161 18 -209 -10z m123 -166 c8 -16 13
-67 13 -135 0 -143 -14 -176 -81 -189 -82 -16 -81 -17 -77 155 l3 151 29 24
c38 34 95 30 113 -6z"/>
<path d="M2677 994 c-4 -4 -7 -146 -7 -316 l0 -308 85 0 85 0 -2 313 -3 312
-75 3 c-42 1 -79 0 -83 -4z"/>
</g>
</svg>
