<svg xmlns="http://www.w3.org/2000/svg" width="351.765" height="166.1" viewBox="0 0 351.765 166.1">
    <defs>
        <style>
            .cls-2{fill:#a7a7a7}.cls-3{fill:#d56060}.cls-4{fill:#fff}.cls-5{fill:#6a1818}.cls-6{fill:#d12121}
        </style>
    </defs>
    <g id="Grupo_756" transform="translate(-39.545 -792.562)">
        <g id="team_solid_III" opacity="0.71" transform="translate(39.545 792.562)">
            <path id="shape_8_" d="M0 0H320.289V56.382H0z" class="cls-2" transform="translate(16.134 108.995)"/>
            <g id="screen_1_" transform="translate(134.204 19.328)">
                <path id="shape_14_" d="M73.518 0H2.157A2.156 2.156 0 0 0 0 2.147v43.717a2.156 2.156 0 0 0 2.157 2.147h27.889l-4.2 16.062H52.1l-4.071-16.062h25.489a2.156 2.156 0 0 0 2.157-2.147V2.147A2.142 2.142 0 0 0 73.518 0z" class="cls-3"/>
                <path id="screen_2_" d="M63.173 40.955H2.421A2.409 2.409 0 0 1 0 38.545V2.41A2.409 2.409 0 0 1 2.421 0h60.752a2.409 2.409 0 0 1 2.421 2.41v36.113a2.428 2.428 0 0 1-2.421 2.432z" class="cls-4" transform="translate(3.61 2.871)"/>
                <g id="lines_6_" transform="translate(29.451)">
                    <path id="Oval" d="M3.83 7.932a3.738 3.738 0 0 1-2.711-1.164A3.967 3.967 0 0 1 .3 5.507a4.108 4.108 0 0 1 0-3.082 3.967 3.967 0 0 1 .819-1.261 3.738 3.738 0 0 1 5.422 0 3.967 3.967 0 0 1 .819 1.261 4.108 4.108 0 0 1 0 3.082 3.967 3.967 0 0 1-.819 1.261A3.739 3.739 0 0 1 3.83 7.932zm0-6.618a2.586 2.586 0 0 0-2.509 2.652A2.586 2.586 0 0 0 3.83 6.618a2.586 2.586 0 0 0 2.509-2.652A2.586 2.586 0 0 0 3.83 1.315z" class="cls-5" transform="translate(5.327 51.408)"/>
                    <path id="Path" d="M.515.016a.661.661 0 0 1 .78.459L1.3.513l3.526 15.536a.66.66 0 0 1-1.279.327l-.01-.037L.016.8A.657.657 0 0 1 .515.016z" class="cls-5" transform="translate(15.518 47.419)"/>
                    <path id="Path-2" d="M18.446 0a.657.657 0 0 1 .039 1.314H.66A.657.657 0 0 1 .622 0h17.824z" class="cls-5" transform="translate(0 47.332)"/>
                    <path id="line_6_" d="M.66 0a2.935 2.935 0 0 1 2.9 2.89v42.82a.66.66 0 0 1-1.32.039V2.958A1.62 1.62 0 0 0 .66 1.315.657.657 0 1 1 .66 0z" class="cls-5" transform="translate(39.665)"/>
                </g>
                <g id="code_lines_2_" transform="translate(12.723 11.811)">
                    <path id="Path-3" d="M1.409 3.046H.726A.731.731 0 0 1 0 2.323v-1.6A.731.731 0 0 1 .726 0h.682a.731.731 0 0 1 .726.723v1.6a.731.731 0 0 1-.725.723z" class="cls-2" transform="translate(15.518)"/>
                    <path id="Path-4" d="M13.691 3.024H.991A.984.984 0 0 1 0 2.038V.986A.984.984 0 0 1 .991 0h12.7a.984.984 0 0 1 .991.986v1.052a.971.971 0 0 1-.991.986z" class="cls-6" transform="translate(0 .022)"/>
                    <path id="Path-5" d="M15.012 3.024H.991A.984.984 0 0 1 0 2.038V.986A.984.984 0 0 1 .991 0h14.021A.984.984 0 0 1 16 .986v1.052a1 1 0 0 1-.988.986z" class="cls-6" transform="translate(.022 14.156)"/>
                    <path id="Path-6" d="M23.838 3.024H.991A.984.984 0 0 1 0 2.038V.986A.984.984 0 0 1 .991 0h22.847a.984.984 0 0 1 .991.986v1.052a.984.984 0 0 1-.991.986z" class="cls-2" transform="translate(4.072 9.444)"/>
                    <path id="Path-7" d="M12.414 3.024H.991A.984.984 0 0 1 0 2.038V.986A.984.984 0 0 1 .991 0h11.423a.984.984 0 0 1 .986.986v1.052a.984.984 0 0 1-.986.986z" class="cls-2" transform="translate(30.31 9.444)"/>
                    <path id="Path-8" d="M1.409 3.046H.726A.731.731 0 0 1 0 2.323v-1.6A.731.731 0 0 1 .726 0h.682a.731.731 0 0 1 .726.723v1.6a.7.7 0 0 1-.725.723z" class="cls-6" transform="translate(46.114 4.711)"/>
                    <path id="Path-9" d="M24.675 3.024H.991A.984.984 0 0 1 0 2.038V.986A.984.984 0 0 1 .991 0h23.684a.984.984 0 0 1 .991.986v1.052a.971.971 0 0 1-.991.986z" class="cls-6" transform="translate(.022 4.733)"/>
                    <path id="Path-10" d="M13.691 3.024H.991A.984.984 0 0 1 0 2.038V.986A.984.984 0 0 1 .991 0h12.7a.984.984 0 0 1 .991.986v1.052a.984.984 0 0 1-.991.986z" class="cls-6" transform="translate(18.6 .022)"/>
                    <path id="Path-11" d="M17.125 3.068H1.013A1.008 1.008 0 0 1 0 2.06V1.008A1.008 1.008 0 0 1 1.013 0h16.112a1.008 1.008 0 0 1 1.013 1.008V2.06a.994.994 0 0 1-1.013 1.008z" class="cls-3" transform="translate(26.832 4.689)"/>
                </g>
            </g>
            <g id="woman_with_glasses" transform="translate(87.864 19.534)">
                <path id="shape_12_" d="M45.96 34.111l3.368-5.61S46.114 14.28 44.089 7.224C42.284.891 38.058-.664 34.91.234L12.458 4.025c-.176-.022-.33-.022-.484-.044C8.034 3.893 1.541 18.071 0 26.31a31.4 31.4 0 0 1 12.5-.57c.176-.351.792-1.381 1.629-2.849.088.175.2.329.286.482 1.387 2.3 5.151 10.1 7.682 10.891l23.882.745-.286-.92a.607.607 0 0 0 .267.022z" class="cls-5" transform="translate(2.382 28.923)"/>
                <g id="head_12_" transform="translate(14.048)">
                    <path id="Path-12" d="M5.991 5.61l-.66.416S1.413 8.152.18 4.207C-.744 1.227 2.117.285 3.57 0" class="cls-4" transform="translate(4.861 16.381)"/>
                    <path id="Path_2_" d="M4.1.013A.658.658 0 1 1 4.358 1.3C2.11 1.743.879 2.758 1.472 4.67c.377 1.205 1.009 1.764 1.864 1.9A3.732 3.732 0 0 0 5.1 6.349c.16-.055.306-.115.434-.173l.081-.038.046-.023.639-.4a.662.662 0 0 1 .889.17l.023.033a.656.656 0 0 1-.171.885l-.033.022-.66.416-.037.022a5.431 5.431 0 0 1-.774.329 4.994 4.994 0 0 1-2.4.276A3.635 3.635 0 0 1 .21 5.059a3.324 3.324 0 0 1 1.014-3.815A6.451 6.451 0 0 1 4.1.013z" class="cls-5" transform="translate(4.2 15.724)"/>
                    <path id="Path-13" d="M15.452 3.287L13.955 6.6l2.223-.482c.242.438 3.126 6.64-3.874 8.239C7.7 15.4 2.4 11.68 0 8.3l3.874-.7L7.044 0z" class="cls-4" transform="translate(4.491 24.029)"/>
                    <path id="Path_2_2" d="M11.363 15.842a10.5 10.5 0 0 1-3.1-.5A14.537 14.537 0 0 1 5.2 13.97a17 17 0 0 1-2.79-2.063A16.057 16.057 0 0 1 .122 9.342a.657.657 0 0 1 .421-1.026l3.52-.637L7.094.406a.661.661 0 0 1 .851-.36l8.408 3.287a.657.657 0 0 1 .361.882l-.959 2.118.942-.2a.665.665 0 0 1 .141-.015.658.658 0 0 1 .557.305l.021.036a7.653 7.653 0 0 1 .537 1.381 7.661 7.661 0 0 1 .322 2.665 5 5 0 0 1-1.387 3.231 7.449 7.449 0 0 1-3.777 1.92 7.869 7.869 0 0 1-1.748.186zM8.066 1.5L5.145 8.513a.657.657 0 0 1-.492.395l-2.81.508.057.064a15.42 15.42 0 0 0 2.055 2.02 15.522 15.522 0 0 0 2.381 1.6 10.775 10.775 0 0 0 5.029 1.433 6.591 6.591 0 0 0 1.338-.133l.114-.025a8.33 8.33 0 0 0 1.809-.617 4.718 4.718 0 0 0 1.261-.878 3.551 3.551 0 0 0 .762-1.121 4.133 4.133 0 0 0 .31-1.344 6.364 6.364 0 0 0-.273-2.215c-.056-.191-.119-.38-.187-.562l-.044-.113-1.7.369a.686.686 0 0 1-.145.016.658.658 0 0 1-.542-.288.643.643 0 0 1-.068-.605l.014-.034L15.226 4.3z" class="cls-5" transform="translate(3.83 23.371)"/>
                    <path id="Path-14" d="M17.044 8.849c.528 1.8 2.069 10.387-3.456 12.512S2.891 19.214.932 13.933.206 3.5 3.661 2.078s9.509-6.311 13.383 6.771z" class="cls-4" transform="translate(7.829 5.713)"/>
                    <path id="Path_2_3" d="M11.341 23.236a8.942 8.942 0 0 1-3.221-.612A10.722 10.722 0 0 1 5.2 20.9a13.121 13.121 0 0 1-2.443-2.656 15.2 15.2 0 0 1-1.781-3.42A13.7 13.7 0 0 1 .3 7a6.659 6.659 0 0 1 3.769-4.861l.121-.051c.139-.059.292-.129.482-.217l.249-.119.226-.109.653-.316.22-.1A16.106 16.106 0 0 1 8.326.312 7.01 7.01 0 0 1 10.312 0a5.747 5.747 0 0 1 1.335.158 5.636 5.636 0 0 1 2 .92 8.172 8.172 0 0 1 1.777 1.8 15.125 15.125 0 0 1 1.564 2.734 29.131 29.131 0 0 1 1.355 3.719l.029.1a19.12 19.12 0 0 1 .537 6.277 9.97 9.97 0 0 1-1.3 4.341 6.191 6.191 0 0 1-3.118 2.592 8.734 8.734 0 0 1-3.15.595zM10.332 1.319a5.965 5.965 0 0 0-1.74.289 15.514 15.514 0 0 0-2.128.86l-1.151.554c-.237.112-.429.2-.606.275l-.134.056a4.482 4.482 0 0 0-1.93 1.561 6.858 6.858 0 0 0-1.1 2.566 12.507 12.507 0 0 0 .666 6.893 13.894 13.894 0 0 0 1.6 3.083 11.793 11.793 0 0 0 2.167 2.381 9.453 9.453 0 0 0 2.572 1.534 7.7 7.7 0 0 0 2.811.544 7.361 7.361 0 0 0 2.652-.5c2.1-.807 3.3-2.767 3.578-5.825a17.7 17.7 0 0 0-.519-5.89l-.046-.155A27.889 27.889 0 0 0 15.8 6.191a14.023 14.023 0 0 0-1.358-2.424A7.075 7.075 0 0 0 12.954 2.2a4.285 4.285 0 0 0-2.622-.886z" class="cls-5" transform="translate(7.169 5.045)"/>
                    <path id="Path-15" d="M.418.39A3.83 3.83 0 0 0 2.861.039.35.35 0 0 1 3.368.3a1.757 1.757 0 0 1-1.409 2.215C.4 2.888.066 1.529 0 .762A.369.369 0 0 1 .418.39z" class="cls-5" transform="translate(18.798 21.119)"/>
                    <path id="Path-16" d="M.436.04a.661.661 0 0 1 .831.36l.014.036 2.377 6.53a.657.657 0 0 1-.418.85l-.04.008-1.717.438A.658.658 0 0 1 1.12 7l.037-.011 1.012-.258L.04.882A.656.656 0 0 1 .4.054z" class="cls-5" transform="translate(18.864 11.451)"/>
                    <path id="Path-17" d="M.613.79a2.1 2.1 0 0 1 2.5-.6.658.658 0 0 1-.513 1.218l-.036-.015c-.353-.158-.665-.046-1 .3a2.347 2.347 0 0 0-.249.311l-.032.048-.033.053-.012.021a.66.66 0 0 1-1.162-.609A3.386 3.386 0 0 1 .613.79z" class="cls-5" transform="translate(13.823 12.367)"/>
                    <path id="Path-18" d="M.674.631A2.1 2.1 0 0 1 3.307.344a.658.658 0 0 1-.68 1.127l-.034-.021c-.344-.22-.678-.142-1.064.184a2.3 2.3 0 0 0-.251.249l-.045.054-.033.033v.007a.662.662 0 0 1-.92.158.656.656 0 0 1-.159-.916A3.305 3.305 0 0 1 .674.631z" class="cls-5" transform="translate(19.106 8.757)"/>
                    <path id="Oval-2" d="M.593 0c.328 0 .594.413.6.921s-.264.92-.592.919S0 1.428 0 .92.265 0 .593 0z" class="cls-5" transform="rotate(-11.63 84.54 -77.04)"/>
                    <path id="Oval-3" d="M.593 0c.328 0 .594.413.6.921s-.264.92-.592.919S0 1.428 0 .92.265 0 .593 0z" class="cls-5" transform="rotate(-11.63 81.878 -105.159)"/>
                    <g id="Group" transform="translate(6.394 8.156)">
                        <path id="Oval-4" d="M4.222 10.982a3.774 3.774 0 0 1-3-1.62 5.807 5.807 0 0 1-.9-1.747 7.095 7.095 0 0 1 0-4.251 5.786 5.786 0 0 1 .898-1.746A3.761 3.761 0 0 1 4.213 0a3.774 3.774 0 0 1 3 1.62 5.807 5.807 0 0 1 .9 1.747 7.095 7.095 0 0 1 0 4.251 5.786 5.786 0 0 1-.893 1.746 3.761 3.761 0 0 1-2.998 1.618zM4.214.988a2.419 2.419 0 0 0-1.239.349 3.417 3.417 0 0 0-1.026.963 5.462 5.462 0 0 0-.956 3.19 5.474 5.474 0 0 0 .961 3.2 3.432 3.432 0 0 0 1.027.96 2.368 2.368 0 0 0 2.478 0 3.417 3.417 0 0 0 1.026-.958 5.461 5.461 0 0 0 .956-3.194 5.475 5.475 0 0 0-.961-3.2 3.432 3.432 0 0 0-1.027-.96 2.425 2.425 0 0 0-1.239-.35z" class="cls-3" transform="rotate(-9.6 21.507 -24.55)"/>
                        <path id="Oval-5" d="M4.222 10.982a3.774 3.774 0 0 1-3-1.62 5.807 5.807 0 0 1-.9-1.747 7.095 7.095 0 0 1 0-4.251 5.786 5.786 0 0 1 .898-1.746A3.761 3.761 0 0 1 4.213 0a3.774 3.774 0 0 1 3 1.62 5.807 5.807 0 0 1 .9 1.747 7.095 7.095 0 0 1 0 4.251 5.786 5.786 0 0 1-.893 1.746 3.761 3.761 0 0 1-2.998 1.618zM4.214.988a2.419 2.419 0 0 0-1.239.349 3.417 3.417 0 0 0-1.026.963 5.462 5.462 0 0 0-.956 3.19 5.474 5.474 0 0 0 .961 3.2 3.432 3.432 0 0 0 1.027.96 2.368 2.368 0 0 0 2.478 0 3.417 3.417 0 0 0 1.026-.958 5.461 5.461 0 0 0 .956-3.194 5.475 5.475 0 0 0-.961-3.2 3.432 3.432 0 0 0-1.027-.96 2.425 2.425 0 0 0-1.239-.35z" class="cls-3" transform="rotate(-9.6 15.367 -82.802)"/>
                        <path id="Path-19" d="M2.7.008a.493.493 0 0 1 .213.962l-.039.008-2.29.416A.493.493 0 0 1 .372.432L.406.424z" class="cls-3" transform="translate(12.459 5.037)"/>
                        <path id="Path-20" d="M5.488.026a.493.493 0 0 1 .35.922L5.8.96.654 2.691A.493.493 0 0 1 .3 1.77l.033-.012z" class="cls-3" transform="translate(0 6.374)"/>
                    </g>
                    <path id="hair_9_" d="M26.48 4.7C22.28-3.89 15.034 1 10.214 5.883 6.45 5.819 1.673 9.61.661 12.656c-1.233 3.659-.792 8.919 1.761 12.293 4.931 5.391 9.135 4.229 12.15 1.643a12.031 12.031 0 0 1-4.424-4.185c-.44.219-3.94 1.863-5.107-1.841a2.687 2.687 0 0 1 .946-3.243 2 2 0 0 0 1.387-.223c2.883-1.315 3.94-4.58 4.336-6.64l13.735-3.55A1.554 1.554 0 0 0 26.48 4.7z" class="cls-5"/>
                </g>
                <g id="hand_II_6_" transform="translate(1.75 53.695)">
                    <path id="Path-21" d="M30.921 3.005C25.065 2.72 11.572.858 11.572.858l.22-.592A31.942 31.942 0 0 0 .743.7C.06 2.633-.2 4.276.171 5.372a4.847 4.847 0 0 0 3.675 2.892c12.635 1.819 27.668.46 27.668.46l4.27-3.243c-.021-.043-4.599-2.454-4.863-2.476z" class="cls-4" transform="translate(.66 .658)"/>
                    <path id="Path_2_4" d="M19.74 10.532c-3.512 0-6.869-.125-9.978-.372-1.883-.15-3.683-.347-5.35-.587a5.551 5.551 0 0 1-2.574-1.146A4.84 4.84 0 0 1 .206 6.242a5.031 5.031 0 0 1-.156-2.2 13.741 13.741 0 0 1 .73-2.9.658.658 0 0 1 .457-.416A21.767 21.767 0 0 1 4.278.19 33.386 33.386 0 0 1 7.915 0a40 40 0 0 1 4.615.272.658.658 0 0 1 .583.693v.007l.863.116L15.6 1.3c1.8.234 3.556.454 5.224.654.577.069 1.18.14 1.792.211l.888.1c3.368.38 5.989.623 7.789.723l.321.017h.023a9.8 9.8 0 0 1 2.088.949l.816.421.779.406.707.374.331.177.279.152.273.157c.094.056.094.062.1.09a.234.234 0 0 0 .033.112l.017.037a.655.655 0 0 1-.207.78l-4.27 3.243a.661.661 0 0 1-.341.132l-.494.041-.785.059c-.734.052-1.515.1-2.322.145l-.531.028c-2.851.15-5.664.224-8.37.224zM7.913 1.315a27.152 27.152 0 0 0-5.958.59l-.043.01-.044.134A11.432 11.432 0 0 0 1.36 4.22a3.856 3.856 0 0 0 .079 1.547l.018.055A3.538 3.538 0 0 0 2.676 7.41a4.21 4.21 0 0 0 1.924.862c1.637.236 3.408.43 5.265.577 3.073.244 6.394.368 9.872.368 2.853 0 5.821-.083 8.822-.247.915-.05 1.793-.106 2.612-.167l.376-.029.378-.031 3.313-2.513-.351-.185-.633-.331-.574-.3c-.442-.228-.838-.43-1.175-.6l-.349-.173c-.191-.094-.351-.171-.476-.229l-.128-.058-.093-.04-.243-.014c-1.648-.092-3.966-.3-6.892-.621l-.966-.107-.9-.1-1.07-.125-.728-.087c-1.878-.225-3.888-.478-5.972-.752l-.888-.117-1.643-.221-.057-.009a.658.658 0 0 1-.53-.65v-.019l-.2-.018c-1.155-.106-2.321-.159-3.457-.159z" class="cls-5"/>
                    <path id="Path-22" d="M0 .017a34.318 34.318 0 0 1 5.921.329c1.827.285 4.909.745 5.217 1.161.726.964-2.047 1.468-3.368.657" class="cls-4" transform="translate(30.304 3.668)"/>
                    <path id="Path_2_5" d="M6.459.322l.394.059.761.119.664.106.363.06a20.983 20.983 0 0 1 2.883.623 1.523 1.523 0 0 1 .8.481 1.076 1.076 0 0 1-.106 1.493 2.394 2.394 0 0 1-1.216.542 4.366 4.366 0 0 1-2.921-.423.658.658 0 0 1 .658-1.139l.035.02a3.1 3.1 0 0 0 1.982.251l.108-.023.053-.013-.026-.008c-.468-.136-1.179-.283-2.115-.446l-.357-.061-.609-.1-1.328-.208a32.48 32.48 0 0 0-5.353-.334H.946l-.256.008A.657.657 0 0 1 .591.023h.051L.913.01a34.014 34.014 0 0 1 5.546.312z" class="cls-5" transform="translate(29.644 3.009)"/>
                    <path id="Path-23" d="M7.528 3.484c2.575.679 3.918.789 3.368-.219C10.588 2.7 6.273.723 5.437.5S0 0 0 0" class="cls-4" transform="translate(29.424 3.51)"/>
                    <path id="Path_2_6" d="M.663 0l.1.005.811.054.562.041C2.6.132 3.061.167 3.5.2l.51.043c.49.043.917.085 1.269.125L5.523.4a6.328 6.328 0 0 1 .742.125l.07.02A25.267 25.267 0 0 1 9.057 1.7l.257.123c1.629.789 2.582 1.344 2.823 1.789.524.959-.012 1.689-1.077 1.713a12.383 12.383 0 0 1-3.041-.545.658.658 0 1 1 .338-1.271l.23.06a17.544 17.544 0 0 0 1.87.4l.12.015-.08-.049-.14-.083-.164-.094c-.37-.209-.829-.447-1.339-.7l-.275-.133A24.347 24.347 0 0 0 5.929 1.8a6.3 6.3 0 0 0-.656-.1l-.235-.027c-.41-.046-.924-.094-1.519-.143l-.129-.011c-.433-.035-.888-.07-1.349-.1l-.778-.054-.644-.051A.657.657 0 0 1 .663 0z" class="cls-5" transform="translate(28.763 2.853)"/>
                    <path id="Path-24" d="M2.091 0a30.566 30.566 0 0 1 3.1 1.139c1.343.614 2.157 1.271 2.069 1.534a1.922 1.922 0 0 1-1.981.482 23.423 23.423 0 0 0-4.002-1.38 24.589 24.589 0 0 1 3.28 1.074c1.057.329 1.915 1.359-.66 1.205L0 3.922" class="cls-4" transform="translate(31.647 5.46)"/>
                    <path id="Path_2_7" d="M2.12.466a.661.661 0 0 1 .786-.448l.047.013.2.062.315.1.232.078c.563.188 1.126.39 1.654.6q.413.164.779.328l.162.075c1.569.737 2.518 1.49 2.258 2.264a1.977 1.977 0 0 1-1.616.987l-.05.007-.006.024a1.062 1.062 0 0 1-.744.691l-.05.016a4.441 4.441 0 0 1-1.443.111l-.109-.006-3.9-.131a.657.657 0 0 1 .009-1.314h.039l3.917.132h.08l.141.006-.341-.114L3.262 3.5l-.227-.082-.11-.033-.225-.062-.226-.064-.415-.114-.285-.075a.657.657 0 0 1 .014-1.278l.043-.009c.263-.05.521 0 1.329.286l.308.11.182.055c.18.055.358.111.532.168l.259.086a12.777 12.777 0 0 1 1.688.68l.073.038h.012a1.365 1.365 0 0 0 .74-.026l.017-.005-.007-.005a8.035 8.035 0 0 0-1.277-.728l-.1-.048c-.222-.1-.463-.2-.722-.3-.5-.2-1.043-.394-1.584-.575l-.221-.073-.376-.12-.121-.037A.657.657 0 0 1 2.12.466z" class="cls-5" transform="translate(30.987 4.803)"/>
                </g>
                <g id="hand_14_" transform="translate(44.913 31.895)">
                    <path id="Path-25" d="M0 4.9a17.226 17.226 0 0 0 6.8-1.691C8.408 2.266 10.477 1 10.588.448c.2-1.03-2.355.022-2.751.153" class="cls-4" transform="translate(23.217 3.738)"/>
                    <path id="Path_2_8" d="M9.68.172A3.611 3.611 0 0 1 10.942.01a.99.99 0 0 1 .958 1.224c-.153.763-1.349 1.586-4.1 3.2a11.146 11.146 0 0 1-2.412 1 19.668 19.668 0 0 1-3.226.648c-.383.046-.74.079-1.06.1L.811 6.2l-.124.005A.657.657 0 0 1 .6 4.9l.23-.012.17-.012c.3-.021.634-.052.994-.1A18.375 18.375 0 0 0 5 4.178 9.855 9.855 0 0 0 7.127 3.3l.509-.3c.773-.461 1.394-.85 1.9-1.2q.2-.14.373-.265l.125-.094h-.015q-.183.049-.386.114l-.2.065c-.277.095-.737.262-.736.262A.658.658 0 0 1 8.251.648L8.647.5C8.812.446 9 .381 9.12.34c.195-.064.38-.12.56-.168z" class="cls-5" transform="translate(22.557 3.08)"/>
                    <path id="Path-26" d="M25.462 5.084a12.781 12.781 0 0 0 3.17-2.3C29.6 1.622 30.26.723 30.084.482a2.079 2.079 0 0 0-2.091.46A11.825 11.825 0 0 1 24.581 3.4a12.91 12.91 0 0 0 2.773-1.95C28.169.7 28.543-.7 26.3.417c0 0-2.377 1.271-3.28 1.622 0 0-3.742.46-4.953 1.731-.814.855-7.176 7.3-11.93 11.351C3.384 16.9-4.166 29.977 3.01 30.043a5.573 5.573 0 0 0 4.16-1.994L21.456 8.2a16.2 16.2 0 0 0 5.019-1.534c1.409-.767 5.745-4.339 5.833-4.8.22-1.249-1.915-1.205-3.5.789" class="cls-4" transform="translate(.661 .657)"/>
                    <path id="Path_2_9" d="M3.808 31.361H3.574a3.942 3.942 0 0 1-2.313-.7A3.076 3.076 0 0 1 .115 28.8L.1 28.722a9.551 9.551 0 0 1 .8-5.075 27.553 27.553 0 0 1 2.62-5.058 12.812 12.812 0 0 1 2.864-3.327l.014-.01.113-.1c1.843-1.58 4.1-3.656 6.7-6.171l.926-.9c1.752-1.711 3.5-3.466 4.114-4.111a5.877 5.877 0 0 1 2.577-1.342 17.538 17.538 0 0 1 1.9-.451c.181-.033.359-.063.529-.089l.212-.031.042-.006.111-.046c.273-.117.658-.3 1.145-.542l.247-.124c.278-.14.582-.3.9-.464l.746-.393A4.006 4.006 0 0 1 28.151 0h.082a1.041 1.041 0 0 1 .943.486l.024.048.05-.016a3.165 3.165 0 0 1 .969-.162 1.358 1.358 0 0 1 1.013.338l.029.034.018.024a.88.88 0 0 1 .164.358v.012l.03-.008c.079-.021.161-.039.243-.054l.08-.013a2.388 2.388 0 0 1 .348-.026 1.544 1.544 0 0 1 1.214.494 1.333 1.333 0 0 1 .257 1.127 2.217 2.217 0 0 1-.643.9c-.36.366-.888.836-1.662 1.481l-.344.285A29.039 29.039 0 0 1 27.449 7.9a16.425 16.425 0 0 1-4.866 1.543l-.088.015-14.126 19.63a5.511 5.511 0 0 1-2 1.6 5.909 5.909 0 0 1-2.561.673zM27.734 1.446l-.022.008c-.135.053-.284.12-.441.2l-.28.149-.231.121c-.326.171-.637.332-.925.478l-.391.2-.365.181c-.516.253-.9.426-1.16.529a.656.656 0 0 1-.118.034l-.253.036-.182.028c-.128.021-.263.044-.4.069a16.213 16.213 0 0 0-1.758.416 4.86 4.86 0 0 0-2 .989l-.325.336c-.767.788-2.346 2.369-4 3.98l-.559.543c-2.772 2.686-5.16 4.886-7.1 6.538a.673.673 0 0 1-.071.052 11.283 11.283 0 0 0-2.553 3.01 26.438 26.438 0 0 0-2.473 4.77 8.48 8.48 0 0 0-.736 4.346 1.815 1.815 0 0 0 .68 1.163 2.624 2.624 0 0 0 1.525.42H3.807a4.543 4.543 0 0 0 1.911-.5 4.4 4.4 0 0 0 1.533-1.165l.039-.052L21.58 8.47a.666.666 0 0 1 .43-.266 20.744 20.744 0 0 0 2.739-.624 11.586 11.586 0 0 0 2.069-.838A28.967 28.967 0 0 0 30.126 4.3l.223-.185c.555-.462 1.045-.889 1.417-1.237l.112-.105c.143-.136.261-.254.35-.35l.066-.073h-.026a.686.686 0 0 0-.11-.008 1.148 1.148 0 0 0-.166.013 3.54 3.54 0 0 0-2.006 1.368.656.656 0 0 1-.183.159l-.03.016-.042.049a7.822 7.822 0 0 1-1.3 1.142l-.115.082c-.391.278-.827.556-1.294.828l-.179.1-.168.094-.213.116-.023.012-.011.006a.662.662 0 0 1-.89-.28.656.656 0 0 1 .281-.886l.143-.077L26.11 5l.245-.14c.434-.252.835-.509 1.193-.764a6.643 6.643 0 0 0 1.236-1.075l.216-.26c.3-.366.534-.665.716-.916l.085-.12h-.017a1.489 1.489 0 0 0-.626.3h-.005l-.01.014c-.034.046-.072.093-.113.142l-.061.071a7.821 7.821 0 0 1-1.522 1.267c-.343.23-.719.462-1.12.689l-.169.094-.042.025a3.069 3.069 0 0 1-.746.36l-.028.005a.758.758 0 0 1-.114.009.647.647 0 0 1-.626-.5.635.635 0 0 1 .312-.734l.18-.092.151-.079.163-.088.086-.047.074-.042.031-.02c.114-.073.24-.157.373-.248l.079-.055a14.33 14.33 0 0 0 1.518-1.176 1.791 1.791 0 0 0 .156-.162l.01-.012z" class="cls-5"/>
                </g>
                <g id="ponytail_5_" transform="translate(10.034 19.917)">
                    <path id="Oval-6" d="M6.3.008c3.485.011 6.318 2.478 6.328 5.509S9.821 11 6.335 10.986.017 8.508.007 5.477 2.815 0 6.3.008z" class="cls-5" transform="rotate(-60.705 9.392 5.5)"/>
                    <path id="Oval-7" d="M4.553 0a4.311 4.311 0 0 1 4.562 3.989 4.285 4.285 0 0 1-4.551 3.976A4.311 4.311 0 0 1 0 3.978 4.285 4.285 0 0 1 4.553 0z" class="cls-5" transform="rotate(-80.166 15.415 3.012)"/>
                    <path id="Oval-8" d="M4.069.006a3.875 3.875 0 0 1 4.089 3.569 3.81 3.81 0 0 1-4.064 3.54A3.875 3.875 0 0 1 .005 3.546 3.81 3.81 0 0 1 4.069.006z" class="cls-5" transform="rotate(-55.34 26.944 -1.981)"/>
                    <path id="Oval-9" d="M3.382.005a3.2 3.2 0 0 1 3.39 2.949A3.171 3.171 0 0 1 3.394 5.89 3.2 3.2 0 0 1 0 2.94 3.171 3.171 0 0 1 3.382.005z" class="cls-5" transform="rotate(-40 43.434 -11.38)"/>
                    <path id="Path-27" d="M.874 4.686a2.47 2.47 0 0 1 1.585 2.63.426.426 0 0 0 .7.373C4.836 6.176 7.411 3.261 5.3.917A3.025 3.025 0 0 0 1.16.72C-.2 1.771-.447 3.985.874 4.686z" class="cls-5" transform="translate(21.763 28.066)"/>
                    <path id="Path-28" d="M2.524.392a.879.879 0 0 1 1.493.929l-.025.039-2.377 3.573A.879.879 0 0 1 .122 4l.025-.039z" class="cls-3" transform="translate(9.848 8.91)"/>
                    <path id="Path-29" d="M3.338.165a.883.883 0 0 1 1.229.2A.874.874 0 0 1 4.4 1.56l-.037.028-2.969 2.126a.883.883 0 0 1-1.229-.2.874.874 0 0 1 .164-1.2l.038-.024z" class="cls-3" transform="translate(14.646 15.353)"/>
                    <path id="Path-30" d="M1.513.086a.877.877 0 0 1 .8 1.561l-.04.02-1.012.483A.877.877 0 0 1 .46.589L.5.568z" class="cls-3" transform="translate(19.224 21.707)"/>
                    <path id="Path-31" d="M1.5.093a.877.877 0 0 1 .828 1.547l-.04.021-1.013.5A.877.877 0 0 1 .447.618L.487.6z" class="cls-3" transform="translate(22.262 27.12)"/>
                </g>
                <g id="legs_2_" transform="translate(0 63.691)">
                    <path id="Path-32" d="M17.235 1.775L12.657 16.61s8.056 1.972 7.2 8.787L0 25.288 5.679 0z" class="cls-3" transform="translate(10.945 56.163)"/>
                    <path id="Path-33" d="M17.829 1.863L13.1 17.158s8.342 2.082 7.462 9.16L0 26.208 5.877 0z" class="cls-3" transform="translate(37.293 55.527)"/>
                    <path id="Path-34" d="M48.827.789h-13.8L34.519 0l-5.393.789h-2.421l-.066.373-23.75 3.527c-.176.592-6.1 10.978-.462 18.363 2.245 2.958 10.279 3.725 19.106 3.572L13.3 67.733h21.087l5.877-25.4-3.5 25.529h21.065l1.783-58.6c0 .029 0-9.218-10.785-8.473z" class="cls-6"/>
                </g>
            </g>
            <g id="ponytail_woman" transform="translate(36.338)">
                <g id="shoes_1_" transform="translate(13.694 128.125)">
                    <path id="boot_3_" d="M4.358.57L0 24.586l.088 10.628h5.041l.308-10.5s2.047 10.277 9.091 10.737 13.141-1.468 13.1-1.731c-.022-.131.22-2.213.44-4.207a3.194 3.194 0 0 0-3.28-3.353c-2.707.153-6.273-.066-8.43-1.841C12.5 21.124 18.049 0 18.049 0z" class="cls-5" transform="translate(0 2.104)"/>
                    <path id="boot_2_" d="M0 3.638l.308 33.68h5.041l.308-10.5S7.7 37.1 14.748 37.559s13.141-1.468 13.1-1.731c-.022-.131.22-2.213.44-4.207A3.194 3.194 0 0 0 25 28.268c-2.707.153-6.273-.066-8.43-1.841C12.723 23.228 13.207 0 13.207 0z" class="cls-5" transform="translate(30.244)"/>
                </g>
                <path id="shape_11_" d="M38.919 37.515l1.585-.153c4.622 1.863 9.905.592 14.66-2.257-.594-.5-1.695-1.8-1.695-2.5 0-4.558.991-8.7 4.512-14.024l-7.066 4.492s-2.972-4.6-5.635-9.488c-.264-3.309-.946-6.223-2.289-8.152C38.9.592 29.652 1.183 29.652 1.183L14.4.044 14.31 0C11.471 0 7.619 3 7.2 6.267c-.792 6.048 1.123 14.112 1.937 21.1-.132.723-.264 1.293-.33 1.665 0 0-16.046 22.22-4.821 33.4.066.088 17.631-.11 17.631-.11l-7.044 39.334 43.671.811S63 63.175 62.009 58.814c-1.981-8.853-23.09-21.299-23.09-21.299z" class="cls-3" transform="translate(0 46.565)"/>
                <g id="head_11_" transform="translate(.698)">
                    <g id="earrings_back_1_" transform="translate(20.222 38.129)">
                        <path id="Path-35" d="M.519.376a.66.66 0 0 1 1.194.563 4.89 4.89 0 0 0-.318 2.817c.3 1.915 1.422 3.255 2.391 3.178h.044a.657.657 0 1 1 .164 1.3c-1.845.23-3.5-1.717-3.9-4.273A6.183 6.183 0 0 1 .519.376z" class="cls-3" transform="translate(0 .679)"/>
                        <path id="Path-36" d="M.519.376a.66.66 0 0 1 1.194.563 4.89 4.89 0 0 0-.318 2.817c.3 1.915 1.422 3.255 2.391 3.178h.044a.657.657 0 1 1 .164 1.3c-1.845.23-3.5-1.717-3.9-4.273A6.183 6.183 0 0 1 .519.376z" class="cls-3" transform="translate(19.436)"/>
                    </g>
                    <g id="ponytail_4_">
                        <path id="Path-37" d="M22.615 23.447c2.707-2.542 3.258-14.221-5.723-20.927C7.779-4.251 1.968 4.514.713 6.793s-1.694 8.174 6.032 12.754 12.788 6.793 15.87 3.9z" class="cls-5"/>
                        <path id="Path-38" d="M6.808 6.891l-.176.131a2.567 2.567 0 0 1-3.478-.263L.623 4A2.267 2.267 0 0 1 .821.689L1 .558a2.567 2.567 0 0 1 3.475.263l2.531 2.761a2.267 2.267 0 0 1-.198 3.309z" class="cls-3" transform="translate(20.737 21.093)"/>
                    </g>
                    <path id="ear_9_" d="M2.624 0A2.72 2.72 0 0 1 5.26 2.779a2.682 2.682 0 0 1-2.62 2.76A2.72 2.72 0 0 1 0 2.764 2.682 2.682 0 0 1 2.624 0z" class="cls-4" transform="rotate(-64.514 39.764 3.717)"/>
                    <path id="ear_10_" d="M3.3 6.866A3.212 3.212 0 0 1 .969 5.854 3.5 3.5 0 0 1 0 3.429a3.475 3.475 0 0 1 .961-2.422 3.2 3.2 0 0 1 4.658.008 3.5 3.5 0 0 1 .965 2.425 3.474 3.474 0 0 1-.957 2.422A3.189 3.189 0 0 1 3.3 6.866zm-.01-5.542a2.04 2.04 0 0 0-1.97 2.108A2.057 2.057 0 0 0 3.3 5.546a2.04 2.04 0 0 0 1.97-2.108 2.057 2.057 0 0 0-1.98-2.114z" class="cls-5" transform="rotate(-64.514 39.569 4.574)"/>
                    <path id="ear_8_" d="M2.624 0A2.72 2.72 0 0 1 5.26 2.779a2.682 2.682 0 0 1-2.62 2.76A2.72 2.72 0 0 1 0 2.764 2.682 2.682 0 0 1 2.624 0z" class="cls-4" transform="rotate(-64.514 48.554 -11.768)"/>
                    <path id="ear_9_2" d="M3.3 6.866A3.212 3.212 0 0 1 .969 5.854 3.5 3.5 0 0 1 0 3.429a3.475 3.475 0 0 1 .961-2.422 3.2 3.2 0 0 1 4.658.008 3.5 3.5 0 0 1 .965 2.425 3.474 3.474 0 0 1-.957 2.422A3.189 3.189 0 0 1 3.3 6.866zm-.01-5.542a2.04 2.04 0 0 0-1.97 2.108A2.057 2.057 0 0 0 3.3 5.546a2.04 2.04 0 0 0 1.97-2.108 2.057 2.057 0 0 0-1.98-2.114z" class="cls-5" transform="rotate(-64.514 48.359 -10.911)"/>
                    <path id="neck_10_" d="M14.263 7.648l.154 3.922 3.3.723c.176.526.4 9.773-8.078 8.612C4.072 20.16 1.475 15.208 0 10.672L4.71 11l.022-11z" class="cls-4" transform="translate(19.907 36.967)"/>
                    <path id="neck_11_" d="M11.728 22.323a11.215 11.215 0 0 1-1.514-.108 10.008 10.008 0 0 1-3.766-1.281 11.164 11.164 0 0 1-3.017-2.654 16.375 16.375 0 0 1-1.9-3.01 27.1 27.1 0 0 1-1.5-3.737.648.648 0 0 1 .094-.589.653.653 0 0 1 .532-.271h.048l4.005.279L4.733.657a.646.646 0 0 1 .2-.475A.679.679 0 0 1 5.4 0a.652.652 0 0 1 .411.147l9.531 7.648a.656.656 0 0 1 .245.486l.134 3.415 2.8.614a.66.66 0 0 1 .47.394l.015.041a6.284 6.284 0 0 1 .007 2.3 11.816 11.816 0 0 1-.823 3.111 6.934 6.934 0 0 1-2.471 3.066 7.069 7.069 0 0 1-3.991 1.101zM1.606 12.055l.087.238a16.7 16.7 0 0 0 3.441 5.953A9.062 9.062 0 0 0 7.455 20a8.844 8.844 0 0 0 2.8.894l.134.019a9.952 9.952 0 0 0 1.343.1 6.779 6.779 0 0 0 1.8-.226 4.886 4.886 0 0 0 2.6-1.721 6.591 6.591 0 0 0 .848-1.435 9.86 9.86 0 0 0 .746-3.006 9.687 9.687 0 0 0 .045-1.087v-.043l-2.833-.62a.657.657 0 0 1-.515-.578v-.039l-.147-3.628-8.225-6.6-.019 9.63a.659.659 0 0 1-.66.656h-.047l-3.72-.26z" class="cls-5" transform="translate(19.246 36.309)"/>
                    <path id="face_10_" d="M8.722 0c4.822.006 8.738 5.014 8.746 11.184s-3.894 11.171-8.716 11.165S.014 17.335.006 11.165 3.9 0 8.722 0z" class="cls-4" transform="rotate(-10.411 155.897 -107.137)"/>
                    <path id="face_11_" d="M9.413 23.674a7.741 7.741 0 0 1-3.676-.937 9.575 9.575 0 0 1-2.987-2.546 12.368 12.368 0 0 1-2.007-3.765 14.765 14.765 0 0 1-.008-9.187 12.32 12.32 0 0 1 2-3.762A9.53 9.53 0 0 1 5.72.937a7.7 7.7 0 0 1 7.35.006 9.575 9.575 0 0 1 2.987 2.546 12.368 12.368 0 0 1 2.007 3.765 14.765 14.765 0 0 1 .007 9.187 12.319 12.319 0 0 1-2 3.761 9.53 9.53 0 0 1-2.983 2.541 7.724 7.724 0 0 1-3.675.931zM9.4 1.32a6.426 6.426 0 0 0-3.126.82A8.315 8.315 0 0 0 3.7 4.385a11.05 11.05 0 0 0-1.736 3.341 13.491 13.491 0 0 0 .007 8.215 11.093 11.093 0 0 0 1.743 3.344 8.353 8.353 0 0 0 2.571 2.249 6.354 6.354 0 0 0 6.253 0 8.315 8.315 0 0 0 2.567-2.245 11.05 11.05 0 0 0 1.738-3.341 13.492 13.492 0 0 0-.007-8.215 11.094 11.094 0 0 0-1.743-3.344 8.354 8.354 0 0 0-2.571-2.249A6.441 6.441 0 0 0 9.4 1.32z" class="cls-5" transform="rotate(-10.411 152.595 -103.149)"/>
                    <path id="nose_10_" d="M1.194.022a.661.661 0 0 1 .8.429L2 .488l1.208 4.5a.915.915 0 0 1-.834 1.166l-1.69.066A.657.657 0 0 1 .6 4.912h.039l1.175-.046L.727.827a.657.657 0 0 1 .43-.794z" class="cls-5" transform="translate(32.674 32.913)"/>
                    <path id="brow_II_8_" d="M.812.416A2.6 2.6 0 0 1 3.076.154a2.407 2.407 0 0 1 .732.453.655.655 0 0 1 .053.928.662.662 0 0 1-.9.079l-.032-.027A1.089 1.089 0 0 0 2.6 1.38a1.35 1.35 0 0 0-1.137.182 2.564 2.564 0 0 0-.276.179l-.068.053-.019.012a.662.662 0 0 1-.932-.051A.655.655 0 0 1 .22.827 3.454 3.454 0 0 1 .812.416z" class="cls-5" transform="translate(28.052 30.041)"/>
                    <path id="brow_11_" d="M.814.1a3.5 3.5 0 0 1 1.44-.048 2.25 2.25 0 0 1 1.633 1.2.66.66 0 0 1-1.151.644l-.02-.035a.939.939 0 0 0-.71-.515 2.229 2.229 0 0 0-.894.041l-.076.013c-.059.015-.1.029-.131.038l-.015.005A.658.658 0 1 1 .43.215 3.282 3.282 0 0 1 .814.1z" class="cls-5" transform="translate(34.787 30.11)"/>
                    <ellipse id="eye_II_10_" cx=".986" cy=".661" class="cls-5" rx=".986" ry=".661" transform="rotate(-88.136 33.869 2.254)"/>
                    <ellipse id="eye_10_" cx=".661" cy=".986" class="cls-5" rx=".661" ry=".986" transform="rotate(-4.13 495.043 -491.87)"/>
                    <path id="hair_8_" d="M9.558.542l-.022.022a14.143 14.143 0 0 0-7.792 3.594C-1.382 7.51.049 14.72 3.241 15.2c.264.044.528.066.792.088l-.066-.548a15.116 15.116 0 0 1-.088-1.972c4.358-1.622 4.336-8.108 4.336-8.656.924.723 2.135 1.994 1.827 3.353l9.619.614a14.155 14.155 0 0 1 1.8 5.456v.088c.9-1.293.946-3.287.2-5.391l3.258.2S27.893-2.526 9.558.542z" class="cls-5" transform="translate(19.815 21.678)"/>
                    <g id="earring_front_1_" transform="translate(22.241 36.598)">
                        <path id="Path-39" d="M.56.026C2.4-.256 3.861 1.784 4.285 4.5c.4 2.6-.618 4.977-2.489 5.264a.663.663 0 0 1-.067.007h-.078a.657.657 0 0 1-.039-1.314h.023c.951-.188 1.624-1.768 1.357-3.671L2.979 4.7C2.658 2.641 1.666 1.233.8 1.321H.762a.657.657 0 1 1-.2-1.3z" class="cls-3" transform="translate(19.678)"/>
                        <path id="Path-40" d="M.56.028C2.431-.259 4.126 1.708 4.527 4.3s-.618 4.98-2.489 5.267a.663.663 0 0 1-.067.007h-.078a.657.657 0 0 1-.039-1.314h.025c.949-.189 1.621-1.769 1.355-3.672L3.221 4.5C2.922 2.563 1.782 1.216.8 1.322l-.044.006a.657.657 0 1 1-.2-1.3z" class="cls-3" transform="translate(0 .897)"/>
                    </g>
                    <path id="mouth_10_" d="M2.841 4.6c-.083 0-.166 0-.247-.01A2.376 2.376 0 0 1 .747 3.516 5.358 5.358 0 0 1 0 .681.647.647 0 0 1 .183.2a.673.673 0 0 1 .48-.2.657.657 0 0 1 .373.118L5.02 2.857a.656.656 0 0 1-.028 1.1 4.592 4.592 0 0 1-.655.32 4.034 4.034 0 0 1-1.496.323zM1.5 2.034l.008.028c.212.767.6 1.164 1.2 1.213.043 0 .088.005.133.005a2.126 2.126 0 0 0 .375-.036l.037-.007L1.5 2.034z" class="cls-5" transform="translate(29.02 38.347)"/>
                </g>
                <g id="arm" transform="translate(8.917 57.39)">
                    <path id="Path-41" d="M2.271.2A4.452 4.452 0 0 1 4.895.192a4.12 4.12 0 0 1 .574.2.658.658 0 0 1-.512 1.208l-.081-.033-.041-.016c-.085-.032-.184-.065-.295-.1a3.178 3.178 0 0 0-1.849-.001 2.583 2.583 0 0 0-1.451 1.3.66.66 0 0 1-1.159-.63A3.894 3.894 0 0 1 2.271.2z" class="cls-5" transform="translate(8.915 12.29)"/>
                    <path id="Path-42" d="M.146 2.292C2.193-.241 4.335-.5 6.135.669a4.388 4.388 0 0 1 .568.439l.072.067c.066.064.117.117.151.156a.655.655 0 0 1-.066.927.663.663 0 0 1-.9-.035l-.06-.059c-.021-.021-.051-.051-.092-.088a3.076 3.076 0 0 0-.4-.306 2.437 2.437 0 0 0-1.648-.418 4.175 4.175 0 0 0-2.585 1.764.662.662 0 0 1-.928.1.655.655 0 0 1-.101-.924z" class="cls-5" transform="translate(7.44 10.335)"/>
                    <g id="hand_13_" transform="translate(31.718 2.16)">
                        <path id="Path-43" d="M0 5.751l3.456-1.315A45.137 45.137 0 0 1 7.352.579c1.189-.9 3.544-.789 1.959.592a5.5 5.5 0 0 0-1.8 2.213 32.753 32.753 0 0 0 6.444-2.63c2.333-1.446 1.827 1.03 1.827 1.03s1.761.241 1.079 1.139c0 0 1.365.767 0 1.556 0 0 1.915.2.814 1.337-.792 1.622-6.339 4.711-9.751 4.448l-1.893.836-2.4 1.183" class="cls-4" transform="translate(.661 .658)"/>
                        <path id="Path_2_10" d="M7.613.713a3.644 3.644 0 0 1 2.525-.684c1.24.2 1.354 1.312.315 2.252l-.047.042q-.213.185-.4.361l-.106.1.2-.071c.5-.179 1-.366 1.48-.56l.285-.117a17.651 17.651 0 0 0 2.3-1.123l.1-.061A2.315 2.315 0 0 1 16.3.392a1.378 1.378 0 0 1 .832 1.234q.012.108.016.216v.092l.065.022.078.028a1.709 1.709 0 0 1 .852.6 1.051 1.051 0 0 1 .185.761l-.006.033a1.42 1.42 0 0 1 .464.946v.062a1.191 1.191 0 0 1-.075.418l-.01.024.027.016a1.262 1.262 0 0 1 .487.508l.026.055a1.3 1.3 0 0 1-.341 1.426l-.02.022-.018.034c-1.18 2.061-6.8 4.826-10.124 4.7h-.033l-1.735.763-2.384 1.175a.662.662 0 0 1-.866-.262l-.02-.035a.656.656 0 0 1 .263-.862L4 12.349l2.4-1.183.026-.012 1.893-.833a.663.663 0 0 1 .318-.054 11.783 11.783 0 0 0 5.513-1.451 9.38 9.38 0 0 0 3.592-2.629.657.657 0 0 1 .118-.168l.054-.058.035-.043-.037-.018-.036-.014a1.992 1.992 0 0 0-.3-.078L17.5 5.8l-.047-.006a.657.657 0 0 1-.3-1.2l.034-.021a1.162 1.162 0 0 0 .245-.178l.015-.016-.014-.019c-.011-.014-.025-.029-.04-.045l-.024-.024a1.088 1.088 0 0 0-.16-.125l-.009-.012a.656.656 0 0 1-.266-.866l.013-.024-.022-.01-.059-.025-.033-.013a2.444 2.444 0 0 0-.333-.1l-.055-.011-.089-.016a.658.658 0 0 1-.564-.744l.013-.074c0-.017.006-.038.009-.064a1.9 1.9 0 0 0 .009-.437.735.735 0 0 0-.03-.148V1.61a.678.678 0 0 0-.086.015l-.031.008a2.542 2.542 0 0 0-.633.292l-.066.04a18.289 18.289 0 0 1-2.597 1.287c-.883.367-1.825.712-2.767 1.024l-.277.091c-.18.059-.352.113-.514.164l-.377.115-.094.028a.659.659 0 0 1-.823-.8 2.868 2.868 0 0 1 .4-.784 8.885 8.885 0 0 1 1.509-1.669l.106-.094h-.028a2.56 2.56 0 0 0-1.056.4l-.055.039a15.533 15.533 0 0 0-1.448 1.31l-.151.15-.279.281c-.364.37-.74.762-1.113 1.158l-.3.32-.508.551a.66.66 0 0 1-.213.156l-.041.017L.9 7.022a.658.658 0 0 1-.511-1.213l.036-.015 3.309-1.259.337-.364.154-.165c.452-.484.914-.968 1.361-1.421l.192-.194.093-.091A17.72 17.72 0 0 1 7.613.713z" class="cls-5"/>
                        <path id="Path-44" d="M0 2.432S4.226 1.4 5.635 0" class="cls-4" transform="translate(10.808 2.442)"/>
                        <path id="Path_2_11" d="M5.828.193a.662.662 0 0 1 .934 0 .655.655 0 0 1 0 .93 8.487 8.487 0 0 1-2.816 1.608C3.26 3 2.529 3.245 1.8 3.46l-.249.072-.348.1-.354.092-.029.007a.658.658 0 0 1-.354-1.27l.286-.074.21-.057c.145-.04.3-.084.462-.132.7-.2 1.391-.436 2.036-.691A7.493 7.493 0 0 0 5.828.193z" class="cls-5" transform="translate(10.147 1.785)"/>
                        <path id="Path-45" d="M0 2.871C.462 2.673 3.83 2.06 5.965 0" class="cls-4" transform="translate(11.358 3.428)"/>
                        <path id="Path_2_12" d="M6.166.185A.662.662 0 0 1 7.1.2a.655.655 0 0 1-.015.93A9.581 9.581 0 0 1 4.8 2.724 15.6 15.6 0 0 1 2.239 3.75l-.3.089c-.425.124-.991.281-1.019.293A.658.658 0 1 1 .4 2.924c.131-.056 1.151-.338 1.446-.43A14.318 14.318 0 0 0 4.2 1.557 8.285 8.285 0 0 0 6.166.185z" class="cls-5" transform="translate(10.698 2.771)"/>
                        <path id="Path-46" d="M0 2.564C.946 2.169 3.06 2.279 5.635 0" class="cls-4" transform="translate(11.908 5.247)"/>
                        <path id="Path_2_13" d="M1.407 3.686l-.062.014-.112.028c-.1.027-.187.051-.255.075l-.063.024a.658.658 0 1 1-.51-1.213 3.719 3.719 0 0 1 .548-.173l.206-.048c.167-.037.7-.154.891-.2a9.078 9.078 0 0 0 1.1-.343A8.823 8.823 0 0 0 5.857.166a.662.662 0 0 1 .932.055.655.655 0 0 1-.055.928 10.14 10.14 0 0 1-3.1 1.927 10.14 10.14 0 0 1-1.1.351l-.164.042c-.253.062-.998.225-.963.217z" class="cls-5" transform="translate(11.248 4.589)"/>
                    </g>
                    <path id="lines_5_" d="M12.141.021a.661.661 0 0 1 .8.474q.16.623.309 1.271a71.871 71.871 0 0 1 1.326 8.009c.1.881.177 1.7.238 2.451l.03.383 17.163-4.653a.662.662 0 0 1 .724.272l.021.034 3.764 6.508a.656.656 0 0 1-.285.92l-1.049.509q-.894.435-2.084 1.02l-1.464.722q-3.17 1.567-7.256 3.619l-1.909.961c-4.882 2.435-8.9 3.762-12.437 3.788-4.708.035-8.147-2.334-9.993-7.484a.66.66 0 0 1 1.244-.442c1.656 4.617 4.59 6.643 8.738 6.612 3.292-.025 7.141-1.3 11.858-3.65L25 19.775q3.114-1.561 5.658-2.82l2.012-.992q1.095-.538 1.931-.945l.417-.2-3.155-5.461-17.448 4.732a.66.66 0 0 1-.83-.561v-.057l-.025-.4-.026-.362-.015-.2c-.061-.782-.143-1.654-.248-2.593a70.6 70.6 0 0 0-1.3-7.862q-.145-.632-.3-1.238a.657.657 0 0 1 .47-.795z" class="cls-5"/>
                </g>
            </g>
            <g id="thinking_man_1_" transform="translate(174.573 15.663)">
                <g id="legs_1_" transform="translate(0 71.463)">
                    <g id="boots" transform="translate(0 57.149)">
                        <path id="boot_1_" d="M26.942 0v20.73H0s-.088-7.6 12.326-9.006V.657z" class="cls-5" transform="translate(22.254)"/>
                        <path id="boot" d="M26.942 0v20.73H0s-.088-7.6 12.326-9.006V.657z" class="cls-5"/>
                    </g>
                    <g id="trousers_4_" transform="translate(8.563)">
                        <path id="Path-47" d="M25.819 2.761L5.283 16.15a15.637 15.637 0 0 0-3.962 9.992L0 63.131h16.949s23.442.416 23.442-1.271c0-1.359 1.387-26.076 1.937-35.85a4.374 4.374 0 0 1 4.16-4.12c4.006-.2 9.949-.482 12.569-.548 20.515-.7 15.034-9.138 12.613-15.142-.947-2.321-1.85-4.513-2.554-6.2" class="cls-4" transform="translate(.66 .658)"/>
                        <path id="Path_2_14" d="M69.523.051a.661.661 0 0 1 .863.355l.8 1.917c.542 1.311 1.144 2.778 1.76 4.292l.106.259c.049.119.1.243.157.377l.564 1.316c.485 1.132.787 1.889 1.051 2.67 1.093 3.238.971 5.682-.9 7.621-2.2 2.273-6.73 3.545-14.185 3.8l-.765.022c-2.344.075-6.369.258-11.788.525a3.715 3.715 0 0 0-3.533 3.5l-.755 13.483c-.721 12.957-1.181 21.523-1.181 22.33a.974.974 0 0 1-.617.875 3.9 3.9 0 0 1-.9.3 20.448 20.448 0 0 1-2.608.373l-.14.013c-2.034.183-4.795.3-8.106.36-3.023.055-6.229.06-9.274.033l-1.891-.021-.568-.009H.66A.659.659 0 0 1 0 63.8v-.038l1.321-36.985a16.292 16.292 0 0 1 4.133-10.412.659.659 0 0 1 .093-.084l.034-.024L26.118 2.869a.662.662 0 0 1 .914.19.655.655 0 0 1-.158.887l-.033.023L6.376 17.31l-.046.051a14.986 14.986 0 0 0-3.683 9.3l-.006.16-1.3 36.308h16.321l1.508.02h.154c3.256.035 6.734.034 9.994-.025l.844-.017c2.77-.06 5.112-.164 6.9-.315l.264-.023a20.855 20.855 0 0 0 2.5-.341l.068-.016a3.871 3.871 0 0 0 .457-.132l.047-.018.016-.436c.1-2.435.542-10.6 1.195-22.329l.721-12.872a5.033 5.033 0 0 1 4.787-4.738l4.14-.2c3.924-.186 6.792-.307 8.439-.348 7.136-.244 11.375-1.433 13.272-3.4 1.458-1.508 1.555-3.468.6-6.291l-.058-.171c-.2-.57-.427-1.151-.75-1.918l-.729-1.7c-.09-.213-.169-.4-.243-.581l-1.1-2.7C70.129 3.229 69.61 1.973 69.166.91a.656.656 0 0 1 .357-.859z" class="cls-5"/>
                        <path id="Path-48" d="M28.428.05a.658.658 0 0 1 .54 1.2l-.035.016-23.524 9.686-.02.013c-1.492.953-2.248 3.08-2.548 6.459l-.035.42c-.043.547-.07 1.032-.1 1.856l-.061 1.555L1.32 62.561a.66.66 0 0 1-1.32 0v-.039l1.321-41.315.069-1.734c.037-.871.068-1.363.123-2.02.329-3.9 1.218-6.412 3.249-7.649a.661.661 0 0 1 .061-.033l.032-.014z" class="cls-5" transform="translate(18.842 1.249)"/>
                    </g>
                </g>
                <path id="shape_10_" d="M60.417 34.344C54.32-1.856 44.371 3.249 39.308 3.425l-11.534.46a4 4 0 0 0-.044-.46c-.088-.416-.55-.745-1.123-1.03v-.022C28.082 2 30.9 1.189 30.878.554 30.834-.344 25.2.094 23.46.2a19.4 19.4 0 0 0-4.05 1.074 7.154 7.154 0 0 0-4.248 3.857c-.308.7-1.255 3.09-1.541 3.769L9.967 7.259S2.989 23.124 1.382 27.244a15.754 15.754 0 0 0-.462 1.578C-2.492 38.989 4.684 44.27 4.684 44.27l35.064.351-4.072 3.44c-.594.679 19.128-.855 19.81-.767.352.044-1.431-2.651-3.236-5.281 4.271-1.731 8.431-4.313 8.167-7.669z" class="cls-6" transform="translate(23.689 23.774)"/>
                <g id="lines_4_" transform="translate(36.539 33.948)">
                    <path id="Path-49" d="M.044.581a.66.66 0 0 1 1.312.153 11.98 11.98 0 0 0 .822 4.847 36.055 36.055 0 0 0 1.338 3.357c.487 1.074 1.008 2.119 1.53 3.094l.134.249.129.236.088.16.108-.065a9.1 9.1 0 0 1 6.823-1.36l.089.022a4.118 4.118 0 0 1 .687.226.658.658 0 0 1-.519 1.208l-.065-.027-.064-.024c-.1-.036-.221-.073-.361-.108-1.779-.445-4.02-.118-6.557 1.6a.662.662 0 0 1-.92-.176l-.046-.073-.141-.246-.153-.272c-.124-.222-.257-.465-.4-.728-.535-1-1.069-2.069-1.569-3.172A37.339 37.339 0 0 1 .925 6 13.076 13.076 0 0 1 .044.581z" class="cls-5" transform="translate(26.551 5.215)"/>
                    <path id="Path-50" d="M18.76.384a.656.656 0 0 1-.292.854l-.231.106L4.851 7.446C2.613 8.469 1.23 9.107 1 9.22l-.025.013A.658.658 0 0 1 .31 8.1l.035-.02c.2-.107 2.493-1.162 6.481-2.982L14.27 1.7 17.885.06a.662.662 0 0 1 .875.324z" class="cls-5" transform="translate(13.691 18.21)"/>
                    <path id="Path-51" d="M4.723.392a.661.661 0 0 1 .835-.35l.036.015 2.091.92a.657.657 0 0 1 .368.783l-.012.04-6.758 19.061a.66.66 0 0 1-1.257-.4l.012-.037L6.592 1.933 5.06 1.259a.656.656 0 0 1-.352-.831z" class="cls-5"/>
                </g>
                <g id="head_10_" transform="translate(42.548)">
                    <path id="neck_9_" d="M12.855 10.233L8.827 0 0 5.588l1.079 4.952-.287 10.518z" class="cls-4" transform="translate(7.022 18.675)"/>
                    <path id="neck_10_2" d="M1.457 22.375a.677.677 0 0 1-.481-.2.646.646 0 0 1-.183-.475l.284-10.439L.015 6.385a.656.656 0 0 1 .255-.67l.036-.024L9.132.1a.661.661 0 0 1 .968.318l4.03 10.233a.659.659 0 0 1-.173.728L1.895 22.2a.647.647 0 0 1-.438.175zM9.164 1.641L1.4 6.554l.981 4.5a.686.686 0 0 1 .014.1v.053L2.154 20.2l10.579-9.494z" class="cls-5" transform="translate(6.361 18.017)"/>
                    <path id="hair_back_1_" d="M3.522.167S10.984 4.9 7.33 9.305c0 0-1.629 1.841-2.972 1.468 0 0 .991-1.556-.132-2.389 0 0-.374 4.689-4.226 3.725a7.027 7.027 0 0 0 1.057-4.557C.286 2.337 1.5-.775 3.522.167z" class="cls-5" transform="translate(0 7.288)"/>
                    <path id="face_9_" d="M16.61 10.97s1.5-9.16-7.814-10.8C7.938.014 1.973-.906.85 4a40.549 40.549 0 0 0-.836 9.62c0 .022.044 5.237 2.091 8.152s6.647 2.673 9.069 1.271c2.443-1.4 2.883-2.147 3.588-3.835a71.9 71.9 0 0 0 1.848-8.238z" class="cls-4" transform="translate(2.407 4.001)"/>
                    <path id="face_10_2" d="M7.788 25.366c-.228 0-.456-.009-.678-.025a7.382 7.382 0 0 1-2.81-.75 5.611 5.611 0 0 1-2.075-1.783 12.926 12.926 0 0 1-1.9-5.278c-.118-.707-.206-1.44-.26-2.179-.018-.242-.032-.479-.041-.7 0-.087-.006-.159-.008-.219l-.009-.416a46.779 46.779 0 0 1 .16-4.9 34.253 34.253 0 0 1 .7-4.593l.024-.1A5.407 5.407 0 0 1 2.518 1.6 6.232 6.232 0 0 1 5.447.2 10.016 10.016 0 0 1 7.494 0c.179 0 .363 0 .547.012a11.718 11.718 0 0 1 1.531.165L9.705.2a10.924 10.924 0 0 1 4.751 2.005A8.73 8.73 0 0 1 17.2 5.852a11.676 11.676 0 0 1 .775 5.459c-.022.237-.042.374-.05.422l-.006.06c-.072.579-.4 2.277-.761 3.951a41.615 41.615 0 0 1-1.07 4.236l-.037.1-.017.042A7.711 7.711 0 0 1 14.71 22.4a9.285 9.285 0 0 1-2.334 1.746l-.209.121a8.985 8.985 0 0 1-4.379 1.099zM7.5 1.315a8.694 8.694 0 0 0-1.776.173 4.909 4.909 0 0 0-2.325 1.1 3.793 3.793 0 0 0-.764.959A4.722 4.722 0 0 0 2.16 4.81l-.06.234a39.873 39.873 0 0 0-.767 9.228V14.486l.014.313c0 .079.008.151.013.221l.016.234c.051.7.134 1.39.246 2.06a16.37 16.37 0 0 0 .658 2.667 8.453 8.453 0 0 0 1.02 2.074 4.037 4.037 0 0 0 .856.884 4.97 4.97 0 0 0 1.1.627 6.819 6.819 0 0 0 2.617.5 7.341 7.341 0 0 0 3.63-.931 9.116 9.116 0 0 0 2.117-1.494 5.8 5.8 0 0 0 1.122-1.86l.085-.2a34.169 34.169 0 0 0 1.135-4.583l.081-.405c.129-.645.259-1.324.387-2.019l.019-.106.139-.772.015-.064v-.009.006a.653.653 0 0 1 .009-.106l.016-.121c.008-.066.015-.136.022-.21l.011-.133a10.35 10.35 0 0 0-.694-4.709 7.852 7.852 0 0 0-.983-1.742 7.231 7.231 0 0 0-1.404-1.413 8.337 8.337 0 0 0-1.873-1.056 11.563 11.563 0 0 0-2.367-.667 10.439 10.439 0 0 0-1.359-.146c-.163-.007-.327-.011-.481-.011z" class="cls-5" transform="translate(1.747 3.344)"/>
                    <path id="nose_9_" d="M.961.523a.66.66 0 0 1 1.3.232l-.008.037L1.5 4.349l.7-.112a.66.66 0 0 1 .749.507l.007.038a.658.658 0 0 1-.51.746l-.038.007L.765 5.8a.659.659 0 0 1-.757-.747l.007-.037z" class="cls-5" transform="translate(4.666 14.95)"/>
                    <ellipse id="eye_II_9_" cx=".723" cy=".463" class="cls-5" rx=".723" ry=".463" transform="rotate(-84.67 10.546 5.953)"/>
                    <ellipse id="eye_9_" cx=".463" cy=".723" class="cls-5" rx=".463" ry=".723" transform="rotate(-5.439 162.608 -77.721)"/>
                    <path id="brow_II_7_" d="M.585.02a2.757 2.757 0 0 1 2.052.565 2.862 2.862 0 0 1 .42.4 2 2 0 0 1 .163.215.656.656 0 0 1-.2.908.662.662 0 0 1-.889-.167L2.107 1.9a1.321 1.321 0 0 0-.28-.281 1.432 1.432 0 0 0-1.019-.3l-.072.007A.657.657 0 1 1 .585.02z" class="cls-5" transform="translate(8.628 10.967)"/>
                    <path id="brow_10_" d="M1.607.006a3.4 3.4 0 0 1 1.21.157 3.608 3.608 0 0 1 .456.168.658.658 0 0 1-.521 1.208l-.076-.033c-.054-.022-.138-.053-.243-.085a2.13 2.13 0 0 0-.736-.1.641.641 0 0 0-.48.208l-.024.031a.662.662 0 0 1-.923.14.655.655 0 0 1-.142-.92A1.926 1.926 0 0 1 1.607.006z" class="cls-5" transform="translate(2.201 10.341)"/>
                    <path id="hair_front_1_" d="M.79 1.1s-3.61 12.271 4.6 13.586c0 0 4.776.877 5.877-.789 0 0-3.456-1.863-2.994-3.813 0 0 3.874 4.273 7.286 1.249 0 0-5.657-.986-5.107-6.048C10.806 1.628 2.067-1.835.79 1.1z" class="cls-5" transform="translate(10.964 6.989)"/>
                    <path id="cap_2_" d="M25.489 9.932l-5-.789C20.008 5.79 18.071.969 11.182.115.4-1.2 0 9.23 0 9.23l24.983 3.9a1.65 1.65 0 0 0 1.871-1.359 1.612 1.612 0 0 0-1.365-1.839z" class="cls-3" transform="translate(1.255)"/>
                    <path id="mouth_9_" d="M3.007.391a.66.66 0 0 1 1.206.534 2.048 2.048 0 0 1-.17.3 2.949 2.949 0 0 1-.492.559 3.483 3.483 0 0 1-3 .731.657.657 0 1 1 .217-1.3A2.175 2.175 0 0 0 2.674.8a1.639 1.639 0 0 0 .273-.312l.038-.06L3 .4z" class="cls-5" transform="translate(6.669 20.274)"/>
                </g>
                <g id="hand_II_5_" transform="translate(35.35 22.731)">
                    <path id="Path-52" d="M0 8.872c.11-.285.22-.548.308-.811.462-1.205.858-2.169 1.211-2.936a7.154 7.154 0 0 1 4.248-3.856A20.486 20.486 0 0 1 9.817.195c1.739-.11 7.374-.526 7.418.351.044.635-2.8 1.446-4.27 1.819L11.8 6.834a7.279 7.279 0 0 0-2.047.526C8.364 8.105 7 9.354 5.987 9.245c0 0-.066.723-.286 1.95" class="cls-4" transform="translate(.661 .657)"/>
                    <path id="Path_2_15" d="M13.916.016l.293-.007a21.577 21.577 0 0 1 2.5.061 4.594 4.594 0 0 1 1.056.206 1 1 0 0 1 .789.882c.034.484-.261.807-.757 1.107a7.456 7.456 0 0 1-1.237.563c-.649.24-1.428.477-2.244.694l-.15.04L13.1 7.657a.659.659 0 0 1-.523.482l-.042.006-.091.011-.123.017-.135.021c-.266.043-.531.1-.774.158a3.156 3.156 0 0 0-.685.244l-.107.058c-.215.119-.437.255-.728.442l-.913.593a7.93 7.93 0 0 1-.793.465 4 4 0 0 1-.879.347l-.065.015-.014.106c-.044.319-.1.672-.163 1.054l-.051.293a.66.66 0 0 1-1.3-.231l.049-.282c.063-.368.115-.706.156-1.011l.015-.113.03-.235.028-.254a.659.659 0 0 1 .69-.6l.081.006c.359.019.8-.213 2.1-1.055l.237-.156c.4-.26.691-.435.991-.6a4.333 4.333 0 0 1 .986-.362c.23-.059.47-.11.712-.152l.141-.024 1.056-4.047a.659.659 0 0 1 .436-.46l.041-.012.337-.081c.842-.221 1.65-.463 2.3-.7.176-.065.337-.129.482-.191l.046-.02-.052-.005-.166-.015a22.943 22.943 0 0 0-2.323-.036h-.135c-.578.016-1.186.043-1.85.08l-.644.038-.934.06a18.671 18.671 0 0 0-3.666.965l-.222.076a6.5 6.5 0 0 0-3.813 3.409l-.123.277c-.279.62-.59 1.373-.948 2.291l-.159.411-.014.042c-.026.075-.054.151-.086.236l-.214.547a.66.66 0 0 1-1.235-.471l.163-.415.066-.174L.31 8.6l.032-.093.01-.027.167-.433c.4-1.031.748-1.863 1.057-2.536A7.811 7.811 0 0 1 6.1 1.342l.354-.122A19.12 19.12 0 0 1 10.436.2l1.05-.067.314-.022.45-.025c.591-.032 1.14-.056 1.666-.07z" class="cls-5"/>
                    <path id="Path-53" d="M0 0s4.072.5 4.38 1.885-.858 1.446-.858 1.446" class="cls-4" transform="translate(10.346 2.211)"/>
                    <path id="Path_2_16" d="M.005.576A.66.66 0 0 1 .742.005l.2.028.2.03c.1.016.21.035.323.055a15.2 15.2 0 0 1 1.582.37l.179.054C4.6.971 5.49 1.524 5.685 2.4a1.72 1.72 0 0 1-.713 2.009 1.777 1.777 0 0 1-.5.2 1.534 1.534 0 0 1-.255.039.657.657 0 0 1-.113-1.309h.039l.029-.006a.47.47 0 0 0 .128-.05c.128-.075.18-.2.093-.591-.057-.255-.7-.634-1.724-.936a13.9 13.9 0 0 0-1.439-.343l-.2-.035-.1-.016-.3-.045-.051-.007A.658.658 0 0 1 .005.576z" class="cls-5" transform="translate(9.685 1.554)"/>
                    <path id="Path-54" d="M0 0s3.588.767 3.786 2.147-.946 1.381-.946 1.381" class="cls-4" transform="translate(10.191 3.833)"/>
                    <path id="Path_2_17" d="M.015.52A.66.66 0 0 1 .8.015l.145.033L1.15.1l.281.075a12.807 12.807 0 0 1 1.376.461C4.124 1.17 4.97 1.8 5.1 2.712a1.743 1.743 0 0 1-.794 1.913 1.751 1.751 0 0 1-.534.19 1.53 1.53 0 0 1-.272.028.657.657 0 0 1-.039-1.314H3.5c-.008 0 .005 0 .031-.006a.445.445 0 0 0 .132-.046c.124-.069.184-.2.13-.579-.039-.27-.585-.68-1.484-1.044a11.514 11.514 0 0 0-1.233-.414L.9 1.394l-.16-.041-.173-.043-.045-.01A.657.657 0 0 1 .015.52z" class="cls-5" transform="translate(9.531 3.175)"/>
                    <path id="Path-55" d="M.189 0S4.5.986 2.852 2.5.365 3.835.365 3.835s-1.189-.745.726-1.906" class="cls-4" transform="translate(9.761 5.849)"/>
                    <path id="Path_2_18" d="M.215.51a.66.66 0 0 1 .792-.493l.1.025c.1.026.244.063.409.111a10.9 10.9 0 0 1 1.115.384 3.934 3.934 0 0 1 1.587 1.034 1.418 1.418 0 0 1-.249 2.068C2.682 4.818 1.679 5.222.988 5.149A.889.889 0 0 1 .9 5.136a.662.662 0 0 1-.216-.087 1.48 1.48 0 0 1-.335-.3c-.681-.8-.384-1.846 1.069-2.728A.658.658 0 1 1 2.1 3.147a2.946 2.946 0 0 0-.619.473.857.857 0 0 0-.126.166l-.003.014.021-.006.076-.026.086-.033A5.261 5.261 0 0 0 3 2.743l.134-.122c.13-.121.131-.136.071-.211L3.19 2.4a2.915 2.915 0 0 0-1.064-.644 9.609 9.609 0 0 0-.977-.337c-.088-.03-.171-.053-.249-.073L.711 1.3A.657.657 0 0 1 .215.51z" class="cls-5" transform="translate(9.091 5.191)"/>
                </g>
                <g id="hand_12_" transform="translate(38.133 60.222)">
                    <path id="Path-56" d="M7.022 0C6.339.131 5.591.263 4.8.416 4.534.46 0 3.331 0 3.331l4.666 3s.33.329 7.4-.11C11.578 4.47 8.937 1.775 7.022 0z" class="cls-4" transform="translate(6 .657)"/>
                    <path id="Path_2_19" d="M7.076 7.768a14.62 14.62 0 0 1-1.5-.059l-.128-.016a1.054 1.054 0 0 1-.494-.162l-.008-.006L.3 4.54a.648.648 0 0 1-.3-.533.655.655 0 0 1 .27-.549l.036-.024.958-.6.7-.436.678-.422.722-.446A9.944 9.944 0 0 1 5.333.428L7.556.012 7.6 0a.663.663 0 0 1 .531.171 37.529 37.529 0 0 1 3.5 3.623 8.712 8.712 0 0 1 1.731 2.907.658.658 0 0 1-.6.83c-2.471.153-4.385.231-5.688.231zm.4-6.4l-1.83.342-.066.034-.11.06c-.1.053-.214.122-.364.21l-.433.259c-.339.2-.751.457-1.258.771l-.753.468-.776.485 3.722 2.391.065.009a12.239 12.239 0 0 0 1.39.057c1 0 2.382-.048 4.119-.142l.574-.032-.056-.092a23.712 23.712 0 0 0-4.15-4.749l-.079-.074z" class="cls-5" transform="translate(5.339)"/>
                    <path id="Path-57" d="M11.46 0a33.686 33.686 0 0 0-6.076.833C3.535 1.271.388 2.016.1 2.454c-.682 1.074 2.245 1.337 3.522.394" class="cls-4" transform="translate(.659 .986)"/>
                    <path id="Path_2_20" d="M12.779.638a.658.658 0 0 1-.6.674l-.163.007-.286.015h-.082c-.4.024-.849.06-1.334.109a31.9 31.9 0 0 0-3.83.614l-1.236.293c-.384.093-.685.167-1.025.253l-.3.075q-.505.13-.931.249l-.214.061c-.416.12-.763.231-1.033.33l-.133.051.032.006c.048.009.1.017.153.023l.055.006a3.317 3.317 0 0 0 1.985-.4l.05-.035a.662.662 0 0 1 .924.137.655.655 0 0 1-.137.92 4.5 4.5 0 0 1-2.956.685 2.443 2.443 0 0 1-1.293-.45 1.1 1.1 0 0 1-.22-1.515c.256-.391.9-.65 2.243-1.032l.187-.053q.44-.124.957-.257l.68-.172c.436-.108.882-.215 1.615-.389A32.7 32.7 0 0 1 10.178.14c.448-.046.866-.08 1.247-.1l.141-.009c.147-.009.277-.016.39-.021L12.1 0a.659.659 0 0 1 .679.638z" class="cls-5" transform="translate(0 .329)"/>
                    <path id="Path-58" d="M3.6 4.207C1 5.128-.389 5.347.1 4.273c.286-.614 4.556-3 5.393-3.287C6.347.679 11.057 0 11.057 0" class="cls-4" transform="translate(1.964 .767)"/>
                    <path id="Path_2_21" d="M12.37.563a.658.658 0 0 1-.521.738l-.925.138-.569.087c-.378.059-.752.118-1.113.177l-.268.044-.591.1-.318.053a16.322 16.322 0 0 0-1.68.355l-.023.008A25.507 25.507 0 0 0 3.58 3.73l-.232.137c-.5.3-.939.575-1.291.815l-.08.055q-.145.1-.263.189l-.014.012h.017a16.5 16.5 0 0 0 2.2-.65l.112-.04a.658.658 0 1 1 .443 1.239l-.359.126a11.428 11.428 0 0 1-2.725.687C.3 6.365-.306 5.677.156 4.654a7.206 7.206 0 0 1 2.469-1.888l.284-.166a26.017 26.017 0 0 1 2.983-1.564l.032-.011a14.006 14.006 0 0 1 1.793-.4l.3-.053L8.45.5l.307-.049C9.2.376 9.675.3 10.152.228l.69-.105.78-.115a.66.66 0 0 1 .748.555z" class="cls-5" transform="translate(1.305 .109)"/>
                    <path id="Path-59" d="M5.117 0a29.47 29.47 0 0 0-3.1 1.424C.671 2.169-.1 2.914.01 3.177a1.954 1.954 0 0 0 2.069.329 23.286 23.286 0 0 1 4.029-1.753 27.934 27.934 0 0 0-3.3 1.381C1.749 3.572.957 4.689 3.6 4.317l4-.46" class="cls-4" transform="translate(3.612 3.112)"/>
                    <path id="Path_2_22" d="M6.395.42a.656.656 0 0 1-.377.851l-.19.075-.193.078-.318.132c-.528.222-1.056.459-1.546.7-.28.137-.539.271-.774.4a8.367 8.367 0 0 0-1.365.918l-.042.036.053.012a1.4 1.4 0 0 0 .776-.038h.01l.027-.018q.171-.11.376-.223l.1-.057c.365-.2.8-.4 1.288-.608.341-.145.7-.288 1.059-.427l.059-.022.353-.157c.694-.3.88-.344 1.129-.314l.039.005a.657.657 0 0 1 .156 1.26l-.224.077-.291.1-.214.077-.225.083-.19.071-.471.215-.963.441c-.188.085-.341.153-.479.212l-.164.069h.011q.139-.013.3-.034l.081-.011 4.006-.46a.657.657 0 0 1 .19 1.3l-.038.006-3.989.458a4.9 4.9 0 0 1-1.616.026 1.1 1.1 0 0 1-.862-.637l-.017-.049h-.011a2.091 2.091 0 0 1-1.769-.84l-.017-.039c-.329-.788.661-1.676 2.291-2.58.256-.142.535-.287.834-.433C3.7.822 4.253.575 4.8.344l.33-.137.285-.113.125-.049a.661.661 0 0 1 .855.375z" class="cls-5" transform="translate(2.95 2.454)"/>
                </g>
            </g>
            <g id="hoodie_man_2_" transform="translate(231.494 14.81)">
                <g id="legs" transform="translate(0 71.002)">
                    <path id="shoe_II_1_" d="M12.789 4.339l.286 17.881S2.729 24.63 0 33.2l22.892-.022L26.546 0z" class="cls-3" transform="translate(26.414 46.105)"/>
                    <path id="shoe_2_" d="M14.924 2.038L12.3 19.481S2.575 21.8 0 29.867l21.505-.022L28.307 0z" class="cls-3" transform="translate(0 49.304)"/>
                    <path id="trousers_3_" d="M84.172 14.024L83.071.066 40.457 0l-.814 4.777-6.582-.177c-16.684-.743-19.348 11.769-19.348 11.769L0 69.705l20.383.088 10.389-37.669-4.71 37.3 20.735.307 4.05-38.37c4.887-1.118 20.757-4.821 24.829-6.99 4.115-1.516 8.694-6.687 8.496-10.347z" class="cls-5" transform="translate(4.578)"/>
                </g>
                <path id="hoodie_2_" d="M72.814 23.94A48.676 48.676 0 0 0 58 9.346C60.575 5.16 60.113.931 49.306.055 31.785-.559 30 4.109 29.98 7.768A38.209 38.209 0 0 0 18.6 21.836c-2.509-2.323-7.154-6.552-8.342-7.341-1.651-1.1-2.707.833-4.028.153-1.343-.679-1.783-.877-1.783-.877S3.28 17.848 0 18.966a5.7 5.7 0 0 0 .792 1.884c.726 1.271-.858 2.191.33 3.769C2.289 26.2 12.5 39.169 12.5 39.169c1.233 1.205 4.094 5.478 7.2 4.185v-.284c.088.11.132.153.132.153s10.654.044 22.033.11l-.594 3.638c27.911 2.673 25.951 15.317 33.678 10.321l-.836-16.829c2.641-3.112 3.741-8.744-1.299-16.523z" class="cls-3" transform="translate(15.32 24.798)"/>
                <path id="shirt_4_" d="M16.046.012l2.8 1.863S8.43 8.207 7.065 24.511c-.9 10.825-1.1 23.4-1.1 23.4l-4.843.679S2.729 19.011.836 13.51.682 1.809 1.958.823C3.213-.163 16.046.012 16.046.012z" class="cls-4" transform="translate(50.605 29.53)"/>
                <g id="hand_II_4_" transform="translate(7.537 30.575)">
                    <path id="Path-60" d="M7.318 3.659C7.142 3.55 2.146.373.825.044-.474-.285-.65 1.271 3.378 3.484a4.283 4.283 0 0 0-.792 4.821c.374.855 3.786 4.229 4.953 4.361s5.569-1.008 4.644-3.725C11.281 6.223 9.7 5.237 7.318 3.659z" class="cls-4" transform="translate(.662 .654)"/>
                    <path id="Path_2_23" d="M8.414 13.988a2.59 2.59 0 0 1-.288-.015 3.489 3.489 0 0 1-1.329-.63 16.141 16.141 0 0 1-1.7-1.337 11.365 11.365 0 0 1-2.453-2.782 5.2 5.2 0 0 1-.468-2.462A4.868 4.868 0 0 1 2.868 4.6c.041-.069.086-.141.132-.212l.041-.06-.071-.048A7.417 7.417 0 0 1 .2 1.8l-.03-.053A1.266 1.266 0 0 1 .158.5 1.171 1.171 0 0 1 1.182 0a1.9 1.9 0 0 1 .465.061A14.738 14.738 0 0 1 4.6 1.5l.312.18.429.251c.628.369 1.311.782 2.029 1.227l.414.257.559.351 1.085.723c.125.085.222.151.314.216l.394.282a9.915 9.915 0 0 1 2.08 1.951 8.081 8.081 0 0 1 1.257 2.449 2.606 2.606 0 0 1-.129 2.131 4.015 4.015 0 0 1-1.721 1.59 7.91 7.91 0 0 1-1.656.645 6.261 6.261 0 0 1-1.553.235zM1.481 1.383l.013.019A9.215 9.215 0 0 0 4.36 3.563a.656.656 0 0 1 .132 1.055l-.02.019-.048.051-.067.077a3.684 3.684 0 0 0-.352.5A3.576 3.576 0 0 0 3.854 8.7a11.264 11.264 0 0 0 2.063 2.269 7.145 7.145 0 0 0 2.359 1.7 1.434 1.434 0 0 0 .159.008 4.938 4.938 0 0 0 1.2-.2 6.722 6.722 0 0 0 1.361-.53 2.8 2.8 0 0 0 1.129-.969 1.371 1.371 0 0 0 .1-1.177 6.856 6.856 0 0 0-1.036-2.042 8.367 8.367 0 0 0-1.74-1.644l-.191-.14c-.2-.147-.341-.244-.568-.4l-1.059-.704-.421-.264-.538-.335-.337-.208c-.591-.363-1.152-.7-1.667-1L4.567 3l-.042-.025-.279-.163a21.534 21.534 0 0 0-2.76-1.428z" class="cls-5"/>
                    <path id="Path-61" d="M5 1.474S.66-.235.22.028c-.616.351.066 2.1 2 2.958 0 0-1.343 1.731-.594 3.068" class="cls-4" transform="translate(5.472 4.659)"/>
                    <path id="Path_2_24" d="M.548.125C1-.145 1.705.028 3.379.6l.094.032.427.146c.347.122.7.251 1.05.381l.534.2.419.162a.658.658 0 1 1-.486 1.222l-.407-.157-.183-.07c-.451-.171-.915-.342-1.368-.5l-.42-.146-.32-.108c-.448-.148-.835-.265-1.142-.343l-.121-.029-.08-.018a1.645 1.645 0 0 0 .1.232l.028.05a3.545 3.545 0 0 0 1.655 1.392.656.656 0 0 1 .279.97l-.055.075-.069.1a4.367 4.367 0 0 0-.245.421A2.593 2.593 0 0 0 2.733 5.9a1.158 1.158 0 0 0 .111.437l.029.056a.66.66 0 0 1-1.154.64 2.447 2.447 0 0 1-.3-1.049 3.818 3.818 0 0 1 .477-1.969l.058-.115h-.006A4.646 4.646 0 0 1 .4 2.381L.358 2.3C-.123 1.459-.162.568.5.151z" class="cls-5" transform="translate(4.804 3.998)"/>
                    <path id="welt_1_" d="M.991 7.209A6.773 6.773 0 0 1 0 5.325C3.148 4.624 4.71 0 4.71 0a9.423 9.423 0 0 1 2 .942 2 2 0 0 0 1.475 0C8.739 5.281 3.17 8.656 1.233 9.6c-.22-.922.418-1.426-.242-2.391z" class="cls-5" transform="translate(7.211 7.886)"/>
                </g>
                <g id="hand_11_" transform="translate(40.236 55.671)">
                    <path id="Path-62" d="M11.8.668A35.721 35.721 0 0 0 5.7.011C3.788-.011.552-.033.178.317c-.9.877 1.849 1.841 3.324 1.227" class="cls-4" transform="translate(.66 .66)"/>
                    <path id="Path_2_25" d="M.385.5L.419.469c.545-.455 2.034-.5 5.953-.455a34.509 34.509 0 0 1 4.2.334c.415.057.8.117 1.164.179l.3.052.337.063.227.043a.657.657 0 0 1-.236 1.293l-.17-.033c-.111-.022-.242-.046-.389-.073-.423-.076-.9-.152-1.412-.223a33.206 33.206 0 0 0-4.036-.321L5.39 1.32c-.938-.006-1.665 0-2.347.022l-.222.008c-.433.017-.8.042-1.082.074l-.13.016.019.009c.046.021.1.043.15.064l.055.02a3.282 3.282 0 0 0 2.015.089l.059-.022a.658.658 0 1 1 .509 1.213 4.473 4.473 0 0 1-3.033-.043 2.443 2.443 0 0 1-1.142-.749A1.1 1.1 0 0 1 .385.5z" class="cls-5"/>
                    <path id="Path-63" d="M10.808.307C9.487.219 7.66.11 5.349 0 5.085-.022 0 1.688 0 1.688l3.808 4.031s.22.373 6.229 1.49" class="cls-4" transform="translate(5.812 1.109)"/>
                    <path id="Path_2_26" d="M6.041 0l1.048.051c1.627.082 3.1.168 4.423.256a.657.657 0 1 1-.088 1.312l-.636-.041c-1.077-.069-2.246-.136-3.512-.2l-1.238-.062-.038.01-.109.028-.144.04c-.124.035-.274.08-.449.133l-.253.073c-.323.1-.705.222-1.137.361l-.493.16-.575.188-.589.194-.405.134 3.041 3.22.061.025c.11.043.274.1.5.165l.176.05c1 .28 2.68.65 5.193 1.117a.657.657 0 1 1-.243 1.292l-.884-.161C5.935 7.629 4.441 7.215 4 6.831l-.011-.01-.005.005L.18 2.794a.656.656 0 0 1 .231-1.059l.255-.087.574-.192 1.187-.392.992-.323A14.75 14.75 0 0 1 6.023 0z" class="cls-5" transform="translate(5.152 .453)"/>
                    <path id="Path-64" d="M3.6 2.706C.852 2.969-.535 2.86.191 1.918.609 1.392 5.342.1 6.222.011c.9-.088 5.635.373 5.635.373" class="cls-4" transform="translate(1.527 .901)"/>
                    <path id="Path_2_27" d="M6.819.014l.067-.005A21.811 21.811 0 0 1 9.254.1l.607.046.568.046.914.078.7.063.54.051a.657.657 0 0 1-.09 1.311h-.053l-.62-.058-.593-.054-.907-.083-.562-.045-.648-.045a21.37 21.37 0 0 0-2.138-.09h-.023a27.116 27.116 0 0 0-3.066.765l-.26.078c-.6.182-1.128.359-1.541.516l-.158.061-.141.06-.039.016h.022a16.052 16.052 0 0 0 2.2-.088l.234-.019a.657.657 0 1 1 .126 1.309l-.251.023a11.95 11.95 0 0 1-2.945.026c-1.067-.2-1.482-1.012-.8-1.9C.649 1.772 1.679 1.374 3.4.86l.289-.087a25.345 25.345 0 0 1 3.13-.759z" class="cls-5" transform="translate(.866 .244)"/>
                    <path id="Path-65" d="M5.7 0a30.578 30.578 0 0 0-3.342.635C.884 1.03-.063 1.578 0 1.841a2.025 2.025 0 0 0 1.937.811 25.267 25.267 0 0 1 4.336-.745 27.542 27.542 0 0 0-3.544.548C1.61 2.63.554 3.506 3.217 3.791l3.983.526" class="cls-4" transform="translate(2.947 2.577)"/>
                    <path id="Path_2_28" d="M7.022.573a.658.658 0 0 1-.57.736l-.211.029-.214.031-.352.054c-.586.093-1.171.2-1.714.319-.275.06-.532.122-.768.185a8.62 8.62 0 0 0-1.471.524l-.09.045.044.023a1.361 1.361 0 0 0 .753.152h.014l.024-.008a12.519 12.519 0 0 1 1.711-.4l.13-.022c.322-.054.657-.1 1-.15l.109-.015L5.859 2a2.627 2.627 0 0 1 1.261-.07l.057.02A.657.657 0 0 1 7 3.219l-.209.02-.325.034-.238.027-.5.06-.1.013-.378.07-1.05.197c-.238.044-.408.073-.569.1l-.051.008q.139.021.3.039l.081.009 3.984.526a.657.657 0 0 1-.13 1.308h-.039L3.809 5.1a4.962 4.962 0 0 1-1.576-.367 1.093 1.093 0 0 1-.682-.833v-.033l-.039-.007A2.209 2.209 0 0 1 .036 2.7l-.011-.04c-.218-.867.994-1.51 2.825-2 .257-.069.533-.135.827-.2.49-.107 1.007-.2 1.529-.291l.26-.044.366-.056.45-.063a.66.66 0 0 1 .74.567z" class="cls-5" transform="translate(2.285 1.92)"/>
                    <path id="welt_2_" d="M1.717 8.984A5.539 5.539 0 0 1 0 8.108c1.695-2.63 0-6.99 0-6.99s.44-.11 1.8-.394A1.5 1.5 0 0 0 2.839 0c2.817 3.177 1.123 8.743.374 10.759-.66-.569-.506-1.402-1.496-1.775z" class="cls-5" transform="translate(14.507 .211)"/>
                </g>
                <g id="hoodie_lines" transform="translate(33.875 41.156)">
                    <path id="Path-66" d="M4.1 0a.657.657 0 0 1 .163 1.3l-.075.009a2.41 2.41 0 0 0-.385.1 3.3 3.3 0 0 0-1.048.59A4.441 4.441 0 0 0 1.309 4.7a.66.66 0 0 1-1.3-.247A5.74 5.74 0 0 1 1.908 1 4.616 4.616 0 0 1 3.376.173 3.34 3.34 0 0 1 4.1 0z" class="cls-5" transform="translate(36.693 10.474)"/>
                    <path id="Path-67" d="M4.182.065a.656.656 0 0 1 .326.84L4.487.95l-.1.222-.113.246c-.087.192-.182.4-.281.629-.38.865-.76 1.791-1.114 2.74-.365.977-.681 1.924-.936 2.818a17.712 17.712 0 0 0-.621 3.021A.66.66 0 0 1 0 10.5a18.953 18.953 0 0 1 .665-3.25c.265-.93.592-1.91.968-2.918.367-.977.756-1.925 1.145-2.812l.149-.336q.072-.162.14-.31L3.3.373a.662.662 0 0 1 .882-.308z" class="cls-5" transform="translate(25.115)"/>
                    <path id="Path-68" d="M.511.017A.66.66 0 0 1 1.3.509L1.347.7 1.4.952l.058.282.077.387c.089.461.178.955.261 1.473a38.187 38.187 0 0 1 .468 4.322 19.548 19.548 0 0 1-.064 2.977.66.66 0 0 1-1.315-.143 18.281 18.281 0 0 0 .061-2.776A36.916 36.916 0 0 0 .494 3.3C.4 2.727.3 2.182.2 1.681L.127 1.31.042.915.017.806A.657.657 0 0 1 .511.017z" class="cls-5" transform="translate(15.144 .241)"/>
                    <path id="Path-69" d="M4.85.012h.053c.794-.051 3.369.151 7.34.544l.857.082 1.239.126c1.348.139 2.733.286 4.1.434l2.058.226.9.1a.657.657 0 1 1-.149 1.306l-2.139-.238c-1.355-.149-2.739-.3-4.1-.439l-1.743-.179-1.759-.174c-3.576-.348-5.969-.53-6.539-.479a1.111 1.111 0 0 0-.99.552L3.889 2A2.086 2.086 0 0 1 2.47 3.019l-.557.118-.4.088.036.125q.036.129.071.264l.035.137A11.124 11.124 0 0 1 2 6.994a6.1 6.1 0 0 1-.429 2.014l-.053.122.063.034a7.675 7.675 0 0 0 .8.362l.1.038a2.007 2.007 0 0 1 1.2 1.185l.085.177.044.089a1.027 1.027 0 0 0 .787.614l.054.014c.5.125 2.529.336 5.613.6l.878.073 1.59.127 1.281.1c1.01.077 2.05.155 3.1.231l2.147.154 1.808.126a.657.657 0 1 1-.09 1.312l-2.2-.154-1.758-.126c-1.5-.109-2.982-.221-4.387-.331l-1.077-.086-.771-.063-1.312-.11c-2.807-.242-4.575-.432-5.137-.572a2.336 2.336 0 0 1-1.724-1.357l-.088-.183c-.178-.376-.261-.484-.477-.574l-.032-.013a8.126 8.126 0 0 1-1.358-.644 2.628 2.628 0 0 1-.458-.338.655.655 0 0 1-.099-.821 4.288 4.288 0 0 0 .584-2.071 9.868 9.868 0 0 0-.317-2.858C.295 3.774.217 3.5.14 3.266L.1 3.149l-.035-.1-.022-.068a.657.657 0 0 1 .45-.868l.172-.043.213-.05c.331-.076.767-.172 1.32-.288a.785.785 0 0 0 .545-.4l.126-.176A2.4 2.4 0 0 1 4.85.012z" class="cls-5" transform="translate(20.537 13.38)"/>
                    <path id="Path-70" d="M.071.362A.662.662 0 0 1 .957.07l.137.072.206.114c.265.148.559.322.875.523a19.811 19.811 0 0 1 2.646 2A14.437 14.437 0 0 1 7.106 5.35a.656.656 0 0 1-.176.913.662.662 0 0 1-.917-.175 13.139 13.139 0 0 0-2.076-2.335 18.506 18.506 0 0 0-2.469-1.866C1.211 1.724.97 1.58.75 1.455l-.142-.08L.4 1.262l-.036-.017A.656.656 0 0 1 .071.362z" class="cls-5" transform="translate(0 4.755)"/>
                </g>
                <path id="shape_II_2_" d="M9.531 0C7 4.207 1.343 8.371 0 8.984v.022c3.786.175 12.635-4.689 14.131-5.544C12.3 2.082 10.786.811 9.531 0z" class="cls-5" transform="translate(63.855 34.035)"/>
                <path id="shape_9_" d="M3.17 2.082C3.148 1.468 3.082.745 3.082 0H3.06C1.981.855.969 1.709 0 2.586 1.145 4.8 3.456 8.152 5.987 9.707 5.261 8.108 3.324 6.026 3.17 2.082z" class="cls-5" transform="translate(42.196 32.457)"/>
                <g id="head_9_" transform="translate(38.312)">
                    <path id="ear_7_" d="M1.541 0s3.3.066 2.707 3S0 4.251 0 4.251L.484.066z" class="cls-4" transform="translate(26.027 17.907)"/>
                    <path id="ear_8_2" d="M2.767 6.048a5.67 5.67 0 0 1-1.646-.27 6.565 6.565 0 0 1-.66-.238L.383 5.5A.656.656 0 0 1 0 4.833L.489.648A.659.659 0 0 1 1.1.067L2.16 0h.054a3.941 3.941 0 0 1 .524.052 4.641 4.641 0 0 1 1.114.314 2.894 2.894 0 0 1 1.48 1.289 3.143 3.143 0 0 1 .224 2.135A2.781 2.781 0 0 1 4.6 5.477a2.837 2.837 0 0 1-1.765.571zm-.558-4.733l-.472.029-.362 3.134.043.014.092.029a4.357 4.357 0 0 0 1.258.212h.046a1.528 1.528 0 0 0 .96-.284 1.5 1.5 0 0 0 .487-.919 1.516 1.516 0 0 0-.932-1.956 3.328 3.328 0 0 0-.8-.222c-.093-.014-.182-.025-.264-.031h-.059z" class="cls-5" transform="translate(25.367 17.249)"/>
                    <path id="face_8_" d="M7.751.033C6.871-.033.928-.406.267 4.547a41.528 41.528 0 0 0 .595 12.906c.55 2.5 11.974 1.337 12.613 1.118a4.9 4.9 0 0 0 1.409-.986l1.563-7.6S17.084.8 7.751.033z" class="cls-4" transform="translate(10.418 8.605)"/>
                    <path id="face_9_2" d="M7.549 20.346a18.056 18.056 0 0 1-4.683-.469c-1.172-.338-1.822-.87-1.988-1.626a40.484 40.484 0 0 1-.815-6.334 37.591 37.591 0 0 1 .211-6.8 5.42 5.42 0 0 1 1.332-3A6.132 6.132 0 0 1 4.392.438a10.316 10.316 0 0 1 2.54-.423C7.145 0 7.346 0 7.547 0c.3 0 .6.011.919.035a10.788 10.788 0 0 1 5.165 1.658 8.741 8.741 0 0 1 3.089 3.67 11.5 11.5 0 0 1 .941 3.288 11.249 11.249 0 0 1 .11 1.916v.12a.711.711 0 0 1-.012.086l-1.563 7.6a.655.655 0 0 1-.18.333 6.809 6.809 0 0 1-.675.581 4.655 4.655 0 0 1-.6.393 2.613 2.613 0 0 1-.383.169 38.987 38.987 0 0 1-6.362.5zm0-19.032c-.18 0-.36 0-.551.014a9 9 0 0 0-2.213.365A4.833 4.833 0 0 0 2.6 2.986 3.757 3.757 0 0 0 1.935 4a4.7 4.7 0 0 0-.353 1.29 36.282 36.282 0 0 0-.2 6.563 39.153 39.153 0 0 0 .785 6.116c.032.146.182.285.446.412a4.821 4.821 0 0 0 1.086.331 20.517 20.517 0 0 0 3.759.318h.336c1.289 0 2.714-.067 4.121-.189 1.02-.088 1.906-.2 2-.236l.034-.012a1.42 1.42 0 0 0 .155-.073 3.327 3.327 0 0 0 .428-.281c.127-.1.258-.2.39-.323l.012-.011 1.511-7.353v-.113a10.157 10.157 0 0 0-.1-1.612 10.189 10.189 0 0 0-.832-2.914 8.022 8.022 0 0 0-1.103-1.769 7.128 7.128 0 0 0-1.541-1.377 8.089 8.089 0 0 0-2-.946 11.311 11.311 0 0 0-2.5-.475c-.289-.021-.555-.031-.822-.031z" class="cls-5" transform="translate(9.757 7.947)"/>
                    <path id="neck_8_" d="M12.943 0l.2 6.158L14.9 8.152a50.472 50.472 0 0 0-10.146 8.809A20.178 20.178 0 0 1 0 6.026l9.509 1.161.748-3.7z" class="cls-4" transform="translate(13.393 21.917)"/>
                    <path id="neck_9_2" d="M5.415 18.276a.656.656 0 0 1-.479-.2c-.182-.191-.436-.494-.7-.831l-.11-.144A20.813 20.813 0 0 1 2.4 14.4 20.605 20.605 0 0 1 0 6.753a.647.647 0 0 1 .166-.508.661.661 0 0 1 .489-.218.679.679 0 0 1 .082.005l8.9 1.087.628-3.106a.649.649 0 0 1 .094-.23l.029-.041L13.079.258A.643.643 0 0 1 13.6 0a.687.687 0 0 1 .452.171.645.645 0 0 1 .214.466l.19 5.922 1.6 1.817a.656.656 0 0 1-.114.97l-.035.023-.1.062-.233.151-.22.146-.242.164c-.686.468-1.406.994-2.142 1.564a51.84 51.84 0 0 0-6.514 5.99c-.186.2-.369.407-.543.6a.662.662 0 0 1-.498.23zM1.423 7.44l.03.189a19.449 19.449 0 0 0 2.023 5.981l.092.172A19.506 19.506 0 0 0 5.183 16.3c.069.091.14.182.209.269l.036.045.05-.055a53.132 53.132 0 0 1 6.436-5.953l.244-.19c.661-.507 1.312-.986 1.935-1.416l.271-.187.2-.135-1.259-1.428a.652.652 0 0 1-.16-.362v-.05L13 2.518l-1.467 1.9-.718 3.554a.661.661 0 0 1-.647.528h-.081L1.423 7.44z" class="cls-5" transform="translate(12.732 21.258)"/>
                    <path id="beard_2_" fill="#b48b8b" d="M15.672 0a18.192 18.192 0 0 0-2.443 5.15 33.97 33.97 0 0 0-9.135-1.315A25 25 0 0 0 0 4.229s.264 5.193 2.619 7.889 7.4 1.928 9.751.329c2.355-1.622 2.751-2.389 3.3-4.12S17.653.153 17.653.153z" transform="translate(10.069 18.52)"/>
                    <path id="hair_7_" d="M27.282 19.638a18.853 18.853 0 0 0 2.157-4.865 5.1 5.1 0 0 0-2.707-5.829 3.756 3.756 0 0 0-3.17-.2 5.109 5.109 0 0 0-.969-6.158 5.29 5.29 0 0 0-3.873-1.53 5.058 5.058 0 0 0-4.62 3.067S10.311-2.8 2.563 1.3A6.339 6.339 0 0 0 .472 3.641C-2.081 8.331 6.349 13.9 10.751 14.357c4.821.482 7.66-.307 9.2-1.49-1.143.679.155 7.866 7.331 6.771z" class="cls-5"/>
                    <path id="nose_8_" d="M.51.585a.66.66 0 0 1 1.316.107v.039l-.4 3.561.653-.172a.661.661 0 0 1 .8.431l.011.037a.657.657 0 0 1-.433.792l-.037.011-1.591.416A.66.66 0 0 1 0 5.137V5.1z" class="cls-5" transform="translate(13.173 19.725)"/>
                    <ellipse id="eye_II_8_" cx=".462" cy=".723" class="cls-5" rx=".462" ry=".723" transform="translate(11.984 19.331)"/>
                    <ellipse id="eye_8_" cx=".462" cy=".723" class="cls-5" rx=".462" ry=".723" transform="translate(16.276 19.221)"/>
                    <path id="brow_9_" d="M.564.034A2.807 2.807 0 0 1 3.067.9a1.923 1.923 0 0 1 .162.2.656.656 0 0 1-.169.914.662.662 0 0 1-.895-.136l-.024-.032a1.252 1.252 0 0 0-.267-.25 1.447 1.447 0 0 0-1.047-.271l-.07.009a.657.657 0 1 1-.193-1.3z" class="cls-5" transform="translate(16.496 15.579)"/>
                    <path id="brow_II_6_" d="M1.276.063a2.5 2.5 0 0 1 .963-.03l.076.013.114.024a.657.657 0 0 1-.288 1.283l-.052-.011-.049-.01a1.229 1.229 0 0 0-.453.008.341.341 0 0 0-.281.24l-.011.034a.66.66 0 0 1-1.268-.368A1.65 1.65 0 0 1 1.276.063z" class="cls-5" transform="translate(10.619 15.49)"/>
                    <path id="mouth_8_" d="M1.505.554a.66.66 0 0 1 1.3.206 2.084 2.084 0 0 1-.065.271 2.469 2.469 0 0 1-.24.546 1.777 1.777 0 0 1-1.966.865.657.657 0 0 1 .208-1.3l.038.006a.476.476 0 0 0 .589-.243A1.175 1.175 0 0 0 1.48.649L1.493.6 1.5.571z" class="cls-5" transform="translate(15.748 25.313)"/>
                </g>
            </g>
            <g id="table_1_" transform="translate(26.612 82.765)">
                <path id="Rectangle" d="M297.418 83.2H.66a.66.66 0 0 1-.66-.654V.657A.66.66 0 0 1 .66 0h296.758a.66.66 0 0 1 .661.657v81.889a.66.66 0 0 1-.661.654zM1.321 1.315v80.573h295.437V1.315z" class="cls-5"/>
                <path id="Rectangle-2" d="M0 0H297.683V10.54H0z" class="cls-5" transform="translate(.088 .482)"/>
            </g>
            <path id="line_5_" d="M351.1 0a.657.657 0 0 1 .039 1.314H.66A.657.657 0 0 1 .622 0H351.1z" class="cls-5" transform="translate(0 164.785)"/>
        </g>
        <path id="Lnea_55" fill="none" stroke="#fff" d="M0 0L19 60" transform="translate(61.5 823.5)"/>
    </g>
</svg>
