<svg xmlns="http://www.w3.org/2000/svg" width="337.909" height="202.162" viewBox="0 0 337.909 202.162">
    <defs>
        <style>
            .cls-2{fill:#d56060}.cls-3{fill:#6a1818}.cls-4{fill:#fff}.cls-5{fill:#d12121}.cls-6{fill:#fe9191}
        </style>
    </defs>
    <g id="Grupo_755" opacity="0.71">
        <g id="Grupo_20">
            <g id="woman_2_" transform="translate(133.746)">
                <path id="body_3_" d="M4.292 121.789V90.416l5.484.433 4.5-23.448a7.188 7.188 0 0 0 1.224-1.126 12.319 12.319 0 0 0 1.165-1.531 15.264 15.264 0 0 0 1.212-2.286 21.522 21.522 0 0 0 1.593-7.17 32.836 32.836 0 0 0-.1-5.049 46.065 46.065 0 0 0-1.028-6.139 45.225 45.225 0 0 1-1.059-10.912L0 40.7l2.269-6.842c1.222-3.67 2.514-7.138 3.839-10.307A89.747 89.747 0 0 1 11.386 12.8C16.035 4.894 20.863.622 25.736.108L35.55 0l.25 3.767 23.273 2.057.132-.649c1.022.3 4.808 1.21 8.377 2.057a9.943 9.943 0 0 1 3.088 1.331 11.08 11.08 0 0 1 2.53 2.271 12.458 12.458 0 0 1 1.824 3.014 13.518 13.518 0 0 1 .976 3.56L61.852 67.574l.908 54.085zm57.56-74.524v.26h.019z" class="cls-2" transform="translate(0 79.356)"/>
                <path id="Path" d="M58.184 0L.529.628 0 26.739h58.449z" class="cls-3" transform="translate(4.311 174.405)"/>
                <path id="Path-2" d="M3.519.363a.537.537 0 0 1 .759-.3.693.693 0 0 1 .273.837l-.014.036-3.461 8.055a.537.537 0 0 1-.759.3.693.693 0 0 1-.273-.834l.014-.036z" class="cls-3" transform="translate(19.533 96.937)"/>
                <g id="Group" transform="translate(25.804)">
                    <path id="Path-3" d="M5.855.033a.555.555 0 0 1 .716.414 11.759 11.759 0 0 1-.05 5.925C5.5 10.431 2.853 13.208.426 12.494a.662.662 0 0 1-.408-.794.566.566 0 0 1 .691-.468c1.7.5 3.851-1.755 4.722-5.223A10.3 10.3 0 0 0 5.493.852a.674.674 0 0 1 .362-.819z" class="cls-2" transform="translate(31.208 67.556)"/>
                    <path id="Path-4" d="M5.855.033a.555.555 0 0 1 .716.414 11.759 11.759 0 0 1-.05 5.925C5.5 10.431 2.853 13.208.426 12.494a.662.662 0 0 1-.408-.794.566.566 0 0 1 .691-.468c1.7.5 3.851-1.755 4.722-5.223A10.3 10.3 0 0 0 5.493.852a.674.674 0 0 1 .362-.819z" class="cls-2" transform="translate(2.466 62.121)"/>
                    <path id="Path-5" d="M2.558 40.254C-1.47 35.837-2.188 15.7 11.351 4.269 25.06-7.293 33.682 7.863 35.536 11.8s2.439 14.073-9.171 21.868S7.153 45.277 2.558 40.254z" class="cls-3" transform="translate(35.987)"/>
                    <path id="Path-6" d="M1.212 11.838l.246.238a3.481 3.481 0 0 0 5.219-.411l3.839-4.72a4.306 4.306 0 0 0-.246-5.716l-.246-.238A3.481 3.481 0 0 0 4.8 1.4L.966 6.122a4.3 4.3 0 0 0 .246 5.716z" class="cls-2" transform="translate(29.901 36.167)"/>
                    <path id="Oval" d="M13.492-.914c7.451-.5 13.243 2.773 12.937 7.32s-6.6 8.643-14.047 9.148S-.861 12.782-.555 8.234 6.041-.409 13.492-.914z" class="cls-3" transform="rotate(-43.918 65.98 20.993)"/>
                    <path id="Path-7" d="M3.134 17.824c4.009 6.409 9.4 9.483 13.955 9.353 4.841-.13 8.358-12.125 4.349-18.534S6.5-1.965 2.718.936c-3.782 2.923-3.593 10.479.416 16.888z" class="cls-3" transform="translate(18.071 36.243)"/>
                    <path id="Oval-2" d="M4.2-.178a3.933 3.933 0 0 1 4.03 4.271 4.773 4.773 0 0 1-4.368 4.626A3.933 3.933 0 0 1-.169 4.448 4.773 4.773 0 0 1 4.2-.178z" class="cls-4" transform="rotate(-18.138 204.689 -64.418)"/>
                    <path id="Oval_2_" d="M4.388 9.977a4.293 4.293 0 0 1-1.841-.32 4.249 4.249 0 0 1-1.476-1.025 4.579 4.579 0 0 1-.963-1.574 5.137 5.137 0 0 1-.3-1.968 5.6 5.6 0 0 1 .451-2 5.678 5.678 0 0 1 1.085-1.661A5.322 5.322 0 0 1 2.9.275 4.732 4.732 0 0 1 4.774-.2a4.294 4.294 0 0 1 1.841.32 4.249 4.249 0 0 1 1.477 1.023 4.579 4.579 0 0 1 .963 1.574 5.137 5.137 0 0 1 .3 1.968 5.6 5.6 0 0 1-.451 2 5.678 5.678 0 0 1-1.085 1.662A5.322 5.322 0 0 1 6.259 9.5a4.733 4.733 0 0 1-1.871.477zm.337-8.9a3.824 3.824 0 0 0-2.607 1.23A4.25 4.25 0 0 0 1.3 3.551a4.136 4.136 0 0 0-.34 1.49 3.788 3.788 0 0 0 .228 1.466 3.424 3.424 0 0 0 .729 1.178 3.238 3.238 0 0 0 2.52 1.009 3.824 3.824 0 0 0 2.607-1.226 4.251 4.251 0 0 0 .821-1.243 4.137 4.137 0 0 0 .34-1.49 3.788 3.788 0 0 0-.228-1.466 3.424 3.424 0 0 0-.729-1.179 3.239 3.239 0 0 0-2.522-1.009z" class="cls-3" transform="rotate(-18.138 203.03 -62.383)"/>
                    <path id="Oval-3" d="M4.2-.178a3.933 3.933 0 0 1 4.03 4.271 4.773 4.773 0 0 1-4.368 4.626A3.933 3.933 0 0 1-.169 4.448 4.773 4.773 0 0 1 4.2-.178z" class="cls-4" transform="rotate(-18.138 172.826 20.587)"/>
                    <path id="Oval_2_2" d="M4.388 9.977a4.293 4.293 0 0 1-1.841-.32 4.249 4.249 0 0 1-1.476-1.025 4.579 4.579 0 0 1-.963-1.574 5.137 5.137 0 0 1-.3-1.968 5.6 5.6 0 0 1 .451-2 5.678 5.678 0 0 1 1.085-1.661A5.322 5.322 0 0 1 2.9.275 4.732 4.732 0 0 1 4.774-.2a4.294 4.294 0 0 1 1.841.32 4.249 4.249 0 0 1 1.477 1.023 4.579 4.579 0 0 1 .963 1.574 5.137 5.137 0 0 1 .3 1.968 5.6 5.6 0 0 1-.451 2 5.678 5.678 0 0 1-1.085 1.662A5.322 5.322 0 0 1 6.259 9.5a4.733 4.733 0 0 1-1.871.477zm.337-8.9a3.824 3.824 0 0 0-2.607 1.23A4.25 4.25 0 0 0 1.3 3.551a4.136 4.136 0 0 0-.34 1.49 3.788 3.788 0 0 0 .228 1.466 3.424 3.424 0 0 0 .729 1.178 3.238 3.238 0 0 0 2.52 1.009 3.824 3.824 0 0 0 2.607-1.226 4.251 4.251 0 0 0 .821-1.243 4.137 4.137 0 0 0 .34-1.49 3.788 3.788 0 0 0-.228-1.466 3.424 3.424 0 0 0-.729-1.179 3.239 3.239 0 0 0-2.522-1.009z" class="cls-3" transform="rotate(-18.138 171.169 22.62)"/>
                    <path id="Path-8" d="M7.918 8.141L6.065 14.55l-5.03-.368c-.492.8-4.633 15.979 8.036 18.1 8.32 1.407 14.125-5.564 18.153-12.341L20.3 18.23 24.88 0z" class="cls-4" transform="translate(8.162 65.759)"/>
                    <path id="Path_2_" d="M11.785 33.766a13.4 13.4 0 0 1-2.227-.19 13.134 13.134 0 0 1-3.844-1.23 9.782 9.782 0 0 1-2.821-2.159 11.872 11.872 0 0 1-2.769-6.713 19.461 19.461 0 0 1-.111-2.939 23.228 23.228 0 0 1 .3-2.955 12.684 12.684 0 0 1 .827-3.12.55.55 0 0 1 .464-.276h.036l4.593.336 1.715-5.932a.628.628 0 0 1 .285-.377l.034-.018L25.229.052A.508.508 0 0 1 25.45 0a.552.552 0 0 1 .45.263.717.717 0 0 1 .09.568l-4.405 17.562 6.328 1.564a.585.585 0 0 1 .4.376.723.723 0 0 1-.033.591l-.018.033a46.617 46.617 0 0 1-3.682 5.4 25.84 25.84 0 0 1-3.928 4.008 16.241 16.241 0 0 1-4.278 2.535 12.633 12.633 0 0 1-4.589.866zM1.952 15.509l-.034.113a19.8 19.8 0 0 0-.478 2.122l-.013.078a21.76 21.76 0 0 0-.28 2.756 17.976 17.976 0 0 0 .1 2.723 12.83 12.83 0 0 0 .817 3.327 8.95 8.95 0 0 0 1.642 2.654 8.659 8.659 0 0 0 2.531 1.911 12.175 12.175 0 0 0 3.485 1.1 12.4 12.4 0 0 0 2.06.176 11.523 11.523 0 0 0 2.158-.2 11.921 11.921 0 0 0 2.085-.6A15.16 15.16 0 0 0 20 29.3a24.227 24.227 0 0 0 3.508-3.533 42.339 42.339 0 0 0 3.323-4.724l.013-.022-6.091-1.5a.57.57 0 0 1-.358-.285.724.724 0 0 1-.076-.492l.009-.037 4.248-16.933L8.944 9.276 7.172 15.4a.579.579 0 0 1-.539.445H6.6l-4.645-.34z" class="cls-3" transform="translate(7.594 65.108)"/>
                    <path id="Oval-4" d="M19.042-.709c10.517-.392 18.8 5.228 18.491 12.553s-9.077 13.579-19.593 13.97S-.856 20.586-.551 13.262 8.525-.317 19.042-.709z" class="cls-4" transform="rotate(-72.235 52.078 34.107)"/>
                    <path id="Oval_2_3" d="M18.534 26.94a26.129 26.129 0 0 1-7.6-.8A21.6 21.6 0 0 1 7.639 25a18.052 18.052 0 0 1-2.845-1.577 14.646 14.646 0 0 1-2.322-1.956A11.867 11.867 0 0 1 .751 19.18 10.127 10.127 0 0 1-.29 16.621a9.721 9.721 0 0 1-.285-2.784 10.383 10.383 0 0 1 .518-2.814A12.046 12.046 0 0 1 1.2 8.378a14.905 14.905 0 0 1 1.917-2.419 18.484 18.484 0 0 1 2.492-2.135A22.148 22.148 0 0 1 8.594 2.03a25.268 25.268 0 0 1 3.4-1.4 27.893 27.893 0 0 1 7.69-1.363 26.129 26.129 0 0 1 7.6.8 21.6 21.6 0 0 1 3.29 1.147 18.052 18.052 0 0 1 2.845 1.577 14.646 14.646 0 0 1 2.322 1.956 11.868 11.868 0 0 1 1.721 2.283 10.127 10.127 0 0 1 1.042 2.559 9.722 9.722 0 0 1 .285 2.784 10.383 10.383 0 0 1-.518 2.814 12.046 12.046 0 0 1-1.258 2.645 14.905 14.905 0 0 1-1.913 2.416 18.484 18.484 0 0 1-2.492 2.135 22.149 22.149 0 0 1-2.985 1.794 25.268 25.268 0 0 1-3.4 1.4 27.893 27.893 0 0 1-7.689 1.363zM19.636.417a26.451 26.451 0 0 0-7.216 1.269 23.812 23.812 0 0 0-3.175 1.291 20.775 20.775 0 0 0-2.786 1.654 17.221 17.221 0 0 0-2.322 1.964 13.746 13.746 0 0 0-1.782 2.217 10.953 10.953 0 0 0-1.168 2.416 9.288 9.288 0 0 0-.478 2.56 8.685 8.685 0 0 0 .267 2.533 9.188 9.188 0 0 0 .97 2.337 10.936 10.936 0 0 0 1.6 2.091 13.653 13.653 0 0 0 2.165 1.8A16.954 16.954 0 0 0 8.371 24a20.384 20.384 0 0 0 3.077 1.058 24.8 24.8 0 0 0 7.133.735 26.452 26.452 0 0 0 7.219-1.272 23.812 23.812 0 0 0 3.175-1.291 20.774 20.774 0 0 0 2.786-1.655 17.222 17.222 0 0 0 2.322-1.963 13.748 13.748 0 0 0 1.78-2.212 10.953 10.953 0 0 0 1.168-2.416 9.288 9.288 0 0 0 .478-2.56 8.685 8.685 0 0 0-.267-2.533 9.189 9.189 0 0 0-.97-2.337 10.936 10.936 0 0 0-1.6-2.091 13.653 13.653 0 0 0-2.165-1.8 16.954 16.954 0 0 0-2.66-1.453 20.386 20.386 0 0 0-3.077-1.058 24.8 24.8 0 0 0-7.134-.735z" class="cls-3" transform="rotate(-72.235 52.008 34.807)"/>
                    <g id="Group-2" transform="translate(13.301 49.351)">
                        <path id="Path-9" d="M2.716.4a.545.545 0 0 1 .739-.352.682.682 0 0 1 .323.811l-.011.036L1.2 8.123l2.248.416a.64.64 0 0 1 .474.707v.038a.587.587 0 0 1-.617.543h-.033L.81 9.368A1.128 1.128 0 0 1 .055 7.9l.014-.043z" class="cls-3" transform="translate(2.961 5.343)"/>
                        <path id="Path-10" d="M.247.651a2.876 2.876 0 0 1 3.879.231 5.606 5.606 0 0 1 .608.576c.11.121.189.218.235.28a.717.717 0 0 1-.062.916.517.517 0 0 1-.776-.04l-.058-.073C4.044 2.5 4 2.455 3.947 2.395a4.429 4.429 0 0 0-.479-.454 1.9 1.9 0 0 0-2.58-.219.524.524 0 0 1-.788-.168.71.71 0 0 1 .147-.903z" class="cls-3" transform="translate(10.003 1.234)"/>
                        <path id="Path-11" d="M2.089.056a3.887 3.887 0 0 1 2.138.258A4.432 4.432 0 0 1 4.9.635a.7.7 0 0 1 .234.878.535.535 0 0 1-.734.287l-.07-.039-.062-.033-.026-.014a4.065 4.065 0 0 0-.379-.169 2.936 2.936 0 0 0-1.587-.208 1.815 1.815 0 0 0-1.243.914.523.523 0 0 1-.79.161.711.711 0 0 1-.14-.9A2.941 2.941 0 0 1 2.089.056z" class="cls-3"/>
                        <path id="Oval-5" d="M1.708-.021c.944-.011 1.7.429 1.695.983s-.779 1.013-1.722 1.024S-.021 1.558-.014 1 .765-.009 1.708-.021z" class="cls-3" transform="rotate(-84.511 10.782 .12)"/>
                        <path id="Oval-6" d="M1.7-.042c.94-.023 1.689.409 1.673.966s-.79 1.027-1.73 1.05-1.687-.409-1.671-.966S.762-.019 1.7-.042z" class="cls-3" transform="rotate(-78.504 6.069 4.726)"/>
                    </g>
                    <path id="Path-12" d="M27.2 8s-5.219 2.468-4.9 6.257L.05 12.593S-2.257-6.741 24.349 2.5z" class="cls-3" transform="translate(4.269 34.459)"/>
                    <path id="Path-13" d="M.191 0S-1.567 12.666 5.58 16.13l.133-11.215z" class="cls-3" transform="translate(29.731 43.306)"/>
                    <path id="Path-14" d="M.408 6.236C1.449 2.124 4.165-.675 6.6.142a.668.668 0 0 1 .385.806.56.56 0 0 1-.7.44C4.586.82 2.386 3.088 1.5 6.6c-.877 3.467-.095 6.7 1.564 7.3l.025.009.046.013.023.008h.007a.632.632 0 0 1 .436.594v.038a.613.613 0 0 1-.567.65.525.525 0 0 1-.166-.026l-.035-.012-.033-.014C.391 14.375-.611 10.421.378 6.359z" class="cls-2" transform="translate(0 59.429)"/>
                    <path id="Path-15" d="M.408 6.236C1.449 2.124 4.165-.675 6.6.142a.668.668 0 0 1 .385.806.56.56 0 0 1-.7.44C4.586.82 2.386 3.088 1.5 6.6c-.877 3.467-.095 6.7 1.564 7.3l.025.009.046.013.023.008h.007a.632.632 0 0 1 .436.594v.038a.613.613 0 0 1-.567.65.525.525 0 0 1-.166-.026l-.035-.012-.033-.014C.391 14.375-.611 10.421.378 6.359z" class="cls-2" transform="translate(28.742 64.864)"/>
                    <path id="Path-16" d="M6.492.459A.558.558 0 0 1 7.2.029a.671.671 0 0 1 .375.812 5.434 5.434 0 0 1-3.46 3.938 7.365 7.365 0 0 1-3.3.369l-.144-.017C.586 5.12.52 5.11.475 5.1a.645.645 0 0 1-.468-.746.586.586 0 0 1 .619-.541l.116.018c.046.007.1.014.176.022a6.407 6.407 0 0 0 2.853-.313A4.217 4.217 0 0 0 6.492.459z" class="cls-3" transform="translate(17.934 64.914)"/>
                </g>
            </g>
            <g id="computer_1_" transform="translate(57.087 103.562)">
                <path id="Path-17" d="M6.013.217L0 25.462h36.136L30.274 0z" class="cls-5" transform="translate(56.123 71.666)"/>
                <path id="Path-18" d="M93.072 72.748H1.815A1.961 1.961 0 0 1 0 70.67l.511-67.4C.511 2.122.813 0 1.8 0h91.272a1.961 1.961 0 0 1 1.815 2.079V70.67a1.987 1.987 0 0 1-1.815 2.078z" class="cls-5" transform="translate(28.345 .065)"/>
                <path id="screen_4_" d="M68 55.6H2.08A2.24 2.24 0 0 1 0 53.219V2.382A2.24 2.24 0 0 1 2.08 0H68a2.24 2.24 0 0 1 2.08 2.382v50.859A2.246 2.246 0 0 1 68 55.6z" class="cls-4" transform="translate(38.783 6.863)"/>
                <path id="Oval-7" d="M4.935 11.3a4.374 4.374 0 0 1-1.921-.444 4.941 4.941 0 0 1-1.568-1.209 5.739 5.739 0 0 1-1.058-1.8 6.431 6.431 0 0 1 0-4.4 5.739 5.739 0 0 1 1.058-1.8A4.941 4.941 0 0 1 3.014.444a4.377 4.377 0 0 1 3.842 0 4.941 4.941 0 0 1 1.569 1.211 5.739 5.739 0 0 1 1.058 1.8 6.431 6.431 0 0 1 0 4.4 5.739 5.739 0 0 1-1.058 1.8 4.941 4.941 0 0 1-1.569 1.211 4.374 4.374 0 0 1-1.921.434zm0-10a3.368 3.368 0 0 0-1.479.342 3.8 3.8 0 0 0-1.208.933 4.419 4.419 0 0 0-.815 1.383 4.953 4.953 0 0 0 0 3.388 4.419 4.419 0 0 0 .815 1.383 3.8 3.8 0 0 0 1.208.933 3.371 3.371 0 0 0 2.959 0 3.8 3.8 0 0 0 1.208-.933 4.419 4.419 0 0 0 .815-1.383 4.953 4.953 0 0 0 0-3.388 4.419 4.419 0 0 0-.815-1.383 3.8 3.8 0 0 0-1.208-.933 3.368 3.368 0 0 0-1.48-.342z" class="cls-4" transform="translate(68.754 78.291)"/>
                <path id="Path-19" d="M.438.017a.564.564 0 0 1 .673.447L1.12.5l4.822 23.536a.658.658 0 0 1-.423.781.564.564 0 0 1-.673-.447l-.009-.037L.015.8A.658.658 0 0 1 .438.017z" class="cls-4" transform="translate(82.785 72.25)"/>
                <path id="screen_5_" d="M79.457 63.309H2.647a2.474 2.474 0 0 1-1.874-.886A3.249 3.249 0 0 1 0 60.277V3.031A3.248 3.248 0 0 1 .774.886 2.474 2.474 0 0 1 2.647 0h76.81a2.474 2.474 0 0 1 1.874.886 3.249 3.249 0 0 1 .769 2.145v57.246a3.249 3.249 0 0 1-.774 2.145 2.474 2.474 0 0 1-1.869.887zM2.647 1.3a1.414 1.414 0 0 0-1.071.5 1.857 1.857 0 0 0-.441 1.227v57.25a1.857 1.857 0 0 0 .441 1.223 1.414 1.414 0 0 0 1.071.505h76.81a1.414 1.414 0 0 0 1.071-.505 1.857 1.857 0 0 0 .441-1.227V3.031a1.857 1.857 0 0 0-.441-1.231 1.414 1.414 0 0 0-1.071-.5z" class="cls-4" transform="translate(32.77 3.984)"/>
                <path id="line_15_" d="M.567 0a.607.607 0 0 1 .566.611v71.553a.613.613 0 0 1-.567.65A.607.607 0 0 1 0 72.2V.65A.613.613 0 0 1 .567 0z" class="cls-4" transform="translate(118.297)"/>
                <path id="kayboard" d="M63.365 4.72H1.059A1.142 1.142 0 0 1 0 3.508v-2.3A1.142 1.142 0 0 1 1.059 0h62.306a1.142 1.142 0 0 1 1.059 1.212v2.3a1.129 1.129 0 0 1-1.059 1.208z" class="cls-2" transform="translate(0 92.863)"/>
                <path id="mouse_1_" d="M20.12 4.72H1.059A1.142 1.142 0 0 1 0 3.508v-2.3A1.142 1.142 0 0 1 1.059 0H20.12a1.142 1.142 0 0 1 1.059 1.212v2.3A1.142 1.142 0 0 1 20.12 4.72z" class="cls-2" transform="translate(108.313 92.863)"/>
            </g>
            <g id="arm_1_" transform="translate(144.06 94.339)">
                <g id="Group-3" transform="translate(0 34.285)">
                    <path id="Path-20" d="M3.261 10.773L.292 2.437C-.615.7.746-.811 2.24.488A8.237 8.237 0 0 1 4.207 3c1.967 3.724 6.316 11.519 6.07 11.215s-7.016-3.442-7.016-3.442z" class="cls-4" transform="translate(11.933 .648)"/>
                    <path id="Path_2_2" d="M10.782 15.513a.238.238 0 0 1-.117-.028l-.047-.024a.94.94 0 0 1-.087-.057l-.028-.025-.016-.016-.069-.043-.056-.033-.1-.058c-.139-.077-.318-.172-.534-.282l-.283-.147c-.4-.2-.894-.444-1.475-.725l-1.1-.529c-.432-.206-.88-.418-1.333-.631l-.82-.385-1.083-.505L3.586 12a.621.621 0 0 1-.277-.339L.355 3.373l-.013-.025A3.1 3.1 0 0 1 0 2.041 2.3 2.3 0 0 1 .236.946 1.643 1.643 0 0 1 1.7 0a2.248 2.248 0 0 1 1.456.619L3.245.7a8.77 8.77 0 0 1 2.02 2.614l.083.156c.414.781.946 1.769 1.627 3.021l3.8 6.954.337.629c.057.109.1.2.14.268l.062.123a1.421 1.421 0 0 1 .068.155.429.429 0 0 1 .018.061l.014.065a.459.459 0 0 1 .009.113v.11a.511.511 0 0 1-.233.4l-.133.11a2.273 2.273 0 0 1-.275.034zM1.705 1.3a.524.524 0 0 0-.491.3 1.251 1.251 0 0 0 .137 1.146.684.684 0 0 1 .039.089l2.878 8.082 1.426.667c.679.319 1.307.617 1.869.885l.65.312.748.362.431.211-3.328-6.082C5.491 6.22 5.03 5.366 4.653 4.661l-.42-.791a7.468 7.468 0 0 0-1.766-2.218 1.224 1.224 0 0 0-.762-.352z" class="cls-3" transform="translate(11.361)"/>
                    <path id="Path-21" d="M37.676 4.152L22 8.114l-7.677-4.481L4.074.06C2.826-.351 1.9 1.446 2.864 2.463c.511.52 8.226 3.486 8.226 3.486L1.276 4.694c-1-.13-1.664 1.212-1.021 2.122S2.051 7.79 3.6 8.2c.945.238 7.015 1.061 7.015 1.061l-8.66.693c-2.137.281-2.08 3.789 2 3.2 2.118-.3 4.69-.281 6.486-.844l-5.856 1.932c-1.929 1.342.057 3.832 8.32.974 5.03 4.633 7.658 5.5 12.2 2.447.019-.022 15.184-2.858 15.184-2.858z" class="cls-4" transform="translate(.569 4.302)"/>
                    <path id="Path_2_3" d="M20.973 20.765a5.945 5.945 0 0 1-1.694-.251 8.624 8.624 0 0 1-1.768-.76 22.76 22.76 0 0 1-4.073-3.089l-.088-.08-.123.041a27.855 27.855 0 0 1-3.359.909 14.071 14.071 0 0 1-2.682.3 6.006 6.006 0 0 1-1.8-.237l-.06-.019a2.374 2.374 0 0 1-.995-.607 1.561 1.561 0 0 1-.419-.851 1.848 1.848 0 0 1 .806-1.683l-.212.029a6.478 6.478 0 0 1-.836.057 3.834 3.834 0 0 1-1.97-.467 2.385 2.385 0 0 1-.652-.558 2.243 2.243 0 0 1-.395-.75 2.148 2.148 0 0 1 1.8-2.788h.025l2.884-.231-.355-.058c-.387-.065-.666-.116-.852-.156l-.121-.028c-.186-.049-.382-.1-.637-.158l-.685-.16a6.021 6.021 0 0 1-1.447-.5 2.488 2.488 0 0 1-.891-.8 2.088 2.088 0 0 1-.367-1.031A2.216 2.216 0 0 1 .17 5.811 1.7 1.7 0 0 1 1.7 4.685a1.584 1.584 0 0 1 .2.013l4.769.61-.315-.13a16.268 16.268 0 0 1-3.285-1.566L3.056 3.6l-.049-.053a2.118 2.118 0 0 1-.518-1.087A2.312 2.312 0 0 1 2.6 1.33a2.159 2.159 0 0 1 .643-.945A1.6 1.6 0 0 1 4.274 0a1.7 1.7 0 0 1 .534.089l10.249 3.572a.526.526 0 0 1 .092.043l7.5 4.376 15.473-3.912a.5.5 0 0 1 .123-.015.578.578 0 0 1 .536.438l.01.036L41.4 15.279a.731.731 0 0 1-.068.525.569.569 0 0 1-.387.292l-6.425 1.2-6.872 1.292-1.779.34-.051.034a12.933 12.933 0 0 1-2.525 1.346 6.482 6.482 0 0 1-2.32.457zm-7.5-5.548a.526.526 0 0 1 .356.143 24.313 24.313 0 0 0 3.937 3.1 6.228 6.228 0 0 0 3.2 1 7.666 7.666 0 0 0 4.168-1.544l.149-.1c-.008-.032-.088-.036-.148-.036h-.066l.025-.008.519-.107.553-.108 13.97-2.627-2.293-9.361L22.691 9.4a.5.5 0 0 1-.34-.035l-.04-.021-7.633-4.457L4.486 1.334a.637.637 0 0 0-.2-.033.7.7 0 0 0-.635.512.8.8 0 0 0 .165.822l.01.008A34.1 34.1 0 0 0 7.092 4.1l.932.38c.6.242 1.232.495 1.885.752l.768.3 1.149.447.045.021a.58.58 0 0 1 .3.3.754.754 0 0 1 .046.417.581.581 0 0 1-.546.531.588.588 0 0 1-.074 0L1.78 5.989a.525.525 0 0 0-.067 0 .573.573 0 0 0-.517.382.713.713 0 0 0 .068.69 1.47 1.47 0 0 0 .6.488 5.882 5.882 0 0 0 1.171.37l.779.182.248.061.23.059c.3.076 1.27.236 2.8.462l1.4.2L9.3 9l.833.117 1.034.142.116.017a.537.537 0 0 1 .358.248.745.745 0 0 1 .105.425.6.6 0 0 1-.527.613l-8.644.691-.04.006a1.013 1.013 0 0 0-.749.475.742.742 0 0 0-.072.55l.01.034c.175.57.89.91 1.913.91a5.8 5.8 0 0 0 .816-.062c.524-.075.993-.125 1.856-.2l.754-.063a17.721 17.721 0 0 0 3.7-.536l.1-.03a.576.576 0 0 1 .172-.028.484.484 0 0 1 .371.175.747.747 0 0 1 .171.4.626.626 0 0 1-.407.7l-5.786 1.9c-.252.184-.359.319-.346.439s.164.237.487.357l.082.029.093.031a5.018 5.018 0 0 0 1.485.19 19.582 19.582 0 0 0 5.863-1.2l.26-.089a.5.5 0 0 1 .165-.025zm12.6 3.556a.582.582 0 0 1-.114.1l-.087.058.406-.083a.093.093 0 0 0 .028-.008h-.115c-.079 0-.123-.01-.132-.031a.033.033 0 0 1 .008-.032z" class="cls-3" transform="translate(0 3.652)"/>
                </g>
                <path id="Path-22" d="M26.087 6.885L42.311 0l8.282 44.84c.548 4.7-2.137 9.072-6.164 10.09l-41.79 6.755a2.507 2.507 0 0 1-2.572-2.23l-.019-14.7a2.771 2.771 0 0 1 2.1-3.313l27.343-3.1z" class="cls-2" transform="translate(22.917)"/>
                <path id="Path-23" d="M.665 3.8a.579.579 0 0 1-.657-.527.654.654 0 0 1 .428-.744l.033-.008L12.968.01a.5.5 0 0 1 .06-.01h.226l.146.008c.217.01.453.029.7.059a9.051 9.051 0 0 1 2.059.482 4.578 4.578 0 0 1 3.29 3.969.635.635 0 0 1-.5.718.591.591 0 0 1-.627-.573 3.379 3.379 0 0 0-2.511-2.878 8.061 8.061 0 0 0-1.828-.426c-.189-.023-.368-.038-.534-.048l-.1-.005-.157-.006h-.076z" class="cls-3" transform="translate(38.244 35.746)"/>
                <path id="Path-24" d="M.487.007a.579.579 0 0 1 .636.513l.006.038L3.991 23.35l.019-.012q.1-.067.215-.132l.112-.064a4.725 4.725 0 0 1 4.644-.327 5.869 5.869 0 0 1 2.131 1.985.715.715 0 0 1-.1.912.521.521 0 0 1-.8-.112 4.708 4.708 0 0 0-1.7-1.6 3.764 3.764 0 0 0-3.679.306 6.275 6.275 0 0 0-.694.455l-.08.062-.071.057-.062.052-.024.021A.55.55 0 0 1 3 24.575l-.006-.038L.006.742A.641.641 0 0 1 .487.007z" class="cls-3" transform="translate(47.85 11.887)"/>
            </g>
            <path id="line_14_" d="M337.34 0a.612.612 0 0 1 .57.647.62.62 0 0 1-.532.651h-.033L.57 2.815A.612.612 0 0 1 0 2.168a.619.619 0 0 1 .532-.651h.033z" class="cls-3" transform="translate(0 199.348)"/>
        </g>
        <g id="Grupo_29" transform="translate(99.181 121)">
            <g id="configuracion-de-la-base-de-datos" transform="translate(12.888)">
                <g id="Grupo_23">
                    <g id="Grupo_21">
                        <ellipse id="Elipse_4" cx="15.908" cy="7.081" class="cls-6" rx="15.908" ry="7.081"/>
                        <path id="Trazado_1" d="M19.592 25.484a2.94 2.94 0 0 1-2.158-2.3q-.755.033-1.526.034C7.12 23.214 0 20.046 0 16.133v5.414c0 3.912 7.12 7.081 15.908 7.081a34.775 34.775 0 0 0 3.668-.2 2.921 2.921 0 0 1 .016-2.944z" class="cls-6" transform="translate(0 7.601)"/>
                        <path id="Trazado_2" d="M15.908 23.627c.5 0 .986-.013 1.471-.032v-.812a2.94 2.94 0 0 1 2.227-2.853 2.939 2.939 0 0 1-.385-1.87c-1.07.1-2.176.154-3.313.154C7.12 18.215 0 15.047 0 11.134v5.414c0 3.91 7.12 7.079 15.908 7.079z" class="cls-6" transform="translate(0 5.246)"/>
                        <path id="Trazado_3" d="M15.907 18.628a34.531 34.531 0 0 0 4.521-.294l1.189-1.189a2.942 2.942 0 0 1 3.565-.46 2.942 2.942 0 0 1 2.845-2.195h2.207c.04 0 .079.009.118.01a4.16 4.16 0 0 0 1.462-2.953V6.133c0 3.912-7.12 7.081-15.908 7.081S0 10.045 0 6.133v5.414c0 3.912 7.12 7.081 15.907 7.081z" class="cls-6" transform="translate(0 2.89)"/>
                    </g>
                    <g id="Grupo_22" transform="translate(20.321 20.321)">
                        <path id="Trazado_4" d="M31.467 23.726v-2.207l-2.626-.43a6.4 6.4 0 0 0-.721-1.743l1.53-2.18-1.561-1.566-2.154 1.549a6.3 6.3 0 0 0-1.751-.728l-.459-2.613h-2.206l-.425 2.605a6.356 6.356 0 0 0-1.757.719L17.189 15.6l-1.561 1.561 1.511 2.16a6.315 6.315 0 0 0-.733 1.762l-2.594.431v2.207l2.592.459a6.238 6.238 0 0 0 .733 1.764l-1.531 2.141 1.561 1.562 2.163-1.514a6.377 6.377 0 0 0 1.757.724l.433 2.605h2.207l.463-2.613a6.365 6.365 0 0 0 1.748-.731l2.179 1.529 1.559-1.562-1.556-2.154a6.31 6.31 0 0 0 .719-1.746zm-8.827 1.992a3.078 3.078 0 1 1 3.078-3.078 3.078 3.078 0 0 1-3.078 3.078z" class="cls-3" transform="translate(-13.813 -13.813)"/>
                    </g>
                </g>
            </g>
            <path id="Trazado_12" d="M10.712 4.761a1.779 1.779 0 0 0-1.676 1.19h-3.68a.6.6 0 0 1-.6-.6V1.785A1.785 1.785 0 0 0 2.976 0H0v1.19h2.976a.6.6 0 0 1 .6.6v3.566a1.786 1.786 0 0 0 1.78 1.786h3.68a1.782 1.782 0 1 0 1.676-2.381zm.6 2.381h-1.19V5.951h1.19zm0 0" class="cls-3" transform="rotate(-180 6.285 6.763)"/>
            <path id="Trazado_13" d="M4.468 7.82V2.793a.559.559 0 0 1 .559-.559h3.454a1.676 1.676 0 1 0 0-1.117H5.027a1.676 1.676 0 0 0-1.676 1.676V7.82a.559.559 0 0 1-.559.559H0V9.5h2.793a1.676 1.676 0 0 0 1.675-1.68zM9.5 1.117h1.117v1.117H9.5zm0 0" class="cls-3" transform="rotate(180 6.322 18.508)"/>
            <path id="Trazado_14" d="M11.164 0a1.854 1.854 0 0 0-1.747 1.24H0v1.24h9.417A1.857 1.857 0 1 0 11.164 0zm.62 2.481h-1.24V1.24h1.24zm0 0" class="cls-3" transform="rotate(180 6.512 11.195)"/>
        </g>
    </g>
</svg>
