<svg xmlns="http://www.w3.org/2000/svg" width="405.358" height="175.509" viewBox="0 0 405.358 175.509">
    <defs>
        <style>
            .cls-2{fill:#6a1818}.cls-3{fill:#d56060}
        </style>
    </defs>
    <g id="Grupo_757" opacity="0.71" transform="translate(-930.641 -787.771)">
        <g id="developer_outline" transform="translate(930.641 787.771)">
            <path id="chair_1_" d="M52.768 0a.622.622 0 0 1 .032 1.243H26.1c-15.414 0-26.361 12.29-24.7 27.587l.054.464 5.056 40.34a.621.621 0 0 1-1.226.191l-.006-.036L.231 29.45C-1.781 13.359 9.556.264 25.616 0h.484z" class="cls-2" transform="translate(59.823 81.981)"/>
            <g id="body_1_" transform="translate(76.701 68.963)">
                <path id="hoodie_4_" d="M54.188.007a.62.62 0 0 1 .641.327l.724 1.388a.622.622 0 0 1 .058.161l.007.042.869 6.26a.623.623 0 0 1-.085.41l-.024.036-3.31 4.669a.621.621 0 0 1-1.033-.688l.022-.033 3.167-4.463L54.4 2.2l-.469-.9-.066.01c-8.063 1.263-13.109 3.57-15.421 6.737l-.071.1c-2.01 2.838-1.856 6.4.24 10.6a.622.622 0 0 1-.436.888C24.559 22.306 13.473 33.753 6.859 50.189.9 65-.439 81.857 3.419 92.677l.627 1.774c1.326 3.737 2.131 5.551 3.328 7.164a7.163 7.163 0 0 0 6.078 3.148.622.622 0 0 1-.012 1.244 8.394 8.394 0 0 1-7.062-3.65l-.1-.136c-1.206-1.662-2.023-3.5-3.294-7.05l-.708-2-.026-.071C-1.72 81.96-.356 64.795 5.708 49.724 12.33 33.269 23.4 21.649 37.1 18.6l.06-.013-.042-.092C35.233 14.3 35.19 10.58 37.3 7.527l.069-.1c2.557-3.615 8.077-6.117 16.819-7.42z" class="cls-2"/>
                <g id="tshirt" transform="translate(48.405 12.541)">
                    <g id="Group">
                        <path id="Path" d="M13.59 17.163v-.124a3.436 3.436 0 0 0 2.855-.684c2.275-1.969 3.082-2.57 3.082-2.57s.207.249.579.663c.455-.829.91-1.7 1.386-2.57A123.839 123.839 0 0 0 4.158.394L3.6 0 0 4.415s5.875 4.042 13.59 12.748z" class="cls-3"/>
                        <path id="Path-2" d="M26.6 77.049s-15.719-42.37-13.713-55.491C13.983 14.386 12.266 6.281 9.908 0L5.4.29 0 13.059a9.478 9.478 0 0 0 1.055.207s-.207 1.348-.724 4.416c-.352 2.052.248 2.28.7 3.71a4.117 4.117 0 0 1 .559 3.71c-.165.539-.559 5.68-1.448 12.645Q2.627 43 4.861 48.962C14.4 74.437 13.4 77.215 13.4 77.215z" class="cls-3" transform="translate(34.483 11.67)"/>
                    </g>
                </g>
                <path id="hoodie" d="M.034.421A.62.62 0 0 1 .822.034C7.108 2.191 11.495 5.6 14.358 10.048a27.714 27.714 0 0 1 3.911 10.823l.03.176.419.32c20.027 15.37 34.337 32.7 43.846 50.883l.29.557a119.856 119.856 0 0 1 8.2 19.929 80.627 80.627 0 0 1 2.66 11.209.621.621 0 1 1-1.227.188l-.048-.311A80.453 80.453 0 0 0 69.87 93.1a118.615 118.615 0 0 0-8.118-19.721c-9.52-18.411-23.994-35.963-44.4-51.491a.622.622 0 0 1-.237-.394 26.983 26.983 0 0 0-3.8-10.771C10.6 6.51 6.443 3.278.42 1.21A.622.622 0 0 1 .034.421z" class="cls-2" transform="translate(89.631 1.016)"/>
                <path id="string" d="M.893 0a.828.828 0 0 1 .8.818v.191c0 .126-.007.274-.011.444A94.061 94.061 0 0 0 2.65 17.18a48.508 48.508 0 0 0 1.466 6.665.828.828 0 1 1-1.583.484 50.129 50.129 0 0 1-1.518-6.9 95.445 95.445 0 0 1-1-15.744L.027 1.1.036.8A.828.828 0 0 1 .852 0z" class="cls-2" transform="translate(98.656 42.722)"/>
                <path id="stripe" d="M2.875 0c.145.891.269 1.7.372 2.4C4.509 10.655 1.8 16.148 0 19.941c4.82-3.42 8.088-9.929 9.722-14.883C7.757 3.482 5.047 1.617 2.875 0z" class="cls-2" transform="translate(103.863 22.242)"/>
                <path id="stripe_II" d="M12.928 0A38.311 38.311 0 0 0 0 5.141c2.793 1.534 16.631 9.825 27.925 14.8.083-.041.7-1.078 1.014-1.492C22.692 13.494 16.114 6.405 12.928 0z" class="cls-2" transform="translate(25.63 18.656)"/>
            </g>
            <g id="head" transform="translate(116.73)">
                <path id="ear_3_" d="M5.781.022a.622.622 0 0 1 .361 1.189l-.108.032-.124.04c-.169.056-.358.125-.562.208a9.416 9.416 0 0 0-1.712.9C1.352 3.937.53 6.049 1.934 9.021c.881 1.867 2.111 2.66 3.682 2.652A8.817 8.817 0 0 0 9.775 10.3a.622.622 0 0 1 .613 1.082 9.919 9.919 0 0 1-4.766 1.535c-2.057.01-3.725-1.064-4.81-3.364C-.88 5.97.189 3.223 2.942 1.364A10.639 10.639 0 0 1 4.881.339a8.471 8.471 0 0 1 .9-.317z" class="cls-2" transform="translate(1.687 53.976)"/>
                <path id="face" d="M12.657 41.155a.619.619 0 0 1-.55-.333 43.717 43.717 0 0 0-3.942-5.734 33.064 33.064 0 0 0-4.121-4.583l-.029-.022-2.126.71a.619.619 0 0 1-.816-.553l-.034-.113c-.016-.058-.039-.127-.06-.214l-.035-.128-.051-.194c-.122-.471-.235-.979-.338-1.509a29.1 29.1 0 0 1-.529-6.794 23.727 23.727 0 0 1 1.289-6.827C3.544 8.511 8.483 3.992 15.993 1.43l.124-.042a27.006 27.006 0 0 1 3.314-.879A24.712 24.712 0 0 1 24.276 0c.37 0 .739.01 1.1.03a16.169 16.169 0 0 1 3.777.637 12.085 12.085 0 0 1 3.228 1.5A11.2 11.2 0 0 1 34.986 4.6 13.634 13.634 0 0 1 36.9 8.009a83 83 0 0 1 3.406 11 108.681 108.681 0 0 1 2.135 11.828.622.622 0 0 1-.615.7H41.52a23.976 23.976 0 0 0-3.242.3l-.416.062c-.591.091-1.232.2-1.9.323-.787.144-1.6.3-2.416.476l-.225.048-.321.063-.437.1-.417.112c-2.589.706-5.182 1.552-7.706 2.516l-.39.15a76.377 76.377 0 0 0-8.145 3.7c-.788.418-1.52.827-2.175 1.216l-.156.093-.213.129-.188.116-.182.115a.617.617 0 0 1-.334.099zM4.113 29.174a.624.624 0 0 1 .287.07l.036.021a23.881 23.881 0 0 1 4.08 4.274 53.332 53.332 0 0 1 4.344 6.084l.023.039.219-.13c.579-.343 1.216-.7 1.893-1.066l.334-.178a77.588 77.588 0 0 1 8.278-3.762 83.7 83.7 0 0 1 8.644-2.826l.022-.005.369-.082.417-.09.523-.11c.732-.152 1.457-.293 2.153-.421s1.334-.235 1.938-.329A30.608 30.608 0 0 1 41.1 30.3h.016l-.051-.387a106.794 106.794 0 0 0-2.052-10.949 81.912 81.912 0 0 0-3.15-10.183l-.121-.31a12.37 12.37 0 0 0-1.723-3.08A10 10 0 0 0 31.673 3.2a10.864 10.864 0 0 0-2.921-1.352 14.944 14.944 0 0 0-3.445-.574c-.337-.019-.683-.028-1.03-.028a23.484 23.484 0 0 0-4.6.485 25.613 25.613 0 0 0-3.28.878l-.223.077a28.518 28.518 0 0 0-4.948 2.247A21.5 21.5 0 0 0 7.33 7.809a18.564 18.564 0 0 0-2.9 3.463 18.982 18.982 0 0 0-1.95 4 22.491 22.491 0 0 0-1.214 6.488 27.856 27.856 0 0 0 .507 6.485c.108.555.227 1.079.354 1.559l1.789-.6a.619.619 0 0 1 .197-.03z" class="cls-2" transform="translate(7.987 25.258)"/>
                <path id="beard" d="M4.809.032a.619.619 0 0 1 .52.059c1.621.992 6.339 6.825 8.364 10.255l.083.142.219-.13.26-.153c.575-.335 1.232-.7 1.967-1.092A77.57 77.57 0 0 1 24.5 5.351a83.449 83.449 0 0 1 8.218-2.707l.427-.115.294-.066.511-.111.228-.048c.779-.165 1.605-.329 2.443-.483.577-.106 1.138-.2 1.679-.289l.269-.042a23.571 23.571 0 0 1 4.217-.369.621.621 0 0 1 .581.5l.029.152.058.322.041.244.047.291c.079.5.156 1.043.23 1.635a45.941 45.941 0 0 1 .182 10.535q-.02.184-.043.367a.621.621 0 1 1-1.232-.151l.041-.353a44.746 44.746 0 0 0-.181-10.245l-.039-.342c-.066-.5-.135-.97-.2-1.395l-.054-.325h-.062a27.3 27.3 0 0 0-3.281.339l-.138.021c-.61.094-1.251.2-1.913.325-.723.133-1.437.274-2.12.416l-.622.132-.5.11-.15.034-.407.11c-2.66.725-5.233 1.572-7.706 2.517l-.39.15a76.336 76.336 0 0 0-8.145 3.7l-.327.175c-.642.346-1.218.67-1.723.967l-.281.167-.213.129-.324.2-.046.03a.62.62 0 0 1-.898-.229A50.99 50.99 0 0 0 4.991 1.375l-.083-.065-3.417 1.147 1.149 2.33.882 1.778c.661 1.329 1.318 2.644 1.957 3.912l.885 1.751c1.869 3.681 3.282 6.365 4.056 7.664 2.472 4.136 3.929 5.368 9.517 7.575a19.151 19.151 0 0 0 6.726 1.14.622.622 0 0 1 0 1.244 20.377 20.377 0 0 1-7.178-1.225l-.515-.205c-5.32-2.145-7.011-3.588-9.46-7.631l-.156-.259c-.782-1.314-2.176-3.956-4.019-7.585L4.8 11.877c-.841-1.664-1.721-3.423-2.6-5.2l-.758-1.53L.064 2.368a.622.622 0 0 1 .325-.851L.424 1.5z" class="cls-2" transform="translate(7.094 54.411)"/>
                <path id="hair" d="M8.252 58.391A60.313 60.313 0 0 1 1.447 48.3 12.462 12.462 0 0 1 4.322 33a8.913 8.913 0 0 1 7.278-2.3 12.479 12.479 0 0 1-1.365-15.049 12.676 12.676 0 0 1 8.15-5.887 12.237 12.237 0 0 1 12.621 4.516S35.785-4.21 56.3.889c2.069.518 4.8 2.715 6.247 4.291 8.75 9.556-7.716 27.59-17.727 31.2-10.984 3.98-18.058 3.773-22.382 1.907 3.128.951 3.231 18.513-14.186 20.104z" class="cls-2"/>
                <path id="nose" d="M.639.053A.827.827 0 0 1 1.689.5l.016.04 3.889 10.341A.829.829 0 0 1 4.854 12h-.039l-3.992-.019a.829.829 0 0 1-.033-1.657h.042l2.789.014L.157 1.122A.83.83 0 0 1 .6.07z" class="cls-2" transform="translate(39.032 51.841)"/>
                <ellipse id="mouth" cx="1.965" cy="1.969" class="cls-2" rx="1.965" ry="1.969" transform="translate(35.867 68.03)"/>
                <path id="eye_II" d="M1.117 0c.616 0 1.116.779 1.116 1.74s-.5 1.74-1.115 1.74S0 2.7 0 1.741.5 0 1.117 0z" class="cls-2" transform="rotate(-14.07 225.618 -147.57)"/>
                <path id="eye" d="M1.117 0c.616 0 1.116.779 1.116 1.74s-.5 1.74-1.115 1.74S0 2.7 0 1.741.5 0 1.117 0z" class="cls-2" transform="rotate(-14.07 230.276 -103.67)"/>
                <path id="brow_II" d="M5.01 0a.829.829 0 0 1 .158 1.651A4.233 4.233 0 0 0 2.462 2.92a4.5 4.5 0 0 0-.679.892l-.047.088a2.664 2.664 0 0 0-.128.259L1.6 4.17a.828.828 0 1 1-1.546-.587 4.333 4.333 0 0 1 .3-.6 6.143 6.143 0 0 1 .931-1.222A5.878 5.878 0 0 1 5.01 0z" class="cls-2" transform="translate(25.917 43.819)"/>
                <path id="brow" d="M1.151.3A4.61 4.61 0 0 1 3.443.054a3.259 3.259 0 0 1 2.291 1.6.828.828 0 1 1-1.413.863 1.61 1.61 0 0 0-1.155-.824 3.038 3.038 0 0 0-1.472.177c-.133.046-.254.1-.36.144l-.093.044-.017.009A.829.829 0 0 1 .432.607L.5.569A5.3 5.3 0 0 1 1.151.3z" class="cls-2" transform="translate(40.128 40.639)"/>
            </g>
            <path id="laptop" d="M123.08 0H42.655a2.278 2.278 0 0 0-2.213 1.762L29.251 49.19H.105s-1.613 8.354 7.8 8.354h102.681a2.278 2.278 0 0 0 2.213-1.762L125.294 2.8A2.277 2.277 0 0 0 123.08 0z" class="cls-2" transform="translate(157.001 116.722)"/>
            <g id="code_lines" transform="translate(226.878 42.782)">
                <path id="Path-3" d="M1.676 3.71h-.642A1.025 1.025 0 0 1 0 2.674V1.036A1.025 1.025 0 0 1 1.034 0h.641A1.025 1.025 0 0 1 2.71 1.036v1.638A1.025 1.025 0 0 1 1.676 3.71z" class="cls-3" transform="translate(19.61)"/>
                <path id="Path-4" d="M17.541 3.71H1.034A1.025 1.025 0 0 1 0 2.674V1.036A1.025 1.025 0 0 1 1.034 0h16.507a1.025 1.025 0 0 1 1.034 1.036v1.638a1.025 1.025 0 0 1-1.034 1.036z" class="cls-2"/>
                <path id="Path-5" d="M19.217 3.71H1.034A1.025 1.025 0 0 1 0 2.674V1.036A1.025 1.025 0 0 1 1.034 0h18.183a1.025 1.025 0 0 1 1.034 1.036v1.638a1.038 1.038 0 0 1-1.034 1.036z" class="cls-2" transform="translate(.021 17.226)"/>
                <path id="Path-6" d="M30.387 3.71H1.034A1.025 1.025 0 0 1 0 2.674V1.036A1.025 1.025 0 0 1 1.034 0h29.353a1.025 1.025 0 0 1 1.034 1.036v1.638a1.025 1.025 0 0 1-1.034 1.036z" class="cls-3" transform="translate(5.13 11.484)"/>
                <path id="Path-7" d="M15.928 3.71H1.034A1.025 1.025 0 0 1 0 2.674V1.036A1.025 1.025 0 0 1 1.034 0h14.894a1.025 1.025 0 0 1 1.034 1.036v1.638a1.025 1.025 0 0 1-1.034 1.036z" class="cls-3" transform="translate(38.31 11.484)"/>
                <path id="Path-8" d="M1.676 3.71h-.642A1.025 1.025 0 0 1 0 2.674V1.036A1.025 1.025 0 0 1 1.034 0h.641A1.025 1.025 0 0 1 2.71 1.036v1.638A1.038 1.038 0 0 1 1.676 3.71z" class="cls-2" transform="translate(58.312 5.763)"/>
                <path id="Path-9" d="M31.463 3.71H1.034A1.025 1.025 0 0 1 0 2.674V1.036A1.025 1.025 0 0 1 1.034 0h30.429A1.025 1.025 0 0 1 32.5 1.036v1.638a1.025 1.025 0 0 1-1.037 1.036z" class="cls-2" transform="translate(0 5.742)"/>
                <path id="Path-10" d="M17.541 3.71H1.034A1.025 1.025 0 0 1 0 2.674V1.036A1.025 1.025 0 0 1 1.034 0h16.507a1.025 1.025 0 0 1 1.034 1.036v1.638a1.038 1.038 0 0 1-1.034 1.036z" class="cls-2" transform="translate(23.519)"/>
                <path id="Path-11" d="M21.885 3.731H1.034A1.025 1.025 0 0 1 0 2.695V1.036A1.025 1.025 0 0 1 1.034 0h20.851a1.025 1.025 0 0 1 1.035 1.036v1.659a1.038 1.038 0 0 1-1.035 1.036z" class="cls-3" transform="translate(33.945 5.742)"/>
            </g>
            <g id="code_lines_1_" transform="translate(226.878 74.415)">
                <path id="Path-12" d="M17.541 3.71H1.034A1.025 1.025 0 0 1 0 2.674V1.036A1.025 1.025 0 0 1 1.034 0h16.507a1.025 1.025 0 0 1 1.034 1.036v1.638a1.025 1.025 0 0 1-1.034 1.036z" class="cls-2" transform="translate(0 5.555)"/>
                <path id="Path-13" d="M19.217 3.71H1.034A1.025 1.025 0 0 1 0 2.674V1.036A1.025 1.025 0 0 1 1.034 0h18.183a1.025 1.025 0 0 1 1.034 1.036v1.638a1.052 1.052 0 0 1-1.034 1.036z" class="cls-2" transform="translate(.021 22.781)"/>
                <path id="Path-14" d="M30.387 3.71H1.034A1.025 1.025 0 0 1 0 2.674V1.036A1.025 1.025 0 0 1 1.034 0h29.353a1.025 1.025 0 0 1 1.034 1.036v1.638a1.025 1.025 0 0 1-1.034 1.036z" class="cls-3" transform="translate(5.13 17.039)"/>
                <path id="Path-15" d="M15.928 3.71H1.034A1.025 1.025 0 0 1 0 2.674V1.036A1.025 1.025 0 0 1 1.034 0h14.894a1.025 1.025 0 0 1 1.034 1.036v1.638a1.025 1.025 0 0 1-1.034 1.036z" class="cls-3" transform="translate(38.31 17.039)"/>
                <path id="Path-16" d="M1.676 3.71h-.642A1.025 1.025 0 0 1 0 2.674V1.036A1.025 1.025 0 0 1 1.034 0h.641A1.025 1.025 0 0 1 2.71 1.036v1.638A1.038 1.038 0 0 1 1.676 3.71z" class="cls-2" transform="translate(58.312 11.318)"/>
                <path id="Path-17" d="M1.676 3.71h-.642A1.025 1.025 0 0 1 0 2.674V1.036A1.025 1.025 0 0 1 1.034 0h.641A1.025 1.025 0 0 1 2.71 1.036v1.638A1.025 1.025 0 0 1 1.676 3.71z" class="cls-2" transform="translate(63.029 5.555)"/>
                <path id="Path-18" d="M31.463 3.71H1.034A1.025 1.025 0 0 1 0 2.674V1.036A1.025 1.025 0 0 1 1.034 0h30.429A1.025 1.025 0 0 1 32.5 1.036v1.638a1.025 1.025 0 0 1-1.037 1.036z" class="cls-2" transform="translate(0 11.297)"/>
                <path id="Path-19" d="M21.43 3.71H1.034A1.025 1.025 0 0 1 0 2.674V1.036A1.025 1.025 0 0 1 1.034 0h20.4a1.025 1.025 0 0 1 1.034 1.036v1.638A1.038 1.038 0 0 1 21.43 3.71z" class="cls-3" transform="translate(19.631 5.555)"/>
                <path id="Path-20" d="M17.541 3.71H1.034A1.025 1.025 0 0 1 0 2.674V1.036A1.025 1.025 0 0 1 1.034 0h16.507a1.025 1.025 0 0 1 1.034 1.036v1.638a1.025 1.025 0 0 1-1.034 1.036z" class="cls-3" transform="translate(43.522 5.555)"/>
                <path id="Path-21" d="M1.676 3.71h-.642A1.025 1.025 0 0 1 0 2.674V1.036A1.025 1.025 0 0 1 1.034 0h.641A1.025 1.025 0 0 1 2.71 1.036v1.638A1.038 1.038 0 0 1 1.676 3.71z" class="cls-3" transform="translate(19.61)"/>
                <path id="Path-22" d="M17.541 3.71H1.034A1.025 1.025 0 0 1 0 2.674V1.036A1.025 1.025 0 0 1 1.034 0h16.507a1.025 1.025 0 0 1 1.034 1.036v1.638a1.038 1.038 0 0 1-1.034 1.036z" class="cls-2"/>
                <path id="Path-23" d="M17.541 3.71H1.034A1.025 1.025 0 0 1 0 2.674V1.036A1.025 1.025 0 0 1 1.034 0h16.507a1.025 1.025 0 0 1 1.034 1.036v1.638a1.052 1.052 0 0 1-1.034 1.036z" class="cls-2" transform="translate(23.519)"/>
                <path id="Path-24" d="M21.885 3.731H1.034A1.025 1.025 0 0 1 0 2.695V1.036A1.025 1.025 0 0 1 1.034 0h20.851a1.025 1.025 0 0 1 1.035 1.036v1.659a1.038 1.038 0 0 1-1.035 1.036z" class="cls-3" transform="translate(33.945 11.297)"/>
            </g>
            <g id="mug" transform="translate(285.191 143.131)">
                <path id="handle_5_" d="M1.98.018a6.026 6.026 0 0 1 .864 12.02 6.709 6.709 0 0 1-1.364-.048.622.622 0 0 1 .184-1.23 5.5 5.5 0 0 0 1.106.04 4.782 4.782 0 0 0-.692-9.539 5.426 5.426 0 0 0-1.262.26A.622.622 0 0 1 .424.338 6.673 6.673 0 0 1 1.98.018z" class="cls-2" transform="translate(21.223 8.421)"/>
                <path id="spoon" d="M.227.141A.62.62 0 0 1 1.075.2L1.1.228l7.716 9.431a.621.621 0 0 1-.934.818l-.026-.03L.141 1.016A.623.623 0 0 1 .227.141z" class="cls-2" transform="translate(.517)"/>
                <path id="mug_2_" d="M16.673 24H6.206A6.2 6.2 0 0 1 0 17.785V0h22.878v17.785A6.2 6.2 0 0 1 16.673 24zM14.066 6.281a.409.409 0 0 0-.29.124.439.439 0 0 0-.083.124l-3.33 8.333a.6.6 0 0 0-.041.185.41.41 0 0 0 .124.29.374.374 0 0 0 .29.124.408.408 0 0 0 .289-.124.434.434 0 0 0 .083-.124l3.33-8.333a.417.417 0 0 0 .042-.18.411.411 0 0 0-.124-.29.374.374 0 0 0-.29-.129zm1.655 1.679a.409.409 0 0 0-.289.124.376.376 0 0 0-.124.29.416.416 0 0 0 .207.373l3.558 2.135-3.558 2.135a.44.44 0 0 0-.207.373.41.41 0 0 0 .124.29.374.374 0 0 0 .289.124.348.348 0 0 0 .207-.062l4.137-2.488a.4.4 0 0 0 .227-.373.463.463 0 0 0-.227-.373l-4.137-2.486a.348.348 0 0 0-.207-.062zm-6.661 0a.347.347 0 0 0-.207.062l-4.137 2.487a.42.42 0 0 0 0 .746l4.137 2.488a.347.347 0 0 0 .207.062.408.408 0 0 0 .289-.124.375.375 0 0 0 .124-.29.415.415 0 0 0-.207-.373l-3.557-2.135 3.558-2.135a.44.44 0 0 0 .207-.373.411.411 0 0 0-.124-.29.374.374 0 0 0-.29-.125z" class="cls-2" transform="translate(0 7.131)"/>
            </g>
            <g id="tea" transform="translate(44.316 150.261)">
                <path id="handle_2_" d="M5.58.015A5.6 5.6 0 0 1 6.673.04a.622.622 0 0 1-.164 1.233 4.4 4.4 0 0 0-.847-.017 4.782 4.782 0 0 0 .7 9.539.622.622 0 0 1 .095 1.24A6.026 6.026 0 0 1 5.58.015z" class="cls-2" transform="translate(0 1.292)"/>
                <path id="ug" d="M16.673 24H6.206A6.2 6.2 0 0 1 0 17.785V0h22.878v17.785A6.2 6.2 0 0 1 16.673 24zM13.632 7.96a.409.409 0 0 0-.289.124.376.376 0 0 0-.124.29.415.415 0 0 0 .207.373l3.558 2.135-3.558 2.135a.44.44 0 0 0-.207.373.41.41 0 0 0 .124.29.374.374 0 0 0 .289.124.347.347 0 0 0 .207-.062l4.137-2.488a.437.437 0 0 0 .227-.373.463.463 0 0 0-.227-.373l-4.137-2.486a.347.347 0 0 0-.207-.062zm-4.592 0a.348.348 0 0 0-.207.062L4.7 10.509a.42.42 0 0 0 0 .746l4.137 2.488a.348.348 0 0 0 .207.062.408.408 0 0 0 .289-.124.375.375 0 0 0 .124-.29.415.415 0 0 0-.207-.373l-3.561-2.135 3.557-2.135a.441.441 0 0 0 .207-.373.411.411 0 0 0-.124-.29.374.374 0 0 0-.289-.125z" class="cls-2" transform="translate(5.702)"/>
            </g>
            <g id="soda" transform="translate(80.156 137.327)">
                <path id="line_2_" d="M.321.078a.62.62 0 0 1 .824.211l.019.033L4 5.462a.621.621 0 0 1-1.069.638l-.019-.033L.077.923A.623.623 0 0 1 .321.078z" class="cls-2" transform="translate(4.778)"/>
                <path id="line_1_" d="M16.3 0a.622.622 0 0 1 .036 1.243H.621A.622.622 0 0 1 .584 0H16.3z" class="cls-2" transform="translate(1.324 5.701)"/>
                <g id="can" transform="translate(0 6.488)">
                    <path id="Path-25" d="M2.089.352A1.184 1.184 0 0 0 1.22 0a1.254 1.254 0 0 0-.868.352A1.189 1.189 0 0 0 0 1.223a1.26 1.26 0 0 0 .352.871 1.184 1.184 0 0 0 .869.352 1.254 1.254 0 0 0 .869-.352 1.189 1.189 0 0 0 .352-.871 1.113 1.113 0 0 0-.353-.871z" class="cls-2" transform="translate(13.363 16.231)"/>
                    <path id="Path-26" d="M1.22 2.446a1.254 1.254 0 0 0 .869-.352 1.189 1.189 0 0 0 .352-.871 1.26 1.26 0 0 0-.352-.871A1.184 1.184 0 0 0 1.22 0a1.254 1.254 0 0 0-.868.352A1.189 1.189 0 0 0 0 1.223a1.26 1.26 0 0 0 .352.871 1.218 1.218 0 0 0 .868.352z" class="cls-2" transform="translate(13.384 12.313)"/>
                    <path id="Path-27" d="M2.089 2.094a1.189 1.189 0 0 0 .352-.871 1.26 1.26 0 0 0-.352-.871A1.184 1.184 0 0 0 1.22 0a1.254 1.254 0 0 0-.868.352A1.189 1.189 0 0 0 0 1.223a1.26 1.26 0 0 0 .352.871 1.184 1.184 0 0 0 .869.352 1.184 1.184 0 0 0 .868-.352z" class="cls-2" transform="translate(13.363 20.107)"/>
                    <path id="Shape" d="M16.528 30.43H3.02a1.956 1.956 0 0 0-.708-1.161 8.57 8.57 0 0 0-1.3-.974A2.061 2.061 0 0 1 0 26.574V4.747a1.887 1.887 0 0 1 .414-1.161L3.165 0h13.259l2.751 3.586a1.7 1.7 0 0 1 .372 1.161v21.827a2.034 2.034 0 0 1-1.014 1.721 7.784 7.784 0 0 0-1.29.966 2.058 2.058 0 0 0-.716 1.168zm-2.917-6.9a.214.214 0 0 0-.228.228.265.265 0 0 0 .021.124l1.448 2.418a.285.285 0 0 0 .227.124.258.258 0 0 0 .227-.124l1.448-2.425c.021-.041.02-.063-.021-.124a.214.214 0 0 0-.227-.228.249.249 0 0 0-.207.124l-1.241 2.073-1.241-2.073a.228.228 0 0 0-.206-.12zm-.476-.954a.235.235 0 0 0-.166.394.418.418 0 0 0 .165.083h1.449a1.7 1.7 0 1 0-1.7-1.7 1.7 1.7 0 0 0 .517 1.223zm1.465-6.843a1.7 1.7 0 0 0 0 3.4h2.917a.234.234 0 0 0 .166-.062.289.289 0 0 0 .062-.187.214.214 0 0 0-.227-.228h-1.735l.021-.021a1.7 1.7 0 0 0-1.2-2.9zm0-3.9a1.7 1.7 0 0 0-1.2 2.9 1.7 1.7 0 0 0 2.4-2.4 1.619 1.619 0 0 0-1.2-.497zm.683-2.715a.369.369 0 0 1 .207.083 1.1 1.1 0 0 1 .31.809 1.189 1.189 0 0 1-.352.87c0 .013-.016.026-.038.044a.559.559 0 0 0-.045.039.228.228 0 0 0 .165.394.174.174 0 0 0 .145-.041 1.7 1.7 0 0 0 .6-1.306 1.555 1.555 0 0 0-.455-1.14.706.706 0 0 0-.517-.228.687.687 0 0 0-.517.207 1.358 1.358 0 0 0-.207.394l-.5 1.492a.18.18 0 0 1-.186.145.369.369 0 0 1-.207-.083 1.1 1.1 0 0 1-.31-.808 1.189 1.189 0 0 1 .352-.871c0-.013.016-.026.037-.043a.548.548 0 0 0 .045-.04.228.228 0 0 0-.166-.394.3.3 0 0 0-.145.042 1.625 1.625 0 0 0-.6 1.306 1.555 1.555 0 0 0 .455 1.14.707.707 0 0 0 .517.228.685.685 0 0 0 .517-.207 1.347 1.347 0 0 0 .207-.394l.5-1.492a.18.18 0 0 1 .192-.143zm-.166-3.192L16.362 8a.228.228 0 0 0 .207.124.214.214 0 0 0 .231-.224.265.265 0 0 0-.021-.124l-1.451-2.428a.284.284 0 0 0-.227-.124.258.258 0 0 0-.227.124l-1.449 2.425a.066.066 0 0 0-.021.046.115.115 0 0 0 .041.079.214.214 0 0 0 .227.228A.25.25 0 0 0 13.88 8l1.241-2.073z" class="cls-2"/>
                </g>
            </g>
            <g id="hand" transform="translate(105.165 69.958)">
                <path id="thumb_2_" d="M.5.741c.9-1.231 2.514-.9 4.158.8A13.374 13.374 0 0 1 7.854 7.8a.621.621 0 1 1-1.207.288A12.183 12.183 0 0 0 3.763 2.4C2.58 1.178 1.828 1.026 1.5 1.477a3.285 3.285 0 0 0 .246 3l.037.073c.864 1.674 1.105 4.972.979 9.052a.621.621 0 1 1-1.241-.039l.012-.435c.087-3.6-.148-6.574-.826-7.953L.68 5.118C-.146 3.52-.234 1.741.5.741z" class="cls-2" transform="translate(43.326 2.153)"/>
                <path id="Oval" d="M6.019 12.064A6.024 6.024 0 0 1 0 6.032a6.015 6.015 0 1 1 8.363 5.558 5.971 5.971 0 0 1-2.344.474zm0-10.82a4.789 4.789 0 0 0-3.378 8.174 4.783 4.783 0 1 0 5.239-7.8 4.74 4.74 0 0 0-1.861-.374z" class="cls-2" transform="translate(65.49)"/>
                <path id="sleeve" d="M29.052.118a.62.62 0 0 1 .83.095l.113.142c.075.095.165.205.267.33.294.358.636.757 1.021 1.188a42.263 42.263 0 0 0 3.631 3.61c3.145 2.757 6.276 4.584 9.184 5.056a.621.621 0 0 1 .5.449l.013.053c.021.089.045.22.068.393a13.949 13.949 0 0 1-.148 3.817l-.023.145a3.069 3.069 0 0 0 .72 2.383l.326.494a6.235 6.235 0 0 1 .883 1.76 4.664 4.664 0 0 1-.064 2.757v.019c-.075.415-.691 6.42-.985 9l-.027.234c-.782 6.739-1.72 13.029-2.931 18.987-1.6 7.854-3.532 14.4-5.873 19.281-2.823 5.888-6.178 9.236-10.173 9.535a.622.622 0 0 1-.093-1.24c3.409-.256 6.436-3.244 9.068-8.668l.08-.165c2.289-4.775 4.2-11.228 5.776-18.99 1.17-5.758 2.085-11.837 2.851-18.339l.114-.991c.286-2.551.908-8.588 1.006-9.006v-.012c.419-1.378.207-2.146-.721-3.561l-.218-.328a4.269 4.269 0 0 1-.963-3.345 13.533 13.533 0 0 0 .183-3.458l-.007-.057-.115-.024c-2.967-.63-6.04-2.458-9.1-5.118l-.145-.125A43.49 43.49 0 0 1 30.358 2.7c-.324-.363-.619-.7-.883-1.02l-.162-.2-.281.225c-.542.437-1.233 1.013-2.089 1.746a3.27 3.27 0 0 1-1.815.792l-.1.011a6.7 6.7 0 0 1-1.493-.066l-.088-.01c-1.691-.2-2.388-.064-3.3.961L20.1 5.2c-.586.67-3.581 5.479-8.153 13.028l-1.448 2.4-.599.972c-1.389 2.3-2.831 4.707-4.285 7.135l-3.551 5.956-.911 1.53a.621.621 0 0 1-1.085-.6l1.044-1.756L3 30.707c1.873-3.135 3.752-6.27 5.549-9.252l2.213-3.664C15.5 9.947 18.5 5.139 19.163 4.379a4.126 4.126 0 0 1 2.31-1.436 5.342 5.342 0 0 1 1.83-.027l.457.052c1.271.139 1.769.064 2.376-.456l.519-.443c.631-.535 1.161-.975 1.6-1.327l.324-.26.217-.17.214-.164z" class="cls-2" transform="translate(10.239 25.704)"/>
                <path id="welt" d="M21.267 15.588c.517-3.089.724-4.415.724-4.415C14.089 9.95 5.96 0 5.96 0s-.807.6-3.082 2.57a3.4 3.4 0 0 1-2.855.684c-.7 8.644 14.79 16.334 22.113 16.707-.455-2.072-1.262-2.031-.869-4.373z" class="cls-2" transform="translate(33.508 25.331)"/>
                <path id="line" d="M9.808.077a7.056 7.056 0 0 1 5.985 1.77.621.621 0 0 1-.848.908 5.832 5.832 0 0 0-4.981-1.444A15.393 15.393 0 0 0 4.255 3.49a26.078 26.078 0 0 0-2.342 1.565l-.181.137q-.176.134-.33.257l-.149.119-.142.116-.085.072a.621.621 0 0 1-.811-.942L.3 4.742l.131-.108.2-.159c.163-.13.344-.269.54-.416a27.308 27.308 0 0 1 2.453-1.64A16.551 16.551 0 0 1 9.808.077z" class="cls-2" transform="translate(0 51.428)"/>
                <path id="hand_1_" d="M16.258 39.452a.611.611 0 0 1-.277-.066l-.034-.018-15.638-9.1a.621.621 0 0 1-.238-.826l.553-1.053.846-1.6.823-1.545c.984-1.842 1.935-3.6 2.825-5.223l.5-.912c.175-.317.345-.624.5-.912l.178-.321c1.475-2.651 2.638-4.663 3.555-6.15a17.384 17.384 0 0 1 2.073-2.938l.052-.047c.949-.828 3.8-2.841 6.777-4.787l.661-.429c3.431-2.217 5.568-3.4 6.35-3.51l.055-.006C25.883 0 25.942 0 26 0a2.445 2.445 0 0 1 1.346.43 2.574 2.574 0 0 1 .927 1.106c.488 1.147-.018 2.357-1.352 3.238-.487.321-1.109.7-1.85 1.134l-.114.066.25-.071a19.59 19.59 0 0 1 4.315-.881 1.769 1.769 0 0 1 .367.032l.034.008a1.9 1.9 0 0 1 1.223.99 2.5 2.5 0 0 1 .173 1.683 3.71 3.71 0 0 1-1.929 2.38l-.042.022.113-.019a9.367 9.367 0 0 1 1.4-.166h.127a1.626 1.626 0 0 1 1.242.743 2.346 2.346 0 0 1 .279 2.01 3.3 3.3 0 0 1-1.114 1.569 7.066 7.066 0 0 1-2.255 1.168l-.023.007.19-.008c.145-.005.277-.008.393-.008s.236 0 .329.009h.037a1.434 1.434 0 0 1 1.234.858 2.006 2.006 0 0 1 .154 1.1 2.674 2.674 0 0 1-.477 1.2 4.831 4.831 0 0 1-2.342 1.65 12.532 12.532 0 0 1-4.036.667h-.105l-7.66 18.155a.62.62 0 0 1-.576.38zM26 1.244h-.072a9.514 9.514 0 0 0-2.195 1.08c-1.07.62-2.43 1.461-3.933 2.431a82.861 82.861 0 0 0-7 4.92 15.182 15.182 0 0 0-1.809 2.581c-.861 1.4-1.963 3.292-3.274 5.637l-.5.906-.5.909c-1.027 1.861-2.143 3.92-3.319 6.121l-.515.966-.379.712-.027.05-1.02 1.931 14.515 8.446 7.545-17.881a.617.617 0 0 1 .532-.379h.1a12.5 12.5 0 0 0 3.8-.5 5.275 5.275 0 0 0 1.234-.568 2.843 2.843 0 0 0 .788-.731 1.554 1.554 0 0 0 .266-.586.713.713 0 0 0-.032-.428.278.278 0 0 0-.229-.176c-.073-.006-.165-.009-.273-.009-.647 0-1.929.1-3.707.3l-.977.112-.437.052c-.823.1-1.68.208-2.548.323l-1.121.151h-.054a.622.622 0 0 1-.564-.875c.128-.288.615-.56 1.533-.858a42.857 42.857 0 0 1 4.621-1.085l.826-.158a9.05 9.05 0 0 0 2.841-.978 2.507 2.507 0 0 0 1.215-1.33 1.1 1.1 0 0 0-.108-.931.443.443 0 0 0-.323-.199h-.064a37.41 37.41 0 0 0-4.786.9l-.695.158-.489.112c-1.05.243-2.195.516-3.4.812l-.291.071-1.17.29-.066.016a.691.691 0 0 1-.135.014.61.61 0 0 1-.592-.527.6.6 0 0 1 .405-.684l8.419-3.006.1-.033a3.56 3.56 0 0 0 1.346-.782 2.182 2.182 0 0 0 .636-1.075 1.266 1.266 0 0 0-.042-.785.691.691 0 0 0-.458-.408.771.771 0 0 0-.186-.018 19.125 19.125 0 0 0-3.64.79c-1.792.5-4.021 1.2-6.277 1.978l-.46.159a.678.678 0 0 1-.222.039.617.617 0 0 1-.588-.49.594.594 0 0 1 .324-.69l.151-.078.979-.511.621-.328c.983-.521 1.9-1.021 2.733-1.485l.33-.185.45-.255c.918-.523 1.675-.978 2.25-1.35l.164-.107c1.046-.69 1.063-1.312.892-1.711A1.33 1.33 0 0 0 26 1.244z" class="cls-2" transform="translate(35.785 3.104)"/>
            </g>
            <g id="coffe" transform="translate(109.033 150.261)">
                <path id="handle_6_" d="M1.773.018a6.026 6.026 0 0 1 .871 12.02 5.883 5.883 0 0 1-2.22-.259.622.622 0 0 1 .393-1.179 4.654 4.654 0 0 0 1.747.2 4.782 4.782 0 0 0-.7-9.538 5.645 5.645 0 0 0-.783.112.622.622 0 0 1-.259-1.22 6.871 6.871 0 0 1 .951-.136z" class="cls-2" transform="translate(21.409 1.29)"/>
                <path id="mug_5_" d="M16.673 24H6.206A6.2 6.2 0 0 1 0 17.785V0h22.878v17.785A6.2 6.2 0 0 1 16.673 24zM14.045 6.281a.409.409 0 0 0-.289.124.441.441 0 0 0-.082.123l-3.33 8.333a.6.6 0 0 0-.042.187.41.41 0 0 0 .124.29.374.374 0 0 0 .29.124.408.408 0 0 0 .284-.123.437.437 0 0 0 .082-.123l3.33-8.333a.415.415 0 0 0-.083-.477.374.374 0 0 0-.284-.125zM15.7 7.96a.409.409 0 0 0-.289.124.376.376 0 0 0-.124.29.415.415 0 0 0 .207.373l3.558 2.135-3.558 2.135a.44.44 0 0 0-.207.373.41.41 0 0 0 .124.29.374.374 0 0 0 .289.124.347.347 0 0 0 .207-.062l4.137-2.488a.367.367 0 0 0 .228-.373.463.463 0 0 0-.228-.373l-4.137-2.486a.347.347 0 0 0-.207-.062zm-6.661 0a.348.348 0 0 0-.207.062L4.7 10.509a.42.42 0 0 0 0 .746l4.137 2.488a.348.348 0 0 0 .207.062.408.408 0 0 0 .289-.124.375.375 0 0 0 .124-.29.415.415 0 0 0-.207-.373l-3.561-2.135 3.557-2.135a.441.441 0 0 0 .207-.373.411.411 0 0 0-.124-.29.374.374 0 0 0-.289-.125z" class="cls-2"/>
            </g>
            <path id="line_3_" d="M339.118 0a.622.622 0 0 1 .036 1.243H.621A.622.622 0 0 1 .584 0h338.534z" class="cls-2" transform="translate(0 174.162)"/>
            <path id="Path-28" d="M23.974 17.744L22.837 0 0 1.472l.786 12c2.027-1.741 12-8.416 13.446-8.54s3.186 1.99.7 3.628S7.2 12.893 7.2 12.893c4.363-1.534 9.886-3.193 10.92-2.922 1.572.415 1.469 3.317-1.531 4.27l-8.418 3.005s9.8-2.467 11.129-2.363 2.482 3.545-3.682 4.705c-6.164 1.182-6.412 1.72-6.412 1.72s7.592-1.078 9.164-.933 1.613 4.249-5.937 4.229l-.041.1 5.813-.373a6.194 6.194 0 0 0 5.769-6.587z" class="cls-2" transform="translate(152.617 68.735)"/>
        </g>
        <path id="Línea_56" fill="none" stroke="#fff" d="M0 0L9 118" transform="translate(1326.5 825.5)"/>
    </g>
</svg>
