<?xml version="1.0" encoding="UTF-8"?><svg xmlns="http://www.w3.org/2000/svg" viewBox="0 0 438.66 429.89"><defs><style>.d{fill:#fff;}.e{fill:#fafafa;}.f{fill:#77574a;}.g{fill:#f5f5f5;}.h{fill:#455a64;}.i{fill:#e0e0e0;}.j{fill:#ff725e;}.k{opacity:.3;}.l{fill:#ebebeb;}.m{fill:#967262;}.n{fill:#e77676;}.o{fill:#263238;}</style></defs><g id="a"><g><path class="g" d="M345.28,273.41c-15.79-13.77-17.27-36.32-14.45-56.15,.47-3.31,.48-6.85,2.38-9.6,1.9-2.74,5.8-4.34,8.62-2.62,2.34,1.43,3.11,4.41,4.23,6.93,1.5,3.36,3.95,6.26,6.99,8.28,2,1.33,4.54,2.28,6.75,1.35,3.04-1.27,3.8-5.19,4.14-8.5,.62-6.16,1.25-12.32,1.88-18.48,.34-3.31,.69-6.68,2.05-9.71,1.37-3.02,3.95-5.69,7.19-6.23,3.24-.54,6.93,1.69,7.24,4.99,.13,1.38-.29,2.74-.35,4.12-.06,1.38,.42,2.97,1.68,3.49,1.28,.53,2.7-.26,3.79-1.13,3.77-2.97,6.55-7.02,9.17-11.06,2.62-4.04,5.19-8.19,8.68-11.49,3.49-3.31,8.08-5.73,12.84-5.49,4.76,.24,9.49,3.71,10.18,8.48,.7,4.79-2.53,9.22-5.89,12.67-4.99,5.12-10.71,9.51-16.93,12.98-1.12,.63-2.34,1.3-2.87,2.48-.96,2.13,.9,4.54,2.99,5.5,2.37,1.09,5.07,1.12,7.62,1.7,2.54,.58,5.21,2.02,5.92,4.56,.99,3.52-2.22,6.76-5.24,8.78-6.06,4.04-12.81,7.03-19.86,8.78-2.53,.63-5.17,1.13-7.31,2.63-2.14,1.5-3.65,4.34-2.71,6.79,.93,2.46,3.89,3.53,6.49,3.33,2.6-.2,5.02-1.33,7.55-1.99,4.72-1.22,10.55-.28,13.04,3.96,1.63,2.79,1.41,6.39,.12,9.37-1.3,2.97-3.54,5.41-5.89,7.63-8.2,7.75-18.25,13.62-29.18,16.14-10.93,2.52-20.79,2.45-30.85-2.5"/><path class="i" d="M351.76,261.49c4.01-9.73,9.29-20.03,15.19-30.61,1.48-2.64,2.95-5.25,4.39-7.82,1.45-2.56,2.88-5.1,4.44-7.5,3.1-4.81,6.44-9.2,9.74-13.27,3.3-4.07,6.58-7.82,9.68-11.29,3.1-3.47,6.06-6.66,8.87-9.44,5.62-5.59,10.67-9.56,14.25-12.14,1.79-1.3,3.21-2.26,4.18-2.9,.47-.3,.83-.54,1.11-.72,.25-.16,.38-.24,.39-.23,0,0-.11,.1-.35,.28-.27,.19-.62,.45-1.08,.77-.95,.67-2.35,1.66-4.11,2.99-3.53,2.64-8.53,6.64-14.09,12.26-2.79,2.8-5.72,5.99-8.8,9.47-3.08,3.49-6.34,7.24-9.62,11.31-3.28,4.07-6.6,8.45-9.67,13.24-1.55,2.39-2.97,4.91-4.42,7.48-1.44,2.57-2.91,5.18-4.39,7.82-5.89,10.57-11.17,20.84-15.2,30.52"/><path class="i" d="M375.96,215.55s-.1-.51-.17-1.44c-.08-.93-.14-2.28-.19-3.95-.11-3.34-.11-7.96-.09-13.05,.02-5.09-.04-9.7-.21-13.03-.08-1.66-.15-3.01-.22-3.94-.06-.93-.07-1.45-.03-1.45,.04,0,.13,.5,.27,1.43,.14,.92,.28,2.27,.41,3.94,.28,3.33,.41,7.96,.39,13.05-.03,5.02-.06,9.57-.09,13.04,0,1.57,0,2.89,0,3.95,0,.93-.02,1.45-.07,1.45Z"/><path class="i" d="M419.29,212.19s-.62,.05-1.72,.02c-1.1-.02-2.69-.06-4.66-.04-3.94,0-9.37,.19-15.36,.67-5.99,.48-11.39,1.15-15.28,1.75-1.95,.28-3.52,.56-4.61,.74-1.09,.19-1.69,.27-1.7,.23,0-.04,.58-.2,1.66-.46,1.08-.25,2.64-.59,4.59-.93,3.89-.71,9.3-1.45,15.31-1.94,6.01-.47,11.47-.6,15.41-.49,1.97,.04,3.57,.14,4.67,.24,1.1,.1,1.7,.18,1.7,.22Z"/><path class="i" d="M352.37,260.76s-.1-.18-.24-.55c-.15-.44-.34-.97-.56-1.62-.48-1.4-1.12-3.46-1.88-6-1.52-5.09-3.41-12.18-5.38-20.03-1.98-7.86-3.79-14.96-5.21-20.07-.7-2.49-1.27-4.53-1.7-6.05-.18-.66-.33-1.2-.45-1.65-.1-.38-.14-.58-.12-.59,.02,0,.1,.18,.24,.55,.15,.44,.34,.97,.56,1.61,.48,1.4,1.12,3.46,1.88,6,1.52,5.09,3.41,12.18,5.39,20.04,1.98,7.86,3.79,14.96,5.21,20.07,.7,2.48,1.27,4.53,1.7,6.05,.18,.66,.33,1.2,.45,1.65,.1,.38,.14,.58,.12,.59Z"/><path class="i" d="M410.77,248.65s-.2,.08-.59,.17c-.46,.1-1.02,.22-1.7,.37-1.57,.33-3.68,.77-6.26,1.31-5.28,1.11-12.56,2.72-20.6,4.51-8.04,1.79-15.34,3.34-20.65,4.33-2.65,.5-4.8,.88-6.29,1.11-.69,.1-1.26,.19-1.72,.26-.39,.05-.6,.07-.61,.05,0-.02,.2-.08,.59-.17,.46-.1,1.02-.22,1.7-.37,1.57-.33,3.68-.77,6.25-1.31,5.28-1.1,12.56-2.72,20.6-4.51,8.04-1.79,15.34-3.34,20.64-4.33,2.65-.5,4.8-.88,6.3-1.11,.69-.1,1.26-.19,1.72-.26,.39-.05,.6-.07,.61-.05Z"/></g><g><path class="l" d="M16.13,102.43s-6.23,2.52,.96,15.76c7.19,13.23,12.1,19.75,12.1,19.75,0,0,1.29,3.08-1.31,3.63-2.61,.55-8.4-.22-9.49,3.02-1.12,3.36,1.37,6.43,6.34,9.06,4.97,2.63,15.65,8.78,16.61,9.34,.95,.55,1.92,1.97,.2,2.63-1.72,.66-14.66,2.35-13.49,8.45,1.17,6.09,16.22,11.13,17.85,11.72,1.63,.58,2.04,1.26,1.93,2.15-.11,.89-4.51,1.05-8.18,1.68-3.66,.63-7.8,2.01-6.83,5.47,.97,3.46,9.99,10.55,31.48,12.09l10.01,.06,5.22-8.59c10.06-19.06,8.81-30.46,6.39-33.12s-5.78,.13-8.25,2.9-4.94,6.43-5.75,6.05c-.81-.38-1.17-1.08-.8-2.78,.37-1.7,4.05-17.13-.5-21.35-4.55-4.22-12.83,5.88-14.3,6.98-1.47,1.11-2.16-.47-2.13-1.56,.03-1.11,.46-13.43,.86-19.04,.4-5.61-.89-9.35-4.33-10.17-3.32-.79-5.73,4.53-7.58,6.46-1.85,1.92-3.78-.81-3.78-.81,0,0-2.93-7.62-10.36-20.72-7.43-13.1-12.98-9.02-12.98-9.02"/><path class="i" d="M74.9,209.57c-5.42-9.64-14.76-26.94-22.86-41.75-8.09-14.81-15.44-28.2-20.8-37.87-2.68-4.82-4.86-8.73-6.37-11.44-.75-1.34-1.33-2.39-1.73-3.11-.19-.35-.34-.62-.44-.81-.1-.18-.14-.28-.14-.28,0,0,.06,.09,.17,.27l.47,.8c.41,.72,1.01,1.75,1.78,3.08,1.54,2.68,3.75,6.57,6.46,11.4,5.42,9.64,12.79,23.03,20.89,37.83,8.1,14.81,17.41,32.13,22.78,41.8"/><path class="i" d="M26.45,145.99s.26,.04,.7,.18c.45,.13,1.09,.34,1.87,.6,1.58,.53,3.73,1.32,6.1,2.24,2.33,.91,4.43,1.73,6.04,2.36,.73,.28,1.34,.52,1.84,.7,.43,.16,.67,.27,.66,.29s-.26-.04-.7-.17c-.45-.13-1.09-.34-1.87-.61-1.57-.55-3.72-1.37-6.08-2.28-2.33-.89-4.44-1.7-6.06-2.32-.73-.28-1.34-.51-1.84-.7-.43-.17-.67-.27-.66-.29Z"/><path class="i" d="M44.34,151.71c-.08-.03,1.35-4.55,3.2-10.09,1.85-5.55,3.42-10.02,3.5-9.99,.08,.03-1.35,4.55-3.2,10.09-1.85,5.55-3.41,10.02-3.5,9.99Z"/><path class="i" d="M55.75,175.01s.12-.24,.39-.63c.31-.44,.69-1,1.14-1.65,.96-1.4,2.28-3.33,3.66-5.51,1.38-2.18,2.57-4.2,3.41-5.67,.4-.69,.73-1.27,1-1.74,.24-.41,.38-.63,.4-.62,.02,.01-.09,.25-.29,.68-.21,.43-.52,1.04-.92,1.79-.8,1.5-1.96,3.54-3.34,5.73-1.38,2.19-2.74,4.11-3.75,5.48-.51,.68-.92,1.23-1.22,1.6-.3,.37-.47,.57-.49,.56Z"/><path class="i" d="M38.43,173.4s.24-.02,.68,0c.5,.03,1.12,.06,1.85,.1,1.56,.1,3.72,.25,6.11,.44,2.38,.19,4.54,.38,6.1,.53,.73,.08,1.34,.14,1.85,.2,.44,.05,.68,.09,.67,.11,0,.02-.24,.02-.68,0-.5-.03-1.12-.06-1.85-.1-1.56-.1-3.72-.25-6.11-.44-2.38-.19-4.54-.38-6.1-.53-.73-.08-1.34-.14-1.85-.2-.44-.05-.68-.09-.67-.11Z"/><path class="i" d="M45.89,195.25s.31-.02,.87,0c.62,.03,1.42,.07,2.38,.12,2.01,.11,4.78,.29,7.83,.51,3.06,.22,5.83,.43,7.83,.6,.96,.09,1.75,.16,2.37,.22,.56,.06,.87,.1,.87,.12,0,.02-.31,.02-.87,0-.62-.03-1.42-.07-2.38-.12-2.01-.11-4.78-.29-7.83-.51-3.06-.22-5.82-.43-7.83-.6-.96-.09-1.75-.16-2.37-.22-.56-.06-.87-.1-.87-.12Z"/><path class="i" d="M67.52,196.62s.15-.3,.47-.81c.35-.55,.82-1.28,1.37-2.15,1.16-1.81,2.75-4.32,4.42-7.14,1.68-2.82,3.13-5.41,4.17-7.29,.5-.9,.91-1.65,1.23-2.23,.29-.53,.46-.81,.48-.8,.02,0-.12,.31-.38,.86-.26,.54-.65,1.32-1.15,2.28-.99,1.91-2.42,4.52-4.1,7.35-1.68,2.83-3.3,5.32-4.5,7.11-.61,.89-1.1,1.61-1.46,2.09-.35,.49-.56,.75-.57,.74Z"/></g><g><rect class="l" x="361.96" y="306.59" width="57.54" height="85.37" transform="translate(-26.64 666.24) rotate(-79.01)"/><path class="i" d="M438.25,329.9s-.31,.23-.93,.6c-.69,.4-1.6,.93-2.73,1.59-2.46,1.39-5.9,3.34-10.12,5.73-8.65,4.81-20.49,11.4-33.61,18.7l-.28,.15-.21-.24c-.16-.18-.33-.38-.5-.58-9.81-11.6-18.69-22.09-25.18-29.76-3.15-3.78-5.72-6.87-7.56-9.08-.84-1.04-1.52-1.86-2.03-2.49-.46-.58-.69-.89-.67-.9,.02-.02,.29,.26,.79,.8,.54,.6,1.25,1.4,2.14,2.4,1.89,2.17,4.52,5.2,7.75,8.92,6.54,7.63,15.48,18.08,25.35,29.61,.17,.2,.34,.4,.5,.58l-.48-.09c13.16-7.22,25.04-13.74,33.72-18.5,4.27-2.3,7.75-4.18,10.24-5.52,1.16-.61,2.09-1.1,2.8-1.46,.64-.33,.99-.49,1-.46Z"/><path class="i" d="M343.48,370.11c-.13-.17,7.67-6.69,17.43-14.56,9.76-7.88,17.79-14.12,17.92-13.96,.13,.17-7.67,6.68-17.44,14.56-9.76,7.87-17.79,14.12-17.92,13.96Z"/><path class="i" d="M406.83,346.3c.19-.1,4.93,8.8,10.57,19.87,5.65,11.07,10.07,20.12,9.88,20.22-.19,.1-4.92-8.8-10.57-19.87-5.65-11.07-10.07-20.12-9.88-20.22Z"/></g><g><path class="i" d="M401.66,66.88s-.49,.06-1.43,.09c-1.03,.02-2.39,.05-4.1,.09-3.66,.04-8.79,.09-15.09,.15-12.83,.04-30.39,.08-49.8,.14-1.22,0-2.42,0-3.55,0h-.47v-.47c.06-18.6,.11-35.28,.15-47.43,.06-5.96,.11-10.8,.15-14.25,.04-1.61,.06-2.89,.09-3.86,.03-.88,.06-1.34,.09-1.34s.06,.46,.09,1.34l.09,3.86c.04,3.45,.09,8.29,.15,14.25,.04,12.15,.09,28.83,.15,47.43l-.47-.47c1.13,0,2.33,0,3.55,0,19.4,.05,36.97,.1,49.8,.14,6.3,.06,11.43,.11,15.09,.15,1.71,.04,3.08,.07,4.1,.09,.94,.03,1.43,.06,1.43,.09Z"/><path class="i" d="M393.44,16.23s-.75,.8-2.21,2.11c-1.59,1.4-3.7,3.25-6.25,5.48-5.3,4.6-12.66,10.9-20.83,17.82l-1.24,1.05-.32,.27-.3-.28c-3.27-3.03-6.38-5.93-9.27-8.61h.58c-5.46,4.51-10.14,8.38-13.61,11.24-1.6,1.28-2.92,2.33-3.95,3.16-.93,.72-1.44,1.09-1.48,1.06-.03-.04,.42-.48,1.29-1.27,.99-.87,2.25-1.99,3.79-3.35,3.41-2.93,8.02-6.88,13.39-11.48l.29-.25,.29,.26c2.9,2.66,6.03,5.54,9.31,8.56h-.62l1.24-1.06c8.17-6.92,15.6-13.14,21.01-17.61,2.62-2.14,4.79-3.91,6.44-5.25,1.53-1.22,2.4-1.88,2.44-1.83Z"/><path class="i" d="M393.44,31.73c-.13,0-.24-1.76-.32-4.62-.08-2.86-.14-6.83-.14-11.25l.47,.47c-.25,0-.53,0-.8,0-4.6,0-8.77-.05-11.78-.14-3.02-.09-4.88-.2-4.88-.33s1.86-.25,4.88-.33c3.02-.09,7.18-.14,11.78-.14,.27,0,.55,0,.8,0h.47v.47c0,4.42-.06,8.38-.15,11.25-.08,2.86-.2,4.62-.32,4.62Z"/></g><g><g><path class="i" d="M13.05,313.42c1.43-.86,2.95-1.52,4.52-1.96l.93-4.47,7.55-.13,1.09,4.44c1.58,.39,3.13,.99,4.58,1.8l3.82-2.5,5.44,5.25-2.37,3.9c.86,1.43,1.52,2.95,1.96,4.52l4.47,.93,.13,7.55-4.44,1.09c-.39,1.58-.99,3.12-1.8,4.58l2.5,3.82-5.25,5.44-3.9-2.37c-1.43,.86-2.95,1.52-4.52,1.96l-.93,4.47-7.55,.13-1.09-4.44c-1.58-.39-3.13-.99-4.58-1.8l-3.82,2.5-5.44-5.25,2.37-3.9c-.86-1.43-1.52-2.95-1.96-4.52l-4.47-.93-.13-7.55,4.44-1.09c.39-1.58,.99-3.13,1.8-4.58l-2.5-3.82,5.25-5.44,3.9,2.37h0Zm4.03,10.06c-3.11,3.22-3.02,8.35,.2,11.46,3.22,3.11,8.35,3.02,11.46-.2,3.11-3.22,3.02-8.35-.2-11.46-3.22-3.11-8.35-3.02-11.46,.2Z"/><path class="i" d="M17.08,323.49s.42-.6,1.51-1.32c1.07-.71,2.93-1.5,5.29-1.25,1.16,.13,2.43,.51,3.59,1.28,1.15,.77,2.23,1.86,2.91,3.27,.36,.7,.6,1.47,.74,2.27,.15,.8,.17,1.65,.05,2.49-.21,1.69-1.01,3.36-2.25,4.67-1.27,1.29-2.91,2.15-4.59,2.41-.84,.15-1.69,.16-2.5,.04-.81-.11-1.59-.33-2.3-.66-1.44-.63-2.57-1.67-3.37-2.79-.81-1.13-1.23-2.39-1.4-3.55-.33-2.35,.39-4.24,1.06-5.33,.69-1.11,1.27-1.55,1.27-1.55,.04,.04-.49,.53-1.11,1.64-.61,1.09-1.26,2.94-.9,5.19,.19,1.11,.61,2.3,1.39,3.37,.78,1.06,1.87,2.04,3.24,2.62,.67,.31,1.41,.51,2.18,.61,.77,.11,1.57,.09,2.36-.05,1.59-.26,3.14-1.07,4.33-2.29,1.17-1.24,1.93-2.81,2.13-4.41,.12-.8,.1-1.6-.03-2.36-.12-.76-.35-1.5-.68-2.16-.63-1.35-1.65-2.4-2.73-3.14-1.1-.75-2.31-1.13-3.42-1.27-2.26-.28-4.08,.43-5.15,1.08-1.09,.66-1.57,1.21-1.6,1.17Z"/><path class="i" d="M13.05,313.42s-.08-.04-.25-.13c-.18-.11-.43-.25-.75-.43-.68-.4-1.67-.98-2.94-1.74h.09c-1.34,1.39-3.09,3.23-5.22,5.45v-.15c.78,1.15,1.62,2.44,2.53,3.81l.05,.07-.04,.07c-.74,1.34-1.37,2.87-1.77,4.55l-.02,.09-.09,.02c-1.38,.34-2.88,.71-4.43,1.1l.13-.16c.05,2.38,.1,4.9,.15,7.55l-.15-.18c1.38,.29,2.91,.6,4.47,.92l.11,.02,.03,.11c.42,1.46,1.06,3.01,1.95,4.47l.06,.1-.06,.1c-.73,1.21-1.54,2.55-2.36,3.91l-.03-.26c1.71,1.65,3.55,3.42,5.44,5.24l-.27-.03c1.19-.78,2.49-1.64,3.82-2.51l.11-.07,.12,.07c1.33,.74,2.89,1.38,4.53,1.78l.13,.03,.03,.13c.34,1.39,.71,2.9,1.09,4.43l-.23-.17c2.39-.04,4.96-.09,7.55-.14l-.22,.18c.29-1.41,.61-2.94,.93-4.47l.03-.14,.14-.04c1.49-.42,3.03-1.07,4.46-1.94h0l.12-.07,.12,.07c1.31,.79,2.61,1.58,3.9,2.37l-.29,.04c1.77-1.84,3.52-3.65,5.25-5.43l-.03,.29c-.84-1.29-1.68-2.56-2.5-3.82l-.08-.12,.07-.12c.8-1.44,1.4-2.97,1.78-4.53l.03-.13,.13-.03c1.5-.37,2.98-.73,4.44-1.08l-.17,.22c-.04-2.58-.08-5.1-.13-7.55l.17,.21c-1.52-.32-3.01-.63-4.47-.94l-.12-.03-.03-.12c-.45-1.6-1.11-3.11-1.93-4.47l-.06-.1,.06-.1c.81-1.34,1.6-2.63,2.37-3.9l.03,.24c-1.91-1.85-3.71-3.6-5.42-5.26l.22,.02c-1.34,.88-2.61,1.7-3.82,2.49l-.08,.06-.09-.05c-1.52-.85-3.05-1.43-4.54-1.8l-.09-.02-.02-.09c-.39-1.61-.74-3.07-1.07-4.44l.14,.1c-2.93,.04-5.42,.07-7.55,.1l.1-.08c-.38,1.78-.7,3.25-.96,4.47v.04h-.05c-1.6,.46-2.72,.98-3.45,1.34-.35,.18-.62,.32-.81,.42-.18,.1-.27,.14-.27,.14,0,0,.09-.07,.25-.17,.17-.11,.43-.27,.8-.46,.72-.38,1.84-.93,3.45-1.4l-.05,.06c.25-1.22,.54-2.69,.9-4.48l.02-.08h.08c2.13-.05,4.63-.1,7.55-.17h.11l.03,.1c.34,1.37,.7,2.82,1.1,4.43l-.11-.11c1.52,.37,3.07,.95,4.63,1.81h-.17c1.21-.79,2.47-1.62,3.81-2.51l.12-.08,.1,.1c1.72,1.66,3.53,3.39,5.45,5.24l.11,.11-.08,.13c-.77,1.27-1.55,2.57-2.36,3.91v-.21c.84,1.39,1.52,2.93,1.99,4.56l-.16-.15c1.46,.3,2.95,.61,4.47,.92l.17,.03v.17c.05,2.46,.1,4.97,.14,7.55v.18l-.17,.04c-1.46,.36-2.93,.72-4.43,1.09l.16-.16c-.39,1.6-1,3.17-1.82,4.64v-.24c.82,1.26,1.65,2.53,2.5,3.82l.1,.15-.13,.13c-1.72,1.79-3.47,3.6-5.25,5.44l-.13,.13-.16-.1c-1.29-.78-2.59-1.57-3.9-2.37h.24c-1.46,.89-3.05,1.56-4.57,1.99l.16-.18c-.32,1.53-.64,3.06-.93,4.47l-.04,.18h-.18c-2.6,.05-5.16,.09-7.55,.13h-.18l-.04-.17c-.37-1.53-.74-3.05-1.08-4.44l.16,.16c-1.68-.41-3.27-1.07-4.64-1.83h.23c-1.32,.86-2.63,1.71-3.82,2.49l-.14,.09-.12-.12c-1.88-1.82-3.72-3.6-5.43-5.25l-.12-.12,.09-.14c.83-1.36,1.64-2.69,2.37-3.9v.21c-.9-1.49-1.56-3.08-1.98-4.57l.15,.14c-1.56-.33-3.09-.65-4.47-.94l-.14-.03v-.15c-.04-2.65-.08-5.18-.12-7.55v-.13l.13-.03c1.56-.38,3.06-.74,4.44-1.07l-.11,.11c.43-1.7,1.07-3.25,1.83-4.61v.14c-.89-1.38-1.73-2.67-2.48-3.83l-.05-.08,.07-.07c2.15-2.2,3.93-4.02,5.28-5.4l.04-.04,.05,.03c1.25,.78,2.21,1.37,2.88,1.79,.31,.2,.56,.35,.74,.47,.17,.11,.25,.16,.25,.17Z"/></g><g><path class="g" d="M67.44,292.23c.85-.52,1.77-.91,2.7-1.18l.56-2.68,4.52-.08,.65,2.65c.95,.23,1.87,.59,2.74,1.08l2.29-1.5,3.25,3.14-1.42,2.34c.52,.86,.91,1.77,1.17,2.7l2.68,.56,.08,4.52-2.65,.65c-.23,.95-.59,1.87-1.08,2.74l1.5,2.29-3.14,3.25-2.34-1.42c-.86,.52-1.77,.91-2.7,1.17l-.56,2.68-4.52,.08-.65-2.66c-.95-.23-1.87-.59-2.74-1.08l-2.29,1.5-3.25-3.14,1.42-2.34c-.52-.86-.91-1.77-1.18-2.7l-2.68-.56-.08-4.52,2.65-.65c.23-.95,.59-1.87,1.08-2.74l-1.5-2.29,3.14-3.25,2.34,1.42h0Zm2.41,6.02c-1.86,1.93-1.81,5,.12,6.86,1.93,1.86,5,1.81,6.86-.12,1.86-1.93,1.81-5-.12-6.86-1.93-1.86-5-1.81-6.86,.12Z"/><path class="g" d="M69.85,298.26s.25-.36,.9-.79c.64-.42,1.75-.9,3.17-.75,.7,.08,1.46,.31,2.15,.76,.69,.46,1.33,1.11,1.74,1.96,.21,.42,.36,.88,.44,1.36,.09,.48,.1,.99,.03,1.49-.12,1.01-.6,2.01-1.35,2.8-.76,.77-1.74,1.29-2.75,1.45-.5,.09-1.01,.1-1.49,.03-.49-.06-.95-.19-1.38-.39-.86-.37-1.54-1-2.02-1.67-.48-.68-.74-1.43-.84-2.12-.2-1.41,.23-2.54,.64-3.19,.41-.66,.76-.93,.76-.93,.03,.02-.29,.32-.67,.98-.37,.65-.75,1.76-.54,3.11,.11,.66,.36,1.38,.83,2.02,.47,.63,1.12,1.22,1.94,1.57,.4,.19,.85,.31,1.31,.36,.46,.06,.94,.06,1.41-.03,.95-.15,1.88-.64,2.59-1.37,.7-.74,1.16-1.68,1.28-2.64,.07-.48,.06-.96-.02-1.41-.07-.46-.21-.9-.41-1.29-.38-.81-.99-1.43-1.64-1.88-.66-.45-1.38-.67-2.05-.76-1.35-.17-2.44,.26-3.08,.65-.65,.4-.94,.73-.96,.7Z"/><path class="g" d="M67.44,292.23s-.05-.02-.15-.08l-.45-.26c-.41-.24-1-.59-1.76-1.04h.05c-.8,.83-1.85,1.93-3.12,3.26v-.09c.46,.69,.97,1.46,1.52,2.28l.03,.04-.02,.04c-.44,.8-.82,1.72-1.06,2.73v.05h-.07c-.83,.22-1.72,.44-2.65,.67l.08-.1c.03,1.42,.06,2.93,.09,4.52l-.09-.11c.83,.17,1.74,.36,2.68,.55h.07l.02,.08c.25,.87,.64,1.8,1.17,2.67l.04,.06-.04,.06c-.44,.72-.92,1.52-1.41,2.34l-.02-.15c1.02,.99,2.13,2.05,3.26,3.14l-.16-.02c.71-.47,1.49-.98,2.28-1.5l.07-.04,.07,.04c.8,.44,1.73,.82,2.71,1.06l.08,.02,.02,.08c.2,.83,.43,1.74,.65,2.65l-.13-.1c1.43-.03,2.97-.05,4.52-.08l-.13,.11c.18-.85,.37-1.76,.56-2.68l.02-.08,.08-.02c.89-.25,1.81-.64,2.67-1.16h0l.07-.04,.07,.04c.78,.48,1.56,.95,2.34,1.42l-.17,.02c1.06-1.1,2.11-2.18,3.14-3.25l-.02,.17c-.5-.77-1-1.53-1.5-2.29l-.05-.07,.04-.07c.48-.86,.84-1.78,1.07-2.71l.02-.08,.08-.02c.9-.22,1.78-.44,2.66-.65l-.1,.13c-.03-1.54-.05-3.05-.07-4.52l.1,.12c-.91-.19-1.8-.38-2.68-.56l-.07-.02-.02-.07c-.27-.96-.67-1.86-1.16-2.68l-.04-.06,.04-.06c.49-.8,.96-1.58,1.42-2.33l.02,.14c-1.14-1.11-2.22-2.15-3.25-3.15h.13c-.81,.54-1.56,1.03-2.29,1.5l-.05,.03-.05-.03c-.91-.51-1.82-.85-2.72-1.08h-.05v-.07c-.25-.97-.46-1.84-.65-2.66l.08,.06c-1.75,.02-3.24,.04-4.52,.06l.06-.05c-.23,1.07-.42,1.94-.57,2.67v.03h-.03c-.96,.27-1.63,.59-2.07,.8l-.49,.25c-.11,.06-.16,.09-.16,.08,0,0,.05-.04,.15-.1,.1-.06,.26-.16,.48-.27,.43-.23,1.1-.56,2.06-.84l-.03,.03c.15-.73,.32-1.61,.54-2.68v-.05h.06c1.28-.03,2.77-.06,4.52-.1h.07l.02,.06c.2,.82,.42,1.69,.66,2.65l-.07-.07c.91,.22,1.84,.57,2.77,1.08h-.1c.73-.47,1.48-.97,2.28-1.5l.07-.05,.06,.06c1.03,.99,2.11,2.03,3.26,3.13l.07,.06-.05,.08c-.46,.76-.93,1.54-1.41,2.34v-.12c.51,.83,.91,1.75,1.19,2.73l-.09-.09c.88,.18,1.77,.37,2.68,.55l.1,.02v.1c.03,1.47,.06,2.98,.09,4.52v.11l-.1,.03c-.87,.21-1.76,.43-2.65,.65l.1-.1c-.23,.96-.6,1.9-1.09,2.78v-.14c.49,.75,.99,1.52,1.49,2.28l.06,.09-.08,.08c-1.03,1.07-2.08,2.15-3.14,3.25l-.08,.08-.09-.06c-.77-.47-1.55-.94-2.34-1.42h.14c-.88,.53-1.82,.93-2.74,1.19l.1-.11c-.19,.92-.38,1.83-.56,2.68l-.02,.11h-.11c-1.56,.03-3.09,.05-4.52,.08h-.11l-.03-.1c-.22-.92-.45-1.82-.65-2.66l.1,.1c-1.01-.25-1.96-.64-2.78-1.09h.14c-.79,.51-1.57,1.02-2.29,1.49l-.09,.06-.07-.07c-1.13-1.09-2.23-2.16-3.25-3.15l-.07-.07,.05-.08c.49-.81,.98-1.61,1.42-2.33v.12c-.54-.89-.93-1.84-1.18-2.73l.09,.08c-.93-.2-1.85-.39-2.68-.56l-.09-.02v-.09c-.03-1.59-.05-3.1-.07-4.52v-.08l.08-.02c.93-.23,1.83-.44,2.66-.64l-.07,.07c.25-1.02,.64-1.95,1.1-2.76v.08c-.53-.83-1.03-1.6-1.49-2.29l-.03-.05,.04-.04c1.29-1.32,2.35-2.41,3.16-3.24l.03-.03,.03,.02c.75,.46,1.32,.82,1.72,1.07l.44,.28c.1,.06,.15,.1,.15,.1Z"/></g><g><path class="i" d="M81.97,410.65v-.02l-2.06-8.4c-3.03-.75-5.95-1.9-8.67-3.41l-7.25,4.75h-.01l-10.32-9.98v-.02l4.49-7.39c-1.61-2.67-2.86-5.54-3.71-8.55l-8.48-1.77v-.02l-.25-14.35h.02l8.4-2.06c.75-3.03,1.9-5.95,3.41-8.67l-4.75-7.25h.01l9.97-10.34h.02l7.39,4.49c2.67-1.61,5.54-2.86,8.55-3.71l1.77-8.49h.02l14.35-.25v.02l2.06,8.4c3.04,.75,5.95,1.9,8.67,3.41l7.25-4.75h.01l10.32,9.98v.02l-4.49,7.39c1.61,2.67,2.86,5.54,3.71,8.55l8.48,1.77v.02l.25,14.35h-.02l-8.4,2.06c-.75,3.03-1.9,5.95-3.41,8.67l4.75,7.25h-.01l-9.97,10.34h-.02l-7.39-4.49c-2.67,1.61-5.54,2.86-8.55,3.71l-1.77,8.49h-.02l-14.35,.25Zm-10.74-11.89h.01c2.73,1.53,5.65,2.68,8.69,3.43h.01v.02l2.06,8.39,14.29-.25,1.76-8.48h.01c3.01-.86,5.89-2.11,8.56-3.72h.03l7.39,4.48,9.92-10.28-4.74-7.24h0c1.52-2.74,2.67-5.66,3.42-8.7h0v-.02l8.41-2.06-.25-14.29-8.48-1.76h0c-.86-3.03-2.11-5.91-3.72-8.58h0v-.03l4.49-7.39-10.28-9.93-7.24,4.74h-.01c-2.72-1.53-5.64-2.68-8.69-3.43h-.01v-.02l-2.06-8.39-14.29,.25-1.76,8.48h-.01c-3.01,.86-5.89,2.11-8.56,3.73h-.03l-7.39-4.48-9.93,10.28,4.74,7.24h0c-1.52,2.74-2.67,5.66-3.42,8.7h0v.02l-8.41,2.06,.25,14.29,8.48,1.76h0c.85,3.02,2.11,5.9,3.72,8.58h0v.03l-4.49,7.39,10.28,9.93,7.24-4.74Zm17.62-15.9c-4.01,0-7.79-1.53-10.69-4.32-2.96-2.86-4.63-6.69-4.7-10.81-.07-4.11,1.46-8.01,4.32-10.97h0c2.86-2.96,6.69-4.63,10.81-4.7,.09,0,.19,0,.28,0,4.01,0,7.79,1.53,10.69,4.32,2.96,2.86,4.63,6.69,4.7,10.81,.07,4.11-1.46,8.01-4.32,10.96-2.86,2.96-6.69,4.63-10.81,4.7-.09,0-.19,0-.28,0Zm-11.05-26.08l.02,.02c-2.85,2.95-4.38,6.83-4.3,10.93,.07,4.1,1.74,7.92,4.69,10.77,2.88,2.78,6.66,4.31,10.65,4.31,.09,0,.18,0,.28,0,4.1-.07,7.92-1.74,10.77-4.69,2.85-2.95,4.38-6.83,4.3-10.93-.07-4.1-1.74-7.92-4.69-10.77-2.88-2.78-6.66-4.31-10.65-4.31-.09,0-.18,0-.28,0-4.1,.07-7.92,1.74-10.77,4.68l-.02-.02Z"/><path class="i" d="M77.8,356.79s.8-1.13,2.86-2.51c2.02-1.35,5.55-2.84,10.03-2.37,2.2,.25,4.62,.97,6.82,2.42,2.18,1.45,4.23,3.52,5.51,6.21,.68,1.32,1.14,2.78,1.4,4.32,.28,1.53,.32,3.13,.09,4.73-.39,3.21-1.91,6.38-4.27,8.86-2.4,2.45-5.51,4.08-8.71,4.58-1.59,.29-3.2,.3-4.73,.08-1.54-.2-3.02-.62-4.36-1.25-2.73-1.19-4.87-3.17-6.4-5.29-1.53-2.15-2.33-4.53-2.66-6.73-.63-4.46,.74-8.04,2.02-10.11,1.31-2.11,2.41-2.95,2.41-2.95,.08,.07-.93,1.01-2.11,3.12-1.16,2.07-2.38,5.57-1.7,9.84,.35,2.1,1.15,4.37,2.64,6.4,1.48,2.01,3.54,3.87,6.14,4.97,1.28,.59,2.68,.97,4.14,1.15,1.46,.2,2.98,.18,4.48-.1,3.02-.49,5.95-2.03,8.22-4.34,2.23-2.35,3.67-5.33,4.05-8.37,.22-1.51,.19-3.03-.06-4.48-.23-1.45-.67-2.84-1.3-4.1-1.19-2.56-3.13-4.54-5.18-5.96-2.08-1.41-4.37-2.13-6.49-2.41-4.29-.53-7.74,.81-9.78,2.04-2.07,1.26-2.97,2.3-3.04,2.22Z"/><path class="i" d="M70.17,337.71s-.16-.07-.48-.25c-.35-.2-.82-.47-1.42-.82-1.29-.76-3.16-1.87-5.58-3.3l.17-.02c-2.53,2.65-5.86,6.14-9.89,10.37l.03-.28c1.45,2.19,3.05,4.62,4.78,7.22l.09,.13-.08,.14c-1.41,2.55-2.59,5.45-3.36,8.64l-.04,.17-.17,.04c-2.62,.65-5.46,1.35-8.41,2.09l.24-.31c.09,4.51,.18,9.3,.28,14.33l-.28-.33c2.63,.54,5.52,1.14,8.48,1.75l.22,.04,.06,.21c.79,2.77,2.02,5.71,3.7,8.47l.12,.2-.12,.2c-1.39,2.3-2.92,4.83-4.48,7.41l-.06-.49c3.24,3.12,6.74,6.49,10.32,9.94l-.51-.05c2.25-1.48,4.73-3.11,7.24-4.75l.21-.14,.22,.12c2.53,1.41,5.48,2.61,8.59,3.37l.25,.06,.06,.25c.65,2.63,1.35,5.51,2.07,8.41l-.43-.33c4.54-.08,9.4-.17,14.33-.26l-.42,.35c.56-2.68,1.16-5.57,1.76-8.48l.05-.26,.26-.07c2.82-.8,5.74-2.03,8.45-3.67h0l.23-.14,.23,.14c2.49,1.51,4.96,3.01,7.4,4.49l-.54,.07c3.36-3.48,6.68-6.92,9.96-10.31l-.05,.54c-1.6-2.44-3.18-4.85-4.74-7.24l-.14-.22,.13-.23c1.52-2.73,2.65-5.63,3.38-8.58l.06-.25,.25-.06c2.85-.7,5.65-1.38,8.41-2.06l-.32,.41c-.08-4.89-.16-9.67-.24-14.33l.32,.39c-2.88-.6-5.7-1.19-8.48-1.78l-.23-.05-.06-.23c-.86-3.04-2.11-5.89-3.67-8.48l-.12-.2,.12-.2c1.54-2.54,3.04-4.99,4.5-7.39l.06,.45c-3.62-3.51-7.04-6.82-10.29-9.97l.42,.04c-2.55,1.66-4.94,3.22-7.25,4.73l-.16,.11-.17-.09c-2.89-1.61-5.78-2.71-8.61-3.42l-.17-.04-.04-.17c-.74-3.06-1.41-5.82-2.03-8.42l.26,.2c-5.55,.07-10.28,.13-14.33,.19l.19-.16c-.73,3.38-1.32,6.16-1.82,8.47l-.02,.08-.08,.02c-3.03,.85-5.16,1.84-6.55,2.52-.66,.35-1.17,.61-1.54,.81-.35,.19-.51,.27-.51,.26,0-.01,.16-.12,.48-.33,.33-.2,.82-.5,1.51-.87,1.37-.73,3.5-1.77,6.54-2.66l-.1,.11c.47-2.32,1.03-5.1,1.71-8.49l.03-.15h.16c4.05-.09,8.78-.2,14.33-.32h.21l.05,.2c.65,2.6,1.33,5.35,2.09,8.4l-.21-.21c2.88,.7,5.83,1.8,8.78,3.42h-.33c2.3-1.5,4.69-3.08,7.23-4.75l.22-.15,.2,.19c3.27,3.14,6.7,6.44,10.33,9.93l.21,.2-.15,.25c-1.45,2.41-2.94,4.87-4.48,7.41v-.39c1.6,2.64,2.89,5.55,3.78,8.66l-.3-.28c2.78,.57,5.6,1.16,8.48,1.75l.32,.07v.32c.09,4.66,.18,9.44,.27,14.33v.34l-.32,.08c-2.77,.68-5.57,1.37-8.41,2.07l.31-.31c-.74,3.03-1.9,6.01-3.46,8.8l-.02-.45c1.57,2.39,3.15,4.8,4.75,7.24l.19,.29-.24,.25c-3.27,3.39-6.59,6.83-9.95,10.31l-.24,.25-.3-.18c-2.45-1.48-4.92-2.98-7.4-4.49h.45c-2.78,1.69-5.78,2.95-8.67,3.77l.31-.33c-.61,2.91-1.21,5.8-1.77,8.48l-.07,.34h-.35c-4.93,.09-9.79,.17-14.33,.25h-.34l-.08-.33c-.71-2.9-1.41-5.78-2.06-8.41l.31,.31c-3.19-.78-6.21-2.02-8.79-3.47l.43-.02c-2.51,1.64-4.99,3.26-7.25,4.74l-.27,.18-.24-.23c-3.57-3.46-7.06-6.84-10.3-9.97l-.23-.22,.16-.27c1.57-2.58,3.1-5.1,4.5-7.4v.39c-1.71-2.83-2.96-5.84-3.75-8.67l.28,.26c-2.96-.62-5.85-1.23-8.48-1.78l-.27-.06v-.28c-.08-5.03-.15-9.82-.22-14.33v-.25l.24-.06c2.95-.72,5.79-1.4,8.42-2.04l-.21,.21c.81-3.23,2.03-6.17,3.47-8.75v.27c-1.69-2.62-3.28-5.06-4.71-7.26l-.1-.15,.12-.13c4.08-4.17,7.45-7.63,10.01-10.25l.08-.08,.09,.06c2.37,1.47,4.19,2.61,5.45,3.39,.6,.38,1.06,.67,1.4,.89,.31,.2,.48,.31,.47,.32Z"/></g></g></g><g id="b"><g><rect class="d" x="70.42" y="35.04" width="300.65" height="383.74" transform="translate(-16.15 16.92) rotate(-4.23)"/><path class="o" d="M84.53,429.89l-.04-.5L56.13,46.2l.5-.04L356.95,23.93l.04,.5,28.37,383.19-.5,.04-300.32,22.23ZM57.2,47.13l28.26,381.7,298.83-22.12L356.03,25,57.2,47.13Z"/></g><rect class="j" x="249.33" y="44.15" width="81" height="5.2" transform="translate(-2.66 21.53) rotate(-4.23)"/><path class="j" d="M329.07,81s-.17,.05-.49,.09c-.39,.04-.86,.09-1.42,.16-1.32,.12-3.09,.28-5.24,.48-4.5,.37-10.59,.88-17.31,1.44-6.76,.56-12.89,1-17.33,1.29-2.16,.13-3.94,.23-5.26,.31-.57,.02-1.04,.04-1.43,.06-.33,0-.5,0-.5-.02,0-.02,.17-.05,.49-.09,.39-.04,.86-.09,1.42-.16,1.32-.12,3.09-.28,5.24-.48,4.5-.37,10.59-.88,17.32-1.44,6.76-.56,12.89-1,17.33-1.29,2.16-.13,3.94-.23,5.26-.31,.57-.02,1.04-.04,1.43-.06,.33,0,.5,0,.5,.02Z"/><g><path class="o" d="M333.91,100.55c.01,.14-17.6,1.56-39.34,3.17-21.74,1.61-39.37,2.8-39.38,2.65-.01-.14,17.6-1.56,39.34-3.17,21.73-1.61,39.36-2.8,39.37-2.65Z"/><path class="o" d="M335.24,125.49c.01,.14-17.6,1.56-39.34,3.17-21.74,1.61-39.37,2.8-39.38,2.65-.01-.14,17.6-1.56,39.34-3.17,21.73-1.61,39.36-2.8,39.37-2.65Z"/><path class="o" d="M335.24,113.02c.01,.14-17.6,1.56-39.34,3.17-21.74,1.61-39.37,2.8-39.38,2.65-.01-.14,17.6-1.56,39.34-3.17,21.73-1.61,39.36-2.8,39.37-2.65Z"/></g><g><path class="j" d="M170.03,287.58c.01,.14-9.12,.94-20.39,1.77-11.27,.83-20.42,1.39-20.43,1.25-.01-.14,9.12-.94,20.39-1.77,11.27-.83,20.42-1.39,20.43-1.25Z"/><path class="j" d="M152.97,311.54c.01,.14-12.22,1.17-27.32,2.28-15.1,1.12-27.35,1.91-27.36,1.76-.01-.14,12.22-1.17,27.32-2.28,15.1-1.12,27.35-1.91,27.36-1.76Z"/><path class="o" d="M252.56,313.57c.01,.14-34.36,2.81-76.76,5.94-42.42,3.14-76.8,5.57-76.81,5.43-.01-.14,34.35-2.8,76.77-5.94,42.4-3.14,76.79-5.57,76.8-5.42Z"/><path class="j" d="M154.69,334.79c.01,.14-12.22,1.17-27.32,2.28-15.1,1.12-27.35,1.91-27.36,1.76-.01-.14,12.22-1.17,27.32-2.28,15.1-1.12,27.35-1.91,27.36-1.76Z"/><path class="o" d="M254.28,336.81c.01,.14-34.36,2.81-76.76,5.94-42.42,3.14-76.8,5.57-76.81,5.43-.01-.14,34.35-2.8,76.77-5.94,42.4-3.14,76.79-5.57,76.8-5.42Z"/><path class="j" d="M156.41,358.03c.01,.14-12.22,1.17-27.32,2.28-15.1,1.12-27.35,1.91-27.36,1.76-.01-.14,12.22-1.17,27.32-2.28,15.1-1.12,27.35-1.91,27.36-1.76Z"/><path class="o" d="M256,360.06c.01,.14-34.36,2.81-76.76,5.94-42.42,3.14-76.8,5.57-76.81,5.43-.01-.14,34.35-2.8,76.77-5.94,42.4-3.14,76.79-5.57,76.8-5.42Z"/><path class="j" d="M160.2,381.56c.01,.14-12.22,1.17-27.32,2.28-15.1,1.12-27.35,1.91-27.36,1.76-.01-.14,12.22-1.17,27.32-2.28,15.1-1.12,27.35-1.91,27.36-1.76Z"/><path class="o" d="M259.79,383.58c.01,.14-34.36,2.8-76.76,5.94-42.42,3.14-76.8,5.57-76.81,5.43-.01-.14,34.35-2.8,76.77-5.94,42.4-3.14,76.79-5.57,76.8-5.42Z"/><g><rect class="j" x="100.63" y="283.62" width="18.8" height="11.94" transform="translate(-21.08 8.91) rotate(-4.23)"/><rect class="j" x="106.84" y="295.55" width="7.55" height="3.74" transform="translate(-21.66 8.98) rotate(-4.23)"/></g><path class="j" d="M117.38,298.66c.01,.14-2.8,.51-6.28,.82-3.48,.31-6.31,.45-6.32,.31-.01-.14,2.8-.51,6.28-.82,3.48-.31,6.31-.45,6.32-.31Z"/></g><g><g><polygon class="j" points="270.45 269.42 282.17 263 293.71 267.37 282.9 274.17 270.45 269.42"/><polygon class="j" points="273.25 272.11 273.73 279.41 291.78 277.82 291.16 270.78 282.82 275.82 273.25 272.11"/></g><path class="j" d="M344.57,270.84c.01,.14-9.12,.94-20.39,1.77-11.27,.83-20.42,1.39-20.43,1.25-.01-.14,9.12-.94,20.39-1.77,11.27-.83,20.42-1.39,20.43-1.25Z"/><path class="o" d="M302.7,295.94c.01,.14-6.26,.72-14.01,1.3-7.75,.57-14.04,.92-14.05,.78-.01-.14,6.26-.72,14.01-1.3,7.75-.57,14.04-.92,14.05-.78Z"/><path class="o" d="M354.21,302.29c.01,.14-17.63,1.57-39.39,3.18-21.77,1.61-39.42,2.8-39.43,2.66-.01-.14,17.62-1.57,39.4-3.18,21.76-1.61,39.42-2.8,39.43-2.66Z"/><path class="o" d="M304.8,321.91c.01,.14-6.26,.72-14.01,1.3-7.75,.57-14.04,.92-14.05,.78-.01-.14,6.26-.72,14.01-1.3,7.75-.57,14.04-.92,14.05-.78Z"/><path class="o" d="M356.31,328.25c.01,.14-17.63,1.57-39.39,3.18-21.77,1.61-39.42,2.8-39.43,2.66-.01-.14,17.62-1.57,39.4-3.18,21.76-1.61,39.42-2.8,39.43-2.66Z"/><path class="o" d="M306.4,347.56c.01,.14-6.26,.72-14.01,1.3-7.75,.57-14.04,.92-14.05,.78-.01-.14,6.26-.72,14.01-1.3,7.75-.57,14.04-.92,14.05-.78Z"/><path class="o" d="M357.91,353.91c.01,.14-17.63,1.57-39.39,3.18-21.77,1.61-39.42,2.8-39.43,2.66s17.62-1.57,39.4-3.18c21.76-1.61,39.42-2.8,39.43-2.66Z"/><path class="o" d="M309.27,374.7c.01,.14-6.26,.72-14.01,1.3-7.75,.57-14.04,.92-14.05,.78-.01-.14,6.26-.72,14.01-1.3,7.75-.57,14.04-.92,14.05-.78Z"/><path class="o" d="M360.78,381.05c.01,.14-17.63,1.57-39.39,3.18-21.77,1.61-39.42,2.8-39.43,2.66-.01-.14,17.62-1.57,39.4-3.18,21.76-1.61,39.42-2.8,39.43-2.66Z"/></g><path class="j" d="M264,80.25c1.53-.78,2.53-2.49,2.4-4.41-.18-2.51-2.23-4.42-4.59-4.26-2.36,.16-4.13,2.33-3.95,4.85,.14,1.94,1.39,3.5,3.03,4.05-6.49,1.48-5.67,8.59-5.67,8.59l15.53-1.08s-.18-7.24-6.76-7.74Z"/><g><g><g><path class="o" d="M289.31,181.06c.01,.14-6.31,.73-14.12,1.31-7.81,.58-14.15,.93-14.16,.79-.01-.14,6.31-.73,14.12-1.31,7.81-.58,14.15-.93,14.16-.79Z"/><path class="o" d="M290.38,193.55c.01,.14-6.31,.73-14.12,1.31-7.81,.58-14.15,.93-14.16,.79-.01-.14,6.31-.73,14.12-1.31,7.81-.58,14.15-.93,14.16-.79Z"/></g><g><path class="i" d="M345.24,178.39l-46.03,3.41c-.86,.06-1.61-.58-1.67-1.44h0c-.06-.86,.58-1.61,1.44-1.67l46.03-3.41c.86-.06,1.61,.58,1.67,1.44h0c.06,.86-.58,1.61-1.44,1.67Z"/><path class="j" d="M338.51,178.89l-39.3,2.91c-.86,.06-1.61-.58-1.67-1.44h0c-.06-.86,.58-1.61,1.44-1.67l39.3-2.91c.86-.06,1.61,.58,1.67,1.44h0c.06,.86-.58,1.61-1.44,1.67Z"/></g><g><path class="i" d="M346.11,190.14l-46.03,3.41c-.86,.06-1.61-.58-1.67-1.44h0c-.06-.86,.58-1.61,1.44-1.67l46.03-3.41c.86-.06,1.61,.58,1.67,1.44h0c.06,.86-.58,1.61-1.44,1.67Z"/><path class="j" d="M332.37,191.15l-32.3,2.39c-.86,.06-1.61-.58-1.67-1.44h0c-.06-.86,.58-1.61,1.44-1.67l32.3-2.39c.86-.06,1.61,.58,1.67,1.44h0c.06,.86-.58,1.61-1.44,1.67Z"/></g><g><path class="o" d="M291.74,206.3c.01,.14-6.31,.73-14.12,1.31-7.81,.58-14.15,.93-14.16,.79s6.31-.73,14.12-1.31c7.81-.58,14.15-.93,14.16-.79Z"/><path class="o" d="M292.81,218.78c.01,.14-6.31,.73-14.12,1.31-7.81,.58-14.15,.93-14.16,.79-.01-.14,6.31-.73,14.12-1.31,7.81-.58,14.15-.93,14.16-.79Z"/></g><g><path class="i" d="M347.67,203.62l-46.03,3.41c-.86,.06-1.61-.58-1.67-1.44h0c-.06-.86,.58-1.61,1.44-1.67l46.03-3.41c.86-.06,1.61,.58,1.67,1.44h0c.06,.86-.58,1.61-1.44,1.67Z"/><path class="j" d="M340.94,204.12l-39.3,2.91c-.86,.06-1.61-.58-1.67-1.44h0c-.06-.86,.58-1.61,1.44-1.67l39.3-2.91c.86-.06,1.61,.58,1.67,1.44h0c.06,.86-.58,1.61-1.44,1.67Z"/></g><g><path class="i" d="M348.54,215.37l-46.03,3.41c-.86,.06-1.61-.58-1.67-1.44h0c-.06-.86,.58-1.61,1.44-1.67l46.03-3.41c.86-.06,1.61,.58,1.67,1.44h0c.06,.86-.58,1.61-1.44,1.67Z"/><path class="j" d="M334.8,216.39l-32.3,2.39c-.86,.06-1.61-.58-1.67-1.44h0c-.06-.86,.58-1.61,1.44-1.67l32.3-2.39c.86-.06,1.61,.58,1.67,1.44h0c.06,.86-.58,1.61-1.44,1.67Z"/></g><path class="o" d="M294.41,232.09c.01,.14-6.31,.73-14.12,1.31-7.81,.58-14.15,.93-14.16,.79-.01-.14,6.31-.73,14.12-1.31,7.81-.58,14.15-.93,14.16-.79Z"/><g><path class="i" d="M350.34,229.42l-46.03,3.41c-.86,.06-1.61-.58-1.67-1.44h0c-.06-.86,.58-1.61,1.44-1.67l46.03-3.41c.86-.06,1.61,.58,1.67,1.44h0c.06,.86-.58,1.61-1.44,1.67Z"/><path class="j" d="M329.84,230.94l-25.53,1.89c-.86,.06-1.61-.58-1.67-1.44h0c-.06-.86,.58-1.61,1.44-1.67l25.53-1.89c.86-.06,1.61,.58,1.67,1.44h0c.06,.86-.58,1.61-1.44,1.67Z"/></g></g><path class="j" d="M274,168.34l-1.62-2.85c.72-1.16,1.13-2.53,1.13-4,0-4.21-3.42-7.63-7.63-7.63s-7.63,3.42-7.63,7.63,3.42,7.63,7.63,7.63c1.76,0,3.38-.6,4.67-1.6h0l3.45,.82Z"/><path class="j" d="M333.11,157.5c.01,.14-10.66,1.05-23.82,2.03-13.17,.98-23.85,1.66-23.86,1.51-.01-.14,10.65-1.05,23.82-2.03,13.16-.98,23.85-1.66,23.86-1.51Z"/></g></g><g id="c"><polygon class="l" points="62.67 46.62 81.77 272.57 250.3 260.03 232.09 33.68 62.67 46.62"/><g><rect class="e" x="77.48" y="31.74" width="167.03" height="226.92" transform="translate(-10.28 12.28) rotate(-4.23)"/><path class="o" d="M85.62,265.05l-.04-.5L68.79,37.75l.5-.04,167.07-12.37,.04,.5,16.79,226.8-.5,.04-167.07,12.37Zm-15.76-226.37l16.68,225.3,165.57-12.26L235.43,26.42l-165.57,12.26Z"/></g><path class="o" d="M202.39,60.14s-.03-.13-.07-.38c-.04-.28-.09-.65-.16-1.12-.13-1.02-.32-2.47-.56-4.32-.23-1.89-.52-4.18-.85-6.84-.18-1.33-.28-2.77-.65-4.23-.19-.72-.46-1.45-.91-2.09-.44-.63-1.07-1.17-1.84-1.41-1.54-.52-3.42,0-4.72,1.2-1.32,1.22-2.06,3.06-2.42,4.97-.74,3.88-.37,8.16,.39,12.54,.39,2.19,.81,4.45,1.31,6.73,.51,2.27,1.2,4.56,2.44,6.61,1.23,2.03,3.14,3.75,5.46,4.53,1.15,.38,2.41,.52,3.61,.26,1.21-.23,2.32-.86,3.24-1.7,1.85-1.72,2.87-4.15,3.17-6.59,.32-2.46,.07-4.93-.19-7.34-.54-4.84-1.06-9.5-1.55-13.95-.25-2.22-.49-4.39-.72-6.5-.23-2.11-.44-4.15-.82-6.09-.36-1.94-.9-3.78-1.71-5.42-.81-1.63-1.91-3.03-3.22-4.06-2.65-2.06-5.81-2.7-8.44-2.55-2.66,.16-4.87,1.09-6.27,2.33-1.42,1.23-2.06,2.61-2.4,3.53-.32,.94-.39,1.46-.42,1.45,0,0,.03-.53,.33-1.49,.31-.94,.93-2.36,2.37-3.64,1.41-1.3,3.67-2.29,6.39-2.47,2.69-.18,5.93,.44,8.69,2.55,1.36,1.06,2.51,2.5,3.35,4.17,.84,1.67,1.4,3.55,1.77,5.52,.39,1.96,.61,4.02,.85,6.12,.24,2.11,.49,4.27,.74,6.49,.51,4.44,1.04,9.11,1.59,13.95,.27,2.42,.53,4.92,.2,7.46-.31,2.52-1.37,5.09-3.33,6.91-.98,.89-2.18,1.58-3.49,1.82-1.3,.28-2.65,.13-3.88-.28-2.46-.83-4.45-2.65-5.73-4.76-1.28-2.13-1.98-4.48-2.49-6.77-.5-2.3-.91-4.55-1.3-6.76-.75-4.41-1.11-8.74-.34-12.71,.38-1.96,1.15-3.88,2.58-5.18,1.41-1.28,3.42-1.83,5.11-1.25,.85,.28,1.54,.88,2.01,1.56,.47,.69,.75,1.46,.94,2.21,.37,1.51,.45,2.95,.61,4.28,.3,2.66,.55,4.96,.76,6.85,.2,1.86,.35,3.31,.46,4.33,.04,.48,.08,.85,.11,1.13,.02,.25,.03,.39,.02,.39Z"/><path class="o" d="M133.79,52.11l-13.23-5.5c-3.57,2.28-9.4,8.52-11.02,15.51-.96,4.13-1.2,7.46-.98,11.69,.22,4.23-.16,8.71-2.5,12.24-1.67,2.52-4.35,4.7-4.4,7.72-.06,3.47,3.54,6.46,2.81,9.86-.59,2.72-3.62,4.1-5.2,6.38-2.3,3.32-1.19,7.86,.31,11.61,3.62,9.05-4.08,22.07,2.7,29.07,6.68-5.49,26.47-15.67,33.15-21.16,1.48-1.22,3.02-2.5,3.81-4.25,1.16-2.54,.53-5.49-.07-8.22-4.69-21.28-6.51-43.19-5.38-64.95Z"/><g><path class="o" d="M212.85,208.19l-6.52-6.61-69.7,19.66s-3.83,30.64-3.43,32.6c.39,1.96-.03,7.56-.03,7.56l96.19-7.49s1.12-26.09-16.5-45.72Z"/><path class="h" d="M155.48,234.82s-.11,.3-.39,.78c-.29,.48-.72,1.16-1.31,1.97-.6,.8-1.36,1.74-2.39,2.61-1.02,.87-2.33,1.63-3.8,2.1-2.93,.96-5.73,1.18-7.73,1.15-1-.01-1.81-.07-2.36-.14-.56-.06-.86-.12-.86-.16,0-.08,1.24,0,3.21-.07,1.97-.07,4.71-.34,7.57-1.28,1.42-.45,2.66-1.16,3.66-1.97,1-.82,1.77-1.7,2.4-2.47,1.23-1.54,1.93-2.57,2-2.52Z"/><path class="h" d="M178.42,257.94s-.13-.33-.27-.95c-.14-.62-.33-1.52-.53-2.63-.41-2.23-.9-5.33-1.28-8.77-.38-3.44-.58-6.57-.66-8.84-.04-1.13-.06-2.05-.05-2.68,0-.63,.02-.99,.06-.99,.08,0,.18,1.39,.36,3.65,.18,2.26,.43,5.37,.81,8.8,.38,3.43,.81,6.52,1.13,8.76,.32,2.24,.52,3.63,.44,3.64Z"/><path class="h" d="M185.07,256.34c-.14,.01-.73-5.18-1.32-11.59-.59-6.42-.95-11.63-.8-11.64,.14-.01,.73,5.18,1.32,11.59,.59,6.41,.95,11.62,.8,11.64Z"/><path class="h" d="M218.87,220.58s-.2,.31-.65,.8c-.44,.49-1.09,1.18-1.95,1.99-.86,.81-1.93,1.74-3.26,2.58-1.33,.84-2.94,1.58-4.76,1.88-1.82,.32-3.62,.01-5.08-.57-1.48-.58-2.67-1.37-3.61-2.08-.94-.72-1.65-1.36-2.12-1.82-.47-.46-.72-.73-.69-.75,.06-.07,1.13,.92,3.03,2.27,.95,.66,2.13,1.41,3.56,1.93,1.42,.53,3.1,.8,4.83,.5,1.73-.28,3.28-.98,4.59-1.77,1.31-.8,2.38-1.68,3.26-2.45,1.75-1.55,2.78-2.58,2.84-2.52Z"/><path class="h" d="M224.21,239.98s-.31,.22-.92,.54c-.71,.37-1.57,.82-2.57,1.34-2.17,1.14-5.13,2.77-8.31,4.73-3.18,1.97-5.96,3.89-7.95,5.32-.92,.67-1.7,1.23-2.35,1.7-.56,.4-.87,.61-.9,.58-.02-.03,.25-.29,.77-.74,.52-.45,1.29-1.08,2.26-1.84,1.94-1.51,4.7-3.5,7.89-5.47,3.19-1.97,6.2-3.56,8.42-4.62,1.11-.53,2.02-.94,2.65-1.2,.64-.26,.99-.39,1.01-.36Z"/><path class="h" d="M160.62,231.81c-.07,.02-.31-.48-.63-1.34-.31-.85-.7-2.06-.88-3.45-.19-1.4-.05-2.69,.2-3.58,.25-.89,.55-1.38,.61-1.35,.15,.05-.71,2.16-.29,4.87,.18,1.34,.5,2.54,.72,3.41,.22,.87,.34,1.42,.27,1.44Z"/><path class="h" d="M164.83,232.06c-.07,.01-.25-.53-.49-1.43-.23-.9-.56-2.15-.65-3.59-.04-.72,0-1.42,.1-2.04,.13-.62,.32-1.17,.54-1.59,.45-.85,.9-1.24,.94-1.21,.07,.05-.27,.52-.6,1.36-.34,.83-.57,2.06-.46,3.45,.09,1.38,.36,2.63,.49,3.55,.15,.92,.2,1.49,.13,1.51Z"/><path class="h" d="M190.57,229.65c-.17,.02,.16-3.46-1.52-7.26-1.62-3.83-4.39-5.95-4.25-6.07,.03-.05,.76,.41,1.74,1.39,.98,.98,2.15,2.53,2.99,4.47,.84,1.95,1.17,3.86,1.21,5.24,.05,1.38-.12,2.23-.18,2.22Z"/><path class="h" d="M195.2,228.02c-.17,.02-.39-3.1-1.83-6.62-1.41-3.53-3.42-5.94-3.28-6.04,.05-.04,.61,.5,1.37,1.52,.76,1.01,1.67,2.52,2.4,4.32,.72,1.8,1.12,3.52,1.28,4.77,.16,1.26,.14,2.04,.07,2.04Z"/><path class="h" d="M177.5,224.57s.18-.27,.69-.51c.5-.24,1.37-.41,2.35-.09,.49,.16,.99,.46,1.4,.92,.4,.47,.66,1.12,.69,1.81,.03,.69-.15,1.42-.55,2.06-.4,.64-1.07,1.17-1.88,1.34-1.61,.33-3.2-.56-3.77-1.85-.3-.66-.26-1.34-.17-1.92,.11-.59,.3-1.13,.67-1.54,.73-.75,1.57-.99,2.13-1.02,.58-.02,.86,.2,.84,.22-.02,.04-.3-.1-.82-.01-.5,.08-1.27,.37-1.87,1.06-.27,.33-.44,.83-.52,1.37-.07,.53-.08,1.14,.18,1.65,.48,1.06,1.89,1.82,3.23,1.54,1.35-.29,2.12-1.7,2.06-2.88-.01-.6-.22-1.14-.54-1.55-.33-.41-.76-.69-1.19-.85-.87-.33-1.67-.24-2.16-.07-.5,.17-.74,.36-.77,.32Z"/></g><path class="n" d="M115.19,127.5c-.55,.67-16.59,10.89-19,17.47-2.42,6.58,1.47,33.42,2.14,38.06,.67,4.64,9.77,22.16,9.77,22.16,0,0-1.91,7.56,.6,12.22,2.51,4.66,7,6.74,7,6.74l16.12-8.83-10.02-45.26-6.61-42.56Z"/><path class="d" d="M116.94,175.03c.46-.65,1.08-1.07,1.46-1.56,.37-.49,1.2-.71,1.6-.24,.45,.54-.04,1.33-.52,1.85,1.63,.07,2.86-2.15,4.43-1.71,1.03,.29,1.41,1.66,.99,2.65-.41,.98-1.35,1.63-2.27,2.17-.92,.53-1.91,1.03-2.56,1.88-.34,.44-.56,1.11-.19,1.53,.62,.71,2.09-.13,2.64,.64,.38,.52-.08,1.22-.51,1.69-1.57,1.72-3.15,3.44-4.72,5.16-.42,.46-.86,.93-1.45,1.11s-1.35-.04-1.54-.63c-.18-.58,.27-1.17,.78-1.49,.52-.32,1.12-.49,1.58-.88,.46-.39,.71-1.16,.29-1.6-.52-.54-1.42-.09-2.02,.38-1.83,1.44-3.67,2.88-5.5,4.32-.4,.32-.84,.65-1.34,.71-.51,.06-1.1-.26-1.14-.77-.02-.27,.11-.52,.24-.75,1-1.75,2.4-3.26,4.05-4.41,.63-.43,1.3-.83,1.76-1.44,.46-.61,.64-1.51,.18-2.12-1.08,1.02-2.28,1.91-3.56,2.65-.46,.27-1.11,.48-1.45,.08-.35-.42,.01-1.04,.37-1.45,1.9-2.23,3.8-4.45,5.7-6.68,.48-.57,1.05-1.18,1.8-1.22l.91,.13Z"/><path class="n" d="M124.87,112.86l-1.26,7.9-11.87,9.51s-2.8,17.86-.13,36.02c0,0,17.34,47,17.77,49.05,.79,3.81,7.79,7.02,7.79,7.02,0,0,26.42,.24,35.5-1.07,9.08-1.31,31.04-15.15,33.11-17,2.07-1.84,4.47-10.68,4.47-10.68l-16.16-45.26-.91-31.84-24.15-6.2-8.2-6.35-35.96,8.89Z"/><path class="d" d="M196.09,145.87c.46-.65,1.08-1.07,1.46-1.56s1.2-.71,1.6-.24c.45,.54-.04,1.33-.52,1.85,1.63,.07,2.86-2.15,4.43-1.71,1.03,.29,1.41,1.66,.99,2.65-.41,.98-1.35,1.63-2.27,2.17-.92,.53-1.91,1.03-2.56,1.88-.34,.44-.56,1.11-.19,1.53,.62,.71,2.09-.13,2.64,.64,.38,.52-.08,1.22-.51,1.69-1.57,1.72-3.15,3.44-4.72,5.16-.42,.46-.86,.93-1.45,1.11-.59,.19-1.35-.04-1.54-.63-.18-.58,.27-1.17,.78-1.49,.52-.32,1.12-.49,1.58-.88,.46-.39,.71-1.16,.29-1.6-.52-.54-1.42-.09-2.02,.38-1.83,1.44-3.67,2.88-5.5,4.32-.4,.32-.84,.65-1.34,.71-.51,.06-1.1-.26-1.14-.77-.02-.27,.11-.52,.24-.75,1-1.75,2.4-3.26,4.05-4.41,.63-.43,1.3-.83,1.76-1.44,.46-.61,.64-1.51,.18-2.12-1.08,1.02-2.28,1.91-3.56,2.65-.46,.27-1.11,.48-1.45,.08-.35-.42,.01-1.04,.37-1.45,1.9-2.23,3.8-4.45,5.7-6.68,.48-.57,1.05-1.18,1.8-1.22l.91,.13Z"/><path class="n" d="M192.79,116.55s13.37,4.64,16.86,12.67,16.9,46.02,16.07,52.96c-.83,6.93-3.08,15.02-9.13,15.37-6.05,.35-13.01-5.81-13.01-5.81l-5.44-8.85,.29-9.27-6.17-24.68,.54-32.38Z"/><path class="m" d="M125.39,116.72c0,.05,27.62,33.83,27.62,33.83l3.75-31.29,5.22-15.41-35.96,8.89-.64,3.98Z"/><g class="k"><path d="M182.39,114.29c-1.63-.82-3.59-.17-5.24,.61-9.34,4.41-19.49,9.75-22.23,19.71l-.11,6.02c.86,3.62,4.61,6.01,8.32,6.32,3.71,.31,7.35-1.06,10.68-2.74,2.98-1.5,5.83-3.27,8.5-5.27,1.48-1.11,3.01-2.47,3.29-4.3,.37-2.5-1.72-4.67-2.2-7.16-.45-2.31,.55-4.63,1.01-6.94,.46-2.31,.11-5.2-2-6.26Z"/></g><path class="o" d="M111.61,166.29s.11,.19,.27,.58c.17,.44,.4,1.01,.68,1.7,.58,1.48,1.39,3.64,2.37,6.31,1.98,5.34,4.49,12.79,7.33,20.99,1.42,4.1,2.82,7.99,4.09,11.53,.65,1.77,1.23,3.46,1.86,5,.63,1.54,1.33,2.92,2.11,4.1,1.55,2.36,3.38,3.81,4.71,4.65,1.35,.83,2.18,1.15,2.15,1.2,0,.02-.21-.06-.6-.22-.4-.15-.95-.43-1.65-.81-1.38-.8-3.29-2.23-4.91-4.62-.81-1.19-1.54-2.59-2.2-4.14-.65-1.55-1.25-3.24-1.91-5-1.3-3.53-2.71-7.42-4.14-11.52-2.79-8.19-5.32-15.6-7.18-21.04-.92-2.64-1.67-4.8-2.21-6.36l-.58-1.74c-.13-.4-.19-.61-.17-.62Z"/><path class="o" d="M152.87,151.63s-.1-.09-.26-.3c-.19-.24-.42-.54-.71-.91-.62-.8-1.52-1.96-2.7-3.4-2.36-2.88-5.85-6.86-10.43-11.1l.4-.17c-.11,4.58-.23,9.72-.35,15.14-.01,.48-.02,.95-.03,1.39l-.03,1.07-.47-.96c-4.24-8.71-8.05-16.54-10.83-22.25-1.34-2.8-2.43-5.09-3.21-6.72-.35-.76-.63-1.37-.85-1.84-.19-.42-.28-.65-.26-.65,.02,0,.14,.2,.36,.61,.24,.45,.55,1.05,.93,1.79,.82,1.62,1.96,3.88,3.36,6.65,2.82,5.69,6.68,13.5,10.97,22.18l-.49,.11c.01-.44,.02-.92,.03-1.39,.14-5.42,.28-10.56,.4-15.14v-.53l.4,.36c4.57,4.29,8.03,8.33,10.33,11.27,1.15,1.47,2.02,2.66,2.6,3.49,.26,.39,.48,.7,.65,.95,.14,.22,.21,.34,.2,.34Z"/><path class="o" d="M192.2,176.06c.1,.1-7.96,8.73-18,19.27-10.05,10.55-18.28,19.01-18.38,18.91-.1-.1,7.96-8.73,18.01-19.27,10.05-10.54,18.28-19.01,18.38-18.91Z"/><path class="o" d="M177.2,219.55c-.08,.01-.32-1.2-.77-3.13-.45-1.94-1.13-4.6-2.07-7.48-.94-2.88-1.95-5.44-2.72-7.27-.77-1.83-1.29-2.95-1.22-2.99,.06-.03,.69,1.04,1.55,2.84,.87,1.8,1.94,4.36,2.88,7.26,.94,2.91,1.57,5.6,1.93,7.57,.36,1.97,.48,3.2,.41,3.21Z"/><path class="o" d="M109.51,164.63c-.08,.12-3.09-1.78-6.72-4.23-3.63-2.46-6.51-4.55-6.43-4.67,.08-.12,3.09,1.78,6.72,4.23,3.63,2.46,6.51,4.55,6.43,4.66Z"/><path class="o" d="M216.59,197.55s-.12,.02-.35,.03c-.28,0-.62,0-1.03,.02-.45,.03-1-.05-1.65-.14-.65-.05-1.37-.27-2.18-.48-1.59-.52-3.43-1.45-5.16-2.99-1.71-1.55-3.32-3.63-4.42-6.24h0v-.03c-.94-3.8-1.98-8.02-3.08-12.46-2.04-8.46-3.89-16.11-5.25-21.73-.64-2.74-1.16-4.98-1.53-6.6-.16-.74-.29-1.34-.39-1.8-.08-.41-.12-.63-.1-.64,.02,0,.09,.21,.2,.61,.13,.46,.29,1.05,.49,1.78,.42,1.61,.99,3.84,1.69,6.56,1.39,5.61,3.29,13.25,5.39,21.69,1.08,4.45,2.11,8.67,3.03,12.47v-.03c1.03,2.5,2.6,4.59,4.24,6.11,1.66,1.53,3.44,2.47,4.98,3.01,3.14,.99,5.13,.7,5.11,.84Z"/><path class="o" d="M118.91,198.16c0,.09-.77,.14-1.98,.44-1.2,.29-2.82,.9-4.37,1.96-1.55,1.07-2.71,2.35-3.42,3.36-.72,1.01-1.05,1.72-1.13,1.68-.05-.02,.16-.79,.82-1.88,.65-1.09,1.82-2.48,3.44-3.59,1.62-1.1,3.33-1.68,4.59-1.89,1.26-.21,2.05-.13,2.05-.08Z"/><path class="o" d="M119.08,197.02c.06,.12-1.98,1.12-4.69,1.78-2.7,.68-4.97,.75-4.98,.62-.02-.15,2.19-.46,4.85-1.12,2.66-.66,4.75-1.42,4.81-1.28Z"/><path class="d" d="M115.96,141.47c.46-.65,1.08-1.07,1.46-1.56,.37-.49,1.2-.71,1.6-.24,.45,.54-.04,1.33-.52,1.85,1.63,.07,2.86-2.15,4.43-1.71,1.03,.29,1.41,1.66,.99,2.65-.41,.98-1.35,1.63-2.27,2.17-.92,.53-1.91,1.03-2.56,1.88-.34,.44-.56,1.11-.19,1.53,.62,.71,2.09-.13,2.64,.64,.38,.52-.08,1.22-.51,1.69-1.57,1.72-3.15,3.44-4.72,5.16-.42,.46-.86,.93-1.45,1.11s-1.35-.04-1.54-.63c-.18-.58,.27-1.17,.78-1.49,.52-.32,1.12-.49,1.58-.88,.46-.39,.71-1.16,.29-1.6-.52-.54-1.42-.09-2.02,.38-1.83,1.44-3.67,2.88-5.5,4.32-.4,.32-.84,.65-1.34,.71-.51,.06-1.1-.26-1.14-.77-.02-.27,.11-.52,.24-.75,1-1.75,2.4-3.26,4.05-4.41,.63-.43,1.3-.83,1.76-1.44,.46-.61,.64-1.51,.18-2.12-1.08,1.02-2.28,1.91-3.56,2.65-.46,.27-1.11,.48-1.45,.08-.35-.42,.01-1.04,.37-1.45,1.9-2.23,3.8-4.45,5.7-6.68,.48-.57,1.05-1.18,1.8-1.22l.91,.13Z"/><path class="d" d="M157.97,155.05c.46-.65,1.08-1.07,1.46-1.56,.37-.49,1.2-.71,1.6-.24,.45,.54-.04,1.33-.52,1.85,1.63,.07,2.86-2.15,4.43-1.71,1.03,.29,1.41,1.66,.99,2.65-.41,.98-1.35,1.63-2.27,2.17-.92,.53-1.91,1.03-2.56,1.88-.34,.44-.56,1.11-.19,1.53,.62,.71,2.09-.13,2.64,.64,.38,.52-.08,1.22-.51,1.69-1.57,1.72-3.15,3.44-4.72,5.16-.42,.46-.86,.93-1.45,1.11-.59,.19-1.35-.04-1.54-.63-.18-.58,.27-1.17,.78-1.49,.52-.32,1.12-.49,1.58-.88,.46-.39,.71-1.16,.29-1.6-.52-.54-1.42-.09-2.02,.38-1.83,1.44-3.67,2.88-5.5,4.32-.4,.32-.84,.65-1.34,.71-.51,.06-1.1-.26-1.14-.77-.02-.27,.11-.52,.24-.75,1-1.75,2.4-3.26,4.05-4.41,.63-.43,1.3-.83,1.76-1.44,.46-.61,.64-1.51,.18-2.12-1.08,1.02-2.28,1.91-3.56,2.65-.46,.27-1.11,.48-1.45,.08-.35-.42,.01-1.04,.37-1.45,1.9-2.23,3.8-4.45,5.7-6.68,.48-.57,1.05-1.18,1.8-1.22l.91,.13Z"/><path class="d" d="M141.97,194.86c.46-.65,1.08-1.07,1.46-1.56,.37-.49,1.2-.71,1.6-.24,.45,.54-.04,1.33-.52,1.85,1.63,.07,2.86-2.15,4.43-1.71,1.03,.29,1.41,1.66,.99,2.65-.41,.98-1.35,1.63-2.27,2.17-.92,.53-1.91,1.03-2.56,1.88-.34,.44-.56,1.11-.19,1.53,.62,.71,2.09-.13,2.64,.64,.38,.52-.08,1.22-.51,1.69l-4.72,5.16c-.42,.46-.86,.93-1.45,1.11-.59,.19-1.35-.04-1.54-.63-.18-.58,.27-1.17,.78-1.49,.52-.32,1.12-.49,1.58-.88s.71-1.16,.29-1.59c-.52-.54-1.42-.09-2.02,.38-1.83,1.44-3.67,2.88-5.5,4.32-.4,.32-.84,.65-1.34,.71-.51,.06-1.1-.26-1.14-.77-.02-.27,.11-.52,.24-.75,1-1.75,2.4-3.26,4.05-4.41,.63-.43,1.3-.83,1.76-1.44s.64-1.51,.18-2.12c-1.08,1.02-2.28,1.91-3.56,2.65-.46,.27-1.11,.48-1.45,.08-.35-.42,.01-1.04,.37-1.45,1.9-2.23,3.8-4.45,5.7-6.68,.48-.57,1.05-1.18,1.8-1.22l.91,.13Z"/><path class="d" d="M189.74,191.36c.46-.65,1.08-1.07,1.46-1.56,.37-.49,1.2-.71,1.6-.24,.45,.54-.04,1.33-.52,1.85,1.63,.07,2.86-2.15,4.43-1.71,1.03,.29,1.41,1.66,.99,2.65-.41,.98-1.35,1.63-2.27,2.17-.92,.53-1.91,1.03-2.56,1.88-.34,.44-.56,1.11-.19,1.53,.62,.71,2.09-.13,2.64,.64,.38,.52-.08,1.22-.51,1.69-1.57,1.72-3.15,3.44-4.72,5.16-.42,.46-.86,.93-1.45,1.11-.59,.19-1.35-.04-1.54-.63-.18-.58,.27-1.17,.78-1.49,.52-.32,1.12-.49,1.58-.88,.46-.39,.71-1.16,.29-1.6-.52-.54-1.42-.09-2.02,.38-1.83,1.44-3.67,2.88-5.5,4.32-.4,.32-.84,.65-1.34,.71-.51,.06-1.1-.26-1.14-.77-.02-.27,.11-.52,.24-.75,1-1.75,2.4-3.26,4.05-4.41,.63-.43,1.3-.83,1.76-1.44,.46-.61,.64-1.51,.18-2.12-1.08,1.02-2.28,1.91-3.56,2.65-.46,.27-1.11,.48-1.45,.08-.35-.42,.01-1.04,.37-1.45,1.9-2.23,3.8-4.45,5.7-6.68,.48-.57,1.05-1.18,1.8-1.22l.91,.13Z"/><path class="o" d="M171.5,196.71s-.11-.13-.27-.41l-.7-1.23c-.6-1.07-1.43-2.64-2.43-4.59-2-3.9-4.61-9.37-7.18-15.55-2.57-6.18-4.61-11.89-5.96-16.06-.68-2.08-1.2-3.78-1.54-4.96-.15-.54-.27-.99-.38-1.36-.08-.31-.11-.48-.1-.48,.02,0,.08,.15,.2,.45,.13,.36,.28,.8,.47,1.33,.43,1.23,1,2.89,1.69,4.9,1.44,4.13,3.53,9.81,6.09,15.98,2.57,6.16,5.11,11.65,7.02,15.59,.94,1.91,1.71,3.48,2.28,4.66l.61,1.27c.13,.29,.2,.45,.18,.46Z"/><path class="d" d="M225.75,181.38c.01,.75-3.45,2.31-4.2,2.24l-.87-.27c-.56,.57-1.24,.89-1.68,1.32-.45,.43-1.3,.52-1.61-.01-.36-.6,.25-1.31,.8-1.75-1.6-.32-3.16,1.69-4.64,1.01-.97-.44-1.13-1.86-.57-2.77,.56-.91,1.58-1.41,2.58-1.79,.99-.38,2.05-.72,2.82-1.46,.41-.38,.72-1.01,.43-1.48-.51-.8-2.08-.2-2.51-1.04-.29-.57,.26-1.19,.77-1.59,1.82-1.46,4.31-3.49,6.12-4.95,0,0,2.51,9.12,2.58,12.55Z"/><g class="k"><path d="M156.07,213.68c14.51-7.91,27.44-20.64,34.46-35.6l-34.46,35.6Z"/></g><g class="k"><path d="M108,205.6c2.84-6.1,8.43-7.78,13.86-7.7,.18-.62-.32-1.27-.93-1.48s-1.28-.09-1.91,.03c-2.61,.51-5.26,1.14-7.5,2.57s-3.36,3.74-3.43,6.39"/></g><g class="k"><path d="M123.3,121.1c3.64,13.55,9.48,26.33,17.02,38.17,2.79-4.28,4-9.57,3.36-14.63,2.08,2.72,5.01,4.78,8.27,5.82-3.85-5.28-7.85-10.32-12.86-14.53,0,0-.43,16.98-.41,16.54-5.24-10.51-10.32-20.86-15.39-31.35"/></g><g><path class="o" d="M167.37,73.9c-1.49,4.85-3.61,8.59-8.31,10.49-4.11,1.67-8.76,1.35-13.1,.46-14.11-2.91-28.92-10.43-36.41-22.73l4.04-8.72c4.23-6.65,14.57-14.53,26.57-10.63,0,0,9.64-3.48,18.8,4.35s8.4,26.79,8.4,26.79Z"/><g><path class="m" d="M133.46,49.42c-8.24-1.03-18.88,9.01-19.56,17.29-.76,9.2-1.32,20.46-.37,27.35,1.93,13.86,12.48,15.82,12.48,15.82l-.51,7.05,31.57-6.06,1.35-49.43,.17-4.46-25.14-7.56Z"/><path class="o" d="M119.03,76.68c-.05,.94,.7,1.75,1.67,1.82,.97,.07,1.81-.63,1.86-1.56,.05-.93-.7-1.75-1.67-1.82-.98-.07-1.81,.63-1.86,1.56Z"/><path class="o" d="M116.71,72.63c.22,.23,1.58-.73,3.48-.69,1.9,.01,3.29,1.02,3.5,.79,.1-.1-.11-.52-.71-.98-.59-.45-1.61-.9-2.79-.92-1.19-.02-2.2,.4-2.78,.84-.6,.44-.8,.85-.7,.96Z"/><path class="o" d="M136.83,77.37c-.05,.93,.7,1.75,1.67,1.82,.97,.07,1.81-.63,1.86-1.56,.05-.93-.7-1.75-1.67-1.82-.98-.07-1.81,.63-1.86,1.56Z"/><path class="o" d="M135.45,73.35c.22,.24,1.58-.73,3.48-.69,1.9,.01,3.29,1.02,3.5,.79,.1-.1-.11-.52-.71-.98-.59-.45-1.61-.9-2.79-.92-1.19-.02-2.2,.4-2.78,.84-.59,.44-.8,.85-.7,.96Z"/><path class="o" d="M128.25,87.36c.01-.11-1.17-.34-3.09-.62-.49-.06-.94-.17-1.02-.5-.11-.35,.11-.88,.35-1.44,.48-1.17,.98-2.39,1.51-3.68,2.1-5.24,3.63-9.55,3.42-9.63-.21-.08-2.09,4.1-4.19,9.34-.51,1.29-.99,2.52-1.45,3.7-.2,.55-.52,1.17-.29,1.91,.12,.37,.48,.64,.79,.73,.31,.1,.58,.11,.82,.13,1.93,.14,3.13,.17,3.14,.07Z"/><path class="f" d="M126.03,109.91s9.76,.76,19.07-4.6c0,0-5.05,9.54-19.32,8l.25-3.4Z"/><path class="f" d="M128.97,91.97c.7-.89,1.91-1.37,3.1-1.22,.83,.11,1.65,.52,2.14,1.2,.49,.68,.58,1.64,.11,2.28-.53,.71-1.61,.86-2.51,.58-.91-.28-1.68-.89-2.41-1.5-.2-.17-.41-.35-.53-.57-.12-.23-.15-.53,.02-.71"/><path class="o" d="M133.84,88.78c-.31-.02-.35,2.05-2.15,3.48-1.8,1.44-4,1.16-4.02,1.45-.03,.13,.48,.41,1.41,.45,.91,.05,2.25-.22,3.35-1.1,1.1-.88,1.59-2.07,1.67-2.92,.1-.86-.13-1.38-.27-1.37Z"/><path class="o" d="M135.1,65.87c.18,.52,2.09,.31,4.32,.63,2.24,.27,4.03,.96,4.34,.5,.14-.22-.17-.71-.89-1.23-.71-.52-1.86-1.01-3.2-1.19-1.34-.17-2.57,.02-3.39,.33-.83,.31-1.25,.71-1.17,.96Z"/><path class="o" d="M117.52,67.13c.33,.44,1.65,.02,3.23,.02,1.58-.05,2.91,.35,3.23-.1,.14-.22-.06-.66-.64-1.08-.57-.42-1.52-.77-2.61-.76-1.09,.01-2.03,.39-2.59,.82-.57,.43-.76,.88-.62,1.09Z"/></g><path class="o" d="M157.32,55.59c-1.11-2.33-3.84-3.29-6.26-4.17-3.42-1.24-6.74-2.77-10.23-3.79-3.49-1.02-7.23-1.52-10.76-.66-3.65,.89-6.81,3.16-9.6,5.67-3.68,3.31-7.02,7.37-7.94,12.23v1.67c7.95-2.26,15.83-10.54,21.58-16.46,4.92,6.9,13.16,19.18,20.42,22.19,.49-3.53,3.06-8.65,3.29-12.2,.1-1.52,.16-3.11-.49-4.49Z"/><path class="o" d="M183.99,111.39c-.54-2.76-3.26-4.43-5.65-5.91-2.39-1.48-4.95-3.61-4.82-6.41,.14-2.94,3.27-5.23,3.02-8.16-.27-3.08-3.9-4.5-5.84-6.9-2.79-3.48-3.33-5.65-3.34-10.11,0-8.73-3.5-20.13-11.18-24.29l-10.05,8.43c2.92,8.16,5.88,16.67,4.86,25.28-.61,5.1-2.61,10.07-2.32,15.2,.31,5.5,3.22,10.52,4.21,15.95,.94,5.14,.13,10.43,.39,15.65,.27,5.22,1.98,10.87,6.41,13.63,5.57-2.66,11.13-5.33,16.7-7.99,1.81-.86,3.84-2.04,4.1-4.02,.27-2.04-1.51-3.75-1.97-5.75-1.22-5.22,6.5-9.32,5.48-14.58Z"/><path class="h" d="M167.09,68.73c.02,.07-.92,.39-2.48,.82-1.55,.41-3.73,.95-6.21,1.11-2.48,.16-4.73-.22-6.29-.68-1.56-.46-2.46-.9-2.44-.96,.04-.21,3.81,1.44,8.69,1.11,2.42-.15,4.59-.63,6.16-.95,1.57-.34,2.54-.54,2.56-.46Z"/><path class="h" d="M167.41,71.94s-.79,.6-2.25,1.23c-1.46,.62-3.61,1.25-6.06,1.3-2.44,.05-4.62-.41-6.14-.84-1.52-.43-2.42-.82-2.4-.88,.02-.08,.96,.18,2.49,.52,1.53,.33,3.66,.72,6.03,.67,2.37-.05,4.47-.6,5.94-1.12,1.47-.53,2.34-.97,2.38-.89Z"/><path class="h" d="M108.77,66.77c.03-.15,1.22-.04,2.66-.22,1.44-.17,2.57-.56,2.63-.42,.06,.12-1.04,.76-2.57,.94-1.53,.19-2.75-.17-2.72-.3Z"/><path class="h" d="M108.27,68.35c.09-.12,1.15,.6,2.63,1.1,1.47,.52,2.75,.6,2.75,.75,.01,.13-1.35,.29-2.92-.26-1.57-.54-2.55-1.5-2.46-1.6Z"/><path class="o" d="M155.03,137.03s-.27-.02-.73-.21c-.46-.19-1.13-.56-1.78-1.26-.66-.69-1.28-1.75-1.5-3.11-.1-.68-.07-1.43,.15-2.19,.22-.75,.62-1.48,1.06-2.2,.44-.72,.93-1.45,1.29-2.27,.35-.82,.56-1.74,.57-2.7,.01-1.93-.69-3.97-1.79-5.86-1.09-1.91-2.64-3.67-4.08-5.63-1.44-1.94-2.81-4.2-3.23-6.81-.47-2.59-.13-5.17,.44-7.54,.59-2.38,1.49-4.56,2.34-6.61,.86-2.05,1.7-3.99,2.33-5.85,.64-1.86,1.07-3.65,1.27-5.3,.44-3.32,.11-6.06-.47-7.83-.56-1.79-1.3-2.58-1.23-2.62,.01-.01,.18,.19,.47,.6,.26,.42,.65,1.06,.95,1.96,.65,1.78,1.04,4.57,.64,7.94-.18,1.69-.6,3.51-1.23,5.4-.62,1.89-1.45,3.85-2.3,5.9-.85,2.05-1.72,4.22-2.29,6.55-.56,2.32-.87,4.84-.42,7.32,.4,2.5,1.71,4.67,3.13,6.6,1.42,1.94,2.97,3.72,4.08,5.69,1.11,1.95,1.83,4.06,1.8,6.1-.02,1.02-.25,1.99-.63,2.86-.39,.86-.9,1.59-1.34,2.3-.44,.71-.83,1.4-1.05,2.1-.22,.7-.26,1.41-.18,2.05,.18,1.29,.75,2.33,1.36,3.01,1.25,1.4,2.41,1.53,2.36,1.61Z"/><path class="h" d="M140.64,42.62c.06,.15-2.18,.72-4,2.74-1.86,1.98-2.24,4.26-2.4,4.21-.06,0-.06-.58,.21-1.47,.26-.88,.85-2.05,1.81-3.09,.96-1.04,2.08-1.72,2.94-2.05,.86-.34,1.43-.39,1.44-.33Z"/></g><g><path class="m" d="M193.64,136.62l-6.81-10.73-.47-10.55,2.67-7.22s2.13-.51,2.48,2.03c.35,2.54-.79,5.62-.79,5.62l1.46,5.12s.48,.55,.93-1.58c.45-2.13-.33-17.92-.34-19.01,0-1.09,.08-3.67,1.69-3.43,1.61,.24,2.12,2.37,2.13,3.46,0,1.09,1.18,11.68,1.18,11.68,0,0,.37,.95,.76,.82,.38-.14-.33-11.37-.41-13.15-.08-1.78-.47-5.7,1.61-5.71,2.08,0,2.08,1.98,2.2,4.14,.12,2.17,1.48,14.33,1.48,14.33,0,0,.32,.76,.61-.26,.3-1.02,.67-14.24,.9-14.86,.24-.62,1.44-1.43,2.39,.06s.72,4.98,.59,11.15c-.12,5.55-.29,7.86,.35,8.29,.64,.43,2.98-2.98,2.98-2.98,0,0,2.84-7.32,5.25-7.06,2.41,.26,.79,2.13,.38,3.83-.35,1.44-4.56,10.03-4.65,10.11-.09,.08-4.23,15.36-4.23,15.36l9.13,17.47c1.59,3.05,2.27,6.52,1.77,9.92-.55,3.73-2.47,7.89-7.93,9.6-4.04,1.26-7-.55-8.96-2.67-1.71-1.86-2.79-4.21-3.23-6.69-1.17-6.74-5.11-27.09-5.11-27.09h0Z"/><path class="f" d="M200.43,128.92c-.09,0,.01-.81-.21-2.06-.22-1.23-.86-2.93-2.22-4.29-1.02-1.07-2.34-1.63-3.44-1.75-1.11-.12-1.94,.26-2.34,.53l-.09,.06-.04-.09c-.14-.29-.19-.44-.16-.46,.03-.02,.14,.11,.32,.36l-.14-.03c.36-.36,1.25-.88,2.48-.81,1.21,.06,2.67,.65,3.77,1.8,1.46,1.46,2.08,3.3,2.21,4.6,.14,1.32-.1,2.13-.15,2.11Z"/><path class="f" d="M206.19,120.81c.09,.12-.83,.91-1.73,2.08-.91,1.16-1.45,2.25-1.59,2.19-.13-.04,.22-1.28,1.18-2.51,.96-1.24,2.07-1.88,2.14-1.77Z"/></g><path class="m" d="M113.78,216.34c.07,.67,0,6.94,4.88,12.06,4.88,5.11,7.08,6.91,7.08,6.91l17.22,7.73s4.49,.68,9.02-3.71c2.82-2.73,3.5-4.5,3.5-4.5,0,0,5.17,2.31,7.18,2.22,3.4-.15,2.86-2.55,2.86-2.55,0,0-11.37-6.26-14.07-8.68s-10.48-4.01-16-3.29l-3.2-.63-1.16-4.3s-6.24-9.3-11.96-6.04c-5.72,3.26-5.35,4.79-5.35,4.79Z"/></g></svg>
