<svg id="Capa_1" data-name="Capa 1" xmlns="http://www.w3.org/2000/svg" viewBox="0 0 1584.22 1235.81"><defs><style>.cls-1{fill:#b1b1b1;}.cls-2{fill:#e96370;}.cls-3{fill:#f0858d;}.cls-4{fill:#dd595f;}.cls-5{fill:#bd494b;}.cls-6{fill:#e1342b;}.cls-7{fill:#fff;}.cls-8{fill:none;stroke:#e1342b;stroke-miterlimit:10;}.cls-9{fill:#c3c2c2;}</style></defs><ellipse class="cls-1" cx="792.11" cy="1106.94" rx="792.11" ry="128.87"/><path class="cls-2" d="M1874.69,1505.47c0,52.29-40.18,94.68-89.74,94.68H694.76c-49.56,0-89.74-42.39-89.74-94.68V762c0-52.29,40.18-94.69,89.74-94.69H1785c49.56,0,89.74,42.4,89.74,94.69Z" transform="translate(-447.89 -478.81)"/><path class="cls-3" d="M1785,667.31H1633.37c49.56,0,89.74,42.4,89.74,94.69v743.47c0,52.29-40.18,94.68-89.74,94.68H1785c49.56,0,89.74-42.39,89.74-94.68V762C1874.69,709.71,1834.51,667.31,1785,667.31Z" transform="translate(-447.89 -478.81)"/><path class="cls-4" d="M1054,1505.47V762c0-52.29,40.17-94.69,89.74-94.69H694.76C645.2,667.31,605,709.71,605,762v743.47c0,52.29,40.18,94.68,89.74,94.68h448.93C1094.12,1600.15,1054,1557.76,1054,1505.47Z" transform="translate(-447.89 -478.81)"/><path class="cls-5" d="M928,1506.87c-49.57,0-89.74-42.39-89.74-94.69V668.71c0-.46.06-.92.07-1.4H694.76C645.2,667.31,605,709.71,605,762v743.47c0,52.29,40.18,94.68,89.74,94.68H1785c49.12,0,89-41.64,89.67-93.28Z" transform="translate(-447.89 -478.81)"/><path class="cls-6" d="M1558.43,1145.4c0,160.92-130.44,291.36-291.36,291.36S975.7,1306.32,975.7,1145.4,1106.15,854,1267.07,854,1558.43,984.48,1558.43,1145.4Z" transform="translate(-447.89 -478.81)"/><path class="cls-7" d="M1531.22,1133.74c0,160.92-130.44,291.36-291.36,291.36s-291.37-130.44-291.37-291.36,130.45-291.36,291.37-291.36S1531.22,972.82,1531.22,1133.74Z" transform="translate(-447.89 -478.81)"/><path class="cls-8" d="M1490.8,1133.74c0,138.58-112.36,250.94-250.94,250.94s-250.94-112.36-250.94-250.94,112.35-251,250.94-251S1490.8,995.14,1490.8,1133.74Z" transform="translate(-447.89 -478.81)"/><polygon class="cls-6" points="985.64 605.11 841.76 605.11 841.76 461.25 742.17 461.25 742.17 605.11 598.28 605.11 598.28 704.73 742.17 704.73 742.17 848.6 841.76 848.6 841.76 704.73 985.64 704.73 985.64 605.11"/><path class="cls-9" d="M1517.35,667.31h-58.3V565.55a28.46,28.46,0,0,0-28.43-28.44H1049.09a28.46,28.46,0,0,0-28.43,28.44V667.31h-58.3V565.55a86.83,86.83,0,0,1,86.73-86.74h381.53a86.83,86.83,0,0,1,86.73,86.74Z" transform="translate(-447.89 -478.81)"/><path class="cls-1" d="M1492.09,667.31V586.93a28.47,28.47,0,0,0-28.43-28.44h-5.6a28.44,28.44,0,0,1,1,7.06V667.31Z" transform="translate(-447.89 -478.81)"/><path class="cls-1" d="M995.4,586.93a86.84,86.84,0,0,1,86.73-86.75h381.53a86.38,86.38,0,0,1,29.31,5.21,86.44,86.44,0,0,0-62.35-26.58H1049.09a86.83,86.83,0,0,0-86.73,86.74V667.31h33Z" transform="translate(-447.89 -478.81)"/></svg>