<svg xmlns="http://www.w3.org/2000/svg" xmlns:xlink="http://www.w3.org/1999/xlink" viewBox="0 0 1728.28 1722"><defs><style>.cls-1{isolation:isolate;}.cls-2{fill:url(#linear-gradient);}.cls-3{fill:#997b7b;}.cls-4{opacity:0.68;}.cls-37,.cls-5{fill:#fff;}.cls-5{mix-blend-mode:soft-light;}.cls-6{fill:url(#linear-gradient-2);}.cls-7{fill:url(#linear-gradient-3);}.cls-8{fill:#e1342b;}.cls-9{fill:#95b0dd;}.cls-10{fill:url(#linear-gradient-4);}.cls-11{fill:url(#linear-gradient-5);}.cls-12{fill:url(#linear-gradient-6);}.cls-13{fill:url(#linear-gradient-7);}.cls-14{opacity:0.3;}.cls-15{fill:#beceeb;}.cls-16{fill:url(#linear-gradient-8);}.cls-17{fill:url(#linear-gradient-9);}.cls-18{fill:url(#linear-gradient-10);}.cls-19{fill:url(#linear-gradient-11);}.cls-20{fill:url(#linear-gradient-12);}.cls-21{fill:#7d2c2b;}.cls-22{fill:url(#linear-gradient-13);}.cls-23{fill:url(#linear-gradient-14);}.cls-24{fill:#263239;}.cls-25{fill:url(#linear-gradient-15);}.cls-26{fill:url(#linear-gradient-16);}.cls-27{fill:#d4c6c7;}.cls-28{fill:url(#linear-gradient-17);}.cls-29{fill:url(#linear-gradient-18);}.cls-30{fill:url(#linear-gradient-19);}.cls-31{fill:url(#linear-gradient-20);}.cls-32{fill:url(#linear-gradient-21);}.cls-33{fill:url(#linear-gradient-22);}.cls-34{fill:#461515;}.cls-35{fill:#d8dee8;}.cls-36{fill:#bd494b;}</style><linearGradient id="linear-gradient" x1="2349.45" y1="2489.47" x2="845.96" y2="622.24" gradientUnits="userSpaceOnUse"><stop offset="0" stop-color="#dae1f3"/><stop offset="1" stop-color="#e9effa"/></linearGradient><linearGradient id="linear-gradient-2" x1="701.71" y1="1143.86" x2="1309.6" y2="1143.86" gradientUnits="userSpaceOnUse"><stop offset="0" stop-color="#f28e86"/><stop offset="1" stop-color="#e874aa"/></linearGradient><linearGradient id="linear-gradient-3" x1="28.15" y1="639.61" x2="397.33" y2="639.61" xlink:href="#linear-gradient-2"/><linearGradient id="linear-gradient-4" x1="679.55" y1="179.29" x2="1108.18" y2="179.29" xlink:href="#linear-gradient-2"/><linearGradient id="linear-gradient-5" x1="1219.16" y1="899.41" x2="1441.04" y2="899.41" xlink:href="#linear-gradient-2"/><linearGradient id="linear-gradient-6" x1="1180.91" y1="1473.06" x2="1959.69" y2="1473.06" xlink:href="#linear-gradient-2"/><linearGradient id="linear-gradient-7" x1="1380.94" y1="751.47" x2="1728.28" y2="751.47" xlink:href="#linear-gradient-2"/><linearGradient id="linear-gradient-8" x1="1046.31" y1="631.32" x2="1139.43" y2="631.32" xlink:href="#linear-gradient"/><linearGradient id="linear-gradient-9" x1="979.09" y1="630.64" x2="1208.08" y2="630.64" xlink:href="#linear-gradient"/><linearGradient id="linear-gradient-10" x1="736.28" y1="791.56" x2="799.72" y2="791.56" xlink:href="#linear-gradient"/><linearGradient id="linear-gradient-11" x1="689.48" y1="791.1" x2="847.46" y2="791.1" xlink:href="#linear-gradient"/><linearGradient id="linear-gradient-12" x1="1018.19" y1="1567.27" x2="946.11" y2="1998.37" gradientUnits="userSpaceOnUse"><stop offset="0" stop-color="#4857a3"/><stop offset="1" stop-color="#40509e"/></linearGradient><linearGradient id="linear-gradient-13" x1="903.76" y1="1931.99" x2="934.84" y2="1931.99" gradientUnits="userSpaceOnUse"><stop offset="0" stop-color="#f7baba"/><stop offset="1" stop-color="#f2908f"/></linearGradient><linearGradient id="linear-gradient-14" x1="729.23" y1="1915.79" x2="766.37" y2="1915.79" xlink:href="#linear-gradient-13"/><linearGradient id="linear-gradient-15" x1="934.62" y1="1555.04" x2="1048.29" y2="1869.7" gradientUnits="userSpaceOnUse"><stop offset="0" stop-color="#232451"/><stop offset="1" stop-color="#2a307b"/></linearGradient><linearGradient id="linear-gradient-16" x1="1240.06" y1="1133.49" x2="1092.97" y2="1324.85" xlink:href="#linear-gradient-13"/><linearGradient id="linear-gradient-17" x1="912.19" y1="1257.17" x2="928.29" y2="1172.69" xlink:href="#linear-gradient-13"/><linearGradient id="linear-gradient-18" x1="955.74" y1="1102.17" x2="863.92" y2="1172.42" xlink:href="#linear-gradient-13"/><linearGradient id="linear-gradient-19" x1="891.1" y1="1046.54" x2="976.61" y2="1156.64" xlink:href="#linear-gradient-15"/><linearGradient id="linear-gradient-20" x1="944.35" y1="1087.28" x2="852.53" y2="1157.54" xlink:href="#linear-gradient-13"/><linearGradient id="linear-gradient-21" x1="1317.82" y1="700.5" x2="1258.56" y2="1143.35" xlink:href="#linear-gradient-13"/><linearGradient id="linear-gradient-22" x1="917.49" y1="1431.68" x2="1003.43" y2="1223.75" xlink:href="#linear-gradient-13"/></defs><g class="cls-1"><g id="Capa_1" data-name="Capa 1"><path class="cls-2" d="M1935.83,1753.1c-34.54,36.36-67.21,59.8-93,78.33-303.47,217.74-662.56,154.27-738.87,138.77-112.7-22.89-330.54-67.13-488-252.34C377.63,1437.65,414.73,996.2,599.55,704.79c33.81-53.3,212.39-349.15,575.34-396.6,219.66-28.71,475.71,29.2,661.13,184.55C2225.24,818.83,2197.53,1477.59,1935.83,1753.1Z" transform="translate(-433.73 -301.11)"/><ellipse class="cls-3" cx="1270.73" cy="1116.12" rx="718.29" ry="775.33" transform="translate(-333.78 2035.58) rotate(-87.49)"/><g class="cls-4"><path class="cls-5" d="M1470.14,1119.59c-.07,63.4-2.39,126.81-7.32,190s-12.85,126.23-24.09,188.69c-11.48,62.37-26.11,124.41-48.21,184.13-11.22,29.75-24.22,59.07-41.88,85.91-8.89,13.32-19,26.09-31.47,36.62a90.31,90.31,0,0,1-20.67,13.29,62.17,62.17,0,0,1-24.2,5.67,61.15,61.15,0,0,1-24.46-4.48,84.59,84.59,0,0,1-21.16-12.56c-12.78-10.2-23.1-22.84-32.16-36.06-18-26.64-31.14-55.91-42.47-85.61a876.24,876.24,0,0,1-28.37-91c-7.93-30.75-14.58-61.8-20.32-93-11.45-62.42-19.28-125.43-24.59-188.63s-7.94-126.61-8.34-190c-.18-31.7.79-63.4,2-95.08s3-63.33,5.41-94.94c4.79-63.22,11.89-126.29,22.4-188.84,5.27-31.27,11.41-62.41,18.79-93.27A896.73,896.73,0,0,1,1145.61,559c10.75-29.85,23.27-59.35,40.71-86.18,8.77-13.31,18.85-26,31.42-36.22a80.57,80.57,0,0,1,20.81-12.42,59,59,0,0,1,23.94-4.22,63.76,63.76,0,0,1,23.65,5.51,92.41,92.41,0,0,1,20.53,12.77c12.54,10.16,22.9,22.56,32.09,35.58,18.28,26.23,32.06,55.13,44,84.54,23.59,59.06,39.57,120.75,52.16,182.89a1794.3,1794.3,0,0,1,26.75,188.3Q1470,1024.35,1470.14,1119.59Zm-12.06,0c.16-63.08-2.2-126.19-7.41-189.06S1437.84,805,1426.25,743s-26.68-123.46-49.22-182.3c-11.42-29.29-24.66-58.06-42.24-84C1326,463.7,1316,451.46,1304,441.5s-26.22-17.46-41.66-17.94a54.28,54.28,0,0,0-22.38,4.25,76,76,0,0,0-19.59,12.09c-11.92,9.93-21.59,22.44-30,35.6-16.71,26.52-28.71,55.86-38.94,85.58a892.64,892.64,0,0,0-25.14,91.06c-6.9,30.77-12.57,61.81-17.37,93-19,124.79-25.15,251.29-24.69,377.44q-.36,94.62,6.42,189.11c4.66,62.91,11.83,125.66,22.59,187.79,5.39,31.06,11.7,62,19.26,92.54a869.11,869.11,0,0,0,27.19,90.36c10.89,29.43,23.62,58.38,40.82,84.42,8.65,12.91,18.49,25.15,30.38,34.82s26.18,16.47,41.2,16,29.07-7.85,40.59-17.82,21.27-22.4,29.77-35.42c16.89-26.25,29.44-55.27,40.2-84.75,21.24-59.22,35.15-121,45.91-183s17.78-124.9,22.5-187.81S1458.12,1182.7,1458.08,1119.59Z" transform="translate(-433.73 -301.11)"/><path class="cls-5" d="M1789.93,1119.59c-.48,81.72-11,163.47-32.93,242.26-22.33,78.61-56,154.19-101.63,222s-103.6,127.76-172.94,171.32a459.58,459.58,0,0,1-111.22,50.8,417.52,417.52,0,0,1-241.85.13A459.64,459.64,0,0,1,1018,1755.45c-69.43-43.49-127.59-103.51-173.29-171.22-45.75-67.86-79.51-143.49-102-222.14A877.06,877.06,0,0,1,718.05,1242a898.49,898.49,0,0,1,.1-244.71A878.15,878.15,0,0,1,743,877.15C765.49,798.54,799.32,723,845.11,655.21S949,527.65,1018.38,484.3a462,462,0,0,1,111.23-50.45A413.62,413.62,0,0,1,1371,434a461.1,461.1,0,0,1,111.12,50.56c69.3,43.42,127.31,103.39,172.91,171s79.41,143.28,101.81,221.84C1778.77,956.15,1789.38,1037.88,1789.93,1119.59Zm-13.82,0c-.07-80.52-10-161.14-31.24-238.89s-53.3-152.63-97.5-220.09a631,631,0,0,0-75.29-94.34c-28.13-28.84-59.2-55-93.21-76.65A450.3,450.3,0,0,0,1369.46,439a400.7,400.7,0,0,0-238.27.12,450.34,450.34,0,0,0-109.3,50.79c-34,21.72-65,47.87-93,76.72A631,631,0,0,0,853.75,661c-44.07,67.45-76,142.4-97.16,220a886.89,886.89,0,0,0-23.33,118.31,925.08,925.08,0,0,0,.1,240.67,884.42,884.42,0,0,0,23.44,118.27C778,1435.74,810,1510.62,854.13,1578a630.76,630.76,0,0,0,75.12,94.24c28.06,28.79,59,54.91,93,76.54a452.44,452.44,0,0,0,109.18,50.55,396.93,396.93,0,0,0,237.79.13A452.25,452.25,0,0,0,1478.51,1749c34-21.6,65-47.69,93.17-76.47a630.22,630.22,0,0,0,75.31-94.21c44.23-67.37,76.33-142.3,97.68-219.89S1776,1200.12,1776.11,1119.59Z" transform="translate(-433.73 -301.11)"/><path class="cls-5" d="M622.4,841c53.87-.78,107.73-1.11,161.59-1.68l161.6-.95c53.86-.41,107.73-.36,161.59-.49l161.6-.28,323.19.85,161.59,1c53.87.62,107.73,1,161.6,1.82a.61.61,0,0,1,0,1.22c-53.87.83-107.73,1.19-161.6,1.81l-161.59,1-323.19.84-161.6-.28c-53.86-.12-107.73-.08-161.59-.48l-161.6-1c-53.86-.56-107.72-.89-161.59-1.67a.91.91,0,0,1,0-1.82Z" transform="translate(-433.73 -301.11)"/><path class="cls-5" d="M809.87,570.29c38.24-.78,76.48-1.11,114.73-1.68l114.72-1c38.25-.4,76.49-.36,114.73-.49l114.73-.28,114.73.32c38.24.2,76.48.09,114.72.53l114.73,1c38.24.61,76.49,1,114.73,1.81a.61.61,0,0,1,0,1.22c-38.24.84-76.49,1.2-114.73,1.81l-114.73,1c-38.24.44-76.48.33-114.72.53l-114.73.32-114.73-.28c-38.24-.13-76.48-.09-114.73-.49l-114.72-1c-38.25-.57-76.49-.9-114.73-1.68a.91.91,0,0,1,0-1.82Z" transform="translate(-433.73 -301.11)"/><path class="cls-5" d="M566.24,1111.61l175.64-1.68,175.63-1c58.55-.41,117.09-.37,175.64-.49l175.63-.28,351.27.84,175.63,1c58.54.62,117.09,1,175.63,1.81a.61.61,0,0,1,.6.62.6.6,0,0,1-.6.6c-58.54.84-117.09,1.2-175.63,1.82l-175.63,1-351.27.84-175.63-.28c-58.55-.12-117.09-.08-175.64-.49l-175.63-1-175.64-1.68a.91.91,0,0,1,0-1.81Z" transform="translate(-433.73 -301.11)"/><path class="cls-5" d="M622.4,1382.26c53.87-.78,107.73-1.11,161.59-1.68l161.6-.95c53.86-.4,107.73-.36,161.59-.48l161.6-.28,323.19.84,161.59,1c53.87.62,107.73,1,161.6,1.81a.62.62,0,0,1,.6.62.61.61,0,0,1-.6.6c-53.87.84-107.73,1.2-161.6,1.81l-161.59,1-323.19.85-161.6-.28c-53.86-.13-107.73-.08-161.59-.49l-161.6-1c-53.86-.57-107.72-.9-161.59-1.68a.91.91,0,0,1,0-1.82Z" transform="translate(-433.73 -301.11)"/><path class="cls-5" d="M1750.81,1657H833a3.19,3.19,0,0,1,0-6.37h917.82a3.19,3.19,0,1,1,0,6.37Z" transform="translate(-433.73 -301.11)"/></g><path class="cls-6" d="M1309.6,1172.73c-141.24-134-380.22-249.83-589.86-250.13l-18,219.63q8.43-.26,16.91-.26c174.55,0,343.95,98.43,447.14,223.15,28.58-60.11,87.81-99.66,115.66-160.75Z" transform="translate(-433.73 -301.11)"/><polygon class="cls-7" points="367.5 539.12 28.15 704.02 76.4 740.1 382.81 740.1 397.33 548.23 367.5 539.12"/><path class="cls-8" d="M801.23,840.23,768.68,1269.4,435.24,1022.78a3.71,3.71,0,0,1,.59-6.33Z" transform="translate(-433.73 -301.11)"/><path class="cls-8" d="M1145.39,1476.19c31.57-71.63,90.18-216.15,140.61-274.8-143.52-152.49-372-265.31-597.85-265.62l-18,219.62c5.62-.16,11.25-.26,16.91-.26C871.16,1155.13,1113.28,1286.82,1145.39,1476.19Z" transform="translate(-433.73 -301.11)"/><path class="cls-9" d="M1241.7,1215.93a2,2,0,0,1-1.5-.7c-39.74-48.16-99.78-95.76-173.63-137.67a1.94,1.94,0,1,1,1.91-3.37c74.26,42.14,134.68,90.06,174.71,138.57a1.94,1.94,0,0,1-.26,2.73A1.92,1.92,0,0,1,1241.7,1215.93Z" transform="translate(-433.73 -301.11)"/><path class="cls-9" d="M1043.33,1064.55a2,2,0,0,1-.9-.22,969.81,969.81,0,0,0-140.32-60.65,1.94,1.94,0,0,1,1.25-3.67,974.84,974.84,0,0,1,140.88,60.89,1.94,1.94,0,0,1-.91,3.65Z" transform="translate(-433.73 -301.11)"/><path class="cls-9" d="M874.37,994.65a2.23,2.23,0,0,1-.56-.08,728.13,728.13,0,0,0-83.34-20.28,1.94,1.94,0,1,1,.68-3.81,731,731,0,0,1,83.78,20.38,1.94,1.94,0,0,1-.56,3.79Z" transform="translate(-433.73 -301.11)"/><polygon class="cls-10" points="891.6 6.06 852.14 2.11 861.47 21.37 679.55 335.49 1005.61 335.49 1077.05 356.46 1108.18 339.08 891.6 6.06"/><path class="cls-11" d="M1219.16,608.11v404c35.59,29.08,40,143.14,72.38,178.61,36-35,104.41-109,149.5-135.9V608.11Z" transform="translate(-433.73 -301.11)"/><path class="cls-8" d="M1087.4,658h423.38l-223-354.77a1.12,1.12,0,0,0-1.93,0l-202,348.65A4.05,4.05,0,0,0,1087.4,658Z" transform="translate(-433.73 -301.11)"/><path class="cls-8" d="M1178.81,629.47v477.09c40.35,29.08,71,70.71,103.37,106.17,36-35,78.17-106.87,122.08-134.58V629.47Z" transform="translate(-433.73 -301.11)"/><path class="cls-9" d="M1181.19,649.21h-71a4.55,4.55,0,0,1-4-6.78l172.72-307.88a1.94,1.94,0,0,1,3.38,1.9L1109.57,644.33a.65.65,0,0,0,0,.67.64.64,0,0,0,.58.33h71a1.94,1.94,0,0,1,0,3.88Z" transform="translate(-433.73 -301.11)"/><path class="cls-12" d="M1941.65,929.56c-325.36.45-603.95,182.84-724.42,471.17h0v.09c-.11.25-.23.53-.33.79l.14,0c-63.21,138.86-25.31,373.91-20.33,614.91h226A17.31,17.31,0,0,0,1440,1998.3c-9.85-182.69-18.32-366.48,7.55-519.95a276.8,276.8,0,0,1,61.22-132.12c103.19-122.74,259.32-201,434.05-201,5.66,0,11.3-.06,16.92.1Z" transform="translate(-433.73 -301.11)"/><path class="cls-8" d="M1895.6,914.35a5.33,5.33,0,0,0-5.34-4.9c-323.25,2.3-599.63,186.66-719.48,480h0l-.33.77h.15c-62.24,139.25-26.46,373.46-20.59,614.94a11.68,11.68,0,0,0,11.66,11.4h228.93a5.34,5.34,0,0,0,5.32-5.61c-10.38-199.66-22.33-375.25,4.9-541.19a287.55,287.55,0,0,1,62.33-137c103.19-124.41,258.93-203.66,433.18-203.66,3.7,0,7.39,0,11.07,0a5.33,5.33,0,0,0,5.36-5.76Z" transform="translate(-433.73 -301.11)"/><polygon class="cls-13" points="1727.44 737.91 1728.28 737.29 1720.24 692.87 1719.48 692.51 1719.33 691.69 1718.54 692.06 1390.51 533.86 1413.13 832.21 1407.42 834.83 1380.94 941.97 1414.66 969.08 1423.05 962.88 1423.06 963.03 1727.14 738.13 1727.44 737.91 1727.44 737.91"/><polygon class="cls-8" points="1348.39 512.8 1380.94 941.97 1719.33 691.69 1348.39 512.8"/><g class="cls-14"><path class="cls-9" d="M829.75,668.06A6.79,6.79,0,0,1,823,662c-.8-7.62-1.28-15.4-1.42-23.1a6.78,6.78,0,0,1,6.65-6.92h.14a6.79,6.79,0,0,1,6.78,6.66c.14,7.32.6,14.7,1.35,22a6.78,6.78,0,0,1-6,7.46Zm.44-59.14a7.26,7.26,0,0,1-.8,0,6.79,6.79,0,0,1-5.95-7.54c.91-7.65,2.15-15.34,3.69-22.84a6.79,6.79,0,1,1,13.3,2.73c-1.47,7.13-2.64,14.43-3.5,21.7A6.79,6.79,0,0,1,830.19,608.92Zm13.45-57.57a6.8,6.8,0,0,1-6.39-9.07c2.57-7.24,5.5-14.46,8.69-21.45a6.79,6.79,0,1,1,12.35,5.63c-3,6.65-5.81,13.5-8.25,20.38A6.79,6.79,0,0,1,843.64,551.35Zm26-53.13a6.8,6.8,0,0,1-5.72-10.44c4.14-6.49,8.61-12.87,13.28-19A6.79,6.79,0,1,1,888,477.06c-4.44,5.8-8.68,11.86-12.61,18A6.78,6.78,0,0,1,869.63,498.22Zm37.19-46a6.79,6.79,0,0,1-4.77-11.62c5.45-5.39,11.22-10.63,17.13-15.55a6.79,6.79,0,0,1,8.7,10.43c-5.63,4.68-11.11,9.65-16.29,14.78A6.81,6.81,0,0,1,906.82,452.22Zm46.43-36.63A6.79,6.79,0,0,1,949.66,403c6.52-4.06,13.3-7.89,20.15-11.38a6.79,6.79,0,0,1,6.17,12.1c-6.51,3.31-13,6.95-19.15,10.81A6.81,6.81,0,0,1,953.25,415.59ZM1202,399.43a6.8,6.8,0,0,1-2.8-.61c-6.64-3-13.5-5.79-20.4-8.23a6.79,6.79,0,0,1,4.54-12.8c7.25,2.57,14.48,5.49,21.47,8.66a6.79,6.79,0,0,1-2.81,13Zm-195.4-9.25a6.79,6.79,0,0,1-2.22-13.21c7.27-2.5,14.73-4.72,22.18-6.6a6.79,6.79,0,0,1,3.31,13.17c-7.07,1.78-14.16,3.89-21.06,6.27A6.83,6.83,0,0,1,1006.61,390.18Zm139.15-9a6.28,6.28,0,0,1-1.36-.14c-7.15-1.45-14.46-2.62-21.73-3.46a6.79,6.79,0,0,1,1.57-13.49c7.64.89,15.34,2.12,22.86,3.65a6.79,6.79,0,0,1-1.34,13.44Zm-81.45-3.86a6.79,6.79,0,0,1-.72-13.54c7.64-.82,15.41-1.31,23.1-1.47h.15a6.79,6.79,0,0,1,.14,13.58c-7.31.15-14.69.63-22,1.4C1064.79,377.31,1064.55,377.33,1064.31,377.33Z" transform="translate(-433.73 -301.11)"/><path class="cls-9" d="M1243.45,423a6.75,6.75,0,0,1-3.87-1.21c-2.87-2-5.84-4-8.81-5.86a6.79,6.79,0,1,1,7.3-11.45c3.12,2,6.24,4.06,9.26,6.16a6.79,6.79,0,0,1-3.88,12.36Z" transform="translate(-433.73 -301.11)"/></g><g class="cls-14"><path class="cls-9" d="M1353.74,598.14a6.8,6.8,0,0,1-6.7-5.72c-.55-3.45-1.19-7-1.89-10.41a6.79,6.79,0,0,1,13.31-2.7c.73,3.64,1.4,7.32,2,11a6.82,6.82,0,0,1-6.71,7.87Z" transform="translate(-433.73 -301.11)"/><path class="cls-9" d="M1093,904.57c-3.12,0-6.26-.06-9.4-.16a6.79,6.79,0,0,1,.45-13.58c7.26.25,14.52.2,21.65-.15a6.79,6.79,0,1,1,.66,13.56C1101.91,904.46,1097.42,904.57,1093,904.57Zm-45.06-3.81a7.55,7.55,0,0,1-1.15-.1c-7.47-1.28-15-2.89-22.28-4.78a6.79,6.79,0,1,1,3.4-13.14c7,1.8,14.07,3.32,21.17,4.54a6.79,6.79,0,0,1-1.14,13.48Zm93.9-.74a6.79,6.79,0,0,1-1.25-13.46c7-1.33,14.14-3,21.07-4.9a6.79,6.79,0,1,1,3.63,13.08c-7.3,2-14.77,3.76-22.19,5.16A6.8,6.8,0,0,1,1141.8,900ZM992,884.69a6.72,6.72,0,0,1-2.58-.52c-7-2.88-14-6.1-20.68-9.56a6.79,6.79,0,0,1,6.21-12.07c6.38,3.29,13,6.34,19.64,9.08A6.79,6.79,0,0,1,992,884.69Zm205.47-1.7a6.79,6.79,0,0,1-2.7-13c6.58-2.84,13.13-6,19.47-9.41a6.79,6.79,0,0,1,6.42,12c-6.68,3.58-13.58,6.91-20.5,9.9A6.8,6.8,0,0,1,1197.42,883ZM1248,854.18a6.79,6.79,0,0,1-4-12.28c5.81-4.23,11.52-8.75,17-13.44a6.79,6.79,0,1,1,8.86,10.28c-5.72,4.94-11.72,9.69-17.84,14.14A6.81,6.81,0,0,1,1248,854.18ZM1291,815a6.79,6.79,0,0,1-5.09-11.28c4.77-5.4,9.35-11,13.64-16.81a6.79,6.79,0,1,1,10.89,8.1c-4.51,6.06-9.33,12-14.35,17.69A6.77,6.77,0,0,1,1291,815Zm33.49-47.61a6.79,6.79,0,0,1-6-10c3.47-6.31,6.7-12.83,9.62-19.39a6.79,6.79,0,0,1,12.41,5.51c-3.07,6.91-6.48,13.78-10.13,20.42A6.79,6.79,0,0,1,1324.49,767.42Zm22.23-53.81a6.85,6.85,0,0,1-1.89-.27,6.78,6.78,0,0,1-4.64-8.4c2-6.89,3.7-14,5.1-21a6.79,6.79,0,0,1,13.32,2.65c-1.48,7.43-3.28,14.87-5.37,22.13A6.81,6.81,0,0,1,1346.72,713.61Zm9.85-57.34h-.42a6.79,6.79,0,0,1-6.36-7.19c.32-5.29.48-10.64.48-15.92q0-2.86-.06-5.73a6.79,6.79,0,0,1,6.64-6.93,6.71,6.71,0,0,1,6.93,6.64c0,2,.07,4,.07,6,0,5.55-.17,11.19-.51,16.74A6.79,6.79,0,0,1,1356.57,656.27Z" transform="translate(-433.73 -301.11)"/><path class="cls-9" d="M940.78,856.6a6.73,6.73,0,0,1-3.9-1.24c-3-2.11-6-4.33-9-6.59A6.78,6.78,0,1,1,936.16,838c2.8,2.14,5.67,4.25,8.53,6.26a6.79,6.79,0,0,1-3.91,12.34Z" transform="translate(-433.73 -301.11)"/></g><path class="cls-15" d="M949.94,777.86a3.17,3.17,0,0,0,3.55,1l36.25-13.33a168.14,168.14,0,0,0,48,25.84l8.84,37.57a3.17,3.17,0,0,0,2.77,2.43l46.09,4.67a3.19,3.19,0,0,0,3.2-1.83l16.19-35A168.34,168.34,0,0,0,1167,783.46l32.84,20.32a3.16,3.16,0,0,0,3.67-.24l35.89-29.28a3.18,3.18,0,0,0,1-3.56L1227,734.46a168.36,168.36,0,0,0,25.85-48l37.56-8.84a3.16,3.16,0,0,0,2.43-2.77l4.67-46.08a3.18,3.18,0,0,0-1.82-3.2l-35-16.19a168.41,168.41,0,0,0-15.7-52.2l20.33-32.83a3.19,3.19,0,0,0-.24-3.68l-29.29-35.89a3.16,3.16,0,0,0-3.55-1L1196,497.15a168.14,168.14,0,0,0-48-25.84l-8.84-37.57a3.17,3.17,0,0,0-2.77-2.43l-46.09-4.67a3.19,3.19,0,0,0-3.2,1.83l-16.19,35a168.34,168.34,0,0,0-52.19,15.69L985.9,458.87a3.14,3.14,0,0,0-3.67.24l-35.89,29.28a3.18,3.18,0,0,0-1,3.56l13.32,36.24a168.44,168.44,0,0,0-25.84,48L895.29,585a3.16,3.16,0,0,0-2.43,2.76l-4.67,46.09a3.18,3.18,0,0,0,1.82,3.2l35,16.19a168.41,168.41,0,0,0,15.7,52.2l-20.33,32.83a3.19,3.19,0,0,0,.24,3.68Z" transform="translate(-433.73 -301.11)"/><path class="cls-16" d="M1092.84,677.89a46.57,46.57,0,1,1,6.82-.5A47.84,47.84,0,0,1,1092.84,677.89Zm.11-82.27a36.32,36.32,0,0,0-5.29.39,35.55,35.55,0,1,0,5.29-.39Z" transform="translate(-433.73 -301.11)"/><path class="cls-17" d="M1093.79,745.14q-5.85,0-11.75-.59h0c-1.24-.13-2.47-.28-3.7-.44a114.71,114.71,0,0,1-17.93-3.87l-.24-.07-.67-.21-1.31-.42a2.71,2.71,0,0,1-1.88-2.58,2.77,2.77,0,0,1,.13-.84,2.72,2.72,0,0,1,3.42-1.74,109.13,109.13,0,0,0,142.22-92.75,111.18,111.18,0,0,0,.57-11.21,109.07,109.07,0,1,0-207.84,46.5,2.67,2.67,0,0,1,.26,1.15,2.72,2.72,0,0,1-5.18,1.16,114.1,114.1,0,0,1-10.8-48.51,116.06,116.06,0,0,1,.58-11.62,114.5,114.5,0,0,1,228.41,11.31,116.56,116.56,0,0,1-.6,11.77,114.52,114.52,0,0,1-113.69,103Z" transform="translate(-433.73 -301.11)"/><g class="cls-14"><path class="cls-9" d="M598.09,847a4.18,4.18,0,0,1-4-3c-1-3.41-1.92-6.91-2.72-10.38a4.2,4.2,0,0,1,8.18-1.87c.76,3.31,1.63,6.63,2.58,9.89a4.2,4.2,0,0,1-2.84,5.21A4.37,4.37,0,0,1,598.09,847Z" transform="translate(-433.73 -301.11)"/><path class="cls-9" d="M591.88,815.31a4.18,4.18,0,0,1-4.16-3.76,180.05,180.05,0,0,1-.94-18.42c0-1.29,0-2.59,0-3.89a4.34,4.34,0,0,1,4.28-4.1,4.18,4.18,0,0,1,4.1,4.28c0,1.24,0,2.47,0,3.71a172,172,0,0,0,.9,17.57,4.19,4.19,0,0,1-3.75,4.59A3.1,3.1,0,0,1,591.88,815.31Zm.92-43.52a4,4,0,0,1-.6,0,4.2,4.2,0,0,1-3.55-4.75,181.88,181.88,0,0,1,4.52-21.86,4.19,4.19,0,0,1,8.09,2.21A175.07,175.07,0,0,0,597,768.19,4.2,4.2,0,0,1,592.8,771.79Zm11.45-42a4.26,4.26,0,0,1-1.59-.32,4.19,4.19,0,0,1-2.28-5.47,181.51,181.51,0,0,1,9.76-20.09,4.19,4.19,0,0,1,7.3,4.13,172.57,172.57,0,0,0-9.31,19.15A4.2,4.2,0,0,1,604.25,729.79Zm21.43-37.91a4.25,4.25,0,0,1-2.5-.82,4.2,4.2,0,0,1-.87-5.87,183.46,183.46,0,0,1,14.38-17.08,4.19,4.19,0,1,1,6.07,5.79,172.42,172.42,0,0,0-13.71,16.29A4.18,4.18,0,0,1,625.68,691.88Zm30-31.52a4.19,4.19,0,0,1-2.66-7.44,183.52,183.52,0,0,1,18.08-13.06,4.19,4.19,0,1,1,4.49,7.08,175.72,175.72,0,0,0-17.25,12.47A4.17,4.17,0,0,1,655.71,660.36Zm36.77-23.27a4.2,4.2,0,0,1-1.8-8,181.11,181.11,0,0,1,20.73-8.26,4.19,4.19,0,0,1,2.61,8,172.06,172.06,0,0,0-19.75,7.87A4.1,4.1,0,0,1,692.48,637.09Zm41.33-13.58a4.19,4.19,0,0,1-.8-8.31,181.79,181.79,0,0,1,22.13-2.92,4.2,4.2,0,0,1,.58,8.37,173,173,0,0,0-21.1,2.78A3.71,3.71,0,0,1,733.81,623.51Zm65.1-.53a3.78,3.78,0,0,1-.74-.07,177.38,177.38,0,0,0-18.38-2.25c-.93-.07-1.85-.12-2.77-.17a4.2,4.2,0,0,1,.43-8.38c1,.06,2,.11,2.94.19a181.31,181.31,0,0,1,19.25,2.36,4.19,4.19,0,0,1-.73,8.32Z" transform="translate(-433.73 -301.11)"/></g><g class="cls-14"><path class="cls-9" d="M770.34,974a4.2,4.2,0,0,1-.05-8.39,173.36,173.36,0,0,0,20.88-1.54,4.2,4.2,0,0,1,1.12,8.32A183.85,183.85,0,0,1,770.4,974Zm-21.43-1a3.39,3.39,0,0,1-.45,0,184.23,184.23,0,0,1-21.65-3.65,4.19,4.19,0,1,1,1.89-8.17,173.64,173.64,0,0,0,20.66,3.48,4.19,4.19,0,0,1-.45,8.36Zm63.86-4.72a4.19,4.19,0,0,1-1.07-8.24,174.11,174.11,0,0,0,19.9-6.55,4.2,4.2,0,0,1,3.1,7.8,180.38,180.38,0,0,1-20.86,6.85A4,4,0,0,1,812.77,968.3Zm-105.59-4.95a4.23,4.23,0,0,1-1.43-.25,177.24,177.24,0,0,1-20.14-8.78,4.19,4.19,0,1,1,3.81-7.46,173.82,173.82,0,0,0,19.2,8.36,4.19,4.19,0,0,1-1.44,8.13Zm145.37-10.86a4.2,4.2,0,0,1-2-7.88,170.64,170.64,0,0,0,17.74-11.13,4.19,4.19,0,1,1,4.88,6.82A181,181,0,0,1,854.56,952,4.18,4.18,0,0,1,852.55,952.49Zm34.82-24.9a4.2,4.2,0,0,1-2.83-7.29,176.85,176.85,0,0,0,14.57-15,4.19,4.19,0,0,1,6.36,5.45,181.85,181.85,0,0,1-15.26,15.78A4.19,4.19,0,0,1,887.37,927.59Zm27.86-32.53a4.2,4.2,0,0,1-3.48-6.52,171.28,171.28,0,0,0,10.52-18.11,4.2,4.2,0,0,1,7.5,3.77,181.81,181.81,0,0,1-11,19A4.21,4.21,0,0,1,915.23,895.06Z" transform="translate(-433.73 -301.11)"/><path class="cls-9" d="M668.87,943.78a4.24,4.24,0,0,1-2.35-.72c-3-2-5.9-4.12-8.7-6.27a4.19,4.19,0,0,1,5.1-6.66c2.67,2,5.46,4.06,8.3,6a4.2,4.2,0,0,1-2.35,7.67Z" transform="translate(-433.73 -301.11)"/></g><path class="cls-15" d="M672.35,889.61a2.13,2.13,0,0,0,2.38.65L699,881.34a112.54,112.54,0,0,0,32.11,17.29L737,923.77a2.12,2.12,0,0,0,1.85,1.63l30.84,3.12a2.13,2.13,0,0,0,2.14-1.22l10.84-23.44a112.75,112.75,0,0,0,34.92-10.5l22,13.6a2.12,2.12,0,0,0,2.46-.16l24-19.6a2.13,2.13,0,0,0,.65-2.38l-8.92-24.25a112.65,112.65,0,0,0,17.29-32.11l25.14-5.91a2.13,2.13,0,0,0,1.62-1.86L905,789.85a2.13,2.13,0,0,0-1.22-2.14L880.3,776.88A112.55,112.55,0,0,0,869.79,742l13.61-22a2.14,2.14,0,0,0-.16-2.46l-19.6-24a2.1,2.1,0,0,0-2.38-.65L837,701.77a112.78,112.78,0,0,0-32.11-17.29L799,659.34a2.12,2.12,0,0,0-1.85-1.62l-30.84-3.13a2.12,2.12,0,0,0-2.14,1.23l-10.84,23.44a112.48,112.48,0,0,0-34.92,10.5l-22-13.6a2.11,2.11,0,0,0-2.46.16l-24,19.59a2.14,2.14,0,0,0-.65,2.38l8.92,24.26a112.65,112.65,0,0,0-17.29,32.11l-25.14,5.91a2.12,2.12,0,0,0-1.62,1.85L631,793.26a2.13,2.13,0,0,0,1.22,2.14l23.44,10.84a112.49,112.49,0,0,0,10.51,34.92l-13.61,22a2.14,2.14,0,0,0,.16,2.46Z" transform="translate(-433.73 -301.11)"/><path class="cls-18" d="M767.93,823.28a31.72,31.72,0,0,1-4.56-63.1,31.76,31.76,0,0,1,36,26.75,31.72,31.72,0,0,1-26.75,36A32.4,32.4,0,0,1,767.93,823.28Zm.08-55a23.33,23.33,0,1,0,3.39,46.41h0A23.33,23.33,0,0,0,768,768.23Z" transform="translate(-433.73 -301.11)"/><path class="cls-19" d="M768.53,870.09c-2.65,0-5.33-.14-8-.41a79.13,79.13,0,0,1-15.77-3.23l-.69-.22a4.19,4.19,0,1,1,2.59-8,71.41,71.41,0,0,0,14.71,3.08h0l.83.08A70,70,0,0,0,796.32,856a71.18,71.18,0,0,0,16.29-9.81l.12-.1.37-.3a70.14,70.14,0,0,0,25.61-47.58,70.89,70.89,0,0,0,.37-7.26,70.6,70.6,0,0,0-140.85-7,71.37,71.37,0,0,0-.36,7.16,70.31,70.31,0,0,0,6.66,29.91,4.19,4.19,0,1,1-7.59,3.56,78.68,78.68,0,0,1-7.46-33.46,79.75,79.75,0,0,1,.4-8,79,79,0,1,1,78.65,87Z" transform="translate(-433.73 -301.11)"/><path class="cls-20" d="M1000.79,1978.47c-18.9,1.63-51.7,4.28-77.56,5.42-15.55.69-24.5-.84-29.65-2.9,0,.58,0,1.13,0,1.64a5.34,5.34,0,0,0,5.08,5,905.61,905.61,0,0,0,101.56.1,3.81,3.81,0,0,0,3.1-5.72A31,31,0,0,0,1000.79,1978.47Z" transform="translate(-433.73 -301.11)"/><path class="cls-21" d="M923.23,1983.89c25.86-1.14,58.66-3.79,77.56-5.42-18.58-22.8-77.56-38.17-77.56-38.17H906.57c-11.46,16.52-13.12,32.24-13,40.69C898.73,1983.05,907.68,1984.58,923.23,1983.89Z" transform="translate(-433.73 -301.11)"/><path class="cls-22" d="M903.76,1913.11l1.56,30.85a7,7,0,0,0,6,6.62,27.25,27.25,0,0,0,12.51-1,8.29,8.29,0,0,0,5.6-6.4l5.39-30Z" transform="translate(-433.73 -301.11)"/><path class="cls-21" d="M710.43,2014.05c-8.2-1.48-11.91-7-13.46-12.86l0,.16a14.65,14.65,0,0,0,7.18,15.69c6.75,3.7,14.14,4.33,19.87,4a18.34,18.34,0,0,0,14.9-8.88l.05-.08C732.77,2016.05,724.1,2016.51,710.43,2014.05Z" transform="translate(-433.73 -301.11)"/><path class="cls-21" d="M749.07,1922.61H735.34c-20.93-.55-34.07,56.49-38.37,78.58,1.55,5.88,5.26,11.38,13.46,12.86,13.67,2.46,22.34,2,28.51-2,11.31-19.22,16.91-47.38,19.6-63.82C761.61,1929.59,749.07,1922.61,749.07,1922.61Z" transform="translate(-433.73 -301.11)"/><path class="cls-23" d="M737.1,1894l-7.63,30.34a8.24,8.24,0,0,0,4.29,9.33c4.26,2.19,10.27,4.49,15.79,3.83a6.9,6.9,0,0,0,5.62-4.59l11.2-31.92Z" transform="translate(-433.73 -301.11)"/><path class="cls-24" d="M1005.44,1494.39s-68.17,426.11-67.05,428.46c0,0-18.82,8.55-39.35,1.09,0,0,6.17-227.79,20.61-315.13,0,0-116.34,203.6-153.28,305,0,0-19.27-2.3-35.22-12.8,0,0,125.26-366.46,158.68-415.28Z" transform="translate(-433.73 -301.11)"/><path class="cls-25" d="M922.37,1606.59a2.05,2.05,0,0,1-1.06-.3,2,2,0,0,1-.64-2.78l25.47-40.69a2,2,0,0,1,1.31-.91l18.75-3.77a2,2,0,1,1,.79,3.95l-17.89,3.6-25,40A2,2,0,0,1,922.37,1606.59Z" transform="translate(-433.73 -301.11)"/><path class="cls-26" d="M1318.26,1077.14s-46,10.14-74,23.06a25.58,25.58,0,0,0-12.52,12.58c-8.37,18.33-33.4,64.29-82,86.23,7,9.28,18.25,28.58,23.15,61,29.16-21.71,54.34-58,66.42-117.4,0,0,9.21,5,20.69-.57,6.06-3,13.07-7.12,18.32-10.41a24,24,0,0,0,10.66-14.31c2-7.85.82-14.75.82-22.16l23.65-7.32S1320.63,1085.18,1318.26,1077.14Z" transform="translate(-433.73 -301.11)"/><path class="cls-27" d="M1173,1260c-4.9-32.45-16.16-51.75-23.15-61-30.16,13.62-69.39,18-119.35.67a53.13,53.13,0,0,0-14.28-2.82c-26.6-1.56-114.24-4.4-186.76,19.56a56.35,56.35,0,0,0-34,30.94c-19.61,45-51.37,147.55,36.8,199.31a218,218,0,0,1,21.28-40.27c-14.2-24-18.41-56.66,6.79-99.26,18.37,49.61,27,122,28.79,154A68.72,68.72,0,0,1,883.7,1492l-.45,1.06a3.64,3.64,0,0,0,2.56,5c49.63,11.15,101.26,8.12,116.68,6.85a6.37,6.37,0,0,0,5.68-4.86c24.13-101.71,24.19-171.08,18.28-214.94C1049,1290.13,1118.07,1300.9,1173,1260Z" transform="translate(-433.73 -301.11)"/><path class="cls-9" d="M1026.55,1287.82a2,2,0,0,1-2-1.75c-5.67-42.82-17.21-61.51-17.32-61.69a2,2,0,0,1,3.4-2.16c.49.77,12.11,19.49,17.92,63.32a2,2,0,0,1-1.74,2.26Z" transform="translate(-433.73 -301.11)"/><path class="cls-28" d="M904.05,1137.62s-5,53.09-9.44,68.79a5.37,5.37,0,0,0,2.53,6.14c7.5,4.28,25.5,11.28,50.12-.79a11.19,11.19,0,0,0,6.2-10.51l-2.17-51.3Z" transform="translate(-433.73 -301.11)"/><path class="cls-29" d="M952.37,1069.69s16.06,36.9,17.14,56.26,5.25,31.93-17.14,35.83-41.25-7.25-51.47-26.54c0,0-16-29.73-12.42-41.9S952.37,1069.69,952.37,1069.69Z" transform="translate(-433.73 -301.11)"/><path class="cls-30" d="M908.55,1121.37l1.27-.56a3.08,3.08,0,0,0,1.51-4.22c-3.16-6.11-9.32-20.09-1.36-23.35,10.24-4.2,50.84-12.48,59.59-26.88,8.42-13.84,1-31.71-10.25-36.8a1.53,1.53,0,0,0-2,.66l-.94,1.77a1.52,1.52,0,0,1-2.81-.29,1.52,1.52,0,0,0-2.74-.39c-2.69,4.31-10,11.29-29.39,14.88-27.63,5.1-45.89,16.28-46.34,35.37a1.53,1.53,0,0,1-2.36,1.25c-2-1.24-5.3-1.82-9.66,1.84-7.59,6.38-4.48,22.93,12.15,36.54a1.51,1.51,0,0,1-.08,2.44c-3,2-7.51,6.63,4.14,12.85,12.05,6.44,21,5.92,24.5,5.34A1.5,1.5,0,0,0,905,1140l-3.69-16.77a1.52,1.52,0,0,1,1.48-1.85Z" transform="translate(-433.73 -301.11)"/><path class="cls-31" d="M909.25,1124.91s-6.13-23.57-16.7-17,5.48,26.41,14,27.29Z" transform="translate(-433.73 -301.11)"/><path class="cls-32" d="M1251.66,1137.16a2.05,2.05,0,0,1-1.27-.45,2,2,0,0,1-.29-2.83c1.74-2.14,17.18-21,23.12-24.37,2.17-1.23,3.46-2.49,3.73-3.66a2.93,2.93,0,0,0-.27-1.89l-18.13,3.64-10.28,8.81a2,2,0,1,1-2.62-3.05l10.67-9.16a2,2,0,0,1,.92-.45l20.08-4a2,2,0,0,1,2.06.85,7.67,7.67,0,0,1,1.49,6.2c-.55,2.35-2.41,4.39-5.67,6.23-4.47,2.53-17.38,17.75-22,23.41A2,2,0,0,1,1251.66,1137.16Z" transform="translate(-433.73 -301.11)"/><path class="cls-33" d="M908.47,1472.19l71,.88-24.85-23.39a18.54,18.54,0,0,0-22.73-2.13,53.51,53.51,0,0,0-12.62,11.25s-44.29-16.19-65.75-52.4a218,218,0,0,0-21.28,40.27C851.47,1458,876.42,1466.85,908.47,1472.19Z" transform="translate(-433.73 -301.11)"/><path class="cls-34" d="M916.11,1481.34h.42l180.21-.19a8,8,0,1,0,0-16l-180.21.19a8,8,0,0,0-.4,15.95Z" transform="translate(-433.73 -301.11)"/><path class="cls-34" d="M1258.73,1319.46H1108.66a28.62,28.62,0,0,0-25.87,16.22l-69.38,145.57h186.5a17.37,17.37,0,0,0,16.17-10.88l53.8-134.7A11.87,11.87,0,0,0,1258.73,1319.46Z" transform="translate(-433.73 -301.11)"/><ellipse class="cls-35" cx="1164.26" cy="1397.67" rx="19.04" ry="11.81" transform="translate(-961.36 1764.78) rotate(-71.76)"/><path class="cls-36" d="M1367.89,1770.79l6.1,190a61.8,61.8,0,0,0,61.55,59.68l454.87,2.68a44.59,44.59,0,0,0,44.46-37.95c7.11-48,16.18-133.8,6-214.36Z" transform="translate(-433.73 -301.11)"/><path class="cls-37" d="M1881,2012.24a1.36,1.36,0,0,1,0-2.72,41.57,41.57,0,0,0,7.8-1,1.36,1.36,0,0,1,.62,2.65,44.63,44.63,0,0,1-8.32,1.11Zm-19-.07h0l-8.14-.05a1.36,1.36,0,0,1,0-2.72h0l8.15,0a1.36,1.36,0,0,1,0,2.72Zm-27.15-.16h0l-8.14,0a1.36,1.36,0,0,1,0-2.72h0l8.14,0a1.36,1.36,0,0,1,0,2.72Zm-27.15-.17h0l-8.15,0a1.36,1.36,0,0,1,0-2.72h0l8.14.05a1.36,1.36,0,1,1,0,2.71Zm-27.14-.15h0l-8.15,0a1.37,1.37,0,0,1-1.35-1.37,1.45,1.45,0,0,1,1.37-1.35l8.14,0a1.36,1.36,0,0,1,0,2.72Zm-27.15-.16h0l-8.14,0a1.36,1.36,0,0,1,0-2.72h0l8.15,0a1.36,1.36,0,0,1,0,2.72Zm-27.15-.16h0l-8.14,0a1.37,1.37,0,0,1-1.35-1.37,1.35,1.35,0,0,1,1.36-1.35h0l8.14.05a1.36,1.36,0,0,1,0,2.72Zm-27.15-.16h0l-8.15,0a1.36,1.36,0,0,1,0-2.72h0l8.14,0a1.36,1.36,0,0,1,0,2.72Zm-27.14-.16h0l-8.14,0a1.36,1.36,0,0,1,0-2.72h0l8.15,0a1.36,1.36,0,0,1,0,2.72Zm-27.15-.16h0l-8.14-.05a1.36,1.36,0,0,1,0-2.72h0l8.15.05a1.36,1.36,0,0,1,0,2.72Zm-27.15-.16h0l-8.14,0a1.36,1.36,0,0,1,0-2.72h0l8.15,0a1.36,1.36,0,0,1,0,2.72Zm-27.14-.16h0l-8.15,0a1.36,1.36,0,0,1,0-2.72h0l8.14,0a1.36,1.36,0,0,1,0,2.72Zm-27.15-.16h0l-8.14-.05a1.36,1.36,0,0,1,0-2.72h0l8.15,0a1.36,1.36,0,0,1,0,2.72Zm-27.15-.16h0l-8.14,0a1.36,1.36,0,0,1,0-2.72h0l8.15,0a1.36,1.36,0,0,1,0,2.72Zm-27.15-.16h0l-8.15,0a1.37,1.37,0,0,1-1.35-1.37,1.51,1.51,0,0,1,1.37-1.35l8.14,0a1.37,1.37,0,0,1,1.35,1.37A1.35,1.35,0,0,1,1509.08,2010.09Zm-27.14-.16h0l-8.15,0a1.36,1.36,0,0,1,0-2.72h0l8.14,0a1.36,1.36,0,0,1,0,2.72Zm-27.15-.16h0l-8.14,0a1.36,1.36,0,0,1,0-2.72h0l8.15,0a1.36,1.36,0,0,1,0,2.72Zm-26.83-3a1.23,1.23,0,0,1-.42-.07,59,59,0,0,1-7.7-3.15,1.36,1.36,0,1,1,1.2-2.43,58.46,58.46,0,0,0,7.35,3,1.35,1.35,0,0,1-.43,2.64Zm478.05-3.79a1.38,1.38,0,0,1-1.06-.51,1.36,1.36,0,0,1,.22-1.91,41.17,41.17,0,0,0,5.64-5.48,1.36,1.36,0,1,1,2.07,1.76,43.76,43.76,0,0,1-6,5.84A1.36,1.36,0,0,1,1906,2002.94Zm-501-10.26a1.35,1.35,0,0,1-1-.39,61.43,61.43,0,0,1-5.51-6.25,1.36,1.36,0,0,1,2.16-1.65,58.2,58.2,0,0,0,5.26,6,1.36,1.36,0,0,1,0,1.92A1.41,1.41,0,0,1,1405,1992.68Zm515.5-12.12a1.34,1.34,0,0,1-1.31-1.7,41.19,41.19,0,0,0,.86-4.26l.53-3.61a1.36,1.36,0,1,1,2.69.39l-.53,3.61a46.38,46.38,0,0,1-.92,4.55A1.37,1.37,0,0,1,1920.53,1980.56Zm-529.8-10.67a1.36,1.36,0,0,1-1.28-.92,58.9,58.9,0,0,1-2.13-8,1.36,1.36,0,0,1,2.67-.51,56,56,0,0,0,2,7.68,1.38,1.38,0,0,1-1.29,1.8Zm533.75-16.18-.17,0a1.35,1.35,0,0,1-1.18-1.51q.49-3.95,1-8.07a1.36,1.36,0,1,1,2.7.31q-.48,4.14-1,8.09A1.37,1.37,0,0,1,1924.48,1953.71Zm-537.14-10.62a1.36,1.36,0,0,1-1.36-1.31l-.26-8.14a1.35,1.35,0,0,1,1.31-1.4,1.38,1.38,0,0,1,1.4,1.31l.26,8.14a1.35,1.35,0,0,1-1.31,1.4Zm540.11-16.37h-.13a1.35,1.35,0,0,1-1.22-1.48q.38-4,.74-8.1a1.38,1.38,0,0,1,1.47-1.24,1.36,1.36,0,0,1,1.23,1.47q-.36,4.13-.74,8.13A1.36,1.36,0,0,1,1927.45,1926.72Zm-541-10.76a1.35,1.35,0,0,1-1.35-1.32l-.26-8.14a1.36,1.36,0,0,1,1.31-1.4,1.39,1.39,0,0,1,1.4,1.32l.26,8.14a1.35,1.35,0,0,1-1.31,1.4Zm543.18-16.31h-.09a1.35,1.35,0,0,1-1.26-1.44c.17-2.68.34-5.39.49-8.12a1.36,1.36,0,1,1,2.71.15c-.15,2.74-.32,5.46-.49,8.15A1.36,1.36,0,0,1,1929.64,1899.65Zm-544.05-10.83a1.35,1.35,0,0,1-1.35-1.31l-.27-8.14a1.36,1.36,0,0,1,2.72-.09l.26,8.14a1.36,1.36,0,0,1-1.31,1.4ZM1931,1872.54h0a1.36,1.36,0,0,1-1.31-1.4q.13-4,.23-8.13a1.46,1.46,0,0,1,1.39-1.33,1.36,1.36,0,0,1,1.33,1.39q-.11,4.11-.24,8.16A1.36,1.36,0,0,1,1931,1872.54Zm-546.29-10.85a1.36,1.36,0,0,1-1.36-1.31l-.26-8.14a1.36,1.36,0,0,1,1.31-1.4,1.41,1.41,0,0,1,1.4,1.31l.27,8.14a1.36,1.36,0,0,1-1.32,1.4Zm546.74-16.3a1.36,1.36,0,0,1-1.36-1.35q0-4.05,0-8.14a1.36,1.36,0,0,1,1.34-1.37,1.43,1.43,0,0,1,1.37,1.34c0,2.73,0,5.45.06,8.16a1.36,1.36,0,0,1-1.36,1.36Zm-547.61-10.83a1.36,1.36,0,0,1-1.36-1.32l-.26-8.14a1.35,1.35,0,0,1,1.31-1.4,1.43,1.43,0,0,1,1.4,1.32l.26,8.14a1.35,1.35,0,0,1-1.31,1.4Zm547-16.31a1.36,1.36,0,0,1-1.36-1.3c-.11-2.7-.24-5.41-.39-8.11a1.36,1.36,0,0,1,1.28-1.43,1.34,1.34,0,0,1,1.43,1.28q.23,4.07.4,8.15a1.35,1.35,0,0,1-1.3,1.41ZM1383,1807.42a1.35,1.35,0,0,1-1.35-1.31l-.26-8.14a1.35,1.35,0,0,1,1.31-1.4,1.38,1.38,0,0,1,1.4,1.31l.26,8.14a1.35,1.35,0,0,1-1.31,1.4Zm546.17-16.26a1.37,1.37,0,0,1-1.35-1.24c-.24-2.69-.5-5.39-.78-8.08a1.36,1.36,0,0,1,1.21-1.49,1.35,1.35,0,0,1,1.49,1.21q.43,4.05.79,8.12a1.37,1.37,0,0,1-1.23,1.48Zm-547-10.87a1.35,1.35,0,0,1-1.35-1.32l-.27-8.14a1.37,1.37,0,0,1,1.32-1.4,1.46,1.46,0,0,1,1.4,1.32l.26,8.14a1.37,1.37,0,0,1-1.31,1.4Zm537-8.14h-8.14a1.36,1.36,0,1,1,0-2.72h8.14a1.36,1.36,0,1,1,0,2.72Zm-27.15,0h-8.14a1.36,1.36,0,1,1,0-2.72h8.14a1.36,1.36,0,1,1,0,2.72Zm-27.14,0h-8.15a1.36,1.36,0,1,1,0-2.72h8.15a1.36,1.36,0,0,1,0,2.72Zm-27.15,0h-8.15a1.36,1.36,0,0,1,0-2.72h8.15a1.36,1.36,0,1,1,0,2.72Zm-27.15,0h-8.14a1.36,1.36,0,1,1,0-2.72h8.14a1.36,1.36,0,1,1,0,2.72Zm-27.15,0h-8.14a1.36,1.36,0,1,1,0-2.72h8.14a1.36,1.36,0,1,1,0,2.72Zm-27.15,0h-8.14a1.36,1.36,0,1,1,0-2.72h8.14a1.36,1.36,0,0,1,0,2.72Zm-27.14,0h-8.15a1.36,1.36,0,1,1,0-2.72h8.15a1.36,1.36,0,0,1,0,2.72Zm-27.15,0h-8.15a1.36,1.36,0,0,1,0-2.72h8.15a1.36,1.36,0,1,1,0,2.72Zm-27.15,0h-8.14a1.36,1.36,0,1,1,0-2.72h8.14a1.36,1.36,0,1,1,0,2.72Zm-27.15,0h-8.14a1.36,1.36,0,1,1,0-2.72h8.14a1.36,1.36,0,1,1,0,2.72Zm-27.14,0h-8.15a1.36,1.36,0,1,1,0-2.72h8.15a1.36,1.36,0,0,1,0,2.72Zm-27.15,0h-8.15a1.36,1.36,0,0,1,0-2.72h8.15a1.36,1.36,0,1,1,0,2.72Zm-27.15,0H1558a1.36,1.36,0,1,1,0-2.72h8.14a1.36,1.36,0,1,1,0,2.72Zm-27.15,0h-8.14a1.36,1.36,0,1,1,0-2.72H1539a1.36,1.36,0,1,1,0,2.72Zm-27.15,0h-8.14a1.36,1.36,0,1,1,0-2.72h8.14a1.36,1.36,0,1,1,0,2.72Zm-27.14,0h-8.15a1.36,1.36,0,0,1,0-2.72h8.15a1.36,1.36,0,0,1,0,2.72Zm-27.15,0h-8.15a1.36,1.36,0,0,1,0-2.72h8.15a1.36,1.36,0,1,1,0,2.72Zm-27.15,0h-8.14a1.36,1.36,0,1,1,0-2.72h8.14a1.36,1.36,0,1,1,0,2.72Zm-27.15,0h-8.14a1.36,1.36,0,1,1,0-2.72h8.14a1.36,1.36,0,1,1,0,2.72Z" transform="translate(-433.73 -301.11)"/><path class="cls-34" d="M1501.19,1632.89l1.37-14.65a11.27,11.27,0,0,1,8.55-6.57c14.17-2.26,49.31-6.22,66.23,6.42l2.53,17Z" transform="translate(-433.73 -301.11)"/><path class="cls-34" d="M1545.46,1618.8a20.43,20.43,0,0,1-9.8,0,8.86,8.86,0,0,1-6.76-8.58v-45.88h23.34v45.84A8.9,8.9,0,0,1,1545.46,1618.8Z" transform="translate(-433.73 -301.11)"/><path class="cls-34" d="M1727.31,1632.89l1.36-14.65a11.28,11.28,0,0,1,8.55-6.57c14.17-2.26,49.31-6.22,66.24,6.42l2.53,17Z" transform="translate(-433.73 -301.11)"/><path class="cls-34" d="M1771.57,1618.8a20.43,20.43,0,0,1-9.8,0,8.87,8.87,0,0,1-6.76-8.58V1559.5h23.35v50.67A8.89,8.89,0,0,1,1771.57,1618.8Z" transform="translate(-433.73 -301.11)"/><path class="cls-36" d="M1526.53,1575.58l251.06-8.31a12.1,12.1,0,0,0,11.56-9.94,102.08,102.08,0,0,0,.78-31.82,29,29,0,0,0-28.07-24.51c-46.83-1.11-166.06-1.08-231.78,24.91a22.94,22.94,0,0,0-13.86,15.93c-1.68,6.9-2.8,16.11-.6,25.49A10.79,10.79,0,0,0,1526.53,1575.58Z" transform="translate(-433.73 -301.11)"/><path class="cls-37" d="M1522.18,1564.14a2.71,2.71,0,0,1-2.7-2.44,60.86,60.86,0,0,1,1.55-19.5,22.56,22.56,0,0,1,15.36-15.62c14.06-4.12,40.93-11.13,63-11.75a2.72,2.72,0,1,1,.15,5.43c-21.41.59-47.77,7.48-61.58,11.54a17.09,17.09,0,0,0-11.65,11.81,56.28,56.28,0,0,0-1.39,17.54,2.72,2.72,0,0,1-2.42,3Z" transform="translate(-433.73 -301.11)"/><path class="cls-36" d="M1384.71,1627.19c81.11-1,432-4.73,533.9,7.57a20.75,20.75,0,0,1,17.84,16.07c6,27.23,18.14,90.48,16.7,153.17a18.17,18.17,0,0,1-14.87,17.33l-232.65,44H1623l-247.9-49.28a19.36,19.36,0,0,1-15.63-18c-1.61-31.54-4.13-105.55,4.4-153.19A21.44,21.44,0,0,1,1384.71,1627.19Z" transform="translate(-433.73 -301.11)"/><path class="cls-37" d="M1625,1846.65a1.24,1.24,0,0,1-.27,0l-8-1.59a1.36,1.36,0,1,1,.53-2.66l7.91,1.58.18,0h8.15a1.36,1.36,0,1,1,0,2.72H1625Zm62.81,0h-8.14a1.36,1.36,0,1,1,0-2.72h8.14a1.36,1.36,0,1,1,0,2.72Zm-27.14,0h-8.15a1.36,1.36,0,1,1,0-2.72h8.15a1.36,1.36,0,0,1,0,2.72Zm46.09-.56a1.36,1.36,0,0,1-.25-2.69l8-1.52a1.36,1.36,0,0,1,.51,2.67l-8,1.51A1.15,1.15,0,0,1,1706.72,1846.09Zm-108.39-4.73-.26,0-8-1.59a1.36,1.36,0,1,1,.53-2.66l8,1.59a1.36,1.36,0,0,1-.27,2.69Zm135.07-.32a1.36,1.36,0,0,1-.25-2.69l8-1.52a1.36,1.36,0,0,1,.5,2.67l-8,1.52Zm-161.69-5a1.23,1.23,0,0,1-.27,0l-8-1.59a1.36,1.36,0,0,1-1.06-1.6,1.34,1.34,0,0,1,1.59-1.06l8,1.59a1.35,1.35,0,0,1-.26,2.68Zm188.36-.07a1.36,1.36,0,0,1-.25-2.69l8-1.51a1.36,1.36,0,0,1,.51,2.67l-8,1.51A1,1,0,0,1,1760.07,1836Zm26.68-5a1.38,1.38,0,0,1-1.34-1.11,1.35,1.35,0,0,1,1.09-1.58l8-1.52a1.36,1.36,0,0,1,.5,2.67l-8,1.51Zm-241.67-.18-.27,0-8-1.58a1.36,1.36,0,1,1,.53-2.66l8,1.58a1.36,1.36,0,0,1-.26,2.69Zm268.34-4.87a1.36,1.36,0,0,1-.25-2.69l8-1.51a1.35,1.35,0,1,1,.51,2.66l-8,1.52Zm-295-.42-.26,0-8-1.58a1.36,1.36,0,0,1,.53-2.67l8,1.59a1.36,1.36,0,0,1-.27,2.69Zm321.65-4.63a1.36,1.36,0,0,1-.26-2.69l8-1.51a1.36,1.36,0,0,1,.5,2.67l-8,1.51A1.1,1.1,0,0,1,1840.1,1820.85Zm-348.27-.66-.27,0-8-1.59a1.36,1.36,0,0,1,.53-2.66l8,1.59a1.36,1.36,0,0,1-.26,2.69Zm374.94-4.38a1.36,1.36,0,0,1-.25-2.69l8-1.52a1.36,1.36,0,0,1,.51,2.67l-8,1.51A1.07,1.07,0,0,1,1866.77,1815.81Zm-401.57-.92a1.23,1.23,0,0,1-.27,0l-8-1.59a1.36,1.36,0,0,1,.53-2.66l8,1.59a1.35,1.35,0,0,1-.26,2.68Zm428.24-4.13a1.36,1.36,0,0,1-.25-2.69l8-1.51a1.35,1.35,0,1,1,.5,2.66l-8,1.52Zm-454.87-1.16a1.15,1.15,0,0,1-.26,0l-8-1.59a1.36,1.36,0,1,1,.53-2.66l8,1.59a1.36,1.36,0,0,1-.27,2.69Zm481.55-3.88a1.36,1.36,0,0,1-.25-2.7l8-1.51a1.36,1.36,0,1,1,.5,2.67l-8,1.51A1.07,1.07,0,0,1,1920.12,1805.72ZM1412,1804.31l-.27,0-8-1.59a1.36,1.36,0,0,1,.53-2.66l8,1.59a1.36,1.36,0,0,1-.26,2.69Zm-26.63-5.29-.27,0-6.9-1.37-.16-3.23a1.35,1.35,0,0,1,1.29-1.42,1.29,1.29,0,0,1,1.42,1.29l.06,1.11,4.82,1a1.35,1.35,0,0,1,1.07,1.59A1.37,1.37,0,0,1,1385.32,1799Zm547.87-9.66a1.36,1.36,0,0,1-1.36-1.34c0-2.72-.09-5.42-.17-8.12a1.37,1.37,0,0,1,1.32-1.4,1.42,1.42,0,0,1,1.4,1.32c.08,2.71.13,5.44.17,8.16a1.36,1.36,0,0,1-1.34,1.38Zm-554.63-12.67a1.35,1.35,0,0,1-1.35-1.31c-.09-2.61-.17-5.34-.25-8.15a1.35,1.35,0,0,1,1.32-1.39,1.44,1.44,0,0,1,1.4,1.32c.07,2.8.15,5.52.24,8.13a1.35,1.35,0,0,1-1.31,1.4Zm553.56-14.45a1.35,1.35,0,0,1-1.35-1.27q-.27-4.08-.58-8.11a1.36,1.36,0,0,1,1.24-1.46,1.34,1.34,0,0,1,1.46,1.25c.21,2.69.41,5.41.59,8.14a1.37,1.37,0,0,1-1.27,1.45Zm-554.18-12.69a1.35,1.35,0,0,1-1.35-1.34c0-2.68-.06-5.4-.07-8.16a1.35,1.35,0,0,1,1.35-1.36h0a1.36,1.36,0,0,1,1.36,1.35q0,4.13.06,8.13a1.36,1.36,0,0,1-1.34,1.38Zm551.83-14.37a1.35,1.35,0,0,1-1.35-1.21c-.3-2.73-.6-5.42-.93-8.08a1.37,1.37,0,0,1,1.19-1.51,1.34,1.34,0,0,1,1.51,1.19c.32,2.66.63,5.37.93,8.11a1.36,1.36,0,0,1-1.21,1.49ZM1378,1722.4h0a1.36,1.36,0,0,1-1.34-1.38q.06-4.07.17-8.16a1.37,1.37,0,0,1,1.39-1.32,1.35,1.35,0,0,1,1.32,1.39q-.11,4.08-.16,8.13A1.37,1.37,0,0,1,1378,1722.4Zm548.34-14.16a1.35,1.35,0,0,1-1.34-1.16q-.6-4.11-1.22-8a1.34,1.34,0,0,1,1.12-1.55,1.37,1.37,0,0,1,1.56,1.13c.41,2.62.82,5.32,1.23,8.07a1.36,1.36,0,0,1-1.15,1.54Zm-547.45-13h-.08a1.36,1.36,0,0,1-1.28-1.43q.21-4.1.48-8.15a1.35,1.35,0,0,1,1.45-1.27,1.37,1.37,0,0,1,1.26,1.45q-.27,4-.48,8.11A1.36,1.36,0,0,1,1378.87,1695.26Zm543-13.82a1.36,1.36,0,0,1-1.34-1.11c-.51-2.8-1-5.47-1.51-8a1.36,1.36,0,0,1,2.67-.52c.49,2.53,1,5.21,1.51,8a1.35,1.35,0,0,1-1.09,1.58ZM1381,1668.19h-.15a1.36,1.36,0,0,1-1.2-1.49q.46-4.15,1-8.12a1.33,1.33,0,0,1,1.52-1.17,1.37,1.37,0,0,1,1.17,1.53q-.54,3.94-1,8A1.35,1.35,0,0,1,1381,1668.19Zm534.38-12.28h-.16q-3.78-.45-8.08-.87a1.35,1.35,0,0,1-1.21-1.48,1.37,1.37,0,0,1,1.48-1.22q4.32.42,8.12.87a1.35,1.35,0,0,1-.15,2.7Zm-27-2.44h-.1q-3.92-.29-8.12-.55a1.36,1.36,0,0,1,.18-2.71c2.8.18,5.52.36,8.13.55a1.36,1.36,0,0,1-.09,2.71Zm-27.1-1.62h-.07q-4-.21-8.13-.39a1.36,1.36,0,1,1,.12-2.71q4.17.18,8.14.39a1.36,1.36,0,0,1-.06,2.71Zm-27.13-1.19h0l-8.13-.29a1.36,1.36,0,0,1-1.31-1.41,1.41,1.41,0,0,1,1.4-1.31l8.14.3a1.36,1.36,0,0,1-.05,2.71Zm-27.13-.9h0l-8.14-.23a1.36,1.36,0,0,1-1.32-1.4,1.32,1.32,0,0,1,1.39-1.32l8.15.23a1.36,1.36,0,0,1,0,2.72Zm-27.14-.7h0l-8.15-.18a1.36,1.36,0,0,1,0-2.72h0l8.15.18a1.36,1.36,0,0,1,0,2.72Zm-27.15-.55h0l-8.14-.14a1.36,1.36,0,0,1,0-2.72h0l8.15.15a1.36,1.36,0,0,1,0,2.71Zm-361.13,0a1.36,1.36,0,0,1,0-2.72l8.15-.1h0a1.36,1.36,0,0,1,0,2.72l-8.15.1Zm27.16-.31a1.36,1.36,0,0,1,0-2.72l8.15-.08h0a1.36,1.36,0,0,1,0,2.72l-8.15.08Zm306.83-.12h0l-8.14-.1a1.36,1.36,0,0,1,0-2.72h0l8.14.11a1.36,1.36,0,0,1,0,2.71Zm-279.67-.14a1.36,1.36,0,0,1,0-2.72l8.15-.07h0a1.36,1.36,0,0,1,0,2.71l-8.14.08Zm252.52-.18h0l-8.15-.07a1.36,1.36,0,0,1,0-2.72h0l8.15.08a1.36,1.36,0,1,1,0,2.71Zm-225.36,0a1.36,1.36,0,1,1,0-2.71l8.15-.06h0a1.36,1.36,0,0,1,0,2.72l-8.15,0Zm198.21-.18h0l-8.14,0a1.36,1.36,0,0,1,0-2.72h0l8.15.06a1.36,1.36,0,1,1,0,2.71Zm-171,0a1.36,1.36,0,1,1,0-2.71l8.15,0h0a1.36,1.36,0,0,1,0,2.72l-8.14,0Zm27.15-.13a1.36,1.36,0,0,1,0-2.72l8.15,0h0a1.35,1.35,0,0,1,1.36,1.35,1.37,1.37,0,0,1-1.35,1.37l-8.15,0Zm116.75,0h0l-8.15,0a1.36,1.36,0,1,1,0-2.71h0l8.15,0a1.36,1.36,0,0,1,0,2.72Zm-89.59-.08a1.36,1.36,0,0,1,0-2.71l8.15,0a1.36,1.36,0,0,1,0,2.72Zm62.44,0h0l-8.14,0a1.36,1.36,0,1,1,0-2.71h8.14a1.36,1.36,0,0,1,0,2.72Zm-35.29,0a1.36,1.36,0,1,1,0-2.71h8.12a1.37,1.37,0,0,1,1.37,1.35,1.35,1.35,0,0,1-1.35,1.36Z" transform="translate(-433.73 -301.11)"/><path class="cls-34" d="M1697.85,1900h-72.4a18.71,18.71,0,0,1-18.61-16.44l-8.36-69.67a18.67,18.67,0,0,1,18.6-20.86h87a18.68,18.68,0,0,1,18.66,20.3l-6.21,69.67A18.71,18.71,0,0,1,1697.85,1900Z" transform="translate(-433.73 -301.11)"/><path class="cls-36" d="M1694,1891.86h-61.3a15.85,15.85,0,0,1-15.76-13.92l-7.08-59a15.81,15.81,0,0,1,15.75-17.66h73.65a15.81,15.81,0,0,1,15.8,17.18l-5.26,59A15.83,15.83,0,0,1,1694,1891.86Z" transform="translate(-433.73 -301.11)"/></g></g></svg>