<svg xmlns="http://www.w3.org/2000/svg" width="561.518" height="294" viewBox="0 0 561.518 294">
    <defs>
        <style>
            .cls-1{fill:#f6f6f6}.cls-2{fill:#ababab}.cls-9{fill:#fff;stroke:#ffd6d6;stroke-width:5px}.cls-10{fill:#b2b2b2}.cls-11,.cls-15{fill:none}.cls-11{stroke:#ababab;stroke-linecap:round;stroke-width:6px}.cls-14{stroke:none}
        </style>
    </defs>
    <g id="Grupo_9935" transform="translate(-1623.482 -1288)">
        <g id="Grupo_9932" transform="translate(1626.5 1288)">
            <rect id="Rectángulo_893" width="464" height="61" class="cls-1" rx="28" transform="translate(41.5 57)"/>
            <rect id="Rectángulo_894" width="464" height="54" class="cls-1" rx="27" transform="translate(94.5 118)"/>
            <rect id="Rectángulo_895" width="432" height="55" class="cls-1" rx="27.5" transform="translate(17.5 189)"/>
            <rect id="Rectángulo_896" width="358" height="56" class="cls-1" rx="28" transform="translate(153.5 238)"/>
            <g id="folder" transform="translate(153.014 31.424)">
                <g id="Grupo_9929">
                    <path id="Trazado_1238" d="M458.542 90H444.5v42.127h28.085v-28.085A14.042 14.042 0 0 0 458.542 90z" class="cls-2" transform="translate(-236.438 -58.405)"/>
                    <path id="Trazado_1239" fill="#d8d8d8" d="M226.094 72.127L183.967 128.3H7.5V44.042A14.042 14.042 0 0 1 21.542 30h68.373a14.044 14.044 0 0 1 9.933 4.114l23.97 23.97h88.233a14.042 14.042 0 0 1 14.043 14.043z" transform="translate(-3.989 -26.489)"/>
                    <path id="Trazado_1240" fill="#cca3a3" d="M412.585 120L384.5 155.106h42.127V120z" transform="translate(-204.523 -74.362)"/>
                    <path id="Trazado_1241" fill="#ffd6d6" d="M228.009 120v70.212L37.5 134.042V120z" transform="translate(-19.947 -74.362)"/>
                    <path id="Trazado_1242" fill="#fff" d="M37.5 150h136.179v42.127H37.5z" transform="translate(-19.947 -90.32)"/>
                    <path id="Trazado_1243" d="M458.542 150L444.5 164.042V305.4h14.042a14.042 14.042 0 0 0 14.042-14.042V164.042A14.042 14.042 0 0 0 458.542 150z" class="cls-2" transform="translate(-236.438 -90.32)"/>
                    <path id="Trazado_1244" fill="#dfdfdf" d="M226.094 150v141.36a14.042 14.042 0 0 1-14.043 14.04H21.542A14.042 14.042 0 0 1 7.5 291.36v-99.233a14.042 14.042 0 0 1 14.042-14.042h102.276l23.97-23.97a14.044 14.044 0 0 1 9.933-4.115z" transform="translate(-3.989 -90.32)"/>
                    <path id="Trazado_1245" fill="#8a8a8a" d="M222.1 50.585H121.283L98.339 27.641A17.44 17.44 0 0 0 85.927 22.5H17.553A17.573 17.573 0 0 0 0 40.053v183.488a17.573 17.573 0 0 0 17.553 17.553H222.1a17.573 17.573 0 0 0 17.553-17.553V68.138A17.573 17.573 0 0 0 222.1 50.585zM17.553 29.521h68.374a10.463 10.463 0 0 1 7.447 3.085l23.972 23.972a3.51 3.51 0 0 0 2.483 1.028H222.1a10.544 10.544 0 0 1 10.532 10.532V82.19a17.479 17.479 0 0 0-7.021-3.167V68.138a3.51 3.51 0 0 0-3.511-3.511H17.553a3.51 3.51 0 0 0-3.511 3.511v38.97a17.479 17.479 0 0 0-7.021 3.167V40.053a10.544 10.544 0 0 1 10.532-10.532zM45.638 78.67a3.511 3.511 0 1 0 0 7.021h93.8l-21.063 21.064H21.064V85.691H31.6a3.511 3.511 0 1 0 0-7.021H21.064v-7.022h197.53v7.022zm187 144.871a10.544 10.544 0 0 1-10.538 10.532H17.553a10.544 10.544 0 0 1-10.532-10.532v-99.233a10.544 10.544 0 0 1 10.532-10.532h102.276a3.512 3.512 0 0 0 2.483-1.028l23.971-23.972a10.465 10.465 0 0 1 7.448-3.085H222.1a10.544 10.544 0 0 1 10.532 10.532z" transform="translate(0 -22.5)"/>
                </g>
            </g>
            <g id="Elipse_157" class="cls-9" transform="translate(94.5)">
                <ellipse cx="15.5" cy="16" class="cls-14" rx="15.5" ry="16"/>
                <ellipse cx="15.5" cy="16" class="cls-15" rx="13" ry="13.5"/>
            </g>
            <ellipse id="Elipse_159" cx="8" cy="9" class="cls-10" rx="8" ry="9" transform="translate(65.5 257)"/>
            <ellipse id="Elipse_160" cx="8.5" cy="8" class="cls-10" rx="8.5" ry="8" transform="translate(289.5 8)"/>
            <g id="Elipse_158" class="cls-9" transform="translate(505.5 220)">
                <ellipse cx="15" cy="16" class="cls-14" rx="15" ry="16"/>
                <ellipse cx="15" cy="16" class="cls-15" rx="12.5" ry="13.5"/>
            </g>
            <g id="Grupo_9930" transform="translate(0 181.49)">
                <path id="Línea_134" d="M0 0L0 19.522" class="cls-11" transform="translate(8.457)"/>
                <path id="Línea_135" d="M0 0L17.046 0.1" class="cls-11" transform="translate(0 10.051)"/>
            </g>
            <g id="Grupo_9931" transform="translate(401.701 8.127)">
                <path id="Línea_134-2" d="M0 0L0 23.15" class="cls-11" transform="translate(10.029)"/>
                <path id="Línea_135-2" d="M0 0L20.215 0.119" class="cls-11" transform="translate(0 11.92)"/>
            </g>
        </g>
        <g id="lupa" transform="translate(1749.662 1421.072)">
            <g id="Grupo_9934">
                <g id="Grupo_9933">
                    <path id="Trazado_1246" fill="#9c9c9c" d="M1.674 129.036L45.9 84.811a5.7 5.7 0 0 1 7.8-.258l6.24-6.24a48.339 48.339 0 0 1 3.8-64.113 48.358 48.358 0 1 1 4.281 72.189l-6.244 6.244a5.711 5.711 0 0 1-.258 7.8l-44.225 44.224a5.717 5.717 0 0 1-8.082 0l-3.768-3.768-3.768-3.768a5.715 5.715 0 0 1-.002-8.085zm70.148-54.527a36.929 36.929 0 1 0 0-52.225 36.909 36.909 0 0 0 0 52.225z" transform="translate(-.001 -.061)"/>
                </g>
            </g>
        </g>
        <text id="_" fill="#949494" font-family="SegoeUI-Bold, Segoe UI" font-size="70px" font-weight="700" transform="translate(1847 1497)">
            <tspan x="-15.33" y="0">?</tspan>
        </text>
    </g>
</svg>
