<svg xmlns="http://www.w3.org/2000/svg" width="45.705" height="39.681" viewBox="0 0 45.705 39.681">
    <defs>
        <style>
            .cls-1{fill:#de1920}
        </style>
    </defs>
    <g id="progresion-grafica" transform="translate(0 -21.451)">
        <g id="Grupo_9951" transform="translate(0 21.451)">
            <g id="Layer_5_45_">
                <g id="Grupo_9950">
                    <g id="Grupo_9947" transform="translate(1.825 25.92)">
                        <path id="Trazado_1247" d="M25.916 217.7a2.112 2.112 0 0 1-2.106 2.106H15.1A2.112 2.112 0 0 1 13 217.7v-9.548a2.112 2.112 0 0 1 2.106-2.106h8.704a2.112 2.112 0 0 1 2.106 2.106z" class="cls-1" transform="translate(-12.998 -206.047)"/>
                    </g>
                    <g id="Grupo_9948" transform="translate(17.306 20.865)">
                        <path id="Trazado_1248" d="M136.166 186.756a2.112 2.112 0 0 1-2.106 2.106h-8.706a2.112 2.112 0 0 1-2.106-2.106v-14.6a2.112 2.112 0 0 1 2.106-2.106h8.706a2.112 2.112 0 0 1 2.106 2.106z" class="cls-1" transform="translate(-123.248 -170.047)"/>
                    </g>
                    <g id="Grupo_9949" transform="translate(32.787 15.248)">
                        <path id="Trazado_1249" d="M246.416 152.373a2.112 2.112 0 0 1-2.106 2.106h-8.71a2.112 2.112 0 0 1-2.106-2.106v-20.22a2.112 2.112 0 0 1 2.106-2.106h8.706a2.112 2.112 0 0 1 2.106 2.106z" class="cls-1" transform="translate(-233.498 -130.047)"/>
                    </g>
                    <path id="Trazado_1250" d="M43.882 21.49l-9.46 2.3c-.751.182-.918.777-.372 1.323l2.019 1.972c.169.193-.032.45-.191.559a60.393 60.393 0 0 1-6.077 3.6c-15.181 7.92-27.7 7.435-27.883 7.426a1.825 1.825 0 0 0-.186 3.646c.074 0 .375.017.881.017 3.245 0 14.9-.56 28.878-7.853a61.845 61.845 0 0 0 6.938-4.156c.189-.133.519-.363.824-.053l2.208 2.208c.546.546 1.139.378 1.317-.373l2.146-9.578c.176-.753-.291-1.219-1.042-1.038z" class="cls-1" transform="translate(0 -21.451)"/>
                </g>
            </g>
        </g>
    </g>
</svg>
