<svg xmlns="http://www.w3.org/2000/svg" width="534" height="544.852" viewBox="0 0 534 544.852">
    <defs>
        <clipPath id="clip-path">
            <path id="Trazado_1210" fill="#e1ecff" d="M555.73 600.261s49.9.321 63.919 3.9 51.132 87.573 66.488 95.614 28.4-5.316 45.317-15.234 32.423-21.92 32.909-26.929-6.7-25.024-12.915-29.062-24.26-4.324-33.886 1.841c-14.142-38.531-34.25-94.722-52.688-102.457s-74.315-11.417-74.315-11.417z" transform="translate(-555.73 -516.52)"/>
        </clipPath>
        <style>
            .cls-4{fill:#c9c9c9}.cls-5{fill:#9f9f9f}.cls-10{fill:#fec272}.cls-13,.cls-14{fill:#a7a7a7}.cls-14{opacity:.44}.cls-15{fill:#717171;opacity:.64}
        </style>
    </defs>
    <g id="Astronaut-01" opacity="0.6" transform="translate(-148.265 -158.202)">
        <g id="Layer_3" transform="translate(148.265 158.202)">
            <path id="Trazado_1205" fill="gray" d="M277.841 357.236s-24.26 9.6-27.828 32.908 51.56 91.6 51.56 91.6l170.009-91.614-53.751-94.33z" transform="translate(-177.364 -197.618)"/>
            <path id="Trazado_1206" d="M330.121 388.146s-17.888 18.367-23.376 38.688-6.194 56.612-5.28 70.205c26.686 24.7 132.169 4 132.169 4l101.652-119.572s-17.232-32.716-25.98-41.685-37.1-20.122-69.82-6.957c-19.202 27.25-109.365 55.321-109.365 55.321z" class="cls-4" transform="translate(-192.055 -206.494)"/>
            <path id="Trazado_1207" d="M330.57 397.991s39.466 12.665 83.891-4.5S466.935 328 466.935 328l-19.035 5.18-109.345 55.314z" class="cls-5" transform="translate(-200.488 -206.843)"/>
            <path id="Trazado_1208" d="M555.73 600.261s49.9.321 63.919 3.9 51.132 87.573 66.488 95.614 28.4-5.316 45.317-15.234 32.423-21.92 32.909-26.929-6.7-25.024-12.915-29.062-24.26-4.324-33.886 1.841c-14.142-38.531-34.25-94.722-52.688-102.457s-74.315-11.417-74.315-11.417z" class="cls-4" transform="translate(-264.987 -260.846)"/>
            <g id="Grupo_9920" clip-path="url(#clip-path)" transform="translate(290.743 255.674)">
                <path id="Trazado_1209" fill="#9f9f9f" d="M603.38 582.34s40.629 4.445 51.853 19.565 33.465 107.638 58.36 109.828c.4 29.969-51.161 40.793-51.161 40.793L538.84 615.2z" opacity="0.51" transform="translate(-550.892 -535.375)"/>
            </g>
            <path id="Trazado_1211" d="M367.85 611.389s30.682 64.354 58.51 81.907 78.247 16.133 92.154 27.628 10.967 66.716 24.867 81.344 33.458 23.59 51.739 21.941 32.909-10.418 33.094-18.645-.549-15.363-9.14-19.751-20.693-8.042-21.214-13.158-10.24-83.005-14.271-104.176-35.342-50.619-75.692-65.453c-38.21-32-96.9-18.288-96.9-18.288z" class="cls-4" transform="translate(-211.167 -279.552)"/>
            <path id="Trazado_1212" d="M376.776 625.8s35.213 1.8 66.837-12.095c-6.044-32.181-24.689-41.685-24.689-41.685l-51.074 36.562z" class="cls-5" transform="translate(-211.167 -276.744)"/>
            <path id="Trazado_1213" d="M391.685 172.182c-27.578-14.763-85.375-19.744-121.052 24.5s-17.9 90.134-2.9 111.5c15.7 22.419 69.656 56.684 127.246 24.5s63.621-124.666-3.294-160.5z" class="cls-4" transform="translate(-177.348 -159.197)"/>
            <path id="Trazado_1214" fill="#4e4e4e" d="M402.067 213.354c24.5 5.851 40.408 40.222 32.181 73.131s-36.569 55.035-68.379 55.215-63.441-21.542-63.27-62.156c.172-39.033 46.274-78.891 99.468-66.19z" transform="translate(-192.475 -173.312)"/>
            <path id="Trazado_1215" d="M343.09 551.967c31.917-14.813 8.042-48.635 39.858-56.327 41.949 5.965 53.551 3.825 53.551 3.825s-80.251 70.483-93.409 52.502z" class="cls-5" transform="translate(-204.074 -254.865)"/>
            <path id="Trazado_1216" fill="#888" d="M380.36 399.635l53.116 136.679 75.143-1.791 68.742-43.512 20.479-62.164-49.727-149.187-24.139 69.84-62.528 49.727z" transform="translate(-214.751 -192.995)"/>
            <path id="Trazado_1217" d="M331.205 551.164c17.61-1.427 26.579-12.894 31.917-17.981 2.719-2.6 2.176-4.874.806-12.366s3.382-15.177 9.875-18.466c3.568 9.6 7.949 11.417 11.331 10.967s6.857-20.657 17.917-20.479 19.929 14.813 21.406 22.12-5.665 28.149-14.628 42.777-21.606 32.737-50.069 38.4-44.646-8.869-53.972-27.243c-3.147-6.2-4.281-14.77-4.181-24.317.001.002 6.372 8.415 29.598 6.588z" class="cls-4" transform="translate(-192.19 -254.062)"/>
            <path id="Trazado_1218" d="M636.548 351.651s3.389 11.024 1.106 15.32-5.394 7.849-7.678 13.35 1.1 26.237 11.153 29.8 18.374-5.758 21.028-11.153 1.185-19.558-2.747-29.434-11.324-18.654-22.862-17.883z" class="cls-4" transform="translate(-286.06 -213.604)"/>
            <path id="Trazado_1219" d="M650.119 159.278l2.255 4.567a1.891 1.891 0 0 0 1.427 1.042l5.045.714a1.905 1.905 0 0 1 1.056 3.254l-3.646 3.568a1.9 1.9 0 0 0-.549 1.684l.856 4.995a1.905 1.905 0 0 1-2.761 2.012l-4.517-2.369a1.891 1.891 0 0 0-1.77 0L643 181.112a1.905 1.905 0 0 1-2.768-2.012l.863-4.995a1.9 1.9 0 0 0-.549-1.684l-3.646-3.568a1.905 1.905 0 0 1 1.056-3.254l5.045-.714a1.891 1.891 0 0 0 1.427-1.042l2.255-4.567a1.912 1.912 0 0 1 3.439 0z" class="cls-10" transform="translate(-288.073 -158.202)"/>
            <path id="Trazado_1234" d="M650.119 159.278l2.255 4.567a1.891 1.891 0 0 0 1.427 1.042l5.045.714a1.905 1.905 0 0 1 1.056 3.254l-3.646 3.568a1.9 1.9 0 0 0-.549 1.684l.856 4.995a1.905 1.905 0 0 1-2.761 2.012l-4.517-2.369a1.891 1.891 0 0 0-1.77 0L643 181.112a1.905 1.905 0 0 1-2.768-2.012l.863-4.995a1.9 1.9 0 0 0-.549-1.684l-3.646-3.568a1.905 1.905 0 0 1 1.056-3.254l5.045-.714a1.891 1.891 0 0 0 1.427-1.042l2.255-4.567a1.912 1.912 0 0 1 3.439 0z" class="cls-10" transform="translate(-191.031 70.844)"/>
            <path id="Trazado_1236" d="M650.119 159.278l2.255 4.567a1.891 1.891 0 0 0 1.427 1.042l5.045.714a1.905 1.905 0 0 1 1.056 3.254l-3.646 3.568a1.9 1.9 0 0 0-.549 1.684l.856 4.995a1.905 1.905 0 0 1-2.761 2.012l-4.517-2.369a1.891 1.891 0 0 0-1.77 0L643 181.112a1.905 1.905 0 0 1-2.768-2.012l.863-4.995a1.9 1.9 0 0 0-.549-1.684l-3.646-3.568a1.905 1.905 0 0 1 1.056-3.254l5.045-.714a1.891 1.891 0 0 0 1.427-1.042l2.255-4.567a1.912 1.912 0 0 1 3.439 0z" class="cls-10" transform="translate(-161.062 325.578)"/>
            <path id="Trazado_1235" d="M650.119 159.278l2.255 4.567a1.891 1.891 0 0 0 1.427 1.042l5.045.714a1.905 1.905 0 0 1 1.056 3.254l-3.646 3.568a1.9 1.9 0 0 0-.549 1.684l.856 4.995a1.905 1.905 0 0 1-2.761 2.012l-4.517-2.369a1.891 1.891 0 0 0-1.77 0L643 181.112a1.905 1.905 0 0 1-2.768-2.012l.863-4.995a1.9 1.9 0 0 0-.549-1.684l-3.646-3.568a1.905 1.905 0 0 1 1.056-3.254l5.045-.714a1.891 1.891 0 0 0 1.427-1.042l2.255-4.567a1.912 1.912 0 0 1 3.439 0z" class="cls-10" transform="translate(-613.447 45.157)"/>
            <path id="Trazado_1220" d="M312.7 836.639l1.891 3.832a1.57 1.57 0 0 0 1.2.87l4.231.614a1.6 1.6 0 0 1 .885 2.726l-3.061 2.983a1.584 1.584 0 0 0-.457 1.427l.714 4.21a1.606 1.606 0 0 1-2.319 1.691L312 853a1.606 1.606 0 0 0-1.484 0l-3.768 1.977a1.6 1.6 0 0 1-2.319-1.691l.714-4.21a1.612 1.612 0 0 0-.464-1.427l-3.054-2.983a1.6 1.6 0 0 1 .885-2.726l4.224-.614a1.591 1.591 0 0 0 1.206-.87l1.891-3.832a1.6 1.6 0 0 1 2.868.014z" class="cls-10" transform="translate(-192.059 -352.289)"/>
            <ellipse id="Elipse_156" cx="32.559" cy="11.517" fill="#fff" opacity="0.48" rx="32.559" ry="11.517" transform="rotate(-12.43 376.85 -662.605)"/>
            <path id="Trazado_1221" d="M453.872 545.313s-20.2-18.053-23.861-18.053-13.411 14.271-11.211 18.053 13.486 16.169 25.88 19.979c4.02-7.664 9.192-19.979 9.192-19.979z" class="cls-5" transform="translate(-225.671 -263.922)"/>
            <path id="Trazado_1222" fill="#676465" d="M494 427.267l47.172 135.294 68.742-43.512-53.386-141.509z" opacity="0.5" transform="translate(-247.304 -221.034)"/>
            <path id="Trazado_1223" d="M662.748 739.49a87.767 87.767 0 0 1-23.548 13.964c-8 3.083-10.7 9.39-8.284 20.964s3.775 29.619 8.769 34.371 22.177 2.226 31.082-8.819c-2.789-21.763-8.019-60.48-8.019-60.48z" class="cls-5" transform="translate(-286.281 -324.718)"/>
            <path id="Trazado_1224" d="M737.465 574.12s-9.99 4.353-9.041 11.3 11.153 40.5 15.177 43.526 15.933-2.34 15.933-2.34c-12.234-34.655-22.069-52.486-22.069-52.486z" class="cls-5" transform="translate(-314.439 -277.346)"/>
            <path id="Trazado_1225" d="M149.731 673.457c-7.942-16.469 17.938-34.093 39.958-32.823s31.274 21.6 39.073 29.184c16.29 15.826 15.776 31.31 4.5 37.967s-73.02-12.544-83.531-34.328z" class="cls-13" transform="translate(-148.265 -296.381)"/>
            <path id="Trazado_1226" d="M771.9 312.811c-6.422-5.623.186-32.052 15.355-38.239s34.007.578 38.032 11.181-40.224 38.575-53.387 27.058z" class="cls-13" transform="translate(-326.21 -190.862)"/>
            <path id="Trazado_1227" d="M875.811 347.764c-3.289 4.688-5.48 18.038 1.463 20.414s12.194-11.36 9.754-18.509-9.019-5.037-11.217-1.905z" class="cls-13" transform="translate(-355.787 -211.672)"/>
            <path id="Trazado_1228" d="M879.921 196.859c-5.18 2.44-13.721 12.929-8.869 18.445s16.219-3.8 17.653-11.217-5.323-8.855-8.784-7.228z" class="cls-14" transform="translate(-354.902 -169.104)"/>
            <path id="Trazado_1229" d="M193.008 782.22c-4.481-3.568-17.66-6.6-20.471.186s10.575 12.844 17.839 10.889 5.615-8.695 2.632-11.075z" class="cls-14" transform="translate(-155.108 -335.853)"/>
            <path id="Trazado_1230" d="M253.166 675.23c-7.97 1.5-6.686 8.627-4.131 15.084s11.545 8.3 17.888 2.4c-4.117-9.799-13.757-17.484-13.757-17.484z" class="cls-15" transform="translate(-176.571 -306.31)"/>
            <path id="Trazado_1231" d="M188.249 660.111c-5.708.635-10.361 8.9-6.336 15.6s11.694 11.579 16.087 9.752 5.123-11.7 1.955-18.038-6.219-7.925-11.706-7.314z" class="cls-15" transform="translate(-157.47 -301.944)"/>
            <path id="Trazado_1232" d="M820.313 283.412c-3.132 1-6.308 4.388-6.029 8.049s3.475 6.857 6.943 6.422 6.422-6.037 5.708-10.061a5.18 5.18 0 0 0-6.622-4.41z" class="cls-15" transform="translate(-339.047 -194.007)"/>
            <path id="Trazado_1233" d="M774.434 293.5s4.281 4.281 3.568 9.14-8.092 4.41-8.092 4.41 1.099-8.284 4.524-13.55z" class="cls-15" transform="translate(-326.341 -196.96)"/>
        </g>
    </g>
</svg>
